M48
; DRILL file {KiCad 9.0.9.1} date 2026-09-09T23:09:16+0900
; FORMAT={-:-/ absolute / metric / decimal}
; #@! TF.CreationDate,2026-09-09T23:09:16+09:00
; #@! TF.GenerationSoftware,Kicad,Pcbnew,9.0.9.1
; #@! TF.FileFunction,Plated,1,2,PTH
FMAT,2
METRIC
; #@! TA.AperFunction,Plated,PTH,ComponentDrill
T1C0.600
; #@! TA.AperFunction,Plated,PTH,ComponentDrill
T2C0.800
; #@! TA.AperFunction,Plated,PTH,ComponentDrill
T3C0.900
; #@! TA.AperFunction,Plated,PTH,ComponentDrill
T4C1.000
; #@! TA.AperFunction,Plated,PTH,ComponentDrill
T5C1.100
; #@! TA.AperFunction,Plated,PTH,ComponentDrill
T6C2.700
%
G90
G05
T2
X53.0Y-100.0
X53.0Y-105.0
X63.16Y-100.0
X63.16Y-105.0
X75.0Y-65.0
X75.0Y-75.16
X80.0Y-65.0
X80.0Y-75.16
X95.0Y-65.0
X95.0Y-75.16
X100.0Y-65.0
X100.0Y-75.16
T3
X67.0Y-102.0
X69.54Y-102.0
X72.0Y-102.0
X74.54Y-102.0
T4
X56.0Y-81.5
X56.0Y-84.0
X56.0Y-92.5
X56.0Y-95.0
X68.0Y-81.5
X68.0Y-84.0
X68.0Y-92.5
X68.0Y-95.0
T5
X85.42Y-60.0
X87.71Y-60.0
X90.0Y-60.0
X105.42Y-60.0
X107.71Y-60.0
X110.0Y-60.0
T6
X69.15Y-64.4
X69.15Y-71.6
X85.0Y-85.0
X85.0Y-95.0
X85.0Y-105.0
X85.0Y-115.0
X90.0Y-85.0
X90.0Y-95.0
X90.0Y-105.0
X90.0Y-115.0
X105.0Y-85.0
X105.0Y-95.0
X105.0Y-105.0
X105.0Y-115.0
X110.0Y-85.0
X110.0Y-95.0
X110.0Y-105.0
X110.0Y-115.0
T1
G00X62.6Y-61.25
M15
G01X63.7Y-61.25
M16
G05
G00X62.6Y-74.75
M15
G01X63.7Y-74.75
M16
G05
M30
