%TF.GenerationSoftware,KiCad,Pcbnew,9.0.9.1*%
%TF.CreationDate,2026-09-09T23:09:14+09:00*%
%TF.ProjectId,TRIA_DrivePowerBoard,54524941-5f44-4726-9976-65506f776572,rev?*%
%TF.SameCoordinates,Original*%
%TF.FileFunction,Copper,L2,Bot*%
%TF.FilePolarity,Positive*%
%FSLAX46Y46*%
G04 Gerber Fmt 4.6, Leading zero omitted, Abs format (unit mm)*
G04 Created by KiCad (PCBNEW 9.0.9.1) date 2026-09-09 23:09:14*
%MOMM*%
%LPD*%
G01*
G04 APERTURE LIST*
G04 Aperture macros list*
%AMRoundRect*
0 Rectangle with rounded corners*
0 $1 Rounding radius*
0 $2 $3 $4 $5 $6 $7 $8 $9 X,Y pos of 4 corners*
0 Add a 4 corners polygon primitive as box body*
4,1,4,$2,$3,$4,$5,$6,$7,$8,$9,$2,$3,0*
0 Add four circle primitives for the rounded corners*
1,1,$1+$1,$2,$3*
1,1,$1+$1,$4,$5*
1,1,$1+$1,$6,$7*
1,1,$1+$1,$8,$9*
0 Add four rect primitives between the rounded corners*
20,1,$1+$1,$2,$3,$4,$5,0*
20,1,$1+$1,$4,$5,$6,$7,0*
20,1,$1+$1,$6,$7,$8,$9,0*
20,1,$1+$1,$8,$9,$2,$3,0*%
G04 Aperture macros list end*
%TA.AperFunction,ComponentPad*%
%ADD10C,1.600000*%
%TD*%
%TA.AperFunction,ComponentPad*%
%ADD11RoundRect,0.250000X0.750000X-0.600000X0.750000X0.600000X-0.750000X0.600000X-0.750000X-0.600000X0*%
%TD*%
%TA.AperFunction,ComponentPad*%
%ADD12O,2.000000X1.700000*%
%TD*%
%TA.AperFunction,ComponentPad*%
%ADD13RoundRect,0.760000X-1.140000X-1.140000X1.140000X-1.140000X1.140000X1.140000X-1.140000X1.140000X0*%
%TD*%
%TA.AperFunction,ComponentPad*%
%ADD14C,4.000000*%
%TD*%
%TA.AperFunction,ComponentPad*%
%ADD15R,1.800000X1.800000*%
%TD*%
%TA.AperFunction,ComponentPad*%
%ADD16C,1.800000*%
%TD*%
%TA.AperFunction,ComponentPad*%
%ADD17O,1.717500X1.800000*%
%TD*%
%TA.AperFunction,ComponentPad*%
%ADD18R,1.717500X1.800000*%
%TD*%
%TA.AperFunction,ComponentPad*%
%ADD19R,2.000000X0.900000*%
%TD*%
%TA.AperFunction,ComponentPad*%
%ADD20RoundRect,1.025000X1.025000X-1.025000X1.025000X1.025000X-1.025000X1.025000X-1.025000X-1.025000X0*%
%TD*%
%TA.AperFunction,ComponentPad*%
%ADD21C,4.100000*%
%TD*%
%TA.AperFunction,Conductor*%
%ADD22C,1.000000*%
%TD*%
G04 APERTURE END LIST*
D10*
%TO.P,R3,1*%
%TO.N,non_emergency*%
X95000000Y-65000000D03*
%TO.P,R3,2*%
%TO.N,Net-(J2-Pin_2)*%
X95000000Y-75160000D03*
%TD*%
%TO.P,R6,1*%
%TO.N,out*%
X53000000Y-105000000D03*
%TO.P,R6,2*%
%TO.N,Net-(D2-A)*%
X63160000Y-105000000D03*
%TD*%
D11*
%TO.P,\u30B9\u30A4\u30C3\u30C1LED,1,Pin_1*%
%TO.N,GND*%
X68000000Y-95000000D03*
D12*
%TO.P,\u30B9\u30A4\u30C3\u30C1LED,2,Pin_2*%
%TO.N,non_emergency*%
X68000000Y-92500000D03*
%TD*%
D13*
%TO.P,J10,1,Pin_1*%
%TO.N,GND*%
X105000000Y-95000000D03*
D14*
%TO.P,J10,2,Pin_2*%
%TO.N,out*%
X110000000Y-95000000D03*
%TD*%
D13*
%TO.P,J5,1,Pin_1*%
%TO.N,GND*%
X85000000Y-105000000D03*
D14*
%TO.P,J5,2,Pin_2*%
%TO.N,out*%
X90000000Y-105000000D03*
%TD*%
D13*
%TO.P,J11,1,Pin_1*%
%TO.N,GND*%
X105000000Y-105000000D03*
D14*
%TO.P,J11,2,Pin_2*%
%TO.N,out*%
X110000000Y-105000000D03*
%TD*%
D10*
%TO.P,R1,1*%
%TO.N,+BATT*%
X75000000Y-65000000D03*
%TO.P,R1,2*%
%TO.N,Net-(J6-Pin_2)*%
X75000000Y-75160000D03*
%TD*%
%TO.P,R2,1*%
%TO.N,Net-(J6-Pin_1)*%
X80000000Y-65000000D03*
%TO.P,R2,2*%
%TO.N,GND*%
X80000000Y-75160000D03*
%TD*%
D11*
%TO.P,\u4E3B\u96FB\u6E90,1,Pin_1*%
%TO.N,Net-(J6-Pin_1)*%
X56000000Y-84000000D03*
D12*
%TO.P,\u4E3B\u96FB\u6E90,2,Pin_2*%
%TO.N,Net-(J6-Pin_2)*%
X56000000Y-81500000D03*
%TD*%
D13*
%TO.P,J8,1,Pin_1*%
%TO.N,GND*%
X85000000Y-115000000D03*
D14*
%TO.P,J8,2,Pin_2*%
%TO.N,out*%
X90000000Y-115000000D03*
%TD*%
D15*
%TO.P,Out,1,K*%
%TO.N,GND*%
X72000000Y-102000000D03*
D16*
%TO.P,Out,2,A*%
%TO.N,Net-(D2-A)*%
X74540000Y-102000000D03*
%TD*%
D10*
%TO.P,R4,1*%
%TO.N,Net-(J2-Pin_1)*%
X100000000Y-65000000D03*
%TO.P,R4,2*%
%TO.N,GND*%
X100000000Y-75160000D03*
%TD*%
%TO.P,R5,1*%
%TO.N,+BATT*%
X53000000Y-100000000D03*
%TO.P,R5,2*%
%TO.N,Net-(D1-A)*%
X63160000Y-100000000D03*
%TD*%
D13*
%TO.P,J12,1,Pin_1*%
%TO.N,GND*%
X105000000Y-115000000D03*
D14*
%TO.P,J12,2,Pin_2*%
%TO.N,out*%
X110000000Y-115000000D03*
%TD*%
D17*
%TO.P,Q1,1,D*%
%TO.N,non_emergency*%
X87710000Y-60000000D03*
D18*
%TO.P,Q1,2,G*%
%TO.N,Net-(J6-Pin_2)*%
X90000000Y-60000000D03*
D17*
%TO.P,Q1,3,S*%
%TO.N,+BATT*%
X85420000Y-60000000D03*
%TD*%
D11*
%TO.P,\u96FB\u5727\u8A08,1,Pin_1*%
%TO.N,GND*%
X68000000Y-84000000D03*
D12*
%TO.P,\u96FB\u5727\u8A08,2,Pin_2*%
%TO.N,non_emergency*%
X68000000Y-81500000D03*
%TD*%
D13*
%TO.P,J3,1,Pin_1*%
%TO.N,GND*%
X85000000Y-85000000D03*
D14*
%TO.P,J3,2,Pin_2*%
%TO.N,out*%
X90000000Y-85000000D03*
%TD*%
D19*
%TO.P,\u30D0\u30C3\u30C6\u30EA\u30FC,*%
%TO.N,*%
X63150000Y-74750000D03*
X63150000Y-61250000D03*
D20*
%TO.P,\u30D0\u30C3\u30C6\u30EA\u30FC,1,Pin_1*%
%TO.N,GND*%
X69150000Y-71600000D03*
D21*
%TO.P,\u30D0\u30C3\u30C6\u30EA\u30FC,2,Pin_2*%
%TO.N,+BATT*%
X69150000Y-64400000D03*
%TD*%
D13*
%TO.P,J9,1,Pin_1*%
%TO.N,GND*%
X105000000Y-85000000D03*
D14*
%TO.P,J9,2,Pin_2*%
%TO.N,out*%
X110000000Y-85000000D03*
%TD*%
D13*
%TO.P,J4,1,Pin_1*%
%TO.N,GND*%
X85000000Y-95000000D03*
D14*
%TO.P,J4,2,Pin_2*%
%TO.N,out*%
X90000000Y-95000000D03*
%TD*%
D15*
%TO.P,Batt,1,K*%
%TO.N,GND*%
X67000000Y-102000000D03*
D16*
%TO.P,Batt,2,A*%
%TO.N,Net-(D1-A)*%
X69540000Y-102000000D03*
%TD*%
D11*
%TO.P,\u7DCA\u6025\u505C\u6B62,1,Pin_1*%
%TO.N,Net-(J2-Pin_1)*%
X56000000Y-95000000D03*
D12*
%TO.P,\u7DCA\u6025\u505C\u6B62,2,Pin_2*%
%TO.N,Net-(J2-Pin_2)*%
X56000000Y-92500000D03*
%TD*%
D17*
%TO.P,Q2,1,D*%
%TO.N,out*%
X107710000Y-60000000D03*
D18*
%TO.P,Q2,2,G*%
%TO.N,Net-(J2-Pin_2)*%
X110000000Y-60000000D03*
D17*
%TO.P,Q2,3,S*%
%TO.N,non_emergency*%
X105420000Y-60000000D03*
%TD*%
D22*
%TO.N,Net-(J2-Pin_2)*%
X110000000Y-60160000D02*
X95000000Y-75160000D01*
X110000000Y-60000000D02*
X110000000Y-60160000D01*
%TO.N,Net-(J6-Pin_2)*%
X90000000Y-60160000D02*
X75000000Y-75160000D01*
X90000000Y-60000000D02*
X90000000Y-60160000D01*
%TD*%
%TA.AperFunction,Conductor*%
%TO.N,GND*%
G36*
X138004418Y-50500816D02*
G01*
X138204561Y-50515130D01*
X138222063Y-50517647D01*
X138413795Y-50559355D01*
X138430760Y-50564336D01*
X138614611Y-50632909D01*
X138630694Y-50640253D01*
X138747495Y-50704032D01*
X138802908Y-50734290D01*
X138817791Y-50743855D01*
X138974864Y-50861438D01*
X138988235Y-50873024D01*
X139126975Y-51011764D01*
X139138561Y-51025135D01*
X139256144Y-51182208D01*
X139265709Y-51197091D01*
X139359743Y-51369300D01*
X139367093Y-51385394D01*
X139435661Y-51569234D01*
X139440645Y-51586209D01*
X139482351Y-51777931D01*
X139484869Y-51795442D01*
X139499184Y-51995580D01*
X139499500Y-52004427D01*
X139499500Y-117995572D01*
X139499184Y-118004419D01*
X139484869Y-118204557D01*
X139482351Y-118222068D01*
X139440645Y-118413790D01*
X139435661Y-118430765D01*
X139367093Y-118614605D01*
X139359743Y-118630699D01*
X139265709Y-118802908D01*
X139256144Y-118817791D01*
X139138561Y-118974864D01*
X139126975Y-118988235D01*
X138988235Y-119126975D01*
X138974864Y-119138561D01*
X138817791Y-119256144D01*
X138802908Y-119265709D01*
X138630699Y-119359743D01*
X138614605Y-119367093D01*
X138430765Y-119435661D01*
X138413790Y-119440645D01*
X138222068Y-119482351D01*
X138204557Y-119484869D01*
X138023779Y-119497799D01*
X138004417Y-119499184D01*
X137995572Y-119499500D01*
X52004428Y-119499500D01*
X51995582Y-119499184D01*
X51973622Y-119497613D01*
X51795442Y-119484869D01*
X51777931Y-119482351D01*
X51586209Y-119440645D01*
X51569234Y-119435661D01*
X51385394Y-119367093D01*
X51369300Y-119359743D01*
X51197091Y-119265709D01*
X51182208Y-119256144D01*
X51025135Y-119138561D01*
X51011764Y-119126975D01*
X50873024Y-118988235D01*
X50861438Y-118974864D01*
X50743855Y-118817791D01*
X50734290Y-118802908D01*
X50640256Y-118630699D01*
X50632909Y-118614611D01*
X50564336Y-118430760D01*
X50559354Y-118413790D01*
X50517648Y-118222068D01*
X50515130Y-118204556D01*
X50500816Y-118004418D01*
X50500500Y-117995572D01*
X50500500Y-114857744D01*
X52829500Y-114857744D01*
X52829500Y-115142255D01*
X52829501Y-115142271D01*
X52866636Y-115424341D01*
X52866637Y-115424346D01*
X52866638Y-115424352D01*
X52940278Y-115699181D01*
X52994198Y-115829354D01*
X53049159Y-115962043D01*
X53049164Y-115962054D01*
X53191422Y-116208451D01*
X53364628Y-116434179D01*
X53364634Y-116434186D01*
X53565813Y-116635365D01*
X53565820Y-116635371D01*
X53791548Y-116808577D01*
X54037945Y-116950835D01*
X54037950Y-116950837D01*
X54037953Y-116950839D01*
X54300819Y-117059722D01*
X54575648Y-117133362D01*
X54857738Y-117170500D01*
X54857745Y-117170500D01*
X55142255Y-117170500D01*
X55142262Y-117170500D01*
X55424352Y-117133362D01*
X55699181Y-117059722D01*
X55962047Y-116950839D01*
X56208452Y-116808577D01*
X56434181Y-116635370D01*
X56635370Y-116434181D01*
X56808577Y-116208452D01*
X56950839Y-115962047D01*
X57059722Y-115699181D01*
X57133362Y-115424352D01*
X57170500Y-115142262D01*
X57170500Y-114857738D01*
X57133362Y-114575648D01*
X57059722Y-114300819D01*
X56950839Y-114037953D01*
X56950837Y-114037950D01*
X56950835Y-114037945D01*
X56845125Y-113854851D01*
X56810732Y-113795280D01*
X82600000Y-113795280D01*
X82600000Y-114750000D01*
X83672769Y-114750000D01*
X83650000Y-114893753D01*
X83650000Y-115106247D01*
X83672769Y-115250000D01*
X82600000Y-115250000D01*
X82600000Y-116204719D01*
X82610482Y-116337906D01*
X82610483Y-116337912D01*
X82665898Y-116557829D01*
X82665899Y-116557832D01*
X82759695Y-116764330D01*
X82759698Y-116764336D01*
X82888851Y-116950758D01*
X82888861Y-116950770D01*
X83049229Y-117111138D01*
X83049241Y-117111148D01*
X83235663Y-117240301D01*
X83235669Y-117240304D01*
X83442167Y-117334100D01*
X83442170Y-117334101D01*
X83662087Y-117389516D01*
X83662093Y-117389517D01*
X83795280Y-117399999D01*
X83795294Y-117400000D01*
X84750000Y-117400000D01*
X84750000Y-116327231D01*
X84893753Y-116350000D01*
X85106247Y-116350000D01*
X85250000Y-116327231D01*
X85250000Y-117400000D01*
X86204706Y-117400000D01*
X86204719Y-117399999D01*
X86337906Y-117389517D01*
X86337912Y-117389516D01*
X86557829Y-117334101D01*
X86557832Y-117334100D01*
X86764330Y-117240304D01*
X86764336Y-117240301D01*
X86950758Y-117111148D01*
X86950770Y-117111138D01*
X87111138Y-116950770D01*
X87111148Y-116950758D01*
X87240301Y-116764336D01*
X87240304Y-116764330D01*
X87334100Y-116557832D01*
X87334101Y-116557829D01*
X87389516Y-116337912D01*
X87389517Y-116337906D01*
X87399999Y-116204719D01*
X87400000Y-116204706D01*
X87400000Y-115870309D01*
X87419685Y-115803270D01*
X87472489Y-115757515D01*
X87541647Y-115747571D01*
X87605203Y-115776596D01*
X87641041Y-115829354D01*
X87686199Y-115958407D01*
X87686200Y-115958411D01*
X87808053Y-116211442D01*
X87808055Y-116211445D01*
X87957477Y-116449248D01*
X88044068Y-116557829D01*
X88105900Y-116635365D01*
X88132584Y-116668825D01*
X88331175Y-116867416D01*
X88550752Y-117042523D01*
X88788555Y-117191945D01*
X89041592Y-117313801D01*
X89240680Y-117383465D01*
X89306670Y-117406556D01*
X89306682Y-117406560D01*
X89580491Y-117469055D01*
X89580497Y-117469055D01*
X89580505Y-117469057D01*
X89766547Y-117490018D01*
X89859569Y-117500499D01*
X89859572Y-117500500D01*
X89859575Y-117500500D01*
X90140428Y-117500500D01*
X90140429Y-117500499D01*
X90283055Y-117484429D01*
X90419494Y-117469057D01*
X90419499Y-117469056D01*
X90419509Y-117469055D01*
X90693318Y-117406560D01*
X90958408Y-117313801D01*
X91211445Y-117191945D01*
X91449248Y-117042523D01*
X91668825Y-116867416D01*
X91867416Y-116668825D01*
X92042523Y-116449248D01*
X92191945Y-116211445D01*
X92313801Y-115958408D01*
X92406560Y-115693318D01*
X92469055Y-115419509D01*
X92488154Y-115250000D01*
X92495506Y-115184754D01*
X92495506Y-115184753D01*
X92500499Y-115140431D01*
X92500500Y-115140427D01*
X92500500Y-114859572D01*
X92500499Y-114859568D01*
X92500497Y-114859554D01*
X92485561Y-114726986D01*
X92469057Y-114580505D01*
X92469054Y-114580487D01*
X92406560Y-114306682D01*
X92406556Y-114306670D01*
X92366194Y-114191324D01*
X92313801Y-114041592D01*
X92313798Y-114041587D01*
X92313796Y-114041580D01*
X92219924Y-113846652D01*
X92195184Y-113795280D01*
X102600000Y-113795280D01*
X102600000Y-114750000D01*
X103672769Y-114750000D01*
X103650000Y-114893753D01*
X103650000Y-115106247D01*
X103672769Y-115250000D01*
X102600000Y-115250000D01*
X102600000Y-116204719D01*
X102610482Y-116337906D01*
X102610483Y-116337912D01*
X102665898Y-116557829D01*
X102665899Y-116557832D01*
X102759695Y-116764330D01*
X102759698Y-116764336D01*
X102888851Y-116950758D01*
X102888861Y-116950770D01*
X103049229Y-117111138D01*
X103049241Y-117111148D01*
X103235663Y-117240301D01*
X103235669Y-117240304D01*
X103442167Y-117334100D01*
X103442170Y-117334101D01*
X103662087Y-117389516D01*
X103662093Y-117389517D01*
X103795280Y-117399999D01*
X103795294Y-117400000D01*
X104750000Y-117400000D01*
X104750000Y-116327231D01*
X104893753Y-116350000D01*
X105106247Y-116350000D01*
X105250000Y-116327231D01*
X105250000Y-117400000D01*
X106204706Y-117400000D01*
X106204719Y-117399999D01*
X106337906Y-117389517D01*
X106337912Y-117389516D01*
X106557829Y-117334101D01*
X106557832Y-117334100D01*
X106764330Y-117240304D01*
X106764336Y-117240301D01*
X106950758Y-117111148D01*
X106950770Y-117111138D01*
X107111138Y-116950770D01*
X107111148Y-116950758D01*
X107240301Y-116764336D01*
X107240304Y-116764330D01*
X107334100Y-116557832D01*
X107334101Y-116557829D01*
X107389516Y-116337912D01*
X107389517Y-116337906D01*
X107399999Y-116204719D01*
X107400000Y-116204706D01*
X107400000Y-115870309D01*
X107419685Y-115803270D01*
X107472489Y-115757515D01*
X107541647Y-115747571D01*
X107605203Y-115776596D01*
X107641041Y-115829354D01*
X107686199Y-115958407D01*
X107686200Y-115958411D01*
X107808053Y-116211442D01*
X107808055Y-116211445D01*
X107957477Y-116449248D01*
X108044068Y-116557829D01*
X108105900Y-116635365D01*
X108132584Y-116668825D01*
X108331175Y-116867416D01*
X108550752Y-117042523D01*
X108788555Y-117191945D01*
X109041592Y-117313801D01*
X109240680Y-117383465D01*
X109306670Y-117406556D01*
X109306682Y-117406560D01*
X109580491Y-117469055D01*
X109580497Y-117469055D01*
X109580505Y-117469057D01*
X109766547Y-117490018D01*
X109859569Y-117500499D01*
X109859572Y-117500500D01*
X109859575Y-117500500D01*
X110140428Y-117500500D01*
X110140429Y-117500499D01*
X110283055Y-117484429D01*
X110419494Y-117469057D01*
X110419499Y-117469056D01*
X110419509Y-117469055D01*
X110693318Y-117406560D01*
X110958408Y-117313801D01*
X111211445Y-117191945D01*
X111449248Y-117042523D01*
X111668825Y-116867416D01*
X111867416Y-116668825D01*
X112042523Y-116449248D01*
X112191945Y-116211445D01*
X112313801Y-115958408D01*
X112406560Y-115693318D01*
X112469055Y-115419509D01*
X112469056Y-115419499D01*
X112469057Y-115419494D01*
X112495505Y-115184753D01*
X112500500Y-115140425D01*
X112500500Y-114859575D01*
X112500294Y-114857744D01*
X132829500Y-114857744D01*
X132829500Y-115142255D01*
X132829501Y-115142271D01*
X132866636Y-115424341D01*
X132866637Y-115424346D01*
X132866638Y-115424352D01*
X132940278Y-115699181D01*
X132994198Y-115829354D01*
X133049159Y-115962043D01*
X133049164Y-115962054D01*
X133191422Y-116208451D01*
X133364628Y-116434179D01*
X133364634Y-116434186D01*
X133565813Y-116635365D01*
X133565820Y-116635371D01*
X133791548Y-116808577D01*
X134037945Y-116950835D01*
X134037950Y-116950837D01*
X134037953Y-116950839D01*
X134300819Y-117059722D01*
X134575648Y-117133362D01*
X134857738Y-117170500D01*
X134857745Y-117170500D01*
X135142255Y-117170500D01*
X135142262Y-117170500D01*
X135424352Y-117133362D01*
X135699181Y-117059722D01*
X135962047Y-116950839D01*
X136208452Y-116808577D01*
X136434181Y-116635370D01*
X136635370Y-116434181D01*
X136808577Y-116208452D01*
X136950839Y-115962047D01*
X137059722Y-115699181D01*
X137133362Y-115424352D01*
X137170500Y-115142262D01*
X137170500Y-114857738D01*
X137133362Y-114575648D01*
X137059722Y-114300819D01*
X136950839Y-114037953D01*
X136950837Y-114037950D01*
X136950835Y-114037945D01*
X136808577Y-113791548D01*
X136635371Y-113565820D01*
X136635365Y-113565813D01*
X136434186Y-113364634D01*
X136434179Y-113364628D01*
X136208451Y-113191422D01*
X135962054Y-113049164D01*
X135962043Y-113049159D01*
X135898261Y-113022740D01*
X135699181Y-112940278D01*
X135424352Y-112866638D01*
X135424346Y-112866637D01*
X135424341Y-112866636D01*
X135142271Y-112829501D01*
X135142268Y-112829500D01*
X135142262Y-112829500D01*
X134857738Y-112829500D01*
X134857732Y-112829500D01*
X134857728Y-112829501D01*
X134575658Y-112866636D01*
X134575651Y-112866637D01*
X134575648Y-112866638D01*
X134300819Y-112940278D01*
X134178729Y-112990849D01*
X134037956Y-113049159D01*
X134037945Y-113049164D01*
X133791548Y-113191422D01*
X133565820Y-113364628D01*
X133565813Y-113364634D01*
X133364634Y-113565813D01*
X133364628Y-113565820D01*
X133191422Y-113791548D01*
X133049164Y-114037945D01*
X133049159Y-114037956D01*
X133011162Y-114129690D01*
X132940278Y-114300819D01*
X132872854Y-114552452D01*
X132866639Y-114575645D01*
X132866636Y-114575658D01*
X132829501Y-114857728D01*
X132829500Y-114857744D01*
X112500294Y-114857744D01*
X112485561Y-114726986D01*
X112469057Y-114580505D01*
X112469054Y-114580487D01*
X112406560Y-114306682D01*
X112406556Y-114306670D01*
X112366194Y-114191324D01*
X112313801Y-114041592D01*
X112191945Y-113788555D01*
X112042523Y-113550752D01*
X111867416Y-113331175D01*
X111668825Y-113132584D01*
X111449248Y-112957477D01*
X111245576Y-112829501D01*
X111211442Y-112808053D01*
X110958411Y-112686200D01*
X110693329Y-112593443D01*
X110693317Y-112593439D01*
X110419512Y-112530945D01*
X110419494Y-112530942D01*
X110140431Y-112499500D01*
X110140425Y-112499500D01*
X109859575Y-112499500D01*
X109859568Y-112499500D01*
X109580505Y-112530942D01*
X109580487Y-112530945D01*
X109306682Y-112593439D01*
X109306670Y-112593443D01*
X109041588Y-112686200D01*
X108788557Y-112808053D01*
X108550753Y-112957476D01*
X108331175Y-113132583D01*
X108132583Y-113331175D01*
X107957476Y-113550753D01*
X107808053Y-113788557D01*
X107686200Y-114041588D01*
X107641041Y-114170645D01*
X107600319Y-114227421D01*
X107535367Y-114253168D01*
X107466805Y-114239712D01*
X107416402Y-114191324D01*
X107400000Y-114129690D01*
X107400000Y-113795293D01*
X107399999Y-113795280D01*
X107389517Y-113662093D01*
X107389516Y-113662087D01*
X107334101Y-113442170D01*
X107334100Y-113442167D01*
X107240304Y-113235669D01*
X107240301Y-113235663D01*
X107111148Y-113049241D01*
X107111138Y-113049229D01*
X106950770Y-112888861D01*
X106950758Y-112888851D01*
X106764336Y-112759698D01*
X106764330Y-112759695D01*
X106557832Y-112665899D01*
X106557829Y-112665898D01*
X106337912Y-112610483D01*
X106337906Y-112610482D01*
X106204719Y-112600000D01*
X105250000Y-112600000D01*
X105250000Y-113672768D01*
X105106247Y-113650000D01*
X104893753Y-113650000D01*
X104750000Y-113672768D01*
X104750000Y-112600000D01*
X103795280Y-112600000D01*
X103662093Y-112610482D01*
X103662087Y-112610483D01*
X103442170Y-112665898D01*
X103442167Y-112665899D01*
X103235669Y-112759695D01*
X103235663Y-112759698D01*
X103049241Y-112888851D01*
X103049229Y-112888861D01*
X102888861Y-113049229D01*
X102888851Y-113049241D01*
X102759698Y-113235663D01*
X102759695Y-113235669D01*
X102665899Y-113442167D01*
X102665898Y-113442170D01*
X102610483Y-113662087D01*
X102610482Y-113662093D01*
X102600000Y-113795280D01*
X92195184Y-113795280D01*
X92191946Y-113788557D01*
X92191945Y-113788555D01*
X92042523Y-113550752D01*
X91867416Y-113331175D01*
X91668825Y-113132584D01*
X91449248Y-112957477D01*
X91245576Y-112829501D01*
X91211442Y-112808053D01*
X90958411Y-112686200D01*
X90693329Y-112593443D01*
X90693317Y-112593439D01*
X90419512Y-112530945D01*
X90419494Y-112530942D01*
X90140431Y-112499500D01*
X90140425Y-112499500D01*
X89859575Y-112499500D01*
X89859568Y-112499500D01*
X89580505Y-112530942D01*
X89580487Y-112530945D01*
X89306682Y-112593439D01*
X89306670Y-112593443D01*
X89041588Y-112686200D01*
X88788557Y-112808053D01*
X88550753Y-112957476D01*
X88331175Y-113132583D01*
X88132583Y-113331175D01*
X87957476Y-113550753D01*
X87808053Y-113788557D01*
X87686200Y-114041588D01*
X87641041Y-114170645D01*
X87600319Y-114227421D01*
X87535367Y-114253168D01*
X87466805Y-114239712D01*
X87416402Y-114191324D01*
X87400000Y-114129690D01*
X87400000Y-113795293D01*
X87399999Y-113795280D01*
X87389517Y-113662093D01*
X87389516Y-113662087D01*
X87334101Y-113442170D01*
X87334100Y-113442167D01*
X87240304Y-113235669D01*
X87240301Y-113235663D01*
X87111148Y-113049241D01*
X87111138Y-113049229D01*
X86950770Y-112888861D01*
X86950758Y-112888851D01*
X86764336Y-112759698D01*
X86764330Y-112759695D01*
X86557832Y-112665899D01*
X86557829Y-112665898D01*
X86337912Y-112610483D01*
X86337906Y-112610482D01*
X86204719Y-112600000D01*
X85250000Y-112600000D01*
X85250000Y-113672768D01*
X85106247Y-113650000D01*
X84893753Y-113650000D01*
X84750000Y-113672768D01*
X84750000Y-112600000D01*
X83795280Y-112600000D01*
X83662093Y-112610482D01*
X83662087Y-112610483D01*
X83442170Y-112665898D01*
X83442167Y-112665899D01*
X83235669Y-112759695D01*
X83235663Y-112759698D01*
X83049241Y-112888851D01*
X83049229Y-112888861D01*
X82888861Y-113049229D01*
X82888851Y-113049241D01*
X82759698Y-113235663D01*
X82759695Y-113235669D01*
X82665899Y-113442167D01*
X82665898Y-113442170D01*
X82610483Y-113662087D01*
X82610482Y-113662093D01*
X82600000Y-113795280D01*
X56810732Y-113795280D01*
X56808577Y-113791548D01*
X56635371Y-113565820D01*
X56635365Y-113565813D01*
X56434186Y-113364634D01*
X56434179Y-113364628D01*
X56208451Y-113191422D01*
X55962054Y-113049164D01*
X55962043Y-113049159D01*
X55898261Y-113022740D01*
X55699181Y-112940278D01*
X55424352Y-112866638D01*
X55424346Y-112866637D01*
X55424341Y-112866636D01*
X55142271Y-112829501D01*
X55142268Y-112829500D01*
X55142262Y-112829500D01*
X54857738Y-112829500D01*
X54857732Y-112829500D01*
X54857728Y-112829501D01*
X54575658Y-112866636D01*
X54575651Y-112866637D01*
X54575648Y-112866638D01*
X54300819Y-112940278D01*
X54178729Y-112990849D01*
X54037956Y-113049159D01*
X54037945Y-113049164D01*
X53791548Y-113191422D01*
X53565820Y-113364628D01*
X53565813Y-113364634D01*
X53364634Y-113565813D01*
X53364628Y-113565820D01*
X53191422Y-113791548D01*
X53049164Y-114037945D01*
X53049159Y-114037956D01*
X53011162Y-114129690D01*
X52940278Y-114300819D01*
X52872854Y-114552452D01*
X52866639Y-114575645D01*
X52866636Y-114575658D01*
X52829501Y-114857728D01*
X52829500Y-114857744D01*
X50500500Y-114857744D01*
X50500500Y-104897648D01*
X51699500Y-104897648D01*
X51699500Y-105102351D01*
X51731522Y-105304534D01*
X51794781Y-105499223D01*
X51887715Y-105681613D01*
X52008028Y-105847213D01*
X52152786Y-105991971D01*
X52307749Y-106104556D01*
X52318390Y-106112287D01*
X52401479Y-106154623D01*
X52500776Y-106205218D01*
X52500778Y-106205218D01*
X52500781Y-106205220D01*
X52605137Y-106239127D01*
X52695465Y-106268477D01*
X52796557Y-106284488D01*
X52897648Y-106300500D01*
X52897649Y-106300500D01*
X53102351Y-106300500D01*
X53102352Y-106300500D01*
X53304534Y-106268477D01*
X53499219Y-106205220D01*
X53681610Y-106112287D01*
X53795252Y-106029722D01*
X53847213Y-105991971D01*
X53847215Y-105991968D01*
X53847219Y-105991966D01*
X53991966Y-105847219D01*
X53991968Y-105847215D01*
X53991971Y-105847213D01*
X54064364Y-105747571D01*
X54112287Y-105681610D01*
X54205220Y-105499219D01*
X54268477Y-105304534D01*
X54300500Y-105102352D01*
X54300500Y-104897648D01*
X61859500Y-104897648D01*
X61859500Y-105102351D01*
X61891522Y-105304534D01*
X61954781Y-105499223D01*
X62047715Y-105681613D01*
X62168028Y-105847213D01*
X62312786Y-105991971D01*
X62467749Y-106104556D01*
X62478390Y-106112287D01*
X62561479Y-106154623D01*
X62660776Y-106205218D01*
X62660778Y-106205218D01*
X62660781Y-106205220D01*
X62765137Y-106239127D01*
X62855465Y-106268477D01*
X62956557Y-106284488D01*
X63057648Y-106300500D01*
X63057649Y-106300500D01*
X63262351Y-106300500D01*
X63262352Y-106300500D01*
X63464534Y-106268477D01*
X63659219Y-106205220D01*
X63841610Y-106112287D01*
X63955252Y-106029722D01*
X64007213Y-105991971D01*
X64007215Y-105991968D01*
X64007219Y-105991966D01*
X64151966Y-105847219D01*
X64151968Y-105847215D01*
X64151971Y-105847213D01*
X64224364Y-105747571D01*
X64272287Y-105681610D01*
X64365220Y-105499219D01*
X64428477Y-105304534D01*
X64448322Y-105179240D01*
X64460500Y-105102351D01*
X64460500Y-104897648D01*
X64428477Y-104695465D01*
X64365218Y-104500776D01*
X64331503Y-104434607D01*
X64272287Y-104318390D01*
X64206195Y-104227421D01*
X64151971Y-104152786D01*
X64007217Y-104008032D01*
X64007212Y-104008028D01*
X63849135Y-103893179D01*
X63849123Y-103893171D01*
X63844376Y-103889722D01*
X63841610Y-103887713D01*
X63783088Y-103857894D01*
X63660202Y-103795280D01*
X82600000Y-103795280D01*
X82600000Y-104750000D01*
X83672769Y-104750000D01*
X83650000Y-104893753D01*
X83650000Y-105106247D01*
X83672769Y-105250000D01*
X82600000Y-105250000D01*
X82600000Y-106204719D01*
X82610482Y-106337906D01*
X82610483Y-106337912D01*
X82665898Y-106557829D01*
X82665899Y-106557832D01*
X82759695Y-106764330D01*
X82759698Y-106764336D01*
X82888851Y-106950758D01*
X82888861Y-106950770D01*
X83049229Y-107111138D01*
X83049241Y-107111148D01*
X83235663Y-107240301D01*
X83235669Y-107240304D01*
X83442167Y-107334100D01*
X83442170Y-107334101D01*
X83662087Y-107389516D01*
X83662093Y-107389517D01*
X83795280Y-107399999D01*
X83795294Y-107400000D01*
X84750000Y-107400000D01*
X84750000Y-106327231D01*
X84893753Y-106350000D01*
X85106247Y-106350000D01*
X85250000Y-106327231D01*
X85250000Y-107400000D01*
X86204706Y-107400000D01*
X86204719Y-107399999D01*
X86337906Y-107389517D01*
X86337912Y-107389516D01*
X86557829Y-107334101D01*
X86557832Y-107334100D01*
X86764330Y-107240304D01*
X86764336Y-107240301D01*
X86950758Y-107111148D01*
X86950770Y-107111138D01*
X87111138Y-106950770D01*
X87111148Y-106950758D01*
X87240301Y-106764336D01*
X87240304Y-106764330D01*
X87334100Y-106557832D01*
X87334101Y-106557829D01*
X87389516Y-106337912D01*
X87389517Y-106337906D01*
X87399999Y-106204719D01*
X87400000Y-106204706D01*
X87400000Y-105870309D01*
X87419685Y-105803270D01*
X87472489Y-105757515D01*
X87541647Y-105747571D01*
X87605203Y-105776596D01*
X87641041Y-105829354D01*
X87686200Y-105958411D01*
X87808053Y-106211442D01*
X87808055Y-106211445D01*
X87957477Y-106449248D01*
X88132584Y-106668825D01*
X88331175Y-106867416D01*
X88550752Y-107042523D01*
X88788555Y-107191945D01*
X89041592Y-107313801D01*
X89240680Y-107383465D01*
X89306670Y-107406556D01*
X89306682Y-107406560D01*
X89580491Y-107469055D01*
X89580497Y-107469055D01*
X89580505Y-107469057D01*
X89766547Y-107490018D01*
X89859569Y-107500499D01*
X89859572Y-107500500D01*
X89859575Y-107500500D01*
X90140428Y-107500500D01*
X90140429Y-107500499D01*
X90283055Y-107484429D01*
X90419494Y-107469057D01*
X90419499Y-107469056D01*
X90419509Y-107469055D01*
X90693318Y-107406560D01*
X90958408Y-107313801D01*
X91211445Y-107191945D01*
X91449248Y-107042523D01*
X91668825Y-106867416D01*
X91867416Y-106668825D01*
X92042523Y-106449248D01*
X92191945Y-106211445D01*
X92313801Y-105958408D01*
X92406560Y-105693318D01*
X92469055Y-105419509D01*
X92480703Y-105316126D01*
X92495506Y-105184754D01*
X92495506Y-105184753D01*
X92500499Y-105140431D01*
X92500500Y-105140427D01*
X92500500Y-104859572D01*
X92500499Y-104859568D01*
X92469057Y-104580505D01*
X92469054Y-104580487D01*
X92406560Y-104306682D01*
X92406556Y-104306670D01*
X92366194Y-104191324D01*
X92313801Y-104041592D01*
X92313798Y-104041587D01*
X92313796Y-104041580D01*
X92219924Y-103846652D01*
X92195184Y-103795280D01*
X102600000Y-103795280D01*
X102600000Y-104750000D01*
X103672769Y-104750000D01*
X103650000Y-104893753D01*
X103650000Y-105106247D01*
X103672769Y-105250000D01*
X102600000Y-105250000D01*
X102600000Y-106204719D01*
X102610482Y-106337906D01*
X102610483Y-106337912D01*
X102665898Y-106557829D01*
X102665899Y-106557832D01*
X102759695Y-106764330D01*
X102759698Y-106764336D01*
X102888851Y-106950758D01*
X102888861Y-106950770D01*
X103049229Y-107111138D01*
X103049241Y-107111148D01*
X103235663Y-107240301D01*
X103235669Y-107240304D01*
X103442167Y-107334100D01*
X103442170Y-107334101D01*
X103662087Y-107389516D01*
X103662093Y-107389517D01*
X103795280Y-107399999D01*
X103795294Y-107400000D01*
X104750000Y-107400000D01*
X104750000Y-106327231D01*
X104893753Y-106350000D01*
X105106247Y-106350000D01*
X105250000Y-106327231D01*
X105250000Y-107400000D01*
X106204706Y-107400000D01*
X106204719Y-107399999D01*
X106337906Y-107389517D01*
X106337912Y-107389516D01*
X106557829Y-107334101D01*
X106557832Y-107334100D01*
X106764330Y-107240304D01*
X106764336Y-107240301D01*
X106950758Y-107111148D01*
X106950770Y-107111138D01*
X107111138Y-106950770D01*
X107111148Y-106950758D01*
X107240301Y-106764336D01*
X107240304Y-106764330D01*
X107334100Y-106557832D01*
X107334101Y-106557829D01*
X107389516Y-106337912D01*
X107389517Y-106337906D01*
X107399999Y-106204719D01*
X107400000Y-106204706D01*
X107400000Y-105870309D01*
X107419685Y-105803270D01*
X107472489Y-105757515D01*
X107541647Y-105747571D01*
X107605203Y-105776596D01*
X107641041Y-105829354D01*
X107686200Y-105958411D01*
X107808053Y-106211442D01*
X107808055Y-106211445D01*
X107957477Y-106449248D01*
X108132584Y-106668825D01*
X108331175Y-106867416D01*
X108550752Y-107042523D01*
X108788555Y-107191945D01*
X109041592Y-107313801D01*
X109240680Y-107383465D01*
X109306670Y-107406556D01*
X109306682Y-107406560D01*
X109580491Y-107469055D01*
X109580497Y-107469055D01*
X109580505Y-107469057D01*
X109766547Y-107490018D01*
X109859569Y-107500499D01*
X109859572Y-107500500D01*
X109859575Y-107500500D01*
X110140428Y-107500500D01*
X110140429Y-107500499D01*
X110283055Y-107484429D01*
X110419494Y-107469057D01*
X110419499Y-107469056D01*
X110419509Y-107469055D01*
X110693318Y-107406560D01*
X110958408Y-107313801D01*
X111211445Y-107191945D01*
X111449248Y-107042523D01*
X111668825Y-106867416D01*
X111867416Y-106668825D01*
X112042523Y-106449248D01*
X112191945Y-106211445D01*
X112313801Y-105958408D01*
X112406560Y-105693318D01*
X112469055Y-105419509D01*
X112469056Y-105419499D01*
X112469057Y-105419494D01*
X112495505Y-105184753D01*
X112500500Y-105140425D01*
X112500500Y-104859575D01*
X112488154Y-104750000D01*
X112469057Y-104580505D01*
X112469054Y-104580487D01*
X112406560Y-104306682D01*
X112406556Y-104306670D01*
X112366194Y-104191324D01*
X112313801Y-104041592D01*
X112191945Y-103788555D01*
X112042523Y-103550752D01*
X111867416Y-103331175D01*
X111668825Y-103132584D01*
X111449248Y-102957477D01*
X111211445Y-102808055D01*
X111211442Y-102808053D01*
X110958411Y-102686200D01*
X110693329Y-102593443D01*
X110693317Y-102593439D01*
X110419512Y-102530945D01*
X110419494Y-102530942D01*
X110140431Y-102499500D01*
X110140425Y-102499500D01*
X109859575Y-102499500D01*
X109859568Y-102499500D01*
X109580505Y-102530942D01*
X109580487Y-102530945D01*
X109306682Y-102593439D01*
X109306670Y-102593443D01*
X109041588Y-102686200D01*
X108788557Y-102808053D01*
X108550753Y-102957476D01*
X108331175Y-103132583D01*
X108132583Y-103331175D01*
X107957476Y-103550753D01*
X107808053Y-103788557D01*
X107686200Y-104041588D01*
X107641041Y-104170645D01*
X107600319Y-104227421D01*
X107535367Y-104253168D01*
X107466805Y-104239712D01*
X107416402Y-104191324D01*
X107400000Y-104129690D01*
X107400000Y-103795293D01*
X107399999Y-103795280D01*
X107389517Y-103662093D01*
X107389516Y-103662087D01*
X107334101Y-103442170D01*
X107334100Y-103442167D01*
X107240304Y-103235669D01*
X107240301Y-103235663D01*
X107111148Y-103049241D01*
X107111138Y-103049229D01*
X106950770Y-102888861D01*
X106950758Y-102888851D01*
X106764336Y-102759698D01*
X106764330Y-102759695D01*
X106557832Y-102665899D01*
X106557829Y-102665898D01*
X106337912Y-102610483D01*
X106337906Y-102610482D01*
X106204719Y-102600000D01*
X105250000Y-102600000D01*
X105250000Y-103672768D01*
X105106247Y-103650000D01*
X104893753Y-103650000D01*
X104750000Y-103672768D01*
X104750000Y-102600000D01*
X103795280Y-102600000D01*
X103662093Y-102610482D01*
X103662087Y-102610483D01*
X103442170Y-102665898D01*
X103442167Y-102665899D01*
X103235669Y-102759695D01*
X103235663Y-102759698D01*
X103049241Y-102888851D01*
X103049229Y-102888861D01*
X102888861Y-103049229D01*
X102888851Y-103049241D01*
X102759698Y-103235663D01*
X102759695Y-103235669D01*
X102665899Y-103442167D01*
X102665898Y-103442170D01*
X102610483Y-103662087D01*
X102610482Y-103662093D01*
X102600000Y-103795280D01*
X92195184Y-103795280D01*
X92191946Y-103788557D01*
X92191945Y-103788555D01*
X92042523Y-103550752D01*
X91867416Y-103331175D01*
X91668825Y-103132584D01*
X91449248Y-102957477D01*
X91211445Y-102808055D01*
X91211442Y-102808053D01*
X90958411Y-102686200D01*
X90693329Y-102593443D01*
X90693317Y-102593439D01*
X90419512Y-102530945D01*
X90419494Y-102530942D01*
X90140431Y-102499500D01*
X90140425Y-102499500D01*
X89859575Y-102499500D01*
X89859568Y-102499500D01*
X89580505Y-102530942D01*
X89580487Y-102530945D01*
X89306682Y-102593439D01*
X89306670Y-102593443D01*
X89041588Y-102686200D01*
X88788557Y-102808053D01*
X88550753Y-102957476D01*
X88331175Y-103132583D01*
X88132583Y-103331175D01*
X87957476Y-103550753D01*
X87808053Y-103788557D01*
X87686200Y-104041588D01*
X87641041Y-104170645D01*
X87600319Y-104227421D01*
X87535367Y-104253168D01*
X87466805Y-104239712D01*
X87416402Y-104191324D01*
X87400000Y-104129690D01*
X87400000Y-103795293D01*
X87399999Y-103795280D01*
X87389517Y-103662093D01*
X87389516Y-103662087D01*
X87334101Y-103442170D01*
X87334100Y-103442167D01*
X87240304Y-103235669D01*
X87240301Y-103235663D01*
X87111148Y-103049241D01*
X87111138Y-103049229D01*
X86950770Y-102888861D01*
X86950758Y-102888851D01*
X86764336Y-102759698D01*
X86764330Y-102759695D01*
X86557832Y-102665899D01*
X86557829Y-102665898D01*
X86337912Y-102610483D01*
X86337906Y-102610482D01*
X86204719Y-102600000D01*
X85250000Y-102600000D01*
X85250000Y-103672768D01*
X85106247Y-103650000D01*
X84893753Y-103650000D01*
X84750000Y-103672768D01*
X84750000Y-102600000D01*
X83795280Y-102600000D01*
X83662093Y-102610482D01*
X83662087Y-102610483D01*
X83442170Y-102665898D01*
X83442167Y-102665899D01*
X83235669Y-102759695D01*
X83235663Y-102759698D01*
X83049241Y-102888851D01*
X83049229Y-102888861D01*
X82888861Y-103049229D01*
X82888851Y-103049241D01*
X82759698Y-103235663D01*
X82759695Y-103235669D01*
X82665899Y-103442167D01*
X82665898Y-103442170D01*
X82610483Y-103662087D01*
X82610482Y-103662093D01*
X82600000Y-103795280D01*
X63660202Y-103795280D01*
X63659223Y-103794781D01*
X63464534Y-103731522D01*
X63289995Y-103703878D01*
X63262352Y-103699500D01*
X63057648Y-103699500D01*
X63033329Y-103703351D01*
X62855465Y-103731522D01*
X62660776Y-103794781D01*
X62478386Y-103887715D01*
X62312786Y-104008028D01*
X62168028Y-104152786D01*
X62047715Y-104318386D01*
X61954781Y-104500776D01*
X61891522Y-104695465D01*
X61859500Y-104897648D01*
X54300500Y-104897648D01*
X54294469Y-104859568D01*
X54268477Y-104695465D01*
X54205218Y-104500776D01*
X54171503Y-104434607D01*
X54112287Y-104318390D01*
X54046195Y-104227421D01*
X53991971Y-104152786D01*
X53847213Y-104008028D01*
X53681613Y-103887715D01*
X53681612Y-103887714D01*
X53681610Y-103887713D01*
X53624653Y-103858691D01*
X53499223Y-103794781D01*
X53304534Y-103731522D01*
X53129995Y-103703878D01*
X53102352Y-103699500D01*
X52897648Y-103699500D01*
X52873329Y-103703351D01*
X52695465Y-103731522D01*
X52500776Y-103794781D01*
X52318386Y-103887715D01*
X52152786Y-104008028D01*
X52008028Y-104152786D01*
X51887715Y-104318386D01*
X51794781Y-104500776D01*
X51731522Y-104695465D01*
X51699500Y-104897648D01*
X50500500Y-104897648D01*
X50500500Y-99897648D01*
X51699500Y-99897648D01*
X51699500Y-100102351D01*
X51731522Y-100304534D01*
X51794781Y-100499223D01*
X51887715Y-100681613D01*
X52008028Y-100847213D01*
X52152786Y-100991971D01*
X52284467Y-101087641D01*
X52318390Y-101112287D01*
X52434607Y-101171503D01*
X52500776Y-101205218D01*
X52500778Y-101205218D01*
X52500781Y-101205220D01*
X52605137Y-101239127D01*
X52695465Y-101268477D01*
X52796557Y-101284488D01*
X52897648Y-101300500D01*
X52897649Y-101300500D01*
X53102351Y-101300500D01*
X53102352Y-101300500D01*
X53304534Y-101268477D01*
X53499219Y-101205220D01*
X53681610Y-101112287D01*
X53814413Y-101015801D01*
X53847213Y-100991971D01*
X53847215Y-100991968D01*
X53847219Y-100991966D01*
X53991966Y-100847219D01*
X53991968Y-100847215D01*
X53991971Y-100847213D01*
X54044732Y-100774590D01*
X54112287Y-100681610D01*
X54205220Y-100499219D01*
X54268477Y-100304534D01*
X54300500Y-100102352D01*
X54300500Y-99897648D01*
X61859500Y-99897648D01*
X61859500Y-100102351D01*
X61891522Y-100304534D01*
X61954781Y-100499223D01*
X62047715Y-100681613D01*
X62168028Y-100847213D01*
X62312786Y-100991971D01*
X62444467Y-101087641D01*
X62478390Y-101112287D01*
X62594607Y-101171503D01*
X62660776Y-101205218D01*
X62660778Y-101205218D01*
X62660781Y-101205220D01*
X62765137Y-101239127D01*
X62855465Y-101268477D01*
X62956557Y-101284488D01*
X63057648Y-101300500D01*
X63057649Y-101300500D01*
X63262351Y-101300500D01*
X63262352Y-101300500D01*
X63464534Y-101268477D01*
X63659219Y-101205220D01*
X63841610Y-101112287D01*
X63924375Y-101052155D01*
X65600000Y-101052155D01*
X65600000Y-101750000D01*
X66624722Y-101750000D01*
X66580667Y-101826306D01*
X66550000Y-101940756D01*
X66550000Y-102059244D01*
X66580667Y-102173694D01*
X66624722Y-102250000D01*
X65600000Y-102250000D01*
X65600000Y-102947844D01*
X65606401Y-103007372D01*
X65606403Y-103007379D01*
X65656645Y-103142086D01*
X65656649Y-103142093D01*
X65742809Y-103257187D01*
X65742812Y-103257190D01*
X65857906Y-103343350D01*
X65857913Y-103343354D01*
X65992620Y-103393596D01*
X65992627Y-103393598D01*
X66052155Y-103399999D01*
X66052172Y-103400000D01*
X66750000Y-103400000D01*
X66750000Y-102375277D01*
X66826306Y-102419333D01*
X66940756Y-102450000D01*
X67059244Y-102450000D01*
X67173694Y-102419333D01*
X67250000Y-102375277D01*
X67250000Y-103400000D01*
X67947828Y-103400000D01*
X67947844Y-103399999D01*
X68007372Y-103393598D01*
X68007379Y-103393596D01*
X68142086Y-103343354D01*
X68142093Y-103343350D01*
X68257187Y-103257190D01*
X68257190Y-103257187D01*
X68343350Y-103142093D01*
X68343354Y-103142086D01*
X68373213Y-103062031D01*
X68415084Y-103006097D01*
X68480548Y-102981680D01*
X68548821Y-102996531D01*
X68577076Y-103017683D01*
X68627636Y-103068243D01*
X68627641Y-103068247D01*
X68783192Y-103181260D01*
X68805978Y-103197815D01*
X68922501Y-103257187D01*
X69002393Y-103297895D01*
X69002396Y-103297896D01*
X69104821Y-103331175D01*
X69212049Y-103366015D01*
X69429778Y-103400500D01*
X69429779Y-103400500D01*
X69650221Y-103400500D01*
X69650222Y-103400500D01*
X69867951Y-103366015D01*
X70077606Y-103297895D01*
X70274022Y-103197815D01*
X70363807Y-103132583D01*
X70456307Y-103065379D01*
X70457075Y-103066436D01*
X70515361Y-103040303D01*
X70584449Y-103050724D01*
X70636936Y-103096842D01*
X70648342Y-103119826D01*
X70656643Y-103142082D01*
X70656649Y-103142093D01*
X70742809Y-103257187D01*
X70742812Y-103257190D01*
X70857906Y-103343350D01*
X70857913Y-103343354D01*
X70992620Y-103393596D01*
X70992627Y-103393598D01*
X71052155Y-103399999D01*
X71052172Y-103400000D01*
X71750000Y-103400000D01*
X71750000Y-102375277D01*
X71826306Y-102419333D01*
X71940756Y-102450000D01*
X72059244Y-102450000D01*
X72173694Y-102419333D01*
X72250000Y-102375277D01*
X72250000Y-103400000D01*
X72947828Y-103400000D01*
X72947844Y-103399999D01*
X73007372Y-103393598D01*
X73007379Y-103393596D01*
X73142086Y-103343354D01*
X73142093Y-103343350D01*
X73257187Y-103257190D01*
X73257190Y-103257187D01*
X73343350Y-103142093D01*
X73343354Y-103142086D01*
X73373213Y-103062031D01*
X73415084Y-103006097D01*
X73480548Y-102981680D01*
X73548821Y-102996531D01*
X73577076Y-103017683D01*
X73627636Y-103068243D01*
X73627641Y-103068247D01*
X73783192Y-103181260D01*
X73805978Y-103197815D01*
X73922501Y-103257187D01*
X74002393Y-103297895D01*
X74002396Y-103297896D01*
X74104821Y-103331175D01*
X74212049Y-103366015D01*
X74429778Y-103400500D01*
X74429779Y-103400500D01*
X74650221Y-103400500D01*
X74650222Y-103400500D01*
X74867951Y-103366015D01*
X75077606Y-103297895D01*
X75274022Y-103197815D01*
X75452365Y-103068242D01*
X75608242Y-102912365D01*
X75737815Y-102734022D01*
X75837895Y-102537606D01*
X75906015Y-102327951D01*
X75940500Y-102110222D01*
X75940500Y-101889778D01*
X75906015Y-101672049D01*
X75871955Y-101567221D01*
X75837896Y-101462396D01*
X75837895Y-101462393D01*
X75803237Y-101394375D01*
X75737815Y-101265978D01*
X75626153Y-101112287D01*
X75608247Y-101087641D01*
X75608243Y-101087636D01*
X75452363Y-100931756D01*
X75452358Y-100931752D01*
X75274025Y-100802187D01*
X75274024Y-100802186D01*
X75274022Y-100802185D01*
X75211096Y-100770122D01*
X75077606Y-100702104D01*
X75077603Y-100702103D01*
X74867952Y-100633985D01*
X74759086Y-100616742D01*
X74650222Y-100599500D01*
X74429778Y-100599500D01*
X74357201Y-100610995D01*
X74212047Y-100633985D01*
X74002396Y-100702103D01*
X74002393Y-100702104D01*
X73805974Y-100802187D01*
X73627641Y-100931752D01*
X73627636Y-100931756D01*
X73577075Y-100982317D01*
X73515752Y-101015801D01*
X73446060Y-101010816D01*
X73390127Y-100968945D01*
X73373213Y-100937968D01*
X73343354Y-100857913D01*
X73343350Y-100857906D01*
X73257190Y-100742812D01*
X73257187Y-100742809D01*
X73142093Y-100656649D01*
X73142086Y-100656645D01*
X73007379Y-100606403D01*
X73007372Y-100606401D01*
X72947844Y-100600000D01*
X72250000Y-100600000D01*
X72250000Y-101624722D01*
X72173694Y-101580667D01*
X72059244Y-101550000D01*
X71940756Y-101550000D01*
X71826306Y-101580667D01*
X71750000Y-101624722D01*
X71750000Y-100600000D01*
X71052155Y-100600000D01*
X70992627Y-100606401D01*
X70992620Y-100606403D01*
X70857913Y-100656645D01*
X70857906Y-100656649D01*
X70742812Y-100742809D01*
X70742809Y-100742812D01*
X70656649Y-100857906D01*
X70656645Y-100857914D01*
X70648342Y-100880175D01*
X70606470Y-100936107D01*
X70541005Y-100960523D01*
X70472732Y-100945670D01*
X70456437Y-100934441D01*
X70456307Y-100934621D01*
X70274025Y-100802187D01*
X70274024Y-100802186D01*
X70274022Y-100802185D01*
X70211096Y-100770122D01*
X70077606Y-100702104D01*
X70077603Y-100702103D01*
X69867952Y-100633985D01*
X69759086Y-100616742D01*
X69650222Y-100599500D01*
X69429778Y-100599500D01*
X69357201Y-100610995D01*
X69212047Y-100633985D01*
X69002396Y-100702103D01*
X69002393Y-100702104D01*
X68805974Y-100802187D01*
X68627641Y-100931752D01*
X68627636Y-100931756D01*
X68577075Y-100982317D01*
X68515752Y-101015801D01*
X68446060Y-101010816D01*
X68390127Y-100968945D01*
X68373213Y-100937968D01*
X68343354Y-100857913D01*
X68343350Y-100857906D01*
X68257190Y-100742812D01*
X68257187Y-100742809D01*
X68142093Y-100656649D01*
X68142086Y-100656645D01*
X68007379Y-100606403D01*
X68007372Y-100606401D01*
X67947844Y-100600000D01*
X67250000Y-100600000D01*
X67250000Y-101624722D01*
X67173694Y-101580667D01*
X67059244Y-101550000D01*
X66940756Y-101550000D01*
X66826306Y-101580667D01*
X66750000Y-101624722D01*
X66750000Y-100600000D01*
X66052155Y-100600000D01*
X65992627Y-100606401D01*
X65992620Y-100606403D01*
X65857913Y-100656645D01*
X65857906Y-100656649D01*
X65742812Y-100742809D01*
X65742809Y-100742812D01*
X65656649Y-100857906D01*
X65656645Y-100857913D01*
X65606403Y-100992620D01*
X65606401Y-100992627D01*
X65600000Y-101052155D01*
X63924375Y-101052155D01*
X63974413Y-101015801D01*
X64007213Y-100991971D01*
X64007215Y-100991968D01*
X64007219Y-100991966D01*
X64151966Y-100847219D01*
X64151968Y-100847215D01*
X64151971Y-100847213D01*
X64204732Y-100774590D01*
X64272287Y-100681610D01*
X64365220Y-100499219D01*
X64428477Y-100304534D01*
X64460500Y-100102352D01*
X64460500Y-99897648D01*
X64428477Y-99695466D01*
X64365220Y-99500781D01*
X64365218Y-99500778D01*
X64365218Y-99500776D01*
X64331503Y-99434607D01*
X64272287Y-99318390D01*
X64264556Y-99307749D01*
X64151971Y-99152786D01*
X64007213Y-99008028D01*
X63841613Y-98887715D01*
X63841612Y-98887714D01*
X63841610Y-98887713D01*
X63784653Y-98858691D01*
X63659223Y-98794781D01*
X63464534Y-98731522D01*
X63289995Y-98703878D01*
X63262352Y-98699500D01*
X63057648Y-98699500D01*
X63033329Y-98703351D01*
X62855465Y-98731522D01*
X62660776Y-98794781D01*
X62478386Y-98887715D01*
X62312786Y-99008028D01*
X62168028Y-99152786D01*
X62047715Y-99318386D01*
X61954781Y-99500776D01*
X61891522Y-99695465D01*
X61859500Y-99897648D01*
X54300500Y-99897648D01*
X54268477Y-99695466D01*
X54205220Y-99500781D01*
X54205218Y-99500778D01*
X54205218Y-99500776D01*
X54171503Y-99434607D01*
X54112287Y-99318390D01*
X54104556Y-99307749D01*
X53991971Y-99152786D01*
X53847213Y-99008028D01*
X53681613Y-98887715D01*
X53681612Y-98887714D01*
X53681610Y-98887713D01*
X53624653Y-98858691D01*
X53499223Y-98794781D01*
X53304534Y-98731522D01*
X53129995Y-98703878D01*
X53102352Y-98699500D01*
X52897648Y-98699500D01*
X52873329Y-98703351D01*
X52695465Y-98731522D01*
X52500776Y-98794781D01*
X52318386Y-98887715D01*
X52152786Y-99008028D01*
X52008028Y-99152786D01*
X51887715Y-99318386D01*
X51794781Y-99500776D01*
X51731522Y-99695465D01*
X51699500Y-99897648D01*
X50500500Y-99897648D01*
X50500500Y-92393713D01*
X54499500Y-92393713D01*
X54499500Y-92606287D01*
X54500165Y-92610483D01*
X54532753Y-92816239D01*
X54598444Y-93018414D01*
X54694951Y-93207820D01*
X54819890Y-93379786D01*
X54958705Y-93518601D01*
X54992190Y-93579924D01*
X54987206Y-93649616D01*
X54945334Y-93705549D01*
X54936121Y-93711821D01*
X54781342Y-93807289D01*
X54657289Y-93931342D01*
X54565187Y-94080663D01*
X54565185Y-94080668D01*
X54565115Y-94080880D01*
X54510001Y-94247203D01*
X54510001Y-94247204D01*
X54510000Y-94247204D01*
X54499500Y-94349983D01*
X54499500Y-95650001D01*
X54499501Y-95650018D01*
X54510000Y-95752796D01*
X54510001Y-95752799D01*
X54551975Y-95879466D01*
X54565186Y-95919334D01*
X54657288Y-96068656D01*
X54781344Y-96192712D01*
X54930666Y-96284814D01*
X55097203Y-96339999D01*
X55199991Y-96350500D01*
X56800008Y-96350499D01*
X56902797Y-96339999D01*
X57069334Y-96284814D01*
X57218656Y-96192712D01*
X57342712Y-96068656D01*
X57434814Y-95919334D01*
X57489999Y-95752797D01*
X57500500Y-95650009D01*
X57500499Y-94934174D01*
X57500499Y-94349998D01*
X57500498Y-94349981D01*
X57489999Y-94247203D01*
X57489998Y-94247200D01*
X57451059Y-94129690D01*
X57434814Y-94080666D01*
X57342712Y-93931344D01*
X57218656Y-93807288D01*
X57069334Y-93715186D01*
X57069333Y-93715185D01*
X57063878Y-93711821D01*
X57017154Y-93659873D01*
X57005931Y-93590910D01*
X57033775Y-93526828D01*
X57041272Y-93518623D01*
X57180104Y-93379792D01*
X57305051Y-93207816D01*
X57401557Y-93018412D01*
X57467246Y-92816243D01*
X57500500Y-92606287D01*
X57500500Y-92393713D01*
X66499500Y-92393713D01*
X66499500Y-92606287D01*
X66500165Y-92610483D01*
X66532753Y-92816239D01*
X66598444Y-93018414D01*
X66694951Y-93207820D01*
X66819890Y-93379786D01*
X66959068Y-93518964D01*
X66992553Y-93580287D01*
X66987569Y-93649979D01*
X66945697Y-93705912D01*
X66936484Y-93712183D01*
X66781659Y-93807680D01*
X66781655Y-93807683D01*
X66657684Y-93931654D01*
X66565643Y-94080875D01*
X66565641Y-94080880D01*
X66510494Y-94247302D01*
X66510493Y-94247309D01*
X66500000Y-94350013D01*
X66500000Y-94750000D01*
X67566988Y-94750000D01*
X67534075Y-94807007D01*
X67500000Y-94934174D01*
X67500000Y-95065826D01*
X67534075Y-95192993D01*
X67566988Y-95250000D01*
X66500001Y-95250000D01*
X66500001Y-95649986D01*
X66510494Y-95752697D01*
X66565641Y-95919119D01*
X66565643Y-95919124D01*
X66657684Y-96068345D01*
X66781654Y-96192315D01*
X66930875Y-96284356D01*
X66930880Y-96284358D01*
X67097302Y-96339505D01*
X67097309Y-96339506D01*
X67200019Y-96349999D01*
X67749999Y-96349999D01*
X67750000Y-96349998D01*
X67750000Y-95433012D01*
X67807007Y-95465925D01*
X67934174Y-95500000D01*
X68065826Y-95500000D01*
X68192993Y-95465925D01*
X68250000Y-95433012D01*
X68250000Y-96349999D01*
X68799972Y-96349999D01*
X68799986Y-96349998D01*
X68902697Y-96339505D01*
X69069119Y-96284358D01*
X69069124Y-96284356D01*
X69218345Y-96192315D01*
X69342315Y-96068345D01*
X69434356Y-95919124D01*
X69434358Y-95919119D01*
X69489505Y-95752697D01*
X69489506Y-95752690D01*
X69499999Y-95649986D01*
X69500000Y-95649973D01*
X69500000Y-95250000D01*
X68433012Y-95250000D01*
X68465925Y-95192993D01*
X68500000Y-95065826D01*
X68500000Y-94934174D01*
X68465925Y-94807007D01*
X68433012Y-94750000D01*
X69499999Y-94750000D01*
X69499999Y-94350028D01*
X69499998Y-94350013D01*
X69489505Y-94247302D01*
X69434358Y-94080880D01*
X69434356Y-94080875D01*
X69342315Y-93931654D01*
X69218345Y-93807684D01*
X69198235Y-93795280D01*
X82600000Y-93795280D01*
X82600000Y-94750000D01*
X83672769Y-94750000D01*
X83650000Y-94893753D01*
X83650000Y-95106247D01*
X83672769Y-95250000D01*
X82600000Y-95250000D01*
X82600000Y-96204719D01*
X82610482Y-96337906D01*
X82610483Y-96337912D01*
X82665898Y-96557829D01*
X82665899Y-96557832D01*
X82759695Y-96764330D01*
X82759698Y-96764336D01*
X82888851Y-96950758D01*
X82888861Y-96950770D01*
X83049229Y-97111138D01*
X83049241Y-97111148D01*
X83235663Y-97240301D01*
X83235669Y-97240304D01*
X83442167Y-97334100D01*
X83442170Y-97334101D01*
X83662087Y-97389516D01*
X83662093Y-97389517D01*
X83795280Y-97399999D01*
X83795294Y-97400000D01*
X84750000Y-97400000D01*
X84750000Y-96327231D01*
X84893753Y-96350000D01*
X85106247Y-96350000D01*
X85250000Y-96327231D01*
X85250000Y-97400000D01*
X86204706Y-97400000D01*
X86204719Y-97399999D01*
X86337906Y-97389517D01*
X86337912Y-97389516D01*
X86557829Y-97334101D01*
X86557832Y-97334100D01*
X86764330Y-97240304D01*
X86764336Y-97240301D01*
X86950758Y-97111148D01*
X86950770Y-97111138D01*
X87111138Y-96950770D01*
X87111148Y-96950758D01*
X87240301Y-96764336D01*
X87240304Y-96764330D01*
X87334100Y-96557832D01*
X87334101Y-96557829D01*
X87389516Y-96337912D01*
X87389517Y-96337906D01*
X87399999Y-96204719D01*
X87400000Y-96204706D01*
X87400000Y-95870309D01*
X87419685Y-95803270D01*
X87472489Y-95757515D01*
X87541647Y-95747571D01*
X87605203Y-95776596D01*
X87641041Y-95829354D01*
X87686200Y-95958411D01*
X87808053Y-96211442D01*
X87808055Y-96211445D01*
X87957477Y-96449248D01*
X88132584Y-96668825D01*
X88331175Y-96867416D01*
X88550752Y-97042523D01*
X88788555Y-97191945D01*
X89041592Y-97313801D01*
X89240680Y-97383465D01*
X89306670Y-97406556D01*
X89306682Y-97406560D01*
X89580491Y-97469055D01*
X89580497Y-97469055D01*
X89580505Y-97469057D01*
X89766547Y-97490018D01*
X89859569Y-97500499D01*
X89859572Y-97500500D01*
X89859575Y-97500500D01*
X90140428Y-97500500D01*
X90140429Y-97500499D01*
X90283055Y-97484429D01*
X90419494Y-97469057D01*
X90419499Y-97469056D01*
X90419509Y-97469055D01*
X90693318Y-97406560D01*
X90958408Y-97313801D01*
X91211445Y-97191945D01*
X91449248Y-97042523D01*
X91668825Y-96867416D01*
X91867416Y-96668825D01*
X92042523Y-96449248D01*
X92191945Y-96211445D01*
X92313801Y-95958408D01*
X92406560Y-95693318D01*
X92469055Y-95419509D01*
X92488154Y-95250000D01*
X92495506Y-95184754D01*
X92495506Y-95184753D01*
X92500499Y-95140431D01*
X92500500Y-95140427D01*
X92500500Y-94859572D01*
X92500499Y-94859568D01*
X92469057Y-94580505D01*
X92469054Y-94580487D01*
X92406560Y-94306682D01*
X92406556Y-94306670D01*
X92366194Y-94191324D01*
X92313801Y-94041592D01*
X92313798Y-94041587D01*
X92313796Y-94041580D01*
X92219924Y-93846652D01*
X92195184Y-93795280D01*
X102600000Y-93795280D01*
X102600000Y-94750000D01*
X103672769Y-94750000D01*
X103650000Y-94893753D01*
X103650000Y-95106247D01*
X103672769Y-95250000D01*
X102600000Y-95250000D01*
X102600000Y-96204719D01*
X102610482Y-96337906D01*
X102610483Y-96337912D01*
X102665898Y-96557829D01*
X102665899Y-96557832D01*
X102759695Y-96764330D01*
X102759698Y-96764336D01*
X102888851Y-96950758D01*
X102888861Y-96950770D01*
X103049229Y-97111138D01*
X103049241Y-97111148D01*
X103235663Y-97240301D01*
X103235669Y-97240304D01*
X103442167Y-97334100D01*
X103442170Y-97334101D01*
X103662087Y-97389516D01*
X103662093Y-97389517D01*
X103795280Y-97399999D01*
X103795294Y-97400000D01*
X104750000Y-97400000D01*
X104750000Y-96327231D01*
X104893753Y-96350000D01*
X105106247Y-96350000D01*
X105250000Y-96327231D01*
X105250000Y-97400000D01*
X106204706Y-97400000D01*
X106204719Y-97399999D01*
X106337906Y-97389517D01*
X106337912Y-97389516D01*
X106557829Y-97334101D01*
X106557832Y-97334100D01*
X106764330Y-97240304D01*
X106764336Y-97240301D01*
X106950758Y-97111148D01*
X106950770Y-97111138D01*
X107111138Y-96950770D01*
X107111148Y-96950758D01*
X107240301Y-96764336D01*
X107240304Y-96764330D01*
X107334100Y-96557832D01*
X107334101Y-96557829D01*
X107389516Y-96337912D01*
X107389517Y-96337906D01*
X107399999Y-96204719D01*
X107400000Y-96204706D01*
X107400000Y-95870309D01*
X107419685Y-95803270D01*
X107472489Y-95757515D01*
X107541647Y-95747571D01*
X107605203Y-95776596D01*
X107641041Y-95829354D01*
X107686200Y-95958411D01*
X107808053Y-96211442D01*
X107808055Y-96211445D01*
X107957477Y-96449248D01*
X108132584Y-96668825D01*
X108331175Y-96867416D01*
X108550752Y-97042523D01*
X108788555Y-97191945D01*
X109041592Y-97313801D01*
X109240680Y-97383465D01*
X109306670Y-97406556D01*
X109306682Y-97406560D01*
X109580491Y-97469055D01*
X109580497Y-97469055D01*
X109580505Y-97469057D01*
X109766547Y-97490018D01*
X109859569Y-97500499D01*
X109859572Y-97500500D01*
X109859575Y-97500500D01*
X110140428Y-97500500D01*
X110140429Y-97500499D01*
X110283055Y-97484429D01*
X110419494Y-97469057D01*
X110419499Y-97469056D01*
X110419509Y-97469055D01*
X110693318Y-97406560D01*
X110958408Y-97313801D01*
X111211445Y-97191945D01*
X111449248Y-97042523D01*
X111668825Y-96867416D01*
X111867416Y-96668825D01*
X112042523Y-96449248D01*
X112191945Y-96211445D01*
X112313801Y-95958408D01*
X112406560Y-95693318D01*
X112469055Y-95419509D01*
X112469056Y-95419499D01*
X112469057Y-95419494D01*
X112500499Y-95140431D01*
X112500500Y-95140427D01*
X112500500Y-94859572D01*
X112500499Y-94859568D01*
X112469057Y-94580505D01*
X112469054Y-94580487D01*
X112406560Y-94306682D01*
X112406556Y-94306670D01*
X112366194Y-94191324D01*
X112313801Y-94041592D01*
X112191945Y-93788555D01*
X112042523Y-93550752D01*
X111867416Y-93331175D01*
X111668825Y-93132584D01*
X111449248Y-92957477D01*
X111211445Y-92808055D01*
X111211442Y-92808053D01*
X110958411Y-92686200D01*
X110693329Y-92593443D01*
X110693317Y-92593439D01*
X110419512Y-92530945D01*
X110419494Y-92530942D01*
X110140431Y-92499500D01*
X110140425Y-92499500D01*
X109859575Y-92499500D01*
X109859568Y-92499500D01*
X109580505Y-92530942D01*
X109580487Y-92530945D01*
X109306682Y-92593439D01*
X109306670Y-92593443D01*
X109041588Y-92686200D01*
X108788557Y-92808053D01*
X108550753Y-92957476D01*
X108331175Y-93132583D01*
X108132583Y-93331175D01*
X107957476Y-93550753D01*
X107808053Y-93788557D01*
X107686200Y-94041588D01*
X107641041Y-94170645D01*
X107600319Y-94227421D01*
X107535367Y-94253168D01*
X107466805Y-94239712D01*
X107416402Y-94191324D01*
X107400000Y-94129690D01*
X107400000Y-93795293D01*
X107399999Y-93795280D01*
X107389517Y-93662093D01*
X107389516Y-93662087D01*
X107334101Y-93442170D01*
X107334100Y-93442167D01*
X107240304Y-93235669D01*
X107240301Y-93235663D01*
X107111148Y-93049241D01*
X107111138Y-93049229D01*
X106950770Y-92888861D01*
X106950758Y-92888851D01*
X106764336Y-92759698D01*
X106764330Y-92759695D01*
X106557832Y-92665899D01*
X106557829Y-92665898D01*
X106337912Y-92610483D01*
X106337906Y-92610482D01*
X106204719Y-92600000D01*
X105250000Y-92600000D01*
X105250000Y-93672768D01*
X105106247Y-93650000D01*
X104893753Y-93650000D01*
X104750000Y-93672768D01*
X104750000Y-92600000D01*
X103795280Y-92600000D01*
X103662093Y-92610482D01*
X103662087Y-92610483D01*
X103442170Y-92665898D01*
X103442167Y-92665899D01*
X103235669Y-92759695D01*
X103235663Y-92759698D01*
X103049241Y-92888851D01*
X103049229Y-92888861D01*
X102888861Y-93049229D01*
X102888851Y-93049241D01*
X102759698Y-93235663D01*
X102759695Y-93235669D01*
X102665899Y-93442167D01*
X102665898Y-93442170D01*
X102610483Y-93662087D01*
X102610482Y-93662093D01*
X102600000Y-93795280D01*
X92195184Y-93795280D01*
X92191946Y-93788557D01*
X92191945Y-93788555D01*
X92042523Y-93550752D01*
X91867416Y-93331175D01*
X91668825Y-93132584D01*
X91449248Y-92957477D01*
X91211445Y-92808055D01*
X91211442Y-92808053D01*
X90958411Y-92686200D01*
X90693329Y-92593443D01*
X90693317Y-92593439D01*
X90419512Y-92530945D01*
X90419494Y-92530942D01*
X90140431Y-92499500D01*
X90140425Y-92499500D01*
X89859575Y-92499500D01*
X89859568Y-92499500D01*
X89580505Y-92530942D01*
X89580487Y-92530945D01*
X89306682Y-92593439D01*
X89306670Y-92593443D01*
X89041588Y-92686200D01*
X88788557Y-92808053D01*
X88550753Y-92957476D01*
X88331175Y-93132583D01*
X88132583Y-93331175D01*
X87957476Y-93550753D01*
X87808053Y-93788557D01*
X87686200Y-94041588D01*
X87641041Y-94170645D01*
X87600319Y-94227421D01*
X87535367Y-94253168D01*
X87466805Y-94239712D01*
X87416402Y-94191324D01*
X87400000Y-94129690D01*
X87400000Y-93795293D01*
X87399999Y-93795280D01*
X87389517Y-93662093D01*
X87389516Y-93662087D01*
X87334101Y-93442170D01*
X87334100Y-93442167D01*
X87240304Y-93235669D01*
X87240301Y-93235663D01*
X87111148Y-93049241D01*
X87111138Y-93049229D01*
X86950770Y-92888861D01*
X86950758Y-92888851D01*
X86764336Y-92759698D01*
X86764330Y-92759695D01*
X86557832Y-92665899D01*
X86557829Y-92665898D01*
X86337912Y-92610483D01*
X86337906Y-92610482D01*
X86204719Y-92600000D01*
X85250000Y-92600000D01*
X85250000Y-93672768D01*
X85106247Y-93650000D01*
X84893753Y-93650000D01*
X84750000Y-93672768D01*
X84750000Y-92600000D01*
X83795280Y-92600000D01*
X83662093Y-92610482D01*
X83662087Y-92610483D01*
X83442170Y-92665898D01*
X83442167Y-92665899D01*
X83235669Y-92759695D01*
X83235663Y-92759698D01*
X83049241Y-92888851D01*
X83049229Y-92888861D01*
X82888861Y-93049229D01*
X82888851Y-93049241D01*
X82759698Y-93235663D01*
X82759695Y-93235669D01*
X82665899Y-93442167D01*
X82665898Y-93442170D01*
X82610483Y-93662087D01*
X82610482Y-93662093D01*
X82600000Y-93795280D01*
X69198235Y-93795280D01*
X69063515Y-93712184D01*
X69016791Y-93660236D01*
X69005568Y-93591273D01*
X69033412Y-93527191D01*
X69040909Y-93518986D01*
X69180104Y-93379792D01*
X69305051Y-93207816D01*
X69401557Y-93018412D01*
X69467246Y-92816243D01*
X69500500Y-92606287D01*
X69500500Y-92393713D01*
X69467246Y-92183757D01*
X69401557Y-91981588D01*
X69305051Y-91792184D01*
X69305049Y-91792181D01*
X69305048Y-91792179D01*
X69180109Y-91620213D01*
X69029786Y-91469890D01*
X68857820Y-91344951D01*
X68668414Y-91248444D01*
X68668413Y-91248443D01*
X68668412Y-91248443D01*
X68466243Y-91182754D01*
X68466241Y-91182753D01*
X68466240Y-91182753D01*
X68304957Y-91157208D01*
X68256287Y-91149500D01*
X67743713Y-91149500D01*
X67695042Y-91157208D01*
X67533760Y-91182753D01*
X67331585Y-91248444D01*
X67142179Y-91344951D01*
X66970213Y-91469890D01*
X66819890Y-91620213D01*
X66694951Y-91792179D01*
X66598444Y-91981585D01*
X66532753Y-92183760D01*
X66499500Y-92393713D01*
X57500500Y-92393713D01*
X57467246Y-92183757D01*
X57401557Y-91981588D01*
X57305051Y-91792184D01*
X57305049Y-91792181D01*
X57305048Y-91792179D01*
X57180109Y-91620213D01*
X57029786Y-91469890D01*
X56857820Y-91344951D01*
X56668414Y-91248444D01*
X56668413Y-91248443D01*
X56668412Y-91248443D01*
X56466243Y-91182754D01*
X56466241Y-91182753D01*
X56466240Y-91182753D01*
X56304957Y-91157208D01*
X56256287Y-91149500D01*
X55743713Y-91149500D01*
X55695042Y-91157208D01*
X55533760Y-91182753D01*
X55331585Y-91248444D01*
X55142179Y-91344951D01*
X54970213Y-91469890D01*
X54819890Y-91620213D01*
X54694951Y-91792179D01*
X54598444Y-91981585D01*
X54532753Y-92183760D01*
X54499500Y-92393713D01*
X50500500Y-92393713D01*
X50500500Y-81393713D01*
X54499500Y-81393713D01*
X54499500Y-81606286D01*
X54532753Y-81816239D01*
X54598444Y-82018414D01*
X54694951Y-82207820D01*
X54819890Y-82379786D01*
X54958705Y-82518601D01*
X54992190Y-82579924D01*
X54987206Y-82649616D01*
X54945334Y-82705549D01*
X54936121Y-82711821D01*
X54781342Y-82807289D01*
X54657289Y-82931342D01*
X54565187Y-83080663D01*
X54565185Y-83080668D01*
X54565115Y-83080880D01*
X54510001Y-83247203D01*
X54510001Y-83247204D01*
X54510000Y-83247204D01*
X54499500Y-83349983D01*
X54499500Y-84650001D01*
X54499501Y-84650018D01*
X54510000Y-84752796D01*
X54510001Y-84752799D01*
X54545381Y-84859568D01*
X54565186Y-84919334D01*
X54657288Y-85068656D01*
X54781344Y-85192712D01*
X54930666Y-85284814D01*
X55097203Y-85339999D01*
X55199991Y-85350500D01*
X56800008Y-85350499D01*
X56902797Y-85339999D01*
X57069334Y-85284814D01*
X57218656Y-85192712D01*
X57342712Y-85068656D01*
X57434814Y-84919334D01*
X57489999Y-84752797D01*
X57500500Y-84650009D01*
X57500499Y-83970278D01*
X57500499Y-83349998D01*
X57500498Y-83349981D01*
X57489999Y-83247203D01*
X57489998Y-83247200D01*
X57486175Y-83235663D01*
X57434814Y-83080666D01*
X57342712Y-82931344D01*
X57218656Y-82807288D01*
X57069334Y-82715186D01*
X57069333Y-82715185D01*
X57063878Y-82711821D01*
X57017154Y-82659873D01*
X57005931Y-82590910D01*
X57033775Y-82526828D01*
X57041272Y-82518623D01*
X57180104Y-82379792D01*
X57305051Y-82207816D01*
X57401557Y-82018412D01*
X57467246Y-81816243D01*
X57500500Y-81606287D01*
X57500500Y-81393713D01*
X66499500Y-81393713D01*
X66499500Y-81606286D01*
X66532753Y-81816239D01*
X66598444Y-82018414D01*
X66694951Y-82207820D01*
X66819890Y-82379786D01*
X66959068Y-82518964D01*
X66992553Y-82580287D01*
X66987569Y-82649979D01*
X66945697Y-82705912D01*
X66936484Y-82712183D01*
X66781659Y-82807680D01*
X66781655Y-82807683D01*
X66657684Y-82931654D01*
X66565643Y-83080875D01*
X66565641Y-83080880D01*
X66510494Y-83247302D01*
X66510493Y-83247309D01*
X66500000Y-83350013D01*
X66500000Y-83750000D01*
X67566988Y-83750000D01*
X67534075Y-83807007D01*
X67500000Y-83934174D01*
X67500000Y-84065826D01*
X67534075Y-84192993D01*
X67566988Y-84250000D01*
X66500001Y-84250000D01*
X66500001Y-84649986D01*
X66510494Y-84752697D01*
X66565641Y-84919119D01*
X66565643Y-84919124D01*
X66657684Y-85068345D01*
X66781654Y-85192315D01*
X66930875Y-85284356D01*
X66930880Y-85284358D01*
X67097302Y-85339505D01*
X67097309Y-85339506D01*
X67200019Y-85349999D01*
X67749999Y-85349999D01*
X67750000Y-85349998D01*
X67750000Y-84433012D01*
X67807007Y-84465925D01*
X67934174Y-84500000D01*
X68065826Y-84500000D01*
X68192993Y-84465925D01*
X68250000Y-84433012D01*
X68250000Y-85349999D01*
X68799972Y-85349999D01*
X68799986Y-85349998D01*
X68902697Y-85339505D01*
X69069119Y-85284358D01*
X69069124Y-85284356D01*
X69218345Y-85192315D01*
X69299704Y-85110957D01*
X69342315Y-85068345D01*
X69434356Y-84919124D01*
X69434358Y-84919119D01*
X69489505Y-84752697D01*
X69489506Y-84752690D01*
X69499999Y-84649986D01*
X69500000Y-84649973D01*
X69500000Y-84250000D01*
X68433012Y-84250000D01*
X68465925Y-84192993D01*
X68500000Y-84065826D01*
X68500000Y-83934174D01*
X68465925Y-83807007D01*
X68459154Y-83795280D01*
X82600000Y-83795280D01*
X82600000Y-84750000D01*
X83672769Y-84750000D01*
X83650000Y-84893753D01*
X83650000Y-85106247D01*
X83672769Y-85250000D01*
X82600000Y-85250000D01*
X82600000Y-86204719D01*
X82610482Y-86337906D01*
X82610483Y-86337912D01*
X82665898Y-86557829D01*
X82665899Y-86557832D01*
X82759695Y-86764330D01*
X82759698Y-86764336D01*
X82888851Y-86950758D01*
X82888861Y-86950770D01*
X83049229Y-87111138D01*
X83049241Y-87111148D01*
X83235663Y-87240301D01*
X83235669Y-87240304D01*
X83442167Y-87334100D01*
X83442170Y-87334101D01*
X83662087Y-87389516D01*
X83662093Y-87389517D01*
X83795280Y-87399999D01*
X83795294Y-87400000D01*
X84750000Y-87400000D01*
X84750000Y-86327231D01*
X84893753Y-86350000D01*
X85106247Y-86350000D01*
X85250000Y-86327231D01*
X85250000Y-87400000D01*
X86204706Y-87400000D01*
X86204719Y-87399999D01*
X86337906Y-87389517D01*
X86337912Y-87389516D01*
X86557829Y-87334101D01*
X86557832Y-87334100D01*
X86764330Y-87240304D01*
X86764336Y-87240301D01*
X86950758Y-87111148D01*
X86950770Y-87111138D01*
X87111138Y-86950770D01*
X87111148Y-86950758D01*
X87240301Y-86764336D01*
X87240304Y-86764330D01*
X87334100Y-86557832D01*
X87334101Y-86557829D01*
X87389516Y-86337912D01*
X87389517Y-86337906D01*
X87399999Y-86204719D01*
X87400000Y-86204706D01*
X87400000Y-85870309D01*
X87419685Y-85803270D01*
X87472489Y-85757515D01*
X87541647Y-85747571D01*
X87605203Y-85776596D01*
X87641041Y-85829354D01*
X87686200Y-85958411D01*
X87808053Y-86211442D01*
X87808055Y-86211445D01*
X87957477Y-86449248D01*
X88132584Y-86668825D01*
X88331175Y-86867416D01*
X88550752Y-87042523D01*
X88788555Y-87191945D01*
X89041592Y-87313801D01*
X89240680Y-87383465D01*
X89306670Y-87406556D01*
X89306682Y-87406560D01*
X89580491Y-87469055D01*
X89580497Y-87469055D01*
X89580505Y-87469057D01*
X89766547Y-87490018D01*
X89859569Y-87500499D01*
X89859572Y-87500500D01*
X89859575Y-87500500D01*
X90140428Y-87500500D01*
X90140429Y-87500499D01*
X90283055Y-87484429D01*
X90419494Y-87469057D01*
X90419499Y-87469056D01*
X90419509Y-87469055D01*
X90693318Y-87406560D01*
X90958408Y-87313801D01*
X91211445Y-87191945D01*
X91449248Y-87042523D01*
X91668825Y-86867416D01*
X91867416Y-86668825D01*
X92042523Y-86449248D01*
X92191945Y-86211445D01*
X92313801Y-85958408D01*
X92406560Y-85693318D01*
X92469055Y-85419509D01*
X92480703Y-85316126D01*
X92495506Y-85184754D01*
X92495506Y-85184753D01*
X92500499Y-85140431D01*
X92500500Y-85140427D01*
X92500500Y-84859572D01*
X92500499Y-84859568D01*
X92469057Y-84580505D01*
X92469054Y-84580487D01*
X92406560Y-84306682D01*
X92406556Y-84306670D01*
X92366194Y-84191324D01*
X92313801Y-84041592D01*
X92313798Y-84041587D01*
X92313796Y-84041580D01*
X92219924Y-83846652D01*
X92195184Y-83795280D01*
X102600000Y-83795280D01*
X102600000Y-84750000D01*
X103672769Y-84750000D01*
X103650000Y-84893753D01*
X103650000Y-85106247D01*
X103672769Y-85250000D01*
X102600000Y-85250000D01*
X102600000Y-86204719D01*
X102610482Y-86337906D01*
X102610483Y-86337912D01*
X102665898Y-86557829D01*
X102665899Y-86557832D01*
X102759695Y-86764330D01*
X102759698Y-86764336D01*
X102888851Y-86950758D01*
X102888861Y-86950770D01*
X103049229Y-87111138D01*
X103049241Y-87111148D01*
X103235663Y-87240301D01*
X103235669Y-87240304D01*
X103442167Y-87334100D01*
X103442170Y-87334101D01*
X103662087Y-87389516D01*
X103662093Y-87389517D01*
X103795280Y-87399999D01*
X103795294Y-87400000D01*
X104750000Y-87400000D01*
X104750000Y-86327231D01*
X104893753Y-86350000D01*
X105106247Y-86350000D01*
X105250000Y-86327231D01*
X105250000Y-87400000D01*
X106204706Y-87400000D01*
X106204719Y-87399999D01*
X106337906Y-87389517D01*
X106337912Y-87389516D01*
X106557829Y-87334101D01*
X106557832Y-87334100D01*
X106764330Y-87240304D01*
X106764336Y-87240301D01*
X106950758Y-87111148D01*
X106950770Y-87111138D01*
X107111138Y-86950770D01*
X107111148Y-86950758D01*
X107240301Y-86764336D01*
X107240304Y-86764330D01*
X107334100Y-86557832D01*
X107334101Y-86557829D01*
X107389516Y-86337912D01*
X107389517Y-86337906D01*
X107399999Y-86204719D01*
X107400000Y-86204706D01*
X107400000Y-85870309D01*
X107419685Y-85803270D01*
X107472489Y-85757515D01*
X107541647Y-85747571D01*
X107605203Y-85776596D01*
X107641041Y-85829354D01*
X107686200Y-85958411D01*
X107808053Y-86211442D01*
X107808055Y-86211445D01*
X107957477Y-86449248D01*
X108132584Y-86668825D01*
X108331175Y-86867416D01*
X108550752Y-87042523D01*
X108788555Y-87191945D01*
X109041592Y-87313801D01*
X109240680Y-87383465D01*
X109306670Y-87406556D01*
X109306682Y-87406560D01*
X109580491Y-87469055D01*
X109580497Y-87469055D01*
X109580505Y-87469057D01*
X109766547Y-87490018D01*
X109859569Y-87500499D01*
X109859572Y-87500500D01*
X109859575Y-87500500D01*
X110140428Y-87500500D01*
X110140429Y-87500499D01*
X110283055Y-87484429D01*
X110419494Y-87469057D01*
X110419499Y-87469056D01*
X110419509Y-87469055D01*
X110693318Y-87406560D01*
X110958408Y-87313801D01*
X111211445Y-87191945D01*
X111449248Y-87042523D01*
X111668825Y-86867416D01*
X111867416Y-86668825D01*
X112042523Y-86449248D01*
X112191945Y-86211445D01*
X112313801Y-85958408D01*
X112406560Y-85693318D01*
X112469055Y-85419509D01*
X112469056Y-85419499D01*
X112469057Y-85419494D01*
X112500499Y-85140431D01*
X112500500Y-85140427D01*
X112500500Y-84859572D01*
X112500499Y-84859568D01*
X112469057Y-84580505D01*
X112469054Y-84580487D01*
X112406560Y-84306682D01*
X112406556Y-84306670D01*
X112366194Y-84191324D01*
X112313801Y-84041592D01*
X112191945Y-83788555D01*
X112042523Y-83550752D01*
X111867416Y-83331175D01*
X111668825Y-83132584D01*
X111449248Y-82957477D01*
X111211445Y-82808055D01*
X111211442Y-82808053D01*
X110958411Y-82686200D01*
X110693329Y-82593443D01*
X110693317Y-82593439D01*
X110419512Y-82530945D01*
X110419494Y-82530942D01*
X110140431Y-82499500D01*
X110140425Y-82499500D01*
X109859575Y-82499500D01*
X109859568Y-82499500D01*
X109580505Y-82530942D01*
X109580487Y-82530945D01*
X109306682Y-82593439D01*
X109306670Y-82593443D01*
X109041588Y-82686200D01*
X108788557Y-82808053D01*
X108550753Y-82957476D01*
X108331175Y-83132583D01*
X108132583Y-83331175D01*
X107957476Y-83550753D01*
X107808053Y-83788557D01*
X107686200Y-84041588D01*
X107641041Y-84170645D01*
X107600319Y-84227421D01*
X107535367Y-84253168D01*
X107466805Y-84239712D01*
X107416402Y-84191324D01*
X107400000Y-84129690D01*
X107400000Y-83795293D01*
X107399999Y-83795280D01*
X107389517Y-83662093D01*
X107389516Y-83662087D01*
X107334101Y-83442170D01*
X107334100Y-83442167D01*
X107240304Y-83235669D01*
X107240301Y-83235663D01*
X107111148Y-83049241D01*
X107111138Y-83049229D01*
X106950770Y-82888861D01*
X106950758Y-82888851D01*
X106764336Y-82759698D01*
X106764330Y-82759695D01*
X106557832Y-82665899D01*
X106557829Y-82665898D01*
X106337912Y-82610483D01*
X106337906Y-82610482D01*
X106204719Y-82600000D01*
X105250000Y-82600000D01*
X105250000Y-83672768D01*
X105106247Y-83650000D01*
X104893753Y-83650000D01*
X104750000Y-83672768D01*
X104750000Y-82600000D01*
X103795280Y-82600000D01*
X103662093Y-82610482D01*
X103662087Y-82610483D01*
X103442170Y-82665898D01*
X103442167Y-82665899D01*
X103235669Y-82759695D01*
X103235663Y-82759698D01*
X103049241Y-82888851D01*
X103049229Y-82888861D01*
X102888861Y-83049229D01*
X102888851Y-83049241D01*
X102759698Y-83235663D01*
X102759695Y-83235669D01*
X102665899Y-83442167D01*
X102665898Y-83442170D01*
X102610483Y-83662087D01*
X102610482Y-83662093D01*
X102600000Y-83795280D01*
X92195184Y-83795280D01*
X92191946Y-83788557D01*
X92167719Y-83750000D01*
X92042523Y-83550752D01*
X91867416Y-83331175D01*
X91668825Y-83132584D01*
X91449248Y-82957477D01*
X91211445Y-82808055D01*
X91211442Y-82808053D01*
X90958411Y-82686200D01*
X90693329Y-82593443D01*
X90693317Y-82593439D01*
X90419512Y-82530945D01*
X90419494Y-82530942D01*
X90140431Y-82499500D01*
X90140425Y-82499500D01*
X89859575Y-82499500D01*
X89859568Y-82499500D01*
X89580505Y-82530942D01*
X89580487Y-82530945D01*
X89306682Y-82593439D01*
X89306670Y-82593443D01*
X89041588Y-82686200D01*
X88788557Y-82808053D01*
X88550753Y-82957476D01*
X88331175Y-83132583D01*
X88132583Y-83331175D01*
X87957476Y-83550753D01*
X87808053Y-83788557D01*
X87686200Y-84041588D01*
X87641041Y-84170645D01*
X87600319Y-84227421D01*
X87535367Y-84253168D01*
X87466805Y-84239712D01*
X87416402Y-84191324D01*
X87400000Y-84129690D01*
X87400000Y-83795293D01*
X87399999Y-83795280D01*
X87389517Y-83662093D01*
X87389516Y-83662087D01*
X87334101Y-83442170D01*
X87334100Y-83442167D01*
X87240304Y-83235669D01*
X87240301Y-83235663D01*
X87111148Y-83049241D01*
X87111138Y-83049229D01*
X86950770Y-82888861D01*
X86950758Y-82888851D01*
X86764336Y-82759698D01*
X86764330Y-82759695D01*
X86557832Y-82665899D01*
X86557829Y-82665898D01*
X86337912Y-82610483D01*
X86337906Y-82610482D01*
X86204719Y-82600000D01*
X85250000Y-82600000D01*
X85250000Y-83672768D01*
X85106247Y-83650000D01*
X84893753Y-83650000D01*
X84750000Y-83672768D01*
X84750000Y-82600000D01*
X83795280Y-82600000D01*
X83662093Y-82610482D01*
X83662087Y-82610483D01*
X83442170Y-82665898D01*
X83442167Y-82665899D01*
X83235669Y-82759695D01*
X83235663Y-82759698D01*
X83049241Y-82888851D01*
X83049229Y-82888861D01*
X82888861Y-83049229D01*
X82888851Y-83049241D01*
X82759698Y-83235663D01*
X82759695Y-83235669D01*
X82665899Y-83442167D01*
X82665898Y-83442170D01*
X82610483Y-83662087D01*
X82610482Y-83662093D01*
X82600000Y-83795280D01*
X68459154Y-83795280D01*
X68433012Y-83750000D01*
X69499999Y-83750000D01*
X69499999Y-83350028D01*
X69499998Y-83350013D01*
X69489505Y-83247302D01*
X69434358Y-83080880D01*
X69434356Y-83080875D01*
X69342315Y-82931654D01*
X69218345Y-82807684D01*
X69063515Y-82712184D01*
X69016791Y-82660236D01*
X69005568Y-82591273D01*
X69033412Y-82527191D01*
X69040909Y-82518986D01*
X69180104Y-82379792D01*
X69305051Y-82207816D01*
X69401557Y-82018412D01*
X69467246Y-81816243D01*
X69500500Y-81606287D01*
X69500500Y-81393713D01*
X69467246Y-81183757D01*
X69401557Y-80981588D01*
X69305051Y-80792184D01*
X69305049Y-80792181D01*
X69305048Y-80792179D01*
X69180109Y-80620213D01*
X69029786Y-80469890D01*
X68857820Y-80344951D01*
X68668414Y-80248444D01*
X68668413Y-80248443D01*
X68668412Y-80248443D01*
X68466243Y-80182754D01*
X68466241Y-80182753D01*
X68466240Y-80182753D01*
X68304957Y-80157208D01*
X68256287Y-80149500D01*
X67743713Y-80149500D01*
X67695042Y-80157208D01*
X67533760Y-80182753D01*
X67331585Y-80248444D01*
X67142179Y-80344951D01*
X66970213Y-80469890D01*
X66819890Y-80620213D01*
X66694951Y-80792179D01*
X66598444Y-80981585D01*
X66532753Y-81183760D01*
X66499500Y-81393713D01*
X57500500Y-81393713D01*
X57467246Y-81183757D01*
X57401557Y-80981588D01*
X57305051Y-80792184D01*
X57305049Y-80792181D01*
X57305048Y-80792179D01*
X57180109Y-80620213D01*
X57029786Y-80469890D01*
X56857820Y-80344951D01*
X56668414Y-80248444D01*
X56668413Y-80248443D01*
X56668412Y-80248443D01*
X56466243Y-80182754D01*
X56466241Y-80182753D01*
X56466240Y-80182753D01*
X56304957Y-80157208D01*
X56256287Y-80149500D01*
X55743713Y-80149500D01*
X55695042Y-80157208D01*
X55533760Y-80182753D01*
X55331585Y-80248444D01*
X55142179Y-80344951D01*
X54970213Y-80469890D01*
X54819890Y-80620213D01*
X54694951Y-80792179D01*
X54598444Y-80981585D01*
X54532753Y-81183760D01*
X54499500Y-81393713D01*
X50500500Y-81393713D01*
X50500500Y-74252135D01*
X61649500Y-74252135D01*
X61649500Y-75247870D01*
X61649501Y-75247876D01*
X61655908Y-75307483D01*
X61706202Y-75442328D01*
X61706206Y-75442335D01*
X61792452Y-75557544D01*
X61792455Y-75557547D01*
X61907664Y-75643793D01*
X61907671Y-75643797D01*
X62042517Y-75694091D01*
X62042516Y-75694091D01*
X62049444Y-75694835D01*
X62102127Y-75700500D01*
X64197872Y-75700499D01*
X64257483Y-75694091D01*
X64392331Y-75643796D01*
X64507546Y-75557546D01*
X64593796Y-75442331D01*
X64644091Y-75307483D01*
X64650500Y-75247873D01*
X64650500Y-75057648D01*
X73699500Y-75057648D01*
X73699500Y-75262351D01*
X73731522Y-75464534D01*
X73794781Y-75659223D01*
X73858691Y-75784653D01*
X73887585Y-75841359D01*
X73887715Y-75841613D01*
X74008028Y-76007213D01*
X74152786Y-76151971D01*
X74273226Y-76239474D01*
X74318390Y-76272287D01*
X74434607Y-76331503D01*
X74500776Y-76365218D01*
X74500778Y-76365218D01*
X74500781Y-76365220D01*
X74605137Y-76399127D01*
X74695465Y-76428477D01*
X74796557Y-76444488D01*
X74897648Y-76460500D01*
X74897649Y-76460500D01*
X75102351Y-76460500D01*
X75102352Y-76460500D01*
X75304534Y-76428477D01*
X75499219Y-76365220D01*
X75681610Y-76272287D01*
X75774590Y-76204732D01*
X75847213Y-76151971D01*
X75847215Y-76151968D01*
X75847219Y-76151966D01*
X75991966Y-76007219D01*
X75991968Y-76007215D01*
X75991971Y-76007213D01*
X76044732Y-75934590D01*
X76112287Y-75841610D01*
X76205220Y-75659219D01*
X76268477Y-75464534D01*
X76291925Y-75316483D01*
X76321854Y-75253350D01*
X76326699Y-75248219D01*
X76517236Y-75057682D01*
X78700000Y-75057682D01*
X78700000Y-75262317D01*
X78732009Y-75464417D01*
X78795244Y-75659031D01*
X78888141Y-75841350D01*
X78888147Y-75841359D01*
X78920523Y-75885921D01*
X78920524Y-75885922D01*
X79600000Y-75206446D01*
X79600000Y-75212661D01*
X79627259Y-75314394D01*
X79679920Y-75405606D01*
X79754394Y-75480080D01*
X79845606Y-75532741D01*
X79947339Y-75560000D01*
X79953553Y-75560000D01*
X79274076Y-76239474D01*
X79318650Y-76271859D01*
X79500968Y-76364755D01*
X79695582Y-76427990D01*
X79897683Y-76460000D01*
X80102317Y-76460000D01*
X80304417Y-76427990D01*
X80499031Y-76364755D01*
X80681349Y-76271859D01*
X80725921Y-76239474D01*
X80046447Y-75560000D01*
X80052661Y-75560000D01*
X80154394Y-75532741D01*
X80245606Y-75480080D01*
X80320080Y-75405606D01*
X80372741Y-75314394D01*
X80400000Y-75212661D01*
X80400000Y-75206447D01*
X81079474Y-75885921D01*
X81111859Y-75841349D01*
X81204755Y-75659031D01*
X81267990Y-75464417D01*
X81300000Y-75262317D01*
X81300000Y-75057682D01*
X81299995Y-75057648D01*
X93699500Y-75057648D01*
X93699500Y-75262351D01*
X93731522Y-75464534D01*
X93794781Y-75659223D01*
X93858691Y-75784653D01*
X93887585Y-75841359D01*
X93887715Y-75841613D01*
X94008028Y-76007213D01*
X94152786Y-76151971D01*
X94273226Y-76239474D01*
X94318390Y-76272287D01*
X94434607Y-76331503D01*
X94500776Y-76365218D01*
X94500778Y-76365218D01*
X94500781Y-76365220D01*
X94605137Y-76399127D01*
X94695465Y-76428477D01*
X94796557Y-76444488D01*
X94897648Y-76460500D01*
X94897649Y-76460500D01*
X95102351Y-76460500D01*
X95102352Y-76460500D01*
X95304534Y-76428477D01*
X95499219Y-76365220D01*
X95681610Y-76272287D01*
X95774590Y-76204732D01*
X95847213Y-76151971D01*
X95847215Y-76151968D01*
X95847219Y-76151966D01*
X95991966Y-76007219D01*
X95991968Y-76007215D01*
X95991971Y-76007213D01*
X96044732Y-75934590D01*
X96112287Y-75841610D01*
X96205220Y-75659219D01*
X96268477Y-75464534D01*
X96291925Y-75316483D01*
X96321854Y-75253350D01*
X96326699Y-75248219D01*
X96517236Y-75057682D01*
X98700000Y-75057682D01*
X98700000Y-75262317D01*
X98732009Y-75464417D01*
X98795244Y-75659031D01*
X98888141Y-75841350D01*
X98888147Y-75841359D01*
X98920523Y-75885921D01*
X98920524Y-75885922D01*
X99600000Y-75206446D01*
X99600000Y-75212661D01*
X99627259Y-75314394D01*
X99679920Y-75405606D01*
X99754394Y-75480080D01*
X99845606Y-75532741D01*
X99947339Y-75560000D01*
X99953553Y-75560000D01*
X99274076Y-76239474D01*
X99318650Y-76271859D01*
X99500968Y-76364755D01*
X99695582Y-76427990D01*
X99897683Y-76460000D01*
X100102317Y-76460000D01*
X100304417Y-76427990D01*
X100499031Y-76364755D01*
X100681349Y-76271859D01*
X100725921Y-76239474D01*
X100046447Y-75560000D01*
X100052661Y-75560000D01*
X100154394Y-75532741D01*
X100245606Y-75480080D01*
X100320080Y-75405606D01*
X100372741Y-75314394D01*
X100400000Y-75212661D01*
X100400000Y-75206448D01*
X101079474Y-75885922D01*
X101079474Y-75885921D01*
X101111859Y-75841349D01*
X101204755Y-75659031D01*
X101267990Y-75464417D01*
X101300000Y-75262317D01*
X101300000Y-75057682D01*
X101267990Y-74855582D01*
X101204755Y-74660968D01*
X101111859Y-74478650D01*
X101079474Y-74434077D01*
X101079474Y-74434076D01*
X100400000Y-75113551D01*
X100400000Y-75107339D01*
X100372741Y-75005606D01*
X100320080Y-74914394D01*
X100245606Y-74839920D01*
X100154394Y-74787259D01*
X100052661Y-74760000D01*
X100046446Y-74760000D01*
X100725922Y-74080524D01*
X100725921Y-74080523D01*
X100681359Y-74048147D01*
X100681350Y-74048141D01*
X100499031Y-73955244D01*
X100304417Y-73892009D01*
X100102317Y-73860000D01*
X99897683Y-73860000D01*
X99695582Y-73892009D01*
X99500968Y-73955244D01*
X99318644Y-74048143D01*
X99274077Y-74080523D01*
X99274077Y-74080524D01*
X99953554Y-74760000D01*
X99947339Y-74760000D01*
X99845606Y-74787259D01*
X99754394Y-74839920D01*
X99679920Y-74914394D01*
X99627259Y-75005606D01*
X99600000Y-75107339D01*
X99600000Y-75113553D01*
X98920524Y-74434077D01*
X98920523Y-74434077D01*
X98888143Y-74478644D01*
X98795244Y-74660968D01*
X98732009Y-74855582D01*
X98700000Y-75057682D01*
X96517236Y-75057682D01*
X110138102Y-61436818D01*
X110199425Y-61403333D01*
X110225783Y-61400499D01*
X110906621Y-61400499D01*
X110906622Y-61400499D01*
X110966233Y-61394091D01*
X111101081Y-61343796D01*
X111216296Y-61257546D01*
X111302546Y-61142331D01*
X111352841Y-61007483D01*
X111359250Y-60947873D01*
X111359249Y-59052128D01*
X111352841Y-58992517D01*
X111326530Y-58921974D01*
X111302547Y-58857671D01*
X111302543Y-58857664D01*
X111216297Y-58742455D01*
X111216294Y-58742452D01*
X111101085Y-58656206D01*
X111101078Y-58656202D01*
X110966232Y-58605908D01*
X110966233Y-58605908D01*
X110906633Y-58599501D01*
X110906631Y-58599500D01*
X110906623Y-58599500D01*
X110906614Y-58599500D01*
X109093379Y-58599500D01*
X109093373Y-58599501D01*
X109033766Y-58605908D01*
X108898921Y-58656202D01*
X108898914Y-58656206D01*
X108783705Y-58742452D01*
X108703611Y-58849443D01*
X108647677Y-58891313D01*
X108577985Y-58896297D01*
X108531460Y-58875449D01*
X108422405Y-58796217D01*
X108422404Y-58796216D01*
X108422402Y-58796215D01*
X108231771Y-58699084D01*
X108028292Y-58632969D01*
X108028290Y-58632968D01*
X108028288Y-58632968D01*
X107816980Y-58599500D01*
X107816975Y-58599500D01*
X107603025Y-58599500D01*
X107603020Y-58599500D01*
X107391711Y-58632968D01*
X107188226Y-58699085D01*
X106997597Y-58796215D01*
X106824505Y-58921974D01*
X106673224Y-59073255D01*
X106673219Y-59073261D01*
X106665316Y-59084139D01*
X106609985Y-59126803D01*
X106540371Y-59132781D01*
X106478577Y-59100173D01*
X106464684Y-59084139D01*
X106456780Y-59073261D01*
X106456775Y-59073255D01*
X106305494Y-58921974D01*
X106305492Y-58921972D01*
X106132402Y-58796215D01*
X105941771Y-58699084D01*
X105738292Y-58632969D01*
X105738290Y-58632968D01*
X105738288Y-58632968D01*
X105526980Y-58599500D01*
X105526975Y-58599500D01*
X105313025Y-58599500D01*
X105313020Y-58599500D01*
X105101711Y-58632968D01*
X104898226Y-58699085D01*
X104707597Y-58796215D01*
X104534505Y-58921974D01*
X104383224Y-59073255D01*
X104257465Y-59246347D01*
X104160335Y-59436976D01*
X104094218Y-59640461D01*
X104060750Y-59851769D01*
X104060750Y-60148230D01*
X104094218Y-60359538D01*
X104094219Y-60359542D01*
X104160334Y-60563021D01*
X104257465Y-60753652D01*
X104383222Y-60926742D01*
X104534508Y-61078028D01*
X104707598Y-61203785D01*
X104898229Y-61300916D01*
X105101708Y-61367031D01*
X105180951Y-61379581D01*
X105313020Y-61400500D01*
X105313025Y-61400500D01*
X105526980Y-61400500D01*
X105644373Y-61381906D01*
X105738292Y-61367031D01*
X105941771Y-61300916D01*
X106132402Y-61203785D01*
X106305492Y-61078028D01*
X106456778Y-60926742D01*
X106464681Y-60915865D01*
X106520010Y-60873199D01*
X106589623Y-60867218D01*
X106651419Y-60899823D01*
X106665319Y-60915865D01*
X106673218Y-60926738D01*
X106673222Y-60926742D01*
X106824508Y-61078028D01*
X106997598Y-61203785D01*
X107188229Y-61300916D01*
X107188938Y-61301146D01*
X107189175Y-61301308D01*
X107192722Y-61302777D01*
X107192413Y-61303521D01*
X107246616Y-61340573D01*
X107273825Y-61404927D01*
X107261921Y-61473775D01*
X107238316Y-61506762D01*
X94911797Y-73833281D01*
X94850474Y-73866766D01*
X94843515Y-73868073D01*
X94695468Y-73891522D01*
X94500778Y-73954781D01*
X94318386Y-74047715D01*
X94152786Y-74168028D01*
X94008028Y-74312786D01*
X93887715Y-74478386D01*
X93794781Y-74660776D01*
X93731522Y-74855465D01*
X93699500Y-75057648D01*
X81299995Y-75057648D01*
X81267990Y-74855582D01*
X81204755Y-74660968D01*
X81111859Y-74478650D01*
X81079474Y-74434077D01*
X81079474Y-74434076D01*
X80400000Y-75113551D01*
X80400000Y-75107339D01*
X80372741Y-75005606D01*
X80320080Y-74914394D01*
X80245606Y-74839920D01*
X80154394Y-74787259D01*
X80052661Y-74760000D01*
X80046446Y-74760000D01*
X80725922Y-74080524D01*
X80725921Y-74080523D01*
X80681359Y-74048147D01*
X80681350Y-74048141D01*
X80499031Y-73955244D01*
X80304417Y-73892009D01*
X80102317Y-73860000D01*
X79897683Y-73860000D01*
X79695582Y-73892009D01*
X79500968Y-73955244D01*
X79318644Y-74048143D01*
X79274077Y-74080523D01*
X79274077Y-74080524D01*
X79953554Y-74760000D01*
X79947339Y-74760000D01*
X79845606Y-74787259D01*
X79754394Y-74839920D01*
X79679920Y-74914394D01*
X79627259Y-75005606D01*
X79600000Y-75107339D01*
X79600000Y-75113553D01*
X78920524Y-74434077D01*
X78920523Y-74434077D01*
X78888143Y-74478644D01*
X78795244Y-74660968D01*
X78732009Y-74855582D01*
X78700000Y-75057682D01*
X76517236Y-75057682D01*
X86677271Y-64897648D01*
X93699500Y-64897648D01*
X93699500Y-65102351D01*
X93731522Y-65304534D01*
X93794781Y-65499223D01*
X93887715Y-65681613D01*
X94008028Y-65847213D01*
X94152786Y-65991971D01*
X94304498Y-66102194D01*
X94318390Y-66112287D01*
X94434607Y-66171503D01*
X94500776Y-66205218D01*
X94500778Y-66205218D01*
X94500781Y-66205220D01*
X94605137Y-66239127D01*
X94695465Y-66268477D01*
X94796557Y-66284488D01*
X94897648Y-66300500D01*
X94897649Y-66300500D01*
X95102351Y-66300500D01*
X95102352Y-66300500D01*
X95304534Y-66268477D01*
X95499219Y-66205220D01*
X95681610Y-66112287D01*
X95774590Y-66044732D01*
X95847213Y-65991971D01*
X95847215Y-65991968D01*
X95847219Y-65991966D01*
X95991966Y-65847219D01*
X95991968Y-65847215D01*
X95991971Y-65847213D01*
X96044732Y-65774590D01*
X96112287Y-65681610D01*
X96205220Y-65499219D01*
X96268477Y-65304534D01*
X96300500Y-65102352D01*
X96300500Y-64897648D01*
X98699500Y-64897648D01*
X98699500Y-65102351D01*
X98731522Y-65304534D01*
X98794781Y-65499223D01*
X98887715Y-65681613D01*
X99008028Y-65847213D01*
X99152786Y-65991971D01*
X99304498Y-66102194D01*
X99318390Y-66112287D01*
X99434607Y-66171503D01*
X99500776Y-66205218D01*
X99500778Y-66205218D01*
X99500781Y-66205220D01*
X99605137Y-66239127D01*
X99695465Y-66268477D01*
X99796557Y-66284488D01*
X99897648Y-66300500D01*
X99897649Y-66300500D01*
X100102351Y-66300500D01*
X100102352Y-66300500D01*
X100304534Y-66268477D01*
X100499219Y-66205220D01*
X100681610Y-66112287D01*
X100774590Y-66044732D01*
X100847213Y-65991971D01*
X100847215Y-65991968D01*
X100847219Y-65991966D01*
X100991966Y-65847219D01*
X100991968Y-65847215D01*
X100991971Y-65847213D01*
X101044732Y-65774590D01*
X101112287Y-65681610D01*
X101205220Y-65499219D01*
X101268477Y-65304534D01*
X101300500Y-65102352D01*
X101300500Y-64897648D01*
X101268477Y-64695466D01*
X101205220Y-64500781D01*
X101205218Y-64500778D01*
X101205218Y-64500776D01*
X101171503Y-64434607D01*
X101112287Y-64318390D01*
X101067516Y-64256767D01*
X100991971Y-64152786D01*
X100847213Y-64008028D01*
X100681613Y-63887715D01*
X100681612Y-63887714D01*
X100681610Y-63887713D01*
X100624653Y-63858691D01*
X100499223Y-63794781D01*
X100304534Y-63731522D01*
X100129995Y-63703878D01*
X100102352Y-63699500D01*
X99897648Y-63699500D01*
X99873329Y-63703351D01*
X99695465Y-63731522D01*
X99500776Y-63794781D01*
X99318386Y-63887715D01*
X99152786Y-64008028D01*
X99008028Y-64152786D01*
X98887715Y-64318386D01*
X98794781Y-64500776D01*
X98731522Y-64695465D01*
X98699500Y-64897648D01*
X96300500Y-64897648D01*
X96268477Y-64695466D01*
X96205220Y-64500781D01*
X96205218Y-64500778D01*
X96205218Y-64500776D01*
X96171503Y-64434607D01*
X96112287Y-64318390D01*
X96067516Y-64256767D01*
X95991971Y-64152786D01*
X95847213Y-64008028D01*
X95681613Y-63887715D01*
X95681612Y-63887714D01*
X95681610Y-63887713D01*
X95624653Y-63858691D01*
X95499223Y-63794781D01*
X95304534Y-63731522D01*
X95129995Y-63703878D01*
X95102352Y-63699500D01*
X94897648Y-63699500D01*
X94873329Y-63703351D01*
X94695465Y-63731522D01*
X94500776Y-63794781D01*
X94318386Y-63887715D01*
X94152786Y-64008028D01*
X94008028Y-64152786D01*
X93887715Y-64318386D01*
X93794781Y-64500776D01*
X93731522Y-64695465D01*
X93699500Y-64897648D01*
X86677271Y-64897648D01*
X90138102Y-61436818D01*
X90199425Y-61403333D01*
X90225783Y-61400499D01*
X90906621Y-61400499D01*
X90906622Y-61400499D01*
X90966233Y-61394091D01*
X91101081Y-61343796D01*
X91216296Y-61257546D01*
X91302546Y-61142331D01*
X91352841Y-61007483D01*
X91359250Y-60947873D01*
X91359249Y-59052128D01*
X91352841Y-58992517D01*
X91326530Y-58921974D01*
X91302547Y-58857671D01*
X91302543Y-58857664D01*
X91216297Y-58742455D01*
X91216294Y-58742452D01*
X91101085Y-58656206D01*
X91101078Y-58656202D01*
X90966232Y-58605908D01*
X90966233Y-58605908D01*
X90906633Y-58599501D01*
X90906631Y-58599500D01*
X90906623Y-58599500D01*
X90906614Y-58599500D01*
X89093379Y-58599500D01*
X89093373Y-58599501D01*
X89033766Y-58605908D01*
X88898921Y-58656202D01*
X88898914Y-58656206D01*
X88783705Y-58742452D01*
X88703611Y-58849443D01*
X88647677Y-58891313D01*
X88577985Y-58896297D01*
X88531460Y-58875449D01*
X88422405Y-58796217D01*
X88422404Y-58796216D01*
X88422402Y-58796215D01*
X88231771Y-58699084D01*
X88028292Y-58632969D01*
X88028290Y-58632968D01*
X88028288Y-58632968D01*
X87816980Y-58599500D01*
X87816975Y-58599500D01*
X87603025Y-58599500D01*
X87603020Y-58599500D01*
X87391711Y-58632968D01*
X87188226Y-58699085D01*
X86997597Y-58796215D01*
X86824505Y-58921974D01*
X86673224Y-59073255D01*
X86673219Y-59073261D01*
X86665316Y-59084139D01*
X86609985Y-59126803D01*
X86540371Y-59132781D01*
X86478577Y-59100173D01*
X86464684Y-59084139D01*
X86456780Y-59073261D01*
X86456775Y-59073255D01*
X86305494Y-58921974D01*
X86305492Y-58921972D01*
X86132402Y-58796215D01*
X85941771Y-58699084D01*
X85738292Y-58632969D01*
X85738290Y-58632968D01*
X85738288Y-58632968D01*
X85526980Y-58599500D01*
X85526975Y-58599500D01*
X85313025Y-58599500D01*
X85313020Y-58599500D01*
X85101711Y-58632968D01*
X84898226Y-58699085D01*
X84707597Y-58796215D01*
X84534505Y-58921974D01*
X84383224Y-59073255D01*
X84257465Y-59246347D01*
X84160335Y-59436976D01*
X84094218Y-59640461D01*
X84060750Y-59851769D01*
X84060750Y-60148230D01*
X84094218Y-60359538D01*
X84094219Y-60359542D01*
X84160334Y-60563021D01*
X84257465Y-60753652D01*
X84383222Y-60926742D01*
X84534508Y-61078028D01*
X84707598Y-61203785D01*
X84898229Y-61300916D01*
X85101708Y-61367031D01*
X85180951Y-61379581D01*
X85313020Y-61400500D01*
X85313025Y-61400500D01*
X85526980Y-61400500D01*
X85644373Y-61381906D01*
X85738292Y-61367031D01*
X85941771Y-61300916D01*
X86132402Y-61203785D01*
X86305492Y-61078028D01*
X86456778Y-60926742D01*
X86464681Y-60915865D01*
X86520010Y-60873199D01*
X86589623Y-60867218D01*
X86651419Y-60899823D01*
X86665319Y-60915865D01*
X86673218Y-60926738D01*
X86673222Y-60926742D01*
X86824508Y-61078028D01*
X86997598Y-61203785D01*
X87188229Y-61300916D01*
X87188938Y-61301146D01*
X87189175Y-61301308D01*
X87192722Y-61302777D01*
X87192413Y-61303521D01*
X87246616Y-61340573D01*
X87273825Y-61404927D01*
X87261921Y-61473775D01*
X87238316Y-61506762D01*
X74911797Y-73833281D01*
X74850474Y-73866766D01*
X74843515Y-73868073D01*
X74695468Y-73891522D01*
X74500778Y-73954781D01*
X74318386Y-74047715D01*
X74152786Y-74168028D01*
X74008028Y-74312786D01*
X73887715Y-74478386D01*
X73794781Y-74660776D01*
X73731522Y-74855465D01*
X73699500Y-75057648D01*
X64650500Y-75057648D01*
X64650499Y-74660968D01*
X64650499Y-74252129D01*
X64650498Y-74252123D01*
X64650497Y-74252116D01*
X64644091Y-74192517D01*
X64634959Y-74168034D01*
X64593797Y-74057671D01*
X64593793Y-74057664D01*
X64507547Y-73942455D01*
X64507544Y-73942452D01*
X64392335Y-73856206D01*
X64392328Y-73856202D01*
X64257482Y-73805908D01*
X64257483Y-73805908D01*
X64197883Y-73799501D01*
X64197881Y-73799500D01*
X64197873Y-73799500D01*
X64197864Y-73799500D01*
X62102129Y-73799500D01*
X62102123Y-73799501D01*
X62042516Y-73805908D01*
X61907671Y-73856202D01*
X61907664Y-73856206D01*
X61792455Y-73942452D01*
X61792452Y-73942455D01*
X61706206Y-74057664D01*
X61706202Y-74057671D01*
X61655908Y-74192517D01*
X61649501Y-74252116D01*
X61649501Y-74252123D01*
X61649500Y-74252135D01*
X50500500Y-74252135D01*
X50500500Y-70504731D01*
X66600000Y-70504731D01*
X66600000Y-71350000D01*
X67822769Y-71350000D01*
X67800000Y-71493753D01*
X67800000Y-71706247D01*
X67822769Y-71850000D01*
X66600000Y-71850000D01*
X66600000Y-72695268D01*
X66610215Y-72839958D01*
X66610217Y-72839968D01*
X66664313Y-73080165D01*
X66664315Y-73080172D01*
X66756244Y-73308585D01*
X66883620Y-73519289D01*
X66883627Y-73519299D01*
X67043153Y-73706846D01*
X67230700Y-73866372D01*
X67230710Y-73866379D01*
X67441414Y-73993755D01*
X67669827Y-74085684D01*
X67669834Y-74085686D01*
X67910031Y-74139782D01*
X67910041Y-74139784D01*
X68054731Y-74149999D01*
X68054734Y-74150000D01*
X68900000Y-74150000D01*
X68900000Y-72927231D01*
X69043753Y-72950000D01*
X69256247Y-72950000D01*
X69400000Y-72927231D01*
X69400000Y-74150000D01*
X70245266Y-74150000D01*
X70245268Y-74149999D01*
X70389958Y-74139784D01*
X70389968Y-74139782D01*
X70630165Y-74085686D01*
X70630172Y-74085684D01*
X70858585Y-73993755D01*
X71069289Y-73866379D01*
X71069299Y-73866372D01*
X71256846Y-73706846D01*
X71416372Y-73519299D01*
X71416379Y-73519289D01*
X71543755Y-73308585D01*
X71635684Y-73080172D01*
X71635686Y-73080165D01*
X71689782Y-72839968D01*
X71689784Y-72839958D01*
X71699999Y-72695268D01*
X71700000Y-72695266D01*
X71700000Y-71850000D01*
X70477231Y-71850000D01*
X70500000Y-71706247D01*
X70500000Y-71493753D01*
X70477231Y-71350000D01*
X71700000Y-71350000D01*
X71700000Y-70504734D01*
X71699999Y-70504731D01*
X71689784Y-70360041D01*
X71689782Y-70360031D01*
X71635686Y-70119834D01*
X71635684Y-70119827D01*
X71543755Y-69891414D01*
X71416379Y-69680710D01*
X71416372Y-69680700D01*
X71256846Y-69493153D01*
X71069299Y-69333627D01*
X71069289Y-69333620D01*
X70858585Y-69206244D01*
X70630172Y-69114315D01*
X70630165Y-69114313D01*
X70389968Y-69060217D01*
X70389958Y-69060215D01*
X70245268Y-69050000D01*
X69400000Y-69050000D01*
X69400000Y-70272768D01*
X69256247Y-70250000D01*
X69043753Y-70250000D01*
X68900000Y-70272768D01*
X68900000Y-69050000D01*
X68054731Y-69050000D01*
X67910041Y-69060215D01*
X67910031Y-69060217D01*
X67669834Y-69114313D01*
X67669827Y-69114315D01*
X67441414Y-69206244D01*
X67230710Y-69333620D01*
X67230700Y-69333627D01*
X67043153Y-69493153D01*
X66883627Y-69680700D01*
X66883620Y-69680710D01*
X66756244Y-69891414D01*
X66664315Y-70119827D01*
X66664313Y-70119834D01*
X66610217Y-70360031D01*
X66610215Y-70360041D01*
X66600000Y-70504731D01*
X50500500Y-70504731D01*
X50500500Y-64256762D01*
X66599500Y-64256762D01*
X66599500Y-64543237D01*
X66631572Y-64827891D01*
X66695317Y-65107181D01*
X66695321Y-65107193D01*
X66789929Y-65377565D01*
X66789935Y-65377579D01*
X66914223Y-65635666D01*
X66914225Y-65635669D01*
X67066634Y-65878227D01*
X67245243Y-66102195D01*
X67447805Y-66304757D01*
X67671773Y-66483366D01*
X67914331Y-66635775D01*
X68172428Y-66760068D01*
X68172434Y-66760070D01*
X68442806Y-66854678D01*
X68442818Y-66854682D01*
X68722102Y-66918426D01*
X68722105Y-66918426D01*
X68722108Y-66918427D01*
X68722107Y-66918427D01*
X68864434Y-66934463D01*
X69006763Y-66950499D01*
X69006764Y-66950500D01*
X69006767Y-66950500D01*
X69293236Y-66950500D01*
X69293236Y-66950499D01*
X69498815Y-66927336D01*
X69577891Y-66918427D01*
X69577892Y-66918426D01*
X69577898Y-66918426D01*
X69857182Y-66854682D01*
X70127572Y-66760068D01*
X70385669Y-66635775D01*
X70628227Y-66483366D01*
X70852195Y-66304757D01*
X71054757Y-66102195D01*
X71233366Y-65878227D01*
X71385775Y-65635669D01*
X71510068Y-65377572D01*
X71604682Y-65107182D01*
X71652506Y-64897648D01*
X73699500Y-64897648D01*
X73699500Y-65102351D01*
X73731522Y-65304534D01*
X73794781Y-65499223D01*
X73887715Y-65681613D01*
X74008028Y-65847213D01*
X74152786Y-65991971D01*
X74304498Y-66102194D01*
X74318390Y-66112287D01*
X74434607Y-66171503D01*
X74500776Y-66205218D01*
X74500778Y-66205218D01*
X74500781Y-66205220D01*
X74605137Y-66239127D01*
X74695465Y-66268477D01*
X74796557Y-66284488D01*
X74897648Y-66300500D01*
X74897649Y-66300500D01*
X75102351Y-66300500D01*
X75102352Y-66300500D01*
X75304534Y-66268477D01*
X75499219Y-66205220D01*
X75681610Y-66112287D01*
X75774590Y-66044732D01*
X75847213Y-65991971D01*
X75847215Y-65991968D01*
X75847219Y-65991966D01*
X75991966Y-65847219D01*
X75991968Y-65847215D01*
X75991971Y-65847213D01*
X76044732Y-65774590D01*
X76112287Y-65681610D01*
X76205220Y-65499219D01*
X76268477Y-65304534D01*
X76300500Y-65102352D01*
X76300500Y-64897648D01*
X78699500Y-64897648D01*
X78699500Y-65102351D01*
X78731522Y-65304534D01*
X78794781Y-65499223D01*
X78887715Y-65681613D01*
X79008028Y-65847213D01*
X79152786Y-65991971D01*
X79304498Y-66102194D01*
X79318390Y-66112287D01*
X79434607Y-66171503D01*
X79500776Y-66205218D01*
X79500778Y-66205218D01*
X79500781Y-66205220D01*
X79605137Y-66239127D01*
X79695465Y-66268477D01*
X79796557Y-66284488D01*
X79897648Y-66300500D01*
X79897649Y-66300500D01*
X80102351Y-66300500D01*
X80102352Y-66300500D01*
X80304534Y-66268477D01*
X80499219Y-66205220D01*
X80681610Y-66112287D01*
X80774590Y-66044732D01*
X80847213Y-65991971D01*
X80847215Y-65991968D01*
X80847219Y-65991966D01*
X80991966Y-65847219D01*
X80991968Y-65847215D01*
X80991971Y-65847213D01*
X81044732Y-65774590D01*
X81112287Y-65681610D01*
X81205220Y-65499219D01*
X81268477Y-65304534D01*
X81300500Y-65102352D01*
X81300500Y-64897648D01*
X81268477Y-64695466D01*
X81205220Y-64500781D01*
X81205218Y-64500778D01*
X81205218Y-64500776D01*
X81171503Y-64434607D01*
X81112287Y-64318390D01*
X81067516Y-64256767D01*
X80991971Y-64152786D01*
X80847213Y-64008028D01*
X80681613Y-63887715D01*
X80681612Y-63887714D01*
X80681610Y-63887713D01*
X80624653Y-63858691D01*
X80499223Y-63794781D01*
X80304534Y-63731522D01*
X80129995Y-63703878D01*
X80102352Y-63699500D01*
X79897648Y-63699500D01*
X79873329Y-63703351D01*
X79695465Y-63731522D01*
X79500776Y-63794781D01*
X79318386Y-63887715D01*
X79152786Y-64008028D01*
X79008028Y-64152786D01*
X78887715Y-64318386D01*
X78794781Y-64500776D01*
X78731522Y-64695465D01*
X78699500Y-64897648D01*
X76300500Y-64897648D01*
X76268477Y-64695466D01*
X76205220Y-64500781D01*
X76205218Y-64500778D01*
X76205218Y-64500776D01*
X76171503Y-64434607D01*
X76112287Y-64318390D01*
X76067516Y-64256767D01*
X75991971Y-64152786D01*
X75847213Y-64008028D01*
X75681613Y-63887715D01*
X75681612Y-63887714D01*
X75681610Y-63887713D01*
X75624653Y-63858691D01*
X75499223Y-63794781D01*
X75304534Y-63731522D01*
X75129995Y-63703878D01*
X75102352Y-63699500D01*
X74897648Y-63699500D01*
X74873329Y-63703351D01*
X74695465Y-63731522D01*
X74500776Y-63794781D01*
X74318386Y-63887715D01*
X74152786Y-64008028D01*
X74008028Y-64152786D01*
X73887715Y-64318386D01*
X73794781Y-64500776D01*
X73731522Y-64695465D01*
X73699500Y-64897648D01*
X71652506Y-64897648D01*
X71668426Y-64827898D01*
X71670996Y-64805095D01*
X71683348Y-64695465D01*
X71700500Y-64543233D01*
X71700500Y-64256767D01*
X71668426Y-63972102D01*
X71604682Y-63692818D01*
X71510068Y-63422428D01*
X71385775Y-63164331D01*
X71233366Y-62921773D01*
X71054757Y-62697805D01*
X70852195Y-62495243D01*
X70628227Y-62316634D01*
X70385669Y-62164225D01*
X70385666Y-62164223D01*
X70127579Y-62039935D01*
X70127565Y-62039929D01*
X69857193Y-61945321D01*
X69857181Y-61945317D01*
X69577891Y-61881572D01*
X69577892Y-61881572D01*
X69293237Y-61849500D01*
X69293233Y-61849500D01*
X69006767Y-61849500D01*
X69006762Y-61849500D01*
X68722108Y-61881572D01*
X68442818Y-61945317D01*
X68442806Y-61945321D01*
X68172434Y-62039929D01*
X68172420Y-62039935D01*
X67914333Y-62164223D01*
X67671774Y-62316633D01*
X67447805Y-62495242D01*
X67245242Y-62697805D01*
X67066633Y-62921774D01*
X66914223Y-63164333D01*
X66789935Y-63422420D01*
X66789929Y-63422434D01*
X66695321Y-63692806D01*
X66695317Y-63692818D01*
X66631572Y-63972108D01*
X66599500Y-64256762D01*
X50500500Y-64256762D01*
X50500500Y-60752135D01*
X61649500Y-60752135D01*
X61649500Y-61747870D01*
X61649501Y-61747876D01*
X61655908Y-61807483D01*
X61706202Y-61942328D01*
X61706206Y-61942335D01*
X61792452Y-62057544D01*
X61792455Y-62057547D01*
X61907664Y-62143793D01*
X61907671Y-62143797D01*
X62042517Y-62194091D01*
X62042516Y-62194091D01*
X62049444Y-62194835D01*
X62102127Y-62200500D01*
X64197872Y-62200499D01*
X64257483Y-62194091D01*
X64392331Y-62143796D01*
X64507546Y-62057546D01*
X64593796Y-61942331D01*
X64644091Y-61807483D01*
X64650500Y-61747873D01*
X64650499Y-60752128D01*
X64644091Y-60692517D01*
X64593796Y-60557669D01*
X64593795Y-60557668D01*
X64593793Y-60557664D01*
X64507547Y-60442455D01*
X64507544Y-60442452D01*
X64392335Y-60356206D01*
X64392328Y-60356202D01*
X64257482Y-60305908D01*
X64257483Y-60305908D01*
X64197883Y-60299501D01*
X64197881Y-60299500D01*
X64197873Y-60299500D01*
X64197864Y-60299500D01*
X62102129Y-60299500D01*
X62102123Y-60299501D01*
X62042516Y-60305908D01*
X61907671Y-60356202D01*
X61907664Y-60356206D01*
X61792455Y-60442452D01*
X61792452Y-60442455D01*
X61706206Y-60557664D01*
X61706202Y-60557671D01*
X61655908Y-60692517D01*
X61649501Y-60752116D01*
X61649501Y-60752123D01*
X61649500Y-60752135D01*
X50500500Y-60752135D01*
X50500500Y-54857744D01*
X52829500Y-54857744D01*
X52829500Y-55142255D01*
X52829501Y-55142271D01*
X52866636Y-55424341D01*
X52866637Y-55424346D01*
X52866638Y-55424352D01*
X52940278Y-55699181D01*
X53019026Y-55889295D01*
X53049159Y-55962043D01*
X53049164Y-55962054D01*
X53191422Y-56208451D01*
X53364628Y-56434179D01*
X53364634Y-56434186D01*
X53565813Y-56635365D01*
X53565820Y-56635371D01*
X53791548Y-56808577D01*
X54037945Y-56950835D01*
X54037950Y-56950837D01*
X54037953Y-56950839D01*
X54300819Y-57059722D01*
X54575648Y-57133362D01*
X54857738Y-57170500D01*
X54857745Y-57170500D01*
X55142255Y-57170500D01*
X55142262Y-57170500D01*
X55424352Y-57133362D01*
X55699181Y-57059722D01*
X55962047Y-56950839D01*
X56208452Y-56808577D01*
X56434181Y-56635370D01*
X56635370Y-56434181D01*
X56808577Y-56208452D01*
X56950839Y-55962047D01*
X57059722Y-55699181D01*
X57133362Y-55424352D01*
X57170500Y-55142262D01*
X57170500Y-54857744D01*
X132829500Y-54857744D01*
X132829500Y-55142255D01*
X132829501Y-55142271D01*
X132866636Y-55424341D01*
X132866637Y-55424346D01*
X132866638Y-55424352D01*
X132940278Y-55699181D01*
X133019026Y-55889295D01*
X133049159Y-55962043D01*
X133049164Y-55962054D01*
X133191422Y-56208451D01*
X133364628Y-56434179D01*
X133364634Y-56434186D01*
X133565813Y-56635365D01*
X133565820Y-56635371D01*
X133791548Y-56808577D01*
X134037945Y-56950835D01*
X134037950Y-56950837D01*
X134037953Y-56950839D01*
X134300819Y-57059722D01*
X134575648Y-57133362D01*
X134857738Y-57170500D01*
X134857745Y-57170500D01*
X135142255Y-57170500D01*
X135142262Y-57170500D01*
X135424352Y-57133362D01*
X135699181Y-57059722D01*
X135962047Y-56950839D01*
X136208452Y-56808577D01*
X136434181Y-56635370D01*
X136635370Y-56434181D01*
X136808577Y-56208452D01*
X136950839Y-55962047D01*
X137059722Y-55699181D01*
X137133362Y-55424352D01*
X137170500Y-55142262D01*
X137170500Y-54857738D01*
X137133362Y-54575648D01*
X137059722Y-54300819D01*
X136950839Y-54037953D01*
X136950837Y-54037950D01*
X136950835Y-54037945D01*
X136808577Y-53791548D01*
X136635371Y-53565820D01*
X136635365Y-53565813D01*
X136434186Y-53364634D01*
X136434179Y-53364628D01*
X136208451Y-53191422D01*
X135962054Y-53049164D01*
X135962043Y-53049159D01*
X135898261Y-53022740D01*
X135699181Y-52940278D01*
X135424352Y-52866638D01*
X135424346Y-52866637D01*
X135424341Y-52866636D01*
X135142271Y-52829501D01*
X135142268Y-52829500D01*
X135142262Y-52829500D01*
X134857738Y-52829500D01*
X134857732Y-52829500D01*
X134857728Y-52829501D01*
X134575658Y-52866636D01*
X134575651Y-52866637D01*
X134575648Y-52866638D01*
X134300819Y-52940278D01*
X134178729Y-52990849D01*
X134037956Y-53049159D01*
X134037945Y-53049164D01*
X133791548Y-53191422D01*
X133565820Y-53364628D01*
X133565813Y-53364634D01*
X133364634Y-53565813D01*
X133364628Y-53565820D01*
X133191422Y-53791548D01*
X133049164Y-54037945D01*
X133049159Y-54037956D01*
X133019026Y-54110705D01*
X132940278Y-54300819D01*
X132872854Y-54552452D01*
X132866639Y-54575645D01*
X132866636Y-54575658D01*
X132829501Y-54857728D01*
X132829500Y-54857744D01*
X57170500Y-54857744D01*
X57170500Y-54857738D01*
X57133362Y-54575648D01*
X57059722Y-54300819D01*
X56950839Y-54037953D01*
X56950837Y-54037950D01*
X56950835Y-54037945D01*
X56808577Y-53791548D01*
X56635371Y-53565820D01*
X56635365Y-53565813D01*
X56434186Y-53364634D01*
X56434179Y-53364628D01*
X56208451Y-53191422D01*
X55962054Y-53049164D01*
X55962043Y-53049159D01*
X55898261Y-53022740D01*
X55699181Y-52940278D01*
X55424352Y-52866638D01*
X55424346Y-52866637D01*
X55424341Y-52866636D01*
X55142271Y-52829501D01*
X55142268Y-52829500D01*
X55142262Y-52829500D01*
X54857738Y-52829500D01*
X54857732Y-52829500D01*
X54857728Y-52829501D01*
X54575658Y-52866636D01*
X54575651Y-52866637D01*
X54575648Y-52866638D01*
X54300819Y-52940278D01*
X54178729Y-52990849D01*
X54037956Y-53049159D01*
X54037945Y-53049164D01*
X53791548Y-53191422D01*
X53565820Y-53364628D01*
X53565813Y-53364634D01*
X53364634Y-53565813D01*
X53364628Y-53565820D01*
X53191422Y-53791548D01*
X53049164Y-54037945D01*
X53049159Y-54037956D01*
X53019026Y-54110705D01*
X52940278Y-54300819D01*
X52872854Y-54552452D01*
X52866639Y-54575645D01*
X52866636Y-54575658D01*
X52829501Y-54857728D01*
X52829500Y-54857744D01*
X50500500Y-54857744D01*
X50500500Y-52004427D01*
X50500816Y-51995581D01*
X50515130Y-51795443D01*
X50515131Y-51795434D01*
X50517646Y-51777938D01*
X50559356Y-51586200D01*
X50564335Y-51569242D01*
X50632911Y-51385382D01*
X50640251Y-51369310D01*
X50734294Y-51197083D01*
X50743850Y-51182214D01*
X50861443Y-51025128D01*
X50873017Y-51011771D01*
X51011771Y-50873017D01*
X51025128Y-50861443D01*
X51182214Y-50743850D01*
X51197083Y-50734294D01*
X51369310Y-50640251D01*
X51385382Y-50632911D01*
X51569242Y-50564335D01*
X51586200Y-50559356D01*
X51777938Y-50517646D01*
X51795436Y-50515130D01*
X51995582Y-50500816D01*
X52004428Y-50500500D01*
X52065892Y-50500500D01*
X137934108Y-50500500D01*
X137995572Y-50500500D01*
X138004418Y-50500816D01*
G37*
%TD.AperFunction*%
%TD*%
M02*
