M48
; DRILL file {KiCad 9.0.9.1} date 2026-09-10T22:00:01+0900
; FORMAT={-:-/ absolute / metric / decimal}
; #@! TF.CreationDate,2026-09-10T22:00:01+09:00
; #@! TF.GenerationSoftware,Kicad,Pcbnew,9.0.9.1
; #@! TF.FileFunction,Plated,1,2,PTH
FMAT,2
METRIC
; #@! TA.AperFunction,Plated,PTH,ComponentDrill
T1C0.600
; #@! TA.AperFunction,Plated,PTH,ComponentDrill
T2C0.750
; #@! TA.AperFunction,Plated,PTH,ComponentDrill
T3C0.800
; #@! TA.AperFunction,Plated,PTH,ComponentDrill
T4C0.900
; #@! TA.AperFunction,Plated,PTH,ComponentDrill
T5C0.950
; #@! TA.AperFunction,Plated,PTH,ComponentDrill
T6C1.000
; #@! TA.AperFunction,Plated,PTH,ComponentDrill
T7C1.100
; #@! TA.AperFunction,Plated,PTH,ComponentDrill
T8C2.700
; #@! TA.AperFunction,Plated,PTH,ComponentDrill
T9C4.500
%
G90
G05
T1
X110.377Y-85.1
X111.877Y-85.1
T2
X110.43Y-80.0
X111.7Y-80.0
X112.97Y-80.0
T3
X87.347Y-55.2
X87.35Y-61.1
X89.85Y-61.1
X90.847Y-55.2
X92.65Y-61.2
X95.15Y-61.2
X95.3Y-65.62
X95.3Y-75.78
X99.35Y-65.62
X99.35Y-75.78
X107.55Y-58.3
X109.95Y-68.2
X110.05Y-58.3
X110.45Y-77.0
X110.455Y-72.2
X112.45Y-68.2
X112.455Y-72.2
X112.95Y-77.0
X121.23Y-54.0
X121.84Y-60.12
X121.84Y-67.74
X124.38Y-60.12
X124.38Y-67.74
X124.38Y-99.46
X124.38Y-102.0
X124.38Y-105.46
X124.38Y-108.0
X124.44Y-70.0
X125.4Y-80.0
X125.4Y-90.16
X126.92Y-60.12
X126.92Y-67.74
X126.94Y-70.0
X128.5Y-80.0
X128.5Y-90.16
X129.46Y-60.12
X129.46Y-67.74
X131.39Y-54.0
X132.0Y-99.46
X132.0Y-102.0
X132.0Y-105.46
X132.0Y-108.0
X132.12Y-60.11
X132.12Y-62.61
X139.0Y-63.0
X139.0Y-66.1
X147.62Y-88.92
X149.16Y-63.0
X149.16Y-66.1
X150.12Y-88.92
T4
X144.0Y-94.0
X146.54Y-94.0
X150.0Y-94.0
X152.54Y-94.0
T5
X121.0Y-80.0
X121.0Y-82.5
X121.0Y-85.0
X121.0Y-87.5
T6
X96.732Y-55.2
X101.732Y-55.2
X107.5Y-65.0
X110.0Y-65.0
X112.5Y-65.0
X124.4Y-44.5
X126.9Y-44.5
X126.93Y-57.28
X129.47Y-57.28
T7
X117.6Y-58.39
X117.6Y-66.01
X137.0Y-53.5
X137.0Y-60.0
X141.5Y-53.5
X141.5Y-60.0
X145.25Y-53.5
X145.25Y-60.0
X149.75Y-53.5
X149.75Y-60.0
T8
X135.6Y-44.0
X140.6Y-44.0
T9
X102.8Y-45.0
X102.8Y-100.0
X110.0Y-45.0
X110.0Y-100.0
M30
