%TF.GenerationSoftware,KiCad,Pcbnew,9.0.9.1*%
%TF.CreationDate,2026-09-10T21:59:59+09:00*%
%TF.ProjectId,TRIA_MotorDrive,54524941-5f4d-46f7-946f-724472697665,rev?*%
%TF.SameCoordinates,Original*%
%TF.FileFunction,Legend,Top*%
%TF.FilePolarity,Positive*%
%FSLAX46Y46*%
G04 Gerber Fmt 4.6, Leading zero omitted, Abs format (unit mm)*
G04 Created by KiCad (PCBNEW 9.0.9.1) date 2026-09-10 21:59:59*
%MOMM*%
%LPD*%
G01*
G04 APERTURE LIST*
%ADD10C,0.100000*%
%ADD11C,0.300000*%
%ADD12C,0.101600*%
%ADD13C,0.076200*%
%ADD14C,0.150000*%
%ADD15C,0.120000*%
%ADD16C,0.127000*%
%ADD17C,0.066040*%
%ADD18C,0.254000*%
%ADD19C,0.152400*%
G04 APERTURE END LIST*
D10*
X67000000Y-72000000D02*
X85800000Y-72000000D01*
X85800000Y-80600000D01*
X67000000Y-80600000D01*
X67000000Y-72000000D01*
X67000000Y-81100000D02*
X85900000Y-81100000D01*
X85900000Y-89700000D01*
X67000000Y-89700000D01*
X67000000Y-81100000D01*
X68237217Y-82118777D02*
X68380074Y-82166396D01*
X68380074Y-82166396D02*
X68427693Y-82214015D01*
X68427693Y-82214015D02*
X68475312Y-82309253D01*
X68475312Y-82309253D02*
X68475312Y-82452110D01*
X68475312Y-82452110D02*
X68427693Y-82547348D01*
X68427693Y-82547348D02*
X68380074Y-82594968D01*
X68380074Y-82594968D02*
X68284836Y-82642587D01*
X68284836Y-82642587D02*
X67903884Y-82642587D01*
X67903884Y-82642587D02*
X67903884Y-81642587D01*
X67903884Y-81642587D02*
X68237217Y-81642587D01*
X68237217Y-81642587D02*
X68332455Y-81690206D01*
X68332455Y-81690206D02*
X68380074Y-81737825D01*
X68380074Y-81737825D02*
X68427693Y-81833063D01*
X68427693Y-81833063D02*
X68427693Y-81928301D01*
X68427693Y-81928301D02*
X68380074Y-82023539D01*
X68380074Y-82023539D02*
X68332455Y-82071158D01*
X68332455Y-82071158D02*
X68237217Y-82118777D01*
X68237217Y-82118777D02*
X67903884Y-82118777D01*
X69046741Y-82642587D02*
X68951503Y-82594968D01*
X68951503Y-82594968D02*
X68903884Y-82547348D01*
X68903884Y-82547348D02*
X68856265Y-82452110D01*
X68856265Y-82452110D02*
X68856265Y-82166396D01*
X68856265Y-82166396D02*
X68903884Y-82071158D01*
X68903884Y-82071158D02*
X68951503Y-82023539D01*
X68951503Y-82023539D02*
X69046741Y-81975920D01*
X69046741Y-81975920D02*
X69189598Y-81975920D01*
X69189598Y-81975920D02*
X69284836Y-82023539D01*
X69284836Y-82023539D02*
X69332455Y-82071158D01*
X69332455Y-82071158D02*
X69380074Y-82166396D01*
X69380074Y-82166396D02*
X69380074Y-82452110D01*
X69380074Y-82452110D02*
X69332455Y-82547348D01*
X69332455Y-82547348D02*
X69284836Y-82594968D01*
X69284836Y-82594968D02*
X69189598Y-82642587D01*
X69189598Y-82642587D02*
X69046741Y-82642587D01*
X70237217Y-82642587D02*
X70237217Y-82118777D01*
X70237217Y-82118777D02*
X70189598Y-82023539D01*
X70189598Y-82023539D02*
X70094360Y-81975920D01*
X70094360Y-81975920D02*
X69903884Y-81975920D01*
X69903884Y-81975920D02*
X69808646Y-82023539D01*
X70237217Y-82594968D02*
X70141979Y-82642587D01*
X70141979Y-82642587D02*
X69903884Y-82642587D01*
X69903884Y-82642587D02*
X69808646Y-82594968D01*
X69808646Y-82594968D02*
X69761027Y-82499729D01*
X69761027Y-82499729D02*
X69761027Y-82404491D01*
X69761027Y-82404491D02*
X69808646Y-82309253D01*
X69808646Y-82309253D02*
X69903884Y-82261634D01*
X69903884Y-82261634D02*
X70141979Y-82261634D01*
X70141979Y-82261634D02*
X70237217Y-82214015D01*
X70713408Y-82642587D02*
X70713408Y-81975920D01*
X70713408Y-82166396D02*
X70761027Y-82071158D01*
X70761027Y-82071158D02*
X70808646Y-82023539D01*
X70808646Y-82023539D02*
X70903884Y-81975920D01*
X70903884Y-81975920D02*
X70999122Y-81975920D01*
X71761027Y-82642587D02*
X71761027Y-81642587D01*
X71761027Y-82594968D02*
X71665789Y-82642587D01*
X71665789Y-82642587D02*
X71475313Y-82642587D01*
X71475313Y-82642587D02*
X71380075Y-82594968D01*
X71380075Y-82594968D02*
X71332456Y-82547348D01*
X71332456Y-82547348D02*
X71284837Y-82452110D01*
X71284837Y-82452110D02*
X71284837Y-82166396D01*
X71284837Y-82166396D02*
X71332456Y-82071158D01*
X71332456Y-82071158D02*
X71380075Y-82023539D01*
X71380075Y-82023539D02*
X71475313Y-81975920D01*
X71475313Y-81975920D02*
X71665789Y-81975920D01*
X71665789Y-81975920D02*
X71761027Y-82023539D01*
X72951504Y-82594968D02*
X73094361Y-82642587D01*
X73094361Y-82642587D02*
X73332456Y-82642587D01*
X73332456Y-82642587D02*
X73427694Y-82594968D01*
X73427694Y-82594968D02*
X73475313Y-82547348D01*
X73475313Y-82547348D02*
X73522932Y-82452110D01*
X73522932Y-82452110D02*
X73522932Y-82356872D01*
X73522932Y-82356872D02*
X73475313Y-82261634D01*
X73475313Y-82261634D02*
X73427694Y-82214015D01*
X73427694Y-82214015D02*
X73332456Y-82166396D01*
X73332456Y-82166396D02*
X73141980Y-82118777D01*
X73141980Y-82118777D02*
X73046742Y-82071158D01*
X73046742Y-82071158D02*
X72999123Y-82023539D01*
X72999123Y-82023539D02*
X72951504Y-81928301D01*
X72951504Y-81928301D02*
X72951504Y-81833063D01*
X72951504Y-81833063D02*
X72999123Y-81737825D01*
X72999123Y-81737825D02*
X73046742Y-81690206D01*
X73046742Y-81690206D02*
X73141980Y-81642587D01*
X73141980Y-81642587D02*
X73380075Y-81642587D01*
X73380075Y-81642587D02*
X73522932Y-81690206D01*
X73951504Y-82642587D02*
X73951504Y-81975920D01*
X73951504Y-81642587D02*
X73903885Y-81690206D01*
X73903885Y-81690206D02*
X73951504Y-81737825D01*
X73951504Y-81737825D02*
X73999123Y-81690206D01*
X73999123Y-81690206D02*
X73951504Y-81642587D01*
X73951504Y-81642587D02*
X73951504Y-81737825D01*
X74332456Y-81975920D02*
X74856265Y-81975920D01*
X74856265Y-81975920D02*
X74332456Y-82642587D01*
X74332456Y-82642587D02*
X74856265Y-82642587D01*
X75618170Y-82594968D02*
X75522932Y-82642587D01*
X75522932Y-82642587D02*
X75332456Y-82642587D01*
X75332456Y-82642587D02*
X75237218Y-82594968D01*
X75237218Y-82594968D02*
X75189599Y-82499729D01*
X75189599Y-82499729D02*
X75189599Y-82118777D01*
X75189599Y-82118777D02*
X75237218Y-82023539D01*
X75237218Y-82023539D02*
X75332456Y-81975920D01*
X75332456Y-81975920D02*
X75522932Y-81975920D01*
X75522932Y-81975920D02*
X75618170Y-82023539D01*
X75618170Y-82023539D02*
X75665789Y-82118777D01*
X75665789Y-82118777D02*
X75665789Y-82214015D01*
X75665789Y-82214015D02*
X75189599Y-82309253D01*
X67951503Y-84252531D02*
X68141979Y-84252531D01*
X68141979Y-84252531D02*
X68237217Y-84204912D01*
X68237217Y-84204912D02*
X68284836Y-84157292D01*
X68284836Y-84157292D02*
X68380074Y-84014435D01*
X68380074Y-84014435D02*
X68427693Y-83823959D01*
X68427693Y-83823959D02*
X68427693Y-83443007D01*
X68427693Y-83443007D02*
X68380074Y-83347769D01*
X68380074Y-83347769D02*
X68332455Y-83300150D01*
X68332455Y-83300150D02*
X68237217Y-83252531D01*
X68237217Y-83252531D02*
X68046741Y-83252531D01*
X68046741Y-83252531D02*
X67951503Y-83300150D01*
X67951503Y-83300150D02*
X67903884Y-83347769D01*
X67903884Y-83347769D02*
X67856265Y-83443007D01*
X67856265Y-83443007D02*
X67856265Y-83681102D01*
X67856265Y-83681102D02*
X67903884Y-83776340D01*
X67903884Y-83776340D02*
X67951503Y-83823959D01*
X67951503Y-83823959D02*
X68046741Y-83871578D01*
X68046741Y-83871578D02*
X68237217Y-83871578D01*
X68237217Y-83871578D02*
X68332455Y-83823959D01*
X68332455Y-83823959D02*
X68380074Y-83776340D01*
X68380074Y-83776340D02*
X68427693Y-83681102D01*
X69046741Y-83252531D02*
X69141979Y-83252531D01*
X69141979Y-83252531D02*
X69237217Y-83300150D01*
X69237217Y-83300150D02*
X69284836Y-83347769D01*
X69284836Y-83347769D02*
X69332455Y-83443007D01*
X69332455Y-83443007D02*
X69380074Y-83633483D01*
X69380074Y-83633483D02*
X69380074Y-83871578D01*
X69380074Y-83871578D02*
X69332455Y-84062054D01*
X69332455Y-84062054D02*
X69284836Y-84157292D01*
X69284836Y-84157292D02*
X69237217Y-84204912D01*
X69237217Y-84204912D02*
X69141979Y-84252531D01*
X69141979Y-84252531D02*
X69046741Y-84252531D01*
X69046741Y-84252531D02*
X68951503Y-84204912D01*
X68951503Y-84204912D02*
X68903884Y-84157292D01*
X68903884Y-84157292D02*
X68856265Y-84062054D01*
X68856265Y-84062054D02*
X68808646Y-83871578D01*
X68808646Y-83871578D02*
X68808646Y-83633483D01*
X68808646Y-83633483D02*
X68856265Y-83443007D01*
X68856265Y-83443007D02*
X68903884Y-83347769D01*
X68903884Y-83347769D02*
X68951503Y-83300150D01*
X68951503Y-83300150D02*
X69046741Y-83252531D01*
X70475313Y-84252531D02*
X70999122Y-83585864D01*
X70475313Y-83585864D02*
X70999122Y-84252531D01*
X72046742Y-83252531D02*
X72713408Y-83252531D01*
X72713408Y-83252531D02*
X72284837Y-84252531D01*
X73284837Y-83252531D02*
X73380075Y-83252531D01*
X73380075Y-83252531D02*
X73475313Y-83300150D01*
X73475313Y-83300150D02*
X73522932Y-83347769D01*
X73522932Y-83347769D02*
X73570551Y-83443007D01*
X73570551Y-83443007D02*
X73618170Y-83633483D01*
X73618170Y-83633483D02*
X73618170Y-83871578D01*
X73618170Y-83871578D02*
X73570551Y-84062054D01*
X73570551Y-84062054D02*
X73522932Y-84157292D01*
X73522932Y-84157292D02*
X73475313Y-84204912D01*
X73475313Y-84204912D02*
X73380075Y-84252531D01*
X73380075Y-84252531D02*
X73284837Y-84252531D01*
X73284837Y-84252531D02*
X73189599Y-84204912D01*
X73189599Y-84204912D02*
X73141980Y-84157292D01*
X73141980Y-84157292D02*
X73094361Y-84062054D01*
X73094361Y-84062054D02*
X73046742Y-83871578D01*
X73046742Y-83871578D02*
X73046742Y-83633483D01*
X73046742Y-83633483D02*
X73094361Y-83443007D01*
X73094361Y-83443007D02*
X73141980Y-83347769D01*
X73141980Y-83347769D02*
X73189599Y-83300150D01*
X73189599Y-83300150D02*
X73284837Y-83252531D01*
X67903884Y-85862475D02*
X67903884Y-84862475D01*
X67903884Y-84862475D02*
X68141979Y-84862475D01*
X68141979Y-84862475D02*
X68284836Y-84910094D01*
X68284836Y-84910094D02*
X68380074Y-85005332D01*
X68380074Y-85005332D02*
X68427693Y-85100570D01*
X68427693Y-85100570D02*
X68475312Y-85291046D01*
X68475312Y-85291046D02*
X68475312Y-85433903D01*
X68475312Y-85433903D02*
X68427693Y-85624379D01*
X68427693Y-85624379D02*
X68380074Y-85719617D01*
X68380074Y-85719617D02*
X68284836Y-85814856D01*
X68284836Y-85814856D02*
X68141979Y-85862475D01*
X68141979Y-85862475D02*
X67903884Y-85862475D01*
X68903884Y-85862475D02*
X68903884Y-85195808D01*
X68903884Y-84862475D02*
X68856265Y-84910094D01*
X68856265Y-84910094D02*
X68903884Y-84957713D01*
X68903884Y-84957713D02*
X68951503Y-84910094D01*
X68951503Y-84910094D02*
X68903884Y-84862475D01*
X68903884Y-84862475D02*
X68903884Y-84957713D01*
X69332455Y-85814856D02*
X69427693Y-85862475D01*
X69427693Y-85862475D02*
X69618169Y-85862475D01*
X69618169Y-85862475D02*
X69713407Y-85814856D01*
X69713407Y-85814856D02*
X69761026Y-85719617D01*
X69761026Y-85719617D02*
X69761026Y-85671998D01*
X69761026Y-85671998D02*
X69713407Y-85576760D01*
X69713407Y-85576760D02*
X69618169Y-85529141D01*
X69618169Y-85529141D02*
X69475312Y-85529141D01*
X69475312Y-85529141D02*
X69380074Y-85481522D01*
X69380074Y-85481522D02*
X69332455Y-85386284D01*
X69332455Y-85386284D02*
X69332455Y-85338665D01*
X69332455Y-85338665D02*
X69380074Y-85243427D01*
X69380074Y-85243427D02*
X69475312Y-85195808D01*
X69475312Y-85195808D02*
X69618169Y-85195808D01*
X69618169Y-85195808D02*
X69713407Y-85243427D01*
X70046741Y-85195808D02*
X70427693Y-85195808D01*
X70189598Y-84862475D02*
X70189598Y-85719617D01*
X70189598Y-85719617D02*
X70237217Y-85814856D01*
X70237217Y-85814856D02*
X70332455Y-85862475D01*
X70332455Y-85862475D02*
X70427693Y-85862475D01*
X71189598Y-85862475D02*
X71189598Y-85338665D01*
X71189598Y-85338665D02*
X71141979Y-85243427D01*
X71141979Y-85243427D02*
X71046741Y-85195808D01*
X71046741Y-85195808D02*
X70856265Y-85195808D01*
X70856265Y-85195808D02*
X70761027Y-85243427D01*
X71189598Y-85814856D02*
X71094360Y-85862475D01*
X71094360Y-85862475D02*
X70856265Y-85862475D01*
X70856265Y-85862475D02*
X70761027Y-85814856D01*
X70761027Y-85814856D02*
X70713408Y-85719617D01*
X70713408Y-85719617D02*
X70713408Y-85624379D01*
X70713408Y-85624379D02*
X70761027Y-85529141D01*
X70761027Y-85529141D02*
X70856265Y-85481522D01*
X70856265Y-85481522D02*
X71094360Y-85481522D01*
X71094360Y-85481522D02*
X71189598Y-85433903D01*
X71665789Y-85195808D02*
X71665789Y-85862475D01*
X71665789Y-85291046D02*
X71713408Y-85243427D01*
X71713408Y-85243427D02*
X71808646Y-85195808D01*
X71808646Y-85195808D02*
X71951503Y-85195808D01*
X71951503Y-85195808D02*
X72046741Y-85243427D01*
X72046741Y-85243427D02*
X72094360Y-85338665D01*
X72094360Y-85338665D02*
X72094360Y-85862475D01*
X72999122Y-85814856D02*
X72903884Y-85862475D01*
X72903884Y-85862475D02*
X72713408Y-85862475D01*
X72713408Y-85862475D02*
X72618170Y-85814856D01*
X72618170Y-85814856D02*
X72570551Y-85767236D01*
X72570551Y-85767236D02*
X72522932Y-85671998D01*
X72522932Y-85671998D02*
X72522932Y-85386284D01*
X72522932Y-85386284D02*
X72570551Y-85291046D01*
X72570551Y-85291046D02*
X72618170Y-85243427D01*
X72618170Y-85243427D02*
X72713408Y-85195808D01*
X72713408Y-85195808D02*
X72903884Y-85195808D01*
X72903884Y-85195808D02*
X72999122Y-85243427D01*
X73808646Y-85814856D02*
X73713408Y-85862475D01*
X73713408Y-85862475D02*
X73522932Y-85862475D01*
X73522932Y-85862475D02*
X73427694Y-85814856D01*
X73427694Y-85814856D02*
X73380075Y-85719617D01*
X73380075Y-85719617D02*
X73380075Y-85338665D01*
X73380075Y-85338665D02*
X73427694Y-85243427D01*
X73427694Y-85243427D02*
X73522932Y-85195808D01*
X73522932Y-85195808D02*
X73713408Y-85195808D01*
X73713408Y-85195808D02*
X73808646Y-85243427D01*
X73808646Y-85243427D02*
X73856265Y-85338665D01*
X73856265Y-85338665D02*
X73856265Y-85433903D01*
X73856265Y-85433903D02*
X73380075Y-85529141D01*
X75380075Y-85338665D02*
X75522932Y-85386284D01*
X75522932Y-85386284D02*
X75570551Y-85433903D01*
X75570551Y-85433903D02*
X75618170Y-85529141D01*
X75618170Y-85529141D02*
X75618170Y-85671998D01*
X75618170Y-85671998D02*
X75570551Y-85767236D01*
X75570551Y-85767236D02*
X75522932Y-85814856D01*
X75522932Y-85814856D02*
X75427694Y-85862475D01*
X75427694Y-85862475D02*
X75046742Y-85862475D01*
X75046742Y-85862475D02*
X75046742Y-84862475D01*
X75046742Y-84862475D02*
X75380075Y-84862475D01*
X75380075Y-84862475D02*
X75475313Y-84910094D01*
X75475313Y-84910094D02*
X75522932Y-84957713D01*
X75522932Y-84957713D02*
X75570551Y-85052951D01*
X75570551Y-85052951D02*
X75570551Y-85148189D01*
X75570551Y-85148189D02*
X75522932Y-85243427D01*
X75522932Y-85243427D02*
X75475313Y-85291046D01*
X75475313Y-85291046D02*
X75380075Y-85338665D01*
X75380075Y-85338665D02*
X75046742Y-85338665D01*
X76427694Y-85814856D02*
X76332456Y-85862475D01*
X76332456Y-85862475D02*
X76141980Y-85862475D01*
X76141980Y-85862475D02*
X76046742Y-85814856D01*
X76046742Y-85814856D02*
X75999123Y-85719617D01*
X75999123Y-85719617D02*
X75999123Y-85338665D01*
X75999123Y-85338665D02*
X76046742Y-85243427D01*
X76046742Y-85243427D02*
X76141980Y-85195808D01*
X76141980Y-85195808D02*
X76332456Y-85195808D01*
X76332456Y-85195808D02*
X76427694Y-85243427D01*
X76427694Y-85243427D02*
X76475313Y-85338665D01*
X76475313Y-85338665D02*
X76475313Y-85433903D01*
X76475313Y-85433903D02*
X75999123Y-85529141D01*
X76761028Y-85195808D02*
X77141980Y-85195808D01*
X76903885Y-84862475D02*
X76903885Y-85719617D01*
X76903885Y-85719617D02*
X76951504Y-85814856D01*
X76951504Y-85814856D02*
X77046742Y-85862475D01*
X77046742Y-85862475D02*
X77141980Y-85862475D01*
X77380076Y-85195808D02*
X77570552Y-85862475D01*
X77570552Y-85862475D02*
X77761028Y-85386284D01*
X77761028Y-85386284D02*
X77951504Y-85862475D01*
X77951504Y-85862475D02*
X78141980Y-85195808D01*
X78903885Y-85814856D02*
X78808647Y-85862475D01*
X78808647Y-85862475D02*
X78618171Y-85862475D01*
X78618171Y-85862475D02*
X78522933Y-85814856D01*
X78522933Y-85814856D02*
X78475314Y-85719617D01*
X78475314Y-85719617D02*
X78475314Y-85338665D01*
X78475314Y-85338665D02*
X78522933Y-85243427D01*
X78522933Y-85243427D02*
X78618171Y-85195808D01*
X78618171Y-85195808D02*
X78808647Y-85195808D01*
X78808647Y-85195808D02*
X78903885Y-85243427D01*
X78903885Y-85243427D02*
X78951504Y-85338665D01*
X78951504Y-85338665D02*
X78951504Y-85433903D01*
X78951504Y-85433903D02*
X78475314Y-85529141D01*
X79761028Y-85814856D02*
X79665790Y-85862475D01*
X79665790Y-85862475D02*
X79475314Y-85862475D01*
X79475314Y-85862475D02*
X79380076Y-85814856D01*
X79380076Y-85814856D02*
X79332457Y-85719617D01*
X79332457Y-85719617D02*
X79332457Y-85338665D01*
X79332457Y-85338665D02*
X79380076Y-85243427D01*
X79380076Y-85243427D02*
X79475314Y-85195808D01*
X79475314Y-85195808D02*
X79665790Y-85195808D01*
X79665790Y-85195808D02*
X79761028Y-85243427D01*
X79761028Y-85243427D02*
X79808647Y-85338665D01*
X79808647Y-85338665D02*
X79808647Y-85433903D01*
X79808647Y-85433903D02*
X79332457Y-85529141D01*
X80237219Y-85195808D02*
X80237219Y-85862475D01*
X80237219Y-85291046D02*
X80284838Y-85243427D01*
X80284838Y-85243427D02*
X80380076Y-85195808D01*
X80380076Y-85195808D02*
X80522933Y-85195808D01*
X80522933Y-85195808D02*
X80618171Y-85243427D01*
X80618171Y-85243427D02*
X80665790Y-85338665D01*
X80665790Y-85338665D02*
X80665790Y-85862475D01*
X81903886Y-85862475D02*
X81903886Y-84862475D01*
X82332457Y-85862475D02*
X82332457Y-85338665D01*
X82332457Y-85338665D02*
X82284838Y-85243427D01*
X82284838Y-85243427D02*
X82189600Y-85195808D01*
X82189600Y-85195808D02*
X82046743Y-85195808D01*
X82046743Y-85195808D02*
X81951505Y-85243427D01*
X81951505Y-85243427D02*
X81903886Y-85291046D01*
X82951505Y-85862475D02*
X82856267Y-85814856D01*
X82856267Y-85814856D02*
X82808648Y-85767236D01*
X82808648Y-85767236D02*
X82761029Y-85671998D01*
X82761029Y-85671998D02*
X82761029Y-85386284D01*
X82761029Y-85386284D02*
X82808648Y-85291046D01*
X82808648Y-85291046D02*
X82856267Y-85243427D01*
X82856267Y-85243427D02*
X82951505Y-85195808D01*
X82951505Y-85195808D02*
X83094362Y-85195808D01*
X83094362Y-85195808D02*
X83189600Y-85243427D01*
X83189600Y-85243427D02*
X83237219Y-85291046D01*
X83237219Y-85291046D02*
X83284838Y-85386284D01*
X83284838Y-85386284D02*
X83284838Y-85671998D01*
X83284838Y-85671998D02*
X83237219Y-85767236D01*
X83237219Y-85767236D02*
X83189600Y-85814856D01*
X83189600Y-85814856D02*
X83094362Y-85862475D01*
X83094362Y-85862475D02*
X82951505Y-85862475D01*
X83856267Y-85862475D02*
X83761029Y-85814856D01*
X83761029Y-85814856D02*
X83713410Y-85719617D01*
X83713410Y-85719617D02*
X83713410Y-84862475D01*
X84618172Y-85814856D02*
X84522934Y-85862475D01*
X84522934Y-85862475D02*
X84332458Y-85862475D01*
X84332458Y-85862475D02*
X84237220Y-85814856D01*
X84237220Y-85814856D02*
X84189601Y-85719617D01*
X84189601Y-85719617D02*
X84189601Y-85338665D01*
X84189601Y-85338665D02*
X84237220Y-85243427D01*
X84237220Y-85243427D02*
X84332458Y-85195808D01*
X84332458Y-85195808D02*
X84522934Y-85195808D01*
X84522934Y-85195808D02*
X84618172Y-85243427D01*
X84618172Y-85243427D02*
X84665791Y-85338665D01*
X84665791Y-85338665D02*
X84665791Y-85433903D01*
X84665791Y-85433903D02*
X84189601Y-85529141D01*
X85046744Y-85814856D02*
X85141982Y-85862475D01*
X85141982Y-85862475D02*
X85332458Y-85862475D01*
X85332458Y-85862475D02*
X85427696Y-85814856D01*
X85427696Y-85814856D02*
X85475315Y-85719617D01*
X85475315Y-85719617D02*
X85475315Y-85671998D01*
X85475315Y-85671998D02*
X85427696Y-85576760D01*
X85427696Y-85576760D02*
X85332458Y-85529141D01*
X85332458Y-85529141D02*
X85189601Y-85529141D01*
X85189601Y-85529141D02*
X85094363Y-85481522D01*
X85094363Y-85481522D02*
X85046744Y-85386284D01*
X85046744Y-85386284D02*
X85046744Y-85338665D01*
X85046744Y-85338665D02*
X85094363Y-85243427D01*
X85094363Y-85243427D02*
X85189601Y-85195808D01*
X85189601Y-85195808D02*
X85332458Y-85195808D01*
X85332458Y-85195808D02*
X85427696Y-85243427D01*
X68046741Y-86900990D02*
X67951503Y-86853371D01*
X67951503Y-86853371D02*
X67903884Y-86805752D01*
X67903884Y-86805752D02*
X67856265Y-86710514D01*
X67856265Y-86710514D02*
X67856265Y-86662895D01*
X67856265Y-86662895D02*
X67903884Y-86567657D01*
X67903884Y-86567657D02*
X67951503Y-86520038D01*
X67951503Y-86520038D02*
X68046741Y-86472419D01*
X68046741Y-86472419D02*
X68237217Y-86472419D01*
X68237217Y-86472419D02*
X68332455Y-86520038D01*
X68332455Y-86520038D02*
X68380074Y-86567657D01*
X68380074Y-86567657D02*
X68427693Y-86662895D01*
X68427693Y-86662895D02*
X68427693Y-86710514D01*
X68427693Y-86710514D02*
X68380074Y-86805752D01*
X68380074Y-86805752D02*
X68332455Y-86853371D01*
X68332455Y-86853371D02*
X68237217Y-86900990D01*
X68237217Y-86900990D02*
X68046741Y-86900990D01*
X68046741Y-86900990D02*
X67951503Y-86948609D01*
X67951503Y-86948609D02*
X67903884Y-86996228D01*
X67903884Y-86996228D02*
X67856265Y-87091466D01*
X67856265Y-87091466D02*
X67856265Y-87281942D01*
X67856265Y-87281942D02*
X67903884Y-87377180D01*
X67903884Y-87377180D02*
X67951503Y-87424800D01*
X67951503Y-87424800D02*
X68046741Y-87472419D01*
X68046741Y-87472419D02*
X68237217Y-87472419D01*
X68237217Y-87472419D02*
X68332455Y-87424800D01*
X68332455Y-87424800D02*
X68380074Y-87377180D01*
X68380074Y-87377180D02*
X68427693Y-87281942D01*
X68427693Y-87281942D02*
X68427693Y-87091466D01*
X68427693Y-87091466D02*
X68380074Y-86996228D01*
X68380074Y-86996228D02*
X68332455Y-86948609D01*
X68332455Y-86948609D02*
X68237217Y-86900990D01*
X69046741Y-86472419D02*
X69141979Y-86472419D01*
X69141979Y-86472419D02*
X69237217Y-86520038D01*
X69237217Y-86520038D02*
X69284836Y-86567657D01*
X69284836Y-86567657D02*
X69332455Y-86662895D01*
X69332455Y-86662895D02*
X69380074Y-86853371D01*
X69380074Y-86853371D02*
X69380074Y-87091466D01*
X69380074Y-87091466D02*
X69332455Y-87281942D01*
X69332455Y-87281942D02*
X69284836Y-87377180D01*
X69284836Y-87377180D02*
X69237217Y-87424800D01*
X69237217Y-87424800D02*
X69141979Y-87472419D01*
X69141979Y-87472419D02*
X69046741Y-87472419D01*
X69046741Y-87472419D02*
X68951503Y-87424800D01*
X68951503Y-87424800D02*
X68903884Y-87377180D01*
X68903884Y-87377180D02*
X68856265Y-87281942D01*
X68856265Y-87281942D02*
X68808646Y-87091466D01*
X68808646Y-87091466D02*
X68808646Y-86853371D01*
X68808646Y-86853371D02*
X68856265Y-86662895D01*
X68856265Y-86662895D02*
X68903884Y-86567657D01*
X68903884Y-86567657D02*
X68951503Y-86520038D01*
X68951503Y-86520038D02*
X69046741Y-86472419D01*
X70475313Y-87472419D02*
X70999122Y-86805752D01*
X70475313Y-86805752D02*
X70999122Y-87472419D01*
X72570551Y-86472419D02*
X72380075Y-86472419D01*
X72380075Y-86472419D02*
X72284837Y-86520038D01*
X72284837Y-86520038D02*
X72237218Y-86567657D01*
X72237218Y-86567657D02*
X72141980Y-86710514D01*
X72141980Y-86710514D02*
X72094361Y-86900990D01*
X72094361Y-86900990D02*
X72094361Y-87281942D01*
X72094361Y-87281942D02*
X72141980Y-87377180D01*
X72141980Y-87377180D02*
X72189599Y-87424800D01*
X72189599Y-87424800D02*
X72284837Y-87472419D01*
X72284837Y-87472419D02*
X72475313Y-87472419D01*
X72475313Y-87472419D02*
X72570551Y-87424800D01*
X72570551Y-87424800D02*
X72618170Y-87377180D01*
X72618170Y-87377180D02*
X72665789Y-87281942D01*
X72665789Y-87281942D02*
X72665789Y-87043847D01*
X72665789Y-87043847D02*
X72618170Y-86948609D01*
X72618170Y-86948609D02*
X72570551Y-86900990D01*
X72570551Y-86900990D02*
X72475313Y-86853371D01*
X72475313Y-86853371D02*
X72284837Y-86853371D01*
X72284837Y-86853371D02*
X72189599Y-86900990D01*
X72189599Y-86900990D02*
X72141980Y-86948609D01*
X72141980Y-86948609D02*
X72094361Y-87043847D01*
X73284837Y-86472419D02*
X73380075Y-86472419D01*
X73380075Y-86472419D02*
X73475313Y-86520038D01*
X73475313Y-86520038D02*
X73522932Y-86567657D01*
X73522932Y-86567657D02*
X73570551Y-86662895D01*
X73570551Y-86662895D02*
X73618170Y-86853371D01*
X73618170Y-86853371D02*
X73618170Y-87091466D01*
X73618170Y-87091466D02*
X73570551Y-87281942D01*
X73570551Y-87281942D02*
X73522932Y-87377180D01*
X73522932Y-87377180D02*
X73475313Y-87424800D01*
X73475313Y-87424800D02*
X73380075Y-87472419D01*
X73380075Y-87472419D02*
X73284837Y-87472419D01*
X73284837Y-87472419D02*
X73189599Y-87424800D01*
X73189599Y-87424800D02*
X73141980Y-87377180D01*
X73141980Y-87377180D02*
X73094361Y-87281942D01*
X73094361Y-87281942D02*
X73046742Y-87091466D01*
X73046742Y-87091466D02*
X73046742Y-86853371D01*
X73046742Y-86853371D02*
X73094361Y-86662895D01*
X73094361Y-86662895D02*
X73141980Y-86567657D01*
X73141980Y-86567657D02*
X73189599Y-86520038D01*
X73189599Y-86520038D02*
X73284837Y-86472419D01*
X68303884Y-73108833D02*
X68637217Y-73108833D01*
X68780074Y-73632643D02*
X68303884Y-73632643D01*
X68303884Y-73632643D02*
X68303884Y-72632643D01*
X68303884Y-72632643D02*
X68780074Y-72632643D01*
X69208646Y-72965976D02*
X69208646Y-73632643D01*
X69208646Y-73061214D02*
X69256265Y-73013595D01*
X69256265Y-73013595D02*
X69351503Y-72965976D01*
X69351503Y-72965976D02*
X69494360Y-72965976D01*
X69494360Y-72965976D02*
X69589598Y-73013595D01*
X69589598Y-73013595D02*
X69637217Y-73108833D01*
X69637217Y-73108833D02*
X69637217Y-73632643D01*
X70541979Y-73585024D02*
X70446741Y-73632643D01*
X70446741Y-73632643D02*
X70256265Y-73632643D01*
X70256265Y-73632643D02*
X70161027Y-73585024D01*
X70161027Y-73585024D02*
X70113408Y-73537404D01*
X70113408Y-73537404D02*
X70065789Y-73442166D01*
X70065789Y-73442166D02*
X70065789Y-73156452D01*
X70065789Y-73156452D02*
X70113408Y-73061214D01*
X70113408Y-73061214D02*
X70161027Y-73013595D01*
X70161027Y-73013595D02*
X70256265Y-72965976D01*
X70256265Y-72965976D02*
X70446741Y-72965976D01*
X70446741Y-72965976D02*
X70541979Y-73013595D01*
X71113408Y-73632643D02*
X71018170Y-73585024D01*
X71018170Y-73585024D02*
X70970551Y-73537404D01*
X70970551Y-73537404D02*
X70922932Y-73442166D01*
X70922932Y-73442166D02*
X70922932Y-73156452D01*
X70922932Y-73156452D02*
X70970551Y-73061214D01*
X70970551Y-73061214D02*
X71018170Y-73013595D01*
X71018170Y-73013595D02*
X71113408Y-72965976D01*
X71113408Y-72965976D02*
X71256265Y-72965976D01*
X71256265Y-72965976D02*
X71351503Y-73013595D01*
X71351503Y-73013595D02*
X71399122Y-73061214D01*
X71399122Y-73061214D02*
X71446741Y-73156452D01*
X71446741Y-73156452D02*
X71446741Y-73442166D01*
X71446741Y-73442166D02*
X71399122Y-73537404D01*
X71399122Y-73537404D02*
X71351503Y-73585024D01*
X71351503Y-73585024D02*
X71256265Y-73632643D01*
X71256265Y-73632643D02*
X71113408Y-73632643D01*
X72303884Y-73632643D02*
X72303884Y-72632643D01*
X72303884Y-73585024D02*
X72208646Y-73632643D01*
X72208646Y-73632643D02*
X72018170Y-73632643D01*
X72018170Y-73632643D02*
X71922932Y-73585024D01*
X71922932Y-73585024D02*
X71875313Y-73537404D01*
X71875313Y-73537404D02*
X71827694Y-73442166D01*
X71827694Y-73442166D02*
X71827694Y-73156452D01*
X71827694Y-73156452D02*
X71875313Y-73061214D01*
X71875313Y-73061214D02*
X71922932Y-73013595D01*
X71922932Y-73013595D02*
X72018170Y-72965976D01*
X72018170Y-72965976D02*
X72208646Y-72965976D01*
X72208646Y-72965976D02*
X72303884Y-73013595D01*
X73161027Y-73585024D02*
X73065789Y-73632643D01*
X73065789Y-73632643D02*
X72875313Y-73632643D01*
X72875313Y-73632643D02*
X72780075Y-73585024D01*
X72780075Y-73585024D02*
X72732456Y-73489785D01*
X72732456Y-73489785D02*
X72732456Y-73108833D01*
X72732456Y-73108833D02*
X72780075Y-73013595D01*
X72780075Y-73013595D02*
X72875313Y-72965976D01*
X72875313Y-72965976D02*
X73065789Y-72965976D01*
X73065789Y-72965976D02*
X73161027Y-73013595D01*
X73161027Y-73013595D02*
X73208646Y-73108833D01*
X73208646Y-73108833D02*
X73208646Y-73204071D01*
X73208646Y-73204071D02*
X72732456Y-73299309D01*
X73637218Y-73632643D02*
X73637218Y-72965976D01*
X73637218Y-73156452D02*
X73684837Y-73061214D01*
X73684837Y-73061214D02*
X73732456Y-73013595D01*
X73732456Y-73013595D02*
X73827694Y-72965976D01*
X73827694Y-72965976D02*
X73922932Y-72965976D01*
X75018171Y-73632643D02*
X75018171Y-72632643D01*
X75018171Y-72632643D02*
X75399123Y-72632643D01*
X75399123Y-72632643D02*
X75494361Y-72680262D01*
X75494361Y-72680262D02*
X75541980Y-72727881D01*
X75541980Y-72727881D02*
X75589599Y-72823119D01*
X75589599Y-72823119D02*
X75589599Y-72965976D01*
X75589599Y-72965976D02*
X75541980Y-73061214D01*
X75541980Y-73061214D02*
X75494361Y-73108833D01*
X75494361Y-73108833D02*
X75399123Y-73156452D01*
X75399123Y-73156452D02*
X75018171Y-73156452D01*
X76018171Y-73632643D02*
X76018171Y-72632643D01*
X76494361Y-73632643D02*
X76494361Y-72632643D01*
X76494361Y-72632643D02*
X77065789Y-73632643D01*
X77065789Y-73632643D02*
X77065789Y-72632643D01*
X68256265Y-74956872D02*
X68732455Y-74956872D01*
X68161027Y-75242587D02*
X68494360Y-74242587D01*
X68494360Y-74242587D02*
X68827693Y-75242587D01*
X68637217Y-76328721D02*
X68780074Y-76376340D01*
X68780074Y-76376340D02*
X68827693Y-76423959D01*
X68827693Y-76423959D02*
X68875312Y-76519197D01*
X68875312Y-76519197D02*
X68875312Y-76662054D01*
X68875312Y-76662054D02*
X68827693Y-76757292D01*
X68827693Y-76757292D02*
X68780074Y-76804912D01*
X68780074Y-76804912D02*
X68684836Y-76852531D01*
X68684836Y-76852531D02*
X68303884Y-76852531D01*
X68303884Y-76852531D02*
X68303884Y-75852531D01*
X68303884Y-75852531D02*
X68637217Y-75852531D01*
X68637217Y-75852531D02*
X68732455Y-75900150D01*
X68732455Y-75900150D02*
X68780074Y-75947769D01*
X68780074Y-75947769D02*
X68827693Y-76043007D01*
X68827693Y-76043007D02*
X68827693Y-76138245D01*
X68827693Y-76138245D02*
X68780074Y-76233483D01*
X68780074Y-76233483D02*
X68732455Y-76281102D01*
X68732455Y-76281102D02*
X68637217Y-76328721D01*
X68637217Y-76328721D02*
X68303884Y-76328721D01*
X68161027Y-77462475D02*
X68494360Y-78462475D01*
X68494360Y-78462475D02*
X68827693Y-77462475D01*
X69161027Y-78462475D02*
X69161027Y-77462475D01*
X69161027Y-77462475D02*
X69399122Y-77462475D01*
X69399122Y-77462475D02*
X69541979Y-77510094D01*
X69541979Y-77510094D02*
X69637217Y-77605332D01*
X69637217Y-77605332D02*
X69684836Y-77700570D01*
X69684836Y-77700570D02*
X69732455Y-77891046D01*
X69732455Y-77891046D02*
X69732455Y-78033903D01*
X69732455Y-78033903D02*
X69684836Y-78224379D01*
X69684836Y-78224379D02*
X69637217Y-78319617D01*
X69637217Y-78319617D02*
X69541979Y-78414856D01*
X69541979Y-78414856D02*
X69399122Y-78462475D01*
X69399122Y-78462475D02*
X69161027Y-78462475D01*
X70161027Y-78462475D02*
X70161027Y-77462475D01*
X70161027Y-77462475D02*
X70399122Y-77462475D01*
X70399122Y-77462475D02*
X70541979Y-77510094D01*
X70541979Y-77510094D02*
X70637217Y-77605332D01*
X70637217Y-77605332D02*
X70684836Y-77700570D01*
X70684836Y-77700570D02*
X70732455Y-77891046D01*
X70732455Y-77891046D02*
X70732455Y-78033903D01*
X70732455Y-78033903D02*
X70684836Y-78224379D01*
X70684836Y-78224379D02*
X70637217Y-78319617D01*
X70637217Y-78319617D02*
X70541979Y-78414856D01*
X70541979Y-78414856D02*
X70399122Y-78462475D01*
X70399122Y-78462475D02*
X70161027Y-78462475D01*
X68827693Y-79120038D02*
X68732455Y-79072419D01*
X68732455Y-79072419D02*
X68589598Y-79072419D01*
X68589598Y-79072419D02*
X68446741Y-79120038D01*
X68446741Y-79120038D02*
X68351503Y-79215276D01*
X68351503Y-79215276D02*
X68303884Y-79310514D01*
X68303884Y-79310514D02*
X68256265Y-79500990D01*
X68256265Y-79500990D02*
X68256265Y-79643847D01*
X68256265Y-79643847D02*
X68303884Y-79834323D01*
X68303884Y-79834323D02*
X68351503Y-79929561D01*
X68351503Y-79929561D02*
X68446741Y-80024800D01*
X68446741Y-80024800D02*
X68589598Y-80072419D01*
X68589598Y-80072419D02*
X68684836Y-80072419D01*
X68684836Y-80072419D02*
X68827693Y-80024800D01*
X68827693Y-80024800D02*
X68875312Y-79977180D01*
X68875312Y-79977180D02*
X68875312Y-79643847D01*
X68875312Y-79643847D02*
X68684836Y-79643847D01*
X69303884Y-80072419D02*
X69303884Y-79072419D01*
X69303884Y-79072419D02*
X69875312Y-80072419D01*
X69875312Y-80072419D02*
X69875312Y-79072419D01*
X70351503Y-80072419D02*
X70351503Y-79072419D01*
X70351503Y-79072419D02*
X70589598Y-79072419D01*
X70589598Y-79072419D02*
X70732455Y-79120038D01*
X70732455Y-79120038D02*
X70827693Y-79215276D01*
X70827693Y-79215276D02*
X70875312Y-79310514D01*
X70875312Y-79310514D02*
X70922931Y-79500990D01*
X70922931Y-79500990D02*
X70922931Y-79643847D01*
X70922931Y-79643847D02*
X70875312Y-79834323D01*
X70875312Y-79834323D02*
X70827693Y-79929561D01*
X70827693Y-79929561D02*
X70732455Y-80024800D01*
X70732455Y-80024800D02*
X70589598Y-80072419D01*
X70589598Y-80072419D02*
X70351503Y-80072419D01*
D11*
X67383082Y-70029400D02*
X67597368Y-70100828D01*
X67597368Y-70100828D02*
X67954510Y-70100828D01*
X67954510Y-70100828D02*
X68097368Y-70029400D01*
X68097368Y-70029400D02*
X68168796Y-69957971D01*
X68168796Y-69957971D02*
X68240225Y-69815114D01*
X68240225Y-69815114D02*
X68240225Y-69672257D01*
X68240225Y-69672257D02*
X68168796Y-69529400D01*
X68168796Y-69529400D02*
X68097368Y-69457971D01*
X68097368Y-69457971D02*
X67954510Y-69386542D01*
X67954510Y-69386542D02*
X67668796Y-69315114D01*
X67668796Y-69315114D02*
X67525939Y-69243685D01*
X67525939Y-69243685D02*
X67454510Y-69172257D01*
X67454510Y-69172257D02*
X67383082Y-69029400D01*
X67383082Y-69029400D02*
X67383082Y-68886542D01*
X67383082Y-68886542D02*
X67454510Y-68743685D01*
X67454510Y-68743685D02*
X67525939Y-68672257D01*
X67525939Y-68672257D02*
X67668796Y-68600828D01*
X67668796Y-68600828D02*
X68025939Y-68600828D01*
X68025939Y-68600828D02*
X68240225Y-68672257D01*
X69097367Y-70100828D02*
X68954510Y-70029400D01*
X68954510Y-70029400D02*
X68883081Y-69957971D01*
X68883081Y-69957971D02*
X68811653Y-69815114D01*
X68811653Y-69815114D02*
X68811653Y-69386542D01*
X68811653Y-69386542D02*
X68883081Y-69243685D01*
X68883081Y-69243685D02*
X68954510Y-69172257D01*
X68954510Y-69172257D02*
X69097367Y-69100828D01*
X69097367Y-69100828D02*
X69311653Y-69100828D01*
X69311653Y-69100828D02*
X69454510Y-69172257D01*
X69454510Y-69172257D02*
X69525939Y-69243685D01*
X69525939Y-69243685D02*
X69597367Y-69386542D01*
X69597367Y-69386542D02*
X69597367Y-69815114D01*
X69597367Y-69815114D02*
X69525939Y-69957971D01*
X69525939Y-69957971D02*
X69454510Y-70029400D01*
X69454510Y-70029400D02*
X69311653Y-70100828D01*
X69311653Y-70100828D02*
X69097367Y-70100828D01*
X70454510Y-70100828D02*
X70311653Y-70029400D01*
X70311653Y-70029400D02*
X70240224Y-69886542D01*
X70240224Y-69886542D02*
X70240224Y-68600828D01*
X71025938Y-70100828D02*
X71025938Y-69100828D01*
X71025938Y-68600828D02*
X70954510Y-68672257D01*
X70954510Y-68672257D02*
X71025938Y-68743685D01*
X71025938Y-68743685D02*
X71097367Y-68672257D01*
X71097367Y-68672257D02*
X71025938Y-68600828D01*
X71025938Y-68600828D02*
X71025938Y-68743685D01*
X72383082Y-70100828D02*
X72383082Y-68600828D01*
X72383082Y-70029400D02*
X72240224Y-70100828D01*
X72240224Y-70100828D02*
X71954510Y-70100828D01*
X71954510Y-70100828D02*
X71811653Y-70029400D01*
X71811653Y-70029400D02*
X71740224Y-69957971D01*
X71740224Y-69957971D02*
X71668796Y-69815114D01*
X71668796Y-69815114D02*
X71668796Y-69386542D01*
X71668796Y-69386542D02*
X71740224Y-69243685D01*
X71740224Y-69243685D02*
X71811653Y-69172257D01*
X71811653Y-69172257D02*
X71954510Y-69100828D01*
X71954510Y-69100828D02*
X72240224Y-69100828D01*
X72240224Y-69100828D02*
X72383082Y-69172257D01*
X73097367Y-70100828D02*
X73097367Y-68600828D01*
X73097367Y-68600828D02*
X73454510Y-68600828D01*
X73454510Y-68600828D02*
X73668796Y-68672257D01*
X73668796Y-68672257D02*
X73811653Y-68815114D01*
X73811653Y-68815114D02*
X73883082Y-68957971D01*
X73883082Y-68957971D02*
X73954510Y-69243685D01*
X73954510Y-69243685D02*
X73954510Y-69457971D01*
X73954510Y-69457971D02*
X73883082Y-69743685D01*
X73883082Y-69743685D02*
X73811653Y-69886542D01*
X73811653Y-69886542D02*
X73668796Y-70029400D01*
X73668796Y-70029400D02*
X73454510Y-70100828D01*
X73454510Y-70100828D02*
X73097367Y-70100828D01*
X74597367Y-70100828D02*
X74597367Y-69100828D01*
X74597367Y-69386542D02*
X74668796Y-69243685D01*
X74668796Y-69243685D02*
X74740225Y-69172257D01*
X74740225Y-69172257D02*
X74883082Y-69100828D01*
X74883082Y-69100828D02*
X75025939Y-69100828D01*
X75525938Y-70100828D02*
X75525938Y-69100828D01*
X75525938Y-68600828D02*
X75454510Y-68672257D01*
X75454510Y-68672257D02*
X75525938Y-68743685D01*
X75525938Y-68743685D02*
X75597367Y-68672257D01*
X75597367Y-68672257D02*
X75525938Y-68600828D01*
X75525938Y-68600828D02*
X75525938Y-68743685D01*
X76097367Y-69100828D02*
X76454510Y-70100828D01*
X76454510Y-70100828D02*
X76811653Y-69100828D01*
X77954510Y-70029400D02*
X77811653Y-70100828D01*
X77811653Y-70100828D02*
X77525939Y-70100828D01*
X77525939Y-70100828D02*
X77383081Y-70029400D01*
X77383081Y-70029400D02*
X77311653Y-69886542D01*
X77311653Y-69886542D02*
X77311653Y-69315114D01*
X77311653Y-69315114D02*
X77383081Y-69172257D01*
X77383081Y-69172257D02*
X77525939Y-69100828D01*
X77525939Y-69100828D02*
X77811653Y-69100828D01*
X77811653Y-69100828D02*
X77954510Y-69172257D01*
X77954510Y-69172257D02*
X78025939Y-69315114D01*
X78025939Y-69315114D02*
X78025939Y-69457971D01*
X78025939Y-69457971D02*
X77311653Y-69600828D01*
X78311653Y-70243685D02*
X79454510Y-70243685D01*
X79668795Y-69100828D02*
X80025938Y-70100828D01*
X80025938Y-70100828D02*
X80383081Y-69100828D01*
X80883081Y-68743685D02*
X80954509Y-68672257D01*
X80954509Y-68672257D02*
X81097367Y-68600828D01*
X81097367Y-68600828D02*
X81454509Y-68600828D01*
X81454509Y-68600828D02*
X81597367Y-68672257D01*
X81597367Y-68672257D02*
X81668795Y-68743685D01*
X81668795Y-68743685D02*
X81740224Y-68886542D01*
X81740224Y-68886542D02*
X81740224Y-69029400D01*
X81740224Y-69029400D02*
X81668795Y-69243685D01*
X81668795Y-69243685D02*
X80811652Y-70100828D01*
X80811652Y-70100828D02*
X81740224Y-70100828D01*
X82025938Y-70243685D02*
X83168795Y-70243685D01*
X84311652Y-70100828D02*
X83454509Y-70100828D01*
X83883080Y-70100828D02*
X83883080Y-68600828D01*
X83883080Y-68600828D02*
X83740223Y-68815114D01*
X83740223Y-68815114D02*
X83597366Y-68957971D01*
X83597366Y-68957971D02*
X83454509Y-69029400D01*
D12*
X153297485Y-79011833D02*
X154017152Y-79011833D01*
X154017152Y-79011833D02*
X154101818Y-78969500D01*
X154101818Y-78969500D02*
X154144152Y-78927166D01*
X154144152Y-78927166D02*
X154186485Y-78842500D01*
X154186485Y-78842500D02*
X154186485Y-78673166D01*
X154186485Y-78673166D02*
X154144152Y-78588500D01*
X154144152Y-78588500D02*
X154101818Y-78546166D01*
X154101818Y-78546166D02*
X154017152Y-78503833D01*
X154017152Y-78503833D02*
X153297485Y-78503833D01*
X153297485Y-77657167D02*
X153297485Y-78080500D01*
X153297485Y-78080500D02*
X153720818Y-78122833D01*
X153720818Y-78122833D02*
X153678485Y-78080500D01*
X153678485Y-78080500D02*
X153636152Y-77995833D01*
X153636152Y-77995833D02*
X153636152Y-77784167D01*
X153636152Y-77784167D02*
X153678485Y-77699500D01*
X153678485Y-77699500D02*
X153720818Y-77657167D01*
X153720818Y-77657167D02*
X153805485Y-77614833D01*
X153805485Y-77614833D02*
X154017152Y-77614833D01*
X154017152Y-77614833D02*
X154101818Y-77657167D01*
X154101818Y-77657167D02*
X154144152Y-77699500D01*
X154144152Y-77699500D02*
X154186485Y-77784167D01*
X154186485Y-77784167D02*
X154186485Y-77995833D01*
X154186485Y-77995833D02*
X154144152Y-78080500D01*
X154144152Y-78080500D02*
X154101818Y-78122833D01*
D13*
X143044021Y-81112170D02*
X143073049Y-81025085D01*
X143073049Y-81025085D02*
X143073049Y-80879942D01*
X143073049Y-80879942D02*
X143044021Y-80821885D01*
X143044021Y-80821885D02*
X143014992Y-80792856D01*
X143014992Y-80792856D02*
X142956935Y-80763827D01*
X142956935Y-80763827D02*
X142898878Y-80763827D01*
X142898878Y-80763827D02*
X142840821Y-80792856D01*
X142840821Y-80792856D02*
X142811792Y-80821885D01*
X142811792Y-80821885D02*
X142782763Y-80879942D01*
X142782763Y-80879942D02*
X142753735Y-80996056D01*
X142753735Y-80996056D02*
X142724706Y-81054113D01*
X142724706Y-81054113D02*
X142695678Y-81083142D01*
X142695678Y-81083142D02*
X142637621Y-81112170D01*
X142637621Y-81112170D02*
X142579563Y-81112170D01*
X142579563Y-81112170D02*
X142521506Y-81083142D01*
X142521506Y-81083142D02*
X142492478Y-81054113D01*
X142492478Y-81054113D02*
X142463449Y-80996056D01*
X142463449Y-80996056D02*
X142463449Y-80850913D01*
X142463449Y-80850913D02*
X142492478Y-80763827D01*
X143044021Y-80270342D02*
X143073049Y-80328399D01*
X143073049Y-80328399D02*
X143073049Y-80444514D01*
X143073049Y-80444514D02*
X143044021Y-80502571D01*
X143044021Y-80502571D02*
X142985963Y-80531599D01*
X142985963Y-80531599D02*
X142753735Y-80531599D01*
X142753735Y-80531599D02*
X142695678Y-80502571D01*
X142695678Y-80502571D02*
X142666649Y-80444514D01*
X142666649Y-80444514D02*
X142666649Y-80328399D01*
X142666649Y-80328399D02*
X142695678Y-80270342D01*
X142695678Y-80270342D02*
X142753735Y-80241314D01*
X142753735Y-80241314D02*
X142811792Y-80241314D01*
X142811792Y-80241314D02*
X142869849Y-80531599D01*
X143044021Y-79747828D02*
X143073049Y-79805885D01*
X143073049Y-79805885D02*
X143073049Y-79922000D01*
X143073049Y-79922000D02*
X143044021Y-79980057D01*
X143044021Y-79980057D02*
X142985963Y-80009085D01*
X142985963Y-80009085D02*
X142753735Y-80009085D01*
X142753735Y-80009085D02*
X142695678Y-79980057D01*
X142695678Y-79980057D02*
X142666649Y-79922000D01*
X142666649Y-79922000D02*
X142666649Y-79805885D01*
X142666649Y-79805885D02*
X142695678Y-79747828D01*
X142695678Y-79747828D02*
X142753735Y-79718800D01*
X142753735Y-79718800D02*
X142811792Y-79718800D01*
X142811792Y-79718800D02*
X142869849Y-80009085D01*
X143044021Y-79225314D02*
X143073049Y-79283371D01*
X143073049Y-79283371D02*
X143073049Y-79399486D01*
X143073049Y-79399486D02*
X143044021Y-79457543D01*
X143044021Y-79457543D02*
X142985963Y-79486571D01*
X142985963Y-79486571D02*
X142753735Y-79486571D01*
X142753735Y-79486571D02*
X142695678Y-79457543D01*
X142695678Y-79457543D02*
X142666649Y-79399486D01*
X142666649Y-79399486D02*
X142666649Y-79283371D01*
X142666649Y-79283371D02*
X142695678Y-79225314D01*
X142695678Y-79225314D02*
X142753735Y-79196286D01*
X142753735Y-79196286D02*
X142811792Y-79196286D01*
X142811792Y-79196286D02*
X142869849Y-79486571D01*
X143073049Y-78673772D02*
X142463449Y-78673772D01*
X143044021Y-78673772D02*
X143073049Y-78731829D01*
X143073049Y-78731829D02*
X143073049Y-78847943D01*
X143073049Y-78847943D02*
X143044021Y-78906000D01*
X143044021Y-78906000D02*
X143014992Y-78935029D01*
X143014992Y-78935029D02*
X142956935Y-78964057D01*
X142956935Y-78964057D02*
X142782763Y-78964057D01*
X142782763Y-78964057D02*
X142724706Y-78935029D01*
X142724706Y-78935029D02*
X142695678Y-78906000D01*
X142695678Y-78906000D02*
X142666649Y-78847943D01*
X142666649Y-78847943D02*
X142666649Y-78731829D01*
X142666649Y-78731829D02*
X142695678Y-78673772D01*
X142666649Y-78122229D02*
X143073049Y-78122229D01*
X142666649Y-78383486D02*
X142985963Y-78383486D01*
X142985963Y-78383486D02*
X143044021Y-78354457D01*
X143044021Y-78354457D02*
X143073049Y-78296400D01*
X143073049Y-78296400D02*
X143073049Y-78209314D01*
X143073049Y-78209314D02*
X143044021Y-78151257D01*
X143044021Y-78151257D02*
X143014992Y-78122229D01*
X143073049Y-77831943D02*
X142666649Y-77831943D01*
X142463449Y-77831943D02*
X142492478Y-77860971D01*
X142492478Y-77860971D02*
X142521506Y-77831943D01*
X142521506Y-77831943D02*
X142492478Y-77802914D01*
X142492478Y-77802914D02*
X142463449Y-77831943D01*
X142463449Y-77831943D02*
X142521506Y-77831943D01*
X142666649Y-77541657D02*
X143073049Y-77541657D01*
X142724706Y-77541657D02*
X142695678Y-77512628D01*
X142695678Y-77512628D02*
X142666649Y-77454571D01*
X142666649Y-77454571D02*
X142666649Y-77367485D01*
X142666649Y-77367485D02*
X142695678Y-77309428D01*
X142695678Y-77309428D02*
X142753735Y-77280400D01*
X142753735Y-77280400D02*
X143073049Y-77280400D01*
X143073049Y-76903028D02*
X143044021Y-76961085D01*
X143044021Y-76961085D02*
X143014992Y-76990114D01*
X143014992Y-76990114D02*
X142956935Y-77019142D01*
X142956935Y-77019142D02*
X142782763Y-77019142D01*
X142782763Y-77019142D02*
X142724706Y-76990114D01*
X142724706Y-76990114D02*
X142695678Y-76961085D01*
X142695678Y-76961085D02*
X142666649Y-76903028D01*
X142666649Y-76903028D02*
X142666649Y-76815942D01*
X142666649Y-76815942D02*
X142695678Y-76757885D01*
X142695678Y-76757885D02*
X142724706Y-76728857D01*
X142724706Y-76728857D02*
X142782763Y-76699828D01*
X142782763Y-76699828D02*
X142956935Y-76699828D01*
X142956935Y-76699828D02*
X143014992Y-76728857D01*
X143014992Y-76728857D02*
X143044021Y-76757885D01*
X143044021Y-76757885D02*
X143073049Y-76815942D01*
X143073049Y-76815942D02*
X143073049Y-76903028D01*
X142463449Y-76496628D02*
X143073049Y-76090228D01*
X142463449Y-76090228D02*
X143073049Y-76496628D01*
X143073049Y-75858000D02*
X142463449Y-75858000D01*
X142898878Y-75596742D02*
X142898878Y-75306457D01*
X143073049Y-75654799D02*
X142463449Y-75451599D01*
X142463449Y-75451599D02*
X143073049Y-75248399D01*
X142463449Y-74929085D02*
X142463449Y-74812971D01*
X142463449Y-74812971D02*
X142492478Y-74754914D01*
X142492478Y-74754914D02*
X142550535Y-74696857D01*
X142550535Y-74696857D02*
X142666649Y-74667828D01*
X142666649Y-74667828D02*
X142869849Y-74667828D01*
X142869849Y-74667828D02*
X142985963Y-74696857D01*
X142985963Y-74696857D02*
X143044021Y-74754914D01*
X143044021Y-74754914D02*
X143073049Y-74812971D01*
X143073049Y-74812971D02*
X143073049Y-74929085D01*
X143073049Y-74929085D02*
X143044021Y-74987143D01*
X143044021Y-74987143D02*
X142985963Y-75045200D01*
X142985963Y-75045200D02*
X142869849Y-75074228D01*
X142869849Y-75074228D02*
X142666649Y-75074228D01*
X142666649Y-75074228D02*
X142550535Y-75045200D01*
X142550535Y-75045200D02*
X142492478Y-74987143D01*
X142492478Y-74987143D02*
X142463449Y-74929085D01*
D14*
X92906799Y-69063980D02*
X92906799Y-68825885D01*
X93144894Y-68921123D02*
X92906799Y-68825885D01*
X92906799Y-68825885D02*
X92668704Y-68921123D01*
X93049656Y-68635409D02*
X92906799Y-68825885D01*
X92906799Y-68825885D02*
X92763942Y-68635409D01*
X92906800Y-67973619D02*
X92906800Y-68211714D01*
X92668705Y-68116476D02*
X92906800Y-68211714D01*
X92906800Y-68211714D02*
X93144895Y-68116476D01*
X92763943Y-68402190D02*
X92906800Y-68211714D01*
X92906800Y-68211714D02*
X93049657Y-68402190D01*
X144028571Y-44114700D02*
X145171429Y-44114700D01*
X144600000Y-44686128D02*
X144600000Y-43543271D01*
X131028571Y-44114700D02*
X132171429Y-44114700D01*
X120154819Y-58651904D02*
X119154819Y-58651904D01*
X120154819Y-58080476D02*
X119583390Y-58509047D01*
X119154819Y-58080476D02*
X119726247Y-58651904D01*
X149389048Y-91494819D02*
X149389048Y-90494819D01*
X149389048Y-90494819D02*
X149770000Y-90494819D01*
X149770000Y-90494819D02*
X149865238Y-90542438D01*
X149865238Y-90542438D02*
X149912857Y-90590057D01*
X149912857Y-90590057D02*
X149960476Y-90685295D01*
X149960476Y-90685295D02*
X149960476Y-90828152D01*
X149960476Y-90828152D02*
X149912857Y-90923390D01*
X149912857Y-90923390D02*
X149865238Y-90971009D01*
X149865238Y-90971009D02*
X149770000Y-91018628D01*
X149770000Y-91018628D02*
X149389048Y-91018628D01*
X150293810Y-90494819D02*
X150531905Y-91494819D01*
X150531905Y-91494819D02*
X150722381Y-90780533D01*
X150722381Y-90780533D02*
X150912857Y-91494819D01*
X150912857Y-91494819D02*
X151150953Y-90494819D01*
X151531905Y-91494819D02*
X151531905Y-90494819D01*
X151531905Y-90494819D02*
X151865238Y-91209104D01*
X151865238Y-91209104D02*
X152198571Y-90494819D01*
X152198571Y-90494819D02*
X152198571Y-91494819D01*
X152627143Y-90590057D02*
X152674762Y-90542438D01*
X152674762Y-90542438D02*
X152770000Y-90494819D01*
X152770000Y-90494819D02*
X153008095Y-90494819D01*
X153008095Y-90494819D02*
X153103333Y-90542438D01*
X153103333Y-90542438D02*
X153150952Y-90590057D01*
X153150952Y-90590057D02*
X153198571Y-90685295D01*
X153198571Y-90685295D02*
X153198571Y-90780533D01*
X153198571Y-90780533D02*
X153150952Y-90923390D01*
X153150952Y-90923390D02*
X152579524Y-91494819D01*
X152579524Y-91494819D02*
X153198571Y-91494819D01*
X143389048Y-91494819D02*
X143389048Y-90494819D01*
X143389048Y-90494819D02*
X143770000Y-90494819D01*
X143770000Y-90494819D02*
X143865238Y-90542438D01*
X143865238Y-90542438D02*
X143912857Y-90590057D01*
X143912857Y-90590057D02*
X143960476Y-90685295D01*
X143960476Y-90685295D02*
X143960476Y-90828152D01*
X143960476Y-90828152D02*
X143912857Y-90923390D01*
X143912857Y-90923390D02*
X143865238Y-90971009D01*
X143865238Y-90971009D02*
X143770000Y-91018628D01*
X143770000Y-91018628D02*
X143389048Y-91018628D01*
X144293810Y-90494819D02*
X144531905Y-91494819D01*
X144531905Y-91494819D02*
X144722381Y-90780533D01*
X144722381Y-90780533D02*
X144912857Y-91494819D01*
X144912857Y-91494819D02*
X145150953Y-90494819D01*
X145531905Y-91494819D02*
X145531905Y-90494819D01*
X145531905Y-90494819D02*
X145865238Y-91209104D01*
X145865238Y-91209104D02*
X146198571Y-90494819D01*
X146198571Y-90494819D02*
X146198571Y-91494819D01*
X147198571Y-91494819D02*
X146627143Y-91494819D01*
X146912857Y-91494819D02*
X146912857Y-90494819D01*
X146912857Y-90494819D02*
X146817619Y-90637676D01*
X146817619Y-90637676D02*
X146722381Y-90732914D01*
X146722381Y-90732914D02*
X146627143Y-90780533D01*
D10*
X109238095Y-61557419D02*
X109238095Y-62366942D01*
X109238095Y-62366942D02*
X109285714Y-62462180D01*
X109285714Y-62462180D02*
X109333333Y-62509800D01*
X109333333Y-62509800D02*
X109428571Y-62557419D01*
X109428571Y-62557419D02*
X109619047Y-62557419D01*
X109619047Y-62557419D02*
X109714285Y-62509800D01*
X109714285Y-62509800D02*
X109761904Y-62462180D01*
X109761904Y-62462180D02*
X109809523Y-62366942D01*
X109809523Y-62366942D02*
X109809523Y-61557419D01*
X110714285Y-61890752D02*
X110714285Y-62557419D01*
X110476190Y-61509800D02*
X110238095Y-62224085D01*
X110238095Y-62224085D02*
X110857142Y-62224085D01*
X111461027Y-62872419D02*
X111794360Y-63872419D01*
X111794360Y-63872419D02*
X112127693Y-62872419D01*
X112603884Y-63872419D02*
X112508646Y-63824800D01*
X112508646Y-63824800D02*
X112461027Y-63777180D01*
X112461027Y-63777180D02*
X112413408Y-63681942D01*
X112413408Y-63681942D02*
X112413408Y-63396228D01*
X112413408Y-63396228D02*
X112461027Y-63300990D01*
X112461027Y-63300990D02*
X112508646Y-63253371D01*
X112508646Y-63253371D02*
X112603884Y-63205752D01*
X112603884Y-63205752D02*
X112746741Y-63205752D01*
X112746741Y-63205752D02*
X112841979Y-63253371D01*
X112841979Y-63253371D02*
X112889598Y-63300990D01*
X112889598Y-63300990D02*
X112937217Y-63396228D01*
X112937217Y-63396228D02*
X112937217Y-63681942D01*
X112937217Y-63681942D02*
X112889598Y-63777180D01*
X112889598Y-63777180D02*
X112841979Y-63824800D01*
X112841979Y-63824800D02*
X112746741Y-63872419D01*
X112746741Y-63872419D02*
X112603884Y-63872419D01*
X113794360Y-63205752D02*
X113794360Y-63872419D01*
X113365789Y-63205752D02*
X113365789Y-63729561D01*
X113365789Y-63729561D02*
X113413408Y-63824800D01*
X113413408Y-63824800D02*
X113508646Y-63872419D01*
X113508646Y-63872419D02*
X113651503Y-63872419D01*
X113651503Y-63872419D02*
X113746741Y-63824800D01*
X113746741Y-63824800D02*
X113794360Y-63777180D01*
X114127694Y-63205752D02*
X114508646Y-63205752D01*
X114270551Y-62872419D02*
X114270551Y-63729561D01*
X114270551Y-63729561D02*
X114318170Y-63824800D01*
X114318170Y-63824800D02*
X114413408Y-63872419D01*
X114413408Y-63872419D02*
X114508646Y-63872419D01*
X106561027Y-62872419D02*
X106894360Y-63872419D01*
X106894360Y-63872419D02*
X107227693Y-62872419D01*
X107561027Y-63872419D02*
X107561027Y-63205752D01*
X107561027Y-62872419D02*
X107513408Y-62920038D01*
X107513408Y-62920038D02*
X107561027Y-62967657D01*
X107561027Y-62967657D02*
X107608646Y-62920038D01*
X107608646Y-62920038D02*
X107561027Y-62872419D01*
X107561027Y-62872419D02*
X107561027Y-62967657D01*
X108037217Y-63205752D02*
X108037217Y-63872419D01*
X108037217Y-63300990D02*
X108084836Y-63253371D01*
X108084836Y-63253371D02*
X108180074Y-63205752D01*
X108180074Y-63205752D02*
X108322931Y-63205752D01*
X108322931Y-63205752D02*
X108418169Y-63253371D01*
X108418169Y-63253371D02*
X108465788Y-63348609D01*
X108465788Y-63348609D02*
X108465788Y-63872419D01*
X109227693Y-62920038D02*
X109132455Y-62872419D01*
X109132455Y-62872419D02*
X108989598Y-62872419D01*
X108989598Y-62872419D02*
X108846741Y-62920038D01*
X108846741Y-62920038D02*
X108751503Y-63015276D01*
X108751503Y-63015276D02*
X108703884Y-63110514D01*
X108703884Y-63110514D02*
X108656265Y-63300990D01*
X108656265Y-63300990D02*
X108656265Y-63443847D01*
X108656265Y-63443847D02*
X108703884Y-63634323D01*
X108703884Y-63634323D02*
X108751503Y-63729561D01*
X108751503Y-63729561D02*
X108846741Y-63824800D01*
X108846741Y-63824800D02*
X108989598Y-63872419D01*
X108989598Y-63872419D02*
X109084836Y-63872419D01*
X109084836Y-63872419D02*
X109227693Y-63824800D01*
X109227693Y-63824800D02*
X109275312Y-63777180D01*
X109275312Y-63777180D02*
X109275312Y-63443847D01*
X109275312Y-63443847D02*
X109084836Y-63443847D01*
X109703884Y-63872419D02*
X109703884Y-62872419D01*
X109703884Y-62872419D02*
X110275312Y-63872419D01*
X110275312Y-63872419D02*
X110275312Y-62872419D01*
X110751503Y-63872419D02*
X110751503Y-62872419D01*
X110751503Y-62872419D02*
X110989598Y-62872419D01*
X110989598Y-62872419D02*
X111132455Y-62920038D01*
X111132455Y-62920038D02*
X111227693Y-63015276D01*
X111227693Y-63015276D02*
X111275312Y-63110514D01*
X111275312Y-63110514D02*
X111322931Y-63300990D01*
X111322931Y-63300990D02*
X111322931Y-63443847D01*
X111322931Y-63443847D02*
X111275312Y-63634323D01*
X111275312Y-63634323D02*
X111227693Y-63729561D01*
X111227693Y-63729561D02*
X111132455Y-63824800D01*
X111132455Y-63824800D02*
X110989598Y-63872419D01*
X110989598Y-63872419D02*
X110751503Y-63872419D01*
D15*
%TO.C,C1*%
X108857600Y-83905000D02*
X109257600Y-83905000D01*
X109057600Y-83705000D02*
X109057600Y-84105000D01*
X111127401Y-83020000D02*
X111127401Y-84260000D01*
X111127401Y-85940000D02*
X111127401Y-87180000D01*
X111167401Y-83020000D02*
X111167401Y-84260000D01*
X111167401Y-85940000D02*
X111167401Y-87180000D01*
X111207401Y-83022000D02*
X111207401Y-84260000D01*
X111207401Y-85940000D02*
X111207401Y-87178000D01*
X111247401Y-83023000D02*
X111247401Y-84260000D01*
X111247401Y-85940000D02*
X111247401Y-87177000D01*
X111287401Y-83026000D02*
X111287401Y-84260000D01*
X111287401Y-85940000D02*
X111287401Y-87174000D01*
X111327401Y-83029000D02*
X111327401Y-84260000D01*
X111327401Y-85940000D02*
X111327401Y-87171000D01*
X111367401Y-83034000D02*
X111367401Y-84260000D01*
X111367401Y-85940000D02*
X111367401Y-87166000D01*
X111407401Y-83039000D02*
X111407401Y-84260000D01*
X111407401Y-85940000D02*
X111407401Y-87161000D01*
X111447401Y-83044000D02*
X111447401Y-84260000D01*
X111447401Y-85940000D02*
X111447401Y-87156000D01*
X111487401Y-83051000D02*
X111487401Y-84260000D01*
X111487401Y-85940000D02*
X111487401Y-87149000D01*
X111527401Y-83058000D02*
X111527401Y-84260000D01*
X111527401Y-85940000D02*
X111527401Y-87142000D01*
X111567401Y-83066000D02*
X111567401Y-84260000D01*
X111567401Y-85940000D02*
X111567401Y-87134000D01*
X111607401Y-83075000D02*
X111607401Y-84260000D01*
X111607401Y-85940000D02*
X111607401Y-87125000D01*
X111647401Y-83085000D02*
X111647401Y-84260000D01*
X111647401Y-85940000D02*
X111647401Y-87115000D01*
X111687401Y-83095000D02*
X111687401Y-84260000D01*
X111687401Y-85940000D02*
X111687401Y-87105000D01*
X111727401Y-83107000D02*
X111727401Y-84260000D01*
X111727401Y-85940000D02*
X111727401Y-87093000D01*
X111767401Y-83119000D02*
X111767401Y-84260000D01*
X111767401Y-85940000D02*
X111767401Y-87081000D01*
X111807401Y-83132000D02*
X111807401Y-84260000D01*
X111807401Y-85940000D02*
X111807401Y-87068000D01*
X111847401Y-83146000D02*
X111847401Y-84260000D01*
X111847401Y-85940000D02*
X111847401Y-87054000D01*
X111887401Y-83161000D02*
X111887401Y-84260000D01*
X111887401Y-85940000D02*
X111887401Y-87039000D01*
X111927401Y-83177000D02*
X111927401Y-84260000D01*
X111927401Y-85940000D02*
X111927401Y-87023000D01*
X111967401Y-83194000D02*
X111967401Y-84260000D01*
X111967401Y-85940000D02*
X111967401Y-87006000D01*
X112007401Y-83211000D02*
X112007401Y-84260000D01*
X112007401Y-85940000D02*
X112007401Y-86989000D01*
X112047401Y-83230000D02*
X112047401Y-84260000D01*
X112047401Y-85940000D02*
X112047401Y-86970000D01*
X112087401Y-83250000D02*
X112087401Y-84260000D01*
X112087401Y-85940000D02*
X112087401Y-86950000D01*
X112127401Y-83271000D02*
X112127401Y-84260000D01*
X112127401Y-85940000D02*
X112127401Y-86929000D01*
X112167401Y-83293000D02*
X112167401Y-84260000D01*
X112167401Y-85940000D02*
X112167401Y-86907000D01*
X112207401Y-83316000D02*
X112207401Y-84260000D01*
X112207401Y-85940000D02*
X112207401Y-86884000D01*
X112247401Y-83340000D02*
X112247401Y-84260000D01*
X112247401Y-85940000D02*
X112247401Y-86860000D01*
X112287401Y-83366000D02*
X112287401Y-84260000D01*
X112287401Y-85940000D02*
X112287401Y-86834000D01*
X112327401Y-83392000D02*
X112327401Y-84260000D01*
X112327401Y-85940000D02*
X112327401Y-86808000D01*
X112367401Y-83420000D02*
X112367401Y-84260000D01*
X112367401Y-85940000D02*
X112367401Y-86780000D01*
X112407401Y-83450000D02*
X112407401Y-84260000D01*
X112407401Y-85940000D02*
X112407401Y-86750000D01*
X112447401Y-83481000D02*
X112447401Y-84260000D01*
X112447401Y-85940000D02*
X112447401Y-86719000D01*
X112487401Y-83514000D02*
X112487401Y-84260000D01*
X112487401Y-85940000D02*
X112487401Y-86686000D01*
X112527401Y-83548000D02*
X112527401Y-84260000D01*
X112527401Y-85940000D02*
X112527401Y-86652000D01*
X112567401Y-83584000D02*
X112567401Y-84260000D01*
X112567401Y-85940000D02*
X112567401Y-86616000D01*
X112607401Y-83622000D02*
X112607401Y-84260000D01*
X112607401Y-85940000D02*
X112607401Y-86578000D01*
X112647401Y-83662000D02*
X112647401Y-84260000D01*
X112647401Y-85940000D02*
X112647401Y-86538000D01*
X112687401Y-83704000D02*
X112687401Y-84260000D01*
X112687401Y-85940000D02*
X112687401Y-86496000D01*
X112727401Y-83749000D02*
X112727401Y-86451000D01*
X112767401Y-83797000D02*
X112767401Y-86403000D01*
X112807401Y-83847000D02*
X112807401Y-86353000D01*
X112847401Y-83901000D02*
X112847401Y-86299000D01*
X112887401Y-83958000D02*
X112887401Y-86242000D01*
X112927401Y-84020000D02*
X112927401Y-86180000D01*
X112967401Y-84087000D02*
X112967401Y-86113000D01*
X113007401Y-84160000D02*
X113007401Y-86040000D01*
X113047401Y-84241000D02*
X113047401Y-85959000D01*
X113087401Y-84332000D02*
X113087401Y-85868000D01*
X113127401Y-84437000D02*
X113127401Y-85763000D01*
X113167401Y-84563000D02*
X113167401Y-85637000D01*
X113207401Y-84730000D02*
X113207401Y-85470000D01*
X113247401Y-85100000D02*
G75*
G02*
X109007401Y-85100000I-2120000J0D01*
G01*
X109007401Y-85100000D02*
G75*
G02*
X113247401Y-85100000I2120000J0D01*
G01*
%TO.C,U7*%
X113720000Y-78300000D02*
X109870000Y-78300000D01*
X113720000Y-78300000D02*
G75*
G02*
X109831389Y-78309878I-1940000J-1700000D01*
G01*
%TO.C,C6*%
X108035000Y-57380000D02*
X109565000Y-57380000D01*
X109565000Y-59220000D02*
X108035000Y-59220000D01*
%TO.C,C16*%
X110935000Y-76080000D02*
X112465000Y-76080000D01*
X112465000Y-77920000D02*
X110935000Y-77920000D01*
%TO.C,R14*%
X120590000Y-101187064D02*
X120590000Y-99732936D01*
X122410000Y-101187064D02*
X122410000Y-99732936D01*
%TO.C,R17*%
X122270000Y-54000000D02*
X123040000Y-54000000D01*
X130350000Y-54000000D02*
X129580000Y-54000000D01*
X129580000Y-55370000D02*
X123040000Y-55370000D01*
X123040000Y-52630000D01*
X129580000Y-52630000D01*
X129580000Y-55370000D01*
%TO.C,U8*%
X125540000Y-104130000D02*
X125540000Y-109330000D01*
X125540000Y-109330000D02*
X127190000Y-109330000D01*
X129190000Y-109330000D02*
X130840000Y-109330000D01*
X130840000Y-104130000D02*
X125540000Y-104130000D01*
X130840000Y-109330000D02*
X130840000Y-104130000D01*
X127190000Y-109330000D02*
G75*
G02*
X129190000Y-109330000I1000000J0D01*
G01*
%TO.C,R20*%
X138090000Y-101187064D02*
X138090000Y-99732936D01*
X139910000Y-101187064D02*
X139910000Y-99732936D01*
%TO.C,C15*%
X124925000Y-69080000D02*
X126455000Y-69080000D01*
X126455000Y-70920000D02*
X124925000Y-70920000D01*
%TO.C,J3*%
X118250000Y-78200000D02*
X118250000Y-83750000D01*
X118250000Y-89300000D02*
X118250000Y-83750000D01*
X121200000Y-77450000D02*
X121200000Y-78200000D01*
X121200000Y-78200000D02*
X118250000Y-78200000D01*
X121200000Y-89300000D02*
X118250000Y-89300000D01*
X121200000Y-90050000D02*
X121200000Y-89300000D01*
X123750000Y-77150000D02*
X122500000Y-77150000D01*
X123750000Y-78400000D02*
X123750000Y-77150000D01*
X123450000Y-77450000D02*
X122700000Y-77450000D01*
X122700000Y-79250000D01*
X123450000Y-79250000D01*
X123450000Y-77450000D01*
X123450000Y-80750000D02*
X122700000Y-80750000D01*
X122700000Y-86750000D01*
X123450000Y-86750000D01*
X123450000Y-80750000D01*
X123450000Y-88250000D02*
X122700000Y-88250000D01*
X122700000Y-90050000D01*
X123450000Y-90050000D01*
X123450000Y-88250000D01*
X123460000Y-77440000D02*
X117490000Y-77440000D01*
X117490000Y-90060000D01*
X123460000Y-90060000D01*
X123460000Y-77440000D01*
%TO.C,R16*%
X120590000Y-105722936D02*
X120590000Y-107177064D01*
X122410000Y-105722936D02*
X122410000Y-107177064D01*
%TO.C,J5*%
X125550000Y-58660000D02*
X125550000Y-57280000D01*
X126930000Y-58660000D02*
X125550000Y-58660000D01*
X128200000Y-55900000D02*
X130850000Y-55900000D01*
X128200000Y-58660000D02*
X128200000Y-55900000D01*
X128200000Y-58660000D02*
X130850000Y-58660000D01*
X130850000Y-58660000D02*
X130850000Y-55900000D01*
D16*
%TO.C,U5*%
X132000000Y-69000000D02*
X132000000Y-86797780D01*
X132000000Y-86797780D02*
X152998180Y-86797780D01*
D17*
X132635000Y-75350000D02*
X132635000Y-81065000D01*
X132635000Y-75350000D02*
X135175000Y-75350000D01*
X132635000Y-81065000D02*
X135175000Y-81065000D01*
X135175000Y-75350000D02*
X135175000Y-81065000D01*
X146348460Y-72683000D02*
X146348460Y-74461000D01*
X146348460Y-72683000D02*
X149018000Y-72683000D01*
X146348460Y-74461000D02*
X149018000Y-74461000D01*
X146348460Y-81319000D02*
X146348460Y-83097000D01*
X146348460Y-81319000D02*
X149018000Y-81319000D01*
X146348460Y-83097000D02*
X149018000Y-83097000D01*
D16*
X147069820Y-73394200D02*
X154423120Y-73394200D01*
X147069820Y-82393420D02*
X147069820Y-73394200D01*
D17*
X149018000Y-72683000D02*
X149018000Y-74461000D01*
X149018000Y-81319000D02*
X149018000Y-83097000D01*
X149780000Y-75350000D02*
X149780000Y-80430000D01*
X149780000Y-75350000D02*
X152320000Y-75350000D01*
X149780000Y-80430000D02*
X152320000Y-80430000D01*
X150415000Y-72683000D02*
X150415000Y-74461000D01*
X150415000Y-72683000D02*
X153082000Y-72683000D01*
X150415000Y-74461000D02*
X153082000Y-74461000D01*
X150415000Y-81319000D02*
X150415000Y-83097000D01*
X150415000Y-81319000D02*
X153082000Y-81319000D01*
X150415000Y-83097000D02*
X153082000Y-83097000D01*
X152320000Y-75350000D02*
X152320000Y-80430000D01*
D16*
X152327620Y-69000000D02*
X132000000Y-69000000D01*
X152998180Y-69670560D02*
X152327620Y-69000000D01*
X152998180Y-86797780D02*
X152998180Y-69670560D01*
D17*
X153082000Y-72683000D02*
X153082000Y-74461000D01*
X153082000Y-81319000D02*
X153082000Y-83097000D01*
D16*
X154423120Y-73399280D02*
X154423120Y-82393420D01*
X154423120Y-82393420D02*
X147069820Y-82393420D01*
D18*
X150288000Y-68111000D02*
G75*
G02*
X150034000Y-68111000I-127000J0D01*
G01*
X150034000Y-68111000D02*
G75*
G02*
X150288000Y-68111000I127000J0D01*
G01*
D15*
%TO.C,C8*%
X110435000Y-67280000D02*
X111965000Y-67280000D01*
X111965000Y-69120000D02*
X110435000Y-69120000D01*
%TO.C,C5*%
X93135000Y-60280000D02*
X94665000Y-60280000D01*
X94665000Y-62120000D02*
X93135000Y-62120000D01*
D19*
%TO.C,U10*%
X87923000Y-67577000D02*
X92077000Y-67577000D01*
X92077000Y-62423000D02*
X87923000Y-62423000D01*
D15*
%TO.C,C7*%
X93752677Y-52325000D02*
X94752677Y-52325000D01*
X94252677Y-51825000D02*
X94252677Y-52825000D01*
X99232323Y-50120000D02*
X99232323Y-60280000D01*
X99272323Y-50120000D02*
X99272323Y-60280000D01*
X99312323Y-50121000D02*
X99312323Y-60279000D01*
X99352323Y-50121000D02*
X99352323Y-60279000D01*
X99392323Y-50123000D02*
X99392323Y-60277000D01*
X99432323Y-50124000D02*
X99432323Y-60276000D01*
X99472323Y-50126000D02*
X99472323Y-60274000D01*
X99512323Y-50128000D02*
X99512323Y-60272000D01*
X99552323Y-50130000D02*
X99552323Y-60270000D01*
X99592323Y-50133000D02*
X99592323Y-60267000D01*
X99632323Y-50136000D02*
X99632323Y-60264000D01*
X99672323Y-50139000D02*
X99672323Y-60261000D01*
X99712323Y-50143000D02*
X99712323Y-60257000D01*
X99752323Y-50146000D02*
X99752323Y-60254000D01*
X99792323Y-50151000D02*
X99792323Y-60249000D01*
X99832323Y-50155000D02*
X99832323Y-60245000D01*
X99872323Y-50160000D02*
X99872323Y-60240000D01*
X99912323Y-50165000D02*
X99912323Y-60235000D01*
X99952323Y-50171000D02*
X99952323Y-60229000D01*
X99992323Y-50177000D02*
X99992323Y-60223000D01*
X100032323Y-50183000D02*
X100032323Y-60217000D01*
X100072323Y-50189000D02*
X100072323Y-60211000D01*
X100112323Y-50196000D02*
X100112323Y-60204000D01*
X100152323Y-50203000D02*
X100152323Y-60197000D01*
X100192323Y-50211000D02*
X100192323Y-60189000D01*
X100232323Y-50219000D02*
X100232323Y-60181000D01*
X100272323Y-50227000D02*
X100272323Y-60173000D01*
X100312323Y-50235000D02*
X100312323Y-60165000D01*
X100352323Y-50244000D02*
X100352323Y-60156000D01*
X100392323Y-50253000D02*
X100392323Y-60147000D01*
X100432323Y-50263000D02*
X100432323Y-60137000D01*
X100472323Y-50272000D02*
X100472323Y-60128000D01*
X100512323Y-50283000D02*
X100512323Y-53960000D01*
X100512323Y-56440000D02*
X100512323Y-60117000D01*
X100552323Y-50293000D02*
X100552323Y-53960000D01*
X100552323Y-56440000D02*
X100552323Y-60107000D01*
X100592323Y-50304000D02*
X100592323Y-53960000D01*
X100592323Y-56440000D02*
X100592323Y-60096000D01*
X100632323Y-50315000D02*
X100632323Y-53960000D01*
X100632323Y-56440000D02*
X100632323Y-60085000D01*
X100672323Y-50327000D02*
X100672323Y-53960000D01*
X100672323Y-56440000D02*
X100672323Y-60073000D01*
X100712323Y-50339000D02*
X100712323Y-53960000D01*
X100712323Y-56440000D02*
X100712323Y-60061000D01*
X100752323Y-50351000D02*
X100752323Y-53960000D01*
X100752323Y-56440000D02*
X100752323Y-60049000D01*
X100792323Y-50363000D02*
X100792323Y-53960000D01*
X100792323Y-56440000D02*
X100792323Y-60037000D01*
X100832323Y-50376000D02*
X100832323Y-53960000D01*
X100832323Y-56440000D02*
X100832323Y-60024000D01*
X100872323Y-50390000D02*
X100872323Y-53960000D01*
X100872323Y-56440000D02*
X100872323Y-60010000D01*
X100912323Y-50403000D02*
X100912323Y-53960000D01*
X100912323Y-56440000D02*
X100912323Y-59997000D01*
X100952323Y-50418000D02*
X100952323Y-53960000D01*
X100952323Y-56440000D02*
X100952323Y-59982000D01*
X100992323Y-50432000D02*
X100992323Y-53960000D01*
X100992323Y-56440000D02*
X100992323Y-59968000D01*
X101032323Y-50447000D02*
X101032323Y-53960000D01*
X101032323Y-56440000D02*
X101032323Y-59953000D01*
X101072323Y-50462000D02*
X101072323Y-53960000D01*
X101072323Y-56440000D02*
X101072323Y-59938000D01*
X101112323Y-50478000D02*
X101112323Y-53960000D01*
X101112323Y-56440000D02*
X101112323Y-59922000D01*
X101152323Y-50494000D02*
X101152323Y-53960000D01*
X101152323Y-56440000D02*
X101152323Y-59906000D01*
X101192323Y-50510000D02*
X101192323Y-53960000D01*
X101192323Y-56440000D02*
X101192323Y-59890000D01*
X101232323Y-50527000D02*
X101232323Y-53960000D01*
X101232323Y-56440000D02*
X101232323Y-59873000D01*
X101272323Y-50544000D02*
X101272323Y-53960000D01*
X101272323Y-56440000D02*
X101272323Y-59856000D01*
X101312323Y-50562000D02*
X101312323Y-53960000D01*
X101312323Y-56440000D02*
X101312323Y-59838000D01*
X101352323Y-50580000D02*
X101352323Y-53960000D01*
X101352323Y-56440000D02*
X101352323Y-59820000D01*
X101392323Y-50598000D02*
X101392323Y-53960000D01*
X101392323Y-56440000D02*
X101392323Y-59802000D01*
X101432323Y-50617000D02*
X101432323Y-53960000D01*
X101432323Y-56440000D02*
X101432323Y-59783000D01*
X101472323Y-50636000D02*
X101472323Y-53960000D01*
X101472323Y-56440000D02*
X101472323Y-59764000D01*
X101512323Y-50656000D02*
X101512323Y-53960000D01*
X101512323Y-56440000D02*
X101512323Y-59744000D01*
X101552323Y-50676000D02*
X101552323Y-53960000D01*
X101552323Y-56440000D02*
X101552323Y-59724000D01*
X101592323Y-50696000D02*
X101592323Y-53960000D01*
X101592323Y-56440000D02*
X101592323Y-59704000D01*
X101632323Y-50717000D02*
X101632323Y-53960000D01*
X101632323Y-56440000D02*
X101632323Y-59683000D01*
X101672323Y-50739000D02*
X101672323Y-53960000D01*
X101672323Y-56440000D02*
X101672323Y-59661000D01*
X101712323Y-50761000D02*
X101712323Y-53960000D01*
X101712323Y-56440000D02*
X101712323Y-59639000D01*
X101752323Y-50783000D02*
X101752323Y-53960000D01*
X101752323Y-56440000D02*
X101752323Y-59617000D01*
X101792323Y-50806000D02*
X101792323Y-53960000D01*
X101792323Y-56440000D02*
X101792323Y-59594000D01*
X101832323Y-50829000D02*
X101832323Y-53960000D01*
X101832323Y-56440000D02*
X101832323Y-59571000D01*
X101872323Y-50853000D02*
X101872323Y-53960000D01*
X101872323Y-56440000D02*
X101872323Y-59547000D01*
X101912323Y-50877000D02*
X101912323Y-53960000D01*
X101912323Y-56440000D02*
X101912323Y-59523000D01*
X101952323Y-50902000D02*
X101952323Y-53960000D01*
X101952323Y-56440000D02*
X101952323Y-59498000D01*
X101992323Y-50928000D02*
X101992323Y-53960000D01*
X101992323Y-56440000D02*
X101992323Y-59472000D01*
X102032323Y-50953000D02*
X102032323Y-53960000D01*
X102032323Y-56440000D02*
X102032323Y-59447000D01*
X102072323Y-50980000D02*
X102072323Y-53960000D01*
X102072323Y-56440000D02*
X102072323Y-59420000D01*
X102112323Y-51007000D02*
X102112323Y-53960000D01*
X102112323Y-56440000D02*
X102112323Y-59393000D01*
X102152323Y-51034000D02*
X102152323Y-53960000D01*
X102152323Y-56440000D02*
X102152323Y-59366000D01*
X102192323Y-51062000D02*
X102192323Y-53960000D01*
X102192323Y-56440000D02*
X102192323Y-59338000D01*
X102232323Y-51091000D02*
X102232323Y-53960000D01*
X102232323Y-56440000D02*
X102232323Y-59309000D01*
X102272323Y-51120000D02*
X102272323Y-53960000D01*
X102272323Y-56440000D02*
X102272323Y-59280000D01*
X102312323Y-51150000D02*
X102312323Y-53960000D01*
X102312323Y-56440000D02*
X102312323Y-59250000D01*
X102352323Y-51180000D02*
X102352323Y-53960000D01*
X102352323Y-56440000D02*
X102352323Y-59220000D01*
X102392323Y-51212000D02*
X102392323Y-53960000D01*
X102392323Y-56440000D02*
X102392323Y-59188000D01*
X102432323Y-51243000D02*
X102432323Y-53960000D01*
X102432323Y-56440000D02*
X102432323Y-59157000D01*
X102472323Y-51276000D02*
X102472323Y-53960000D01*
X102472323Y-56440000D02*
X102472323Y-59124000D01*
X102512323Y-51309000D02*
X102512323Y-53960000D01*
X102512323Y-56440000D02*
X102512323Y-59091000D01*
X102552323Y-51342000D02*
X102552323Y-53960000D01*
X102552323Y-56440000D02*
X102552323Y-59058000D01*
X102592323Y-51377000D02*
X102592323Y-53960000D01*
X102592323Y-56440000D02*
X102592323Y-59023000D01*
X102632323Y-51412000D02*
X102632323Y-53960000D01*
X102632323Y-56440000D02*
X102632323Y-58988000D01*
X102672323Y-51448000D02*
X102672323Y-53960000D01*
X102672323Y-56440000D02*
X102672323Y-58952000D01*
X102712323Y-51484000D02*
X102712323Y-53960000D01*
X102712323Y-56440000D02*
X102712323Y-58916000D01*
X102752323Y-51522000D02*
X102752323Y-53960000D01*
X102752323Y-56440000D02*
X102752323Y-58878000D01*
X102792323Y-51560000D02*
X102792323Y-53960000D01*
X102792323Y-56440000D02*
X102792323Y-58840000D01*
X102832323Y-51599000D02*
X102832323Y-53960000D01*
X102832323Y-56440000D02*
X102832323Y-58801000D01*
X102872323Y-51639000D02*
X102872323Y-53960000D01*
X102872323Y-56440000D02*
X102872323Y-58761000D01*
X102912323Y-51680000D02*
X102912323Y-53960000D01*
X102912323Y-56440000D02*
X102912323Y-58720000D01*
X102952323Y-51722000D02*
X102952323Y-53960000D01*
X102952323Y-56440000D02*
X102952323Y-58678000D01*
X102992323Y-51765000D02*
X102992323Y-58635000D01*
X103032323Y-51809000D02*
X103032323Y-58591000D01*
X103072323Y-51853000D02*
X103072323Y-58547000D01*
X103112323Y-51899000D02*
X103112323Y-58501000D01*
X103152323Y-51946000D02*
X103152323Y-58454000D01*
X103192323Y-51995000D02*
X103192323Y-58405000D01*
X103232323Y-52044000D02*
X103232323Y-58356000D01*
X103272323Y-52095000D02*
X103272323Y-58305000D01*
X103312323Y-52147000D02*
X103312323Y-58253000D01*
X103352323Y-52200000D02*
X103352323Y-58200000D01*
X103392323Y-52255000D02*
X103392323Y-58145000D01*
X103432323Y-52312000D02*
X103432323Y-58088000D01*
X103472323Y-52370000D02*
X103472323Y-58030000D01*
X103512323Y-52430000D02*
X103512323Y-57970000D01*
X103552323Y-52492000D02*
X103552323Y-57908000D01*
X103592323Y-52556000D02*
X103592323Y-57844000D01*
X103632323Y-52622000D02*
X103632323Y-57778000D01*
X103672323Y-52690000D02*
X103672323Y-57710000D01*
X103712323Y-52761000D02*
X103712323Y-57639000D01*
X103752323Y-52835000D02*
X103752323Y-57565000D01*
X103792323Y-52912000D02*
X103792323Y-57488000D01*
X103832323Y-52992000D02*
X103832323Y-57408000D01*
X103872323Y-53076000D02*
X103872323Y-57324000D01*
X103912323Y-53163000D02*
X103912323Y-57237000D01*
X103952323Y-53256000D02*
X103952323Y-57144000D01*
X103992323Y-53354000D02*
X103992323Y-57046000D01*
X104032323Y-53458000D02*
X104032323Y-56942000D01*
X104072323Y-53570000D02*
X104072323Y-56830000D01*
X104112323Y-53691000D02*
X104112323Y-56709000D01*
X104152323Y-53823000D02*
X104152323Y-56577000D01*
X104192323Y-53970000D02*
X104192323Y-56430000D01*
X104232323Y-54138000D02*
X104232323Y-56262000D01*
X104272323Y-54338000D02*
X104272323Y-56062000D01*
X104312323Y-54601000D02*
X104312323Y-55799000D01*
X104352323Y-55200000D02*
G75*
G02*
X94112323Y-55200000I-5120000J0D01*
G01*
X94112323Y-55200000D02*
G75*
G02*
X104352323Y-55200000I5120000J0D01*
G01*
%TO.C,J2*%
X132890000Y-42590000D02*
X132890000Y-45410000D01*
X132890000Y-42590000D02*
X134590000Y-41290000D01*
X132890000Y-45410000D02*
X134590000Y-46710000D01*
X134590000Y-41290000D02*
X143310000Y-41290000D01*
X134590000Y-46710000D02*
X143310000Y-46710000D01*
X143310000Y-41290000D02*
X143310000Y-46710000D01*
%TO.C,C4*%
X87835000Y-60180000D02*
X89365000Y-60180000D01*
X89365000Y-62020000D02*
X87835000Y-62020000D01*
%TO.C,J4*%
X121850000Y-44700000D02*
X122600000Y-44700000D01*
X122600000Y-41750000D02*
X125650000Y-41750000D01*
X122600000Y-44700000D02*
X122600000Y-41750000D01*
X128500000Y-47250000D02*
X129750000Y-47250000D01*
X128700000Y-41750000D02*
X125650000Y-41750000D01*
X128700000Y-44700000D02*
X128700000Y-41750000D01*
X129450000Y-44700000D02*
X128700000Y-44700000D01*
X129750000Y-47250000D02*
X129750000Y-46000000D01*
X123650000Y-46950000D02*
X121850000Y-46950000D01*
X121850000Y-46200000D01*
X123650000Y-46200000D01*
X123650000Y-46950000D01*
X126150000Y-46950000D02*
X125150000Y-46950000D01*
X125150000Y-46200000D01*
X126150000Y-46200000D01*
X126150000Y-46950000D01*
X129450000Y-46950000D02*
X127650000Y-46950000D01*
X127650000Y-46200000D01*
X129450000Y-46200000D01*
X129450000Y-46950000D01*
X129460000Y-46960000D02*
X121840000Y-46960000D01*
X121840000Y-40990000D01*
X129460000Y-40990000D01*
X129460000Y-46960000D01*
%TO.C,R13*%
X133390000Y-101187064D02*
X133390000Y-99732936D01*
X135210000Y-101187064D02*
X135210000Y-99732936D01*
%TO.C,R1*%
X140040000Y-66100000D02*
X140810000Y-66100000D01*
X148120000Y-66100000D02*
X147350000Y-66100000D01*
X140810000Y-64730000D02*
X147350000Y-64730000D01*
X147350000Y-67470000D01*
X140810000Y-67470000D01*
X140810000Y-64730000D01*
%TO.C,J1*%
X98550000Y-40850000D02*
X98550000Y-49150000D01*
X98550000Y-49150000D02*
X111400000Y-49150000D01*
X111400000Y-40850000D02*
X98550000Y-40850000D01*
X111400000Y-49150000D02*
X114250000Y-46600000D01*
X114250000Y-43450000D02*
X111400000Y-40850000D01*
X114250000Y-46600000D02*
X114250000Y-43450000D01*
%TO.C,R21*%
X138090000Y-107177064D02*
X138090000Y-105722936D01*
X139910000Y-107177064D02*
X139910000Y-105722936D01*
%TO.C,D5*%
X116130000Y-59480000D02*
X116130000Y-64920000D01*
X116130000Y-64920000D02*
X116260000Y-64920000D01*
X116260000Y-59480000D02*
X116130000Y-59480000D01*
X118940000Y-59480000D02*
X119070000Y-59480000D01*
X119070000Y-59480000D02*
X119070000Y-64920000D01*
X119070000Y-60260000D02*
X116130000Y-60260000D01*
X119070000Y-60380000D02*
X116130000Y-60380000D01*
X119070000Y-60500000D02*
X116130000Y-60500000D01*
X119070000Y-64920000D02*
X118940000Y-64920000D01*
%TO.C,R18*%
X128500000Y-81040000D02*
X128500000Y-81810000D01*
X128500000Y-89120000D02*
X128500000Y-88350000D01*
X129870000Y-81810000D02*
X127130000Y-81810000D01*
X127130000Y-88350000D01*
X129870000Y-88350000D01*
X129870000Y-81810000D01*
%TO.C,SW2*%
X136000000Y-54500000D02*
X136000000Y-59000000D01*
X138500000Y-60250000D02*
X140000000Y-60250000D01*
X140000000Y-53250000D02*
X138500000Y-53250000D01*
X142500000Y-59000000D02*
X142500000Y-54500000D01*
%TO.C,PWM2*%
X149710000Y-92764000D02*
X149710000Y-92920000D01*
X149710000Y-95080000D02*
X149710000Y-95236000D01*
X149710000Y-92764484D02*
G75*
G02*
X152941437Y-92920000I1560000J-1235516D01*
G01*
X150229039Y-92920000D02*
G75*
G02*
X152310961Y-92920000I1040961J-1080000D01*
G01*
X152310961Y-95080000D02*
G75*
G02*
X150229039Y-95080000I-1040961J1080000D01*
G01*
X152941437Y-95080000D02*
G75*
G02*
X149710000Y-95235516I-1671437J1080000D01*
G01*
%TO.C,U9*%
X120510000Y-61280000D02*
X120510000Y-62930000D01*
X120510000Y-64930000D02*
X120510000Y-66580000D01*
X120510000Y-66580000D02*
X130790000Y-66580000D01*
X130790000Y-61280000D02*
X120510000Y-61280000D01*
X130790000Y-66580000D02*
X130790000Y-61280000D01*
X120510000Y-62930000D02*
G75*
G02*
X120510000Y-64930000I0J-1000000D01*
G01*
%TO.C,SW1*%
X144250000Y-54500000D02*
X144250000Y-59000000D01*
X146750000Y-60250000D02*
X148250000Y-60250000D01*
X148250000Y-53250000D02*
X146750000Y-53250000D01*
X150750000Y-59000000D02*
X150750000Y-54500000D01*
%TO.C,R19*%
X125400000Y-81040000D02*
X125400000Y-81810000D01*
X125400000Y-89120000D02*
X125400000Y-88350000D01*
X126770000Y-81810000D02*
X124030000Y-81810000D01*
X124030000Y-88350000D01*
X126770000Y-88350000D01*
X126770000Y-81810000D01*
%TO.C,C14*%
X131200000Y-62125000D02*
X131200000Y-60595000D01*
X133040000Y-60595000D02*
X133040000Y-62125000D01*
%TO.C,R11*%
X95300000Y-66660000D02*
X95300000Y-67430000D01*
X95300000Y-74740000D02*
X95300000Y-73970000D01*
X93930000Y-73970000D02*
X96670000Y-73970000D01*
X96670000Y-67430000D01*
X93930000Y-67430000D01*
X93930000Y-73970000D01*
%TO.C,C10*%
X148105000Y-88000000D02*
X149635000Y-88000000D01*
X149635000Y-89840000D02*
X148105000Y-89840000D01*
%TO.C,R12*%
X99350000Y-66660000D02*
X99350000Y-67430000D01*
X99350000Y-74740000D02*
X99350000Y-73970000D01*
X97980000Y-73970000D02*
X100720000Y-73970000D01*
X100720000Y-67430000D01*
X97980000Y-67430000D01*
X97980000Y-73970000D01*
%TO.C,R2*%
X140040000Y-63000000D02*
X140810000Y-63000000D01*
X148120000Y-63000000D02*
X147350000Y-63000000D01*
X140810000Y-61630000D02*
X147350000Y-61630000D01*
X147350000Y-64370000D01*
X140810000Y-64370000D01*
X140810000Y-61630000D01*
%TO.C,PWM1*%
X143710000Y-92764000D02*
X143710000Y-92920000D01*
X143710000Y-95080000D02*
X143710000Y-95236000D01*
X143710000Y-92764484D02*
G75*
G02*
X146941437Y-92920000I1560000J-1235516D01*
G01*
X144229039Y-92920000D02*
G75*
G02*
X146310961Y-92920000I1040961J-1080000D01*
G01*
X146310961Y-95080000D02*
G75*
G02*
X144229039Y-95080000I-1040961J1080000D01*
G01*
X146941437Y-95080000D02*
G75*
G02*
X143710000Y-95235516I-1671437J1080000D01*
G01*
%TO.C,U6*%
X125540000Y-98130000D02*
X125540000Y-103330000D01*
X125540000Y-103330000D02*
X127190000Y-103330000D01*
X129190000Y-103330000D02*
X130840000Y-103330000D01*
X130840000Y-98130000D02*
X125540000Y-98130000D01*
X130840000Y-103330000D02*
X130840000Y-98130000D01*
X127190000Y-103330000D02*
G75*
G02*
X129190000Y-103330000I1000000J0D01*
G01*
%TO.C,C3*%
X84687651Y-52885000D02*
X85487651Y-52885000D01*
X85087651Y-52485000D02*
X85087651Y-53285000D01*
X89097349Y-51120000D02*
X89097349Y-59280000D01*
X89137349Y-51120000D02*
X89137349Y-59280000D01*
X89177349Y-51121000D02*
X89177349Y-59279000D01*
X89217349Y-51122000D02*
X89217349Y-59278000D01*
X89257349Y-51123000D02*
X89257349Y-59277000D01*
X89297349Y-51125000D02*
X89297349Y-59275000D01*
X89337349Y-51127000D02*
X89337349Y-59273000D01*
X89377349Y-51130000D02*
X89377349Y-59270000D01*
X89417349Y-51132000D02*
X89417349Y-59268000D01*
X89457349Y-51136000D02*
X89457349Y-59264000D01*
X89497349Y-51139000D02*
X89497349Y-59261000D01*
X89537349Y-51144000D02*
X89537349Y-59256000D01*
X89577349Y-51148000D02*
X89577349Y-59252000D01*
X89617349Y-51153000D02*
X89617349Y-59247000D01*
X89657349Y-51158000D02*
X89657349Y-59242000D01*
X89697349Y-51164000D02*
X89697349Y-59236000D01*
X89737349Y-51170000D02*
X89737349Y-59230000D01*
X89777349Y-51177000D02*
X89777349Y-59223000D01*
X89817349Y-51183000D02*
X89817349Y-54160000D01*
X89817349Y-56240000D02*
X89817349Y-59217000D01*
X89857349Y-51191000D02*
X89857349Y-54160000D01*
X89857349Y-56240000D02*
X89857349Y-59209000D01*
X89897349Y-51198000D02*
X89897349Y-54160000D01*
X89897349Y-56240000D02*
X89897349Y-59202000D01*
X89937349Y-51207000D02*
X89937349Y-54160000D01*
X89937349Y-56240000D02*
X89937349Y-59193000D01*
X89977349Y-51215000D02*
X89977349Y-54160000D01*
X89977349Y-56240000D02*
X89977349Y-59185000D01*
X90017349Y-51224000D02*
X90017349Y-54160000D01*
X90017349Y-56240000D02*
X90017349Y-59176000D01*
X90057349Y-51233000D02*
X90057349Y-54160000D01*
X90057349Y-56240000D02*
X90057349Y-59167000D01*
X90097349Y-51243000D02*
X90097349Y-54160000D01*
X90097349Y-56240000D02*
X90097349Y-59157000D01*
X90137349Y-51253000D02*
X90137349Y-54160000D01*
X90137349Y-56240000D02*
X90137349Y-59147000D01*
X90177349Y-51264000D02*
X90177349Y-54160000D01*
X90177349Y-56240000D02*
X90177349Y-59136000D01*
X90217349Y-51275000D02*
X90217349Y-54160000D01*
X90217349Y-56240000D02*
X90217349Y-59125000D01*
X90257349Y-51287000D02*
X90257349Y-54160000D01*
X90257349Y-56240000D02*
X90257349Y-59113000D01*
X90297349Y-51299000D02*
X90297349Y-54160000D01*
X90297349Y-56240000D02*
X90297349Y-59101000D01*
X90337349Y-51311000D02*
X90337349Y-54160000D01*
X90337349Y-56240000D02*
X90337349Y-59089000D01*
X90377349Y-51324000D02*
X90377349Y-54160000D01*
X90377349Y-56240000D02*
X90377349Y-59076000D01*
X90417349Y-51337000D02*
X90417349Y-54160000D01*
X90417349Y-56240000D02*
X90417349Y-59063000D01*
X90457349Y-51351000D02*
X90457349Y-54160000D01*
X90457349Y-56240000D02*
X90457349Y-59049000D01*
X90497349Y-51365000D02*
X90497349Y-54160000D01*
X90497349Y-56240000D02*
X90497349Y-59035000D01*
X90537349Y-51380000D02*
X90537349Y-54160000D01*
X90537349Y-56240000D02*
X90537349Y-59020000D01*
X90577349Y-51395000D02*
X90577349Y-54160000D01*
X90577349Y-56240000D02*
X90577349Y-59005000D01*
X90617349Y-51411000D02*
X90617349Y-54160000D01*
X90617349Y-56240000D02*
X90617349Y-58989000D01*
X90657349Y-51427000D02*
X90657349Y-54160000D01*
X90657349Y-56240000D02*
X90657349Y-58973000D01*
X90697349Y-51443000D02*
X90697349Y-54160000D01*
X90697349Y-56240000D02*
X90697349Y-58957000D01*
X90737349Y-51460000D02*
X90737349Y-54160000D01*
X90737349Y-56240000D02*
X90737349Y-58940000D01*
X90777349Y-51478000D02*
X90777349Y-54160000D01*
X90777349Y-56240000D02*
X90777349Y-58922000D01*
X90817349Y-51496000D02*
X90817349Y-54160000D01*
X90817349Y-56240000D02*
X90817349Y-58904000D01*
X90857349Y-51515000D02*
X90857349Y-54160000D01*
X90857349Y-56240000D02*
X90857349Y-58885000D01*
X90897349Y-51534000D02*
X90897349Y-54160000D01*
X90897349Y-56240000D02*
X90897349Y-58866000D01*
X90937349Y-51554000D02*
X90937349Y-54160000D01*
X90937349Y-56240000D02*
X90937349Y-58846000D01*
X90977349Y-51574000D02*
X90977349Y-54160000D01*
X90977349Y-56240000D02*
X90977349Y-58826000D01*
X91017349Y-51595000D02*
X91017349Y-54160000D01*
X91017349Y-56240000D02*
X91017349Y-58805000D01*
X91057349Y-51616000D02*
X91057349Y-54160000D01*
X91057349Y-56240000D02*
X91057349Y-58784000D01*
X91097349Y-51638000D02*
X91097349Y-54160000D01*
X91097349Y-56240000D02*
X91097349Y-58762000D01*
X91137349Y-51661000D02*
X91137349Y-54160000D01*
X91137349Y-56240000D02*
X91137349Y-58739000D01*
X91177349Y-51684000D02*
X91177349Y-54160000D01*
X91177349Y-56240000D02*
X91177349Y-58716000D01*
X91217349Y-51707000D02*
X91217349Y-54160000D01*
X91217349Y-56240000D02*
X91217349Y-58693000D01*
X91257349Y-51732000D02*
X91257349Y-54160000D01*
X91257349Y-56240000D02*
X91257349Y-58668000D01*
X91297349Y-51757000D02*
X91297349Y-54160000D01*
X91297349Y-56240000D02*
X91297349Y-58643000D01*
X91337349Y-51782000D02*
X91337349Y-54160000D01*
X91337349Y-56240000D02*
X91337349Y-58618000D01*
X91377349Y-51808000D02*
X91377349Y-54160000D01*
X91377349Y-56240000D02*
X91377349Y-58592000D01*
X91417349Y-51835000D02*
X91417349Y-54160000D01*
X91417349Y-56240000D02*
X91417349Y-58565000D01*
X91457349Y-51863000D02*
X91457349Y-54160000D01*
X91457349Y-56240000D02*
X91457349Y-58537000D01*
X91497349Y-51891000D02*
X91497349Y-54160000D01*
X91497349Y-56240000D02*
X91497349Y-58509000D01*
X91537349Y-51920000D02*
X91537349Y-54160000D01*
X91537349Y-56240000D02*
X91537349Y-58480000D01*
X91577349Y-51950000D02*
X91577349Y-54160000D01*
X91577349Y-56240000D02*
X91577349Y-58450000D01*
X91617349Y-51981000D02*
X91617349Y-54160000D01*
X91617349Y-56240000D02*
X91617349Y-58419000D01*
X91657349Y-52012000D02*
X91657349Y-54160000D01*
X91657349Y-56240000D02*
X91657349Y-58388000D01*
X91697349Y-52044000D02*
X91697349Y-54160000D01*
X91697349Y-56240000D02*
X91697349Y-58356000D01*
X91737349Y-52077000D02*
X91737349Y-54160000D01*
X91737349Y-56240000D02*
X91737349Y-58323000D01*
X91777349Y-52111000D02*
X91777349Y-54160000D01*
X91777349Y-56240000D02*
X91777349Y-58289000D01*
X91817349Y-52145000D02*
X91817349Y-54160000D01*
X91817349Y-56240000D02*
X91817349Y-58255000D01*
X91857349Y-52181000D02*
X91857349Y-54160000D01*
X91857349Y-56240000D02*
X91857349Y-58219000D01*
X91897349Y-52218000D02*
X91897349Y-58182000D01*
X91937349Y-52255000D02*
X91937349Y-58145000D01*
X91977349Y-52294000D02*
X91977349Y-58106000D01*
X92017349Y-52333000D02*
X92017349Y-58067000D01*
X92057349Y-52374000D02*
X92057349Y-58026000D01*
X92097349Y-52416000D02*
X92097349Y-57984000D01*
X92137349Y-52459000D02*
X92137349Y-57941000D01*
X92177349Y-52504000D02*
X92177349Y-57896000D01*
X92217349Y-52549000D02*
X92217349Y-57851000D01*
X92257349Y-52596000D02*
X92257349Y-57804000D01*
X92297349Y-52645000D02*
X92297349Y-57755000D01*
X92337349Y-52695000D02*
X92337349Y-57705000D01*
X92377349Y-52747000D02*
X92377349Y-57653000D01*
X92417349Y-52800000D02*
X92417349Y-57600000D01*
X92457349Y-52856000D02*
X92457349Y-57544000D01*
X92497349Y-52913000D02*
X92497349Y-57487000D01*
X92537349Y-52973000D02*
X92537349Y-57427000D01*
X92577349Y-53035000D02*
X92577349Y-57365000D01*
X92617349Y-53099000D02*
X92617349Y-57301000D01*
X92657349Y-53166000D02*
X92657349Y-57234000D01*
X92697349Y-53236000D02*
X92697349Y-57164000D01*
X92737349Y-53310000D02*
X92737349Y-57090000D01*
X92777349Y-53387000D02*
X92777349Y-57013000D01*
X92817349Y-53469000D02*
X92817349Y-56931000D01*
X92857349Y-53556000D02*
X92857349Y-56844000D01*
X92897349Y-53648000D02*
X92897349Y-56752000D01*
X92937349Y-53747000D02*
X92937349Y-56653000D01*
X92977349Y-53854000D02*
X92977349Y-56546000D01*
X93017349Y-53972000D02*
X93017349Y-56428000D01*
X93057349Y-54103000D02*
X93057349Y-56297000D01*
X93097349Y-54253000D02*
X93097349Y-56147000D01*
X93137349Y-54432000D02*
X93137349Y-55968000D01*
X93177349Y-54667000D02*
X93177349Y-55733000D01*
X93217349Y-55200000D02*
G75*
G02*
X84977349Y-55200000I-4120000J0D01*
G01*
X84977349Y-55200000D02*
G75*
G02*
X93217349Y-55200000I4120000J0D01*
G01*
%TO.C,R15*%
X133380000Y-107177064D02*
X133380000Y-105722936D01*
X135200000Y-107177064D02*
X135200000Y-105722936D01*
%TO.C,M2*%
X98550000Y-95850000D02*
X98550000Y-104150000D01*
X98550000Y-104150000D02*
X111400000Y-104150000D01*
X111400000Y-95850000D02*
X98550000Y-95850000D01*
X111400000Y-104150000D02*
X114250000Y-101600000D01*
X114250000Y-98450000D02*
X111400000Y-95850000D01*
X114250000Y-101600000D02*
X114250000Y-98450000D01*
%TO.C,C9*%
X108855113Y-72483000D02*
X108855113Y-71917000D01*
X108895113Y-72717000D02*
X108895113Y-71683000D01*
X108935113Y-72877000D02*
X108935113Y-71523000D01*
X108975113Y-73005000D02*
X108975113Y-71395000D01*
X109015113Y-73114000D02*
X109015113Y-71286000D01*
X109055113Y-73211000D02*
X109055113Y-71189000D01*
X109095113Y-73298000D02*
X109095113Y-71102000D01*
X109135113Y-73377000D02*
X109135113Y-71023000D01*
X109175113Y-73451000D02*
X109175113Y-70949000D01*
X109215113Y-73519000D02*
X109215113Y-70881000D01*
X109255113Y-73583000D02*
X109255113Y-70817000D01*
X109295113Y-73643000D02*
X109295113Y-70757000D01*
X109335113Y-73699000D02*
X109335113Y-70701000D01*
X109375113Y-73753000D02*
X109375113Y-70647000D01*
X109415113Y-73804000D02*
X109415113Y-70596000D01*
X109455113Y-71160000D02*
X109455113Y-70548000D01*
X109455113Y-73852000D02*
X109455113Y-73240000D01*
X109495113Y-71160000D02*
X109495113Y-70501000D01*
X109495113Y-73899000D02*
X109495113Y-73240000D01*
X109535113Y-71160000D02*
X109535113Y-70457000D01*
X109535113Y-73943000D02*
X109535113Y-73240000D01*
X109575113Y-71160000D02*
X109575113Y-70415000D01*
X109575113Y-73985000D02*
X109575113Y-73240000D01*
X109615113Y-71160000D02*
X109615113Y-70375000D01*
X109615113Y-74025000D02*
X109615113Y-73240000D01*
X109655113Y-71160000D02*
X109655113Y-70336000D01*
X109655113Y-74064000D02*
X109655113Y-73240000D01*
X109695113Y-71160000D02*
X109695113Y-70299000D01*
X109695113Y-74101000D02*
X109695113Y-73240000D01*
X109735113Y-71160000D02*
X109735113Y-70264000D01*
X109735113Y-74136000D02*
X109735113Y-73240000D01*
X109775113Y-71160000D02*
X109775113Y-70230000D01*
X109775113Y-74170000D02*
X109775113Y-73240000D01*
X109815113Y-71160000D02*
X109815113Y-70197000D01*
X109815113Y-74203000D02*
X109815113Y-73240000D01*
X109855113Y-71160000D02*
X109855113Y-70165000D01*
X109855113Y-74235000D02*
X109855113Y-73240000D01*
X109895113Y-71160000D02*
X109895113Y-70135000D01*
X109895113Y-74265000D02*
X109895113Y-73240000D01*
X109935113Y-71160000D02*
X109935113Y-70106000D01*
X109935113Y-74294000D02*
X109935113Y-73240000D01*
X109975113Y-71160000D02*
X109975113Y-70078000D01*
X109975113Y-74322000D02*
X109975113Y-73240000D01*
X110015113Y-71160000D02*
X110015113Y-70051000D01*
X110015113Y-74349000D02*
X110015113Y-73240000D01*
X110055113Y-71160000D02*
X110055113Y-70025000D01*
X110055113Y-74375000D02*
X110055113Y-73240000D01*
X110095113Y-71160000D02*
X110095113Y-70001000D01*
X110095113Y-74399000D02*
X110095113Y-73240000D01*
X110135113Y-71160000D02*
X110135113Y-69977000D01*
X110135113Y-74423000D02*
X110135113Y-73240000D01*
X110175113Y-71160000D02*
X110175113Y-69954000D01*
X110175113Y-74446000D02*
X110175113Y-73240000D01*
X110215113Y-71160000D02*
X110215113Y-69932000D01*
X110215113Y-74468000D02*
X110215113Y-73240000D01*
X110255113Y-71160000D02*
X110255113Y-69911000D01*
X110255113Y-74489000D02*
X110255113Y-73240000D01*
X110295113Y-71160000D02*
X110295113Y-69891000D01*
X110295113Y-74509000D02*
X110295113Y-73240000D01*
X110335113Y-71160000D02*
X110335113Y-69871000D01*
X110335113Y-74529000D02*
X110335113Y-73240000D01*
X110375113Y-71160000D02*
X110375113Y-69853000D01*
X110375113Y-74547000D02*
X110375113Y-73240000D01*
X110415113Y-71160000D02*
X110415113Y-69835000D01*
X110415113Y-74565000D02*
X110415113Y-73240000D01*
X110455113Y-71160000D02*
X110455113Y-69818000D01*
X110455113Y-74582000D02*
X110455113Y-73240000D01*
X110495113Y-71160000D02*
X110495113Y-69802000D01*
X110495113Y-74598000D02*
X110495113Y-73240000D01*
X110535113Y-71160000D02*
X110535113Y-69787000D01*
X110535113Y-74613000D02*
X110535113Y-73240000D01*
X110575113Y-71160000D02*
X110575113Y-69772000D01*
X110575113Y-74628000D02*
X110575113Y-73240000D01*
X110615113Y-71160000D02*
X110615113Y-69758000D01*
X110615113Y-74642000D02*
X110615113Y-73240000D01*
X110655113Y-71160000D02*
X110655113Y-69745000D01*
X110655113Y-74655000D02*
X110655113Y-73240000D01*
X110695113Y-71160000D02*
X110695113Y-69733000D01*
X110695113Y-74667000D02*
X110695113Y-73240000D01*
X110735113Y-71160000D02*
X110735113Y-69721000D01*
X110735113Y-74679000D02*
X110735113Y-73240000D01*
X110775113Y-71160000D02*
X110775113Y-69710000D01*
X110775113Y-74690000D02*
X110775113Y-73240000D01*
X110815113Y-71160000D02*
X110815113Y-69699000D01*
X110815113Y-74701000D02*
X110815113Y-73240000D01*
X110855113Y-71160000D02*
X110855113Y-69690000D01*
X110855113Y-74710000D02*
X110855113Y-73240000D01*
X110895113Y-71160000D02*
X110895113Y-69681000D01*
X110895113Y-74719000D02*
X110895113Y-73240000D01*
X110935113Y-71160000D02*
X110935113Y-69672000D01*
X110935113Y-74728000D02*
X110935113Y-73240000D01*
X110975113Y-71160000D02*
X110975113Y-69664000D01*
X110975113Y-74736000D02*
X110975113Y-73240000D01*
X111015113Y-71160000D02*
X111015113Y-69657000D01*
X111015113Y-74743000D02*
X111015113Y-73240000D01*
X111055113Y-71160000D02*
X111055113Y-69651000D01*
X111055113Y-74749000D02*
X111055113Y-73240000D01*
X111095113Y-71160000D02*
X111095113Y-69645000D01*
X111095113Y-74755000D02*
X111095113Y-73240000D01*
X111135113Y-71160000D02*
X111135113Y-69640000D01*
X111135113Y-74760000D02*
X111135113Y-73240000D01*
X111175113Y-71160000D02*
X111175113Y-69635000D01*
X111175113Y-74765000D02*
X111175113Y-73240000D01*
X111215113Y-71160000D02*
X111215113Y-69631000D01*
X111215113Y-74769000D02*
X111215113Y-73240000D01*
X111255113Y-71160000D02*
X111255113Y-69628000D01*
X111255113Y-74772000D02*
X111255113Y-73240000D01*
X111295113Y-71160000D02*
X111295113Y-69625000D01*
X111295113Y-74775000D02*
X111295113Y-73240000D01*
X111335113Y-71160000D02*
X111335113Y-69623000D01*
X111335113Y-74777000D02*
X111335113Y-73240000D01*
X111375113Y-71160000D02*
X111375113Y-69621000D01*
X111375113Y-74779000D02*
X111375113Y-73240000D01*
X111415113Y-71160000D02*
X111415113Y-69620000D01*
X111415113Y-74780000D02*
X111415113Y-73240000D01*
X111455113Y-71160000D02*
X111455113Y-69620000D01*
X111455113Y-74780000D02*
X111455113Y-73240000D01*
X114009888Y-73925000D02*
X114009888Y-73425000D01*
X114259888Y-73675000D02*
X113759888Y-73675000D01*
X114075113Y-72200000D02*
G75*
G02*
X108835113Y-72200000I-2620000J0D01*
G01*
X108835113Y-72200000D02*
G75*
G02*
X114075113Y-72200000I2620000J0D01*
G01*
%TO.C,U4*%
D10*
X104300000Y-59450000D02*
X115700000Y-59450000D01*
X115700000Y-67000000D01*
X104300000Y-67000000D01*
X104300000Y-59450000D01*
%TD*%
M02*
