%TF.GenerationSoftware,KiCad,Pcbnew,9.0.9.1*%
%TF.CreationDate,2026-09-10T21:59:59+09:00*%
%TF.ProjectId,TRIA_MotorDrive,54524941-5f4d-46f7-946f-724472697665,rev?*%
%TF.SameCoordinates,Original*%
%TF.FileFunction,Soldermask,Bot*%
%TF.FilePolarity,Negative*%
%FSLAX46Y46*%
G04 Gerber Fmt 4.6, Leading zero omitted, Abs format (unit mm)*
G04 Created by KiCad (PCBNEW 9.0.9.1) date 2026-09-10 21:59:59*
%MOMM*%
%LPD*%
G01*
G04 APERTURE LIST*
G04 Aperture macros list*
%AMRoundRect*
0 Rectangle with rounded corners*
0 $1 Rounding radius*
0 $2 $3 $4 $5 $6 $7 $8 $9 X,Y pos of 4 corners*
0 Add a 4 corners polygon primitive as box body*
4,1,4,$2,$3,$4,$5,$6,$7,$8,$9,$2,$3,0*
0 Add four circle primitives for the rounded corners*
1,1,$1+$1,$2,$3*
1,1,$1+$1,$4,$5*
1,1,$1+$1,$6,$7*
1,1,$1+$1,$8,$9*
0 Add four rect primitives between the rounded corners*
20,1,$1+$1,$2,$3,$4,$5,0*
20,1,$1+$1,$4,$5,$6,$7,0*
20,1,$1+$1,$6,$7,$8,$9,0*
20,1,$1+$1,$8,$9,$2,$3,0*%
G04 Aperture macros list end*
%ADD10RoundRect,0.250000X-0.350000X-0.350000X0.350000X-0.350000X0.350000X0.350000X-0.350000X0.350000X0*%
%ADD11C,1.200000*%
%ADD12R,1.050000X1.500000*%
%ADD13O,1.050000X1.500000*%
%ADD14C,1.600000*%
%ADD15RoundRect,0.250000X0.550000X0.550000X-0.550000X0.550000X-0.550000X-0.550000X0.550000X-0.550000X0*%
%ADD16RoundRect,0.250000X-0.725000X0.600000X-0.725000X-0.600000X0.725000X-0.600000X0.725000X0.600000X0*%
%ADD17O,1.950000X1.700000*%
%ADD18R,1.700000X1.700000*%
%ADD19C,1.700000*%
%ADD20RoundRect,0.250000X-0.750000X-0.750000X0.750000X-0.750000X0.750000X0.750000X-0.750000X0.750000X0*%
%ADD21C,2.000000*%
%ADD22RoundRect,0.760000X-1.140000X-1.140000X1.140000X-1.140000X1.140000X1.140000X-1.140000X1.140000X0*%
%ADD23C,3.800000*%
%ADD24RoundRect,0.250000X0.600000X0.750000X-0.600000X0.750000X-0.600000X-0.750000X0.600000X-0.750000X0*%
%ADD25O,1.700000X2.000000*%
%ADD26RoundRect,1.500000X1.500000X1.500000X-1.500000X1.500000X-1.500000X-1.500000X1.500000X-1.500000X0*%
%ADD27C,6.000000*%
%ADD28RoundRect,0.249999X-0.850001X0.850001X-0.850001X-0.850001X0.850001X-0.850001X0.850001X0.850001X0*%
%ADD29C,2.200000*%
%ADD30R,1.800000X1.800000*%
%ADD31C,1.800000*%
%ADD32RoundRect,0.250000X0.550000X-0.550000X0.550000X0.550000X-0.550000X0.550000X-0.550000X-0.550000X0*%
%ADD33RoundRect,0.250000X-0.550000X-0.550000X0.550000X-0.550000X0.550000X0.550000X-0.550000X0.550000X0*%
G04 APERTURE END LIST*
D10*
%TO.C,C1*%
X110377401Y-85100000D03*
D11*
X111877401Y-85100000D03*
%TD*%
D12*
%TO.C,U7*%
X112970000Y-80000000D03*
D13*
X111700000Y-80000000D03*
X110430000Y-80000000D03*
%TD*%
D14*
%TO.C,C6*%
X107550000Y-58300000D03*
X110050000Y-58300000D03*
%TD*%
%TO.C,C16*%
X112950000Y-77000000D03*
X110450000Y-77000000D03*
%TD*%
%TO.C,R17*%
X131390000Y-54000000D03*
X121230000Y-54000000D03*
%TD*%
D15*
%TO.C,U8*%
X132000000Y-108000000D03*
D14*
X132000000Y-105460000D03*
X124380000Y-105460000D03*
X124380000Y-108000000D03*
%TD*%
%TO.C,C15*%
X126940000Y-70000000D03*
X124440000Y-70000000D03*
%TD*%
D16*
%TO.C,J3*%
X121000000Y-80000000D03*
D17*
X121000000Y-82500000D03*
X121000000Y-85000000D03*
X121000000Y-87500000D03*
%TD*%
D18*
%TO.C,J5*%
X126930000Y-57280000D03*
D19*
X129470000Y-57280000D03*
%TD*%
D14*
%TO.C,C8*%
X112450000Y-68200000D03*
X109950000Y-68200000D03*
%TD*%
%TO.C,C5*%
X92650000Y-61200000D03*
X95150000Y-61200000D03*
%TD*%
D20*
%TO.C,C7*%
X96732323Y-55200000D03*
D21*
X101732323Y-55200000D03*
%TD*%
D22*
%TO.C,J2*%
X135600000Y-44000000D03*
D23*
X140600000Y-44000000D03*
%TD*%
D14*
%TO.C,C4*%
X87350000Y-61100000D03*
X89850000Y-61100000D03*
%TD*%
D24*
%TO.C,J4*%
X126900000Y-44500000D03*
D25*
X124400000Y-44500000D03*
%TD*%
D14*
%TO.C,R1*%
X139000000Y-66100000D03*
X149160000Y-66100000D03*
%TD*%
D26*
%TO.C,J1*%
X110000000Y-45000000D03*
D27*
X102800000Y-45000000D03*
%TD*%
D28*
%TO.C,D5*%
X117600000Y-58390000D03*
D29*
X117600000Y-66010000D03*
%TD*%
D14*
%TO.C,R18*%
X128500000Y-80000000D03*
X128500000Y-90160000D03*
%TD*%
D21*
%TO.C,SW2*%
X137000000Y-60000000D03*
X137000000Y-53500000D03*
X141500000Y-60000000D03*
X141500000Y-53500000D03*
%TD*%
D30*
%TO.C,PWM2*%
X150000000Y-94000000D03*
D31*
X152540000Y-94000000D03*
%TD*%
D32*
%TO.C,U9*%
X121840000Y-67740000D03*
D14*
X124380000Y-67740000D03*
X126920000Y-67740000D03*
X129460000Y-67740000D03*
X129460000Y-60120000D03*
X126920000Y-60120000D03*
X124380000Y-60120000D03*
X121840000Y-60120000D03*
%TD*%
D21*
%TO.C,SW1*%
X145250000Y-60000000D03*
X145250000Y-53500000D03*
X149750000Y-60000000D03*
X149750000Y-53500000D03*
%TD*%
D14*
%TO.C,R19*%
X125400000Y-80000000D03*
X125400000Y-90160000D03*
%TD*%
%TO.C,C14*%
X132120000Y-60110000D03*
X132120000Y-62610000D03*
%TD*%
%TO.C,R11*%
X95300000Y-75780000D03*
X95300000Y-65620000D03*
%TD*%
%TO.C,C10*%
X150120000Y-88920000D03*
X147620000Y-88920000D03*
%TD*%
%TO.C,R12*%
X99350000Y-75780000D03*
X99350000Y-65620000D03*
%TD*%
%TO.C,R2*%
X139000000Y-63000000D03*
X149160000Y-63000000D03*
%TD*%
D30*
%TO.C,PWM1*%
X144000000Y-94000000D03*
D31*
X146540000Y-94000000D03*
%TD*%
D15*
%TO.C,U6*%
X132000000Y-102000000D03*
D14*
X132000000Y-99460000D03*
X124380000Y-99460000D03*
X124380000Y-102000000D03*
%TD*%
D33*
%TO.C,C3*%
X87347349Y-55200000D03*
D14*
X90847349Y-55200000D03*
%TD*%
D26*
%TO.C,M2*%
X110000000Y-100000000D03*
D27*
X102800000Y-100000000D03*
%TD*%
D15*
%TO.C,C9*%
X112455113Y-72200000D03*
D14*
X110455113Y-72200000D03*
%TD*%
D21*
%TO.C,U4*%
X107500000Y-65000000D03*
X110000000Y-65000000D03*
X112500000Y-65000000D03*
%TD*%
M02*
