%TF.GenerationSoftware,KiCad,Pcbnew,9.0.9.1*%
%TF.CreationDate,2026-09-11T23:15:08+09:00*%
%TF.ProjectId,TRIA_CentralControlBoard,54524941-5f43-4656-9e74-72616c436f6e,rev?*%
%TF.SameCoordinates,Original*%
%TF.FileFunction,Copper,L2,Bot*%
%TF.FilePolarity,Positive*%
%FSLAX46Y46*%
G04 Gerber Fmt 4.6, Leading zero omitted, Abs format (unit mm)*
G04 Created by KiCad (PCBNEW 9.0.9.1) date 2026-09-11 23:15:08*
%MOMM*%
%LPD*%
G01*
G04 APERTURE LIST*
G04 Aperture macros list*
%AMRoundRect*
0 Rectangle with rounded corners*
0 $1 Rounding radius*
0 $2 $3 $4 $5 $6 $7 $8 $9 X,Y pos of 4 corners*
0 Add a 4 corners polygon primitive as box body*
4,1,4,$2,$3,$4,$5,$6,$7,$8,$9,$2,$3,0*
0 Add four circle primitives for the rounded corners*
1,1,$1+$1,$2,$3*
1,1,$1+$1,$4,$5*
1,1,$1+$1,$6,$7*
1,1,$1+$1,$8,$9*
0 Add four rect primitives between the rounded corners*
20,1,$1+$1,$2,$3,$4,$5,0*
20,1,$1+$1,$4,$5,$6,$7,0*
20,1,$1+$1,$6,$7,$8,$9,0*
20,1,$1+$1,$8,$9,$2,$3,0*%
%AMOutline5P*
0 Free polygon, 5 corners , with rotation*
0 The origin of the aperture is its center*
0 number of corners: always 5*
0 $1 to $10 corner X, Y*
0 $11 Rotation angle, in degrees counterclockwise*
0 create outline with 5 corners*
4,1,5,$1,$2,$3,$4,$5,$6,$7,$8,$9,$10,$1,$2,$11*%
%AMOutline6P*
0 Free polygon, 6 corners , with rotation*
0 The origin of the aperture is its center*
0 number of corners: always 6*
0 $1 to $12 corner X, Y*
0 $13 Rotation angle, in degrees counterclockwise*
0 create outline with 6 corners*
4,1,6,$1,$2,$3,$4,$5,$6,$7,$8,$9,$10,$11,$12,$1,$2,$13*%
%AMOutline7P*
0 Free polygon, 7 corners , with rotation*
0 The origin of the aperture is its center*
0 number of corners: always 7*
0 $1 to $14 corner X, Y*
0 $15 Rotation angle, in degrees counterclockwise*
0 create outline with 7 corners*
4,1,7,$1,$2,$3,$4,$5,$6,$7,$8,$9,$10,$11,$12,$13,$14,$1,$2,$15*%
%AMOutline8P*
0 Free polygon, 8 corners , with rotation*
0 The origin of the aperture is its center*
0 number of corners: always 8*
0 $1 to $16 corner X, Y*
0 $17 Rotation angle, in degrees counterclockwise*
0 create outline with 8 corners*
4,1,8,$1,$2,$3,$4,$5,$6,$7,$8,$9,$10,$11,$12,$13,$14,$15,$16,$1,$2,$17*%
G04 Aperture macros list end*
%TA.AperFunction,ComponentPad*%
%ADD10R,1.800000X1.800000*%
%TD*%
%TA.AperFunction,ComponentPad*%
%ADD11C,1.800000*%
%TD*%
%TA.AperFunction,ComponentPad*%
%ADD12C,1.600000*%
%TD*%
%TA.AperFunction,ComponentPad*%
%ADD13RoundRect,0.250000X-0.350000X0.350000X-0.350000X-0.350000X0.350000X-0.350000X0.350000X0.350000X0*%
%TD*%
%TA.AperFunction,ComponentPad*%
%ADD14C,1.200000*%
%TD*%
%TA.AperFunction,ComponentPad*%
%ADD15RoundRect,0.250000X0.600000X0.750000X-0.600000X0.750000X-0.600000X-0.750000X0.600000X-0.750000X0*%
%TD*%
%TA.AperFunction,ComponentPad*%
%ADD16O,1.700000X2.000000*%
%TD*%
%TA.AperFunction,ComponentPad*%
%ADD17RoundRect,0.760000X1.140000X-1.140000X1.140000X1.140000X-1.140000X1.140000X-1.140000X-1.140000X0*%
%TD*%
%TA.AperFunction,ComponentPad*%
%ADD18C,3.800000*%
%TD*%
%TA.AperFunction,ComponentPad*%
%ADD19R,1.700000X1.700000*%
%TD*%
%TA.AperFunction,ComponentPad*%
%ADD20C,1.700000*%
%TD*%
%TA.AperFunction,ComponentPad*%
%ADD21RoundRect,0.250000X-0.550000X-0.550000X0.550000X-0.550000X0.550000X0.550000X-0.550000X0.550000X0*%
%TD*%
%TA.AperFunction,ComponentPad*%
%ADD22R,1.650000X1.650000*%
%TD*%
%TA.AperFunction,ComponentPad*%
%ADD23C,1.508000*%
%TD*%
%TA.AperFunction,ComponentPad*%
%ADD24Outline8P,-0.825000X0.341726X-0.341726X0.825000X0.341726X0.825000X0.825000X0.341726X0.825000X-0.341726X0.341726X-0.825000X-0.341726X-0.825000X-0.825000X-0.341726X90.000000*%
%TD*%
%TA.AperFunction,ComponentPad*%
%ADD25O,1.650000X3.300000*%
%TD*%
G04 APERTURE END LIST*
D10*
%TO.P,5V,1,K*%
%TO.N,GNDD*%
X53470000Y-79560000D03*
D11*
%TO.P,5V,2,A*%
%TO.N,Net-(D1-A)*%
X53470000Y-77020000D03*
%TD*%
D12*
%TO.P,R6,1*%
%TO.N,LED2*%
X68000000Y-115000000D03*
%TO.P,R6,2*%
%TO.N,Net-(D4-A)*%
X78160000Y-115000000D03*
%TD*%
%TO.P,R17,1*%
%TO.N,Net-(J5-Pin_2)*%
X102630000Y-73010000D03*
%TO.P,R17,2*%
%TO.N,/CAN/CAN_H*%
X102630000Y-62850000D03*
%TD*%
D13*
%TO.P,C2,1*%
%TO.N,+3.3V*%
X71000000Y-71500000D03*
D14*
%TO.P,C2,2*%
%TO.N,GNDD*%
X71000000Y-73000000D03*
%TD*%
D15*
%TO.P,J7,1,Pin_1*%
%TO.N,/CAN/CAN_L*%
X120000000Y-59000000D03*
D16*
%TO.P,J7,2,Pin_2*%
%TO.N,/CAN/CAN_H*%
X117500000Y-59000000D03*
%TD*%
D12*
%TO.P,C15,1*%
%TO.N,VDD*%
X86140000Y-65340000D03*
%TO.P,C15,2*%
%TO.N,GNDD*%
X86140000Y-62840000D03*
%TD*%
%TO.P,R3,1*%
%TO.N,VDD*%
X67000000Y-77000000D03*
%TO.P,R3,2*%
%TO.N,Net-(D1-A)*%
X56840000Y-77000000D03*
%TD*%
D15*
%TO.P,J1,1,Pin_1*%
%TO.N,/CAN/CAN_L*%
X110000000Y-59000000D03*
D16*
%TO.P,J1,2,Pin_2*%
%TO.N,/CAN/CAN_H*%
X107500000Y-59000000D03*
%TD*%
D12*
%TO.P,R1,1*%
%TO.N,/Limit_Switch/LimitSwitch1*%
X82000000Y-85000000D03*
%TO.P,R1,2*%
%TO.N,+3.3V*%
X82000000Y-74840000D03*
%TD*%
D17*
%TO.P,J2,1,Pin_1*%
%TO.N,GNDD*%
X56000000Y-71000000D03*
D18*
%TO.P,J2,2,Pin_2*%
%TO.N,VDD*%
X56000000Y-66000000D03*
%TD*%
D15*
%TO.P,J9,1,Pin_1*%
%TO.N,/CAN/CAN_L*%
X120000000Y-83000000D03*
D16*
%TO.P,J9,2,Pin_2*%
%TO.N,/CAN/CAN_H*%
X117500000Y-83000000D03*
%TD*%
D12*
%TO.P,C1,1*%
%TO.N,VDD*%
X71000000Y-66000000D03*
%TO.P,C1,2*%
%TO.N,GNDD*%
X71000000Y-68500000D03*
%TD*%
D15*
%TO.P,Limit2,1,Pin_1*%
%TO.N,GNDD*%
X89000000Y-83000000D03*
D16*
%TO.P,Limit2,2,Pin_2*%
%TO.N,/Limit_Switch/LimitSwitch2*%
X86500000Y-83000000D03*
%TD*%
D12*
%TO.P,R2,1*%
%TO.N,/Limit_Switch/LimitSwitch2*%
X94000000Y-85000000D03*
%TO.P,R2,2*%
%TO.N,+3.3V*%
X94000000Y-74840000D03*
%TD*%
D15*
%TO.P,J8,1,Pin_1*%
%TO.N,/CAN/CAN_L*%
X120000000Y-67000000D03*
D16*
%TO.P,J8,2,Pin_2*%
%TO.N,/CAN/CAN_H*%
X117500000Y-67000000D03*
%TD*%
D19*
%TO.P,J5,1,Pin_1*%
%TO.N,/CAN/CAN_L*%
X99260000Y-65355000D03*
D20*
%TO.P,J5,2,Pin_2*%
%TO.N,Net-(J5-Pin_2)*%
X99260000Y-67895000D03*
%TD*%
D12*
%TO.P,R5,1*%
%TO.N,LED1*%
X68000000Y-111000000D03*
%TO.P,R5,2*%
%TO.N,Net-(D3-A)*%
X78160000Y-111000000D03*
%TD*%
D21*
%TO.P,U9,1,TXD*%
%TO.N,/CAN/CAN_TX*%
X88530000Y-60300000D03*
D12*
%TO.P,U9,2,VSS*%
%TO.N,GNDD*%
X88530000Y-62840000D03*
%TO.P,U9,3,VDD*%
%TO.N,VDD*%
X88530000Y-65380000D03*
%TO.P,U9,4,RXD*%
%TO.N,/CAN/CAN_RX*%
X88530000Y-67920000D03*
%TO.P,U9,5,Vio*%
%TO.N,+3.3V*%
X96150000Y-67920000D03*
%TO.P,U9,6,CANL*%
%TO.N,/CAN/CAN_L*%
X96150000Y-65380000D03*
%TO.P,U9,7,CANH*%
%TO.N,/CAN/CAN_H*%
X96150000Y-62840000D03*
%TO.P,U9,8,STBY*%
%TO.N,GNDD*%
X96150000Y-60300000D03*
%TD*%
D15*
%TO.P,J3,1,Pin_1*%
%TO.N,/CAN/CAN_L*%
X110000000Y-67000000D03*
D16*
%TO.P,J3,2,Pin_2*%
%TO.N,/CAN/CAN_H*%
X107500000Y-67000000D03*
%TD*%
D15*
%TO.P,Limit1,1,Pin_1*%
%TO.N,GNDD*%
X77000000Y-83000000D03*
D16*
%TO.P,Limit1,2,Pin_2*%
%TO.N,/Limit_Switch/LimitSwitch1*%
X74500000Y-83000000D03*
%TD*%
D10*
%TO.P,Limit1,1,K*%
%TO.N,GNDD*%
X88000000Y-113500000D03*
D11*
%TO.P,Limit1,2,A*%
%TO.N,Net-(D3-A)*%
X85460000Y-113500000D03*
%TD*%
D12*
%TO.P,C3,1*%
%TO.N,+3.3V*%
X70030000Y-86150000D03*
%TO.P,C3,2*%
%TO.N,GNDD*%
X67530000Y-86150000D03*
%TD*%
D10*
%TO.P,3.3V,1,K*%
%TO.N,GNDD*%
X53470000Y-84600000D03*
D11*
%TO.P,3.3V,2,A*%
%TO.N,Net-(D2-A)*%
X53470000Y-82060000D03*
%TD*%
D12*
%TO.P,C14,1*%
%TO.N,+3.3V*%
X96140000Y-70710000D03*
%TO.P,C14,2*%
%TO.N,GNDD*%
X93640000Y-70710000D03*
%TD*%
D15*
%TO.P,J10,1,Pin_1*%
%TO.N,/CAN/CAN_L*%
X120000000Y-75000000D03*
D16*
%TO.P,J10,2,Pin_2*%
%TO.N,/CAN/CAN_H*%
X117500000Y-75000000D03*
%TD*%
D15*
%TO.P,J6,1,Pin_1*%
%TO.N,/CAN/CAN_L*%
X110000000Y-83000000D03*
D16*
%TO.P,J6,2,Pin_2*%
%TO.N,/CAN/CAN_H*%
X107500000Y-83000000D03*
%TD*%
D12*
%TO.P,R4,1*%
%TO.N,+3.3V*%
X67000000Y-81000000D03*
%TO.P,R4,2*%
%TO.N,Net-(D2-A)*%
X56840000Y-81000000D03*
%TD*%
D10*
%TO.P,Limit2,1,K*%
%TO.N,GNDD*%
X95000000Y-113500000D03*
D11*
%TO.P,Limit2,2,A*%
%TO.N,Net-(D4-A)*%
X92460000Y-113500000D03*
%TD*%
D22*
%TO.P,U2,1,GP0*%
%TO.N,unconnected-(U2-GP0-Pad1)*%
X59870000Y-106890000D03*
D23*
%TO.P,U2,2,GP1*%
%TO.N,unconnected-(U2-GP1-Pad2)*%
X62410000Y-106890000D03*
D24*
%TO.P,U2,3,GND*%
%TO.N,GNDD*%
X64950000Y-106890000D03*
D23*
%TO.P,U2,4,GP2*%
%TO.N,LED1*%
X67490000Y-106890000D03*
%TO.P,U2,5,GP3*%
%TO.N,LED2*%
X70030000Y-106890000D03*
%TO.P,U2,6,GP4*%
%TO.N,unconnected-(U2-GP4-Pad6)*%
X72570000Y-106890000D03*
%TO.P,U2,7,GP5*%
%TO.N,unconnected-(U2-GP5-Pad7)*%
X75110000Y-106890000D03*
D24*
%TO.P,U2,8,GND*%
%TO.N,GNDD*%
X77650000Y-106890000D03*
D23*
%TO.P,U2,9,GP6*%
%TO.N,/CAN/CAN_TX*%
X80190000Y-106890000D03*
%TO.P,U2,10,GP7*%
%TO.N,/CAN/CAN_RX*%
X82730000Y-106890000D03*
%TO.P,U2,11,GP8*%
%TO.N,unconnected-(U2-GP8-Pad11)*%
X85270000Y-106890000D03*
%TO.P,U2,12,GP9*%
%TO.N,unconnected-(U2-GP9-Pad12)*%
X87810000Y-106890000D03*
D24*
%TO.P,U2,13,GND*%
%TO.N,GNDD*%
X90350000Y-106890000D03*
D23*
%TO.P,U2,14,GP10*%
%TO.N,unconnected-(U2-GP10-Pad14)*%
X92890000Y-106890000D03*
%TO.P,U2,15,GP11*%
%TO.N,unconnected-(U2-GP11-Pad15)*%
X95430000Y-106890000D03*
%TO.P,U2,16,GP12*%
%TO.N,unconnected-(U2-GP12-Pad16)*%
X97970000Y-106890000D03*
%TO.P,U2,17,GP13*%
%TO.N,unconnected-(U2-GP13-Pad17)*%
X100510000Y-106890000D03*
D24*
%TO.P,U2,18,GND*%
%TO.N,GNDD*%
X103050000Y-106890000D03*
D23*
%TO.P,U2,19,GP14*%
%TO.N,unconnected-(U2-GP14-Pad19)*%
X105590000Y-106890000D03*
%TO.P,U2,20,GP15*%
%TO.N,unconnected-(U2-GP15-Pad20)*%
X108130000Y-106890000D03*
D24*
%TO.P,U2,23,GND*%
%TO.N,GNDD*%
X103050000Y-89110000D03*
%TO.P,U2,28,GND*%
X90350000Y-89110000D03*
D23*
%TO.P,U2,29,GP22*%
%TO.N,unconnected-(U2-GP22-Pad29)*%
X87810000Y-89110000D03*
%TO.P,U2,30,RUN*%
%TO.N,unconnected-(U2-RUN-Pad30)*%
X85270000Y-89110000D03*
%TO.P,U2,31,GP26*%
%TO.N,unconnected-(U2-GP26-Pad31)*%
X82730000Y-89110000D03*
%TO.P,U2,32,GP27*%
%TO.N,/Limit_Switch/LimitSwitch2*%
X80190000Y-89110000D03*
D24*
%TO.P,U2,33,GND*%
%TO.N,GNDD*%
X77650000Y-89110000D03*
D23*
%TO.P,U2,34,GP28*%
%TO.N,/Limit_Switch/LimitSwitch1*%
X75110000Y-89110000D03*
%TO.P,U2,35,ADC_REF*%
%TO.N,unconnected-(U2-ADC_REF-Pad35)*%
X72570000Y-89110000D03*
D25*
%TO.P,U2,36,3V3(OUT)*%
%TO.N,+3.3V*%
X70030000Y-89935000D03*
D23*
%TO.P,U2,37,3V3_EN*%
%TO.N,GNDD*%
X67490000Y-89110000D03*
D24*
%TO.P,U2,38,GND*%
X64950000Y-89110000D03*
D23*
%TO.P,U2,39,VSYS*%
%TO.N,unconnected-(U2-VSYS-Pad39)*%
X62410000Y-89110000D03*
%TO.P,U2,40,VBUS*%
%TO.N,unconnected-(U2-VBUS-Pad40)*%
X59870000Y-89110000D03*
%TO.P,U2,CSN,GP17*%
%TO.N,unconnected-(U2-GP17-PadCSN)*%
X105590000Y-89110000D03*
%TO.P,U2,INTN,GP21*%
%TO.N,unconnected-(U2-GP21-PadINTN)*%
X92890000Y-89110000D03*
%TO.P,U2,MISO,GP16*%
%TO.N,unconnected-(U2-GP16-PadMISO)*%
X108130000Y-89110000D03*
%TO.P,U2,MOSI,GP19*%
%TO.N,unconnected-(U2-GP19-PadMOSI)*%
X97970000Y-89110000D03*
%TO.P,U2,RSTN,GP20*%
%TO.N,unconnected-(U2-GP20-PadRSTN)*%
X95430000Y-89110000D03*
%TO.P,U2,SCLK,GP18*%
%TO.N,unconnected-(U2-GP18-PadSCLK)*%
X100510000Y-89110000D03*
%TD*%
D15*
%TO.P,J4,1,Pin_1*%
%TO.N,/CAN/CAN_L*%
X110000000Y-75000000D03*
D16*
%TO.P,J4,2,Pin_2*%
%TO.N,/CAN/CAN_H*%
X107500000Y-75000000D03*
%TD*%
%TA.AperFunction,Conductor*%
%TO.N,GNDD*%
G36*
X67024075Y-88917007D02*
G01*
X66990000Y-89044174D01*
X66990000Y-89175826D01*
X67024075Y-89302993D01*
X67056988Y-89360000D01*
X65440748Y-89360000D01*
X65462518Y-89322292D01*
X65500000Y-89182409D01*
X65500000Y-89037591D01*
X65462518Y-88897708D01*
X65440748Y-88860000D01*
X67056988Y-88860000D01*
X67024075Y-88917007D01*
G37*
%TD.AperFunction*%
%TA.AperFunction,Conductor*%
G36*
X88130000Y-62892661D02*
G01*
X88157259Y-62994394D01*
X88209920Y-63085606D01*
X88284394Y-63160080D01*
X88375606Y-63212741D01*
X88477339Y-63240000D01*
X88483553Y-63240000D01*
X87804076Y-63919474D01*
X87848652Y-63951861D01*
X87941628Y-63999234D01*
X87992425Y-64047208D01*
X88009220Y-64115029D01*
X87986683Y-64181164D01*
X87941630Y-64220203D01*
X87848388Y-64267713D01*
X87682786Y-64388028D01*
X87538032Y-64532782D01*
X87538028Y-64532787D01*
X87449848Y-64654157D01*
X87394518Y-64696823D01*
X87324905Y-64702802D01*
X87263110Y-64670196D01*
X87249214Y-64654161D01*
X87131966Y-64492781D01*
X86987219Y-64348034D01*
X86987213Y-64348028D01*
X86821611Y-64227713D01*
X86767621Y-64200203D01*
X86716825Y-64152228D01*
X86700031Y-64084407D01*
X86722569Y-64018272D01*
X86767624Y-63979233D01*
X86821349Y-63951859D01*
X86865921Y-63919474D01*
X86186447Y-63240000D01*
X86192661Y-63240000D01*
X86294394Y-63212741D01*
X86385606Y-63160080D01*
X86460080Y-63085606D01*
X86512741Y-62994394D01*
X86540000Y-62892661D01*
X86540000Y-62886447D01*
X87219473Y-63565921D01*
X87234681Y-63544991D01*
X87290011Y-63502326D01*
X87359625Y-63496347D01*
X87421420Y-63528953D01*
X87435318Y-63544992D01*
X87450524Y-63565922D01*
X88130000Y-62886446D01*
X88130000Y-62892661D01*
G37*
%TD.AperFunction*%
%TA.AperFunction,Conductor*%
G36*
X135002702Y-50500617D02*
G01*
X135386773Y-50517386D01*
X135397505Y-50518326D01*
X135775963Y-50568150D01*
X135786601Y-50570025D01*
X136159279Y-50652647D01*
X136169720Y-50655445D01*
X136533765Y-50770227D01*
X136543911Y-50773920D01*
X136896578Y-50920000D01*
X136906369Y-50924566D01*
X137244942Y-51100816D01*
X137254310Y-51106224D01*
X137576244Y-51311318D01*
X137585105Y-51317523D01*
X137887930Y-51549889D01*
X137896217Y-51556843D01*
X138177635Y-51814715D01*
X138185284Y-51822364D01*
X138443156Y-52103782D01*
X138450110Y-52112069D01*
X138682476Y-52414894D01*
X138688681Y-52423755D01*
X138893775Y-52745689D01*
X138899183Y-52755057D01*
X139075430Y-53093623D01*
X139080002Y-53103427D01*
X139226075Y-53456078D01*
X139229775Y-53466244D01*
X139344553Y-53830276D01*
X139347353Y-53840724D01*
X139429972Y-54213390D01*
X139431850Y-54224044D01*
X139453559Y-54388938D01*
X139478139Y-54575648D01*
X139481671Y-54602472D01*
X139482614Y-54613248D01*
X139499382Y-54997297D01*
X139499500Y-55002706D01*
X139499500Y-114997293D01*
X139499382Y-115002702D01*
X139482614Y-115386751D01*
X139481671Y-115397527D01*
X139431850Y-115775955D01*
X139429972Y-115786609D01*
X139347353Y-116159275D01*
X139344553Y-116169723D01*
X139229775Y-116533755D01*
X139226075Y-116543921D01*
X139080002Y-116896572D01*
X139075430Y-116906376D01*
X138899183Y-117244942D01*
X138893775Y-117254310D01*
X138688681Y-117576244D01*
X138682476Y-117585105D01*
X138450110Y-117887930D01*
X138443156Y-117896217D01*
X138185284Y-118177635D01*
X138177635Y-118185284D01*
X137896217Y-118443156D01*
X137887930Y-118450110D01*
X137585105Y-118682476D01*
X137576244Y-118688681D01*
X137254310Y-118893775D01*
X137244942Y-118899183D01*
X136906376Y-119075430D01*
X136896572Y-119080002D01*
X136543921Y-119226075D01*
X136533755Y-119229775D01*
X136169723Y-119344553D01*
X136159275Y-119347353D01*
X135786609Y-119429972D01*
X135775955Y-119431850D01*
X135397527Y-119481671D01*
X135386751Y-119482614D01*
X135002703Y-119499382D01*
X134997294Y-119499500D01*
X55002706Y-119499500D01*
X54997297Y-119499382D01*
X54613248Y-119482614D01*
X54602474Y-119481671D01*
X54540007Y-119473447D01*
X54224044Y-119431850D01*
X54213390Y-119429972D01*
X53840724Y-119347353D01*
X53830276Y-119344553D01*
X53466244Y-119229775D01*
X53456078Y-119226075D01*
X53103427Y-119080002D01*
X53093623Y-119075430D01*
X52755057Y-118899183D01*
X52745689Y-118893775D01*
X52423755Y-118688681D01*
X52414894Y-118682476D01*
X52112069Y-118450110D01*
X52103782Y-118443156D01*
X51822364Y-118185284D01*
X51814715Y-118177635D01*
X51556843Y-117896217D01*
X51549889Y-117887930D01*
X51317523Y-117585105D01*
X51311318Y-117576244D01*
X51106224Y-117254310D01*
X51100816Y-117244942D01*
X51062063Y-117170498D01*
X50924566Y-116906369D01*
X50919997Y-116896572D01*
X50773920Y-116543911D01*
X50770224Y-116533755D01*
X50738830Y-116434186D01*
X50655445Y-116169720D01*
X50652646Y-116159275D01*
X50608921Y-115962047D01*
X50570025Y-115786601D01*
X50568149Y-115775955D01*
X50518326Y-115397505D01*
X50517386Y-115386773D01*
X50500618Y-115002702D01*
X50500500Y-114997293D01*
X50500500Y-114857744D01*
X52829500Y-114857744D01*
X52829500Y-115142255D01*
X52829501Y-115142271D01*
X52866636Y-115424341D01*
X52866637Y-115424346D01*
X52866638Y-115424352D01*
X52940278Y-115699181D01*
X53001595Y-115847213D01*
X53049159Y-115962043D01*
X53049164Y-115962054D01*
X53191422Y-116208451D01*
X53364628Y-116434179D01*
X53364634Y-116434186D01*
X53565813Y-116635365D01*
X53565820Y-116635371D01*
X53791548Y-116808577D01*
X54037945Y-116950835D01*
X54037950Y-116950837D01*
X54037953Y-116950839D01*
X54300819Y-117059722D01*
X54575648Y-117133362D01*
X54857738Y-117170500D01*
X54857745Y-117170500D01*
X55142255Y-117170500D01*
X55142262Y-117170500D01*
X55424352Y-117133362D01*
X55699181Y-117059722D01*
X55962047Y-116950839D01*
X56208452Y-116808577D01*
X56434181Y-116635370D01*
X56635370Y-116434181D01*
X56808577Y-116208452D01*
X56950839Y-115962047D01*
X57059722Y-115699181D01*
X57133362Y-115424352D01*
X57170500Y-115142262D01*
X57170500Y-114897648D01*
X66699500Y-114897648D01*
X66699500Y-115102351D01*
X66731522Y-115304534D01*
X66794781Y-115499223D01*
X66851767Y-115611062D01*
X66887378Y-115680953D01*
X66887715Y-115681613D01*
X67008028Y-115847213D01*
X67152786Y-115991971D01*
X67274607Y-116080477D01*
X67318390Y-116112287D01*
X67431114Y-116169723D01*
X67500776Y-116205218D01*
X67500778Y-116205218D01*
X67500781Y-116205220D01*
X67605137Y-116239127D01*
X67695465Y-116268477D01*
X67796557Y-116284488D01*
X67897648Y-116300500D01*
X67897649Y-116300500D01*
X68102351Y-116300500D01*
X68102352Y-116300500D01*
X68304534Y-116268477D01*
X68499219Y-116205220D01*
X68681610Y-116112287D01*
X68774590Y-116044732D01*
X68847213Y-115991971D01*
X68847215Y-115991968D01*
X68847219Y-115991966D01*
X68991966Y-115847219D01*
X68991968Y-115847215D01*
X68991971Y-115847213D01*
X69055676Y-115759529D01*
X69112287Y-115681610D01*
X69205220Y-115499219D01*
X69268477Y-115304534D01*
X69300500Y-115102352D01*
X69300500Y-114897648D01*
X76859500Y-114897648D01*
X76859500Y-115102351D01*
X76891522Y-115304534D01*
X76954781Y-115499223D01*
X77011767Y-115611062D01*
X77047378Y-115680953D01*
X77047715Y-115681613D01*
X77168028Y-115847213D01*
X77312786Y-115991971D01*
X77434607Y-116080477D01*
X77478390Y-116112287D01*
X77591114Y-116169723D01*
X77660776Y-116205218D01*
X77660778Y-116205218D01*
X77660781Y-116205220D01*
X77765137Y-116239127D01*
X77855465Y-116268477D01*
X77956557Y-116284488D01*
X78057648Y-116300500D01*
X78057649Y-116300500D01*
X78262351Y-116300500D01*
X78262352Y-116300500D01*
X78464534Y-116268477D01*
X78659219Y-116205220D01*
X78841610Y-116112287D01*
X78934590Y-116044732D01*
X79007213Y-115991971D01*
X79007215Y-115991968D01*
X79007219Y-115991966D01*
X79151966Y-115847219D01*
X79151968Y-115847215D01*
X79151971Y-115847213D01*
X79215676Y-115759529D01*
X79272287Y-115681610D01*
X79365220Y-115499219D01*
X79428477Y-115304534D01*
X79460500Y-115102352D01*
X79460500Y-114897648D01*
X79444700Y-114797895D01*
X79428477Y-114695465D01*
X79370712Y-114517684D01*
X79365220Y-114500781D01*
X79365218Y-114500778D01*
X79365218Y-114500776D01*
X79308233Y-114388938D01*
X79272287Y-114318390D01*
X79259521Y-114300819D01*
X79151971Y-114152786D01*
X79007213Y-114008028D01*
X78841613Y-113887715D01*
X78841612Y-113887714D01*
X78841610Y-113887713D01*
X78736399Y-113834105D01*
X78659223Y-113794781D01*
X78464534Y-113731522D01*
X78289995Y-113703878D01*
X78262352Y-113699500D01*
X78057648Y-113699500D01*
X78033329Y-113703351D01*
X77855465Y-113731522D01*
X77660776Y-113794781D01*
X77478386Y-113887715D01*
X77312786Y-114008028D01*
X77168028Y-114152786D01*
X77047715Y-114318386D01*
X76954781Y-114500776D01*
X76891522Y-114695465D01*
X76859500Y-114897648D01*
X69300500Y-114897648D01*
X69284700Y-114797895D01*
X69268477Y-114695465D01*
X69210712Y-114517684D01*
X69205220Y-114500781D01*
X69205218Y-114500778D01*
X69205218Y-114500776D01*
X69148233Y-114388938D01*
X69112287Y-114318390D01*
X69099521Y-114300819D01*
X68991971Y-114152786D01*
X68847213Y-114008028D01*
X68681613Y-113887715D01*
X68681612Y-113887714D01*
X68681610Y-113887713D01*
X68576399Y-113834105D01*
X68499223Y-113794781D01*
X68304534Y-113731522D01*
X68129995Y-113703878D01*
X68102352Y-113699500D01*
X67897648Y-113699500D01*
X67873329Y-113703351D01*
X67695465Y-113731522D01*
X67500776Y-113794781D01*
X67318386Y-113887715D01*
X67152786Y-114008028D01*
X67008028Y-114152786D01*
X66887715Y-114318386D01*
X66794781Y-114500776D01*
X66731522Y-114695465D01*
X66699500Y-114897648D01*
X57170500Y-114897648D01*
X57170500Y-114857738D01*
X57133362Y-114575648D01*
X57059722Y-114300819D01*
X56950839Y-114037953D01*
X56950837Y-114037950D01*
X56950835Y-114037945D01*
X56808577Y-113791548D01*
X56635371Y-113565820D01*
X56635365Y-113565813D01*
X56459330Y-113389778D01*
X84059500Y-113389778D01*
X84059500Y-113610221D01*
X84093985Y-113827952D01*
X84162103Y-114037603D01*
X84162104Y-114037606D01*
X84262187Y-114234025D01*
X84391752Y-114412358D01*
X84391756Y-114412363D01*
X84547636Y-114568243D01*
X84547641Y-114568247D01*
X84703192Y-114681260D01*
X84725978Y-114697815D01*
X84842501Y-114757187D01*
X84922393Y-114797895D01*
X84922396Y-114797896D01*
X85027221Y-114831955D01*
X85132049Y-114866015D01*
X85349778Y-114900500D01*
X85349779Y-114900500D01*
X85570221Y-114900500D01*
X85570222Y-114900500D01*
X85787951Y-114866015D01*
X85997606Y-114797895D01*
X86194022Y-114697815D01*
X86372365Y-114568242D01*
X86422924Y-114517682D01*
X86484245Y-114484198D01*
X86553936Y-114489182D01*
X86609870Y-114531053D01*
X86626786Y-114562030D01*
X86656646Y-114642087D01*
X86656649Y-114642093D01*
X86742809Y-114757187D01*
X86742812Y-114757190D01*
X86857906Y-114843350D01*
X86857913Y-114843354D01*
X86992620Y-114893596D01*
X86992627Y-114893598D01*
X87052155Y-114899999D01*
X87052172Y-114900000D01*
X87750000Y-114900000D01*
X87750000Y-113875277D01*
X87826306Y-113919333D01*
X87940756Y-113950000D01*
X88059244Y-113950000D01*
X88173694Y-113919333D01*
X88250000Y-113875277D01*
X88250000Y-114900000D01*
X88947828Y-114900000D01*
X88947844Y-114899999D01*
X89007372Y-114893598D01*
X89007379Y-114893596D01*
X89142086Y-114843354D01*
X89142093Y-114843350D01*
X89257187Y-114757190D01*
X89257190Y-114757187D01*
X89343350Y-114642093D01*
X89343354Y-114642086D01*
X89393596Y-114507379D01*
X89393598Y-114507372D01*
X89399999Y-114447844D01*
X89400000Y-114447827D01*
X89400000Y-113750000D01*
X88375278Y-113750000D01*
X88419333Y-113673694D01*
X88450000Y-113559244D01*
X88450000Y-113440756D01*
X88436340Y-113389778D01*
X91059500Y-113389778D01*
X91059500Y-113610221D01*
X91093985Y-113827952D01*
X91162103Y-114037603D01*
X91162104Y-114037606D01*
X91262187Y-114234025D01*
X91391752Y-114412358D01*
X91391756Y-114412363D01*
X91547636Y-114568243D01*
X91547641Y-114568247D01*
X91703192Y-114681260D01*
X91725978Y-114697815D01*
X91842501Y-114757187D01*
X91922393Y-114797895D01*
X91922396Y-114797896D01*
X92027221Y-114831955D01*
X92132049Y-114866015D01*
X92349778Y-114900500D01*
X92349779Y-114900500D01*
X92570221Y-114900500D01*
X92570222Y-114900500D01*
X92787951Y-114866015D01*
X92997606Y-114797895D01*
X93194022Y-114697815D01*
X93372365Y-114568242D01*
X93422924Y-114517682D01*
X93484245Y-114484198D01*
X93553936Y-114489182D01*
X93609870Y-114531053D01*
X93626786Y-114562030D01*
X93656646Y-114642087D01*
X93656649Y-114642093D01*
X93742809Y-114757187D01*
X93742812Y-114757190D01*
X93857906Y-114843350D01*
X93857913Y-114843354D01*
X93992620Y-114893596D01*
X93992627Y-114893598D01*
X94052155Y-114899999D01*
X94052172Y-114900000D01*
X94750000Y-114900000D01*
X94750000Y-113875277D01*
X94826306Y-113919333D01*
X94940756Y-113950000D01*
X95059244Y-113950000D01*
X95173694Y-113919333D01*
X95250000Y-113875277D01*
X95250000Y-114900000D01*
X95947828Y-114900000D01*
X95947844Y-114899999D01*
X96007372Y-114893598D01*
X96007379Y-114893596D01*
X96103504Y-114857744D01*
X132829500Y-114857744D01*
X132829500Y-115142255D01*
X132829501Y-115142271D01*
X132866636Y-115424341D01*
X132866637Y-115424346D01*
X132866638Y-115424352D01*
X132940278Y-115699181D01*
X133001595Y-115847213D01*
X133049159Y-115962043D01*
X133049164Y-115962054D01*
X133191422Y-116208451D01*
X133364628Y-116434179D01*
X133364634Y-116434186D01*
X133565813Y-116635365D01*
X133565820Y-116635371D01*
X133791548Y-116808577D01*
X134037945Y-116950835D01*
X134037950Y-116950837D01*
X134037953Y-116950839D01*
X134300819Y-117059722D01*
X134575648Y-117133362D01*
X134857738Y-117170500D01*
X134857745Y-117170500D01*
X135142255Y-117170500D01*
X135142262Y-117170500D01*
X135424352Y-117133362D01*
X135699181Y-117059722D01*
X135962047Y-116950839D01*
X136208452Y-116808577D01*
X136434181Y-116635370D01*
X136635370Y-116434181D01*
X136808577Y-116208452D01*
X136950839Y-115962047D01*
X137059722Y-115699181D01*
X137133362Y-115424352D01*
X137170500Y-115142262D01*
X137170500Y-114857738D01*
X137133362Y-114575648D01*
X137059722Y-114300819D01*
X136950839Y-114037953D01*
X136950837Y-114037950D01*
X136950835Y-114037945D01*
X136808577Y-113791548D01*
X136635371Y-113565820D01*
X136635365Y-113565813D01*
X136434186Y-113364634D01*
X136434179Y-113364628D01*
X136208451Y-113191422D01*
X135962054Y-113049164D01*
X135962043Y-113049159D01*
X135898261Y-113022740D01*
X135699181Y-112940278D01*
X135424352Y-112866638D01*
X135424346Y-112866637D01*
X135424341Y-112866636D01*
X135142271Y-112829501D01*
X135142268Y-112829500D01*
X135142262Y-112829500D01*
X134857738Y-112829500D01*
X134857732Y-112829500D01*
X134857728Y-112829501D01*
X134575658Y-112866636D01*
X134575651Y-112866637D01*
X134575648Y-112866638D01*
X134300819Y-112940278D01*
X134247422Y-112962396D01*
X134037956Y-113049159D01*
X134037945Y-113049164D01*
X133791548Y-113191422D01*
X133565820Y-113364628D01*
X133565813Y-113364634D01*
X133364634Y-113565813D01*
X133364628Y-113565820D01*
X133191422Y-113791548D01*
X133049164Y-114037945D01*
X133049159Y-114037956D01*
X133001595Y-114152786D01*
X132940278Y-114300819D01*
X132868623Y-114568242D01*
X132866639Y-114575645D01*
X132866636Y-114575658D01*
X132829501Y-114857728D01*
X132829500Y-114857744D01*
X96103504Y-114857744D01*
X96142086Y-114843354D01*
X96142093Y-114843350D01*
X96257186Y-114757191D01*
X96257190Y-114757187D01*
X96343350Y-114642093D01*
X96343354Y-114642086D01*
X96393596Y-114507379D01*
X96393598Y-114507372D01*
X96399999Y-114447844D01*
X96400000Y-114447827D01*
X96400000Y-113750000D01*
X95375278Y-113750000D01*
X95419333Y-113673694D01*
X95450000Y-113559244D01*
X95450000Y-113440756D01*
X95419333Y-113326306D01*
X95375278Y-113250000D01*
X96400000Y-113250000D01*
X96400000Y-112552172D01*
X96399999Y-112552155D01*
X96393598Y-112492627D01*
X96393596Y-112492620D01*
X96343354Y-112357913D01*
X96343350Y-112357906D01*
X96257190Y-112242812D01*
X96257187Y-112242809D01*
X96142093Y-112156649D01*
X96142086Y-112156645D01*
X96007379Y-112106403D01*
X96007372Y-112106401D01*
X95947844Y-112100000D01*
X95250000Y-112100000D01*
X95250000Y-113124722D01*
X95173694Y-113080667D01*
X95059244Y-113050000D01*
X94940756Y-113050000D01*
X94826306Y-113080667D01*
X94750000Y-113124722D01*
X94750000Y-112100000D01*
X94052155Y-112100000D01*
X93992627Y-112106401D01*
X93992620Y-112106403D01*
X93857913Y-112156645D01*
X93857906Y-112156649D01*
X93742812Y-112242809D01*
X93742809Y-112242812D01*
X93656649Y-112357906D01*
X93656643Y-112357918D01*
X93626785Y-112437969D01*
X93584914Y-112493903D01*
X93519449Y-112518319D01*
X93451176Y-112503467D01*
X93422923Y-112482316D01*
X93372363Y-112431756D01*
X93372358Y-112431752D01*
X93194025Y-112302187D01*
X93194024Y-112302186D01*
X93194022Y-112302185D01*
X93127867Y-112268477D01*
X92997606Y-112202104D01*
X92997603Y-112202103D01*
X92787952Y-112133985D01*
X92679086Y-112116742D01*
X92570222Y-112099500D01*
X92349778Y-112099500D01*
X92277201Y-112110995D01*
X92132047Y-112133985D01*
X91922396Y-112202103D01*
X91922393Y-112202104D01*
X91725974Y-112302187D01*
X91547641Y-112431752D01*
X91547636Y-112431756D01*
X91391756Y-112587636D01*
X91391752Y-112587641D01*
X91262187Y-112765974D01*
X91162104Y-112962393D01*
X91162103Y-112962396D01*
X91093985Y-113172047D01*
X91059500Y-113389778D01*
X88436340Y-113389778D01*
X88419333Y-113326306D01*
X88375278Y-113250000D01*
X89400000Y-113250000D01*
X89400000Y-112552172D01*
X89399999Y-112552155D01*
X89393598Y-112492627D01*
X89393596Y-112492620D01*
X89343354Y-112357913D01*
X89343350Y-112357906D01*
X89257190Y-112242812D01*
X89257187Y-112242809D01*
X89142093Y-112156649D01*
X89142086Y-112156645D01*
X89007379Y-112106403D01*
X89007372Y-112106401D01*
X88947844Y-112100000D01*
X88250000Y-112100000D01*
X88250000Y-113124722D01*
X88173694Y-113080667D01*
X88059244Y-113050000D01*
X87940756Y-113050000D01*
X87826306Y-113080667D01*
X87750000Y-113124722D01*
X87750000Y-112100000D01*
X87052155Y-112100000D01*
X86992627Y-112106401D01*
X86992620Y-112106403D01*
X86857913Y-112156645D01*
X86857906Y-112156649D01*
X86742812Y-112242809D01*
X86742809Y-112242812D01*
X86656649Y-112357906D01*
X86656643Y-112357918D01*
X86626785Y-112437969D01*
X86584914Y-112493903D01*
X86519449Y-112518319D01*
X86451176Y-112503467D01*
X86422923Y-112482316D01*
X86372363Y-112431756D01*
X86372358Y-112431752D01*
X86194025Y-112302187D01*
X86194024Y-112302186D01*
X86194022Y-112302185D01*
X86127867Y-112268477D01*
X85997606Y-112202104D01*
X85997603Y-112202103D01*
X85787952Y-112133985D01*
X85679086Y-112116742D01*
X85570222Y-112099500D01*
X85349778Y-112099500D01*
X85277201Y-112110995D01*
X85132047Y-112133985D01*
X84922396Y-112202103D01*
X84922393Y-112202104D01*
X84725974Y-112302187D01*
X84547641Y-112431752D01*
X84547636Y-112431756D01*
X84391756Y-112587636D01*
X84391752Y-112587641D01*
X84262187Y-112765974D01*
X84162104Y-112962393D01*
X84162103Y-112962396D01*
X84093985Y-113172047D01*
X84059500Y-113389778D01*
X56459330Y-113389778D01*
X56434186Y-113364634D01*
X56434179Y-113364628D01*
X56208451Y-113191422D01*
X55962054Y-113049164D01*
X55962043Y-113049159D01*
X55898261Y-113022740D01*
X55699181Y-112940278D01*
X55424352Y-112866638D01*
X55424346Y-112866637D01*
X55424341Y-112866636D01*
X55142271Y-112829501D01*
X55142268Y-112829500D01*
X55142262Y-112829500D01*
X54857738Y-112829500D01*
X54857732Y-112829500D01*
X54857728Y-112829501D01*
X54575658Y-112866636D01*
X54575651Y-112866637D01*
X54575648Y-112866638D01*
X54300819Y-112940278D01*
X54247422Y-112962396D01*
X54037956Y-113049159D01*
X54037945Y-113049164D01*
X53791548Y-113191422D01*
X53565820Y-113364628D01*
X53565813Y-113364634D01*
X53364634Y-113565813D01*
X53364628Y-113565820D01*
X53191422Y-113791548D01*
X53049164Y-114037945D01*
X53049159Y-114037956D01*
X53001595Y-114152786D01*
X52940278Y-114300819D01*
X52868623Y-114568242D01*
X52866639Y-114575645D01*
X52866636Y-114575658D01*
X52829501Y-114857728D01*
X52829500Y-114857744D01*
X50500500Y-114857744D01*
X50500500Y-110897648D01*
X66699500Y-110897648D01*
X66699500Y-111102351D01*
X66731522Y-111304534D01*
X66794781Y-111499223D01*
X66887715Y-111681613D01*
X67008028Y-111847213D01*
X67152786Y-111991971D01*
X67300790Y-112099500D01*
X67318390Y-112112287D01*
X67434607Y-112171503D01*
X67500776Y-112205218D01*
X67500778Y-112205218D01*
X67500781Y-112205220D01*
X67605137Y-112239127D01*
X67695465Y-112268477D01*
X67796557Y-112284488D01*
X67897648Y-112300500D01*
X67897649Y-112300500D01*
X68102351Y-112300500D01*
X68102352Y-112300500D01*
X68304534Y-112268477D01*
X68499219Y-112205220D01*
X68681610Y-112112287D01*
X68774590Y-112044732D01*
X68847213Y-111991971D01*
X68847215Y-111991968D01*
X68847219Y-111991966D01*
X68991966Y-111847219D01*
X68991968Y-111847215D01*
X68991971Y-111847213D01*
X69044732Y-111774590D01*
X69112287Y-111681610D01*
X69205220Y-111499219D01*
X69268477Y-111304534D01*
X69300500Y-111102352D01*
X69300500Y-110897648D01*
X76859500Y-110897648D01*
X76859500Y-111102351D01*
X76891522Y-111304534D01*
X76954781Y-111499223D01*
X77047715Y-111681613D01*
X77168028Y-111847213D01*
X77312786Y-111991971D01*
X77460790Y-112099500D01*
X77478390Y-112112287D01*
X77594607Y-112171503D01*
X77660776Y-112205218D01*
X77660778Y-112205218D01*
X77660781Y-112205220D01*
X77765137Y-112239127D01*
X77855465Y-112268477D01*
X77956557Y-112284488D01*
X78057648Y-112300500D01*
X78057649Y-112300500D01*
X78262351Y-112300500D01*
X78262352Y-112300500D01*
X78464534Y-112268477D01*
X78659219Y-112205220D01*
X78841610Y-112112287D01*
X78934590Y-112044732D01*
X79007213Y-111991971D01*
X79007215Y-111991968D01*
X79007219Y-111991966D01*
X79151966Y-111847219D01*
X79151968Y-111847215D01*
X79151971Y-111847213D01*
X79204732Y-111774590D01*
X79272287Y-111681610D01*
X79365220Y-111499219D01*
X79428477Y-111304534D01*
X79460500Y-111102352D01*
X79460500Y-110897648D01*
X79428477Y-110695466D01*
X79365220Y-110500781D01*
X79365218Y-110500778D01*
X79365218Y-110500776D01*
X79331503Y-110434607D01*
X79272287Y-110318390D01*
X79264556Y-110307749D01*
X79151971Y-110152786D01*
X79007213Y-110008028D01*
X78841613Y-109887715D01*
X78841612Y-109887714D01*
X78841610Y-109887713D01*
X78784653Y-109858691D01*
X78659223Y-109794781D01*
X78464534Y-109731522D01*
X78289995Y-109703878D01*
X78262352Y-109699500D01*
X78057648Y-109699500D01*
X78033329Y-109703351D01*
X77855465Y-109731522D01*
X77660776Y-109794781D01*
X77478386Y-109887715D01*
X77312786Y-110008028D01*
X77168028Y-110152786D01*
X77047715Y-110318386D01*
X76954781Y-110500776D01*
X76891522Y-110695465D01*
X76859500Y-110897648D01*
X69300500Y-110897648D01*
X69268477Y-110695466D01*
X69205220Y-110500781D01*
X69205218Y-110500778D01*
X69205218Y-110500776D01*
X69171503Y-110434607D01*
X69112287Y-110318390D01*
X69104556Y-110307749D01*
X68991971Y-110152786D01*
X68847213Y-110008028D01*
X68681613Y-109887715D01*
X68681612Y-109887714D01*
X68681610Y-109887713D01*
X68624653Y-109858691D01*
X68499223Y-109794781D01*
X68304534Y-109731522D01*
X68129995Y-109703878D01*
X68102352Y-109699500D01*
X67897648Y-109699500D01*
X67873329Y-109703351D01*
X67695465Y-109731522D01*
X67500776Y-109794781D01*
X67318386Y-109887715D01*
X67152786Y-110008028D01*
X67008028Y-110152786D01*
X66887715Y-110318386D01*
X66794781Y-110500776D01*
X66731522Y-110695465D01*
X66699500Y-110897648D01*
X50500500Y-110897648D01*
X50500500Y-106017135D01*
X58544500Y-106017135D01*
X58544500Y-107762870D01*
X58544501Y-107762876D01*
X58550908Y-107822483D01*
X58601202Y-107957328D01*
X58601206Y-107957335D01*
X58687452Y-108072544D01*
X58687455Y-108072547D01*
X58802664Y-108158793D01*
X58802671Y-108158797D01*
X58937517Y-108209091D01*
X58937516Y-108209091D01*
X58944444Y-108209835D01*
X58997127Y-108215500D01*
X60742872Y-108215499D01*
X60802483Y-108209091D01*
X60937331Y-108158796D01*
X61052546Y-108072546D01*
X61138796Y-107957331D01*
X61189091Y-107822483D01*
X61195500Y-107762873D01*
X61195499Y-107734300D01*
X61215181Y-107667264D01*
X61267984Y-107621507D01*
X61337142Y-107611562D01*
X61400699Y-107640585D01*
X61419817Y-107661414D01*
X61453119Y-107707250D01*
X61592753Y-107846884D01*
X61742234Y-107955486D01*
X61752499Y-107962944D01*
X61928439Y-108052591D01*
X62053637Y-108093270D01*
X62116236Y-108113610D01*
X62311264Y-108144500D01*
X62311269Y-108144500D01*
X62508736Y-108144500D01*
X62703763Y-108113610D01*
X62891561Y-108052591D01*
X63067501Y-107962944D01*
X63157192Y-107897779D01*
X63227246Y-107846884D01*
X63227248Y-107846881D01*
X63227252Y-107846879D01*
X63366879Y-107707252D01*
X63366881Y-107707248D01*
X63366884Y-107707246D01*
X63482941Y-107547505D01*
X63482942Y-107547504D01*
X63482944Y-107547501D01*
X63494400Y-107525016D01*
X63542373Y-107474221D01*
X63610194Y-107457425D01*
X63676329Y-107479961D01*
X63702809Y-107505239D01*
X63742497Y-107556328D01*
X63742504Y-107556336D01*
X64283664Y-108097496D01*
X64283677Y-108097507D01*
X64350515Y-108149429D01*
X64483349Y-108204450D01*
X64567335Y-108214999D01*
X64699999Y-108214999D01*
X64700000Y-108214998D01*
X64700000Y-107380747D01*
X64737708Y-107402518D01*
X64877591Y-107440000D01*
X65022409Y-107440000D01*
X65162292Y-107402518D01*
X65200000Y-107380747D01*
X65200000Y-108214999D01*
X65332660Y-108214999D01*
X65416650Y-108204451D01*
X65549483Y-108149429D01*
X65616330Y-108097500D01*
X65616336Y-108097495D01*
X66157496Y-107556335D01*
X66157505Y-107556325D01*
X66197188Y-107505241D01*
X66253860Y-107464374D01*
X66323629Y-107460633D01*
X66384345Y-107495207D01*
X66405597Y-107525013D01*
X66415867Y-107545168D01*
X66417058Y-107547505D01*
X66533115Y-107707246D01*
X66672753Y-107846884D01*
X66822234Y-107955486D01*
X66832499Y-107962944D01*
X67008439Y-108052591D01*
X67133637Y-108093270D01*
X67196236Y-108113610D01*
X67391264Y-108144500D01*
X67391269Y-108144500D01*
X67588736Y-108144500D01*
X67783763Y-108113610D01*
X67971561Y-108052591D01*
X68147501Y-107962944D01*
X68237192Y-107897779D01*
X68307246Y-107846884D01*
X68307248Y-107846881D01*
X68307252Y-107846879D01*
X68446879Y-107707252D01*
X68446881Y-107707248D01*
X68446884Y-107707246D01*
X68562941Y-107547505D01*
X68562942Y-107547504D01*
X68562944Y-107547501D01*
X68649517Y-107377593D01*
X68697490Y-107326800D01*
X68765311Y-107310005D01*
X68831446Y-107332542D01*
X68870482Y-107377593D01*
X68930411Y-107495207D01*
X68957058Y-107547505D01*
X69073115Y-107707246D01*
X69212753Y-107846884D01*
X69362234Y-107955486D01*
X69372499Y-107962944D01*
X69548439Y-108052591D01*
X69673637Y-108093270D01*
X69736236Y-108113610D01*
X69931264Y-108144500D01*
X69931269Y-108144500D01*
X70128736Y-108144500D01*
X70323763Y-108113610D01*
X70511561Y-108052591D01*
X70687501Y-107962944D01*
X70777192Y-107897779D01*
X70847246Y-107846884D01*
X70847248Y-107846881D01*
X70847252Y-107846879D01*
X70986879Y-107707252D01*
X70986881Y-107707248D01*
X70986884Y-107707246D01*
X71102941Y-107547505D01*
X71102942Y-107547504D01*
X71102944Y-107547501D01*
X71189517Y-107377593D01*
X71237490Y-107326800D01*
X71305311Y-107310005D01*
X71371446Y-107332542D01*
X71410482Y-107377593D01*
X71470411Y-107495207D01*
X71497058Y-107547505D01*
X71613115Y-107707246D01*
X71752753Y-107846884D01*
X71902234Y-107955486D01*
X71912499Y-107962944D01*
X72088439Y-108052591D01*
X72213637Y-108093270D01*
X72276236Y-108113610D01*
X72471264Y-108144500D01*
X72471269Y-108144500D01*
X72668736Y-108144500D01*
X72863763Y-108113610D01*
X73051561Y-108052591D01*
X73227501Y-107962944D01*
X73317192Y-107897779D01*
X73387246Y-107846884D01*
X73387248Y-107846881D01*
X73387252Y-107846879D01*
X73526879Y-107707252D01*
X73526881Y-107707248D01*
X73526884Y-107707246D01*
X73642941Y-107547505D01*
X73642942Y-107547504D01*
X73642944Y-107547501D01*
X73729517Y-107377593D01*
X73777490Y-107326800D01*
X73845311Y-107310005D01*
X73911446Y-107332542D01*
X73950482Y-107377593D01*
X74010411Y-107495207D01*
X74037058Y-107547505D01*
X74153115Y-107707246D01*
X74292753Y-107846884D01*
X74442234Y-107955486D01*
X74452499Y-107962944D01*
X74628439Y-108052591D01*
X74753637Y-108093270D01*
X74816236Y-108113610D01*
X75011264Y-108144500D01*
X75011269Y-108144500D01*
X75208736Y-108144500D01*
X75403763Y-108113610D01*
X75591561Y-108052591D01*
X75767501Y-107962944D01*
X75857192Y-107897779D01*
X75927246Y-107846884D01*
X75927248Y-107846881D01*
X75927252Y-107846879D01*
X76066879Y-107707252D01*
X76066881Y-107707248D01*
X76066884Y-107707246D01*
X76182941Y-107547505D01*
X76182942Y-107547504D01*
X76182944Y-107547501D01*
X76194400Y-107525016D01*
X76242373Y-107474221D01*
X76310194Y-107457425D01*
X76376329Y-107479961D01*
X76402809Y-107505239D01*
X76442497Y-107556328D01*
X76442504Y-107556336D01*
X76983664Y-108097496D01*
X76983677Y-108097507D01*
X77050515Y-108149429D01*
X77183349Y-108204450D01*
X77267335Y-108214999D01*
X77399999Y-108214999D01*
X77400000Y-108214998D01*
X77400000Y-107380747D01*
X77437708Y-107402518D01*
X77577591Y-107440000D01*
X77722409Y-107440000D01*
X77862292Y-107402518D01*
X77900000Y-107380747D01*
X77900000Y-108214999D01*
X78032660Y-108214999D01*
X78116650Y-108204451D01*
X78249483Y-108149429D01*
X78316330Y-108097500D01*
X78316336Y-108097495D01*
X78857496Y-107556335D01*
X78857505Y-107556325D01*
X78897188Y-107505241D01*
X78953860Y-107464374D01*
X79023629Y-107460633D01*
X79084345Y-107495207D01*
X79105597Y-107525013D01*
X79115867Y-107545168D01*
X79117058Y-107547505D01*
X79233115Y-107707246D01*
X79372753Y-107846884D01*
X79522234Y-107955486D01*
X79532499Y-107962944D01*
X79708439Y-108052591D01*
X79833637Y-108093270D01*
X79896236Y-108113610D01*
X80091264Y-108144500D01*
X80091269Y-108144500D01*
X80288736Y-108144500D01*
X80483763Y-108113610D01*
X80671561Y-108052591D01*
X80847501Y-107962944D01*
X80937192Y-107897779D01*
X81007246Y-107846884D01*
X81007248Y-107846881D01*
X81007252Y-107846879D01*
X81146879Y-107707252D01*
X81146881Y-107707248D01*
X81146884Y-107707246D01*
X81262941Y-107547505D01*
X81262942Y-107547504D01*
X81262944Y-107547501D01*
X81349517Y-107377593D01*
X81397490Y-107326800D01*
X81465311Y-107310005D01*
X81531446Y-107332542D01*
X81570482Y-107377593D01*
X81630411Y-107495207D01*
X81657058Y-107547505D01*
X81773115Y-107707246D01*
X81912753Y-107846884D01*
X82062234Y-107955486D01*
X82072499Y-107962944D01*
X82248439Y-108052591D01*
X82373637Y-108093270D01*
X82436236Y-108113610D01*
X82631264Y-108144500D01*
X82631269Y-108144500D01*
X82828736Y-108144500D01*
X83023763Y-108113610D01*
X83211561Y-108052591D01*
X83387501Y-107962944D01*
X83477192Y-107897779D01*
X83547246Y-107846884D01*
X83547248Y-107846881D01*
X83547252Y-107846879D01*
X83686879Y-107707252D01*
X83686881Y-107707248D01*
X83686884Y-107707246D01*
X83802941Y-107547505D01*
X83802942Y-107547504D01*
X83802944Y-107547501D01*
X83889517Y-107377593D01*
X83937490Y-107326800D01*
X84005311Y-107310005D01*
X84071446Y-107332542D01*
X84110482Y-107377593D01*
X84170411Y-107495207D01*
X84197058Y-107547505D01*
X84313115Y-107707246D01*
X84452753Y-107846884D01*
X84602234Y-107955486D01*
X84612499Y-107962944D01*
X84788439Y-108052591D01*
X84913637Y-108093270D01*
X84976236Y-108113610D01*
X85171264Y-108144500D01*
X85171269Y-108144500D01*
X85368736Y-108144500D01*
X85563763Y-108113610D01*
X85751561Y-108052591D01*
X85927501Y-107962944D01*
X86017192Y-107897779D01*
X86087246Y-107846884D01*
X86087248Y-107846881D01*
X86087252Y-107846879D01*
X86226879Y-107707252D01*
X86226881Y-107707248D01*
X86226884Y-107707246D01*
X86342941Y-107547505D01*
X86342942Y-107547504D01*
X86342944Y-107547501D01*
X86429517Y-107377593D01*
X86477490Y-107326800D01*
X86545311Y-107310005D01*
X86611446Y-107332542D01*
X86650482Y-107377593D01*
X86710411Y-107495207D01*
X86737058Y-107547505D01*
X86853115Y-107707246D01*
X86992753Y-107846884D01*
X87142234Y-107955486D01*
X87152499Y-107962944D01*
X87328439Y-108052591D01*
X87453637Y-108093270D01*
X87516236Y-108113610D01*
X87711264Y-108144500D01*
X87711269Y-108144500D01*
X87908736Y-108144500D01*
X88103763Y-108113610D01*
X88291561Y-108052591D01*
X88467501Y-107962944D01*
X88557192Y-107897779D01*
X88627246Y-107846884D01*
X88627248Y-107846881D01*
X88627252Y-107846879D01*
X88766879Y-107707252D01*
X88766881Y-107707248D01*
X88766884Y-107707246D01*
X88882941Y-107547505D01*
X88882942Y-107547504D01*
X88882944Y-107547501D01*
X88894400Y-107525016D01*
X88942373Y-107474221D01*
X89010194Y-107457425D01*
X89076329Y-107479961D01*
X89102809Y-107505239D01*
X89142497Y-107556328D01*
X89142504Y-107556336D01*
X89683664Y-108097496D01*
X89683677Y-108097507D01*
X89750515Y-108149429D01*
X89883349Y-108204450D01*
X89967335Y-108214999D01*
X90099999Y-108214999D01*
X90100000Y-108214998D01*
X90100000Y-107380747D01*
X90137708Y-107402518D01*
X90277591Y-107440000D01*
X90422409Y-107440000D01*
X90562292Y-107402518D01*
X90600000Y-107380747D01*
X90600000Y-108214999D01*
X90732660Y-108214999D01*
X90816650Y-108204451D01*
X90949483Y-108149429D01*
X91016330Y-108097500D01*
X91016336Y-108097495D01*
X91557496Y-107556335D01*
X91557505Y-107556325D01*
X91597188Y-107505241D01*
X91653860Y-107464374D01*
X91723629Y-107460633D01*
X91784345Y-107495207D01*
X91805597Y-107525013D01*
X91815867Y-107545168D01*
X91817058Y-107547505D01*
X91933115Y-107707246D01*
X92072753Y-107846884D01*
X92222234Y-107955486D01*
X92232499Y-107962944D01*
X92408439Y-108052591D01*
X92533637Y-108093270D01*
X92596236Y-108113610D01*
X92791264Y-108144500D01*
X92791269Y-108144500D01*
X92988736Y-108144500D01*
X93183763Y-108113610D01*
X93371561Y-108052591D01*
X93547501Y-107962944D01*
X93637192Y-107897779D01*
X93707246Y-107846884D01*
X93707248Y-107846881D01*
X93707252Y-107846879D01*
X93846879Y-107707252D01*
X93846881Y-107707248D01*
X93846884Y-107707246D01*
X93962941Y-107547505D01*
X93962942Y-107547504D01*
X93962944Y-107547501D01*
X94049517Y-107377593D01*
X94097490Y-107326800D01*
X94165311Y-107310005D01*
X94231446Y-107332542D01*
X94270482Y-107377593D01*
X94330411Y-107495207D01*
X94357058Y-107547505D01*
X94473115Y-107707246D01*
X94612753Y-107846884D01*
X94762234Y-107955486D01*
X94772499Y-107962944D01*
X94948439Y-108052591D01*
X95073637Y-108093270D01*
X95136236Y-108113610D01*
X95331264Y-108144500D01*
X95331269Y-108144500D01*
X95528736Y-108144500D01*
X95723763Y-108113610D01*
X95911561Y-108052591D01*
X96087501Y-107962944D01*
X96177192Y-107897779D01*
X96247246Y-107846884D01*
X96247248Y-107846881D01*
X96247252Y-107846879D01*
X96386879Y-107707252D01*
X96386881Y-107707248D01*
X96386884Y-107707246D01*
X96502941Y-107547505D01*
X96502942Y-107547504D01*
X96502944Y-107547501D01*
X96589517Y-107377593D01*
X96637490Y-107326800D01*
X96705311Y-107310005D01*
X96771446Y-107332542D01*
X96810482Y-107377593D01*
X96870411Y-107495207D01*
X96897058Y-107547505D01*
X97013115Y-107707246D01*
X97152753Y-107846884D01*
X97302234Y-107955486D01*
X97312499Y-107962944D01*
X97488439Y-108052591D01*
X97613637Y-108093270D01*
X97676236Y-108113610D01*
X97871264Y-108144500D01*
X97871269Y-108144500D01*
X98068736Y-108144500D01*
X98263763Y-108113610D01*
X98451561Y-108052591D01*
X98627501Y-107962944D01*
X98717192Y-107897779D01*
X98787246Y-107846884D01*
X98787248Y-107846881D01*
X98787252Y-107846879D01*
X98926879Y-107707252D01*
X98926881Y-107707248D01*
X98926884Y-107707246D01*
X99042941Y-107547505D01*
X99042942Y-107547504D01*
X99042944Y-107547501D01*
X99129517Y-107377593D01*
X99177490Y-107326800D01*
X99245311Y-107310005D01*
X99311446Y-107332542D01*
X99350482Y-107377593D01*
X99410411Y-107495207D01*
X99437058Y-107547505D01*
X99553115Y-107707246D01*
X99692753Y-107846884D01*
X99842234Y-107955486D01*
X99852499Y-107962944D01*
X100028439Y-108052591D01*
X100153637Y-108093270D01*
X100216236Y-108113610D01*
X100411264Y-108144500D01*
X100411269Y-108144500D01*
X100608736Y-108144500D01*
X100803763Y-108113610D01*
X100991561Y-108052591D01*
X101167501Y-107962944D01*
X101257192Y-107897779D01*
X101327246Y-107846884D01*
X101327248Y-107846881D01*
X101327252Y-107846879D01*
X101466879Y-107707252D01*
X101466881Y-107707248D01*
X101466884Y-107707246D01*
X101582941Y-107547505D01*
X101582942Y-107547504D01*
X101582944Y-107547501D01*
X101594400Y-107525016D01*
X101642373Y-107474221D01*
X101710194Y-107457425D01*
X101776329Y-107479961D01*
X101802809Y-107505239D01*
X101842497Y-107556328D01*
X101842504Y-107556336D01*
X102383664Y-108097496D01*
X102383677Y-108097507D01*
X102450515Y-108149429D01*
X102583349Y-108204450D01*
X102667335Y-108214999D01*
X102799999Y-108214999D01*
X102800000Y-108214998D01*
X102800000Y-107380747D01*
X102837708Y-107402518D01*
X102977591Y-107440000D01*
X103122409Y-107440000D01*
X103262292Y-107402518D01*
X103300000Y-107380747D01*
X103300000Y-108214999D01*
X103432660Y-108214999D01*
X103516650Y-108204451D01*
X103649483Y-108149429D01*
X103716330Y-108097500D01*
X103716336Y-108097495D01*
X104257496Y-107556335D01*
X104257505Y-107556325D01*
X104297188Y-107505241D01*
X104353860Y-107464374D01*
X104423629Y-107460633D01*
X104484345Y-107495207D01*
X104505597Y-107525013D01*
X104515867Y-107545168D01*
X104517058Y-107547505D01*
X104633115Y-107707246D01*
X104772753Y-107846884D01*
X104922234Y-107955486D01*
X104932499Y-107962944D01*
X105108439Y-108052591D01*
X105233637Y-108093270D01*
X105296236Y-108113610D01*
X105491264Y-108144500D01*
X105491269Y-108144500D01*
X105688736Y-108144500D01*
X105883763Y-108113610D01*
X106071561Y-108052591D01*
X106247501Y-107962944D01*
X106337192Y-107897779D01*
X106407246Y-107846884D01*
X106407248Y-107846881D01*
X106407252Y-107846879D01*
X106546879Y-107707252D01*
X106546881Y-107707248D01*
X106546884Y-107707246D01*
X106662941Y-107547505D01*
X106662942Y-107547504D01*
X106662944Y-107547501D01*
X106749517Y-107377593D01*
X106797490Y-107326800D01*
X106865311Y-107310005D01*
X106931446Y-107332542D01*
X106970482Y-107377593D01*
X107030411Y-107495207D01*
X107057058Y-107547505D01*
X107173115Y-107707246D01*
X107312753Y-107846884D01*
X107462234Y-107955486D01*
X107472499Y-107962944D01*
X107648439Y-108052591D01*
X107773637Y-108093270D01*
X107836236Y-108113610D01*
X108031264Y-108144500D01*
X108031269Y-108144500D01*
X108228736Y-108144500D01*
X108423763Y-108113610D01*
X108611561Y-108052591D01*
X108787501Y-107962944D01*
X108877192Y-107897779D01*
X108947246Y-107846884D01*
X108947248Y-107846881D01*
X108947252Y-107846879D01*
X109086879Y-107707252D01*
X109086881Y-107707248D01*
X109086884Y-107707246D01*
X109156401Y-107611562D01*
X109202944Y-107547501D01*
X109292591Y-107371561D01*
X109353610Y-107183763D01*
X109366514Y-107102292D01*
X109384500Y-106988736D01*
X109384500Y-106791263D01*
X109353610Y-106596236D01*
X109305268Y-106447456D01*
X109292591Y-106408439D01*
X109202944Y-106232499D01*
X109195486Y-106222234D01*
X109086884Y-106072753D01*
X108947246Y-105933115D01*
X108787504Y-105817058D01*
X108787503Y-105817057D01*
X108787501Y-105817056D01*
X108611561Y-105727409D01*
X108611558Y-105727408D01*
X108423763Y-105666389D01*
X108228736Y-105635500D01*
X108228731Y-105635500D01*
X108031269Y-105635500D01*
X108031264Y-105635500D01*
X107836236Y-105666389D01*
X107648441Y-105727408D01*
X107472495Y-105817058D01*
X107312753Y-105933115D01*
X107173115Y-106072753D01*
X107057058Y-106232495D01*
X107057057Y-106232497D01*
X107057056Y-106232499D01*
X107011160Y-106322575D01*
X106970485Y-106402403D01*
X106922510Y-106453199D01*
X106854689Y-106469994D01*
X106788554Y-106447456D01*
X106749515Y-106402403D01*
X106717719Y-106340000D01*
X106662944Y-106232499D01*
X106655486Y-106222234D01*
X106546884Y-106072753D01*
X106407246Y-105933115D01*
X106247504Y-105817058D01*
X106247503Y-105817057D01*
X106247501Y-105817056D01*
X106071561Y-105727409D01*
X106071558Y-105727408D01*
X105883763Y-105666389D01*
X105688736Y-105635500D01*
X105688731Y-105635500D01*
X105491269Y-105635500D01*
X105491264Y-105635500D01*
X105296236Y-105666389D01*
X105108441Y-105727408D01*
X104932495Y-105817058D01*
X104772753Y-105933115D01*
X104633115Y-106072753D01*
X104517056Y-106232497D01*
X104505598Y-106254985D01*
X104457623Y-106305781D01*
X104389802Y-106322575D01*
X104323667Y-106300037D01*
X104297189Y-106274759D01*
X104257506Y-106223676D01*
X104257495Y-106223663D01*
X103716335Y-105682503D01*
X103716322Y-105682492D01*
X103649484Y-105630570D01*
X103516650Y-105575549D01*
X103432667Y-105565000D01*
X103300000Y-105565000D01*
X103300000Y-106399252D01*
X103262292Y-106377482D01*
X103122409Y-106340000D01*
X102977591Y-106340000D01*
X102837708Y-106377482D01*
X102800000Y-106399252D01*
X102800000Y-105565000D01*
X102667340Y-105565000D01*
X102583349Y-105575548D01*
X102450516Y-105630570D01*
X102383669Y-105682499D01*
X102383663Y-105682504D01*
X101842503Y-106223664D01*
X101842489Y-106223679D01*
X101802809Y-106274760D01*
X101746137Y-106315626D01*
X101676367Y-106319365D01*
X101615652Y-106284790D01*
X101594401Y-106254985D01*
X101582944Y-106232499D01*
X101582942Y-106232496D01*
X101582941Y-106232494D01*
X101466884Y-106072753D01*
X101327246Y-105933115D01*
X101167504Y-105817058D01*
X101167503Y-105817057D01*
X101167501Y-105817056D01*
X100991561Y-105727409D01*
X100991558Y-105727408D01*
X100803763Y-105666389D01*
X100608736Y-105635500D01*
X100608731Y-105635500D01*
X100411269Y-105635500D01*
X100411264Y-105635500D01*
X100216236Y-105666389D01*
X100028441Y-105727408D01*
X99852495Y-105817058D01*
X99692753Y-105933115D01*
X99553115Y-106072753D01*
X99437058Y-106232495D01*
X99437057Y-106232497D01*
X99437056Y-106232499D01*
X99391160Y-106322575D01*
X99350485Y-106402403D01*
X99302510Y-106453199D01*
X99234689Y-106469994D01*
X99168554Y-106447456D01*
X99129515Y-106402403D01*
X99097719Y-106340000D01*
X99042944Y-106232499D01*
X99035486Y-106222234D01*
X98926884Y-106072753D01*
X98787246Y-105933115D01*
X98627504Y-105817058D01*
X98627503Y-105817057D01*
X98627501Y-105817056D01*
X98451561Y-105727409D01*
X98451558Y-105727408D01*
X98263763Y-105666389D01*
X98068736Y-105635500D01*
X98068731Y-105635500D01*
X97871269Y-105635500D01*
X97871264Y-105635500D01*
X97676236Y-105666389D01*
X97488441Y-105727408D01*
X97312495Y-105817058D01*
X97152753Y-105933115D01*
X97013115Y-106072753D01*
X96897058Y-106232495D01*
X96897057Y-106232497D01*
X96897056Y-106232499D01*
X96851160Y-106322575D01*
X96810485Y-106402403D01*
X96762510Y-106453199D01*
X96694689Y-106469994D01*
X96628554Y-106447456D01*
X96589515Y-106402403D01*
X96557719Y-106340000D01*
X96502944Y-106232499D01*
X96495486Y-106222234D01*
X96386884Y-106072753D01*
X96247246Y-105933115D01*
X96087504Y-105817058D01*
X96087503Y-105817057D01*
X96087501Y-105817056D01*
X95911561Y-105727409D01*
X95911558Y-105727408D01*
X95723763Y-105666389D01*
X95528736Y-105635500D01*
X95528731Y-105635500D01*
X95331269Y-105635500D01*
X95331264Y-105635500D01*
X95136236Y-105666389D01*
X94948441Y-105727408D01*
X94772495Y-105817058D01*
X94612753Y-105933115D01*
X94473115Y-106072753D01*
X94357058Y-106232495D01*
X94357057Y-106232497D01*
X94357056Y-106232499D01*
X94311160Y-106322575D01*
X94270485Y-106402403D01*
X94222510Y-106453199D01*
X94154689Y-106469994D01*
X94088554Y-106447456D01*
X94049515Y-106402403D01*
X94017719Y-106340000D01*
X93962944Y-106232499D01*
X93955486Y-106222234D01*
X93846884Y-106072753D01*
X93707246Y-105933115D01*
X93547504Y-105817058D01*
X93547503Y-105817057D01*
X93547501Y-105817056D01*
X93371561Y-105727409D01*
X93371558Y-105727408D01*
X93183763Y-105666389D01*
X92988736Y-105635500D01*
X92988731Y-105635500D01*
X92791269Y-105635500D01*
X92791264Y-105635500D01*
X92596236Y-105666389D01*
X92408441Y-105727408D01*
X92232495Y-105817058D01*
X92072753Y-105933115D01*
X91933115Y-106072753D01*
X91817056Y-106232497D01*
X91805598Y-106254985D01*
X91757623Y-106305781D01*
X91689802Y-106322575D01*
X91623667Y-106300037D01*
X91597189Y-106274759D01*
X91557506Y-106223676D01*
X91557495Y-106223663D01*
X91016335Y-105682503D01*
X91016322Y-105682492D01*
X90949484Y-105630570D01*
X90816650Y-105575549D01*
X90732667Y-105565000D01*
X90600000Y-105565000D01*
X90600000Y-106399252D01*
X90562292Y-106377482D01*
X90422409Y-106340000D01*
X90277591Y-106340000D01*
X90137708Y-106377482D01*
X90100000Y-106399252D01*
X90100000Y-105565000D01*
X89967340Y-105565000D01*
X89883349Y-105575548D01*
X89750516Y-105630570D01*
X89683669Y-105682499D01*
X89683663Y-105682504D01*
X89142503Y-106223664D01*
X89142489Y-106223679D01*
X89102809Y-106274760D01*
X89046137Y-106315626D01*
X88976367Y-106319365D01*
X88915652Y-106284790D01*
X88894401Y-106254985D01*
X88882944Y-106232499D01*
X88882942Y-106232496D01*
X88882941Y-106232494D01*
X88766884Y-106072753D01*
X88627246Y-105933115D01*
X88467504Y-105817058D01*
X88467503Y-105817057D01*
X88467501Y-105817056D01*
X88291561Y-105727409D01*
X88291558Y-105727408D01*
X88103763Y-105666389D01*
X87908736Y-105635500D01*
X87908731Y-105635500D01*
X87711269Y-105635500D01*
X87711264Y-105635500D01*
X87516236Y-105666389D01*
X87328441Y-105727408D01*
X87152495Y-105817058D01*
X86992753Y-105933115D01*
X86853115Y-106072753D01*
X86737058Y-106232495D01*
X86737057Y-106232497D01*
X86737056Y-106232499D01*
X86691160Y-106322575D01*
X86650485Y-106402403D01*
X86602510Y-106453199D01*
X86534689Y-106469994D01*
X86468554Y-106447456D01*
X86429515Y-106402403D01*
X86397719Y-106340000D01*
X86342944Y-106232499D01*
X86335486Y-106222234D01*
X86226884Y-106072753D01*
X86087246Y-105933115D01*
X85927504Y-105817058D01*
X85927503Y-105817057D01*
X85927501Y-105817056D01*
X85751561Y-105727409D01*
X85751558Y-105727408D01*
X85563763Y-105666389D01*
X85368736Y-105635500D01*
X85368731Y-105635500D01*
X85171269Y-105635500D01*
X85171264Y-105635500D01*
X84976236Y-105666389D01*
X84788441Y-105727408D01*
X84612495Y-105817058D01*
X84452753Y-105933115D01*
X84313115Y-106072753D01*
X84197058Y-106232495D01*
X84197057Y-106232497D01*
X84197056Y-106232499D01*
X84151160Y-106322575D01*
X84110485Y-106402403D01*
X84062510Y-106453199D01*
X83994689Y-106469994D01*
X83928554Y-106447456D01*
X83889515Y-106402403D01*
X83857719Y-106340000D01*
X83802944Y-106232499D01*
X83795486Y-106222234D01*
X83686884Y-106072753D01*
X83547246Y-105933115D01*
X83387504Y-105817058D01*
X83387503Y-105817057D01*
X83387501Y-105817056D01*
X83211561Y-105727409D01*
X83211558Y-105727408D01*
X83023763Y-105666389D01*
X82828736Y-105635500D01*
X82828731Y-105635500D01*
X82631269Y-105635500D01*
X82631264Y-105635500D01*
X82436236Y-105666389D01*
X82248441Y-105727408D01*
X82072495Y-105817058D01*
X81912753Y-105933115D01*
X81773115Y-106072753D01*
X81657058Y-106232495D01*
X81657057Y-106232497D01*
X81657056Y-106232499D01*
X81611160Y-106322575D01*
X81570485Y-106402403D01*
X81522510Y-106453199D01*
X81454689Y-106469994D01*
X81388554Y-106447456D01*
X81349515Y-106402403D01*
X81317719Y-106340000D01*
X81262944Y-106232499D01*
X81255486Y-106222234D01*
X81146884Y-106072753D01*
X81007246Y-105933115D01*
X80847504Y-105817058D01*
X80847503Y-105817057D01*
X80847501Y-105817056D01*
X80671561Y-105727409D01*
X80671558Y-105727408D01*
X80483763Y-105666389D01*
X80288736Y-105635500D01*
X80288731Y-105635500D01*
X80091269Y-105635500D01*
X80091264Y-105635500D01*
X79896236Y-105666389D01*
X79708441Y-105727408D01*
X79532495Y-105817058D01*
X79372753Y-105933115D01*
X79233115Y-106072753D01*
X79117056Y-106232497D01*
X79105598Y-106254985D01*
X79057623Y-106305781D01*
X78989802Y-106322575D01*
X78923667Y-106300037D01*
X78897189Y-106274759D01*
X78857506Y-106223676D01*
X78857495Y-106223663D01*
X78316335Y-105682503D01*
X78316322Y-105682492D01*
X78249484Y-105630570D01*
X78116650Y-105575549D01*
X78032667Y-105565000D01*
X77900000Y-105565000D01*
X77900000Y-106399252D01*
X77862292Y-106377482D01*
X77722409Y-106340000D01*
X77577591Y-106340000D01*
X77437708Y-106377482D01*
X77400000Y-106399252D01*
X77400000Y-105565000D01*
X77267340Y-105565000D01*
X77183349Y-105575548D01*
X77050516Y-105630570D01*
X76983669Y-105682499D01*
X76983663Y-105682504D01*
X76442503Y-106223664D01*
X76442489Y-106223679D01*
X76402809Y-106274760D01*
X76346137Y-106315626D01*
X76276367Y-106319365D01*
X76215652Y-106284790D01*
X76194401Y-106254985D01*
X76182944Y-106232499D01*
X76182942Y-106232496D01*
X76182941Y-106232494D01*
X76066884Y-106072753D01*
X75927246Y-105933115D01*
X75767504Y-105817058D01*
X75767503Y-105817057D01*
X75767501Y-105817056D01*
X75591561Y-105727409D01*
X75591558Y-105727408D01*
X75403763Y-105666389D01*
X75208736Y-105635500D01*
X75208731Y-105635500D01*
X75011269Y-105635500D01*
X75011264Y-105635500D01*
X74816236Y-105666389D01*
X74628441Y-105727408D01*
X74452495Y-105817058D01*
X74292753Y-105933115D01*
X74153115Y-106072753D01*
X74037058Y-106232495D01*
X74037057Y-106232497D01*
X74037056Y-106232499D01*
X73991160Y-106322575D01*
X73950485Y-106402403D01*
X73902510Y-106453199D01*
X73834689Y-106469994D01*
X73768554Y-106447456D01*
X73729515Y-106402403D01*
X73697719Y-106340000D01*
X73642944Y-106232499D01*
X73635486Y-106222234D01*
X73526884Y-106072753D01*
X73387246Y-105933115D01*
X73227504Y-105817058D01*
X73227503Y-105817057D01*
X73227501Y-105817056D01*
X73051561Y-105727409D01*
X73051558Y-105727408D01*
X72863763Y-105666389D01*
X72668736Y-105635500D01*
X72668731Y-105635500D01*
X72471269Y-105635500D01*
X72471264Y-105635500D01*
X72276236Y-105666389D01*
X72088441Y-105727408D01*
X71912495Y-105817058D01*
X71752753Y-105933115D01*
X71613115Y-106072753D01*
X71497058Y-106232495D01*
X71497057Y-106232497D01*
X71497056Y-106232499D01*
X71451160Y-106322575D01*
X71410485Y-106402403D01*
X71362510Y-106453199D01*
X71294689Y-106469994D01*
X71228554Y-106447456D01*
X71189515Y-106402403D01*
X71157719Y-106340000D01*
X71102944Y-106232499D01*
X71095486Y-106222234D01*
X70986884Y-106072753D01*
X70847246Y-105933115D01*
X70687504Y-105817058D01*
X70687503Y-105817057D01*
X70687501Y-105817056D01*
X70511561Y-105727409D01*
X70511558Y-105727408D01*
X70323763Y-105666389D01*
X70128736Y-105635500D01*
X70128731Y-105635500D01*
X69931269Y-105635500D01*
X69931264Y-105635500D01*
X69736236Y-105666389D01*
X69548441Y-105727408D01*
X69372495Y-105817058D01*
X69212753Y-105933115D01*
X69073115Y-106072753D01*
X68957058Y-106232495D01*
X68957057Y-106232497D01*
X68957056Y-106232499D01*
X68911160Y-106322575D01*
X68870485Y-106402403D01*
X68822510Y-106453199D01*
X68754689Y-106469994D01*
X68688554Y-106447456D01*
X68649515Y-106402403D01*
X68617719Y-106340000D01*
X68562944Y-106232499D01*
X68555486Y-106222234D01*
X68446884Y-106072753D01*
X68307246Y-105933115D01*
X68147504Y-105817058D01*
X68147503Y-105817057D01*
X68147501Y-105817056D01*
X67971561Y-105727409D01*
X67971558Y-105727408D01*
X67783763Y-105666389D01*
X67588736Y-105635500D01*
X67588731Y-105635500D01*
X67391269Y-105635500D01*
X67391264Y-105635500D01*
X67196236Y-105666389D01*
X67008441Y-105727408D01*
X66832495Y-105817058D01*
X66672753Y-105933115D01*
X66533115Y-106072753D01*
X66417056Y-106232497D01*
X66405598Y-106254985D01*
X66357623Y-106305781D01*
X66289802Y-106322575D01*
X66223667Y-106300037D01*
X66197189Y-106274759D01*
X66157506Y-106223676D01*
X66157495Y-106223663D01*
X65616335Y-105682503D01*
X65616322Y-105682492D01*
X65549484Y-105630570D01*
X65416650Y-105575549D01*
X65332667Y-105565000D01*
X65200000Y-105565000D01*
X65200000Y-106399252D01*
X65162292Y-106377482D01*
X65022409Y-106340000D01*
X64877591Y-106340000D01*
X64737708Y-106377482D01*
X64700000Y-106399252D01*
X64700000Y-105565000D01*
X64567340Y-105565000D01*
X64483349Y-105575548D01*
X64350516Y-105630570D01*
X64283669Y-105682499D01*
X64283663Y-105682504D01*
X63742503Y-106223664D01*
X63742489Y-106223679D01*
X63702809Y-106274760D01*
X63646137Y-106315626D01*
X63576367Y-106319365D01*
X63515652Y-106284790D01*
X63494401Y-106254985D01*
X63482944Y-106232499D01*
X63482942Y-106232496D01*
X63482941Y-106232494D01*
X63366884Y-106072753D01*
X63227246Y-105933115D01*
X63067504Y-105817058D01*
X63067503Y-105817057D01*
X63067501Y-105817056D01*
X62891561Y-105727409D01*
X62891558Y-105727408D01*
X62703763Y-105666389D01*
X62508736Y-105635500D01*
X62508731Y-105635500D01*
X62311269Y-105635500D01*
X62311264Y-105635500D01*
X62116236Y-105666389D01*
X61928441Y-105727408D01*
X61752495Y-105817058D01*
X61592753Y-105933115D01*
X61453119Y-106072749D01*
X61453115Y-106072754D01*
X61419817Y-106118586D01*
X61364488Y-106161252D01*
X61294874Y-106167231D01*
X61233079Y-106134626D01*
X61198722Y-106073787D01*
X61195499Y-106045701D01*
X61195499Y-106017129D01*
X61195498Y-106017123D01*
X61195497Y-106017116D01*
X61189091Y-105957517D01*
X61138796Y-105822669D01*
X61138795Y-105822668D01*
X61138793Y-105822664D01*
X61052547Y-105707455D01*
X61052544Y-105707452D01*
X60937335Y-105621206D01*
X60937328Y-105621202D01*
X60802482Y-105570908D01*
X60802483Y-105570908D01*
X60742883Y-105564501D01*
X60742881Y-105564500D01*
X60742873Y-105564500D01*
X60742864Y-105564500D01*
X58997129Y-105564500D01*
X58997123Y-105564501D01*
X58937516Y-105570908D01*
X58802671Y-105621202D01*
X58802664Y-105621206D01*
X58687455Y-105707452D01*
X58687452Y-105707455D01*
X58601206Y-105822664D01*
X58601202Y-105822671D01*
X58550908Y-105957517D01*
X58544501Y-106017116D01*
X58544501Y-106017123D01*
X58544500Y-106017135D01*
X50500500Y-106017135D01*
X50500500Y-103593713D01*
X59249500Y-103593713D01*
X59249500Y-103806286D01*
X59282753Y-104016239D01*
X59348444Y-104218414D01*
X59444951Y-104407820D01*
X59569890Y-104579786D01*
X59720213Y-104730109D01*
X59892179Y-104855048D01*
X59892181Y-104855049D01*
X59892184Y-104855051D01*
X60081588Y-104951557D01*
X60283757Y-105017246D01*
X60493713Y-105050500D01*
X60493714Y-105050500D01*
X60706286Y-105050500D01*
X60706287Y-105050500D01*
X60916243Y-105017246D01*
X61118412Y-104951557D01*
X61307816Y-104855051D01*
X61329789Y-104839086D01*
X61479786Y-104730109D01*
X61479788Y-104730106D01*
X61479792Y-104730104D01*
X61630104Y-104579792D01*
X61630106Y-104579788D01*
X61630109Y-104579786D01*
X61755048Y-104407820D01*
X61755047Y-104407820D01*
X61755051Y-104407816D01*
X61851557Y-104218412D01*
X61917246Y-104016243D01*
X61950500Y-103806287D01*
X61950500Y-103593713D01*
X61917246Y-103383757D01*
X61851557Y-103181588D01*
X61755051Y-102992184D01*
X61755049Y-102992181D01*
X61755048Y-102992179D01*
X61630109Y-102820213D01*
X61479786Y-102669890D01*
X61307820Y-102544951D01*
X61118414Y-102448444D01*
X61118413Y-102448443D01*
X61118412Y-102448443D01*
X60916243Y-102382754D01*
X60916241Y-102382753D01*
X60916240Y-102382753D01*
X60754957Y-102357208D01*
X60706287Y-102349500D01*
X60493713Y-102349500D01*
X60445042Y-102357208D01*
X60283760Y-102382753D01*
X60081585Y-102448444D01*
X59892179Y-102544951D01*
X59720213Y-102669890D01*
X59569890Y-102820213D01*
X59444951Y-102992179D01*
X59348444Y-103181585D01*
X59282753Y-103383760D01*
X59249500Y-103593713D01*
X50500500Y-103593713D01*
X50500500Y-92193713D01*
X59249500Y-92193713D01*
X59249500Y-92406286D01*
X59282753Y-92616239D01*
X59348444Y-92818414D01*
X59444951Y-93007820D01*
X59569890Y-93179786D01*
X59720213Y-93330109D01*
X59892179Y-93455048D01*
X59892181Y-93455049D01*
X59892184Y-93455051D01*
X60081588Y-93551557D01*
X60283757Y-93617246D01*
X60493713Y-93650500D01*
X60493714Y-93650500D01*
X60706286Y-93650500D01*
X60706287Y-93650500D01*
X60916243Y-93617246D01*
X61118412Y-93551557D01*
X61307816Y-93455051D01*
X61329789Y-93439086D01*
X61479786Y-93330109D01*
X61479788Y-93330106D01*
X61479792Y-93330104D01*
X61630104Y-93179792D01*
X61630106Y-93179788D01*
X61630109Y-93179786D01*
X61755048Y-93007820D01*
X61755047Y-93007820D01*
X61755051Y-93007816D01*
X61851557Y-92818412D01*
X61917246Y-92616243D01*
X61950500Y-92406287D01*
X61950500Y-92193713D01*
X61917246Y-91983757D01*
X61851557Y-91781588D01*
X61755051Y-91592184D01*
X61755049Y-91592181D01*
X61755048Y-91592179D01*
X61630109Y-91420213D01*
X61479786Y-91269890D01*
X61307820Y-91144951D01*
X61118414Y-91048444D01*
X61118413Y-91048443D01*
X61118412Y-91048443D01*
X60916243Y-90982754D01*
X60916241Y-90982753D01*
X60916240Y-90982753D01*
X60754957Y-90957208D01*
X60706287Y-90949500D01*
X60493713Y-90949500D01*
X60445042Y-90957208D01*
X60283760Y-90982753D01*
X60081585Y-91048444D01*
X59892179Y-91144951D01*
X59720213Y-91269890D01*
X59569890Y-91420213D01*
X59444951Y-91592179D01*
X59348444Y-91781585D01*
X59282753Y-91983760D01*
X59249500Y-92193713D01*
X50500500Y-92193713D01*
X50500500Y-89011263D01*
X58615500Y-89011263D01*
X58615500Y-89208736D01*
X58646389Y-89403763D01*
X58707408Y-89591558D01*
X58707409Y-89591561D01*
X58796921Y-89767236D01*
X58797058Y-89767504D01*
X58913115Y-89927246D01*
X59052753Y-90066884D01*
X59202234Y-90175486D01*
X59212499Y-90182944D01*
X59388439Y-90272591D01*
X59513637Y-90313270D01*
X59576236Y-90333610D01*
X59771264Y-90364500D01*
X59771269Y-90364500D01*
X59968736Y-90364500D01*
X60163763Y-90333610D01*
X60165262Y-90333123D01*
X60351561Y-90272591D01*
X60527501Y-90182944D01*
X60617192Y-90117779D01*
X60687246Y-90066884D01*
X60687248Y-90066881D01*
X60687252Y-90066879D01*
X60826879Y-89927252D01*
X60826881Y-89927248D01*
X60826884Y-89927246D01*
X60942941Y-89767505D01*
X60942942Y-89767504D01*
X60942944Y-89767501D01*
X61029517Y-89597593D01*
X61077490Y-89546800D01*
X61145311Y-89530005D01*
X61211446Y-89552542D01*
X61250482Y-89597593D01*
X61310189Y-89714772D01*
X61337058Y-89767505D01*
X61453115Y-89927246D01*
X61592753Y-90066884D01*
X61742234Y-90175486D01*
X61752499Y-90182944D01*
X61928439Y-90272591D01*
X62053637Y-90313270D01*
X62116236Y-90333610D01*
X62311264Y-90364500D01*
X62311269Y-90364500D01*
X62508736Y-90364500D01*
X62703763Y-90333610D01*
X62705262Y-90333123D01*
X62891561Y-90272591D01*
X63067501Y-90182944D01*
X63157192Y-90117779D01*
X63227246Y-90066884D01*
X63227248Y-90066881D01*
X63227252Y-90066879D01*
X63366879Y-89927252D01*
X63366881Y-89927248D01*
X63366884Y-89927246D01*
X63482941Y-89767505D01*
X63482942Y-89767504D01*
X63482944Y-89767501D01*
X63494400Y-89745016D01*
X63542373Y-89694221D01*
X63610194Y-89677425D01*
X63676329Y-89699961D01*
X63702809Y-89725239D01*
X63742497Y-89776328D01*
X63742504Y-89776336D01*
X64283664Y-90317496D01*
X64283677Y-90317507D01*
X64350515Y-90369429D01*
X64483349Y-90424450D01*
X64567335Y-90434999D01*
X64699999Y-90434999D01*
X64700000Y-90434998D01*
X64700000Y-89600747D01*
X64737708Y-89622518D01*
X64877591Y-89660000D01*
X65022409Y-89660000D01*
X65162292Y-89622518D01*
X65200000Y-89600747D01*
X65200000Y-90434999D01*
X65332660Y-90434999D01*
X65416650Y-90424451D01*
X65549483Y-90369429D01*
X65616330Y-90317500D01*
X65616336Y-90317495D01*
X66157496Y-89776335D01*
X66157505Y-89776325D01*
X66197526Y-89724806D01*
X66254198Y-89683939D01*
X66323967Y-89680198D01*
X66384683Y-89714772D01*
X66405935Y-89744578D01*
X66417480Y-89767236D01*
X66417482Y-89767238D01*
X66533496Y-89926919D01*
X66533500Y-89926924D01*
X66673075Y-90066499D01*
X66673080Y-90066503D01*
X66832757Y-90182514D01*
X67008626Y-90272126D01*
X67196355Y-90333123D01*
X67239999Y-90340034D01*
X67240000Y-90340034D01*
X67240000Y-89543012D01*
X67297007Y-89575925D01*
X67424174Y-89610000D01*
X67555826Y-89610000D01*
X67682993Y-89575925D01*
X67740000Y-89543012D01*
X67740000Y-90340034D01*
X67783644Y-90333123D01*
X67971373Y-90272126D01*
X68147242Y-90182514D01*
X68306919Y-90066503D01*
X68306924Y-90066499D01*
X68446499Y-89926924D01*
X68446503Y-89926919D01*
X68480182Y-89880565D01*
X68535511Y-89837899D01*
X68605125Y-89831920D01*
X68666920Y-89864525D01*
X68701277Y-89925364D01*
X68704500Y-89953450D01*
X68704500Y-90864324D01*
X68737137Y-91070389D01*
X68801612Y-91268820D01*
X68878748Y-91420208D01*
X68896330Y-91454714D01*
X69018965Y-91623505D01*
X69166495Y-91771035D01*
X69335286Y-91893670D01*
X69423116Y-91938421D01*
X69521179Y-91988387D01*
X69521181Y-91988387D01*
X69521184Y-91988389D01*
X69627545Y-92022948D01*
X69719610Y-92052862D01*
X69925676Y-92085500D01*
X69925681Y-92085500D01*
X70134324Y-92085500D01*
X70340389Y-92052862D01*
X70538816Y-91988389D01*
X70724714Y-91893670D01*
X70893505Y-91771035D01*
X71041035Y-91623505D01*
X71163670Y-91454714D01*
X71258389Y-91268816D01*
X71322862Y-91070389D01*
X71342009Y-90949500D01*
X71355500Y-90864324D01*
X71355500Y-89954300D01*
X71375185Y-89887261D01*
X71427989Y-89841506D01*
X71497147Y-89831562D01*
X71560703Y-89860587D01*
X71579819Y-89881415D01*
X71613121Y-89927252D01*
X71752753Y-90066884D01*
X71902234Y-90175486D01*
X71912499Y-90182944D01*
X72088439Y-90272591D01*
X72213637Y-90313270D01*
X72276236Y-90333610D01*
X72471264Y-90364500D01*
X72471269Y-90364500D01*
X72668736Y-90364500D01*
X72863763Y-90333610D01*
X72865262Y-90333123D01*
X73051561Y-90272591D01*
X73227501Y-90182944D01*
X73317192Y-90117779D01*
X73387246Y-90066884D01*
X73387248Y-90066881D01*
X73387252Y-90066879D01*
X73526879Y-89927252D01*
X73526881Y-89927248D01*
X73526884Y-89927246D01*
X73642941Y-89767505D01*
X73642942Y-89767504D01*
X73642944Y-89767501D01*
X73729517Y-89597593D01*
X73777490Y-89546800D01*
X73845311Y-89530005D01*
X73911446Y-89552542D01*
X73950482Y-89597593D01*
X74010189Y-89714772D01*
X74037058Y-89767505D01*
X74153115Y-89927246D01*
X74292753Y-90066884D01*
X74442234Y-90175486D01*
X74452499Y-90182944D01*
X74628439Y-90272591D01*
X74753637Y-90313270D01*
X74816236Y-90333610D01*
X75011264Y-90364500D01*
X75011269Y-90364500D01*
X75208736Y-90364500D01*
X75403763Y-90333610D01*
X75405262Y-90333123D01*
X75591561Y-90272591D01*
X75767501Y-90182944D01*
X75857192Y-90117779D01*
X75927246Y-90066884D01*
X75927248Y-90066881D01*
X75927252Y-90066879D01*
X76066879Y-89927252D01*
X76066881Y-89927248D01*
X76066884Y-89927246D01*
X76182941Y-89767505D01*
X76182942Y-89767504D01*
X76182944Y-89767501D01*
X76194400Y-89745016D01*
X76242373Y-89694221D01*
X76310194Y-89677425D01*
X76376329Y-89699961D01*
X76402809Y-89725239D01*
X76442497Y-89776328D01*
X76442504Y-89776336D01*
X76983664Y-90317496D01*
X76983677Y-90317507D01*
X77050515Y-90369429D01*
X77183349Y-90424450D01*
X77267335Y-90434999D01*
X77399999Y-90434999D01*
X77400000Y-90434998D01*
X77400000Y-89600747D01*
X77437708Y-89622518D01*
X77577591Y-89660000D01*
X77722409Y-89660000D01*
X77862292Y-89622518D01*
X77900000Y-89600747D01*
X77900000Y-90434999D01*
X78032660Y-90434999D01*
X78116650Y-90424451D01*
X78249483Y-90369429D01*
X78316330Y-90317500D01*
X78316336Y-90317495D01*
X78857496Y-89776335D01*
X78857505Y-89776325D01*
X78897188Y-89725241D01*
X78953860Y-89684374D01*
X79023629Y-89680633D01*
X79084345Y-89715207D01*
X79105597Y-89745013D01*
X79115867Y-89765168D01*
X79117058Y-89767505D01*
X79233115Y-89927246D01*
X79372753Y-90066884D01*
X79522234Y-90175486D01*
X79532499Y-90182944D01*
X79708439Y-90272591D01*
X79833637Y-90313270D01*
X79896236Y-90333610D01*
X80091264Y-90364500D01*
X80091269Y-90364500D01*
X80288736Y-90364500D01*
X80483763Y-90333610D01*
X80485262Y-90333123D01*
X80671561Y-90272591D01*
X80847501Y-90182944D01*
X80937192Y-90117779D01*
X81007246Y-90066884D01*
X81007248Y-90066881D01*
X81007252Y-90066879D01*
X81146879Y-89927252D01*
X81146881Y-89927248D01*
X81146884Y-89927246D01*
X81262941Y-89767505D01*
X81262942Y-89767504D01*
X81262944Y-89767501D01*
X81349517Y-89597593D01*
X81397490Y-89546800D01*
X81465311Y-89530005D01*
X81531446Y-89552542D01*
X81570482Y-89597593D01*
X81630189Y-89714772D01*
X81657058Y-89767505D01*
X81773115Y-89927246D01*
X81912753Y-90066884D01*
X82062234Y-90175486D01*
X82072499Y-90182944D01*
X82248439Y-90272591D01*
X82373637Y-90313270D01*
X82436236Y-90333610D01*
X82631264Y-90364500D01*
X82631269Y-90364500D01*
X82828736Y-90364500D01*
X83023763Y-90333610D01*
X83025262Y-90333123D01*
X83211561Y-90272591D01*
X83387501Y-90182944D01*
X83477192Y-90117779D01*
X83547246Y-90066884D01*
X83547248Y-90066881D01*
X83547252Y-90066879D01*
X83686879Y-89927252D01*
X83686881Y-89927248D01*
X83686884Y-89927246D01*
X83802941Y-89767505D01*
X83802942Y-89767504D01*
X83802944Y-89767501D01*
X83889517Y-89597593D01*
X83937490Y-89546800D01*
X84005311Y-89530005D01*
X84071446Y-89552542D01*
X84110482Y-89597593D01*
X84170189Y-89714772D01*
X84197058Y-89767505D01*
X84313115Y-89927246D01*
X84452753Y-90066884D01*
X84602234Y-90175486D01*
X84612499Y-90182944D01*
X84788439Y-90272591D01*
X84913637Y-90313270D01*
X84976236Y-90333610D01*
X85171264Y-90364500D01*
X85171269Y-90364500D01*
X85368736Y-90364500D01*
X85563763Y-90333610D01*
X85565262Y-90333123D01*
X85751561Y-90272591D01*
X85927501Y-90182944D01*
X86017192Y-90117779D01*
X86087246Y-90066884D01*
X86087248Y-90066881D01*
X86087252Y-90066879D01*
X86226879Y-89927252D01*
X86226881Y-89927248D01*
X86226884Y-89927246D01*
X86342941Y-89767505D01*
X86342942Y-89767504D01*
X86342944Y-89767501D01*
X86429517Y-89597593D01*
X86477490Y-89546800D01*
X86545311Y-89530005D01*
X86611446Y-89552542D01*
X86650482Y-89597593D01*
X86710189Y-89714772D01*
X86737058Y-89767505D01*
X86853115Y-89927246D01*
X86992753Y-90066884D01*
X87142234Y-90175486D01*
X87152499Y-90182944D01*
X87328439Y-90272591D01*
X87453637Y-90313270D01*
X87516236Y-90333610D01*
X87711264Y-90364500D01*
X87711269Y-90364500D01*
X87908736Y-90364500D01*
X88103763Y-90333610D01*
X88105262Y-90333123D01*
X88291561Y-90272591D01*
X88467501Y-90182944D01*
X88557192Y-90117779D01*
X88627246Y-90066884D01*
X88627248Y-90066881D01*
X88627252Y-90066879D01*
X88766879Y-89927252D01*
X88766881Y-89927248D01*
X88766884Y-89927246D01*
X88882941Y-89767505D01*
X88882942Y-89767504D01*
X88882944Y-89767501D01*
X88894400Y-89745016D01*
X88942373Y-89694221D01*
X89010194Y-89677425D01*
X89076329Y-89699961D01*
X89102809Y-89725239D01*
X89142497Y-89776328D01*
X89142504Y-89776336D01*
X89683664Y-90317496D01*
X89683677Y-90317507D01*
X89750515Y-90369429D01*
X89883349Y-90424450D01*
X89967335Y-90434999D01*
X90099999Y-90434999D01*
X90100000Y-90434998D01*
X90100000Y-89600747D01*
X90137708Y-89622518D01*
X90277591Y-89660000D01*
X90422409Y-89660000D01*
X90562292Y-89622518D01*
X90600000Y-89600747D01*
X90600000Y-90434999D01*
X90732660Y-90434999D01*
X90816650Y-90424451D01*
X90949483Y-90369429D01*
X91016330Y-90317500D01*
X91016336Y-90317495D01*
X91557496Y-89776335D01*
X91557505Y-89776325D01*
X91597188Y-89725241D01*
X91653860Y-89684374D01*
X91723629Y-89680633D01*
X91784345Y-89715207D01*
X91805597Y-89745013D01*
X91815867Y-89765168D01*
X91817058Y-89767505D01*
X91933115Y-89927246D01*
X92072753Y-90066884D01*
X92222234Y-90175486D01*
X92232499Y-90182944D01*
X92408439Y-90272591D01*
X92533637Y-90313270D01*
X92596236Y-90333610D01*
X92791264Y-90364500D01*
X92791269Y-90364500D01*
X92988736Y-90364500D01*
X93183763Y-90333610D01*
X93185262Y-90333123D01*
X93371561Y-90272591D01*
X93547501Y-90182944D01*
X93637192Y-90117779D01*
X93707246Y-90066884D01*
X93707248Y-90066881D01*
X93707252Y-90066879D01*
X93846879Y-89927252D01*
X93846881Y-89927248D01*
X93846884Y-89927246D01*
X93962941Y-89767505D01*
X93962942Y-89767504D01*
X93962944Y-89767501D01*
X94049517Y-89597593D01*
X94097490Y-89546800D01*
X94165311Y-89530005D01*
X94231446Y-89552542D01*
X94270482Y-89597593D01*
X94330189Y-89714772D01*
X94357058Y-89767505D01*
X94473115Y-89927246D01*
X94612753Y-90066884D01*
X94762234Y-90175486D01*
X94772499Y-90182944D01*
X94948439Y-90272591D01*
X95073637Y-90313270D01*
X95136236Y-90333610D01*
X95331264Y-90364500D01*
X95331269Y-90364500D01*
X95528736Y-90364500D01*
X95723763Y-90333610D01*
X95725262Y-90333123D01*
X95911561Y-90272591D01*
X96087501Y-90182944D01*
X96177192Y-90117779D01*
X96247246Y-90066884D01*
X96247248Y-90066881D01*
X96247252Y-90066879D01*
X96386879Y-89927252D01*
X96386881Y-89927248D01*
X96386884Y-89927246D01*
X96502941Y-89767505D01*
X96502942Y-89767504D01*
X96502944Y-89767501D01*
X96589517Y-89597593D01*
X96637490Y-89546800D01*
X96705311Y-89530005D01*
X96771446Y-89552542D01*
X96810482Y-89597593D01*
X96870189Y-89714772D01*
X96897058Y-89767505D01*
X97013115Y-89927246D01*
X97152753Y-90066884D01*
X97302234Y-90175486D01*
X97312499Y-90182944D01*
X97488439Y-90272591D01*
X97613637Y-90313270D01*
X97676236Y-90333610D01*
X97871264Y-90364500D01*
X97871269Y-90364500D01*
X98068736Y-90364500D01*
X98263763Y-90333610D01*
X98265262Y-90333123D01*
X98451561Y-90272591D01*
X98627501Y-90182944D01*
X98717192Y-90117779D01*
X98787246Y-90066884D01*
X98787248Y-90066881D01*
X98787252Y-90066879D01*
X98926879Y-89927252D01*
X98926881Y-89927248D01*
X98926884Y-89927246D01*
X99042941Y-89767505D01*
X99042942Y-89767504D01*
X99042944Y-89767501D01*
X99129517Y-89597593D01*
X99177490Y-89546800D01*
X99245311Y-89530005D01*
X99311446Y-89552542D01*
X99350482Y-89597593D01*
X99410189Y-89714772D01*
X99437058Y-89767505D01*
X99553115Y-89927246D01*
X99692753Y-90066884D01*
X99842234Y-90175486D01*
X99852499Y-90182944D01*
X100028439Y-90272591D01*
X100153637Y-90313270D01*
X100216236Y-90333610D01*
X100411264Y-90364500D01*
X100411269Y-90364500D01*
X100608736Y-90364500D01*
X100803763Y-90333610D01*
X100805262Y-90333123D01*
X100991561Y-90272591D01*
X101167501Y-90182944D01*
X101257192Y-90117779D01*
X101327246Y-90066884D01*
X101327248Y-90066881D01*
X101327252Y-90066879D01*
X101466879Y-89927252D01*
X101466881Y-89927248D01*
X101466884Y-89927246D01*
X101582941Y-89767505D01*
X101582942Y-89767504D01*
X101582944Y-89767501D01*
X101594400Y-89745016D01*
X101642373Y-89694221D01*
X101710194Y-89677425D01*
X101776329Y-89699961D01*
X101802809Y-89725239D01*
X101842497Y-89776328D01*
X101842504Y-89776336D01*
X102383664Y-90317496D01*
X102383677Y-90317507D01*
X102450515Y-90369429D01*
X102583349Y-90424450D01*
X102667335Y-90434999D01*
X102799999Y-90434999D01*
X102800000Y-90434998D01*
X102800000Y-89600747D01*
X102837708Y-89622518D01*
X102977591Y-89660000D01*
X103122409Y-89660000D01*
X103262292Y-89622518D01*
X103300000Y-89600747D01*
X103300000Y-90434999D01*
X103432660Y-90434999D01*
X103516650Y-90424451D01*
X103649483Y-90369429D01*
X103716330Y-90317500D01*
X103716336Y-90317495D01*
X104257496Y-89776335D01*
X104257505Y-89776325D01*
X104297188Y-89725241D01*
X104353860Y-89684374D01*
X104423629Y-89680633D01*
X104484345Y-89715207D01*
X104505597Y-89745013D01*
X104515867Y-89765168D01*
X104517058Y-89767505D01*
X104633115Y-89927246D01*
X104772753Y-90066884D01*
X104922234Y-90175486D01*
X104932499Y-90182944D01*
X105108439Y-90272591D01*
X105233637Y-90313270D01*
X105296236Y-90333610D01*
X105491264Y-90364500D01*
X105491269Y-90364500D01*
X105688736Y-90364500D01*
X105883763Y-90333610D01*
X105885262Y-90333123D01*
X106071561Y-90272591D01*
X106247501Y-90182944D01*
X106337192Y-90117779D01*
X106407246Y-90066884D01*
X106407248Y-90066881D01*
X106407252Y-90066879D01*
X106546879Y-89927252D01*
X106546881Y-89927248D01*
X106546884Y-89927246D01*
X106662941Y-89767505D01*
X106662942Y-89767504D01*
X106662944Y-89767501D01*
X106749517Y-89597593D01*
X106797490Y-89546800D01*
X106865311Y-89530005D01*
X106931446Y-89552542D01*
X106970482Y-89597593D01*
X107030189Y-89714772D01*
X107057058Y-89767505D01*
X107173115Y-89927246D01*
X107312753Y-90066884D01*
X107462234Y-90175486D01*
X107472499Y-90182944D01*
X107648439Y-90272591D01*
X107773637Y-90313270D01*
X107836236Y-90333610D01*
X108031264Y-90364500D01*
X108031269Y-90364500D01*
X108228736Y-90364500D01*
X108423763Y-90333610D01*
X108425262Y-90333123D01*
X108611561Y-90272591D01*
X108787501Y-90182944D01*
X108877192Y-90117779D01*
X108947246Y-90066884D01*
X108947248Y-90066881D01*
X108947252Y-90066879D01*
X109086879Y-89927252D01*
X109086881Y-89927248D01*
X109086884Y-89927246D01*
X109137779Y-89857192D01*
X109202944Y-89767501D01*
X109292591Y-89591561D01*
X109353610Y-89403763D01*
X109384500Y-89208736D01*
X109384500Y-89011263D01*
X109353610Y-88816236D01*
X109297671Y-88644075D01*
X109292591Y-88628439D01*
X109202944Y-88452499D01*
X109195486Y-88442234D01*
X109086884Y-88292753D01*
X108947246Y-88153115D01*
X108787504Y-88037058D01*
X108787503Y-88037057D01*
X108787501Y-88037056D01*
X108611561Y-87947409D01*
X108611558Y-87947408D01*
X108423763Y-87886389D01*
X108228736Y-87855500D01*
X108228731Y-87855500D01*
X108031269Y-87855500D01*
X108031264Y-87855500D01*
X107836236Y-87886389D01*
X107648441Y-87947408D01*
X107472495Y-88037058D01*
X107312753Y-88153115D01*
X107173115Y-88292753D01*
X107057058Y-88452495D01*
X107057057Y-88452497D01*
X107057056Y-88452499D01*
X106975609Y-88612347D01*
X106970485Y-88622403D01*
X106922510Y-88673199D01*
X106854689Y-88689994D01*
X106788554Y-88667456D01*
X106749515Y-88622403D01*
X106662944Y-88452499D01*
X106655486Y-88442234D01*
X106546884Y-88292753D01*
X106407246Y-88153115D01*
X106247504Y-88037058D01*
X106247503Y-88037057D01*
X106247501Y-88037056D01*
X106071561Y-87947409D01*
X106071558Y-87947408D01*
X105883763Y-87886389D01*
X105688736Y-87855500D01*
X105688731Y-87855500D01*
X105491269Y-87855500D01*
X105491264Y-87855500D01*
X105296236Y-87886389D01*
X105108441Y-87947408D01*
X104932495Y-88037058D01*
X104772753Y-88153115D01*
X104633115Y-88292753D01*
X104517056Y-88452497D01*
X104505598Y-88474985D01*
X104457623Y-88525781D01*
X104389802Y-88542575D01*
X104323667Y-88520037D01*
X104297189Y-88494759D01*
X104257506Y-88443676D01*
X104257495Y-88443663D01*
X103716335Y-87902503D01*
X103716322Y-87902492D01*
X103649484Y-87850570D01*
X103516650Y-87795549D01*
X103432667Y-87785000D01*
X103300000Y-87785000D01*
X103300000Y-88619252D01*
X103262292Y-88597482D01*
X103122409Y-88560000D01*
X102977591Y-88560000D01*
X102837708Y-88597482D01*
X102800000Y-88619252D01*
X102800000Y-87785000D01*
X102667340Y-87785000D01*
X102583349Y-87795548D01*
X102450516Y-87850570D01*
X102383669Y-87902499D01*
X102383663Y-87902504D01*
X101842503Y-88443664D01*
X101842489Y-88443679D01*
X101802809Y-88494760D01*
X101746137Y-88535626D01*
X101676367Y-88539365D01*
X101615652Y-88504790D01*
X101594401Y-88474985D01*
X101582944Y-88452499D01*
X101582942Y-88452496D01*
X101582941Y-88452494D01*
X101466884Y-88292753D01*
X101327246Y-88153115D01*
X101167504Y-88037058D01*
X101167503Y-88037057D01*
X101167501Y-88037056D01*
X100991561Y-87947409D01*
X100991558Y-87947408D01*
X100803763Y-87886389D01*
X100608736Y-87855500D01*
X100608731Y-87855500D01*
X100411269Y-87855500D01*
X100411264Y-87855500D01*
X100216236Y-87886389D01*
X100028441Y-87947408D01*
X99852495Y-88037058D01*
X99692753Y-88153115D01*
X99553115Y-88292753D01*
X99437058Y-88452495D01*
X99437057Y-88452497D01*
X99437056Y-88452499D01*
X99355609Y-88612347D01*
X99350485Y-88622403D01*
X99302510Y-88673199D01*
X99234689Y-88689994D01*
X99168554Y-88667456D01*
X99129515Y-88622403D01*
X99042944Y-88452499D01*
X99035486Y-88442234D01*
X98926884Y-88292753D01*
X98787246Y-88153115D01*
X98627504Y-88037058D01*
X98627503Y-88037057D01*
X98627501Y-88037056D01*
X98451561Y-87947409D01*
X98451558Y-87947408D01*
X98263763Y-87886389D01*
X98068736Y-87855500D01*
X98068731Y-87855500D01*
X97871269Y-87855500D01*
X97871264Y-87855500D01*
X97676236Y-87886389D01*
X97488441Y-87947408D01*
X97312495Y-88037058D01*
X97152753Y-88153115D01*
X97013115Y-88292753D01*
X96897058Y-88452495D01*
X96897057Y-88452497D01*
X96897056Y-88452499D01*
X96815609Y-88612347D01*
X96810485Y-88622403D01*
X96762510Y-88673199D01*
X96694689Y-88689994D01*
X96628554Y-88667456D01*
X96589515Y-88622403D01*
X96502944Y-88452499D01*
X96495486Y-88442234D01*
X96386884Y-88292753D01*
X96247246Y-88153115D01*
X96087504Y-88037058D01*
X96087503Y-88037057D01*
X96087501Y-88037056D01*
X95911561Y-87947409D01*
X95911558Y-87947408D01*
X95723763Y-87886389D01*
X95528736Y-87855500D01*
X95528731Y-87855500D01*
X95331269Y-87855500D01*
X95331264Y-87855500D01*
X95136236Y-87886389D01*
X94948441Y-87947408D01*
X94772495Y-88037058D01*
X94612753Y-88153115D01*
X94473115Y-88292753D01*
X94357058Y-88452495D01*
X94357057Y-88452497D01*
X94357056Y-88452499D01*
X94275609Y-88612347D01*
X94270485Y-88622403D01*
X94222510Y-88673199D01*
X94154689Y-88689994D01*
X94088554Y-88667456D01*
X94049515Y-88622403D01*
X93962944Y-88452499D01*
X93955486Y-88442234D01*
X93846884Y-88292753D01*
X93707246Y-88153115D01*
X93547504Y-88037058D01*
X93547503Y-88037057D01*
X93547501Y-88037056D01*
X93371561Y-87947409D01*
X93371558Y-87947408D01*
X93183763Y-87886389D01*
X92988736Y-87855500D01*
X92988731Y-87855500D01*
X92791269Y-87855500D01*
X92791264Y-87855500D01*
X92596236Y-87886389D01*
X92408441Y-87947408D01*
X92232495Y-88037058D01*
X92072753Y-88153115D01*
X91933115Y-88292753D01*
X91817056Y-88452497D01*
X91805598Y-88474985D01*
X91757623Y-88525781D01*
X91689802Y-88542575D01*
X91623667Y-88520037D01*
X91597189Y-88494759D01*
X91557506Y-88443676D01*
X91557495Y-88443663D01*
X91016335Y-87902503D01*
X91016322Y-87902492D01*
X90949484Y-87850570D01*
X90816650Y-87795549D01*
X90732667Y-87785000D01*
X90600000Y-87785000D01*
X90600000Y-88619252D01*
X90562292Y-88597482D01*
X90422409Y-88560000D01*
X90277591Y-88560000D01*
X90137708Y-88597482D01*
X90100000Y-88619252D01*
X90100000Y-87785000D01*
X89967340Y-87785000D01*
X89883349Y-87795548D01*
X89750516Y-87850570D01*
X89683669Y-87902499D01*
X89683663Y-87902504D01*
X89142503Y-88443664D01*
X89142489Y-88443679D01*
X89102809Y-88494760D01*
X89046137Y-88535626D01*
X88976367Y-88539365D01*
X88915652Y-88504790D01*
X88894401Y-88474985D01*
X88882944Y-88452499D01*
X88882942Y-88452496D01*
X88882941Y-88452494D01*
X88766884Y-88292753D01*
X88627246Y-88153115D01*
X88467504Y-88037058D01*
X88467503Y-88037057D01*
X88467501Y-88037056D01*
X88291561Y-87947409D01*
X88291558Y-87947408D01*
X88103763Y-87886389D01*
X87908736Y-87855500D01*
X87908731Y-87855500D01*
X87711269Y-87855500D01*
X87711264Y-87855500D01*
X87516236Y-87886389D01*
X87328441Y-87947408D01*
X87152495Y-88037058D01*
X86992753Y-88153115D01*
X86853115Y-88292753D01*
X86737058Y-88452495D01*
X86737057Y-88452497D01*
X86737056Y-88452499D01*
X86655609Y-88612347D01*
X86650485Y-88622403D01*
X86602510Y-88673199D01*
X86534689Y-88689994D01*
X86468554Y-88667456D01*
X86429515Y-88622403D01*
X86342944Y-88452499D01*
X86335486Y-88442234D01*
X86226884Y-88292753D01*
X86087246Y-88153115D01*
X85927504Y-88037058D01*
X85927503Y-88037057D01*
X85927501Y-88037056D01*
X85751561Y-87947409D01*
X85751558Y-87947408D01*
X85563763Y-87886389D01*
X85368736Y-87855500D01*
X85368731Y-87855500D01*
X85171269Y-87855500D01*
X85171264Y-87855500D01*
X84976236Y-87886389D01*
X84788441Y-87947408D01*
X84612495Y-88037058D01*
X84452753Y-88153115D01*
X84313115Y-88292753D01*
X84197058Y-88452495D01*
X84197057Y-88452497D01*
X84197056Y-88452499D01*
X84115609Y-88612347D01*
X84110485Y-88622403D01*
X84062510Y-88673199D01*
X83994689Y-88689994D01*
X83928554Y-88667456D01*
X83889515Y-88622403D01*
X83802944Y-88452499D01*
X83795486Y-88442234D01*
X83686884Y-88292753D01*
X83547246Y-88153115D01*
X83387504Y-88037058D01*
X83387503Y-88037057D01*
X83387501Y-88037056D01*
X83211561Y-87947409D01*
X83211558Y-87947408D01*
X83023763Y-87886389D01*
X82828736Y-87855500D01*
X82828731Y-87855500D01*
X82631269Y-87855500D01*
X82631264Y-87855500D01*
X82436236Y-87886389D01*
X82248441Y-87947408D01*
X82072495Y-88037058D01*
X81912753Y-88153115D01*
X81773115Y-88292753D01*
X81657058Y-88452495D01*
X81657057Y-88452497D01*
X81657056Y-88452499D01*
X81575609Y-88612347D01*
X81570485Y-88622403D01*
X81522510Y-88673199D01*
X81454689Y-88689994D01*
X81388554Y-88667456D01*
X81349515Y-88622403D01*
X81262944Y-88452499D01*
X81255486Y-88442234D01*
X81146884Y-88292753D01*
X81007246Y-88153115D01*
X80847504Y-88037058D01*
X80847503Y-88037057D01*
X80847501Y-88037056D01*
X80671561Y-87947409D01*
X80671558Y-87947408D01*
X80483763Y-87886389D01*
X80288736Y-87855500D01*
X80288731Y-87855500D01*
X80091269Y-87855500D01*
X80091264Y-87855500D01*
X79896236Y-87886389D01*
X79708441Y-87947408D01*
X79532495Y-88037058D01*
X79372753Y-88153115D01*
X79233115Y-88292753D01*
X79117056Y-88452497D01*
X79105598Y-88474985D01*
X79057623Y-88525781D01*
X78989802Y-88542575D01*
X78923667Y-88520037D01*
X78897189Y-88494759D01*
X78857506Y-88443676D01*
X78857495Y-88443663D01*
X78316335Y-87902503D01*
X78316322Y-87902492D01*
X78249484Y-87850570D01*
X78116650Y-87795549D01*
X78032667Y-87785000D01*
X77900000Y-87785000D01*
X77900000Y-88619252D01*
X77862292Y-88597482D01*
X77722409Y-88560000D01*
X77577591Y-88560000D01*
X77437708Y-88597482D01*
X77400000Y-88619252D01*
X77400000Y-87785000D01*
X77267340Y-87785000D01*
X77183349Y-87795548D01*
X77050516Y-87850570D01*
X76983669Y-87902499D01*
X76983663Y-87902504D01*
X76442503Y-88443664D01*
X76442489Y-88443679D01*
X76402809Y-88494760D01*
X76346137Y-88535626D01*
X76276367Y-88539365D01*
X76215652Y-88504790D01*
X76194401Y-88474985D01*
X76182944Y-88452499D01*
X76182942Y-88452496D01*
X76182941Y-88452494D01*
X76066884Y-88292753D01*
X75927246Y-88153115D01*
X75767504Y-88037058D01*
X75767503Y-88037057D01*
X75767501Y-88037056D01*
X75591561Y-87947409D01*
X75591558Y-87947408D01*
X75403763Y-87886389D01*
X75208736Y-87855500D01*
X75208731Y-87855500D01*
X75011269Y-87855500D01*
X75011264Y-87855500D01*
X74816236Y-87886389D01*
X74628441Y-87947408D01*
X74452495Y-88037058D01*
X74292753Y-88153115D01*
X74153115Y-88292753D01*
X74037058Y-88452495D01*
X74037057Y-88452497D01*
X74037056Y-88452499D01*
X73955609Y-88612347D01*
X73950485Y-88622403D01*
X73902510Y-88673199D01*
X73834689Y-88689994D01*
X73768554Y-88667456D01*
X73729515Y-88622403D01*
X73642944Y-88452499D01*
X73635486Y-88442234D01*
X73526884Y-88292753D01*
X73387246Y-88153115D01*
X73227504Y-88037058D01*
X73227503Y-88037057D01*
X73227501Y-88037056D01*
X73051561Y-87947409D01*
X73051558Y-87947408D01*
X72863763Y-87886389D01*
X72668736Y-87855500D01*
X72668731Y-87855500D01*
X72471269Y-87855500D01*
X72471264Y-87855500D01*
X72276236Y-87886389D01*
X72088441Y-87947408D01*
X71912495Y-88037058D01*
X71752753Y-88153115D01*
X71613115Y-88292753D01*
X71497058Y-88452495D01*
X71497057Y-88452497D01*
X71497056Y-88452499D01*
X71451160Y-88542575D01*
X71450328Y-88544207D01*
X71402353Y-88595003D01*
X71334532Y-88611798D01*
X71268397Y-88589260D01*
X71229358Y-88544207D01*
X71220192Y-88526217D01*
X71163670Y-88415286D01*
X71041035Y-88246495D01*
X70893505Y-88098965D01*
X70724714Y-87976330D01*
X70668864Y-87947873D01*
X70538820Y-87881612D01*
X70340389Y-87817137D01*
X70134324Y-87784500D01*
X70134319Y-87784500D01*
X69925681Y-87784500D01*
X69925676Y-87784500D01*
X69719610Y-87817137D01*
X69521179Y-87881612D01*
X69335285Y-87976330D01*
X69166493Y-88098966D01*
X69018966Y-88246493D01*
X68896330Y-88415285D01*
X68830361Y-88544756D01*
X68782386Y-88595552D01*
X68714565Y-88612347D01*
X68648430Y-88589809D01*
X68609391Y-88544756D01*
X68562514Y-88452757D01*
X68446503Y-88293080D01*
X68446499Y-88293075D01*
X68306924Y-88153500D01*
X68306919Y-88153496D01*
X68147242Y-88037485D01*
X67971371Y-87947873D01*
X67783642Y-87886876D01*
X67740000Y-87879963D01*
X67740000Y-88676988D01*
X67682993Y-88644075D01*
X67555826Y-88610000D01*
X67424174Y-88610000D01*
X67297007Y-88644075D01*
X67240000Y-88676988D01*
X67240000Y-87879963D01*
X67196357Y-87886876D01*
X67196356Y-87886876D01*
X67008628Y-87947873D01*
X66832757Y-88037485D01*
X66673080Y-88153496D01*
X66673075Y-88153500D01*
X66533500Y-88293075D01*
X66533496Y-88293080D01*
X66417484Y-88452757D01*
X66405935Y-88475423D01*
X66357958Y-88526217D01*
X66290137Y-88543010D01*
X66224003Y-88520470D01*
X66197527Y-88495194D01*
X66157506Y-88443676D01*
X66157495Y-88443663D01*
X65616335Y-87902503D01*
X65616322Y-87902492D01*
X65549484Y-87850570D01*
X65416650Y-87795549D01*
X65332667Y-87785000D01*
X65200000Y-87785000D01*
X65200000Y-88619252D01*
X65162292Y-88597482D01*
X65022409Y-88560000D01*
X64877591Y-88560000D01*
X64737708Y-88597482D01*
X64700000Y-88619252D01*
X64700000Y-87785000D01*
X64567340Y-87785000D01*
X64483349Y-87795548D01*
X64350516Y-87850570D01*
X64283669Y-87902499D01*
X64283663Y-87902504D01*
X63742503Y-88443664D01*
X63742489Y-88443679D01*
X63702809Y-88494760D01*
X63646137Y-88535626D01*
X63576367Y-88539365D01*
X63515652Y-88504790D01*
X63494401Y-88474985D01*
X63482944Y-88452499D01*
X63482942Y-88452496D01*
X63482941Y-88452494D01*
X63366884Y-88292753D01*
X63227246Y-88153115D01*
X63067504Y-88037058D01*
X63067503Y-88037057D01*
X63067501Y-88037056D01*
X62891561Y-87947409D01*
X62891558Y-87947408D01*
X62703763Y-87886389D01*
X62508736Y-87855500D01*
X62508731Y-87855500D01*
X62311269Y-87855500D01*
X62311264Y-87855500D01*
X62116236Y-87886389D01*
X61928441Y-87947408D01*
X61752495Y-88037058D01*
X61592753Y-88153115D01*
X61453115Y-88292753D01*
X61337058Y-88452495D01*
X61337057Y-88452497D01*
X61337056Y-88452499D01*
X61255609Y-88612347D01*
X61250485Y-88622403D01*
X61202510Y-88673199D01*
X61134689Y-88689994D01*
X61068554Y-88667456D01*
X61029515Y-88622403D01*
X60942944Y-88452499D01*
X60935486Y-88442234D01*
X60826884Y-88292753D01*
X60687246Y-88153115D01*
X60527504Y-88037058D01*
X60527503Y-88037057D01*
X60527501Y-88037056D01*
X60351561Y-87947409D01*
X60351558Y-87947408D01*
X60163763Y-87886389D01*
X59968736Y-87855500D01*
X59968731Y-87855500D01*
X59771269Y-87855500D01*
X59771264Y-87855500D01*
X59576236Y-87886389D01*
X59388441Y-87947408D01*
X59212495Y-88037058D01*
X59052753Y-88153115D01*
X58913115Y-88292753D01*
X58797058Y-88452495D01*
X58707408Y-88628441D01*
X58646389Y-88816236D01*
X58615500Y-89011263D01*
X50500500Y-89011263D01*
X50500500Y-86047682D01*
X66230000Y-86047682D01*
X66230000Y-86252317D01*
X66262009Y-86454417D01*
X66325244Y-86649031D01*
X66418141Y-86831350D01*
X66418147Y-86831359D01*
X66450523Y-86875921D01*
X66450524Y-86875922D01*
X67130000Y-86196446D01*
X67130000Y-86202661D01*
X67157259Y-86304394D01*
X67209920Y-86395606D01*
X67284394Y-86470080D01*
X67375606Y-86522741D01*
X67477339Y-86550000D01*
X67483553Y-86550000D01*
X66804076Y-87229474D01*
X66848650Y-87261859D01*
X67030968Y-87354755D01*
X67225582Y-87417990D01*
X67427683Y-87450000D01*
X67632317Y-87450000D01*
X67834417Y-87417990D01*
X68029031Y-87354755D01*
X68211349Y-87261859D01*
X68255921Y-87229474D01*
X67576447Y-86550000D01*
X67582661Y-86550000D01*
X67684394Y-86522741D01*
X67775606Y-86470080D01*
X67850080Y-86395606D01*
X67902741Y-86304394D01*
X67930000Y-86202661D01*
X67930000Y-86196447D01*
X68609474Y-86875921D01*
X68641859Y-86831349D01*
X68669233Y-86777624D01*
X68717207Y-86726827D01*
X68785028Y-86710031D01*
X68851163Y-86732567D01*
X68890203Y-86777621D01*
X68917713Y-86831611D01*
X69038028Y-86997213D01*
X69182786Y-87141971D01*
X69303226Y-87229474D01*
X69348390Y-87262287D01*
X69464607Y-87321503D01*
X69530776Y-87355218D01*
X69530778Y-87355218D01*
X69530781Y-87355220D01*
X69635137Y-87389127D01*
X69725465Y-87418477D01*
X69826557Y-87434488D01*
X69927648Y-87450500D01*
X69927649Y-87450500D01*
X70132351Y-87450500D01*
X70132352Y-87450500D01*
X70334534Y-87418477D01*
X70529219Y-87355220D01*
X70711610Y-87262287D01*
X70804590Y-87194732D01*
X70877213Y-87141971D01*
X70877215Y-87141968D01*
X70877219Y-87141966D01*
X71021966Y-86997219D01*
X71021968Y-86997215D01*
X71021971Y-86997213D01*
X71074732Y-86924590D01*
X71142287Y-86831610D01*
X71235220Y-86649219D01*
X71298477Y-86454534D01*
X71330500Y-86252352D01*
X71330500Y-86047648D01*
X71321939Y-85993596D01*
X71298477Y-85845465D01*
X71245237Y-85681610D01*
X71235220Y-85650781D01*
X71235218Y-85650778D01*
X71235218Y-85650776D01*
X71182762Y-85547827D01*
X71142287Y-85468390D01*
X71110092Y-85424077D01*
X71021971Y-85302786D01*
X70877213Y-85158028D01*
X70711614Y-85037715D01*
X70643994Y-85003261D01*
X70529223Y-84944781D01*
X70384164Y-84897648D01*
X80699500Y-84897648D01*
X80699500Y-85102351D01*
X80731522Y-85304534D01*
X80794781Y-85499223D01*
X80887715Y-85681613D01*
X81008028Y-85847213D01*
X81152786Y-85991971D01*
X81297816Y-86097339D01*
X81318390Y-86112287D01*
X81434607Y-86171503D01*
X81500776Y-86205218D01*
X81500778Y-86205218D01*
X81500781Y-86205220D01*
X81605137Y-86239127D01*
X81695465Y-86268477D01*
X81796557Y-86284488D01*
X81897648Y-86300500D01*
X81897649Y-86300500D01*
X82102351Y-86300500D01*
X82102352Y-86300500D01*
X82304534Y-86268477D01*
X82499219Y-86205220D01*
X82681610Y-86112287D01*
X82774590Y-86044732D01*
X82847213Y-85991971D01*
X82847215Y-85991968D01*
X82847219Y-85991966D01*
X82991966Y-85847219D01*
X82991968Y-85847215D01*
X82991971Y-85847213D01*
X83068349Y-85742086D01*
X83112287Y-85681610D01*
X83205220Y-85499219D01*
X83268477Y-85304534D01*
X83300500Y-85102352D01*
X83300500Y-84897648D01*
X92699500Y-84897648D01*
X92699500Y-85102351D01*
X92731522Y-85304534D01*
X92794781Y-85499223D01*
X92887715Y-85681613D01*
X93008028Y-85847213D01*
X93152786Y-85991971D01*
X93297816Y-86097339D01*
X93318390Y-86112287D01*
X93434607Y-86171503D01*
X93500776Y-86205218D01*
X93500778Y-86205218D01*
X93500781Y-86205220D01*
X93605137Y-86239127D01*
X93695465Y-86268477D01*
X93796557Y-86284488D01*
X93897648Y-86300500D01*
X93897649Y-86300500D01*
X94102351Y-86300500D01*
X94102352Y-86300500D01*
X94304534Y-86268477D01*
X94499219Y-86205220D01*
X94681610Y-86112287D01*
X94774590Y-86044732D01*
X94847213Y-85991971D01*
X94847215Y-85991968D01*
X94847219Y-85991966D01*
X94991966Y-85847219D01*
X94991968Y-85847215D01*
X94991971Y-85847213D01*
X95068349Y-85742086D01*
X95112287Y-85681610D01*
X95205220Y-85499219D01*
X95268477Y-85304534D01*
X95300500Y-85102352D01*
X95300500Y-84897648D01*
X95268477Y-84695466D01*
X95205220Y-84500781D01*
X95205218Y-84500778D01*
X95205218Y-84500776D01*
X95167273Y-84426306D01*
X95112287Y-84318390D01*
X95102594Y-84305048D01*
X94991971Y-84152786D01*
X94847213Y-84008028D01*
X94681613Y-83887715D01*
X94681612Y-83887714D01*
X94681610Y-83887713D01*
X94621794Y-83857235D01*
X94499223Y-83794781D01*
X94304534Y-83731522D01*
X94129995Y-83703878D01*
X94102352Y-83699500D01*
X93897648Y-83699500D01*
X93873329Y-83703351D01*
X93695465Y-83731522D01*
X93500776Y-83794781D01*
X93318386Y-83887715D01*
X93152786Y-84008028D01*
X93008028Y-84152786D01*
X92887715Y-84318386D01*
X92794781Y-84500776D01*
X92731522Y-84695465D01*
X92699500Y-84897648D01*
X83300500Y-84897648D01*
X83268477Y-84695466D01*
X83205220Y-84500781D01*
X83205218Y-84500778D01*
X83205218Y-84500776D01*
X83167273Y-84426306D01*
X83112287Y-84318390D01*
X83102594Y-84305048D01*
X82991971Y-84152786D01*
X82847213Y-84008028D01*
X82681613Y-83887715D01*
X82681612Y-83887714D01*
X82681610Y-83887713D01*
X82621794Y-83857235D01*
X82499223Y-83794781D01*
X82304534Y-83731522D01*
X82129995Y-83703878D01*
X82102352Y-83699500D01*
X81897648Y-83699500D01*
X81873329Y-83703351D01*
X81695465Y-83731522D01*
X81500776Y-83794781D01*
X81318386Y-83887715D01*
X81152786Y-84008028D01*
X81008028Y-84152786D01*
X80887715Y-84318386D01*
X80794781Y-84500776D01*
X80731522Y-84695465D01*
X80699500Y-84897648D01*
X70384164Y-84897648D01*
X70334534Y-84881522D01*
X70159995Y-84853878D01*
X70132352Y-84849500D01*
X69927648Y-84849500D01*
X69903329Y-84853351D01*
X69725465Y-84881522D01*
X69530776Y-84944781D01*
X69348386Y-85037715D01*
X69182786Y-85158028D01*
X69038028Y-85302786D01*
X68917714Y-85468386D01*
X68890203Y-85522379D01*
X68842227Y-85573174D01*
X68774406Y-85589968D01*
X68708272Y-85567429D01*
X68669234Y-85522376D01*
X68641861Y-85468652D01*
X68609474Y-85424077D01*
X68609474Y-85424076D01*
X67930000Y-86103551D01*
X67930000Y-86097339D01*
X67902741Y-85995606D01*
X67850080Y-85904394D01*
X67775606Y-85829920D01*
X67684394Y-85777259D01*
X67582661Y-85750000D01*
X67576446Y-85750000D01*
X68255922Y-85070524D01*
X68255921Y-85070523D01*
X68211359Y-85038147D01*
X68211350Y-85038141D01*
X68029031Y-84945244D01*
X67834417Y-84882009D01*
X67632317Y-84850000D01*
X67427683Y-84850000D01*
X67225582Y-84882009D01*
X67030968Y-84945244D01*
X66848644Y-85038143D01*
X66804077Y-85070523D01*
X66804077Y-85070524D01*
X67483554Y-85750000D01*
X67477339Y-85750000D01*
X67375606Y-85777259D01*
X67284394Y-85829920D01*
X67209920Y-85904394D01*
X67157259Y-85995606D01*
X67130000Y-86097339D01*
X67130000Y-86103553D01*
X66450524Y-85424077D01*
X66450523Y-85424077D01*
X66418143Y-85468644D01*
X66325244Y-85650968D01*
X66262009Y-85845582D01*
X66230000Y-86047682D01*
X50500500Y-86047682D01*
X50500500Y-76909778D01*
X52069500Y-76909778D01*
X52069500Y-77130221D01*
X52103985Y-77347952D01*
X52172103Y-77557603D01*
X52172104Y-77557606D01*
X52272187Y-77754025D01*
X52401752Y-77932358D01*
X52401756Y-77932363D01*
X52452316Y-77982923D01*
X52485801Y-78044246D01*
X52480817Y-78113938D01*
X52438945Y-78169871D01*
X52407969Y-78186785D01*
X52327918Y-78216643D01*
X52327906Y-78216649D01*
X52212812Y-78302809D01*
X52212809Y-78302812D01*
X52126649Y-78417906D01*
X52126645Y-78417913D01*
X52076403Y-78552620D01*
X52076401Y-78552627D01*
X52070000Y-78612155D01*
X52070000Y-79310000D01*
X53094722Y-79310000D01*
X53050667Y-79386306D01*
X53020000Y-79500756D01*
X53020000Y-79619244D01*
X53050667Y-79733694D01*
X53094722Y-79810000D01*
X52070000Y-79810000D01*
X52070000Y-80507844D01*
X52076401Y-80567372D01*
X52076403Y-80567379D01*
X52126645Y-80702086D01*
X52126649Y-80702093D01*
X52212809Y-80817187D01*
X52212812Y-80817190D01*
X52327906Y-80903350D01*
X52327915Y-80903355D01*
X52378834Y-80922346D01*
X52434768Y-80964216D01*
X52459186Y-81029680D01*
X52444335Y-81097953D01*
X52423185Y-81126207D01*
X52401757Y-81147635D01*
X52401752Y-81147641D01*
X52272187Y-81325974D01*
X52172104Y-81522393D01*
X52172103Y-81522396D01*
X52103985Y-81732047D01*
X52090072Y-81819890D01*
X52069500Y-81949778D01*
X52069500Y-82170222D01*
X52074221Y-82200028D01*
X52103985Y-82387952D01*
X52172103Y-82597603D01*
X52172104Y-82597606D01*
X52240122Y-82731096D01*
X52249754Y-82750000D01*
X52272187Y-82794025D01*
X52401752Y-82972358D01*
X52401756Y-82972363D01*
X52452316Y-83022923D01*
X52485801Y-83084246D01*
X52480817Y-83153938D01*
X52438945Y-83209871D01*
X52407969Y-83226785D01*
X52327918Y-83256643D01*
X52327906Y-83256649D01*
X52212812Y-83342809D01*
X52212809Y-83342812D01*
X52126649Y-83457906D01*
X52126645Y-83457913D01*
X52076403Y-83592620D01*
X52076401Y-83592627D01*
X52070000Y-83652155D01*
X52070000Y-84350000D01*
X53094722Y-84350000D01*
X53050667Y-84426306D01*
X53020000Y-84540756D01*
X53020000Y-84659244D01*
X53050667Y-84773694D01*
X53094722Y-84850000D01*
X52070000Y-84850000D01*
X52070000Y-85547844D01*
X52076401Y-85607372D01*
X52076403Y-85607379D01*
X52126645Y-85742086D01*
X52126649Y-85742093D01*
X52212809Y-85857187D01*
X52212812Y-85857190D01*
X52327906Y-85943350D01*
X52327913Y-85943354D01*
X52462620Y-85993596D01*
X52462627Y-85993598D01*
X52522155Y-85999999D01*
X52522172Y-86000000D01*
X53220000Y-86000000D01*
X53220000Y-84975277D01*
X53296306Y-85019333D01*
X53410756Y-85050000D01*
X53529244Y-85050000D01*
X53643694Y-85019333D01*
X53720000Y-84975277D01*
X53720000Y-86000000D01*
X54417828Y-86000000D01*
X54417844Y-85999999D01*
X54477372Y-85993598D01*
X54477379Y-85993596D01*
X54612086Y-85943354D01*
X54612093Y-85943350D01*
X54727187Y-85857190D01*
X54727190Y-85857187D01*
X54813350Y-85742093D01*
X54813354Y-85742086D01*
X54863596Y-85607379D01*
X54863598Y-85607372D01*
X54869999Y-85547844D01*
X54870000Y-85547827D01*
X54870000Y-84850000D01*
X53845278Y-84850000D01*
X53889333Y-84773694D01*
X53920000Y-84659244D01*
X53920000Y-84540756D01*
X53889333Y-84426306D01*
X53845278Y-84350000D01*
X54870000Y-84350000D01*
X54870000Y-83652172D01*
X54869999Y-83652155D01*
X54863598Y-83592627D01*
X54863596Y-83592620D01*
X54813354Y-83457913D01*
X54813350Y-83457906D01*
X54727190Y-83342812D01*
X54727187Y-83342809D01*
X54612093Y-83256649D01*
X54612087Y-83256646D01*
X54532030Y-83226786D01*
X54476097Y-83184914D01*
X54451680Y-83119450D01*
X54466532Y-83051177D01*
X54487681Y-83022925D01*
X54538242Y-82972365D01*
X54667815Y-82794022D01*
X54693449Y-82743713D01*
X73149500Y-82743713D01*
X73149500Y-83256287D01*
X73149557Y-83256646D01*
X73182703Y-83465925D01*
X73182754Y-83466243D01*
X73243166Y-83652172D01*
X73248444Y-83668414D01*
X73344951Y-83857820D01*
X73469890Y-84029786D01*
X73620213Y-84180109D01*
X73792179Y-84305048D01*
X73792181Y-84305049D01*
X73792184Y-84305051D01*
X73981588Y-84401557D01*
X74183757Y-84467246D01*
X74393713Y-84500500D01*
X74393714Y-84500500D01*
X74606286Y-84500500D01*
X74606287Y-84500500D01*
X74816243Y-84467246D01*
X75018412Y-84401557D01*
X75207816Y-84305051D01*
X75326729Y-84218656D01*
X75379784Y-84180110D01*
X75379784Y-84180109D01*
X75379792Y-84180104D01*
X75518967Y-84040928D01*
X75580286Y-84007446D01*
X75649978Y-84012430D01*
X75705912Y-84054301D01*
X75712184Y-84063515D01*
X75807684Y-84218345D01*
X75931654Y-84342315D01*
X76080875Y-84434356D01*
X76080880Y-84434358D01*
X76247302Y-84489505D01*
X76247309Y-84489506D01*
X76350019Y-84499999D01*
X76749999Y-84499999D01*
X76750000Y-84499998D01*
X76750000Y-83433012D01*
X76807007Y-83465925D01*
X76934174Y-83500000D01*
X77065826Y-83500000D01*
X77192993Y-83465925D01*
X77250000Y-83433012D01*
X77250000Y-84499999D01*
X77649972Y-84499999D01*
X77649986Y-84499998D01*
X77752697Y-84489505D01*
X77919119Y-84434358D01*
X77919124Y-84434356D01*
X78068345Y-84342315D01*
X78192315Y-84218345D01*
X78284356Y-84069124D01*
X78284358Y-84069119D01*
X78339505Y-83902697D01*
X78339506Y-83902690D01*
X78349999Y-83799986D01*
X78350000Y-83799973D01*
X78350000Y-83250000D01*
X77433012Y-83250000D01*
X77465925Y-83192993D01*
X77500000Y-83065826D01*
X77500000Y-82934174D01*
X77465925Y-82807007D01*
X77433012Y-82750000D01*
X78349999Y-82750000D01*
X78349999Y-82743713D01*
X85149500Y-82743713D01*
X85149500Y-83256287D01*
X85149557Y-83256646D01*
X85182703Y-83465925D01*
X85182754Y-83466243D01*
X85243166Y-83652172D01*
X85248444Y-83668414D01*
X85344951Y-83857820D01*
X85469890Y-84029786D01*
X85620213Y-84180109D01*
X85792179Y-84305048D01*
X85792181Y-84305049D01*
X85792184Y-84305051D01*
X85981588Y-84401557D01*
X86183757Y-84467246D01*
X86393713Y-84500500D01*
X86393714Y-84500500D01*
X86606286Y-84500500D01*
X86606287Y-84500500D01*
X86816243Y-84467246D01*
X87018412Y-84401557D01*
X87207816Y-84305051D01*
X87326729Y-84218656D01*
X87379784Y-84180110D01*
X87379784Y-84180109D01*
X87379792Y-84180104D01*
X87518967Y-84040928D01*
X87580286Y-84007446D01*
X87649978Y-84012430D01*
X87705912Y-84054301D01*
X87712184Y-84063515D01*
X87807684Y-84218345D01*
X87931654Y-84342315D01*
X88080875Y-84434356D01*
X88080880Y-84434358D01*
X88247302Y-84489505D01*
X88247309Y-84489506D01*
X88350019Y-84499999D01*
X88749999Y-84499999D01*
X88750000Y-84499998D01*
X88750000Y-83433012D01*
X88807007Y-83465925D01*
X88934174Y-83500000D01*
X89065826Y-83500000D01*
X89192993Y-83465925D01*
X89250000Y-83433012D01*
X89250000Y-84499999D01*
X89649972Y-84499999D01*
X89649986Y-84499998D01*
X89752697Y-84489505D01*
X89919119Y-84434358D01*
X89919124Y-84434356D01*
X90068345Y-84342315D01*
X90192315Y-84218345D01*
X90284356Y-84069124D01*
X90284358Y-84069119D01*
X90339505Y-83902697D01*
X90339506Y-83902690D01*
X90349999Y-83799986D01*
X90350000Y-83799973D01*
X90350000Y-83250000D01*
X89433012Y-83250000D01*
X89465925Y-83192993D01*
X89500000Y-83065826D01*
X89500000Y-82934174D01*
X89465925Y-82807007D01*
X89433012Y-82750000D01*
X90349999Y-82750000D01*
X90349999Y-82743713D01*
X106149500Y-82743713D01*
X106149500Y-83256287D01*
X106149557Y-83256646D01*
X106182703Y-83465925D01*
X106182754Y-83466243D01*
X106243166Y-83652172D01*
X106248444Y-83668414D01*
X106344951Y-83857820D01*
X106469890Y-84029786D01*
X106620213Y-84180109D01*
X106792179Y-84305048D01*
X106792181Y-84305049D01*
X106792184Y-84305051D01*
X106981588Y-84401557D01*
X107183757Y-84467246D01*
X107393713Y-84500500D01*
X107393714Y-84500500D01*
X107606286Y-84500500D01*
X107606287Y-84500500D01*
X107816243Y-84467246D01*
X108018412Y-84401557D01*
X108207816Y-84305051D01*
X108326729Y-84218656D01*
X108379784Y-84180110D01*
X108379784Y-84180109D01*
X108379792Y-84180104D01*
X108518604Y-84041291D01*
X108579923Y-84007809D01*
X108649615Y-84012793D01*
X108705549Y-84054664D01*
X108711821Y-84063878D01*
X108715185Y-84069333D01*
X108715186Y-84069334D01*
X108807288Y-84218656D01*
X108931344Y-84342712D01*
X109080666Y-84434814D01*
X109247203Y-84489999D01*
X109349991Y-84500500D01*
X110650008Y-84500499D01*
X110752797Y-84489999D01*
X110919334Y-84434814D01*
X111068656Y-84342712D01*
X111192712Y-84218656D01*
X111284814Y-84069334D01*
X111339999Y-83902797D01*
X111350500Y-83800009D01*
X111350499Y-82743713D01*
X116149500Y-82743713D01*
X116149500Y-83256287D01*
X116149557Y-83256646D01*
X116182703Y-83465925D01*
X116182754Y-83466243D01*
X116243166Y-83652172D01*
X116248444Y-83668414D01*
X116344951Y-83857820D01*
X116469890Y-84029786D01*
X116620213Y-84180109D01*
X116792179Y-84305048D01*
X116792181Y-84305049D01*
X116792184Y-84305051D01*
X116981588Y-84401557D01*
X117183757Y-84467246D01*
X117393713Y-84500500D01*
X117393714Y-84500500D01*
X117606286Y-84500500D01*
X117606287Y-84500500D01*
X117816243Y-84467246D01*
X118018412Y-84401557D01*
X118207816Y-84305051D01*
X118326729Y-84218656D01*
X118379784Y-84180110D01*
X118379784Y-84180109D01*
X118379792Y-84180104D01*
X118518604Y-84041291D01*
X118579923Y-84007809D01*
X118649615Y-84012793D01*
X118705549Y-84054664D01*
X118711821Y-84063878D01*
X118715185Y-84069333D01*
X118715186Y-84069334D01*
X118807288Y-84218656D01*
X118931344Y-84342712D01*
X119080666Y-84434814D01*
X119247203Y-84489999D01*
X119349991Y-84500500D01*
X120650008Y-84500499D01*
X120752797Y-84489999D01*
X120919334Y-84434814D01*
X121068656Y-84342712D01*
X121192712Y-84218656D01*
X121284814Y-84069334D01*
X121339999Y-83902797D01*
X121350500Y-83800009D01*
X121350499Y-82199992D01*
X121339999Y-82097203D01*
X121284814Y-81930666D01*
X121192712Y-81781344D01*
X121068656Y-81657288D01*
X120919334Y-81565186D01*
X120752797Y-81510001D01*
X120752795Y-81510000D01*
X120650010Y-81499500D01*
X119349998Y-81499500D01*
X119349981Y-81499501D01*
X119247203Y-81510000D01*
X119247200Y-81510001D01*
X119080668Y-81565185D01*
X119080663Y-81565187D01*
X118931342Y-81657289D01*
X118807289Y-81781342D01*
X118711821Y-81936121D01*
X118659873Y-81982845D01*
X118590910Y-81994068D01*
X118526828Y-81966224D01*
X118518601Y-81958705D01*
X118379786Y-81819890D01*
X118207820Y-81694951D01*
X118018414Y-81598444D01*
X118018413Y-81598443D01*
X118018412Y-81598443D01*
X117816243Y-81532754D01*
X117816241Y-81532753D01*
X117816240Y-81532753D01*
X117654957Y-81507208D01*
X117606287Y-81499500D01*
X117393713Y-81499500D01*
X117345042Y-81507208D01*
X117183760Y-81532753D01*
X116981585Y-81598444D01*
X116792179Y-81694951D01*
X116620213Y-81819890D01*
X116469890Y-81970213D01*
X116344951Y-82142179D01*
X116248444Y-82331585D01*
X116182753Y-82533760D01*
X116159188Y-82682544D01*
X116149500Y-82743713D01*
X111350499Y-82743713D01*
X111350499Y-82199992D01*
X111339999Y-82097203D01*
X111284814Y-81930666D01*
X111192712Y-81781344D01*
X111068656Y-81657288D01*
X110919334Y-81565186D01*
X110752797Y-81510001D01*
X110752795Y-81510000D01*
X110650010Y-81499500D01*
X109349998Y-81499500D01*
X109349981Y-81499501D01*
X109247203Y-81510000D01*
X109247200Y-81510001D01*
X109080668Y-81565185D01*
X109080663Y-81565187D01*
X108931342Y-81657289D01*
X108807289Y-81781342D01*
X108711821Y-81936121D01*
X108659873Y-81982845D01*
X108590910Y-81994068D01*
X108526828Y-81966224D01*
X108518601Y-81958705D01*
X108379786Y-81819890D01*
X108207820Y-81694951D01*
X108018414Y-81598444D01*
X108018413Y-81598443D01*
X108018412Y-81598443D01*
X107816243Y-81532754D01*
X107816241Y-81532753D01*
X107816240Y-81532753D01*
X107654957Y-81507208D01*
X107606287Y-81499500D01*
X107393713Y-81499500D01*
X107345042Y-81507208D01*
X107183760Y-81532753D01*
X106981585Y-81598444D01*
X106792179Y-81694951D01*
X106620213Y-81819890D01*
X106469890Y-81970213D01*
X106344951Y-82142179D01*
X106248444Y-82331585D01*
X106182753Y-82533760D01*
X106159188Y-82682544D01*
X106149500Y-82743713D01*
X90349999Y-82743713D01*
X90349999Y-82200028D01*
X90349998Y-82200013D01*
X90339505Y-82097302D01*
X90284358Y-81930880D01*
X90284356Y-81930875D01*
X90192315Y-81781654D01*
X90068345Y-81657684D01*
X89919124Y-81565643D01*
X89919119Y-81565641D01*
X89752697Y-81510494D01*
X89752690Y-81510493D01*
X89649986Y-81500000D01*
X89250000Y-81500000D01*
X89250000Y-82566988D01*
X89192993Y-82534075D01*
X89065826Y-82500000D01*
X88934174Y-82500000D01*
X88807007Y-82534075D01*
X88750000Y-82566988D01*
X88750000Y-81500000D01*
X88350028Y-81500000D01*
X88350012Y-81500001D01*
X88247302Y-81510494D01*
X88080880Y-81565641D01*
X88080875Y-81565643D01*
X87931654Y-81657684D01*
X87807683Y-81781655D01*
X87807680Y-81781659D01*
X87712183Y-81936484D01*
X87660235Y-81983209D01*
X87591273Y-81994430D01*
X87527191Y-81966587D01*
X87518964Y-81959068D01*
X87379786Y-81819890D01*
X87207820Y-81694951D01*
X87018414Y-81598444D01*
X87018413Y-81598443D01*
X87018412Y-81598443D01*
X86816243Y-81532754D01*
X86816241Y-81532753D01*
X86816240Y-81532753D01*
X86654957Y-81507208D01*
X86606287Y-81499500D01*
X86393713Y-81499500D01*
X86345042Y-81507208D01*
X86183760Y-81532753D01*
X85981585Y-81598444D01*
X85792179Y-81694951D01*
X85620213Y-81819890D01*
X85469890Y-81970213D01*
X85344951Y-82142179D01*
X85248444Y-82331585D01*
X85182753Y-82533760D01*
X85159188Y-82682544D01*
X85149500Y-82743713D01*
X78349999Y-82743713D01*
X78349999Y-82200028D01*
X78349998Y-82200013D01*
X78339505Y-82097302D01*
X78284358Y-81930880D01*
X78284356Y-81930875D01*
X78192315Y-81781654D01*
X78068345Y-81657684D01*
X77919124Y-81565643D01*
X77919119Y-81565641D01*
X77752697Y-81510494D01*
X77752690Y-81510493D01*
X77649986Y-81500000D01*
X77250000Y-81500000D01*
X77250000Y-82566988D01*
X77192993Y-82534075D01*
X77065826Y-82500000D01*
X76934174Y-82500000D01*
X76807007Y-82534075D01*
X76750000Y-82566988D01*
X76750000Y-81500000D01*
X76350028Y-81500000D01*
X76350012Y-81500001D01*
X76247302Y-81510494D01*
X76080880Y-81565641D01*
X76080875Y-81565643D01*
X75931654Y-81657684D01*
X75807683Y-81781655D01*
X75807680Y-81781659D01*
X75712183Y-81936484D01*
X75660235Y-81983209D01*
X75591273Y-81994430D01*
X75527191Y-81966587D01*
X75518964Y-81959068D01*
X75379786Y-81819890D01*
X75207820Y-81694951D01*
X75018414Y-81598444D01*
X75018413Y-81598443D01*
X75018412Y-81598443D01*
X74816243Y-81532754D01*
X74816241Y-81532753D01*
X74816240Y-81532753D01*
X74654957Y-81507208D01*
X74606287Y-81499500D01*
X74393713Y-81499500D01*
X74345042Y-81507208D01*
X74183760Y-81532753D01*
X73981585Y-81598444D01*
X73792179Y-81694951D01*
X73620213Y-81819890D01*
X73469890Y-81970213D01*
X73344951Y-82142179D01*
X73248444Y-82331585D01*
X73182753Y-82533760D01*
X73159188Y-82682544D01*
X73149500Y-82743713D01*
X54693449Y-82743713D01*
X54767895Y-82597606D01*
X54836015Y-82387951D01*
X54870500Y-82170222D01*
X54870500Y-81949778D01*
X54836015Y-81732049D01*
X54792605Y-81598444D01*
X54767896Y-81522396D01*
X54767895Y-81522393D01*
X54733237Y-81454375D01*
X54667815Y-81325978D01*
X54651260Y-81303192D01*
X54538247Y-81147641D01*
X54538243Y-81147636D01*
X54516816Y-81126209D01*
X54483331Y-81064886D01*
X54488315Y-80995194D01*
X54530187Y-80939261D01*
X54561166Y-80922345D01*
X54612088Y-80903353D01*
X54612093Y-80903350D01*
X54619710Y-80897648D01*
X55539500Y-80897648D01*
X55539500Y-81102351D01*
X55571522Y-81304534D01*
X55634781Y-81499223D01*
X55685337Y-81598443D01*
X55715320Y-81657288D01*
X55727715Y-81681613D01*
X55848028Y-81847213D01*
X55992786Y-81991971D01*
X56137624Y-82097200D01*
X56158390Y-82112287D01*
X56272092Y-82170221D01*
X56340776Y-82205218D01*
X56340778Y-82205218D01*
X56340781Y-82205220D01*
X56445137Y-82239127D01*
X56535465Y-82268477D01*
X56636557Y-82284488D01*
X56737648Y-82300500D01*
X56737649Y-82300500D01*
X56942351Y-82300500D01*
X56942352Y-82300500D01*
X57144534Y-82268477D01*
X57339219Y-82205220D01*
X57521610Y-82112287D01*
X57683828Y-81994430D01*
X57687213Y-81991971D01*
X57687215Y-81991968D01*
X57687219Y-81991966D01*
X57831966Y-81847219D01*
X57831968Y-81847215D01*
X57831971Y-81847213D01*
X57915641Y-81732049D01*
X57952287Y-81681610D01*
X58045220Y-81499219D01*
X58108477Y-81304534D01*
X58140500Y-81102352D01*
X58140500Y-80897648D01*
X65699500Y-80897648D01*
X65699500Y-81102351D01*
X65731522Y-81304534D01*
X65794781Y-81499223D01*
X65845337Y-81598443D01*
X65875320Y-81657288D01*
X65887715Y-81681613D01*
X66008028Y-81847213D01*
X66152786Y-81991971D01*
X66297624Y-82097200D01*
X66318390Y-82112287D01*
X66432092Y-82170221D01*
X66500776Y-82205218D01*
X66500778Y-82205218D01*
X66500781Y-82205220D01*
X66605137Y-82239127D01*
X66695465Y-82268477D01*
X66796557Y-82284488D01*
X66897648Y-82300500D01*
X66897649Y-82300500D01*
X67102351Y-82300500D01*
X67102352Y-82300500D01*
X67304534Y-82268477D01*
X67499219Y-82205220D01*
X67681610Y-82112287D01*
X67843828Y-81994430D01*
X67847213Y-81991971D01*
X67847215Y-81991968D01*
X67847219Y-81991966D01*
X67991966Y-81847219D01*
X67991968Y-81847215D01*
X67991971Y-81847213D01*
X68075641Y-81732049D01*
X68112287Y-81681610D01*
X68205220Y-81499219D01*
X68268477Y-81304534D01*
X68300500Y-81102352D01*
X68300500Y-80897648D01*
X68294883Y-80862185D01*
X68268477Y-80695465D01*
X68205218Y-80500776D01*
X68171503Y-80434607D01*
X68112287Y-80318390D01*
X68104556Y-80307749D01*
X67991971Y-80152786D01*
X67847213Y-80008028D01*
X67681613Y-79887715D01*
X67681612Y-79887714D01*
X67681610Y-79887713D01*
X67624653Y-79858691D01*
X67499223Y-79794781D01*
X67304534Y-79731522D01*
X67129995Y-79703878D01*
X67102352Y-79699500D01*
X66897648Y-79699500D01*
X66873329Y-79703351D01*
X66695465Y-79731522D01*
X66500776Y-79794781D01*
X66318386Y-79887715D01*
X66152786Y-80008028D01*
X66008028Y-80152786D01*
X65887715Y-80318386D01*
X65794781Y-80500776D01*
X65731522Y-80695465D01*
X65699500Y-80897648D01*
X58140500Y-80897648D01*
X58134883Y-80862185D01*
X58108477Y-80695465D01*
X58045218Y-80500776D01*
X58011503Y-80434607D01*
X57952287Y-80318390D01*
X57944556Y-80307749D01*
X57831971Y-80152786D01*
X57687213Y-80008028D01*
X57521613Y-79887715D01*
X57521612Y-79887714D01*
X57521610Y-79887713D01*
X57464653Y-79858691D01*
X57339223Y-79794781D01*
X57144534Y-79731522D01*
X56969995Y-79703878D01*
X56942352Y-79699500D01*
X56737648Y-79699500D01*
X56713329Y-79703351D01*
X56535465Y-79731522D01*
X56340776Y-79794781D01*
X56158386Y-79887715D01*
X55992786Y-80008028D01*
X55848028Y-80152786D01*
X55727715Y-80318386D01*
X55634781Y-80500776D01*
X55571522Y-80695465D01*
X55539500Y-80897648D01*
X54619710Y-80897648D01*
X54727187Y-80817190D01*
X54727189Y-80817188D01*
X54813350Y-80702093D01*
X54813354Y-80702086D01*
X54863596Y-80567379D01*
X54863598Y-80567372D01*
X54869999Y-80507844D01*
X54870000Y-80507827D01*
X54870000Y-79810000D01*
X53845278Y-79810000D01*
X53889333Y-79733694D01*
X53920000Y-79619244D01*
X53920000Y-79500756D01*
X53889333Y-79386306D01*
X53845278Y-79310000D01*
X54870000Y-79310000D01*
X54870000Y-78612172D01*
X54869999Y-78612155D01*
X54863598Y-78552627D01*
X54863596Y-78552620D01*
X54813354Y-78417913D01*
X54813350Y-78417906D01*
X54727190Y-78302812D01*
X54727187Y-78302809D01*
X54612093Y-78216649D01*
X54612087Y-78216646D01*
X54532030Y-78186786D01*
X54476097Y-78144914D01*
X54451680Y-78079450D01*
X54466532Y-78011177D01*
X54487681Y-77982925D01*
X54538242Y-77932365D01*
X54667815Y-77754022D01*
X54767895Y-77557606D01*
X54836015Y-77347951D01*
X54870500Y-77130222D01*
X54870500Y-76909778D01*
X54868579Y-76897648D01*
X55539500Y-76897648D01*
X55539500Y-77102351D01*
X55571522Y-77304534D01*
X55634781Y-77499223D01*
X55727715Y-77681613D01*
X55848028Y-77847213D01*
X55992786Y-77991971D01*
X56147749Y-78104556D01*
X56158390Y-78112287D01*
X56271405Y-78169871D01*
X56340776Y-78205218D01*
X56340778Y-78205218D01*
X56340781Y-78205220D01*
X56445137Y-78239127D01*
X56535465Y-78268477D01*
X56636557Y-78284488D01*
X56737648Y-78300500D01*
X56737649Y-78300500D01*
X56942351Y-78300500D01*
X56942352Y-78300500D01*
X57144534Y-78268477D01*
X57339219Y-78205220D01*
X57521610Y-78112287D01*
X57615261Y-78044246D01*
X57687213Y-77991971D01*
X57687215Y-77991968D01*
X57687219Y-77991966D01*
X57831966Y-77847219D01*
X57831968Y-77847215D01*
X57831971Y-77847213D01*
X57899677Y-77754022D01*
X57952287Y-77681610D01*
X58045220Y-77499219D01*
X58108477Y-77304534D01*
X58140500Y-77102352D01*
X58140500Y-76897648D01*
X65699500Y-76897648D01*
X65699500Y-77102351D01*
X65731522Y-77304534D01*
X65794781Y-77499223D01*
X65887715Y-77681613D01*
X66008028Y-77847213D01*
X66152786Y-77991971D01*
X66307749Y-78104556D01*
X66318390Y-78112287D01*
X66431405Y-78169871D01*
X66500776Y-78205218D01*
X66500778Y-78205218D01*
X66500781Y-78205220D01*
X66605137Y-78239127D01*
X66695465Y-78268477D01*
X66796557Y-78284488D01*
X66897648Y-78300500D01*
X66897649Y-78300500D01*
X67102351Y-78300500D01*
X67102352Y-78300500D01*
X67304534Y-78268477D01*
X67499219Y-78205220D01*
X67681610Y-78112287D01*
X67775261Y-78044246D01*
X67847213Y-77991971D01*
X67847215Y-77991968D01*
X67847219Y-77991966D01*
X67991966Y-77847219D01*
X67991968Y-77847215D01*
X67991971Y-77847213D01*
X68059677Y-77754022D01*
X68112287Y-77681610D01*
X68205220Y-77499219D01*
X68268477Y-77304534D01*
X68300500Y-77102352D01*
X68300500Y-76897648D01*
X68268477Y-76695466D01*
X68205220Y-76500781D01*
X68205218Y-76500778D01*
X68205218Y-76500776D01*
X68171503Y-76434607D01*
X68112287Y-76318390D01*
X68102594Y-76305048D01*
X67991971Y-76152786D01*
X67847213Y-76008028D01*
X67681613Y-75887715D01*
X67681612Y-75887714D01*
X67681610Y-75887713D01*
X67621794Y-75857235D01*
X67499223Y-75794781D01*
X67304534Y-75731522D01*
X67129995Y-75703878D01*
X67102352Y-75699500D01*
X66897648Y-75699500D01*
X66873329Y-75703351D01*
X66695465Y-75731522D01*
X66500776Y-75794781D01*
X66318386Y-75887715D01*
X66152786Y-76008028D01*
X66008028Y-76152786D01*
X65887715Y-76318386D01*
X65794781Y-76500776D01*
X65731522Y-76695465D01*
X65699500Y-76897648D01*
X58140500Y-76897648D01*
X58108477Y-76695466D01*
X58045220Y-76500781D01*
X58045218Y-76500778D01*
X58045218Y-76500776D01*
X58011503Y-76434607D01*
X57952287Y-76318390D01*
X57942594Y-76305048D01*
X57831971Y-76152786D01*
X57687213Y-76008028D01*
X57521613Y-75887715D01*
X57521612Y-75887714D01*
X57521610Y-75887713D01*
X57461794Y-75857235D01*
X57339223Y-75794781D01*
X57144534Y-75731522D01*
X56969995Y-75703878D01*
X56942352Y-75699500D01*
X56737648Y-75699500D01*
X56713329Y-75703351D01*
X56535465Y-75731522D01*
X56340776Y-75794781D01*
X56158386Y-75887715D01*
X55992786Y-76008028D01*
X55848028Y-76152786D01*
X55727715Y-76318386D01*
X55634781Y-76500776D01*
X55571522Y-76695465D01*
X55539500Y-76897648D01*
X54868579Y-76897648D01*
X54836015Y-76692049D01*
X54773778Y-76500499D01*
X54767896Y-76482396D01*
X54767895Y-76482393D01*
X54726705Y-76401555D01*
X54667815Y-76285978D01*
X54590897Y-76180109D01*
X54538247Y-76107641D01*
X54538243Y-76107636D01*
X54382363Y-75951756D01*
X54382358Y-75951752D01*
X54204025Y-75822187D01*
X54204024Y-75822186D01*
X54204022Y-75822185D01*
X54141096Y-75790122D01*
X54007606Y-75722104D01*
X54007603Y-75722103D01*
X53797952Y-75653985D01*
X53689086Y-75636742D01*
X53580222Y-75619500D01*
X53359778Y-75619500D01*
X53287201Y-75630995D01*
X53142047Y-75653985D01*
X52932396Y-75722103D01*
X52932393Y-75722104D01*
X52735974Y-75822187D01*
X52557641Y-75951752D01*
X52557636Y-75951756D01*
X52401756Y-76107636D01*
X52401752Y-76107641D01*
X52272187Y-76285974D01*
X52172104Y-76482393D01*
X52172103Y-76482396D01*
X52103985Y-76692047D01*
X52069500Y-76909778D01*
X50500500Y-76909778D01*
X50500500Y-74737648D01*
X80699500Y-74737648D01*
X80699500Y-74942351D01*
X80731522Y-75144534D01*
X80794781Y-75339223D01*
X80887715Y-75521613D01*
X81008028Y-75687213D01*
X81152786Y-75831971D01*
X81250272Y-75902797D01*
X81318390Y-75952287D01*
X81434607Y-76011503D01*
X81500776Y-76045218D01*
X81500778Y-76045218D01*
X81500781Y-76045220D01*
X81605137Y-76079127D01*
X81695465Y-76108477D01*
X81796557Y-76124488D01*
X81897648Y-76140500D01*
X81897649Y-76140500D01*
X82102351Y-76140500D01*
X82102352Y-76140500D01*
X82304534Y-76108477D01*
X82499219Y-76045220D01*
X82681610Y-75952287D01*
X82811634Y-75857820D01*
X82847213Y-75831971D01*
X82847215Y-75831968D01*
X82847219Y-75831966D01*
X82991966Y-75687219D01*
X82991968Y-75687215D01*
X82991971Y-75687213D01*
X83044732Y-75614590D01*
X83112287Y-75521610D01*
X83205220Y-75339219D01*
X83268477Y-75144534D01*
X83300500Y-74942352D01*
X83300500Y-74737648D01*
X92699500Y-74737648D01*
X92699500Y-74942351D01*
X92731522Y-75144534D01*
X92794781Y-75339223D01*
X92887715Y-75521613D01*
X93008028Y-75687213D01*
X93152786Y-75831971D01*
X93250272Y-75902797D01*
X93318390Y-75952287D01*
X93434607Y-76011503D01*
X93500776Y-76045218D01*
X93500778Y-76045218D01*
X93500781Y-76045220D01*
X93605137Y-76079127D01*
X93695465Y-76108477D01*
X93796557Y-76124488D01*
X93897648Y-76140500D01*
X93897649Y-76140500D01*
X94102351Y-76140500D01*
X94102352Y-76140500D01*
X94304534Y-76108477D01*
X94499219Y-76045220D01*
X94681610Y-75952287D01*
X94811634Y-75857820D01*
X94847213Y-75831971D01*
X94847215Y-75831968D01*
X94847219Y-75831966D01*
X94991966Y-75687219D01*
X94991968Y-75687215D01*
X94991971Y-75687213D01*
X95044732Y-75614590D01*
X95112287Y-75521610D01*
X95205220Y-75339219D01*
X95268477Y-75144534D01*
X95300500Y-74942352D01*
X95300500Y-74743713D01*
X106149500Y-74743713D01*
X106149500Y-75256287D01*
X106182754Y-75466243D01*
X106243755Y-75653985D01*
X106248444Y-75668414D01*
X106344951Y-75857820D01*
X106469890Y-76029786D01*
X106620213Y-76180109D01*
X106792179Y-76305048D01*
X106792181Y-76305049D01*
X106792184Y-76305051D01*
X106981588Y-76401557D01*
X107183757Y-76467246D01*
X107393713Y-76500500D01*
X107393714Y-76500500D01*
X107606286Y-76500500D01*
X107606287Y-76500500D01*
X107816243Y-76467246D01*
X108018412Y-76401557D01*
X108207816Y-76305051D01*
X108379792Y-76180104D01*
X108518604Y-76041291D01*
X108579923Y-76007809D01*
X108649615Y-76012793D01*
X108705549Y-76054664D01*
X108711821Y-76063878D01*
X108715185Y-76069333D01*
X108715186Y-76069334D01*
X108807288Y-76218656D01*
X108931344Y-76342712D01*
X109080666Y-76434814D01*
X109247203Y-76489999D01*
X109349991Y-76500500D01*
X110650008Y-76500499D01*
X110752797Y-76489999D01*
X110919334Y-76434814D01*
X111068656Y-76342712D01*
X111192712Y-76218656D01*
X111284814Y-76069334D01*
X111339999Y-75902797D01*
X111350500Y-75800009D01*
X111350499Y-74743713D01*
X116149500Y-74743713D01*
X116149500Y-75256287D01*
X116182754Y-75466243D01*
X116243755Y-75653985D01*
X116248444Y-75668414D01*
X116344951Y-75857820D01*
X116469890Y-76029786D01*
X116620213Y-76180109D01*
X116792179Y-76305048D01*
X116792181Y-76305049D01*
X116792184Y-76305051D01*
X116981588Y-76401557D01*
X117183757Y-76467246D01*
X117393713Y-76500500D01*
X117393714Y-76500500D01*
X117606286Y-76500500D01*
X117606287Y-76500500D01*
X117816243Y-76467246D01*
X118018412Y-76401557D01*
X118207816Y-76305051D01*
X118379792Y-76180104D01*
X118518604Y-76041291D01*
X118579923Y-76007809D01*
X118649615Y-76012793D01*
X118705549Y-76054664D01*
X118711821Y-76063878D01*
X118715185Y-76069333D01*
X118715186Y-76069334D01*
X118807288Y-76218656D01*
X118931344Y-76342712D01*
X119080666Y-76434814D01*
X119247203Y-76489999D01*
X119349991Y-76500500D01*
X120650008Y-76500499D01*
X120752797Y-76489999D01*
X120919334Y-76434814D01*
X121068656Y-76342712D01*
X121192712Y-76218656D01*
X121284814Y-76069334D01*
X121339999Y-75902797D01*
X121350500Y-75800009D01*
X121350499Y-74199992D01*
X121339999Y-74097203D01*
X121284814Y-73930666D01*
X121192712Y-73781344D01*
X121068656Y-73657288D01*
X120929608Y-73571523D01*
X120919336Y-73565187D01*
X120919331Y-73565185D01*
X120917862Y-73564698D01*
X120752797Y-73510001D01*
X120752795Y-73510000D01*
X120650010Y-73499500D01*
X119349998Y-73499500D01*
X119349981Y-73499501D01*
X119247203Y-73510000D01*
X119247200Y-73510001D01*
X119080668Y-73565185D01*
X119080663Y-73565187D01*
X118931342Y-73657289D01*
X118807289Y-73781342D01*
X118711821Y-73936121D01*
X118659873Y-73982845D01*
X118590910Y-73994068D01*
X118526828Y-73966224D01*
X118518601Y-73958705D01*
X118379786Y-73819890D01*
X118207820Y-73694951D01*
X118018414Y-73598444D01*
X118018413Y-73598443D01*
X118018412Y-73598443D01*
X117816243Y-73532754D01*
X117816241Y-73532753D01*
X117816240Y-73532753D01*
X117654957Y-73507208D01*
X117606287Y-73499500D01*
X117393713Y-73499500D01*
X117345042Y-73507208D01*
X117183760Y-73532753D01*
X116981585Y-73598444D01*
X116792179Y-73694951D01*
X116620213Y-73819890D01*
X116469890Y-73970213D01*
X116344951Y-74142179D01*
X116248444Y-74331585D01*
X116182753Y-74533760D01*
X116182483Y-74535465D01*
X116149500Y-74743713D01*
X111350499Y-74743713D01*
X111350499Y-74199992D01*
X111339999Y-74097203D01*
X111284814Y-73930666D01*
X111192712Y-73781344D01*
X111068656Y-73657288D01*
X110929608Y-73571523D01*
X110919336Y-73565187D01*
X110919331Y-73565185D01*
X110917862Y-73564698D01*
X110752797Y-73510001D01*
X110752795Y-73510000D01*
X110650010Y-73499500D01*
X109349998Y-73499500D01*
X109349981Y-73499501D01*
X109247203Y-73510000D01*
X109247200Y-73510001D01*
X109080668Y-73565185D01*
X109080663Y-73565187D01*
X108931342Y-73657289D01*
X108807289Y-73781342D01*
X108711821Y-73936121D01*
X108659873Y-73982845D01*
X108590910Y-73994068D01*
X108526828Y-73966224D01*
X108518601Y-73958705D01*
X108379786Y-73819890D01*
X108207820Y-73694951D01*
X108018414Y-73598444D01*
X108018413Y-73598443D01*
X108018412Y-73598443D01*
X107816243Y-73532754D01*
X107816241Y-73532753D01*
X107816240Y-73532753D01*
X107654957Y-73507208D01*
X107606287Y-73499500D01*
X107393713Y-73499500D01*
X107345042Y-73507208D01*
X107183760Y-73532753D01*
X106981585Y-73598444D01*
X106792179Y-73694951D01*
X106620213Y-73819890D01*
X106469890Y-73970213D01*
X106344951Y-74142179D01*
X106248444Y-74331585D01*
X106182753Y-74533760D01*
X106182483Y-74535465D01*
X106149500Y-74743713D01*
X95300500Y-74743713D01*
X95300500Y-74737648D01*
X95268477Y-74535466D01*
X95205220Y-74340781D01*
X95205218Y-74340778D01*
X95205218Y-74340776D01*
X95133484Y-74199992D01*
X95112287Y-74158390D01*
X95069865Y-74100000D01*
X94991971Y-73992786D01*
X94847213Y-73848028D01*
X94681613Y-73727715D01*
X94681612Y-73727714D01*
X94681610Y-73727713D01*
X94610754Y-73691610D01*
X94499223Y-73634781D01*
X94304534Y-73571522D01*
X94129995Y-73543878D01*
X94102352Y-73539500D01*
X93897648Y-73539500D01*
X93873329Y-73543351D01*
X93695465Y-73571522D01*
X93500776Y-73634781D01*
X93318386Y-73727715D01*
X93152786Y-73848028D01*
X93008028Y-73992786D01*
X92887715Y-74158386D01*
X92794781Y-74340776D01*
X92731522Y-74535465D01*
X92699500Y-74737648D01*
X83300500Y-74737648D01*
X83268477Y-74535466D01*
X83205220Y-74340781D01*
X83205218Y-74340778D01*
X83205218Y-74340776D01*
X83133484Y-74199992D01*
X83112287Y-74158390D01*
X83069865Y-74100000D01*
X82991971Y-73992786D01*
X82847213Y-73848028D01*
X82681613Y-73727715D01*
X82681612Y-73727714D01*
X82681610Y-73727713D01*
X82610754Y-73691610D01*
X82499223Y-73634781D01*
X82304534Y-73571522D01*
X82129995Y-73543878D01*
X82102352Y-73539500D01*
X81897648Y-73539500D01*
X81873329Y-73543351D01*
X81695465Y-73571522D01*
X81500776Y-73634781D01*
X81318386Y-73727715D01*
X81152786Y-73848028D01*
X81008028Y-73992786D01*
X80887715Y-74158386D01*
X80794781Y-74340776D01*
X80731522Y-74535465D01*
X80699500Y-74737648D01*
X50500500Y-74737648D01*
X50500500Y-73936289D01*
X70417261Y-73936289D01*
X70417262Y-73936290D01*
X70423471Y-73940801D01*
X70577742Y-74019408D01*
X70742415Y-74072914D01*
X70913429Y-74100000D01*
X71086571Y-74100000D01*
X71257584Y-74072914D01*
X71422257Y-74019408D01*
X71576525Y-73940803D01*
X71582736Y-73936289D01*
X71582737Y-73936289D01*
X71000001Y-73353553D01*
X71000000Y-73353553D01*
X70417261Y-73936289D01*
X50500500Y-73936289D01*
X50500500Y-65865186D01*
X53599500Y-65865186D01*
X53599500Y-66134813D01*
X53629686Y-66402719D01*
X53629687Y-66402728D01*
X53629688Y-66402732D01*
X53639868Y-66447335D01*
X53689684Y-66665594D01*
X53689687Y-66665602D01*
X53778734Y-66920082D01*
X53895714Y-67162994D01*
X53895716Y-67162997D01*
X54039162Y-67391289D01*
X54098933Y-67466239D01*
X54188662Y-67578757D01*
X54207266Y-67602085D01*
X54397915Y-67792734D01*
X54608711Y-67960838D01*
X54837003Y-68104284D01*
X55079921Y-68221267D01*
X55271049Y-68288145D01*
X55334397Y-68310312D01*
X55334405Y-68310315D01*
X55334408Y-68310315D01*
X55334409Y-68310316D01*
X55530660Y-68355109D01*
X55591638Y-68389218D01*
X55624496Y-68450879D01*
X55618801Y-68520516D01*
X55576361Y-68576020D01*
X55510651Y-68599768D01*
X55503067Y-68600000D01*
X54795280Y-68600000D01*
X54662093Y-68610482D01*
X54662087Y-68610483D01*
X54442170Y-68665898D01*
X54442167Y-68665899D01*
X54235669Y-68759695D01*
X54235663Y-68759698D01*
X54049241Y-68888851D01*
X54049229Y-68888861D01*
X53888861Y-69049229D01*
X53888851Y-69049241D01*
X53759698Y-69235663D01*
X53759695Y-69235669D01*
X53665899Y-69442167D01*
X53665898Y-69442170D01*
X53610483Y-69662087D01*
X53610482Y-69662093D01*
X53600000Y-69795280D01*
X53600000Y-70750000D01*
X54672769Y-70750000D01*
X54650000Y-70893753D01*
X54650000Y-71106247D01*
X54672769Y-71250000D01*
X53600000Y-71250000D01*
X53600000Y-72204719D01*
X53610482Y-72337906D01*
X53610483Y-72337912D01*
X53665898Y-72557829D01*
X53665899Y-72557832D01*
X53759695Y-72764330D01*
X53759698Y-72764336D01*
X53888851Y-72950758D01*
X53888861Y-72950770D01*
X54049229Y-73111138D01*
X54049241Y-73111148D01*
X54235663Y-73240301D01*
X54235669Y-73240304D01*
X54442167Y-73334100D01*
X54442170Y-73334101D01*
X54662087Y-73389516D01*
X54662093Y-73389517D01*
X54795280Y-73399999D01*
X54795294Y-73400000D01*
X55750000Y-73400000D01*
X55750000Y-72327231D01*
X55893753Y-72350000D01*
X56106247Y-72350000D01*
X56250000Y-72327231D01*
X56250000Y-73400000D01*
X57204706Y-73400000D01*
X57204719Y-73399999D01*
X57337906Y-73389517D01*
X57337912Y-73389516D01*
X57557829Y-73334101D01*
X57557832Y-73334100D01*
X57764330Y-73240304D01*
X57764336Y-73240301D01*
X57950758Y-73111148D01*
X57950770Y-73111138D01*
X58111138Y-72950770D01*
X58111148Y-72950758D01*
X58240301Y-72764336D01*
X58240304Y-72764330D01*
X58334100Y-72557832D01*
X58334101Y-72557829D01*
X58389516Y-72337912D01*
X58389517Y-72337906D01*
X58399999Y-72204719D01*
X58400000Y-72204706D01*
X58400000Y-71250000D01*
X57327231Y-71250000D01*
X57350000Y-71106247D01*
X57350000Y-71099983D01*
X69899500Y-71099983D01*
X69899500Y-71900001D01*
X69899501Y-71900019D01*
X69910000Y-72002796D01*
X69910001Y-72002799D01*
X69965185Y-72169331D01*
X69965189Y-72169340D01*
X70051000Y-72308462D01*
X70069440Y-72375854D01*
X70055946Y-72429853D01*
X69980591Y-72577742D01*
X69927085Y-72742415D01*
X69900000Y-72913428D01*
X69900000Y-73086571D01*
X69927085Y-73257584D01*
X69980592Y-73422259D01*
X70059196Y-73576525D01*
X70063709Y-73582736D01*
X70063709Y-73582737D01*
X70705145Y-72941300D01*
X70700000Y-72960504D01*
X70700000Y-73039496D01*
X70720444Y-73115796D01*
X70759940Y-73184205D01*
X70815795Y-73240060D01*
X70884204Y-73279556D01*
X70960504Y-73300000D01*
X71039496Y-73300000D01*
X71115796Y-73279556D01*
X71184205Y-73240060D01*
X71240060Y-73184205D01*
X71279556Y-73115796D01*
X71300000Y-73039496D01*
X71300000Y-72960504D01*
X71294854Y-72941301D01*
X71936289Y-73582736D01*
X71940803Y-73576525D01*
X72019408Y-73422257D01*
X72072914Y-73257584D01*
X72100000Y-73086571D01*
X72100000Y-72913434D01*
X72099999Y-72913423D01*
X72099084Y-72907648D01*
X101329500Y-72907648D01*
X101329500Y-73112352D01*
X101333878Y-73139995D01*
X101361522Y-73314534D01*
X101424781Y-73509223D01*
X101517715Y-73691613D01*
X101638028Y-73857213D01*
X101782786Y-74001971D01*
X101917714Y-74100000D01*
X101948390Y-74122287D01*
X102064607Y-74181503D01*
X102130776Y-74215218D01*
X102130778Y-74215218D01*
X102130781Y-74215220D01*
X102235137Y-74249127D01*
X102325465Y-74278477D01*
X102426557Y-74294488D01*
X102527648Y-74310500D01*
X102527649Y-74310500D01*
X102732351Y-74310500D01*
X102732352Y-74310500D01*
X102934534Y-74278477D01*
X103129219Y-74215220D01*
X103311610Y-74122287D01*
X103404590Y-74054732D01*
X103477213Y-74001971D01*
X103477215Y-74001968D01*
X103477219Y-74001966D01*
X103621966Y-73857219D01*
X103621968Y-73857215D01*
X103621971Y-73857213D01*
X103716055Y-73727715D01*
X103742287Y-73691610D01*
X103835220Y-73509219D01*
X103898477Y-73314534D01*
X103930500Y-73112352D01*
X103930500Y-72907648D01*
X103898477Y-72705466D01*
X103835220Y-72510781D01*
X103835218Y-72510778D01*
X103835218Y-72510776D01*
X103800537Y-72442712D01*
X103742287Y-72328390D01*
X103686129Y-72251094D01*
X103621971Y-72162786D01*
X103477213Y-72018028D01*
X103311613Y-71897715D01*
X103311612Y-71897714D01*
X103311610Y-71897713D01*
X103254653Y-71868691D01*
X103129223Y-71804781D01*
X102934534Y-71741522D01*
X102759995Y-71713878D01*
X102732352Y-71709500D01*
X102527648Y-71709500D01*
X102503329Y-71713351D01*
X102325465Y-71741522D01*
X102130776Y-71804781D01*
X101948386Y-71897715D01*
X101782786Y-72018028D01*
X101638028Y-72162786D01*
X101517715Y-72328386D01*
X101424781Y-72510776D01*
X101361522Y-72705465D01*
X101344048Y-72815795D01*
X101329500Y-72907648D01*
X72099084Y-72907648D01*
X72072914Y-72742415D01*
X72019407Y-72577740D01*
X71944054Y-72429854D01*
X71931157Y-72361185D01*
X71948997Y-72308465D01*
X72034814Y-72169334D01*
X72089999Y-72002797D01*
X72100500Y-71900009D01*
X72100499Y-71435922D01*
X72100499Y-71099998D01*
X72100498Y-71099980D01*
X72089999Y-70997203D01*
X72089998Y-70997200D01*
X72045990Y-70864394D01*
X72034814Y-70830666D01*
X71942712Y-70681344D01*
X71869050Y-70607682D01*
X92340000Y-70607682D01*
X92340000Y-70812317D01*
X92372009Y-71014417D01*
X92435244Y-71209031D01*
X92528141Y-71391350D01*
X92528147Y-71391359D01*
X92560523Y-71435921D01*
X92560524Y-71435922D01*
X93240000Y-70756446D01*
X93240000Y-70762661D01*
X93267259Y-70864394D01*
X93319920Y-70955606D01*
X93394394Y-71030080D01*
X93485606Y-71082741D01*
X93587339Y-71110000D01*
X93593553Y-71110000D01*
X92914076Y-71789474D01*
X92958650Y-71821859D01*
X93140968Y-71914755D01*
X93335582Y-71977990D01*
X93537683Y-72010000D01*
X93742317Y-72010000D01*
X93944417Y-71977990D01*
X94139031Y-71914755D01*
X94321349Y-71821859D01*
X94365921Y-71789474D01*
X93686447Y-71110000D01*
X93692661Y-71110000D01*
X93794394Y-71082741D01*
X93885606Y-71030080D01*
X93960080Y-70955606D01*
X94012741Y-70864394D01*
X94040000Y-70762661D01*
X94040000Y-70756447D01*
X94719474Y-71435921D01*
X94751859Y-71391349D01*
X94779233Y-71337624D01*
X94827207Y-71286827D01*
X94895028Y-71270031D01*
X94961163Y-71292567D01*
X95000203Y-71337621D01*
X95027713Y-71391611D01*
X95148028Y-71557213D01*
X95292786Y-71701971D01*
X95413226Y-71789474D01*
X95458390Y-71822287D01*
X95570610Y-71879466D01*
X95640776Y-71915218D01*
X95640778Y-71915218D01*
X95640781Y-71915220D01*
X95745137Y-71949127D01*
X95835465Y-71978477D01*
X95936557Y-71994488D01*
X96037648Y-72010500D01*
X96037649Y-72010500D01*
X96242351Y-72010500D01*
X96242352Y-72010500D01*
X96444534Y-71978477D01*
X96639219Y-71915220D01*
X96821610Y-71822287D01*
X96932773Y-71741523D01*
X96987213Y-71701971D01*
X96987215Y-71701968D01*
X96987219Y-71701966D01*
X97131966Y-71557219D01*
X97131968Y-71557215D01*
X97131971Y-71557213D01*
X97184732Y-71484590D01*
X97252287Y-71391610D01*
X97345220Y-71209219D01*
X97408477Y-71014534D01*
X97440500Y-70812352D01*
X97440500Y-70607648D01*
X97417936Y-70465185D01*
X97408477Y-70405465D01*
X97377458Y-70310000D01*
X97345220Y-70210781D01*
X97345218Y-70210778D01*
X97345218Y-70210776D01*
X97299237Y-70120534D01*
X97252287Y-70028390D01*
X97220092Y-69984077D01*
X97131971Y-69862786D01*
X96987213Y-69718028D01*
X96821613Y-69597715D01*
X96821612Y-69597714D01*
X96821610Y-69597713D01*
X96752526Y-69562513D01*
X96639223Y-69504781D01*
X96444537Y-69441523D01*
X96423960Y-69438264D01*
X96360826Y-69408332D01*
X96323897Y-69349019D01*
X96324897Y-69279157D01*
X96363509Y-69220925D01*
X96423962Y-69193319D01*
X96454534Y-69188477D01*
X96649219Y-69125220D01*
X96831610Y-69032287D01*
X96924590Y-68964732D01*
X96997213Y-68911971D01*
X96997215Y-68911968D01*
X96997219Y-68911966D01*
X97141966Y-68767219D01*
X97141968Y-68767215D01*
X97141971Y-68767213D01*
X97194732Y-68694590D01*
X97262287Y-68601610D01*
X97355220Y-68419219D01*
X97418477Y-68224534D01*
X97450500Y-68022352D01*
X97450500Y-67817648D01*
X97418477Y-67615466D01*
X97414129Y-67602085D01*
X97389127Y-67525137D01*
X97355220Y-67420781D01*
X97355218Y-67420778D01*
X97355218Y-67420776D01*
X97300196Y-67312791D01*
X97262287Y-67238390D01*
X97225084Y-67187184D01*
X97141971Y-67072786D01*
X96997213Y-66928028D01*
X96831614Y-66807715D01*
X96825006Y-66804348D01*
X96738917Y-66760483D01*
X96688123Y-66712511D01*
X96671328Y-66644690D01*
X96693865Y-66578555D01*
X96738917Y-66539516D01*
X96831610Y-66492287D01*
X96893487Y-66447331D01*
X96997213Y-66371971D01*
X96997215Y-66371968D01*
X96997219Y-66371966D01*
X97141966Y-66227219D01*
X97141968Y-66227215D01*
X97141971Y-66227213D01*
X97236427Y-66097203D01*
X97262287Y-66061610D01*
X97355220Y-65879219D01*
X97418477Y-65684534D01*
X97450500Y-65482352D01*
X97450500Y-65277648D01*
X97430724Y-65152787D01*
X97418477Y-65075465D01*
X97355218Y-64880776D01*
X97311400Y-64794780D01*
X97262287Y-64698390D01*
X97197132Y-64608711D01*
X97141972Y-64532788D01*
X97141966Y-64532781D01*
X97066320Y-64457135D01*
X97909500Y-64457135D01*
X97909500Y-66252870D01*
X97909501Y-66252876D01*
X97915908Y-66312483D01*
X97966202Y-66447328D01*
X97966206Y-66447335D01*
X98052452Y-66562544D01*
X98052455Y-66562547D01*
X98167664Y-66648793D01*
X98167671Y-66648797D01*
X98299082Y-66697810D01*
X98355016Y-66739681D01*
X98379433Y-66805145D01*
X98364582Y-66873418D01*
X98343431Y-66901673D01*
X98229889Y-67015215D01*
X98104951Y-67187179D01*
X98008444Y-67376585D01*
X97942753Y-67578760D01*
X97911818Y-67774076D01*
X97909500Y-67788713D01*
X97909500Y-68001287D01*
X97912836Y-68022351D01*
X97940273Y-68195582D01*
X97942754Y-68211243D01*
X98004590Y-68401555D01*
X98008444Y-68413414D01*
X98104951Y-68602820D01*
X98229890Y-68774786D01*
X98380213Y-68925109D01*
X98552179Y-69050048D01*
X98552181Y-69050049D01*
X98552184Y-69050051D01*
X98741588Y-69146557D01*
X98943757Y-69212246D01*
X99153713Y-69245500D01*
X99153714Y-69245500D01*
X99366286Y-69245500D01*
X99366287Y-69245500D01*
X99576243Y-69212246D01*
X99778412Y-69146557D01*
X99967816Y-69050051D01*
X99992270Y-69032284D01*
X100139786Y-68925109D01*
X100139788Y-68925106D01*
X100139792Y-68925104D01*
X100290104Y-68774792D01*
X100290106Y-68774788D01*
X100290109Y-68774786D01*
X100415048Y-68602820D01*
X100415047Y-68602820D01*
X100415051Y-68602816D01*
X100511557Y-68413412D01*
X100577246Y-68211243D01*
X100610500Y-68001287D01*
X100610500Y-67788713D01*
X100577246Y-67578757D01*
X100511557Y-67376588D01*
X100415051Y-67187184D01*
X100415049Y-67187181D01*
X100415048Y-67187179D01*
X100290109Y-67015213D01*
X100176569Y-66901673D01*
X100161235Y-66873591D01*
X100144527Y-66846280D01*
X100144597Y-66843121D01*
X100143084Y-66840350D01*
X100145366Y-66808427D01*
X100146077Y-66776427D01*
X100147842Y-66773809D01*
X100148068Y-66770658D01*
X100167251Y-66745033D01*
X100168141Y-66743713D01*
X106149500Y-66743713D01*
X106149500Y-67256286D01*
X106175552Y-67420776D01*
X106182754Y-67466243D01*
X106231239Y-67615465D01*
X106248444Y-67668414D01*
X106344951Y-67857820D01*
X106469890Y-68029786D01*
X106620213Y-68180109D01*
X106792179Y-68305048D01*
X106792181Y-68305049D01*
X106792184Y-68305051D01*
X106981588Y-68401557D01*
X107183757Y-68467246D01*
X107393713Y-68500500D01*
X107393714Y-68500500D01*
X107606286Y-68500500D01*
X107606287Y-68500500D01*
X107816243Y-68467246D01*
X108018412Y-68401557D01*
X108207816Y-68305051D01*
X108379792Y-68180104D01*
X108518604Y-68041291D01*
X108579923Y-68007809D01*
X108649615Y-68012793D01*
X108705549Y-68054664D01*
X108711821Y-68063878D01*
X108715185Y-68069333D01*
X108715186Y-68069334D01*
X108807288Y-68218656D01*
X108931344Y-68342712D01*
X109080666Y-68434814D01*
X109247203Y-68489999D01*
X109349991Y-68500500D01*
X110650008Y-68500499D01*
X110752797Y-68489999D01*
X110919334Y-68434814D01*
X111068656Y-68342712D01*
X111192712Y-68218656D01*
X111284814Y-68069334D01*
X111339999Y-67902797D01*
X111350500Y-67800009D01*
X111350499Y-66743713D01*
X116149500Y-66743713D01*
X116149500Y-67256286D01*
X116175552Y-67420776D01*
X116182754Y-67466243D01*
X116231239Y-67615465D01*
X116248444Y-67668414D01*
X116344951Y-67857820D01*
X116469890Y-68029786D01*
X116620213Y-68180109D01*
X116792179Y-68305048D01*
X116792181Y-68305049D01*
X116792184Y-68305051D01*
X116981588Y-68401557D01*
X117183757Y-68467246D01*
X117393713Y-68500500D01*
X117393714Y-68500500D01*
X117606286Y-68500500D01*
X117606287Y-68500500D01*
X117816243Y-68467246D01*
X118018412Y-68401557D01*
X118207816Y-68305051D01*
X118379792Y-68180104D01*
X118518604Y-68041291D01*
X118579923Y-68007809D01*
X118649615Y-68012793D01*
X118705549Y-68054664D01*
X118711821Y-68063878D01*
X118715185Y-68069333D01*
X118715186Y-68069334D01*
X118807288Y-68218656D01*
X118931344Y-68342712D01*
X119080666Y-68434814D01*
X119247203Y-68489999D01*
X119349991Y-68500500D01*
X120650008Y-68500499D01*
X120752797Y-68489999D01*
X120919334Y-68434814D01*
X121068656Y-68342712D01*
X121192712Y-68218656D01*
X121284814Y-68069334D01*
X121339999Y-67902797D01*
X121350500Y-67800009D01*
X121350499Y-66199992D01*
X121343840Y-66134809D01*
X121339999Y-66097203D01*
X121339998Y-66097200D01*
X121329607Y-66065842D01*
X121284814Y-65930666D01*
X121192712Y-65781344D01*
X121068656Y-65657288D01*
X120919334Y-65565186D01*
X120752797Y-65510001D01*
X120752795Y-65510000D01*
X120650010Y-65499500D01*
X119349998Y-65499500D01*
X119349981Y-65499501D01*
X119247203Y-65510000D01*
X119247200Y-65510001D01*
X119080668Y-65565185D01*
X119080663Y-65565187D01*
X118931342Y-65657289D01*
X118807289Y-65781342D01*
X118711821Y-65936121D01*
X118659873Y-65982845D01*
X118590910Y-65994068D01*
X118526828Y-65966224D01*
X118518601Y-65958705D01*
X118379786Y-65819890D01*
X118207820Y-65694951D01*
X118018414Y-65598444D01*
X118018413Y-65598443D01*
X118018412Y-65598443D01*
X117816243Y-65532754D01*
X117816241Y-65532753D01*
X117816240Y-65532753D01*
X117654957Y-65507208D01*
X117606287Y-65499500D01*
X117393713Y-65499500D01*
X117345042Y-65507208D01*
X117183760Y-65532753D01*
X116981585Y-65598444D01*
X116792179Y-65694951D01*
X116620213Y-65819890D01*
X116469890Y-65970213D01*
X116344951Y-66142179D01*
X116248444Y-66331585D01*
X116182753Y-66533760D01*
X116149500Y-66743713D01*
X111350499Y-66743713D01*
X111350499Y-66199992D01*
X111343840Y-66134809D01*
X111339999Y-66097203D01*
X111339998Y-66097200D01*
X111329607Y-66065842D01*
X111284814Y-65930666D01*
X111192712Y-65781344D01*
X111068656Y-65657288D01*
X110919334Y-65565186D01*
X110752797Y-65510001D01*
X110752795Y-65510000D01*
X110650010Y-65499500D01*
X109349998Y-65499500D01*
X109349981Y-65499501D01*
X109247203Y-65510000D01*
X109247200Y-65510001D01*
X109080668Y-65565185D01*
X109080663Y-65565187D01*
X108931342Y-65657289D01*
X108807289Y-65781342D01*
X108711821Y-65936121D01*
X108659873Y-65982845D01*
X108590910Y-65994068D01*
X108526828Y-65966224D01*
X108518601Y-65958705D01*
X108379786Y-65819890D01*
X108207820Y-65694951D01*
X108018414Y-65598444D01*
X108018413Y-65598443D01*
X108018412Y-65598443D01*
X107816243Y-65532754D01*
X107816241Y-65532753D01*
X107816240Y-65532753D01*
X107654957Y-65507208D01*
X107606287Y-65499500D01*
X107393713Y-65499500D01*
X107345042Y-65507208D01*
X107183760Y-65532753D01*
X106981585Y-65598444D01*
X106792179Y-65694951D01*
X106620213Y-65819890D01*
X106469890Y-65970213D01*
X106344951Y-66142179D01*
X106248444Y-66331585D01*
X106182753Y-66533760D01*
X106149500Y-66743713D01*
X100168141Y-66743713D01*
X100185146Y-66718501D01*
X100188615Y-66716494D01*
X100189940Y-66714725D01*
X100215253Y-66700083D01*
X100218055Y-66698877D01*
X100352331Y-66648796D01*
X100467546Y-66562546D01*
X100553796Y-66447331D01*
X100604091Y-66312483D01*
X100610500Y-66252873D01*
X100610499Y-64457128D01*
X100604091Y-64397517D01*
X100555677Y-64267713D01*
X100553797Y-64262671D01*
X100553793Y-64262664D01*
X100467547Y-64147455D01*
X100467544Y-64147452D01*
X100352335Y-64061206D01*
X100352328Y-64061202D01*
X100217482Y-64010908D01*
X100217483Y-64010908D01*
X100157883Y-64004501D01*
X100157881Y-64004500D01*
X100157873Y-64004500D01*
X100157864Y-64004500D01*
X98362129Y-64004500D01*
X98362123Y-64004501D01*
X98302516Y-64010908D01*
X98167671Y-64061202D01*
X98167664Y-64061206D01*
X98052455Y-64147452D01*
X98052452Y-64147455D01*
X97966206Y-64262664D01*
X97966202Y-64262671D01*
X97915908Y-64397517D01*
X97909501Y-64457116D01*
X97909501Y-64457123D01*
X97909500Y-64457135D01*
X97066320Y-64457135D01*
X96997213Y-64388028D01*
X96831614Y-64267715D01*
X96825006Y-64264348D01*
X96738917Y-64220483D01*
X96688123Y-64172511D01*
X96671328Y-64104690D01*
X96693865Y-64038555D01*
X96738917Y-63999516D01*
X96831610Y-63952287D01*
X96909477Y-63895714D01*
X96997213Y-63831971D01*
X96997215Y-63831968D01*
X96997219Y-63831966D01*
X97141966Y-63687219D01*
X97141968Y-63687215D01*
X97141971Y-63687213D01*
X97205697Y-63599500D01*
X97262287Y-63521610D01*
X97355220Y-63339219D01*
X97418477Y-63144534D01*
X97450500Y-62942352D01*
X97450500Y-62747648D01*
X101329500Y-62747648D01*
X101329500Y-62952351D01*
X101361522Y-63154534D01*
X101424781Y-63349223D01*
X101488691Y-63474653D01*
X101516359Y-63528953D01*
X101517715Y-63531613D01*
X101638028Y-63697213D01*
X101782786Y-63841971D01*
X101889462Y-63919474D01*
X101948390Y-63962287D01*
X102031238Y-64004500D01*
X102130776Y-64055218D01*
X102130778Y-64055218D01*
X102130781Y-64055220D01*
X102205507Y-64079500D01*
X102325465Y-64118477D01*
X102426557Y-64134488D01*
X102527648Y-64150500D01*
X102527649Y-64150500D01*
X102732351Y-64150500D01*
X102732352Y-64150500D01*
X102934534Y-64118477D01*
X103129219Y-64055220D01*
X103311610Y-63962287D01*
X103404590Y-63894732D01*
X103477213Y-63841971D01*
X103477215Y-63841968D01*
X103477219Y-63841966D01*
X103621966Y-63697219D01*
X103621968Y-63697215D01*
X103621971Y-63697213D01*
X103717358Y-63565922D01*
X103742287Y-63531610D01*
X103835220Y-63349219D01*
X103898477Y-63154534D01*
X103930500Y-62952352D01*
X103930500Y-62747648D01*
X103898477Y-62545466D01*
X103895265Y-62535582D01*
X103835218Y-62350776D01*
X103801503Y-62284607D01*
X103742287Y-62168390D01*
X103729686Y-62151046D01*
X103621971Y-62002786D01*
X103477213Y-61858028D01*
X103311613Y-61737715D01*
X103311612Y-61737714D01*
X103311610Y-61737713D01*
X103254653Y-61708691D01*
X103129223Y-61644781D01*
X102934534Y-61581522D01*
X102759995Y-61553878D01*
X102732352Y-61549500D01*
X102527648Y-61549500D01*
X102503329Y-61553351D01*
X102325465Y-61581522D01*
X102130776Y-61644781D01*
X101948386Y-61737715D01*
X101782786Y-61858028D01*
X101638028Y-62002786D01*
X101517715Y-62168386D01*
X101424781Y-62350776D01*
X101361522Y-62545465D01*
X101329500Y-62747648D01*
X97450500Y-62747648D01*
X97450500Y-62737648D01*
X97442257Y-62685606D01*
X97418477Y-62535465D01*
X97358469Y-62350781D01*
X97355220Y-62340781D01*
X97355218Y-62340778D01*
X97355218Y-62340776D01*
X97321503Y-62274607D01*
X97262287Y-62158390D01*
X97230092Y-62114077D01*
X97141971Y-61992786D01*
X96997213Y-61848028D01*
X96831611Y-61727713D01*
X96738369Y-61680203D01*
X96687574Y-61632229D01*
X96670779Y-61564407D01*
X96693317Y-61498273D01*
X96738371Y-61459234D01*
X96831346Y-61411861D01*
X96831347Y-61411861D01*
X96875921Y-61379474D01*
X96196447Y-60700000D01*
X96202661Y-60700000D01*
X96304394Y-60672741D01*
X96395606Y-60620080D01*
X96470080Y-60545606D01*
X96522741Y-60454394D01*
X96550000Y-60352661D01*
X96550000Y-60346447D01*
X97229474Y-61025921D01*
X97261859Y-60981349D01*
X97354755Y-60799031D01*
X97417990Y-60604417D01*
X97450000Y-60402317D01*
X97450000Y-60197682D01*
X97417990Y-59995582D01*
X97354755Y-59800968D01*
X97261859Y-59618650D01*
X97229474Y-59574077D01*
X97229474Y-59574076D01*
X96550000Y-60253551D01*
X96550000Y-60247339D01*
X96522741Y-60145606D01*
X96470080Y-60054394D01*
X96395606Y-59979920D01*
X96304394Y-59927259D01*
X96202661Y-59900000D01*
X96196446Y-59900000D01*
X96875922Y-59220524D01*
X96875921Y-59220523D01*
X96831359Y-59188147D01*
X96831350Y-59188141D01*
X96649031Y-59095244D01*
X96454417Y-59032009D01*
X96252317Y-59000000D01*
X96047683Y-59000000D01*
X95845582Y-59032009D01*
X95650968Y-59095244D01*
X95468644Y-59188143D01*
X95424077Y-59220523D01*
X95424077Y-59220524D01*
X96103554Y-59900000D01*
X96097339Y-59900000D01*
X95995606Y-59927259D01*
X95904394Y-59979920D01*
X95829920Y-60054394D01*
X95777259Y-60145606D01*
X95750000Y-60247339D01*
X95750000Y-60253553D01*
X95070524Y-59574077D01*
X95070523Y-59574077D01*
X95038143Y-59618644D01*
X94945244Y-59800968D01*
X94882009Y-59995582D01*
X94850000Y-60197682D01*
X94850000Y-60402317D01*
X94882009Y-60604417D01*
X94945244Y-60799031D01*
X95038141Y-60981350D01*
X95038147Y-60981359D01*
X95070523Y-61025921D01*
X95070524Y-61025922D01*
X95750000Y-60346446D01*
X95750000Y-60352661D01*
X95777259Y-60454394D01*
X95829920Y-60545606D01*
X95904394Y-60620080D01*
X95995606Y-60672741D01*
X96097339Y-60700000D01*
X96103553Y-60700000D01*
X95424076Y-61379474D01*
X95468652Y-61411861D01*
X95561628Y-61459234D01*
X95612425Y-61507208D01*
X95629220Y-61575029D01*
X95606683Y-61641164D01*
X95561630Y-61680203D01*
X95468388Y-61727713D01*
X95302786Y-61848028D01*
X95158028Y-61992786D01*
X95037715Y-62158386D01*
X94944781Y-62340776D01*
X94881522Y-62535465D01*
X94849500Y-62737648D01*
X94849500Y-62942351D01*
X94881522Y-63144534D01*
X94944781Y-63339223D01*
X95008691Y-63464653D01*
X95037585Y-63521359D01*
X95037715Y-63521613D01*
X95158028Y-63687213D01*
X95302786Y-63831971D01*
X95423226Y-63919474D01*
X95468390Y-63952287D01*
X95559840Y-63998883D01*
X95561080Y-63999515D01*
X95611876Y-64047490D01*
X95628671Y-64115311D01*
X95606134Y-64181446D01*
X95561080Y-64220485D01*
X95468386Y-64267715D01*
X95302786Y-64388028D01*
X95158028Y-64532786D01*
X95037715Y-64698386D01*
X94944781Y-64880776D01*
X94881522Y-65075465D01*
X94849500Y-65277648D01*
X94849500Y-65482351D01*
X94881522Y-65684534D01*
X94944781Y-65879223D01*
X95008691Y-66004653D01*
X95017333Y-66021613D01*
X95037715Y-66061613D01*
X95158028Y-66227213D01*
X95302786Y-66371971D01*
X95406518Y-66447335D01*
X95468390Y-66492287D01*
X95549785Y-66533760D01*
X95561080Y-66539515D01*
X95611876Y-66587490D01*
X95628671Y-66655311D01*
X95606134Y-66721446D01*
X95561080Y-66760485D01*
X95468386Y-66807715D01*
X95302786Y-66928028D01*
X95158028Y-67072786D01*
X95037715Y-67238386D01*
X94944781Y-67420776D01*
X94881522Y-67615465D01*
X94856401Y-67774076D01*
X94849500Y-67817648D01*
X94849500Y-68022352D01*
X94852500Y-68041294D01*
X94881522Y-68224534D01*
X94944781Y-68419223D01*
X95008691Y-68544653D01*
X95036774Y-68599768D01*
X95037715Y-68601613D01*
X95158028Y-68767213D01*
X95302786Y-68911971D01*
X95457749Y-69024556D01*
X95468390Y-69032287D01*
X95584607Y-69091503D01*
X95650776Y-69125218D01*
X95650778Y-69125218D01*
X95650781Y-69125220D01*
X95716450Y-69146557D01*
X95845465Y-69188477D01*
X95866035Y-69191735D01*
X95929170Y-69221664D01*
X95966101Y-69280976D01*
X95965103Y-69350838D01*
X95926493Y-69409071D01*
X95866036Y-69436681D01*
X95835464Y-69441523D01*
X95640776Y-69504781D01*
X95458386Y-69597715D01*
X95292786Y-69718028D01*
X95148028Y-69862786D01*
X95027714Y-70028386D01*
X95000203Y-70082379D01*
X94952227Y-70133174D01*
X94884406Y-70149968D01*
X94818272Y-70127429D01*
X94779234Y-70082376D01*
X94751861Y-70028652D01*
X94719474Y-69984077D01*
X94719474Y-69984076D01*
X94040000Y-70663551D01*
X94040000Y-70657339D01*
X94012741Y-70555606D01*
X93960080Y-70464394D01*
X93885606Y-70389920D01*
X93794394Y-70337259D01*
X93692661Y-70310000D01*
X93686446Y-70310000D01*
X94365922Y-69630524D01*
X94365921Y-69630523D01*
X94321359Y-69598147D01*
X94321350Y-69598141D01*
X94139031Y-69505244D01*
X93944417Y-69442009D01*
X93742317Y-69410000D01*
X93537683Y-69410000D01*
X93335582Y-69442009D01*
X93140968Y-69505244D01*
X92958644Y-69598143D01*
X92914077Y-69630523D01*
X92914077Y-69630524D01*
X93593554Y-70310000D01*
X93587339Y-70310000D01*
X93485606Y-70337259D01*
X93394394Y-70389920D01*
X93319920Y-70464394D01*
X93267259Y-70555606D01*
X93240000Y-70657339D01*
X93240000Y-70663553D01*
X92560524Y-69984077D01*
X92560523Y-69984077D01*
X92528143Y-70028644D01*
X92435244Y-70210968D01*
X92372009Y-70405582D01*
X92340000Y-70607682D01*
X71869050Y-70607682D01*
X71818656Y-70557288D01*
X71725888Y-70500069D01*
X71669336Y-70465187D01*
X71669331Y-70465185D01*
X71666944Y-70464394D01*
X71502797Y-70410001D01*
X71502795Y-70410000D01*
X71400010Y-70399500D01*
X70599998Y-70399500D01*
X70599980Y-70399501D01*
X70497203Y-70410000D01*
X70497200Y-70410001D01*
X70330668Y-70465185D01*
X70330663Y-70465187D01*
X70181342Y-70557289D01*
X70057289Y-70681342D01*
X69965187Y-70830663D01*
X69965185Y-70830668D01*
X69944281Y-70893753D01*
X69910001Y-70997203D01*
X69910001Y-70997204D01*
X69910000Y-70997204D01*
X69899500Y-71099983D01*
X57350000Y-71099983D01*
X57350000Y-70893753D01*
X57327231Y-70750000D01*
X58400000Y-70750000D01*
X58400000Y-69795293D01*
X58399999Y-69795280D01*
X58389517Y-69662096D01*
X58364425Y-69562513D01*
X58364425Y-69562510D01*
X58334100Y-69442167D01*
X58240304Y-69235669D01*
X58240301Y-69235663D01*
X58111148Y-69049241D01*
X58111138Y-69049229D01*
X57950770Y-68888861D01*
X57950758Y-68888851D01*
X57764336Y-68759698D01*
X57764330Y-68759695D01*
X57557832Y-68665899D01*
X57557829Y-68665898D01*
X57337912Y-68610483D01*
X57337906Y-68610482D01*
X57204719Y-68600000D01*
X56496933Y-68600000D01*
X56429894Y-68580315D01*
X56384139Y-68527511D01*
X56374195Y-68458353D01*
X56403220Y-68394797D01*
X56461998Y-68357023D01*
X56469336Y-68355109D01*
X56665591Y-68310316D01*
X56690646Y-68301548D01*
X56764305Y-68275775D01*
X56825407Y-68254394D01*
X56920079Y-68221267D01*
X57162997Y-68104284D01*
X57391289Y-67960838D01*
X57602085Y-67792734D01*
X57792734Y-67602085D01*
X57960838Y-67391289D01*
X58104284Y-67162997D01*
X58221267Y-66920079D01*
X58310316Y-66665591D01*
X58370312Y-66402732D01*
X58400500Y-66134809D01*
X58400500Y-65897648D01*
X69699500Y-65897648D01*
X69699500Y-66102351D01*
X69731522Y-66304534D01*
X69794781Y-66499223D01*
X69839756Y-66587490D01*
X69879552Y-66665594D01*
X69887715Y-66681613D01*
X70008028Y-66847213D01*
X70152786Y-66991971D01*
X70318385Y-67112284D01*
X70318387Y-67112285D01*
X70318390Y-67112287D01*
X70372378Y-67139795D01*
X70423174Y-67187769D01*
X70439969Y-67255590D01*
X70417432Y-67321725D01*
X70372378Y-67360765D01*
X70318644Y-67388143D01*
X70274077Y-67420523D01*
X70274077Y-67420524D01*
X70953554Y-68100000D01*
X70947339Y-68100000D01*
X70845606Y-68127259D01*
X70754394Y-68179920D01*
X70679920Y-68254394D01*
X70627259Y-68345606D01*
X70600000Y-68447339D01*
X70600000Y-68453553D01*
X69920524Y-67774077D01*
X69920523Y-67774077D01*
X69888143Y-67818644D01*
X69795244Y-68000968D01*
X69732009Y-68195582D01*
X69700000Y-68397682D01*
X69700000Y-68602317D01*
X69732009Y-68804417D01*
X69795244Y-68999031D01*
X69888141Y-69181350D01*
X69888147Y-69181359D01*
X69920523Y-69225921D01*
X69920524Y-69225922D01*
X70600000Y-68546446D01*
X70600000Y-68552661D01*
X70627259Y-68654394D01*
X70679920Y-68745606D01*
X70754394Y-68820080D01*
X70845606Y-68872741D01*
X70947339Y-68900000D01*
X70953553Y-68900000D01*
X70274076Y-69579474D01*
X70318650Y-69611859D01*
X70500968Y-69704755D01*
X70695582Y-69767990D01*
X70897683Y-69800000D01*
X71102317Y-69800000D01*
X71304417Y-69767990D01*
X71499031Y-69704755D01*
X71681349Y-69611859D01*
X71725922Y-69579474D01*
X71046447Y-68900000D01*
X71052661Y-68900000D01*
X71154394Y-68872741D01*
X71245606Y-68820080D01*
X71320080Y-68745606D01*
X71372741Y-68654394D01*
X71400000Y-68552661D01*
X71400000Y-68546447D01*
X72079474Y-69225921D01*
X72111859Y-69181349D01*
X72204755Y-68999031D01*
X72267990Y-68804417D01*
X72300000Y-68602317D01*
X72300000Y-68397682D01*
X72267990Y-68195582D01*
X72204755Y-68000968D01*
X72111859Y-67818650D01*
X72079474Y-67774077D01*
X72079474Y-67774076D01*
X71400000Y-68453551D01*
X71400000Y-68447339D01*
X71372741Y-68345606D01*
X71320080Y-68254394D01*
X71245606Y-68179920D01*
X71154394Y-68127259D01*
X71052661Y-68100000D01*
X71046446Y-68100000D01*
X71725922Y-67420524D01*
X71725921Y-67420523D01*
X71681359Y-67388147D01*
X71681350Y-67388141D01*
X71627621Y-67360765D01*
X71576825Y-67312791D01*
X71560030Y-67244970D01*
X71582567Y-67178835D01*
X71627621Y-67139795D01*
X71681610Y-67112287D01*
X71735986Y-67072781D01*
X71847213Y-66991971D01*
X71847215Y-66991968D01*
X71847219Y-66991966D01*
X71991966Y-66847219D01*
X71991968Y-66847215D01*
X71991971Y-66847213D01*
X72067167Y-66743713D01*
X72112287Y-66681610D01*
X72205220Y-66499219D01*
X72268477Y-66304534D01*
X72300500Y-66102352D01*
X72300500Y-65897648D01*
X72268477Y-65695466D01*
X72205220Y-65500781D01*
X72205218Y-65500778D01*
X72205218Y-65500776D01*
X72112285Y-65318386D01*
X72103039Y-65305660D01*
X72103038Y-65305659D01*
X72053626Y-65237648D01*
X84839500Y-65237648D01*
X84839500Y-65442351D01*
X84871522Y-65644534D01*
X84934781Y-65839223D01*
X84984154Y-65936121D01*
X85025464Y-66017197D01*
X85027715Y-66021613D01*
X85148028Y-66187213D01*
X85292786Y-66331971D01*
X85447749Y-66444556D01*
X85458390Y-66452287D01*
X85550499Y-66499219D01*
X85640776Y-66545218D01*
X85640778Y-66545218D01*
X85640781Y-66545220D01*
X85743376Y-66578555D01*
X85835465Y-66608477D01*
X85936557Y-66624488D01*
X86037648Y-66640500D01*
X86037649Y-66640500D01*
X86242351Y-66640500D01*
X86242352Y-66640500D01*
X86444534Y-66608477D01*
X86639219Y-66545220D01*
X86821610Y-66452287D01*
X86914590Y-66384732D01*
X86987213Y-66331971D01*
X86987215Y-66331968D01*
X86987219Y-66331966D01*
X87131966Y-66187219D01*
X87220151Y-66065840D01*
X87275480Y-66023176D01*
X87345093Y-66017197D01*
X87406889Y-66049802D01*
X87420787Y-66065842D01*
X87538028Y-66227213D01*
X87682786Y-66371971D01*
X87786518Y-66447335D01*
X87848390Y-66492287D01*
X87929785Y-66533760D01*
X87941080Y-66539515D01*
X87991876Y-66587490D01*
X88008671Y-66655311D01*
X87986134Y-66721446D01*
X87941080Y-66760485D01*
X87848386Y-66807715D01*
X87682786Y-66928028D01*
X87538028Y-67072786D01*
X87417715Y-67238386D01*
X87324781Y-67420776D01*
X87261522Y-67615465D01*
X87236401Y-67774076D01*
X87229500Y-67817648D01*
X87229500Y-68022352D01*
X87232500Y-68041294D01*
X87261522Y-68224534D01*
X87324781Y-68419223D01*
X87388691Y-68544653D01*
X87416774Y-68599768D01*
X87417715Y-68601613D01*
X87538028Y-68767213D01*
X87682786Y-68911971D01*
X87837749Y-69024556D01*
X87848390Y-69032287D01*
X87964607Y-69091503D01*
X88030776Y-69125218D01*
X88030778Y-69125218D01*
X88030781Y-69125220D01*
X88096450Y-69146557D01*
X88225465Y-69188477D01*
X88326557Y-69204488D01*
X88427648Y-69220500D01*
X88427649Y-69220500D01*
X88632351Y-69220500D01*
X88632352Y-69220500D01*
X88834534Y-69188477D01*
X89029219Y-69125220D01*
X89211610Y-69032287D01*
X89304590Y-68964732D01*
X89377213Y-68911971D01*
X89377215Y-68911968D01*
X89377219Y-68911966D01*
X89521966Y-68767219D01*
X89521968Y-68767215D01*
X89521971Y-68767213D01*
X89574732Y-68694590D01*
X89642287Y-68601610D01*
X89735220Y-68419219D01*
X89798477Y-68224534D01*
X89830500Y-68022352D01*
X89830500Y-67817648D01*
X89798477Y-67615466D01*
X89794129Y-67602085D01*
X89769127Y-67525137D01*
X89735220Y-67420781D01*
X89735218Y-67420778D01*
X89735218Y-67420776D01*
X89680196Y-67312791D01*
X89642287Y-67238390D01*
X89605084Y-67187184D01*
X89521971Y-67072786D01*
X89377213Y-66928028D01*
X89211614Y-66807715D01*
X89205006Y-66804348D01*
X89118917Y-66760483D01*
X89068123Y-66712511D01*
X89051328Y-66644690D01*
X89073865Y-66578555D01*
X89118917Y-66539516D01*
X89211610Y-66492287D01*
X89273487Y-66447331D01*
X89377213Y-66371971D01*
X89377215Y-66371968D01*
X89377219Y-66371966D01*
X89521966Y-66227219D01*
X89521968Y-66227215D01*
X89521971Y-66227213D01*
X89616427Y-66097203D01*
X89642287Y-66061610D01*
X89735220Y-65879219D01*
X89798477Y-65684534D01*
X89830500Y-65482352D01*
X89830500Y-65277648D01*
X89810724Y-65152787D01*
X89798477Y-65075465D01*
X89735218Y-64880776D01*
X89691400Y-64794780D01*
X89642287Y-64698390D01*
X89577133Y-64608712D01*
X89521971Y-64532786D01*
X89377213Y-64388028D01*
X89211611Y-64267713D01*
X89118369Y-64220203D01*
X89067574Y-64172229D01*
X89050779Y-64104407D01*
X89073317Y-64038273D01*
X89118371Y-63999234D01*
X89211346Y-63951861D01*
X89211347Y-63951861D01*
X89255921Y-63919474D01*
X88576447Y-63240000D01*
X88582661Y-63240000D01*
X88684394Y-63212741D01*
X88775606Y-63160080D01*
X88850080Y-63085606D01*
X88902741Y-62994394D01*
X88930000Y-62892661D01*
X88930000Y-62886447D01*
X89609474Y-63565921D01*
X89641859Y-63521349D01*
X89734755Y-63339031D01*
X89797990Y-63144417D01*
X89830000Y-62942317D01*
X89830000Y-62737682D01*
X89797990Y-62535582D01*
X89734755Y-62340968D01*
X89641859Y-62158650D01*
X89609474Y-62114077D01*
X89609474Y-62114076D01*
X88930000Y-62793551D01*
X88930000Y-62787339D01*
X88902741Y-62685606D01*
X88850080Y-62594394D01*
X88775606Y-62519920D01*
X88684394Y-62467259D01*
X88582661Y-62440000D01*
X88576446Y-62440000D01*
X89255922Y-61760524D01*
X89254570Y-61743349D01*
X89240299Y-61724842D01*
X89234320Y-61655229D01*
X89266925Y-61593433D01*
X89316845Y-61562148D01*
X89399334Y-61534814D01*
X89548656Y-61442712D01*
X89672712Y-61318656D01*
X89764814Y-61169334D01*
X89819999Y-61002797D01*
X89830500Y-60900009D01*
X89830499Y-59699992D01*
X89819999Y-59597203D01*
X89764814Y-59430666D01*
X89672712Y-59281344D01*
X89548656Y-59157288D01*
X89399334Y-59065186D01*
X89232797Y-59010001D01*
X89232795Y-59010000D01*
X89130010Y-58999500D01*
X87929998Y-58999500D01*
X87929981Y-58999501D01*
X87827203Y-59010000D01*
X87827200Y-59010001D01*
X87660668Y-59065185D01*
X87660663Y-59065187D01*
X87511342Y-59157289D01*
X87387289Y-59281342D01*
X87295187Y-59430663D01*
X87295186Y-59430666D01*
X87240001Y-59597203D01*
X87240001Y-59597204D01*
X87240000Y-59597204D01*
X87229500Y-59699983D01*
X87229500Y-60900001D01*
X87229501Y-60900018D01*
X87240000Y-61002796D01*
X87240001Y-61002799D01*
X87295185Y-61169331D01*
X87295186Y-61169334D01*
X87387288Y-61318656D01*
X87511344Y-61442712D01*
X87660666Y-61534814D01*
X87743152Y-61562147D01*
X87800597Y-61601920D01*
X87827420Y-61666436D01*
X87815105Y-61735212D01*
X87805143Y-61746975D01*
X87804077Y-61760524D01*
X88483554Y-62440000D01*
X88477339Y-62440000D01*
X88375606Y-62467259D01*
X88284394Y-62519920D01*
X88209920Y-62594394D01*
X88157259Y-62685606D01*
X88130000Y-62787339D01*
X88130000Y-62793553D01*
X87450524Y-62114077D01*
X87450522Y-62114077D01*
X87435317Y-62135006D01*
X87379987Y-62177672D01*
X87310374Y-62183651D01*
X87248579Y-62151046D01*
X87234681Y-62135006D01*
X87219475Y-62114077D01*
X87219474Y-62114076D01*
X86540000Y-62793551D01*
X86540000Y-62787339D01*
X86512741Y-62685606D01*
X86460080Y-62594394D01*
X86385606Y-62519920D01*
X86294394Y-62467259D01*
X86192661Y-62440000D01*
X86186446Y-62440000D01*
X86865922Y-61760524D01*
X86865921Y-61760523D01*
X86821359Y-61728147D01*
X86821350Y-61728141D01*
X86639031Y-61635244D01*
X86444417Y-61572009D01*
X86242317Y-61540000D01*
X86037683Y-61540000D01*
X85835582Y-61572009D01*
X85640968Y-61635244D01*
X85458644Y-61728143D01*
X85414077Y-61760523D01*
X85414077Y-61760524D01*
X86093554Y-62440000D01*
X86087339Y-62440000D01*
X85985606Y-62467259D01*
X85894394Y-62519920D01*
X85819920Y-62594394D01*
X85767259Y-62685606D01*
X85740000Y-62787339D01*
X85740000Y-62793553D01*
X85060524Y-62114077D01*
X85060523Y-62114077D01*
X85028143Y-62158644D01*
X84935244Y-62340968D01*
X84872009Y-62535582D01*
X84840000Y-62737682D01*
X84840000Y-62942317D01*
X84872009Y-63144417D01*
X84935244Y-63339031D01*
X85028141Y-63521350D01*
X85028147Y-63521359D01*
X85060523Y-63565921D01*
X85060524Y-63565922D01*
X85740000Y-62886446D01*
X85740000Y-62892661D01*
X85767259Y-62994394D01*
X85819920Y-63085606D01*
X85894394Y-63160080D01*
X85985606Y-63212741D01*
X86087339Y-63240000D01*
X86093553Y-63240000D01*
X85414076Y-63919474D01*
X85458652Y-63951861D01*
X85512376Y-63979234D01*
X85563172Y-64027208D01*
X85579968Y-64095028D01*
X85557431Y-64161164D01*
X85512379Y-64200203D01*
X85458386Y-64227714D01*
X85292786Y-64348028D01*
X85148028Y-64492786D01*
X85027715Y-64658386D01*
X84934781Y-64840776D01*
X84871522Y-65035465D01*
X84839500Y-65237648D01*
X72053626Y-65237648D01*
X71991971Y-65152787D01*
X71991967Y-65152782D01*
X71847213Y-65008028D01*
X71681613Y-64887715D01*
X71681612Y-64887714D01*
X71681610Y-64887713D01*
X71589501Y-64840781D01*
X71499223Y-64794781D01*
X71304534Y-64731522D01*
X71129995Y-64703878D01*
X71102352Y-64699500D01*
X70897648Y-64699500D01*
X70876800Y-64702802D01*
X70695465Y-64731522D01*
X70500776Y-64794781D01*
X70318386Y-64887715D01*
X70152786Y-65008028D01*
X70008028Y-65152786D01*
X69887715Y-65318386D01*
X69794781Y-65500776D01*
X69731522Y-65695465D01*
X69699500Y-65897648D01*
X58400500Y-65897648D01*
X58400500Y-65865191D01*
X58370312Y-65597268D01*
X58310316Y-65334409D01*
X58221267Y-65079921D01*
X58104284Y-64837003D01*
X57960838Y-64608711D01*
X57792734Y-64397915D01*
X57602085Y-64207266D01*
X57391289Y-64039162D01*
X57233613Y-63940087D01*
X57162994Y-63895714D01*
X56920082Y-63778734D01*
X56665602Y-63689687D01*
X56665594Y-63689684D01*
X56468446Y-63644687D01*
X56402732Y-63629688D01*
X56402728Y-63629687D01*
X56402719Y-63629686D01*
X56134813Y-63599500D01*
X56134809Y-63599500D01*
X55865191Y-63599500D01*
X55865186Y-63599500D01*
X55597280Y-63629686D01*
X55597268Y-63629688D01*
X55334405Y-63689684D01*
X55334397Y-63689687D01*
X55079917Y-63778734D01*
X54837005Y-63895714D01*
X54608712Y-64039161D01*
X54397915Y-64207265D01*
X54207265Y-64397915D01*
X54039161Y-64608712D01*
X53895714Y-64837005D01*
X53778734Y-65079917D01*
X53689687Y-65334397D01*
X53689684Y-65334405D01*
X53629688Y-65597268D01*
X53629686Y-65597280D01*
X53599500Y-65865186D01*
X50500500Y-65865186D01*
X50500500Y-58743713D01*
X106149500Y-58743713D01*
X106149500Y-59256286D01*
X106177118Y-59430663D01*
X106182754Y-59466243D01*
X106232274Y-59618650D01*
X106248444Y-59668414D01*
X106344951Y-59857820D01*
X106469890Y-60029786D01*
X106620213Y-60180109D01*
X106792179Y-60305048D01*
X106792181Y-60305049D01*
X106792184Y-60305051D01*
X106981588Y-60401557D01*
X107183757Y-60467246D01*
X107393713Y-60500500D01*
X107393714Y-60500500D01*
X107606286Y-60500500D01*
X107606287Y-60500500D01*
X107816243Y-60467246D01*
X108018412Y-60401557D01*
X108207816Y-60305051D01*
X108379792Y-60180104D01*
X108518604Y-60041291D01*
X108579923Y-60007809D01*
X108649615Y-60012793D01*
X108705549Y-60054664D01*
X108711821Y-60063878D01*
X108715185Y-60069333D01*
X108715186Y-60069334D01*
X108807288Y-60218656D01*
X108931344Y-60342712D01*
X109080666Y-60434814D01*
X109247203Y-60489999D01*
X109349991Y-60500500D01*
X110650008Y-60500499D01*
X110752797Y-60489999D01*
X110919334Y-60434814D01*
X111068656Y-60342712D01*
X111192712Y-60218656D01*
X111284814Y-60069334D01*
X111339999Y-59902797D01*
X111350500Y-59800009D01*
X111350499Y-58743713D01*
X116149500Y-58743713D01*
X116149500Y-59256286D01*
X116177118Y-59430663D01*
X116182754Y-59466243D01*
X116232274Y-59618650D01*
X116248444Y-59668414D01*
X116344951Y-59857820D01*
X116469890Y-60029786D01*
X116620213Y-60180109D01*
X116792179Y-60305048D01*
X116792181Y-60305049D01*
X116792184Y-60305051D01*
X116981588Y-60401557D01*
X117183757Y-60467246D01*
X117393713Y-60500500D01*
X117393714Y-60500500D01*
X117606286Y-60500500D01*
X117606287Y-60500500D01*
X117816243Y-60467246D01*
X118018412Y-60401557D01*
X118207816Y-60305051D01*
X118379792Y-60180104D01*
X118518604Y-60041291D01*
X118579923Y-60007809D01*
X118649615Y-60012793D01*
X118705549Y-60054664D01*
X118711821Y-60063878D01*
X118715185Y-60069333D01*
X118715186Y-60069334D01*
X118807288Y-60218656D01*
X118931344Y-60342712D01*
X119080666Y-60434814D01*
X119247203Y-60489999D01*
X119349991Y-60500500D01*
X120650008Y-60500499D01*
X120752797Y-60489999D01*
X120919334Y-60434814D01*
X121068656Y-60342712D01*
X121192712Y-60218656D01*
X121284814Y-60069334D01*
X121339999Y-59902797D01*
X121350500Y-59800009D01*
X121350499Y-58199992D01*
X121339999Y-58097203D01*
X121284814Y-57930666D01*
X121192712Y-57781344D01*
X121068656Y-57657288D01*
X120919334Y-57565186D01*
X120752797Y-57510001D01*
X120752795Y-57510000D01*
X120650010Y-57499500D01*
X119349998Y-57499500D01*
X119349981Y-57499501D01*
X119247203Y-57510000D01*
X119247200Y-57510001D01*
X119080668Y-57565185D01*
X119080663Y-57565187D01*
X118931342Y-57657289D01*
X118807289Y-57781342D01*
X118711821Y-57936121D01*
X118659873Y-57982845D01*
X118590910Y-57994068D01*
X118526828Y-57966224D01*
X118518601Y-57958705D01*
X118379786Y-57819890D01*
X118207820Y-57694951D01*
X118018414Y-57598444D01*
X118018413Y-57598443D01*
X118018412Y-57598443D01*
X117816243Y-57532754D01*
X117816241Y-57532753D01*
X117816240Y-57532753D01*
X117654957Y-57507208D01*
X117606287Y-57499500D01*
X117393713Y-57499500D01*
X117345042Y-57507208D01*
X117183760Y-57532753D01*
X116981585Y-57598444D01*
X116792179Y-57694951D01*
X116620213Y-57819890D01*
X116469890Y-57970213D01*
X116344951Y-58142179D01*
X116248444Y-58331585D01*
X116182753Y-58533760D01*
X116149500Y-58743713D01*
X111350499Y-58743713D01*
X111350499Y-58199992D01*
X111339999Y-58097203D01*
X111284814Y-57930666D01*
X111192712Y-57781344D01*
X111068656Y-57657288D01*
X110919334Y-57565186D01*
X110752797Y-57510001D01*
X110752795Y-57510000D01*
X110650010Y-57499500D01*
X109349998Y-57499500D01*
X109349981Y-57499501D01*
X109247203Y-57510000D01*
X109247200Y-57510001D01*
X109080668Y-57565185D01*
X109080663Y-57565187D01*
X108931342Y-57657289D01*
X108807289Y-57781342D01*
X108711821Y-57936121D01*
X108659873Y-57982845D01*
X108590910Y-57994068D01*
X108526828Y-57966224D01*
X108518601Y-57958705D01*
X108379786Y-57819890D01*
X108207820Y-57694951D01*
X108018414Y-57598444D01*
X108018413Y-57598443D01*
X108018412Y-57598443D01*
X107816243Y-57532754D01*
X107816241Y-57532753D01*
X107816240Y-57532753D01*
X107654957Y-57507208D01*
X107606287Y-57499500D01*
X107393713Y-57499500D01*
X107345042Y-57507208D01*
X107183760Y-57532753D01*
X106981585Y-57598444D01*
X106792179Y-57694951D01*
X106620213Y-57819890D01*
X106469890Y-57970213D01*
X106344951Y-58142179D01*
X106248444Y-58331585D01*
X106182753Y-58533760D01*
X106149500Y-58743713D01*
X50500500Y-58743713D01*
X50500500Y-55002706D01*
X50500618Y-54997298D01*
X50504506Y-54908242D01*
X50506711Y-54857744D01*
X52829500Y-54857744D01*
X52829500Y-55142255D01*
X52829501Y-55142271D01*
X52866636Y-55424341D01*
X52866637Y-55424346D01*
X52866638Y-55424352D01*
X52940278Y-55699181D01*
X53019026Y-55889295D01*
X53049159Y-55962043D01*
X53049164Y-55962054D01*
X53191422Y-56208451D01*
X53364628Y-56434179D01*
X53364634Y-56434186D01*
X53565813Y-56635365D01*
X53565820Y-56635371D01*
X53791548Y-56808577D01*
X54037945Y-56950835D01*
X54037950Y-56950837D01*
X54037953Y-56950839D01*
X54300819Y-57059722D01*
X54575648Y-57133362D01*
X54857738Y-57170500D01*
X54857745Y-57170500D01*
X55142255Y-57170500D01*
X55142262Y-57170500D01*
X55424352Y-57133362D01*
X55699181Y-57059722D01*
X55962047Y-56950839D01*
X56208452Y-56808577D01*
X56434181Y-56635370D01*
X56635370Y-56434181D01*
X56808577Y-56208452D01*
X56950839Y-55962047D01*
X57059722Y-55699181D01*
X57133362Y-55424352D01*
X57170500Y-55142262D01*
X57170500Y-54857744D01*
X132829500Y-54857744D01*
X132829500Y-55142255D01*
X132829501Y-55142271D01*
X132866636Y-55424341D01*
X132866637Y-55424346D01*
X132866638Y-55424352D01*
X132940278Y-55699181D01*
X133019026Y-55889295D01*
X133049159Y-55962043D01*
X133049164Y-55962054D01*
X133191422Y-56208451D01*
X133364628Y-56434179D01*
X133364634Y-56434186D01*
X133565813Y-56635365D01*
X133565820Y-56635371D01*
X133791548Y-56808577D01*
X134037945Y-56950835D01*
X134037950Y-56950837D01*
X134037953Y-56950839D01*
X134300819Y-57059722D01*
X134575648Y-57133362D01*
X134857738Y-57170500D01*
X134857745Y-57170500D01*
X135142255Y-57170500D01*
X135142262Y-57170500D01*
X135424352Y-57133362D01*
X135699181Y-57059722D01*
X135962047Y-56950839D01*
X136208452Y-56808577D01*
X136434181Y-56635370D01*
X136635370Y-56434181D01*
X136808577Y-56208452D01*
X136950839Y-55962047D01*
X137059722Y-55699181D01*
X137133362Y-55424352D01*
X137170500Y-55142262D01*
X137170500Y-54857738D01*
X137133362Y-54575648D01*
X137059722Y-54300819D01*
X136950839Y-54037953D01*
X136950837Y-54037950D01*
X136950835Y-54037945D01*
X136808577Y-53791548D01*
X136635371Y-53565820D01*
X136635365Y-53565813D01*
X136434186Y-53364634D01*
X136434179Y-53364628D01*
X136208451Y-53191422D01*
X135962054Y-53049164D01*
X135962043Y-53049159D01*
X135840501Y-52998815D01*
X135699181Y-52940278D01*
X135424352Y-52866638D01*
X135424346Y-52866637D01*
X135424341Y-52866636D01*
X135142271Y-52829501D01*
X135142268Y-52829500D01*
X135142262Y-52829500D01*
X134857738Y-52829500D01*
X134857732Y-52829500D01*
X134857728Y-52829501D01*
X134575658Y-52866636D01*
X134575651Y-52866637D01*
X134575648Y-52866638D01*
X134300819Y-52940278D01*
X134178729Y-52990849D01*
X134037956Y-53049159D01*
X134037945Y-53049164D01*
X133791548Y-53191422D01*
X133565820Y-53364628D01*
X133565813Y-53364634D01*
X133364634Y-53565813D01*
X133364628Y-53565820D01*
X133191422Y-53791548D01*
X133049164Y-54037945D01*
X133049159Y-54037956D01*
X133019026Y-54110705D01*
X132940278Y-54300819D01*
X132872854Y-54552452D01*
X132866639Y-54575645D01*
X132866636Y-54575658D01*
X132829501Y-54857728D01*
X132829500Y-54857744D01*
X57170500Y-54857744D01*
X57170500Y-54857738D01*
X57133362Y-54575648D01*
X57059722Y-54300819D01*
X56950839Y-54037953D01*
X56950837Y-54037950D01*
X56950835Y-54037945D01*
X56808577Y-53791548D01*
X56635371Y-53565820D01*
X56635365Y-53565813D01*
X56434186Y-53364634D01*
X56434179Y-53364628D01*
X56208451Y-53191422D01*
X55962054Y-53049164D01*
X55962043Y-53049159D01*
X55840501Y-52998815D01*
X55699181Y-52940278D01*
X55424352Y-52866638D01*
X55424346Y-52866637D01*
X55424341Y-52866636D01*
X55142271Y-52829501D01*
X55142268Y-52829500D01*
X55142262Y-52829500D01*
X54857738Y-52829500D01*
X54857732Y-52829500D01*
X54857728Y-52829501D01*
X54575658Y-52866636D01*
X54575651Y-52866637D01*
X54575648Y-52866638D01*
X54300819Y-52940278D01*
X54178729Y-52990849D01*
X54037956Y-53049159D01*
X54037945Y-53049164D01*
X53791548Y-53191422D01*
X53565820Y-53364628D01*
X53565813Y-53364634D01*
X53364634Y-53565813D01*
X53364628Y-53565820D01*
X53191422Y-53791548D01*
X53049164Y-54037945D01*
X53049159Y-54037956D01*
X53019026Y-54110705D01*
X52940278Y-54300819D01*
X52872854Y-54552452D01*
X52866639Y-54575645D01*
X52866636Y-54575658D01*
X52829501Y-54857728D01*
X52829500Y-54857744D01*
X50506711Y-54857744D01*
X50517387Y-54613224D01*
X50518325Y-54602496D01*
X50568151Y-54224032D01*
X50570024Y-54213402D01*
X50652648Y-53840714D01*
X50655446Y-53830276D01*
X50667657Y-53791548D01*
X50770230Y-53466227D01*
X50773917Y-53456095D01*
X50920003Y-53103412D01*
X50924561Y-53093638D01*
X51100822Y-52755045D01*
X51106217Y-52745700D01*
X51311325Y-52423744D01*
X51317515Y-52414905D01*
X51549896Y-52112060D01*
X51556834Y-52103791D01*
X51814726Y-51822352D01*
X51822352Y-51814726D01*
X52103791Y-51556834D01*
X52112060Y-51549896D01*
X52414905Y-51317515D01*
X52423744Y-51311325D01*
X52745700Y-51106217D01*
X52755045Y-51100822D01*
X53093638Y-50924561D01*
X53103412Y-50920003D01*
X53456095Y-50773917D01*
X53466227Y-50770230D01*
X53830285Y-50655443D01*
X53840714Y-50652648D01*
X54213402Y-50570024D01*
X54224032Y-50568151D01*
X54602496Y-50518325D01*
X54613224Y-50517387D01*
X54997297Y-50500617D01*
X55002706Y-50500500D01*
X55065892Y-50500500D01*
X134934108Y-50500500D01*
X134997294Y-50500500D01*
X135002702Y-50500617D01*
G37*
%TD.AperFunction*%
%TD*%
M02*
