%TF.GenerationSoftware,KiCad,Pcbnew,9.0.9.1*%
%TF.CreationDate,2026-09-11T23:15:09+09:00*%
%TF.ProjectId,TRIA_CentralControlBoard,54524941-5f43-4656-9e74-72616c436f6e,rev?*%
%TF.SameCoordinates,Original*%
%TF.FileFunction,Soldermask,Top*%
%TF.FilePolarity,Negative*%
%FSLAX46Y46*%
G04 Gerber Fmt 4.6, Leading zero omitted, Abs format (unit mm)*
G04 Created by KiCad (PCBNEW 9.0.9.1) date 2026-09-11 23:15:09*
%MOMM*%
%LPD*%
G01*
G04 APERTURE LIST*
G04 Aperture macros list*
%AMRoundRect*
0 Rectangle with rounded corners*
0 $1 Rounding radius*
0 $2 $3 $4 $5 $6 $7 $8 $9 X,Y pos of 4 corners*
0 Add a 4 corners polygon primitive as box body*
4,1,4,$2,$3,$4,$5,$6,$7,$8,$9,$2,$3,0*
0 Add four circle primitives for the rounded corners*
1,1,$1+$1,$2,$3*
1,1,$1+$1,$4,$5*
1,1,$1+$1,$6,$7*
1,1,$1+$1,$8,$9*
0 Add four rect primitives between the rounded corners*
20,1,$1+$1,$2,$3,$4,$5,0*
20,1,$1+$1,$4,$5,$6,$7,0*
20,1,$1+$1,$6,$7,$8,$9,0*
20,1,$1+$1,$8,$9,$2,$3,0*%
%AMFreePoly0*
4,1,25,0.401445,0.907196,0.413568,0.896842,0.896842,0.413568,0.925349,0.357620,0.926600,0.341726,0.926600,-0.341726,0.907196,-0.401445,0.896842,-0.413568,0.413568,-0.896842,0.357620,-0.925349,0.341726,-0.926600,-0.341726,-0.926600,-0.401445,-0.907196,-0.413568,-0.896842,-0.896842,-0.413568,-0.925349,-0.357620,-0.926600,-0.341726,-0.926600,0.341726,-0.907196,0.401445,-0.896842,0.413568,
-0.413568,0.896842,-0.357620,0.925349,-0.341726,0.926600,0.341726,0.926600,0.401445,0.907196,0.401445,0.907196,$1*%
G04 Aperture macros list end*
%ADD10R,1.800000X1.800000*%
%ADD11C,1.800000*%
%ADD12C,1.600000*%
%ADD13RoundRect,0.250000X-0.350000X0.350000X-0.350000X-0.350000X0.350000X-0.350000X0.350000X0.350000X0*%
%ADD14C,1.200000*%
%ADD15RoundRect,0.250000X0.600000X0.750000X-0.600000X0.750000X-0.600000X-0.750000X0.600000X-0.750000X0*%
%ADD16O,1.700000X2.000000*%
%ADD17RoundRect,0.250000X-0.850000X-0.350000X0.850000X-0.350000X0.850000X0.350000X-0.850000X0.350000X0*%
%ADD18RoundRect,0.249997X-2.950003X-2.650003X2.950003X-2.650003X2.950003X2.650003X-2.950003X2.650003X0*%
%ADD19RoundRect,0.760000X1.140000X-1.140000X1.140000X1.140000X-1.140000X1.140000X-1.140000X-1.140000X0*%
%ADD20C,3.800000*%
%ADD21R,1.700000X1.700000*%
%ADD22C,1.700000*%
%ADD23RoundRect,0.250000X-0.550000X-0.550000X0.550000X-0.550000X0.550000X0.550000X-0.550000X0.550000X0*%
%ADD24C,2.200000*%
%ADD25RoundRect,0.101600X0.825000X-0.825000X0.825000X0.825000X-0.825000X0.825000X-0.825000X-0.825000X0*%
%ADD26C,1.711200*%
%ADD27FreePoly0,90.000000*%
%ADD28O,1.853200X3.503200*%
G04 APERTURE END LIST*
D10*
%TO.C,5V*%
X53470000Y-79560000D03*
D11*
X53470000Y-77020000D03*
%TD*%
D12*
%TO.C,R6*%
X68000000Y-115000000D03*
X78160000Y-115000000D03*
%TD*%
%TO.C,R17*%
X102630000Y-73010000D03*
X102630000Y-62850000D03*
%TD*%
D13*
%TO.C,C2*%
X71000000Y-71500000D03*
D14*
X71000000Y-73000000D03*
%TD*%
D15*
%TO.C,J7*%
X120000000Y-59000000D03*
D16*
X117500000Y-59000000D03*
%TD*%
D12*
%TO.C,C15*%
X86140000Y-65340000D03*
X86140000Y-62840000D03*
%TD*%
%TO.C,R3*%
X67000000Y-77000000D03*
X56840000Y-77000000D03*
%TD*%
D15*
%TO.C,J1*%
X110000000Y-59000000D03*
D16*
X107500000Y-59000000D03*
%TD*%
D12*
%TO.C,R1*%
X82000000Y-85000000D03*
X82000000Y-74840000D03*
%TD*%
D17*
%TO.C,U1*%
X74960000Y-66000000D03*
D18*
X81260000Y-68280000D03*
D17*
X74960000Y-70560000D03*
%TD*%
D19*
%TO.C,J2*%
X56000000Y-71000000D03*
D20*
X56000000Y-66000000D03*
%TD*%
D15*
%TO.C,J9*%
X120000000Y-83000000D03*
D16*
X117500000Y-83000000D03*
%TD*%
D12*
%TO.C,C1*%
X71000000Y-66000000D03*
X71000000Y-68500000D03*
%TD*%
D15*
%TO.C,Limit2*%
X89000000Y-83000000D03*
D16*
X86500000Y-83000000D03*
%TD*%
D12*
%TO.C,R2*%
X94000000Y-85000000D03*
X94000000Y-74840000D03*
%TD*%
D15*
%TO.C,J8*%
X120000000Y-67000000D03*
D16*
X117500000Y-67000000D03*
%TD*%
D21*
%TO.C,J5*%
X99260000Y-65355000D03*
D22*
X99260000Y-67895000D03*
%TD*%
D12*
%TO.C,R5*%
X68000000Y-111000000D03*
X78160000Y-111000000D03*
%TD*%
D23*
%TO.C,U9*%
X88530000Y-60300000D03*
D12*
X88530000Y-62840000D03*
X88530000Y-65380000D03*
X88530000Y-67920000D03*
X96150000Y-67920000D03*
X96150000Y-65380000D03*
X96150000Y-62840000D03*
X96150000Y-60300000D03*
%TD*%
D15*
%TO.C,J3*%
X110000000Y-67000000D03*
D16*
X107500000Y-67000000D03*
%TD*%
D15*
%TO.C,Limit1*%
X77000000Y-83000000D03*
D16*
X74500000Y-83000000D03*
%TD*%
D10*
%TO.C,Limit1*%
X88000000Y-113500000D03*
D11*
X85460000Y-113500000D03*
%TD*%
D12*
%TO.C,C3*%
X70030000Y-86150000D03*
X67530000Y-86150000D03*
%TD*%
D10*
%TO.C,3.3V*%
X53470000Y-84600000D03*
D11*
X53470000Y-82060000D03*
%TD*%
D12*
%TO.C,C14*%
X96140000Y-70710000D03*
X93640000Y-70710000D03*
%TD*%
D15*
%TO.C,J10*%
X120000000Y-75000000D03*
D16*
X117500000Y-75000000D03*
%TD*%
D15*
%TO.C,J6*%
X110000000Y-83000000D03*
D16*
X107500000Y-83000000D03*
%TD*%
D12*
%TO.C,R4*%
X67000000Y-81000000D03*
X56840000Y-81000000D03*
%TD*%
D10*
%TO.C,Limit2*%
X95000000Y-113500000D03*
D11*
X92460000Y-113500000D03*
%TD*%
D24*
%TO.C,U2*%
X60600000Y-103700000D03*
X60600000Y-92300000D03*
D25*
X59870000Y-106890000D03*
D26*
X62410000Y-106890000D03*
D27*
X64950000Y-106890000D03*
D26*
X67490000Y-106890000D03*
X70030000Y-106890000D03*
X72570000Y-106890000D03*
X75110000Y-106890000D03*
D27*
X77650000Y-106890000D03*
D26*
X80190000Y-106890000D03*
X82730000Y-106890000D03*
X85270000Y-106890000D03*
X87810000Y-106890000D03*
D27*
X90350000Y-106890000D03*
D26*
X92890000Y-106890000D03*
X95430000Y-106890000D03*
X97970000Y-106890000D03*
X100510000Y-106890000D03*
D27*
X103050000Y-106890000D03*
D26*
X105590000Y-106890000D03*
X108130000Y-106890000D03*
D27*
X103050000Y-89110000D03*
X90350000Y-89110000D03*
D26*
X87810000Y-89110000D03*
X85270000Y-89110000D03*
X82730000Y-89110000D03*
X80190000Y-89110000D03*
D27*
X77650000Y-89110000D03*
D26*
X75110000Y-89110000D03*
X72570000Y-89110000D03*
D28*
X70030000Y-89935000D03*
D26*
X67490000Y-89110000D03*
D27*
X64950000Y-89110000D03*
D26*
X62410000Y-89110000D03*
X59870000Y-89110000D03*
X105590000Y-89110000D03*
X92890000Y-89110000D03*
X108130000Y-89110000D03*
X97970000Y-89110000D03*
X95430000Y-89110000D03*
X100510000Y-89110000D03*
%TD*%
D15*
%TO.C,J4*%
X110000000Y-75000000D03*
D16*
X107500000Y-75000000D03*
%TD*%
M02*
