M48
; DRILL file {KiCad 9.0.9.1} date 2026-09-11T23:15:13+0900
; FORMAT={-:-/ absolute / metric / decimal}
; #@! TF.CreationDate,2026-09-11T23:15:13+09:00
; #@! TF.GenerationSoftware,Kicad,Pcbnew,9.0.9.1
; #@! TF.FileFunction,Plated,1,2,PTH
FMAT,2
METRIC
; #@! TA.AperFunction,Plated,PTH,ComponentDrill
T1C0.600
; #@! TA.AperFunction,Plated,PTH,ComponentDrill
T2C0.800
; #@! TA.AperFunction,Plated,PTH,ComponentDrill
T3C0.900
; #@! TA.AperFunction,Plated,PTH,ComponentDrill
T4C1.000
; #@! TA.AperFunction,Plated,PTH,ComponentDrill
T5C1.100
; #@! TA.AperFunction,Plated,PTH,ComponentDrill
T6C2.700
%
G90
G05
T1
X71.0Y-71.5
X71.0Y-73.0
T2
X56.84Y-77.0
X56.84Y-81.0
X67.0Y-77.0
X67.0Y-81.0
X67.53Y-86.15
X68.0Y-111.0
X68.0Y-115.0
X70.03Y-86.15
X71.0Y-66.0
X71.0Y-68.5
X78.16Y-111.0
X78.16Y-115.0
X82.0Y-74.84
X82.0Y-85.0
X86.14Y-62.84
X86.14Y-65.34
X88.53Y-60.3
X88.53Y-62.84
X88.53Y-65.38
X88.53Y-67.92
X93.64Y-70.71
X94.0Y-74.84
X94.0Y-85.0
X96.14Y-70.71
X96.15Y-60.3
X96.15Y-62.84
X96.15Y-65.38
X96.15Y-67.92
X102.63Y-62.85
X102.63Y-73.01
T3
X53.47Y-77.02
X53.47Y-79.56
X53.47Y-82.06
X53.47Y-84.6
X85.46Y-113.5
X88.0Y-113.5
X92.46Y-113.5
X95.0Y-113.5
T4
X59.87Y-89.11
X62.41Y-89.11
X62.41Y-106.89
X67.49Y-89.11
X67.49Y-106.89
X70.03Y-106.89
X72.57Y-89.11
X72.57Y-106.89
X74.5Y-83.0
X75.11Y-89.11
X75.11Y-106.89
X77.0Y-83.0
X80.19Y-89.11
X80.19Y-106.89
X82.73Y-89.11
X82.73Y-106.89
X85.27Y-89.11
X85.27Y-106.89
X86.5Y-83.0
X87.81Y-89.11
X87.81Y-106.89
X89.0Y-83.0
X92.89Y-89.11
X92.89Y-106.89
X95.43Y-89.11
X95.43Y-106.89
X97.97Y-89.11
X97.97Y-106.89
X99.26Y-65.355
X99.26Y-67.895
X100.51Y-89.11
X100.51Y-106.89
X105.59Y-89.11
X105.59Y-106.89
X107.5Y-59.0
X107.5Y-67.0
X107.5Y-75.0
X107.5Y-83.0
X108.13Y-89.11
X108.13Y-106.89
X110.0Y-59.0
X110.0Y-67.0
X110.0Y-75.0
X110.0Y-83.0
X117.5Y-59.0
X117.5Y-67.0
X117.5Y-75.0
X117.5Y-83.0
X120.0Y-59.0
X120.0Y-67.0
X120.0Y-75.0
X120.0Y-83.0
T5
X59.87Y-106.89
X64.95Y-89.11
X64.95Y-106.89
X70.03Y-89.11
X77.65Y-89.11
X77.65Y-106.89
X90.35Y-89.11
X90.35Y-106.89
X103.05Y-89.11
X103.05Y-106.89
T6
X56.0Y-66.0
X56.0Y-71.0
M30
