%TF.GenerationSoftware,KiCad,Pcbnew,9.0.9.1*%
%TF.CreationDate,2026-09-09T22:42:29+09:00*%
%TF.ProjectId,TRIA_ControlPowerBoard,54524941-5f43-46f6-9e74-726f6c506f77,rev?*%
%TF.SameCoordinates,Original*%
%TF.FileFunction,Legend,Top*%
%TF.FilePolarity,Positive*%
%FSLAX46Y46*%
G04 Gerber Fmt 4.6, Leading zero omitted, Abs format (unit mm)*
G04 Created by KiCad (PCBNEW 9.0.9.1) date 2026-09-09 22:42:29*
%MOMM*%
%LPD*%
G01*
G04 APERTURE LIST*
%ADD10C,0.100000*%
%ADD11C,0.200000*%
%ADD12C,0.150000*%
%ADD13C,0.120000*%
G04 APERTURE END LIST*
D10*
X48000000Y-35000000D02*
G75*
G02*
X42000000Y-35000000I-3000000J0D01*
G01*
X42000000Y-35000000D02*
G75*
G02*
X48000000Y-35000000I3000000J0D01*
G01*
D11*
X49000000Y-87000000D02*
X60000000Y-87000000D01*
X60000000Y-100000000D01*
X49000000Y-100000000D01*
X49000000Y-87000000D01*
X60000000Y-87000000D02*
X119400000Y-87000000D01*
X119400000Y-100000000D01*
X60000000Y-100000000D01*
X60000000Y-87000000D01*
D10*
X128000000Y-35000000D02*
G75*
G02*
X122000000Y-35000000I-3000000J0D01*
G01*
X122000000Y-35000000D02*
G75*
G02*
X128000000Y-35000000I3000000J0D01*
G01*
X128000000Y-95000000D02*
G75*
G02*
X122000000Y-95000000I-3000000J0D01*
G01*
X122000000Y-95000000D02*
G75*
G02*
X128000000Y-95000000I3000000J0D01*
G01*
D12*
X94809523Y-84354819D02*
X94333333Y-84354819D01*
X94333333Y-84354819D02*
X94285714Y-84831009D01*
X94285714Y-84831009D02*
X94333333Y-84783390D01*
X94333333Y-84783390D02*
X94428571Y-84735771D01*
X94428571Y-84735771D02*
X94666666Y-84735771D01*
X94666666Y-84735771D02*
X94761904Y-84783390D01*
X94761904Y-84783390D02*
X94809523Y-84831009D01*
X94809523Y-84831009D02*
X94857142Y-84926247D01*
X94857142Y-84926247D02*
X94857142Y-85164342D01*
X94857142Y-85164342D02*
X94809523Y-85259580D01*
X94809523Y-85259580D02*
X94761904Y-85307200D01*
X94761904Y-85307200D02*
X94666666Y-85354819D01*
X94666666Y-85354819D02*
X94428571Y-85354819D01*
X94428571Y-85354819D02*
X94333333Y-85307200D01*
X94333333Y-85307200D02*
X94285714Y-85259580D01*
X95142857Y-84354819D02*
X95476190Y-85354819D01*
X95476190Y-85354819D02*
X95809523Y-84354819D01*
X51454819Y-94119047D02*
X51454819Y-94690475D01*
X51454819Y-94404761D02*
X50454819Y-94404761D01*
X50454819Y-94404761D02*
X50597676Y-94499999D01*
X50597676Y-94499999D02*
X50692914Y-94595237D01*
X50692914Y-94595237D02*
X50740533Y-94690475D01*
X50550057Y-93738094D02*
X50502438Y-93690475D01*
X50502438Y-93690475D02*
X50454819Y-93595237D01*
X50454819Y-93595237D02*
X50454819Y-93357142D01*
X50454819Y-93357142D02*
X50502438Y-93261904D01*
X50502438Y-93261904D02*
X50550057Y-93214285D01*
X50550057Y-93214285D02*
X50645295Y-93166666D01*
X50645295Y-93166666D02*
X50740533Y-93166666D01*
X50740533Y-93166666D02*
X50883390Y-93214285D01*
X50883390Y-93214285D02*
X51454819Y-93785713D01*
X51454819Y-93785713D02*
X51454819Y-93166666D01*
X50454819Y-92880951D02*
X51454819Y-92547618D01*
X51454819Y-92547618D02*
X50454819Y-92214285D01*
X46904819Y-74392857D02*
X46904819Y-74869047D01*
X46904819Y-74869047D02*
X45904819Y-74869047D01*
X46381009Y-74059523D02*
X46381009Y-73726190D01*
X46904819Y-73583333D02*
X46904819Y-74059523D01*
X46904819Y-74059523D02*
X45904819Y-74059523D01*
X45904819Y-74059523D02*
X45904819Y-73583333D01*
X46904819Y-73154761D02*
X45904819Y-73154761D01*
X45904819Y-73154761D02*
X45904819Y-72916666D01*
X45904819Y-72916666D02*
X45952438Y-72773809D01*
X45952438Y-72773809D02*
X46047676Y-72678571D01*
X46047676Y-72678571D02*
X46142914Y-72630952D01*
X46142914Y-72630952D02*
X46333390Y-72583333D01*
X46333390Y-72583333D02*
X46476247Y-72583333D01*
X46476247Y-72583333D02*
X46666723Y-72630952D01*
X46666723Y-72630952D02*
X46761961Y-72678571D01*
X46761961Y-72678571D02*
X46857200Y-72773809D01*
X46857200Y-72773809D02*
X46904819Y-72916666D01*
X46904819Y-72916666D02*
X46904819Y-73154761D01*
X41954819Y-46733333D02*
X42669104Y-46733333D01*
X42669104Y-46733333D02*
X42811961Y-46780952D01*
X42811961Y-46780952D02*
X42907200Y-46876190D01*
X42907200Y-46876190D02*
X42954819Y-47019047D01*
X42954819Y-47019047D02*
X42954819Y-47114285D01*
X42954819Y-45733333D02*
X42954819Y-46304761D01*
X42954819Y-46019047D02*
X41954819Y-46019047D01*
X41954819Y-46019047D02*
X42097676Y-46114285D01*
X42097676Y-46114285D02*
X42192914Y-46209523D01*
X42192914Y-46209523D02*
X42240533Y-46304761D01*
X62614700Y-41071428D02*
X62614700Y-39928571D01*
X63186128Y-40499999D02*
X62043271Y-40499999D01*
X62614700Y-53371428D02*
X62614700Y-52228571D01*
X56904819Y-75535714D02*
X55904819Y-75535714D01*
X55904819Y-75535714D02*
X56619104Y-75202381D01*
X56619104Y-75202381D02*
X55904819Y-74869048D01*
X55904819Y-74869048D02*
X56904819Y-74869048D01*
X56857200Y-74011905D02*
X56904819Y-74107143D01*
X56904819Y-74107143D02*
X56904819Y-74297619D01*
X56904819Y-74297619D02*
X56857200Y-74392857D01*
X56857200Y-74392857D02*
X56761961Y-74440476D01*
X56761961Y-74440476D02*
X56381009Y-74440476D01*
X56381009Y-74440476D02*
X56285771Y-74392857D01*
X56285771Y-74392857D02*
X56238152Y-74297619D01*
X56238152Y-74297619D02*
X56238152Y-74107143D01*
X56238152Y-74107143D02*
X56285771Y-74011905D01*
X56285771Y-74011905D02*
X56381009Y-73964286D01*
X56381009Y-73964286D02*
X56476247Y-73964286D01*
X56476247Y-73964286D02*
X56571485Y-74440476D01*
X56238152Y-73678571D02*
X56238152Y-73297619D01*
X55904819Y-73535714D02*
X56761961Y-73535714D01*
X56761961Y-73535714D02*
X56857200Y-73488095D01*
X56857200Y-73488095D02*
X56904819Y-73392857D01*
X56904819Y-73392857D02*
X56904819Y-73297619D01*
X56857200Y-72583333D02*
X56904819Y-72678571D01*
X56904819Y-72678571D02*
X56904819Y-72869047D01*
X56904819Y-72869047D02*
X56857200Y-72964285D01*
X56857200Y-72964285D02*
X56761961Y-73011904D01*
X56761961Y-73011904D02*
X56381009Y-73011904D01*
X56381009Y-73011904D02*
X56285771Y-72964285D01*
X56285771Y-72964285D02*
X56238152Y-72869047D01*
X56238152Y-72869047D02*
X56238152Y-72678571D01*
X56238152Y-72678571D02*
X56285771Y-72583333D01*
X56285771Y-72583333D02*
X56381009Y-72535714D01*
X56381009Y-72535714D02*
X56476247Y-72535714D01*
X56476247Y-72535714D02*
X56571485Y-73011904D01*
X56904819Y-72107142D02*
X56238152Y-72107142D01*
X56428628Y-72107142D02*
X56333390Y-72059523D01*
X56333390Y-72059523D02*
X56285771Y-72011904D01*
X56285771Y-72011904D02*
X56238152Y-71916666D01*
X56238152Y-71916666D02*
X56238152Y-71821428D01*
X68753333Y-60454819D02*
X68420000Y-59978628D01*
X68181905Y-60454819D02*
X68181905Y-59454819D01*
X68181905Y-59454819D02*
X68562857Y-59454819D01*
X68562857Y-59454819D02*
X68658095Y-59502438D01*
X68658095Y-59502438D02*
X68705714Y-59550057D01*
X68705714Y-59550057D02*
X68753333Y-59645295D01*
X68753333Y-59645295D02*
X68753333Y-59788152D01*
X68753333Y-59788152D02*
X68705714Y-59883390D01*
X68705714Y-59883390D02*
X68658095Y-59931009D01*
X68658095Y-59931009D02*
X68562857Y-59978628D01*
X68562857Y-59978628D02*
X68181905Y-59978628D01*
X69705714Y-60454819D02*
X69134286Y-60454819D01*
X69420000Y-60454819D02*
X69420000Y-59454819D01*
X69420000Y-59454819D02*
X69324762Y-59597676D01*
X69324762Y-59597676D02*
X69229524Y-59692914D01*
X69229524Y-59692914D02*
X69134286Y-59740533D01*
D10*
X105338095Y-37657419D02*
X105338095Y-38466942D01*
X105338095Y-38466942D02*
X105385714Y-38562180D01*
X105385714Y-38562180D02*
X105433333Y-38609800D01*
X105433333Y-38609800D02*
X105528571Y-38657419D01*
X105528571Y-38657419D02*
X105719047Y-38657419D01*
X105719047Y-38657419D02*
X105814285Y-38609800D01*
X105814285Y-38609800D02*
X105861904Y-38562180D01*
X105861904Y-38562180D02*
X105909523Y-38466942D01*
X105909523Y-38466942D02*
X105909523Y-37657419D01*
X106338095Y-37752657D02*
X106385714Y-37705038D01*
X106385714Y-37705038D02*
X106480952Y-37657419D01*
X106480952Y-37657419D02*
X106719047Y-37657419D01*
X106719047Y-37657419D02*
X106814285Y-37705038D01*
X106814285Y-37705038D02*
X106861904Y-37752657D01*
X106861904Y-37752657D02*
X106909523Y-37847895D01*
X106909523Y-37847895D02*
X106909523Y-37943133D01*
X106909523Y-37943133D02*
X106861904Y-38085990D01*
X106861904Y-38085990D02*
X106290476Y-38657419D01*
X106290476Y-38657419D02*
X106909523Y-38657419D01*
X115427580Y-41061027D02*
X114427580Y-41394360D01*
X114427580Y-41394360D02*
X115427580Y-41727693D01*
X114427580Y-42203884D02*
X114475200Y-42108646D01*
X114475200Y-42108646D02*
X114522819Y-42061027D01*
X114522819Y-42061027D02*
X114618057Y-42013408D01*
X114618057Y-42013408D02*
X114903771Y-42013408D01*
X114903771Y-42013408D02*
X114999009Y-42061027D01*
X114999009Y-42061027D02*
X115046628Y-42108646D01*
X115046628Y-42108646D02*
X115094247Y-42203884D01*
X115094247Y-42203884D02*
X115094247Y-42346741D01*
X115094247Y-42346741D02*
X115046628Y-42441979D01*
X115046628Y-42441979D02*
X114999009Y-42489598D01*
X114999009Y-42489598D02*
X114903771Y-42537217D01*
X114903771Y-42537217D02*
X114618057Y-42537217D01*
X114618057Y-42537217D02*
X114522819Y-42489598D01*
X114522819Y-42489598D02*
X114475200Y-42441979D01*
X114475200Y-42441979D02*
X114427580Y-42346741D01*
X114427580Y-42346741D02*
X114427580Y-42203884D01*
X115094247Y-43394360D02*
X114427580Y-43394360D01*
X115094247Y-42965789D02*
X114570438Y-42965789D01*
X114570438Y-42965789D02*
X114475200Y-43013408D01*
X114475200Y-43013408D02*
X114427580Y-43108646D01*
X114427580Y-43108646D02*
X114427580Y-43251503D01*
X114427580Y-43251503D02*
X114475200Y-43346741D01*
X114475200Y-43346741D02*
X114522819Y-43394360D01*
X115094247Y-43727694D02*
X115094247Y-44108646D01*
X115427580Y-43870551D02*
X114570438Y-43870551D01*
X114570438Y-43870551D02*
X114475200Y-43918170D01*
X114475200Y-43918170D02*
X114427580Y-44013408D01*
X114427580Y-44013408D02*
X114427580Y-44108646D01*
X100527580Y-41061027D02*
X99527580Y-41394360D01*
X99527580Y-41394360D02*
X100527580Y-41727693D01*
X99527580Y-42061027D02*
X100194247Y-42061027D01*
X100527580Y-42061027D02*
X100479961Y-42013408D01*
X100479961Y-42013408D02*
X100432342Y-42061027D01*
X100432342Y-42061027D02*
X100479961Y-42108646D01*
X100479961Y-42108646D02*
X100527580Y-42061027D01*
X100527580Y-42061027D02*
X100432342Y-42061027D01*
X100194247Y-42537217D02*
X99527580Y-42537217D01*
X100099009Y-42537217D02*
X100146628Y-42584836D01*
X100146628Y-42584836D02*
X100194247Y-42680074D01*
X100194247Y-42680074D02*
X100194247Y-42822931D01*
X100194247Y-42822931D02*
X100146628Y-42918169D01*
X100146628Y-42918169D02*
X100051390Y-42965788D01*
X100051390Y-42965788D02*
X99527580Y-42965788D01*
X112927580Y-41061027D02*
X111927580Y-41394360D01*
X111927580Y-41394360D02*
X112927580Y-41727693D01*
X111927580Y-42203884D02*
X111975200Y-42108646D01*
X111975200Y-42108646D02*
X112022819Y-42061027D01*
X112022819Y-42061027D02*
X112118057Y-42013408D01*
X112118057Y-42013408D02*
X112403771Y-42013408D01*
X112403771Y-42013408D02*
X112499009Y-42061027D01*
X112499009Y-42061027D02*
X112546628Y-42108646D01*
X112546628Y-42108646D02*
X112594247Y-42203884D01*
X112594247Y-42203884D02*
X112594247Y-42346741D01*
X112594247Y-42346741D02*
X112546628Y-42441979D01*
X112546628Y-42441979D02*
X112499009Y-42489598D01*
X112499009Y-42489598D02*
X112403771Y-42537217D01*
X112403771Y-42537217D02*
X112118057Y-42537217D01*
X112118057Y-42537217D02*
X112022819Y-42489598D01*
X112022819Y-42489598D02*
X111975200Y-42441979D01*
X111975200Y-42441979D02*
X111927580Y-42346741D01*
X111927580Y-42346741D02*
X111927580Y-42203884D01*
X112594247Y-43394360D02*
X111927580Y-43394360D01*
X112594247Y-42965789D02*
X112070438Y-42965789D01*
X112070438Y-42965789D02*
X111975200Y-43013408D01*
X111975200Y-43013408D02*
X111927580Y-43108646D01*
X111927580Y-43108646D02*
X111927580Y-43251503D01*
X111927580Y-43251503D02*
X111975200Y-43346741D01*
X111975200Y-43346741D02*
X112022819Y-43394360D01*
X112594247Y-43727694D02*
X112594247Y-44108646D01*
X112927580Y-43870551D02*
X112070438Y-43870551D01*
X112070438Y-43870551D02*
X111975200Y-43918170D01*
X111975200Y-43918170D02*
X111927580Y-44013408D01*
X111927580Y-44013408D02*
X111927580Y-44108646D01*
X105479961Y-41727693D02*
X105527580Y-41632455D01*
X105527580Y-41632455D02*
X105527580Y-41489598D01*
X105527580Y-41489598D02*
X105479961Y-41346741D01*
X105479961Y-41346741D02*
X105384723Y-41251503D01*
X105384723Y-41251503D02*
X105289485Y-41203884D01*
X105289485Y-41203884D02*
X105099009Y-41156265D01*
X105099009Y-41156265D02*
X104956152Y-41156265D01*
X104956152Y-41156265D02*
X104765676Y-41203884D01*
X104765676Y-41203884D02*
X104670438Y-41251503D01*
X104670438Y-41251503D02*
X104575200Y-41346741D01*
X104575200Y-41346741D02*
X104527580Y-41489598D01*
X104527580Y-41489598D02*
X104527580Y-41584836D01*
X104527580Y-41584836D02*
X104575200Y-41727693D01*
X104575200Y-41727693D02*
X104622819Y-41775312D01*
X104622819Y-41775312D02*
X104956152Y-41775312D01*
X104956152Y-41775312D02*
X104956152Y-41584836D01*
X104527580Y-42203884D02*
X105527580Y-42203884D01*
X105527580Y-42203884D02*
X104527580Y-42775312D01*
X104527580Y-42775312D02*
X105527580Y-42775312D01*
X104527580Y-43251503D02*
X105527580Y-43251503D01*
X105527580Y-43251503D02*
X105527580Y-43489598D01*
X105527580Y-43489598D02*
X105479961Y-43632455D01*
X105479961Y-43632455D02*
X105384723Y-43727693D01*
X105384723Y-43727693D02*
X105289485Y-43775312D01*
X105289485Y-43775312D02*
X105099009Y-43822931D01*
X105099009Y-43822931D02*
X104956152Y-43822931D01*
X104956152Y-43822931D02*
X104765676Y-43775312D01*
X104765676Y-43775312D02*
X104670438Y-43727693D01*
X104670438Y-43727693D02*
X104575200Y-43632455D01*
X104575200Y-43632455D02*
X104527580Y-43489598D01*
X104527580Y-43489598D02*
X104527580Y-43251503D01*
X110527580Y-41061027D02*
X109527580Y-41394360D01*
X109527580Y-41394360D02*
X110527580Y-41727693D01*
X109813295Y-42013408D02*
X109813295Y-42489598D01*
X109527580Y-41918170D02*
X110527580Y-42251503D01*
X110527580Y-42251503D02*
X109527580Y-42584836D01*
X109527580Y-43489598D02*
X110003771Y-43156265D01*
X109527580Y-42918170D02*
X110527580Y-42918170D01*
X110527580Y-42918170D02*
X110527580Y-43299122D01*
X110527580Y-43299122D02*
X110479961Y-43394360D01*
X110479961Y-43394360D02*
X110432342Y-43441979D01*
X110432342Y-43441979D02*
X110337104Y-43489598D01*
X110337104Y-43489598D02*
X110194247Y-43489598D01*
X110194247Y-43489598D02*
X110099009Y-43441979D01*
X110099009Y-43441979D02*
X110051390Y-43394360D01*
X110051390Y-43394360D02*
X110003771Y-43299122D01*
X110003771Y-43299122D02*
X110003771Y-42918170D01*
X103027580Y-41061027D02*
X102027580Y-41394360D01*
X102027580Y-41394360D02*
X103027580Y-41727693D01*
X102027580Y-42061027D02*
X102694247Y-42061027D01*
X103027580Y-42061027D02*
X102979961Y-42013408D01*
X102979961Y-42013408D02*
X102932342Y-42061027D01*
X102932342Y-42061027D02*
X102979961Y-42108646D01*
X102979961Y-42108646D02*
X103027580Y-42061027D01*
X103027580Y-42061027D02*
X102932342Y-42061027D01*
X102694247Y-42537217D02*
X102027580Y-42537217D01*
X102599009Y-42537217D02*
X102646628Y-42584836D01*
X102646628Y-42584836D02*
X102694247Y-42680074D01*
X102694247Y-42680074D02*
X102694247Y-42822931D01*
X102694247Y-42822931D02*
X102646628Y-42918169D01*
X102646628Y-42918169D02*
X102551390Y-42965788D01*
X102551390Y-42965788D02*
X102027580Y-42965788D01*
X107879961Y-41727693D02*
X107927580Y-41632455D01*
X107927580Y-41632455D02*
X107927580Y-41489598D01*
X107927580Y-41489598D02*
X107879961Y-41346741D01*
X107879961Y-41346741D02*
X107784723Y-41251503D01*
X107784723Y-41251503D02*
X107689485Y-41203884D01*
X107689485Y-41203884D02*
X107499009Y-41156265D01*
X107499009Y-41156265D02*
X107356152Y-41156265D01*
X107356152Y-41156265D02*
X107165676Y-41203884D01*
X107165676Y-41203884D02*
X107070438Y-41251503D01*
X107070438Y-41251503D02*
X106975200Y-41346741D01*
X106975200Y-41346741D02*
X106927580Y-41489598D01*
X106927580Y-41489598D02*
X106927580Y-41584836D01*
X106927580Y-41584836D02*
X106975200Y-41727693D01*
X106975200Y-41727693D02*
X107022819Y-41775312D01*
X107022819Y-41775312D02*
X107356152Y-41775312D01*
X107356152Y-41775312D02*
X107356152Y-41584836D01*
X106927580Y-42203884D02*
X107927580Y-42203884D01*
X107927580Y-42203884D02*
X106927580Y-42775312D01*
X106927580Y-42775312D02*
X107927580Y-42775312D01*
X106927580Y-43251503D02*
X107927580Y-43251503D01*
X107927580Y-43251503D02*
X107927580Y-43489598D01*
X107927580Y-43489598D02*
X107879961Y-43632455D01*
X107879961Y-43632455D02*
X107784723Y-43727693D01*
X107784723Y-43727693D02*
X107689485Y-43775312D01*
X107689485Y-43775312D02*
X107499009Y-43822931D01*
X107499009Y-43822931D02*
X107356152Y-43822931D01*
X107356152Y-43822931D02*
X107165676Y-43775312D01*
X107165676Y-43775312D02*
X107070438Y-43727693D01*
X107070438Y-43727693D02*
X106975200Y-43632455D01*
X106975200Y-43632455D02*
X106927580Y-43489598D01*
X106927580Y-43489598D02*
X106927580Y-43251503D01*
D12*
X83880952Y-84731009D02*
X84023809Y-84778628D01*
X84023809Y-84778628D02*
X84071428Y-84826247D01*
X84071428Y-84826247D02*
X84119047Y-84921485D01*
X84119047Y-84921485D02*
X84119047Y-85064342D01*
X84119047Y-85064342D02*
X84071428Y-85159580D01*
X84071428Y-85159580D02*
X84023809Y-85207200D01*
X84023809Y-85207200D02*
X83928571Y-85254819D01*
X83928571Y-85254819D02*
X83547619Y-85254819D01*
X83547619Y-85254819D02*
X83547619Y-84254819D01*
X83547619Y-84254819D02*
X83880952Y-84254819D01*
X83880952Y-84254819D02*
X83976190Y-84302438D01*
X83976190Y-84302438D02*
X84023809Y-84350057D01*
X84023809Y-84350057D02*
X84071428Y-84445295D01*
X84071428Y-84445295D02*
X84071428Y-84540533D01*
X84071428Y-84540533D02*
X84023809Y-84635771D01*
X84023809Y-84635771D02*
X83976190Y-84683390D01*
X83976190Y-84683390D02*
X83880952Y-84731009D01*
X83880952Y-84731009D02*
X83547619Y-84731009D01*
X84500000Y-84969104D02*
X84976190Y-84969104D01*
X84404762Y-85254819D02*
X84738095Y-84254819D01*
X84738095Y-84254819D02*
X85071428Y-85254819D01*
X85261905Y-84254819D02*
X85833333Y-84254819D01*
X85547619Y-85254819D02*
X85547619Y-84254819D01*
X86023810Y-84254819D02*
X86595238Y-84254819D01*
X86309524Y-85254819D02*
X86309524Y-84254819D01*
X68753333Y-50454819D02*
X68420000Y-49978628D01*
X68181905Y-50454819D02*
X68181905Y-49454819D01*
X68181905Y-49454819D02*
X68562857Y-49454819D01*
X68562857Y-49454819D02*
X68658095Y-49502438D01*
X68658095Y-49502438D02*
X68705714Y-49550057D01*
X68705714Y-49550057D02*
X68753333Y-49645295D01*
X68753333Y-49645295D02*
X68753333Y-49788152D01*
X68753333Y-49788152D02*
X68705714Y-49883390D01*
X68705714Y-49883390D02*
X68658095Y-49931009D01*
X68658095Y-49931009D02*
X68562857Y-49978628D01*
X68562857Y-49978628D02*
X68181905Y-49978628D01*
X69134286Y-49550057D02*
X69181905Y-49502438D01*
X69181905Y-49502438D02*
X69277143Y-49454819D01*
X69277143Y-49454819D02*
X69515238Y-49454819D01*
X69515238Y-49454819D02*
X69610476Y-49502438D01*
X69610476Y-49502438D02*
X69658095Y-49550057D01*
X69658095Y-49550057D02*
X69705714Y-49645295D01*
X69705714Y-49645295D02*
X69705714Y-49740533D01*
X69705714Y-49740533D02*
X69658095Y-49883390D01*
X69658095Y-49883390D02*
X69086667Y-50454819D01*
X69086667Y-50454819D02*
X69705714Y-50454819D01*
D10*
X105338095Y-59657419D02*
X105338095Y-60466942D01*
X105338095Y-60466942D02*
X105385714Y-60562180D01*
X105385714Y-60562180D02*
X105433333Y-60609800D01*
X105433333Y-60609800D02*
X105528571Y-60657419D01*
X105528571Y-60657419D02*
X105719047Y-60657419D01*
X105719047Y-60657419D02*
X105814285Y-60609800D01*
X105814285Y-60609800D02*
X105861904Y-60562180D01*
X105861904Y-60562180D02*
X105909523Y-60466942D01*
X105909523Y-60466942D02*
X105909523Y-59657419D01*
X106909523Y-60657419D02*
X106338095Y-60657419D01*
X106623809Y-60657419D02*
X106623809Y-59657419D01*
X106623809Y-59657419D02*
X106528571Y-59800276D01*
X106528571Y-59800276D02*
X106433333Y-59895514D01*
X106433333Y-59895514D02*
X106338095Y-59943133D01*
X110527580Y-63061027D02*
X109527580Y-63394360D01*
X109527580Y-63394360D02*
X110527580Y-63727693D01*
X109813295Y-64013408D02*
X109813295Y-64489598D01*
X109527580Y-63918170D02*
X110527580Y-64251503D01*
X110527580Y-64251503D02*
X109527580Y-64584836D01*
X109527580Y-65489598D02*
X110003771Y-65156265D01*
X109527580Y-64918170D02*
X110527580Y-64918170D01*
X110527580Y-64918170D02*
X110527580Y-65299122D01*
X110527580Y-65299122D02*
X110479961Y-65394360D01*
X110479961Y-65394360D02*
X110432342Y-65441979D01*
X110432342Y-65441979D02*
X110337104Y-65489598D01*
X110337104Y-65489598D02*
X110194247Y-65489598D01*
X110194247Y-65489598D02*
X110099009Y-65441979D01*
X110099009Y-65441979D02*
X110051390Y-65394360D01*
X110051390Y-65394360D02*
X110003771Y-65299122D01*
X110003771Y-65299122D02*
X110003771Y-64918170D01*
X107879961Y-63727693D02*
X107927580Y-63632455D01*
X107927580Y-63632455D02*
X107927580Y-63489598D01*
X107927580Y-63489598D02*
X107879961Y-63346741D01*
X107879961Y-63346741D02*
X107784723Y-63251503D01*
X107784723Y-63251503D02*
X107689485Y-63203884D01*
X107689485Y-63203884D02*
X107499009Y-63156265D01*
X107499009Y-63156265D02*
X107356152Y-63156265D01*
X107356152Y-63156265D02*
X107165676Y-63203884D01*
X107165676Y-63203884D02*
X107070438Y-63251503D01*
X107070438Y-63251503D02*
X106975200Y-63346741D01*
X106975200Y-63346741D02*
X106927580Y-63489598D01*
X106927580Y-63489598D02*
X106927580Y-63584836D01*
X106927580Y-63584836D02*
X106975200Y-63727693D01*
X106975200Y-63727693D02*
X107022819Y-63775312D01*
X107022819Y-63775312D02*
X107356152Y-63775312D01*
X107356152Y-63775312D02*
X107356152Y-63584836D01*
X106927580Y-64203884D02*
X107927580Y-64203884D01*
X107927580Y-64203884D02*
X106927580Y-64775312D01*
X106927580Y-64775312D02*
X107927580Y-64775312D01*
X106927580Y-65251503D02*
X107927580Y-65251503D01*
X107927580Y-65251503D02*
X107927580Y-65489598D01*
X107927580Y-65489598D02*
X107879961Y-65632455D01*
X107879961Y-65632455D02*
X107784723Y-65727693D01*
X107784723Y-65727693D02*
X107689485Y-65775312D01*
X107689485Y-65775312D02*
X107499009Y-65822931D01*
X107499009Y-65822931D02*
X107356152Y-65822931D01*
X107356152Y-65822931D02*
X107165676Y-65775312D01*
X107165676Y-65775312D02*
X107070438Y-65727693D01*
X107070438Y-65727693D02*
X106975200Y-65632455D01*
X106975200Y-65632455D02*
X106927580Y-65489598D01*
X106927580Y-65489598D02*
X106927580Y-65251503D01*
X103027580Y-63061027D02*
X102027580Y-63394360D01*
X102027580Y-63394360D02*
X103027580Y-63727693D01*
X102027580Y-64061027D02*
X102694247Y-64061027D01*
X103027580Y-64061027D02*
X102979961Y-64013408D01*
X102979961Y-64013408D02*
X102932342Y-64061027D01*
X102932342Y-64061027D02*
X102979961Y-64108646D01*
X102979961Y-64108646D02*
X103027580Y-64061027D01*
X103027580Y-64061027D02*
X102932342Y-64061027D01*
X102694247Y-64537217D02*
X102027580Y-64537217D01*
X102599009Y-64537217D02*
X102646628Y-64584836D01*
X102646628Y-64584836D02*
X102694247Y-64680074D01*
X102694247Y-64680074D02*
X102694247Y-64822931D01*
X102694247Y-64822931D02*
X102646628Y-64918169D01*
X102646628Y-64918169D02*
X102551390Y-64965788D01*
X102551390Y-64965788D02*
X102027580Y-64965788D01*
X115427580Y-63061027D02*
X114427580Y-63394360D01*
X114427580Y-63394360D02*
X115427580Y-63727693D01*
X114427580Y-64203884D02*
X114475200Y-64108646D01*
X114475200Y-64108646D02*
X114522819Y-64061027D01*
X114522819Y-64061027D02*
X114618057Y-64013408D01*
X114618057Y-64013408D02*
X114903771Y-64013408D01*
X114903771Y-64013408D02*
X114999009Y-64061027D01*
X114999009Y-64061027D02*
X115046628Y-64108646D01*
X115046628Y-64108646D02*
X115094247Y-64203884D01*
X115094247Y-64203884D02*
X115094247Y-64346741D01*
X115094247Y-64346741D02*
X115046628Y-64441979D01*
X115046628Y-64441979D02*
X114999009Y-64489598D01*
X114999009Y-64489598D02*
X114903771Y-64537217D01*
X114903771Y-64537217D02*
X114618057Y-64537217D01*
X114618057Y-64537217D02*
X114522819Y-64489598D01*
X114522819Y-64489598D02*
X114475200Y-64441979D01*
X114475200Y-64441979D02*
X114427580Y-64346741D01*
X114427580Y-64346741D02*
X114427580Y-64203884D01*
X115094247Y-65394360D02*
X114427580Y-65394360D01*
X115094247Y-64965789D02*
X114570438Y-64965789D01*
X114570438Y-64965789D02*
X114475200Y-65013408D01*
X114475200Y-65013408D02*
X114427580Y-65108646D01*
X114427580Y-65108646D02*
X114427580Y-65251503D01*
X114427580Y-65251503D02*
X114475200Y-65346741D01*
X114475200Y-65346741D02*
X114522819Y-65394360D01*
X115094247Y-65727694D02*
X115094247Y-66108646D01*
X115427580Y-65870551D02*
X114570438Y-65870551D01*
X114570438Y-65870551D02*
X114475200Y-65918170D01*
X114475200Y-65918170D02*
X114427580Y-66013408D01*
X114427580Y-66013408D02*
X114427580Y-66108646D01*
X112927580Y-63061027D02*
X111927580Y-63394360D01*
X111927580Y-63394360D02*
X112927580Y-63727693D01*
X111927580Y-64203884D02*
X111975200Y-64108646D01*
X111975200Y-64108646D02*
X112022819Y-64061027D01*
X112022819Y-64061027D02*
X112118057Y-64013408D01*
X112118057Y-64013408D02*
X112403771Y-64013408D01*
X112403771Y-64013408D02*
X112499009Y-64061027D01*
X112499009Y-64061027D02*
X112546628Y-64108646D01*
X112546628Y-64108646D02*
X112594247Y-64203884D01*
X112594247Y-64203884D02*
X112594247Y-64346741D01*
X112594247Y-64346741D02*
X112546628Y-64441979D01*
X112546628Y-64441979D02*
X112499009Y-64489598D01*
X112499009Y-64489598D02*
X112403771Y-64537217D01*
X112403771Y-64537217D02*
X112118057Y-64537217D01*
X112118057Y-64537217D02*
X112022819Y-64489598D01*
X112022819Y-64489598D02*
X111975200Y-64441979D01*
X111975200Y-64441979D02*
X111927580Y-64346741D01*
X111927580Y-64346741D02*
X111927580Y-64203884D01*
X112594247Y-65394360D02*
X111927580Y-65394360D01*
X112594247Y-64965789D02*
X112070438Y-64965789D01*
X112070438Y-64965789D02*
X111975200Y-65013408D01*
X111975200Y-65013408D02*
X111927580Y-65108646D01*
X111927580Y-65108646D02*
X111927580Y-65251503D01*
X111927580Y-65251503D02*
X111975200Y-65346741D01*
X111975200Y-65346741D02*
X112022819Y-65394360D01*
X112594247Y-65727694D02*
X112594247Y-66108646D01*
X112927580Y-65870551D02*
X112070438Y-65870551D01*
X112070438Y-65870551D02*
X111975200Y-65918170D01*
X111975200Y-65918170D02*
X111927580Y-66013408D01*
X111927580Y-66013408D02*
X111927580Y-66108646D01*
X105479961Y-63727693D02*
X105527580Y-63632455D01*
X105527580Y-63632455D02*
X105527580Y-63489598D01*
X105527580Y-63489598D02*
X105479961Y-63346741D01*
X105479961Y-63346741D02*
X105384723Y-63251503D01*
X105384723Y-63251503D02*
X105289485Y-63203884D01*
X105289485Y-63203884D02*
X105099009Y-63156265D01*
X105099009Y-63156265D02*
X104956152Y-63156265D01*
X104956152Y-63156265D02*
X104765676Y-63203884D01*
X104765676Y-63203884D02*
X104670438Y-63251503D01*
X104670438Y-63251503D02*
X104575200Y-63346741D01*
X104575200Y-63346741D02*
X104527580Y-63489598D01*
X104527580Y-63489598D02*
X104527580Y-63584836D01*
X104527580Y-63584836D02*
X104575200Y-63727693D01*
X104575200Y-63727693D02*
X104622819Y-63775312D01*
X104622819Y-63775312D02*
X104956152Y-63775312D01*
X104956152Y-63775312D02*
X104956152Y-63584836D01*
X104527580Y-64203884D02*
X105527580Y-64203884D01*
X105527580Y-64203884D02*
X104527580Y-64775312D01*
X104527580Y-64775312D02*
X105527580Y-64775312D01*
X104527580Y-65251503D02*
X105527580Y-65251503D01*
X105527580Y-65251503D02*
X105527580Y-65489598D01*
X105527580Y-65489598D02*
X105479961Y-65632455D01*
X105479961Y-65632455D02*
X105384723Y-65727693D01*
X105384723Y-65727693D02*
X105289485Y-65775312D01*
X105289485Y-65775312D02*
X105099009Y-65822931D01*
X105099009Y-65822931D02*
X104956152Y-65822931D01*
X104956152Y-65822931D02*
X104765676Y-65775312D01*
X104765676Y-65775312D02*
X104670438Y-65727693D01*
X104670438Y-65727693D02*
X104575200Y-65632455D01*
X104575200Y-65632455D02*
X104527580Y-65489598D01*
X104527580Y-65489598D02*
X104527580Y-65251503D01*
X100527580Y-63061027D02*
X99527580Y-63394360D01*
X99527580Y-63394360D02*
X100527580Y-63727693D01*
X99527580Y-64061027D02*
X100194247Y-64061027D01*
X100527580Y-64061027D02*
X100479961Y-64013408D01*
X100479961Y-64013408D02*
X100432342Y-64061027D01*
X100432342Y-64061027D02*
X100479961Y-64108646D01*
X100479961Y-64108646D02*
X100527580Y-64061027D01*
X100527580Y-64061027D02*
X100432342Y-64061027D01*
X100194247Y-64537217D02*
X99527580Y-64537217D01*
X100099009Y-64537217D02*
X100146628Y-64584836D01*
X100146628Y-64584836D02*
X100194247Y-64680074D01*
X100194247Y-64680074D02*
X100194247Y-64822931D01*
X100194247Y-64822931D02*
X100146628Y-64918169D01*
X100146628Y-64918169D02*
X100051390Y-64965788D01*
X100051390Y-64965788D02*
X99527580Y-64965788D01*
D12*
X76194761Y-77040057D02*
X76099523Y-76992438D01*
X76099523Y-76992438D02*
X76004285Y-76897200D01*
X76004285Y-76897200D02*
X75861428Y-76754342D01*
X75861428Y-76754342D02*
X75766190Y-76706723D01*
X75766190Y-76706723D02*
X75670952Y-76706723D01*
X75718571Y-76944819D02*
X75623333Y-76897200D01*
X75623333Y-76897200D02*
X75528095Y-76801961D01*
X75528095Y-76801961D02*
X75480476Y-76611485D01*
X75480476Y-76611485D02*
X75480476Y-76278152D01*
X75480476Y-76278152D02*
X75528095Y-76087676D01*
X75528095Y-76087676D02*
X75623333Y-75992438D01*
X75623333Y-75992438D02*
X75718571Y-75944819D01*
X75718571Y-75944819D02*
X75909047Y-75944819D01*
X75909047Y-75944819D02*
X76004285Y-75992438D01*
X76004285Y-75992438D02*
X76099523Y-76087676D01*
X76099523Y-76087676D02*
X76147142Y-76278152D01*
X76147142Y-76278152D02*
X76147142Y-76611485D01*
X76147142Y-76611485D02*
X76099523Y-76801961D01*
X76099523Y-76801961D02*
X76004285Y-76897200D01*
X76004285Y-76897200D02*
X75909047Y-76944819D01*
X75909047Y-76944819D02*
X75718571Y-76944819D01*
X77099523Y-76944819D02*
X76528095Y-76944819D01*
X76813809Y-76944819D02*
X76813809Y-75944819D01*
X76813809Y-75944819D02*
X76718571Y-76087676D01*
X76718571Y-76087676D02*
X76623333Y-76182914D01*
X76623333Y-76182914D02*
X76528095Y-76230533D01*
X60454819Y-93690476D02*
X60454819Y-94166666D01*
X60454819Y-94166666D02*
X60931009Y-94214285D01*
X60931009Y-94214285D02*
X60883390Y-94166666D01*
X60883390Y-94166666D02*
X60835771Y-94071428D01*
X60835771Y-94071428D02*
X60835771Y-93833333D01*
X60835771Y-93833333D02*
X60883390Y-93738095D01*
X60883390Y-93738095D02*
X60931009Y-93690476D01*
X60931009Y-93690476D02*
X61026247Y-93642857D01*
X61026247Y-93642857D02*
X61264342Y-93642857D01*
X61264342Y-93642857D02*
X61359580Y-93690476D01*
X61359580Y-93690476D02*
X61407200Y-93738095D01*
X61407200Y-93738095D02*
X61454819Y-93833333D01*
X61454819Y-93833333D02*
X61454819Y-94071428D01*
X61454819Y-94071428D02*
X61407200Y-94166666D01*
X61407200Y-94166666D02*
X61359580Y-94214285D01*
X60454819Y-93357142D02*
X61454819Y-93023809D01*
X61454819Y-93023809D02*
X60454819Y-92690476D01*
X46904819Y-65226189D02*
X45904819Y-65226189D01*
X45904819Y-65226189D02*
X46619104Y-64892856D01*
X46619104Y-64892856D02*
X45904819Y-64559523D01*
X45904819Y-64559523D02*
X46904819Y-64559523D01*
X46904819Y-63654761D02*
X46381009Y-63654761D01*
X46381009Y-63654761D02*
X46285771Y-63702380D01*
X46285771Y-63702380D02*
X46238152Y-63797618D01*
X46238152Y-63797618D02*
X46238152Y-63988094D01*
X46238152Y-63988094D02*
X46285771Y-64083332D01*
X46857200Y-63654761D02*
X46904819Y-63749999D01*
X46904819Y-63749999D02*
X46904819Y-63988094D01*
X46904819Y-63988094D02*
X46857200Y-64083332D01*
X46857200Y-64083332D02*
X46761961Y-64130951D01*
X46761961Y-64130951D02*
X46666723Y-64130951D01*
X46666723Y-64130951D02*
X46571485Y-64083332D01*
X46571485Y-64083332D02*
X46523866Y-63988094D01*
X46523866Y-63988094D02*
X46523866Y-63749999D01*
X46523866Y-63749999D02*
X46476247Y-63654761D01*
X46904819Y-63178570D02*
X46238152Y-63178570D01*
X45904819Y-63178570D02*
X45952438Y-63226189D01*
X45952438Y-63226189D02*
X46000057Y-63178570D01*
X46000057Y-63178570D02*
X45952438Y-63130951D01*
X45952438Y-63130951D02*
X45904819Y-63178570D01*
X45904819Y-63178570D02*
X46000057Y-63178570D01*
X46238152Y-62702380D02*
X46904819Y-62702380D01*
X46333390Y-62702380D02*
X46285771Y-62654761D01*
X46285771Y-62654761D02*
X46238152Y-62559523D01*
X46238152Y-62559523D02*
X46238152Y-62416666D01*
X46238152Y-62416666D02*
X46285771Y-62321428D01*
X46285771Y-62321428D02*
X46381009Y-62273809D01*
X46381009Y-62273809D02*
X46904819Y-62273809D01*
X89380952Y-85254819D02*
X88809524Y-85254819D01*
X89095238Y-85254819D02*
X89095238Y-84254819D01*
X89095238Y-84254819D02*
X89000000Y-84397676D01*
X89000000Y-84397676D02*
X88904762Y-84492914D01*
X88904762Y-84492914D02*
X88809524Y-84540533D01*
X89761905Y-84350057D02*
X89809524Y-84302438D01*
X89809524Y-84302438D02*
X89904762Y-84254819D01*
X89904762Y-84254819D02*
X90142857Y-84254819D01*
X90142857Y-84254819D02*
X90238095Y-84302438D01*
X90238095Y-84302438D02*
X90285714Y-84350057D01*
X90285714Y-84350057D02*
X90333333Y-84445295D01*
X90333333Y-84445295D02*
X90333333Y-84540533D01*
X90333333Y-84540533D02*
X90285714Y-84683390D01*
X90285714Y-84683390D02*
X89714286Y-85254819D01*
X89714286Y-85254819D02*
X90333333Y-85254819D01*
X90619048Y-84254819D02*
X90952381Y-85254819D01*
X90952381Y-85254819D02*
X91285714Y-84254819D01*
D13*
%TO.C,C5*%
X120020354Y-56125000D02*
X121020354Y-56125000D01*
X120520354Y-55625000D02*
X120520354Y-56625000D01*
X125500000Y-53920000D02*
X125500000Y-64080000D01*
X125540000Y-53920000D02*
X125540000Y-64080000D01*
X125580000Y-53921000D02*
X125580000Y-64079000D01*
X125620000Y-53921000D02*
X125620000Y-64079000D01*
X125660000Y-53923000D02*
X125660000Y-64077000D01*
X125700000Y-53924000D02*
X125700000Y-64076000D01*
X125740000Y-53926000D02*
X125740000Y-64074000D01*
X125780000Y-53928000D02*
X125780000Y-64072000D01*
X125820000Y-53930000D02*
X125820000Y-64070000D01*
X125860000Y-53933000D02*
X125860000Y-64067000D01*
X125900000Y-53936000D02*
X125900000Y-64064000D01*
X125940000Y-53939000D02*
X125940000Y-64061000D01*
X125980000Y-53943000D02*
X125980000Y-64057000D01*
X126020000Y-53946000D02*
X126020000Y-64054000D01*
X126060000Y-53951000D02*
X126060000Y-64049000D01*
X126100000Y-53955000D02*
X126100000Y-64045000D01*
X126140000Y-53960000D02*
X126140000Y-64040000D01*
X126180000Y-53965000D02*
X126180000Y-64035000D01*
X126220000Y-53971000D02*
X126220000Y-64029000D01*
X126260000Y-53977000D02*
X126260000Y-64023000D01*
X126300000Y-53983000D02*
X126300000Y-64017000D01*
X126340000Y-53989000D02*
X126340000Y-64011000D01*
X126380000Y-53996000D02*
X126380000Y-64004000D01*
X126420000Y-54003000D02*
X126420000Y-63997000D01*
X126460000Y-54011000D02*
X126460000Y-63989000D01*
X126500000Y-54019000D02*
X126500000Y-63981000D01*
X126540000Y-54027000D02*
X126540000Y-63973000D01*
X126580000Y-54035000D02*
X126580000Y-63965000D01*
X126620000Y-54044000D02*
X126620000Y-63956000D01*
X126660000Y-54053000D02*
X126660000Y-63947000D01*
X126700000Y-54063000D02*
X126700000Y-63937000D01*
X126740000Y-54072000D02*
X126740000Y-63928000D01*
X126780000Y-54083000D02*
X126780000Y-57760000D01*
X126780000Y-60240000D02*
X126780000Y-63917000D01*
X126820000Y-54093000D02*
X126820000Y-57760000D01*
X126820000Y-60240000D02*
X126820000Y-63907000D01*
X126860000Y-54104000D02*
X126860000Y-57760000D01*
X126860000Y-60240000D02*
X126860000Y-63896000D01*
X126900000Y-54115000D02*
X126900000Y-57760000D01*
X126900000Y-60240000D02*
X126900000Y-63885000D01*
X126940000Y-54127000D02*
X126940000Y-57760000D01*
X126940000Y-60240000D02*
X126940000Y-63873000D01*
X126980000Y-54139000D02*
X126980000Y-57760000D01*
X126980000Y-60240000D02*
X126980000Y-63861000D01*
X127020000Y-54151000D02*
X127020000Y-57760000D01*
X127020000Y-60240000D02*
X127020000Y-63849000D01*
X127060000Y-54163000D02*
X127060000Y-57760000D01*
X127060000Y-60240000D02*
X127060000Y-63837000D01*
X127100000Y-54176000D02*
X127100000Y-57760000D01*
X127100000Y-60240000D02*
X127100000Y-63824000D01*
X127140000Y-54190000D02*
X127140000Y-57760000D01*
X127140000Y-60240000D02*
X127140000Y-63810000D01*
X127180000Y-54203000D02*
X127180000Y-57760000D01*
X127180000Y-60240000D02*
X127180000Y-63797000D01*
X127220000Y-54218000D02*
X127220000Y-57760000D01*
X127220000Y-60240000D02*
X127220000Y-63782000D01*
X127260000Y-54232000D02*
X127260000Y-57760000D01*
X127260000Y-60240000D02*
X127260000Y-63768000D01*
X127300000Y-54247000D02*
X127300000Y-57760000D01*
X127300000Y-60240000D02*
X127300000Y-63753000D01*
X127340000Y-54262000D02*
X127340000Y-57760000D01*
X127340000Y-60240000D02*
X127340000Y-63738000D01*
X127380000Y-54278000D02*
X127380000Y-57760000D01*
X127380000Y-60240000D02*
X127380000Y-63722000D01*
X127420000Y-54294000D02*
X127420000Y-57760000D01*
X127420000Y-60240000D02*
X127420000Y-63706000D01*
X127460000Y-54310000D02*
X127460000Y-57760000D01*
X127460000Y-60240000D02*
X127460000Y-63690000D01*
X127500000Y-54327000D02*
X127500000Y-57760000D01*
X127500000Y-60240000D02*
X127500000Y-63673000D01*
X127540000Y-54344000D02*
X127540000Y-57760000D01*
X127540000Y-60240000D02*
X127540000Y-63656000D01*
X127580000Y-54362000D02*
X127580000Y-57760000D01*
X127580000Y-60240000D02*
X127580000Y-63638000D01*
X127620000Y-54380000D02*
X127620000Y-57760000D01*
X127620000Y-60240000D02*
X127620000Y-63620000D01*
X127660000Y-54398000D02*
X127660000Y-57760000D01*
X127660000Y-60240000D02*
X127660000Y-63602000D01*
X127700000Y-54417000D02*
X127700000Y-57760000D01*
X127700000Y-60240000D02*
X127700000Y-63583000D01*
X127740000Y-54436000D02*
X127740000Y-57760000D01*
X127740000Y-60240000D02*
X127740000Y-63564000D01*
X127780000Y-54456000D02*
X127780000Y-57760000D01*
X127780000Y-60240000D02*
X127780000Y-63544000D01*
X127820000Y-54476000D02*
X127820000Y-57760000D01*
X127820000Y-60240000D02*
X127820000Y-63524000D01*
X127860000Y-54496000D02*
X127860000Y-57760000D01*
X127860000Y-60240000D02*
X127860000Y-63504000D01*
X127900000Y-54517000D02*
X127900000Y-57760000D01*
X127900000Y-60240000D02*
X127900000Y-63483000D01*
X127940000Y-54539000D02*
X127940000Y-57760000D01*
X127940000Y-60240000D02*
X127940000Y-63461000D01*
X127980000Y-54561000D02*
X127980000Y-57760000D01*
X127980000Y-60240000D02*
X127980000Y-63439000D01*
X128020000Y-54583000D02*
X128020000Y-57760000D01*
X128020000Y-60240000D02*
X128020000Y-63417000D01*
X128060000Y-54606000D02*
X128060000Y-57760000D01*
X128060000Y-60240000D02*
X128060000Y-63394000D01*
X128100000Y-54629000D02*
X128100000Y-57760000D01*
X128100000Y-60240000D02*
X128100000Y-63371000D01*
X128140000Y-54653000D02*
X128140000Y-57760000D01*
X128140000Y-60240000D02*
X128140000Y-63347000D01*
X128180000Y-54677000D02*
X128180000Y-57760000D01*
X128180000Y-60240000D02*
X128180000Y-63323000D01*
X128220000Y-54702000D02*
X128220000Y-57760000D01*
X128220000Y-60240000D02*
X128220000Y-63298000D01*
X128260000Y-54728000D02*
X128260000Y-57760000D01*
X128260000Y-60240000D02*
X128260000Y-63272000D01*
X128300000Y-54753000D02*
X128300000Y-57760000D01*
X128300000Y-60240000D02*
X128300000Y-63247000D01*
X128340000Y-54780000D02*
X128340000Y-57760000D01*
X128340000Y-60240000D02*
X128340000Y-63220000D01*
X128380000Y-54807000D02*
X128380000Y-57760000D01*
X128380000Y-60240000D02*
X128380000Y-63193000D01*
X128420000Y-54834000D02*
X128420000Y-57760000D01*
X128420000Y-60240000D02*
X128420000Y-63166000D01*
X128460000Y-54862000D02*
X128460000Y-57760000D01*
X128460000Y-60240000D02*
X128460000Y-63138000D01*
X128500000Y-54891000D02*
X128500000Y-57760000D01*
X128500000Y-60240000D02*
X128500000Y-63109000D01*
X128540000Y-54920000D02*
X128540000Y-57760000D01*
X128540000Y-60240000D02*
X128540000Y-63080000D01*
X128580000Y-54950000D02*
X128580000Y-57760000D01*
X128580000Y-60240000D02*
X128580000Y-63050000D01*
X128620000Y-54980000D02*
X128620000Y-57760000D01*
X128620000Y-60240000D02*
X128620000Y-63020000D01*
X128660000Y-55012000D02*
X128660000Y-57760000D01*
X128660000Y-60240000D02*
X128660000Y-62988000D01*
X128700000Y-55043000D02*
X128700000Y-57760000D01*
X128700000Y-60240000D02*
X128700000Y-62957000D01*
X128740000Y-55076000D02*
X128740000Y-57760000D01*
X128740000Y-60240000D02*
X128740000Y-62924000D01*
X128780000Y-55109000D02*
X128780000Y-57760000D01*
X128780000Y-60240000D02*
X128780000Y-62891000D01*
X128820000Y-55142000D02*
X128820000Y-57760000D01*
X128820000Y-60240000D02*
X128820000Y-62858000D01*
X128860000Y-55177000D02*
X128860000Y-57760000D01*
X128860000Y-60240000D02*
X128860000Y-62823000D01*
X128900000Y-55212000D02*
X128900000Y-57760000D01*
X128900000Y-60240000D02*
X128900000Y-62788000D01*
X128940000Y-55248000D02*
X128940000Y-57760000D01*
X128940000Y-60240000D02*
X128940000Y-62752000D01*
X128980000Y-55284000D02*
X128980000Y-57760000D01*
X128980000Y-60240000D02*
X128980000Y-62716000D01*
X129020000Y-55322000D02*
X129020000Y-57760000D01*
X129020000Y-60240000D02*
X129020000Y-62678000D01*
X129060000Y-55360000D02*
X129060000Y-57760000D01*
X129060000Y-60240000D02*
X129060000Y-62640000D01*
X129100000Y-55399000D02*
X129100000Y-57760000D01*
X129100000Y-60240000D02*
X129100000Y-62601000D01*
X129140000Y-55439000D02*
X129140000Y-57760000D01*
X129140000Y-60240000D02*
X129140000Y-62561000D01*
X129180000Y-55480000D02*
X129180000Y-57760000D01*
X129180000Y-60240000D02*
X129180000Y-62520000D01*
X129220000Y-55522000D02*
X129220000Y-57760000D01*
X129220000Y-60240000D02*
X129220000Y-62478000D01*
X129260000Y-55565000D02*
X129260000Y-62435000D01*
X129300000Y-55609000D02*
X129300000Y-62391000D01*
X129340000Y-55653000D02*
X129340000Y-62347000D01*
X129380000Y-55699000D02*
X129380000Y-62301000D01*
X129420000Y-55746000D02*
X129420000Y-62254000D01*
X129460000Y-55795000D02*
X129460000Y-62205000D01*
X129500000Y-55844000D02*
X129500000Y-62156000D01*
X129540000Y-55895000D02*
X129540000Y-62105000D01*
X129580000Y-55947000D02*
X129580000Y-62053000D01*
X129620000Y-56000000D02*
X129620000Y-62000000D01*
X129660000Y-56055000D02*
X129660000Y-61945000D01*
X129700000Y-56112000D02*
X129700000Y-61888000D01*
X129740000Y-56170000D02*
X129740000Y-61830000D01*
X129780000Y-56230000D02*
X129780000Y-61770000D01*
X129820000Y-56292000D02*
X129820000Y-61708000D01*
X129860000Y-56356000D02*
X129860000Y-61644000D01*
X129900000Y-56422000D02*
X129900000Y-61578000D01*
X129940000Y-56490000D02*
X129940000Y-61510000D01*
X129980000Y-56561000D02*
X129980000Y-61439000D01*
X130020000Y-56635000D02*
X130020000Y-61365000D01*
X130060000Y-56712000D02*
X130060000Y-61288000D01*
X130100000Y-56792000D02*
X130100000Y-61208000D01*
X130140000Y-56876000D02*
X130140000Y-61124000D01*
X130180000Y-56963000D02*
X130180000Y-61037000D01*
X130220000Y-57056000D02*
X130220000Y-60944000D01*
X130260000Y-57154000D02*
X130260000Y-60846000D01*
X130300000Y-57258000D02*
X130300000Y-60742000D01*
X130340000Y-57370000D02*
X130340000Y-60630000D01*
X130380000Y-57491000D02*
X130380000Y-60509000D01*
X130420000Y-57623000D02*
X130420000Y-60377000D01*
X130460000Y-57770000D02*
X130460000Y-60230000D01*
X130500000Y-57938000D02*
X130500000Y-60062000D01*
X130540000Y-58138000D02*
X130540000Y-59862000D01*
X130580000Y-58401000D02*
X130580000Y-59599000D01*
X130620000Y-59000000D02*
G75*
G02*
X120380000Y-59000000I-5120000J0D01*
G01*
X120380000Y-59000000D02*
G75*
G02*
X130620000Y-59000000I5120000J0D01*
G01*
%TO.C,5V*%
X93764000Y-82830000D02*
X93920000Y-82830000D01*
X96080000Y-82830000D02*
X96236000Y-82830000D01*
X93764484Y-82830000D02*
G75*
G02*
X93920000Y-79598563I1235516J1560000D01*
G01*
X93920000Y-82310961D02*
G75*
G02*
X93920000Y-80229039I1080000J1040961D01*
G01*
X96080000Y-79598563D02*
G75*
G02*
X96235516Y-82830000I-1080000J-1671437D01*
G01*
X96080000Y-80229039D02*
G75*
G02*
X96080000Y-82310961I-1080000J-1040961D01*
G01*
%TO.C,R6*%
X94000000Y-68460000D02*
X94000000Y-69230000D01*
X94000000Y-76540000D02*
X94000000Y-75770000D01*
X95370000Y-69230000D02*
X92630000Y-69230000D01*
X92630000Y-75770000D01*
X95370000Y-75770000D01*
X95370000Y-69230000D01*
%TO.C,C6*%
X120020354Y-67125000D02*
X121020354Y-67125000D01*
X120520354Y-66625000D02*
X120520354Y-67625000D01*
X125500000Y-64920000D02*
X125500000Y-75080000D01*
X125540000Y-64920000D02*
X125540000Y-75080000D01*
X125580000Y-64921000D02*
X125580000Y-75079000D01*
X125620000Y-64921000D02*
X125620000Y-75079000D01*
X125660000Y-64923000D02*
X125660000Y-75077000D01*
X125700000Y-64924000D02*
X125700000Y-75076000D01*
X125740000Y-64926000D02*
X125740000Y-75074000D01*
X125780000Y-64928000D02*
X125780000Y-75072000D01*
X125820000Y-64930000D02*
X125820000Y-75070000D01*
X125860000Y-64933000D02*
X125860000Y-75067000D01*
X125900000Y-64936000D02*
X125900000Y-75064000D01*
X125940000Y-64939000D02*
X125940000Y-75061000D01*
X125980000Y-64943000D02*
X125980000Y-75057000D01*
X126020000Y-64946000D02*
X126020000Y-75054000D01*
X126060000Y-64951000D02*
X126060000Y-75049000D01*
X126100000Y-64955000D02*
X126100000Y-75045000D01*
X126140000Y-64960000D02*
X126140000Y-75040000D01*
X126180000Y-64965000D02*
X126180000Y-75035000D01*
X126220000Y-64971000D02*
X126220000Y-75029000D01*
X126260000Y-64977000D02*
X126260000Y-75023000D01*
X126300000Y-64983000D02*
X126300000Y-75017000D01*
X126340000Y-64989000D02*
X126340000Y-75011000D01*
X126380000Y-64996000D02*
X126380000Y-75004000D01*
X126420000Y-65003000D02*
X126420000Y-74997000D01*
X126460000Y-65011000D02*
X126460000Y-74989000D01*
X126500000Y-65019000D02*
X126500000Y-74981000D01*
X126540000Y-65027000D02*
X126540000Y-74973000D01*
X126580000Y-65035000D02*
X126580000Y-74965000D01*
X126620000Y-65044000D02*
X126620000Y-74956000D01*
X126660000Y-65053000D02*
X126660000Y-74947000D01*
X126700000Y-65063000D02*
X126700000Y-74937000D01*
X126740000Y-65072000D02*
X126740000Y-74928000D01*
X126780000Y-65083000D02*
X126780000Y-68760000D01*
X126780000Y-71240000D02*
X126780000Y-74917000D01*
X126820000Y-65093000D02*
X126820000Y-68760000D01*
X126820000Y-71240000D02*
X126820000Y-74907000D01*
X126860000Y-65104000D02*
X126860000Y-68760000D01*
X126860000Y-71240000D02*
X126860000Y-74896000D01*
X126900000Y-65115000D02*
X126900000Y-68760000D01*
X126900000Y-71240000D02*
X126900000Y-74885000D01*
X126940000Y-65127000D02*
X126940000Y-68760000D01*
X126940000Y-71240000D02*
X126940000Y-74873000D01*
X126980000Y-65139000D02*
X126980000Y-68760000D01*
X126980000Y-71240000D02*
X126980000Y-74861000D01*
X127020000Y-65151000D02*
X127020000Y-68760000D01*
X127020000Y-71240000D02*
X127020000Y-74849000D01*
X127060000Y-65163000D02*
X127060000Y-68760000D01*
X127060000Y-71240000D02*
X127060000Y-74837000D01*
X127100000Y-65176000D02*
X127100000Y-68760000D01*
X127100000Y-71240000D02*
X127100000Y-74824000D01*
X127140000Y-65190000D02*
X127140000Y-68760000D01*
X127140000Y-71240000D02*
X127140000Y-74810000D01*
X127180000Y-65203000D02*
X127180000Y-68760000D01*
X127180000Y-71240000D02*
X127180000Y-74797000D01*
X127220000Y-65218000D02*
X127220000Y-68760000D01*
X127220000Y-71240000D02*
X127220000Y-74782000D01*
X127260000Y-65232000D02*
X127260000Y-68760000D01*
X127260000Y-71240000D02*
X127260000Y-74768000D01*
X127300000Y-65247000D02*
X127300000Y-68760000D01*
X127300000Y-71240000D02*
X127300000Y-74753000D01*
X127340000Y-65262000D02*
X127340000Y-68760000D01*
X127340000Y-71240000D02*
X127340000Y-74738000D01*
X127380000Y-65278000D02*
X127380000Y-68760000D01*
X127380000Y-71240000D02*
X127380000Y-74722000D01*
X127420000Y-65294000D02*
X127420000Y-68760000D01*
X127420000Y-71240000D02*
X127420000Y-74706000D01*
X127460000Y-65310000D02*
X127460000Y-68760000D01*
X127460000Y-71240000D02*
X127460000Y-74690000D01*
X127500000Y-65327000D02*
X127500000Y-68760000D01*
X127500000Y-71240000D02*
X127500000Y-74673000D01*
X127540000Y-65344000D02*
X127540000Y-68760000D01*
X127540000Y-71240000D02*
X127540000Y-74656000D01*
X127580000Y-65362000D02*
X127580000Y-68760000D01*
X127580000Y-71240000D02*
X127580000Y-74638000D01*
X127620000Y-65380000D02*
X127620000Y-68760000D01*
X127620000Y-71240000D02*
X127620000Y-74620000D01*
X127660000Y-65398000D02*
X127660000Y-68760000D01*
X127660000Y-71240000D02*
X127660000Y-74602000D01*
X127700000Y-65417000D02*
X127700000Y-68760000D01*
X127700000Y-71240000D02*
X127700000Y-74583000D01*
X127740000Y-65436000D02*
X127740000Y-68760000D01*
X127740000Y-71240000D02*
X127740000Y-74564000D01*
X127780000Y-65456000D02*
X127780000Y-68760000D01*
X127780000Y-71240000D02*
X127780000Y-74544000D01*
X127820000Y-65476000D02*
X127820000Y-68760000D01*
X127820000Y-71240000D02*
X127820000Y-74524000D01*
X127860000Y-65496000D02*
X127860000Y-68760000D01*
X127860000Y-71240000D02*
X127860000Y-74504000D01*
X127900000Y-65517000D02*
X127900000Y-68760000D01*
X127900000Y-71240000D02*
X127900000Y-74483000D01*
X127940000Y-65539000D02*
X127940000Y-68760000D01*
X127940000Y-71240000D02*
X127940000Y-74461000D01*
X127980000Y-65561000D02*
X127980000Y-68760000D01*
X127980000Y-71240000D02*
X127980000Y-74439000D01*
X128020000Y-65583000D02*
X128020000Y-68760000D01*
X128020000Y-71240000D02*
X128020000Y-74417000D01*
X128060000Y-65606000D02*
X128060000Y-68760000D01*
X128060000Y-71240000D02*
X128060000Y-74394000D01*
X128100000Y-65629000D02*
X128100000Y-68760000D01*
X128100000Y-71240000D02*
X128100000Y-74371000D01*
X128140000Y-65653000D02*
X128140000Y-68760000D01*
X128140000Y-71240000D02*
X128140000Y-74347000D01*
X128180000Y-65677000D02*
X128180000Y-68760000D01*
X128180000Y-71240000D02*
X128180000Y-74323000D01*
X128220000Y-65702000D02*
X128220000Y-68760000D01*
X128220000Y-71240000D02*
X128220000Y-74298000D01*
X128260000Y-65728000D02*
X128260000Y-68760000D01*
X128260000Y-71240000D02*
X128260000Y-74272000D01*
X128300000Y-65753000D02*
X128300000Y-68760000D01*
X128300000Y-71240000D02*
X128300000Y-74247000D01*
X128340000Y-65780000D02*
X128340000Y-68760000D01*
X128340000Y-71240000D02*
X128340000Y-74220000D01*
X128380000Y-65807000D02*
X128380000Y-68760000D01*
X128380000Y-71240000D02*
X128380000Y-74193000D01*
X128420000Y-65834000D02*
X128420000Y-68760000D01*
X128420000Y-71240000D02*
X128420000Y-74166000D01*
X128460000Y-65862000D02*
X128460000Y-68760000D01*
X128460000Y-71240000D02*
X128460000Y-74138000D01*
X128500000Y-65891000D02*
X128500000Y-68760000D01*
X128500000Y-71240000D02*
X128500000Y-74109000D01*
X128540000Y-65920000D02*
X128540000Y-68760000D01*
X128540000Y-71240000D02*
X128540000Y-74080000D01*
X128580000Y-65950000D02*
X128580000Y-68760000D01*
X128580000Y-71240000D02*
X128580000Y-74050000D01*
X128620000Y-65980000D02*
X128620000Y-68760000D01*
X128620000Y-71240000D02*
X128620000Y-74020000D01*
X128660000Y-66012000D02*
X128660000Y-68760000D01*
X128660000Y-71240000D02*
X128660000Y-73988000D01*
X128700000Y-66043000D02*
X128700000Y-68760000D01*
X128700000Y-71240000D02*
X128700000Y-73957000D01*
X128740000Y-66076000D02*
X128740000Y-68760000D01*
X128740000Y-71240000D02*
X128740000Y-73924000D01*
X128780000Y-66109000D02*
X128780000Y-68760000D01*
X128780000Y-71240000D02*
X128780000Y-73891000D01*
X128820000Y-66142000D02*
X128820000Y-68760000D01*
X128820000Y-71240000D02*
X128820000Y-73858000D01*
X128860000Y-66177000D02*
X128860000Y-68760000D01*
X128860000Y-71240000D02*
X128860000Y-73823000D01*
X128900000Y-66212000D02*
X128900000Y-68760000D01*
X128900000Y-71240000D02*
X128900000Y-73788000D01*
X128940000Y-66248000D02*
X128940000Y-68760000D01*
X128940000Y-71240000D02*
X128940000Y-73752000D01*
X128980000Y-66284000D02*
X128980000Y-68760000D01*
X128980000Y-71240000D02*
X128980000Y-73716000D01*
X129020000Y-66322000D02*
X129020000Y-68760000D01*
X129020000Y-71240000D02*
X129020000Y-73678000D01*
X129060000Y-66360000D02*
X129060000Y-68760000D01*
X129060000Y-71240000D02*
X129060000Y-73640000D01*
X129100000Y-66399000D02*
X129100000Y-68760000D01*
X129100000Y-71240000D02*
X129100000Y-73601000D01*
X129140000Y-66439000D02*
X129140000Y-68760000D01*
X129140000Y-71240000D02*
X129140000Y-73561000D01*
X129180000Y-66480000D02*
X129180000Y-68760000D01*
X129180000Y-71240000D02*
X129180000Y-73520000D01*
X129220000Y-66522000D02*
X129220000Y-68760000D01*
X129220000Y-71240000D02*
X129220000Y-73478000D01*
X129260000Y-66565000D02*
X129260000Y-73435000D01*
X129300000Y-66609000D02*
X129300000Y-73391000D01*
X129340000Y-66653000D02*
X129340000Y-73347000D01*
X129380000Y-66699000D02*
X129380000Y-73301000D01*
X129420000Y-66746000D02*
X129420000Y-73254000D01*
X129460000Y-66795000D02*
X129460000Y-73205000D01*
X129500000Y-66844000D02*
X129500000Y-73156000D01*
X129540000Y-66895000D02*
X129540000Y-73105000D01*
X129580000Y-66947000D02*
X129580000Y-73053000D01*
X129620000Y-67000000D02*
X129620000Y-73000000D01*
X129660000Y-67055000D02*
X129660000Y-72945000D01*
X129700000Y-67112000D02*
X129700000Y-72888000D01*
X129740000Y-67170000D02*
X129740000Y-72830000D01*
X129780000Y-67230000D02*
X129780000Y-72770000D01*
X129820000Y-67292000D02*
X129820000Y-72708000D01*
X129860000Y-67356000D02*
X129860000Y-72644000D01*
X129900000Y-67422000D02*
X129900000Y-72578000D01*
X129940000Y-67490000D02*
X129940000Y-72510000D01*
X129980000Y-67561000D02*
X129980000Y-72439000D01*
X130020000Y-67635000D02*
X130020000Y-72365000D01*
X130060000Y-67712000D02*
X130060000Y-72288000D01*
X130100000Y-67792000D02*
X130100000Y-72208000D01*
X130140000Y-67876000D02*
X130140000Y-72124000D01*
X130180000Y-67963000D02*
X130180000Y-72037000D01*
X130220000Y-68056000D02*
X130220000Y-71944000D01*
X130260000Y-68154000D02*
X130260000Y-71846000D01*
X130300000Y-68258000D02*
X130300000Y-71742000D01*
X130340000Y-68370000D02*
X130340000Y-71630000D01*
X130380000Y-68491000D02*
X130380000Y-71509000D01*
X130420000Y-68623000D02*
X130420000Y-71377000D01*
X130460000Y-68770000D02*
X130460000Y-71230000D01*
X130500000Y-68938000D02*
X130500000Y-71062000D01*
X130540000Y-69138000D02*
X130540000Y-70862000D01*
X130580000Y-69401000D02*
X130580000Y-70599000D01*
X130620000Y-70000000D02*
G75*
G02*
X120380000Y-70000000I-5120000J0D01*
G01*
X120380000Y-70000000D02*
G75*
G02*
X130620000Y-70000000I5120000J0D01*
G01*
%TO.C,12V*%
X52290000Y-88290000D02*
X57710000Y-88290000D01*
X52290000Y-97010000D02*
X52290000Y-88290000D01*
X53590000Y-98710000D02*
X52290000Y-97010000D01*
X53590000Y-98710000D02*
X56410000Y-98710000D01*
X56410000Y-98710000D02*
X57710000Y-97010000D01*
X57710000Y-97010000D02*
X57710000Y-88290000D01*
%TO.C,LED*%
X47250000Y-76600000D02*
X47250000Y-77850000D01*
X47250000Y-77850000D02*
X48500000Y-77850000D01*
X49800000Y-69950000D02*
X49800000Y-70700000D01*
X49800000Y-70700000D02*
X52750000Y-70700000D01*
X49800000Y-76800000D02*
X52750000Y-76800000D01*
X49800000Y-77550000D02*
X49800000Y-76800000D01*
X52750000Y-70700000D02*
X52750000Y-73750000D01*
X52750000Y-76800000D02*
X52750000Y-73750000D01*
X47540000Y-77560000D02*
X53510000Y-77560000D01*
X53510000Y-69940000D01*
X47540000Y-69940000D01*
X47540000Y-77560000D01*
X47550000Y-71750000D02*
X48300000Y-71750000D01*
X48300000Y-69950000D01*
X47550000Y-69950000D01*
X47550000Y-71750000D01*
X47550000Y-74250000D02*
X48300000Y-74250000D01*
X48300000Y-73250000D01*
X47550000Y-73250000D01*
X47550000Y-74250000D01*
X47550000Y-77550000D02*
X48300000Y-77550000D01*
X48300000Y-75750000D01*
X47550000Y-75750000D01*
X47550000Y-77550000D01*
%TO.C,J1*%
X43540000Y-38540000D02*
X57850000Y-38540000D01*
X43540000Y-54260000D02*
X43540000Y-38540000D01*
X43540000Y-54260000D02*
X57850000Y-54260000D01*
X61960000Y-47690000D02*
X61960000Y-43950000D01*
X57850000Y-38540000D02*
G75*
G02*
X61780413Y-41448352I0J-4110000D01*
G01*
X61372958Y-52266806D02*
G75*
G02*
X57850000Y-54260000I-3522957J2116805D01*
G01*
%TO.C,R3*%
X82000000Y-68460000D02*
X82000000Y-69230000D01*
X82000000Y-76540000D02*
X82000000Y-75770000D01*
X83370000Y-69230000D02*
X80630000Y-69230000D01*
X80630000Y-75770000D01*
X83370000Y-75770000D01*
X83370000Y-69230000D01*
%TO.C,C1*%
X84560000Y-41070000D02*
X78258000Y-41070000D01*
X84560000Y-41110000D02*
X78271000Y-41110000D01*
X84560000Y-41150000D02*
X78283000Y-41150000D01*
X84560000Y-41190000D02*
X78295000Y-41190000D01*
X84560000Y-41230000D02*
X78308000Y-41230000D01*
X84560000Y-41270000D02*
X78321000Y-41270000D01*
X84560000Y-41310000D02*
X78334000Y-41310000D01*
X84560000Y-41350000D02*
X78348000Y-41350000D01*
X84560000Y-41390000D02*
X78361000Y-41390000D01*
X84560000Y-41430000D02*
X78375000Y-41430000D01*
X84560000Y-41470000D02*
X78389000Y-41470000D01*
X84560000Y-41510000D02*
X78403000Y-41510000D01*
X84560000Y-41550000D02*
X78418000Y-41550000D01*
X84560000Y-41590000D02*
X78433000Y-41590000D01*
X84560000Y-41630000D02*
X78448000Y-41630000D01*
X84560000Y-41670000D02*
X78463000Y-41670000D01*
X84560000Y-41710000D02*
X78479000Y-41710000D01*
X84560000Y-41750000D02*
X78495000Y-41750000D01*
X84560000Y-41790000D02*
X78511000Y-41790000D01*
X84560000Y-41830000D02*
X78527000Y-41830000D01*
X84560000Y-41870000D02*
X78543000Y-41870000D01*
X84560000Y-41910000D02*
X78560000Y-41910000D01*
X84560000Y-41950000D02*
X78577000Y-41950000D01*
X84560000Y-41990000D02*
X78594000Y-41990000D01*
X84560000Y-42030000D02*
X78612000Y-42030000D01*
X84560000Y-42070000D02*
X78630000Y-42070000D01*
X84560000Y-42110000D02*
X78648000Y-42110000D01*
X84560000Y-42150000D02*
X78666000Y-42150000D01*
X84560000Y-42190000D02*
X78685000Y-42190000D01*
X84560000Y-42230000D02*
X78704000Y-42230000D01*
X84560000Y-42270000D02*
X78723000Y-42270000D01*
X84560000Y-42310000D02*
X78742000Y-42310000D01*
X84560000Y-42350000D02*
X78762000Y-42350000D01*
X84560000Y-42390000D02*
X78782000Y-42390000D01*
X84560000Y-42430000D02*
X78802000Y-42430000D01*
X84560000Y-42470000D02*
X78822000Y-42470000D01*
X84560000Y-42510000D02*
X78843000Y-42510000D01*
X84560000Y-42550000D02*
X78864000Y-42550000D01*
X84560000Y-42590000D02*
X78885000Y-42590000D01*
X84560000Y-42630000D02*
X78907000Y-42630000D01*
X84560000Y-42670000D02*
X78929000Y-42670000D01*
X84560000Y-42710000D02*
X78951000Y-42710000D01*
X84560000Y-42750000D02*
X78974000Y-42750000D01*
X84560000Y-42790000D02*
X78996000Y-42790000D01*
X84560000Y-42830000D02*
X79019000Y-42830000D01*
X84560000Y-42870000D02*
X79043000Y-42870000D01*
X84560000Y-42910000D02*
X79067000Y-42910000D01*
X84560000Y-42950000D02*
X79091000Y-42950000D01*
X84560000Y-42990000D02*
X79115000Y-42990000D01*
X84560000Y-43030000D02*
X79140000Y-43030000D01*
X84560000Y-43070000D02*
X79165000Y-43070000D01*
X84560000Y-43110000D02*
X79190000Y-43110000D01*
X84560000Y-43150000D02*
X79215000Y-43150000D01*
X84560000Y-43190000D02*
X79241000Y-43190000D01*
X84560000Y-43230000D02*
X79268000Y-43230000D01*
X84560000Y-43270000D02*
X79294000Y-43270000D01*
X84560000Y-43310000D02*
X79321000Y-43310000D01*
X84560000Y-43350000D02*
X79349000Y-43350000D01*
X84560000Y-43390000D02*
X79376000Y-43390000D01*
X84560000Y-43430000D02*
X79404000Y-43430000D01*
X84560000Y-43470000D02*
X79433000Y-43470000D01*
X84560000Y-43510000D02*
X79461000Y-43510000D01*
X84560000Y-43550000D02*
X79491000Y-43550000D01*
X84560000Y-43590000D02*
X79520000Y-43590000D01*
X84560000Y-43630000D02*
X79550000Y-43630000D01*
X84560000Y-43670000D02*
X79580000Y-43670000D01*
X84560000Y-43710000D02*
X79611000Y-43710000D01*
X84560000Y-43750000D02*
X79642000Y-43750000D01*
X84560000Y-43790000D02*
X79673000Y-43790000D01*
X84560000Y-43830000D02*
X79705000Y-43830000D01*
X84560000Y-43870000D02*
X79738000Y-43870000D01*
X84560000Y-43910000D02*
X79770000Y-43910000D01*
X86765000Y-46830000D02*
X85235000Y-46830000D01*
X87097000Y-46790000D02*
X84903000Y-46790000D01*
X87351000Y-46750000D02*
X84649000Y-46750000D01*
X87564000Y-46710000D02*
X84436000Y-46710000D01*
X87751000Y-46670000D02*
X84249000Y-46670000D01*
X87920000Y-46630000D02*
X84080000Y-46630000D01*
X88074000Y-46590000D02*
X83926000Y-46590000D01*
X88217000Y-46550000D02*
X83783000Y-46550000D01*
X88351000Y-46510000D02*
X83649000Y-46510000D01*
X88477000Y-46470000D02*
X83523000Y-46470000D01*
X88597000Y-46430000D02*
X83403000Y-46430000D01*
X88710000Y-46390000D02*
X83290000Y-46390000D01*
X88819000Y-46350000D02*
X83181000Y-46350000D01*
X88923000Y-46310000D02*
X83077000Y-46310000D01*
X89023000Y-46270000D02*
X82977000Y-46270000D01*
X89120000Y-46230000D02*
X82880000Y-46230000D01*
X89213000Y-46190000D02*
X82787000Y-46190000D01*
X89303000Y-46150000D02*
X82697000Y-46150000D01*
X89390000Y-46110000D02*
X82610000Y-46110000D01*
X89475000Y-46070000D02*
X82525000Y-46070000D01*
X89557000Y-46030000D02*
X82443000Y-46030000D01*
X89637000Y-45990000D02*
X82363000Y-45990000D01*
X89714000Y-45950000D02*
X82286000Y-45950000D01*
X89790000Y-45910000D02*
X82210000Y-45910000D01*
X89864000Y-45870000D02*
X82136000Y-45870000D01*
X89936000Y-45830000D02*
X82064000Y-45830000D01*
X90006000Y-45790000D02*
X81994000Y-45790000D01*
X90075000Y-45750000D02*
X81925000Y-45750000D01*
X90142000Y-45710000D02*
X81858000Y-45710000D01*
X90208000Y-45670000D02*
X81792000Y-45670000D01*
X90273000Y-45630000D02*
X81727000Y-45630000D01*
X90336000Y-45590000D02*
X81664000Y-45590000D01*
X90398000Y-45550000D02*
X81602000Y-45550000D01*
X90459000Y-45510000D02*
X81541000Y-45510000D01*
X90518000Y-45470000D02*
X81482000Y-45470000D01*
X90555000Y-30060509D02*
X90555000Y-31660509D01*
X90576000Y-45430000D02*
X81424000Y-45430000D01*
X90634000Y-45390000D02*
X81366000Y-45390000D01*
X90690000Y-45350000D02*
X81310000Y-45350000D01*
X90745000Y-45310000D02*
X81255000Y-45310000D01*
X90800000Y-45270000D02*
X81200000Y-45270000D01*
X90853000Y-45230000D02*
X81147000Y-45230000D01*
X90906000Y-45190000D02*
X81094000Y-45190000D01*
X90957000Y-45150000D02*
X81043000Y-45150000D01*
X91008000Y-45110000D02*
X80992000Y-45110000D01*
X91058000Y-45070000D02*
X80942000Y-45070000D01*
X91107000Y-45030000D02*
X80893000Y-45030000D01*
X91156000Y-44990000D02*
X80844000Y-44990000D01*
X91204000Y-44950000D02*
X80796000Y-44950000D01*
X91250000Y-44910000D02*
X80750000Y-44910000D01*
X91297000Y-44870000D02*
X80703000Y-44870000D01*
X91342000Y-44830000D02*
X80658000Y-44830000D01*
X91355000Y-30860509D02*
X89755000Y-30860509D01*
X91387000Y-44790000D02*
X80613000Y-44790000D01*
X91431000Y-44750000D02*
X80569000Y-44750000D01*
X91475000Y-44710000D02*
X80525000Y-44710000D01*
X91518000Y-44670000D02*
X80482000Y-44670000D01*
X91560000Y-44630000D02*
X80440000Y-44630000D01*
X91602000Y-44590000D02*
X80398000Y-44590000D01*
X91643000Y-44550000D02*
X80357000Y-44550000D01*
X91683000Y-44510000D02*
X80317000Y-44510000D01*
X91723000Y-44470000D02*
X80277000Y-44470000D01*
X91763000Y-44430000D02*
X80237000Y-44430000D01*
X91802000Y-44390000D02*
X80198000Y-44390000D01*
X91840000Y-44350000D02*
X80160000Y-44350000D01*
X91878000Y-44310000D02*
X80122000Y-44310000D01*
X91915000Y-44270000D02*
X80085000Y-44270000D01*
X91952000Y-44230000D02*
X80048000Y-44230000D01*
X91988000Y-44190000D02*
X80012000Y-44190000D01*
X92024000Y-44150000D02*
X79976000Y-44150000D01*
X92060000Y-44110000D02*
X79940000Y-44110000D01*
X92094000Y-44070000D02*
X79906000Y-44070000D01*
X92129000Y-44030000D02*
X79871000Y-44030000D01*
X92163000Y-43990000D02*
X79837000Y-43990000D01*
X92197000Y-43950000D02*
X79803000Y-43950000D01*
X92230000Y-43910000D02*
X87440000Y-43910000D01*
X92262000Y-43870000D02*
X87440000Y-43870000D01*
X92295000Y-43830000D02*
X87440000Y-43830000D01*
X92327000Y-43790000D02*
X87440000Y-43790000D01*
X92358000Y-43750000D02*
X87440000Y-43750000D01*
X92389000Y-43710000D02*
X87440000Y-43710000D01*
X92420000Y-43670000D02*
X87440000Y-43670000D01*
X92450000Y-43630000D02*
X87440000Y-43630000D01*
X92480000Y-43590000D02*
X87440000Y-43590000D01*
X92509000Y-43550000D02*
X87440000Y-43550000D01*
X92539000Y-43510000D02*
X87440000Y-43510000D01*
X92567000Y-43470000D02*
X87440000Y-43470000D01*
X92596000Y-43430000D02*
X87440000Y-43430000D01*
X92624000Y-43390000D02*
X87440000Y-43390000D01*
X92651000Y-43350000D02*
X87440000Y-43350000D01*
X92679000Y-43310000D02*
X87440000Y-43310000D01*
X92706000Y-43270000D02*
X87440000Y-43270000D01*
X92732000Y-43230000D02*
X87440000Y-43230000D01*
X92759000Y-43190000D02*
X87440000Y-43190000D01*
X92785000Y-43150000D02*
X87440000Y-43150000D01*
X92810000Y-43110000D02*
X87440000Y-43110000D01*
X92835000Y-43070000D02*
X87440000Y-43070000D01*
X92860000Y-43030000D02*
X87440000Y-43030000D01*
X92885000Y-42990000D02*
X87440000Y-42990000D01*
X92909000Y-42950000D02*
X87440000Y-42950000D01*
X92933000Y-42910000D02*
X87440000Y-42910000D01*
X92957000Y-42870000D02*
X87440000Y-42870000D01*
X92981000Y-42830000D02*
X87440000Y-42830000D01*
X93004000Y-42790000D02*
X87440000Y-42790000D01*
X93026000Y-42750000D02*
X87440000Y-42750000D01*
X93049000Y-42710000D02*
X87440000Y-42710000D01*
X93071000Y-42670000D02*
X87440000Y-42670000D01*
X93093000Y-42630000D02*
X87440000Y-42630000D01*
X93115000Y-42590000D02*
X87440000Y-42590000D01*
X93136000Y-42550000D02*
X87440000Y-42550000D01*
X93157000Y-42510000D02*
X87440000Y-42510000D01*
X93178000Y-42470000D02*
X87440000Y-42470000D01*
X93198000Y-42430000D02*
X87440000Y-42430000D01*
X93218000Y-42390000D02*
X87440000Y-42390000D01*
X93238000Y-42350000D02*
X87440000Y-42350000D01*
X93258000Y-42310000D02*
X87440000Y-42310000D01*
X93277000Y-42270000D02*
X87440000Y-42270000D01*
X93296000Y-42230000D02*
X87440000Y-42230000D01*
X93315000Y-42190000D02*
X87440000Y-42190000D01*
X93334000Y-42150000D02*
X87440000Y-42150000D01*
X93352000Y-42110000D02*
X87440000Y-42110000D01*
X93370000Y-42070000D02*
X87440000Y-42070000D01*
X93388000Y-42030000D02*
X87440000Y-42030000D01*
X93406000Y-41990000D02*
X87440000Y-41990000D01*
X93423000Y-41950000D02*
X87440000Y-41950000D01*
X93440000Y-41910000D02*
X87440000Y-41910000D01*
X93457000Y-41870000D02*
X87440000Y-41870000D01*
X93473000Y-41830000D02*
X87440000Y-41830000D01*
X93489000Y-41790000D02*
X87440000Y-41790000D01*
X93505000Y-41750000D02*
X87440000Y-41750000D01*
X93521000Y-41710000D02*
X87440000Y-41710000D01*
X93537000Y-41670000D02*
X87440000Y-41670000D01*
X93552000Y-41630000D02*
X87440000Y-41630000D01*
X93567000Y-41590000D02*
X87440000Y-41590000D01*
X93582000Y-41550000D02*
X87440000Y-41550000D01*
X93597000Y-41510000D02*
X87440000Y-41510000D01*
X93611000Y-41470000D02*
X87440000Y-41470000D01*
X93625000Y-41430000D02*
X87440000Y-41430000D01*
X93639000Y-41390000D02*
X87440000Y-41390000D01*
X93652000Y-41350000D02*
X87440000Y-41350000D01*
X93666000Y-41310000D02*
X87440000Y-41310000D01*
X93679000Y-41270000D02*
X87440000Y-41270000D01*
X93692000Y-41230000D02*
X87440000Y-41230000D01*
X93705000Y-41190000D02*
X87440000Y-41190000D01*
X93717000Y-41150000D02*
X87440000Y-41150000D01*
X93729000Y-41110000D02*
X87440000Y-41110000D01*
X93742000Y-41070000D02*
X87440000Y-41070000D01*
X93753000Y-41030000D02*
X78247000Y-41030000D01*
X93765000Y-40990000D02*
X78235000Y-40990000D01*
X93776000Y-40950000D02*
X78224000Y-40950000D01*
X93787000Y-40910000D02*
X78213000Y-40910000D01*
X93798000Y-40870000D02*
X78202000Y-40870000D01*
X93809000Y-40830000D02*
X78191000Y-40830000D01*
X93820000Y-40790000D02*
X78180000Y-40790000D01*
X93830000Y-40750000D02*
X78170000Y-40750000D01*
X93840000Y-40710000D02*
X78160000Y-40710000D01*
X93850000Y-40670000D02*
X78150000Y-40670000D01*
X93859000Y-40630000D02*
X78141000Y-40630000D01*
X93869000Y-40590000D02*
X78131000Y-40590000D01*
X93878000Y-40550000D02*
X78122000Y-40550000D01*
X93887000Y-40510000D02*
X78113000Y-40510000D01*
X93896000Y-40470000D02*
X78104000Y-40470000D01*
X93904000Y-40430000D02*
X78096000Y-40430000D01*
X93913000Y-40390000D02*
X78087000Y-40390000D01*
X93921000Y-40350000D02*
X78079000Y-40350000D01*
X93929000Y-40310000D02*
X78071000Y-40310000D01*
X93936000Y-40270000D02*
X78064000Y-40270000D01*
X93944000Y-40230000D02*
X78056000Y-40230000D01*
X93951000Y-40190000D02*
X78049000Y-40190000D01*
X93958000Y-40150000D02*
X78042000Y-40150000D01*
X93965000Y-40110000D02*
X78035000Y-40110000D01*
X93972000Y-40070000D02*
X78028000Y-40070000D01*
X93978000Y-40030000D02*
X78022000Y-40030000D01*
X93985000Y-39990000D02*
X78015000Y-39990000D01*
X93991000Y-39950000D02*
X78009000Y-39950000D01*
X93997000Y-39910000D02*
X78003000Y-39910000D01*
X94002000Y-39870000D02*
X77998000Y-39870000D01*
X94008000Y-39830000D02*
X77992000Y-39830000D01*
X94013000Y-39790000D02*
X77987000Y-39790000D01*
X94018000Y-39750000D02*
X77982000Y-39750000D01*
X94023000Y-39710000D02*
X77977000Y-39710000D01*
X94028000Y-39670000D02*
X77972000Y-39670000D01*
X94032000Y-39630000D02*
X77968000Y-39630000D01*
X94036000Y-39590000D02*
X77964000Y-39590000D01*
X94040000Y-39550000D02*
X77960000Y-39550000D01*
X94044000Y-39510000D02*
X77956000Y-39510000D01*
X94048000Y-39470000D02*
X77952000Y-39470000D01*
X94051000Y-39430000D02*
X77949000Y-39430000D01*
X94055000Y-39390000D02*
X77945000Y-39390000D01*
X94058000Y-39350000D02*
X77942000Y-39350000D01*
X94061000Y-39310000D02*
X77939000Y-39310000D01*
X94063000Y-39270000D02*
X77937000Y-39270000D01*
X94066000Y-39230000D02*
X77934000Y-39230000D01*
X94068000Y-39190000D02*
X77932000Y-39190000D01*
X94070000Y-39150000D02*
X77930000Y-39150000D01*
X94072000Y-39110000D02*
X77928000Y-39110000D01*
X94074000Y-39070000D02*
X77926000Y-39070000D01*
X94075000Y-39030000D02*
X77925000Y-39030000D01*
X94076000Y-38990000D02*
X77924000Y-38990000D01*
X94078000Y-38910000D02*
X77922000Y-38910000D01*
X94078000Y-38950000D02*
X77922000Y-38950000D01*
X94079000Y-38870000D02*
X77921000Y-38870000D01*
X94080000Y-38750000D02*
X77920000Y-38750000D01*
X94080000Y-38790000D02*
X77920000Y-38790000D01*
X94080000Y-38830000D02*
X77920000Y-38830000D01*
X94120000Y-38750000D02*
G75*
G02*
X77880000Y-38750000I-8120000J0D01*
G01*
X77880000Y-38750000D02*
G75*
G02*
X94120000Y-38750000I8120000J0D01*
G01*
%TO.C,J2*%
X72290000Y-88290000D02*
X77710000Y-88290000D01*
X72290000Y-97010000D02*
X72290000Y-88290000D01*
X73590000Y-98710000D02*
X72290000Y-97010000D01*
X73590000Y-98710000D02*
X76410000Y-98710000D01*
X76410000Y-98710000D02*
X77710000Y-97010000D01*
X77710000Y-97010000D02*
X77710000Y-88290000D01*
%TO.C,Meter*%
X57250000Y-76600000D02*
X57250000Y-77850000D01*
X57250000Y-77850000D02*
X58500000Y-77850000D01*
X59800000Y-69950000D02*
X59800000Y-70700000D01*
X59800000Y-70700000D02*
X62750000Y-70700000D01*
X59800000Y-76800000D02*
X62750000Y-76800000D01*
X59800000Y-77550000D02*
X59800000Y-76800000D01*
X62750000Y-70700000D02*
X62750000Y-73750000D01*
X62750000Y-76800000D02*
X62750000Y-73750000D01*
X57540000Y-77560000D02*
X63510000Y-77560000D01*
X63510000Y-69940000D01*
X57540000Y-69940000D01*
X57540000Y-77560000D01*
X57550000Y-71750000D02*
X58300000Y-71750000D01*
X58300000Y-69950000D01*
X57550000Y-69950000D01*
X57550000Y-71750000D01*
X57550000Y-74250000D02*
X58300000Y-74250000D01*
X58300000Y-73250000D01*
X57550000Y-73250000D01*
X57550000Y-74250000D01*
X57550000Y-77550000D02*
X58300000Y-77550000D01*
X58300000Y-75750000D01*
X57550000Y-75750000D01*
X57550000Y-77550000D01*
%TO.C,J9*%
X92290000Y-88290000D02*
X97710000Y-88290000D01*
X92290000Y-97010000D02*
X92290000Y-88290000D01*
X93590000Y-98710000D02*
X92290000Y-97010000D01*
X93590000Y-98710000D02*
X96410000Y-98710000D01*
X96410000Y-98710000D02*
X97710000Y-97010000D01*
X97710000Y-97010000D02*
X97710000Y-88290000D01*
%TO.C,R1*%
X64880000Y-60000000D02*
X65650000Y-60000000D01*
X72960000Y-60000000D02*
X72190000Y-60000000D01*
X72190000Y-61370000D02*
X65650000Y-61370000D01*
X65650000Y-58630000D01*
X72190000Y-58630000D01*
X72190000Y-61370000D01*
%TO.C,U2*%
D10*
X95500000Y-31700000D02*
X119500000Y-31700000D01*
X119500000Y-52700000D01*
X95500000Y-52700000D01*
X95500000Y-31700000D01*
D13*
%TO.C,BATT*%
X83764000Y-82790000D02*
X83920000Y-82790000D01*
X86080000Y-82790000D02*
X86236000Y-82790000D01*
X83764484Y-82790000D02*
G75*
G02*
X83920000Y-79558563I1235516J1560000D01*
G01*
X83920000Y-82270961D02*
G75*
G02*
X83920000Y-80189039I1080000J1040961D01*
G01*
X86080000Y-79558563D02*
G75*
G02*
X86235516Y-82790000I-1080000J-1671437D01*
G01*
X86080000Y-80189039D02*
G75*
G02*
X86080000Y-82270961I-1080000J-1040961D01*
G01*
%TO.C,R2*%
X64880000Y-50000000D02*
X65650000Y-50000000D01*
X72960000Y-50000000D02*
X72190000Y-50000000D01*
X72190000Y-51370000D02*
X65650000Y-51370000D01*
X65650000Y-48630000D01*
X72190000Y-48630000D01*
X72190000Y-51370000D01*
%TO.C,C4*%
X84560000Y-59070000D02*
X78258000Y-59070000D01*
X84560000Y-59110000D02*
X78271000Y-59110000D01*
X84560000Y-59150000D02*
X78283000Y-59150000D01*
X84560000Y-59190000D02*
X78295000Y-59190000D01*
X84560000Y-59230000D02*
X78308000Y-59230000D01*
X84560000Y-59270000D02*
X78321000Y-59270000D01*
X84560000Y-59310000D02*
X78334000Y-59310000D01*
X84560000Y-59350000D02*
X78348000Y-59350000D01*
X84560000Y-59390000D02*
X78361000Y-59390000D01*
X84560000Y-59430000D02*
X78375000Y-59430000D01*
X84560000Y-59470000D02*
X78389000Y-59470000D01*
X84560000Y-59510000D02*
X78403000Y-59510000D01*
X84560000Y-59550000D02*
X78418000Y-59550000D01*
X84560000Y-59590000D02*
X78433000Y-59590000D01*
X84560000Y-59630000D02*
X78448000Y-59630000D01*
X84560000Y-59670000D02*
X78463000Y-59670000D01*
X84560000Y-59710000D02*
X78479000Y-59710000D01*
X84560000Y-59750000D02*
X78495000Y-59750000D01*
X84560000Y-59790000D02*
X78511000Y-59790000D01*
X84560000Y-59830000D02*
X78527000Y-59830000D01*
X84560000Y-59870000D02*
X78543000Y-59870000D01*
X84560000Y-59910000D02*
X78560000Y-59910000D01*
X84560000Y-59950000D02*
X78577000Y-59950000D01*
X84560000Y-59990000D02*
X78594000Y-59990000D01*
X84560000Y-60030000D02*
X78612000Y-60030000D01*
X84560000Y-60070000D02*
X78630000Y-60070000D01*
X84560000Y-60110000D02*
X78648000Y-60110000D01*
X84560000Y-60150000D02*
X78666000Y-60150000D01*
X84560000Y-60190000D02*
X78685000Y-60190000D01*
X84560000Y-60230000D02*
X78704000Y-60230000D01*
X84560000Y-60270000D02*
X78723000Y-60270000D01*
X84560000Y-60310000D02*
X78742000Y-60310000D01*
X84560000Y-60350000D02*
X78762000Y-60350000D01*
X84560000Y-60390000D02*
X78782000Y-60390000D01*
X84560000Y-60430000D02*
X78802000Y-60430000D01*
X84560000Y-60470000D02*
X78822000Y-60470000D01*
X84560000Y-60510000D02*
X78843000Y-60510000D01*
X84560000Y-60550000D02*
X78864000Y-60550000D01*
X84560000Y-60590000D02*
X78885000Y-60590000D01*
X84560000Y-60630000D02*
X78907000Y-60630000D01*
X84560000Y-60670000D02*
X78929000Y-60670000D01*
X84560000Y-60710000D02*
X78951000Y-60710000D01*
X84560000Y-60750000D02*
X78974000Y-60750000D01*
X84560000Y-60790000D02*
X78996000Y-60790000D01*
X84560000Y-60830000D02*
X79019000Y-60830000D01*
X84560000Y-60870000D02*
X79043000Y-60870000D01*
X84560000Y-60910000D02*
X79067000Y-60910000D01*
X84560000Y-60950000D02*
X79091000Y-60950000D01*
X84560000Y-60990000D02*
X79115000Y-60990000D01*
X84560000Y-61030000D02*
X79140000Y-61030000D01*
X84560000Y-61070000D02*
X79165000Y-61070000D01*
X84560000Y-61110000D02*
X79190000Y-61110000D01*
X84560000Y-61150000D02*
X79215000Y-61150000D01*
X84560000Y-61190000D02*
X79241000Y-61190000D01*
X84560000Y-61230000D02*
X79268000Y-61230000D01*
X84560000Y-61270000D02*
X79294000Y-61270000D01*
X84560000Y-61310000D02*
X79321000Y-61310000D01*
X84560000Y-61350000D02*
X79349000Y-61350000D01*
X84560000Y-61390000D02*
X79376000Y-61390000D01*
X84560000Y-61430000D02*
X79404000Y-61430000D01*
X84560000Y-61470000D02*
X79433000Y-61470000D01*
X84560000Y-61510000D02*
X79461000Y-61510000D01*
X84560000Y-61550000D02*
X79491000Y-61550000D01*
X84560000Y-61590000D02*
X79520000Y-61590000D01*
X84560000Y-61630000D02*
X79550000Y-61630000D01*
X84560000Y-61670000D02*
X79580000Y-61670000D01*
X84560000Y-61710000D02*
X79611000Y-61710000D01*
X84560000Y-61750000D02*
X79642000Y-61750000D01*
X84560000Y-61790000D02*
X79673000Y-61790000D01*
X84560000Y-61830000D02*
X79705000Y-61830000D01*
X84560000Y-61870000D02*
X79738000Y-61870000D01*
X84560000Y-61910000D02*
X79770000Y-61910000D01*
X86765000Y-64830000D02*
X85235000Y-64830000D01*
X87097000Y-64790000D02*
X84903000Y-64790000D01*
X87351000Y-64750000D02*
X84649000Y-64750000D01*
X87564000Y-64710000D02*
X84436000Y-64710000D01*
X87751000Y-64670000D02*
X84249000Y-64670000D01*
X87920000Y-64630000D02*
X84080000Y-64630000D01*
X88074000Y-64590000D02*
X83926000Y-64590000D01*
X88217000Y-64550000D02*
X83783000Y-64550000D01*
X88351000Y-64510000D02*
X83649000Y-64510000D01*
X88477000Y-64470000D02*
X83523000Y-64470000D01*
X88597000Y-64430000D02*
X83403000Y-64430000D01*
X88710000Y-64390000D02*
X83290000Y-64390000D01*
X88819000Y-64350000D02*
X83181000Y-64350000D01*
X88923000Y-64310000D02*
X83077000Y-64310000D01*
X89023000Y-64270000D02*
X82977000Y-64270000D01*
X89120000Y-64230000D02*
X82880000Y-64230000D01*
X89213000Y-64190000D02*
X82787000Y-64190000D01*
X89303000Y-64150000D02*
X82697000Y-64150000D01*
X89390000Y-64110000D02*
X82610000Y-64110000D01*
X89475000Y-64070000D02*
X82525000Y-64070000D01*
X89557000Y-64030000D02*
X82443000Y-64030000D01*
X89637000Y-63990000D02*
X82363000Y-63990000D01*
X89714000Y-63950000D02*
X82286000Y-63950000D01*
X89790000Y-63910000D02*
X82210000Y-63910000D01*
X89864000Y-63870000D02*
X82136000Y-63870000D01*
X89936000Y-63830000D02*
X82064000Y-63830000D01*
X90006000Y-63790000D02*
X81994000Y-63790000D01*
X90075000Y-63750000D02*
X81925000Y-63750000D01*
X90142000Y-63710000D02*
X81858000Y-63710000D01*
X90208000Y-63670000D02*
X81792000Y-63670000D01*
X90273000Y-63630000D02*
X81727000Y-63630000D01*
X90336000Y-63590000D02*
X81664000Y-63590000D01*
X90398000Y-63550000D02*
X81602000Y-63550000D01*
X90459000Y-63510000D02*
X81541000Y-63510000D01*
X90518000Y-63470000D02*
X81482000Y-63470000D01*
X90555000Y-48060509D02*
X90555000Y-49660509D01*
X90576000Y-63430000D02*
X81424000Y-63430000D01*
X90634000Y-63390000D02*
X81366000Y-63390000D01*
X90690000Y-63350000D02*
X81310000Y-63350000D01*
X90745000Y-63310000D02*
X81255000Y-63310000D01*
X90800000Y-63270000D02*
X81200000Y-63270000D01*
X90853000Y-63230000D02*
X81147000Y-63230000D01*
X90906000Y-63190000D02*
X81094000Y-63190000D01*
X90957000Y-63150000D02*
X81043000Y-63150000D01*
X91008000Y-63110000D02*
X80992000Y-63110000D01*
X91058000Y-63070000D02*
X80942000Y-63070000D01*
X91107000Y-63030000D02*
X80893000Y-63030000D01*
X91156000Y-62990000D02*
X80844000Y-62990000D01*
X91204000Y-62950000D02*
X80796000Y-62950000D01*
X91250000Y-62910000D02*
X80750000Y-62910000D01*
X91297000Y-62870000D02*
X80703000Y-62870000D01*
X91342000Y-62830000D02*
X80658000Y-62830000D01*
X91355000Y-48860509D02*
X89755000Y-48860509D01*
X91387000Y-62790000D02*
X80613000Y-62790000D01*
X91431000Y-62750000D02*
X80569000Y-62750000D01*
X91475000Y-62710000D02*
X80525000Y-62710000D01*
X91518000Y-62670000D02*
X80482000Y-62670000D01*
X91560000Y-62630000D02*
X80440000Y-62630000D01*
X91602000Y-62590000D02*
X80398000Y-62590000D01*
X91643000Y-62550000D02*
X80357000Y-62550000D01*
X91683000Y-62510000D02*
X80317000Y-62510000D01*
X91723000Y-62470000D02*
X80277000Y-62470000D01*
X91763000Y-62430000D02*
X80237000Y-62430000D01*
X91802000Y-62390000D02*
X80198000Y-62390000D01*
X91840000Y-62350000D02*
X80160000Y-62350000D01*
X91878000Y-62310000D02*
X80122000Y-62310000D01*
X91915000Y-62270000D02*
X80085000Y-62270000D01*
X91952000Y-62230000D02*
X80048000Y-62230000D01*
X91988000Y-62190000D02*
X80012000Y-62190000D01*
X92024000Y-62150000D02*
X79976000Y-62150000D01*
X92060000Y-62110000D02*
X79940000Y-62110000D01*
X92094000Y-62070000D02*
X79906000Y-62070000D01*
X92129000Y-62030000D02*
X79871000Y-62030000D01*
X92163000Y-61990000D02*
X79837000Y-61990000D01*
X92197000Y-61950000D02*
X79803000Y-61950000D01*
X92230000Y-61910000D02*
X87440000Y-61910000D01*
X92262000Y-61870000D02*
X87440000Y-61870000D01*
X92295000Y-61830000D02*
X87440000Y-61830000D01*
X92327000Y-61790000D02*
X87440000Y-61790000D01*
X92358000Y-61750000D02*
X87440000Y-61750000D01*
X92389000Y-61710000D02*
X87440000Y-61710000D01*
X92420000Y-61670000D02*
X87440000Y-61670000D01*
X92450000Y-61630000D02*
X87440000Y-61630000D01*
X92480000Y-61590000D02*
X87440000Y-61590000D01*
X92509000Y-61550000D02*
X87440000Y-61550000D01*
X92539000Y-61510000D02*
X87440000Y-61510000D01*
X92567000Y-61470000D02*
X87440000Y-61470000D01*
X92596000Y-61430000D02*
X87440000Y-61430000D01*
X92624000Y-61390000D02*
X87440000Y-61390000D01*
X92651000Y-61350000D02*
X87440000Y-61350000D01*
X92679000Y-61310000D02*
X87440000Y-61310000D01*
X92706000Y-61270000D02*
X87440000Y-61270000D01*
X92732000Y-61230000D02*
X87440000Y-61230000D01*
X92759000Y-61190000D02*
X87440000Y-61190000D01*
X92785000Y-61150000D02*
X87440000Y-61150000D01*
X92810000Y-61110000D02*
X87440000Y-61110000D01*
X92835000Y-61070000D02*
X87440000Y-61070000D01*
X92860000Y-61030000D02*
X87440000Y-61030000D01*
X92885000Y-60990000D02*
X87440000Y-60990000D01*
X92909000Y-60950000D02*
X87440000Y-60950000D01*
X92933000Y-60910000D02*
X87440000Y-60910000D01*
X92957000Y-60870000D02*
X87440000Y-60870000D01*
X92981000Y-60830000D02*
X87440000Y-60830000D01*
X93004000Y-60790000D02*
X87440000Y-60790000D01*
X93026000Y-60750000D02*
X87440000Y-60750000D01*
X93049000Y-60710000D02*
X87440000Y-60710000D01*
X93071000Y-60670000D02*
X87440000Y-60670000D01*
X93093000Y-60630000D02*
X87440000Y-60630000D01*
X93115000Y-60590000D02*
X87440000Y-60590000D01*
X93136000Y-60550000D02*
X87440000Y-60550000D01*
X93157000Y-60510000D02*
X87440000Y-60510000D01*
X93178000Y-60470000D02*
X87440000Y-60470000D01*
X93198000Y-60430000D02*
X87440000Y-60430000D01*
X93218000Y-60390000D02*
X87440000Y-60390000D01*
X93238000Y-60350000D02*
X87440000Y-60350000D01*
X93258000Y-60310000D02*
X87440000Y-60310000D01*
X93277000Y-60270000D02*
X87440000Y-60270000D01*
X93296000Y-60230000D02*
X87440000Y-60230000D01*
X93315000Y-60190000D02*
X87440000Y-60190000D01*
X93334000Y-60150000D02*
X87440000Y-60150000D01*
X93352000Y-60110000D02*
X87440000Y-60110000D01*
X93370000Y-60070000D02*
X87440000Y-60070000D01*
X93388000Y-60030000D02*
X87440000Y-60030000D01*
X93406000Y-59990000D02*
X87440000Y-59990000D01*
X93423000Y-59950000D02*
X87440000Y-59950000D01*
X93440000Y-59910000D02*
X87440000Y-59910000D01*
X93457000Y-59870000D02*
X87440000Y-59870000D01*
X93473000Y-59830000D02*
X87440000Y-59830000D01*
X93489000Y-59790000D02*
X87440000Y-59790000D01*
X93505000Y-59750000D02*
X87440000Y-59750000D01*
X93521000Y-59710000D02*
X87440000Y-59710000D01*
X93537000Y-59670000D02*
X87440000Y-59670000D01*
X93552000Y-59630000D02*
X87440000Y-59630000D01*
X93567000Y-59590000D02*
X87440000Y-59590000D01*
X93582000Y-59550000D02*
X87440000Y-59550000D01*
X93597000Y-59510000D02*
X87440000Y-59510000D01*
X93611000Y-59470000D02*
X87440000Y-59470000D01*
X93625000Y-59430000D02*
X87440000Y-59430000D01*
X93639000Y-59390000D02*
X87440000Y-59390000D01*
X93652000Y-59350000D02*
X87440000Y-59350000D01*
X93666000Y-59310000D02*
X87440000Y-59310000D01*
X93679000Y-59270000D02*
X87440000Y-59270000D01*
X93692000Y-59230000D02*
X87440000Y-59230000D01*
X93705000Y-59190000D02*
X87440000Y-59190000D01*
X93717000Y-59150000D02*
X87440000Y-59150000D01*
X93729000Y-59110000D02*
X87440000Y-59110000D01*
X93742000Y-59070000D02*
X87440000Y-59070000D01*
X93753000Y-59030000D02*
X78247000Y-59030000D01*
X93765000Y-58990000D02*
X78235000Y-58990000D01*
X93776000Y-58950000D02*
X78224000Y-58950000D01*
X93787000Y-58910000D02*
X78213000Y-58910000D01*
X93798000Y-58870000D02*
X78202000Y-58870000D01*
X93809000Y-58830000D02*
X78191000Y-58830000D01*
X93820000Y-58790000D02*
X78180000Y-58790000D01*
X93830000Y-58750000D02*
X78170000Y-58750000D01*
X93840000Y-58710000D02*
X78160000Y-58710000D01*
X93850000Y-58670000D02*
X78150000Y-58670000D01*
X93859000Y-58630000D02*
X78141000Y-58630000D01*
X93869000Y-58590000D02*
X78131000Y-58590000D01*
X93878000Y-58550000D02*
X78122000Y-58550000D01*
X93887000Y-58510000D02*
X78113000Y-58510000D01*
X93896000Y-58470000D02*
X78104000Y-58470000D01*
X93904000Y-58430000D02*
X78096000Y-58430000D01*
X93913000Y-58390000D02*
X78087000Y-58390000D01*
X93921000Y-58350000D02*
X78079000Y-58350000D01*
X93929000Y-58310000D02*
X78071000Y-58310000D01*
X93936000Y-58270000D02*
X78064000Y-58270000D01*
X93944000Y-58230000D02*
X78056000Y-58230000D01*
X93951000Y-58190000D02*
X78049000Y-58190000D01*
X93958000Y-58150000D02*
X78042000Y-58150000D01*
X93965000Y-58110000D02*
X78035000Y-58110000D01*
X93972000Y-58070000D02*
X78028000Y-58070000D01*
X93978000Y-58030000D02*
X78022000Y-58030000D01*
X93985000Y-57990000D02*
X78015000Y-57990000D01*
X93991000Y-57950000D02*
X78009000Y-57950000D01*
X93997000Y-57910000D02*
X78003000Y-57910000D01*
X94002000Y-57870000D02*
X77998000Y-57870000D01*
X94008000Y-57830000D02*
X77992000Y-57830000D01*
X94013000Y-57790000D02*
X77987000Y-57790000D01*
X94018000Y-57750000D02*
X77982000Y-57750000D01*
X94023000Y-57710000D02*
X77977000Y-57710000D01*
X94028000Y-57670000D02*
X77972000Y-57670000D01*
X94032000Y-57630000D02*
X77968000Y-57630000D01*
X94036000Y-57590000D02*
X77964000Y-57590000D01*
X94040000Y-57550000D02*
X77960000Y-57550000D01*
X94044000Y-57510000D02*
X77956000Y-57510000D01*
X94048000Y-57470000D02*
X77952000Y-57470000D01*
X94051000Y-57430000D02*
X77949000Y-57430000D01*
X94055000Y-57390000D02*
X77945000Y-57390000D01*
X94058000Y-57350000D02*
X77942000Y-57350000D01*
X94061000Y-57310000D02*
X77939000Y-57310000D01*
X94063000Y-57270000D02*
X77937000Y-57270000D01*
X94066000Y-57230000D02*
X77934000Y-57230000D01*
X94068000Y-57190000D02*
X77932000Y-57190000D01*
X94070000Y-57150000D02*
X77930000Y-57150000D01*
X94072000Y-57110000D02*
X77928000Y-57110000D01*
X94074000Y-57070000D02*
X77926000Y-57070000D01*
X94075000Y-57030000D02*
X77925000Y-57030000D01*
X94076000Y-56990000D02*
X77924000Y-56990000D01*
X94078000Y-56910000D02*
X77922000Y-56910000D01*
X94078000Y-56950000D02*
X77922000Y-56950000D01*
X94079000Y-56870000D02*
X77921000Y-56870000D01*
X94080000Y-56750000D02*
X77920000Y-56750000D01*
X94080000Y-56790000D02*
X77920000Y-56790000D01*
X94080000Y-56830000D02*
X77920000Y-56830000D01*
X94120000Y-56750000D02*
G75*
G02*
X77880000Y-56750000I-8120000J0D01*
G01*
X77880000Y-56750000D02*
G75*
G02*
X94120000Y-56750000I8120000J0D01*
G01*
%TO.C,R5*%
X90000000Y-68460000D02*
X90000000Y-69230000D01*
X90000000Y-76540000D02*
X90000000Y-75770000D01*
X91370000Y-69230000D02*
X88630000Y-69230000D01*
X88630000Y-75770000D01*
X91370000Y-75770000D01*
X91370000Y-69230000D01*
%TO.C,U1*%
D10*
X95500000Y-53700000D02*
X119500000Y-53700000D01*
X119500000Y-74700000D01*
X95500000Y-74700000D01*
X95500000Y-53700000D01*
D13*
%TO.C,Q1*%
X72890000Y-67390000D02*
X72890000Y-74610000D01*
X73180000Y-74610000D02*
X72890000Y-74610000D01*
X73515000Y-67390000D02*
X73515000Y-66160000D01*
X74485000Y-67390000D02*
X74485000Y-66160000D01*
X75805000Y-67390000D02*
X75805000Y-66160000D01*
X76775000Y-67390000D02*
X76775000Y-66160000D01*
X78095000Y-67390000D02*
X78095000Y-66160000D01*
X79065000Y-67390000D02*
X79065000Y-66160000D01*
X79690000Y-67390000D02*
X72890000Y-67390000D01*
X79690000Y-67390000D02*
X79690000Y-74610000D01*
X79690000Y-74610000D02*
X79400000Y-74610000D01*
%TO.C,J4*%
X112290000Y-88290000D02*
X117710000Y-88290000D01*
X112290000Y-97010000D02*
X112290000Y-88290000D01*
X113590000Y-98710000D02*
X112290000Y-97010000D01*
X113590000Y-98710000D02*
X116410000Y-98710000D01*
X116410000Y-98710000D02*
X117710000Y-97010000D01*
X117710000Y-97010000D02*
X117710000Y-88290000D01*
%TO.C,J10*%
X82290000Y-88290000D02*
X87710000Y-88290000D01*
X82290000Y-97010000D02*
X82290000Y-88290000D01*
X83590000Y-98710000D02*
X82290000Y-97010000D01*
X83590000Y-98710000D02*
X86410000Y-98710000D01*
X86410000Y-98710000D02*
X87710000Y-97010000D01*
X87710000Y-97010000D02*
X87710000Y-88290000D01*
%TO.C,5V*%
X62290000Y-88290000D02*
X67710000Y-88290000D01*
X62290000Y-97010000D02*
X62290000Y-88290000D01*
X63590000Y-98710000D02*
X62290000Y-97010000D01*
X63590000Y-98710000D02*
X66410000Y-98710000D01*
X66410000Y-98710000D02*
X67710000Y-97010000D01*
X67710000Y-97010000D02*
X67710000Y-88290000D01*
%TO.C,C3*%
X97020354Y-78125000D02*
X98020354Y-78125000D01*
X97520354Y-77625000D02*
X97520354Y-78625000D01*
X102500000Y-75920000D02*
X102500000Y-86080000D01*
X102540000Y-75920000D02*
X102540000Y-86080000D01*
X102580000Y-75921000D02*
X102580000Y-86079000D01*
X102620000Y-75921000D02*
X102620000Y-86079000D01*
X102660000Y-75923000D02*
X102660000Y-86077000D01*
X102700000Y-75924000D02*
X102700000Y-86076000D01*
X102740000Y-75926000D02*
X102740000Y-86074000D01*
X102780000Y-75928000D02*
X102780000Y-86072000D01*
X102820000Y-75930000D02*
X102820000Y-86070000D01*
X102860000Y-75933000D02*
X102860000Y-86067000D01*
X102900000Y-75936000D02*
X102900000Y-86064000D01*
X102940000Y-75939000D02*
X102940000Y-86061000D01*
X102980000Y-75943000D02*
X102980000Y-86057000D01*
X103020000Y-75946000D02*
X103020000Y-86054000D01*
X103060000Y-75951000D02*
X103060000Y-86049000D01*
X103100000Y-75955000D02*
X103100000Y-86045000D01*
X103140000Y-75960000D02*
X103140000Y-86040000D01*
X103180000Y-75965000D02*
X103180000Y-86035000D01*
X103220000Y-75971000D02*
X103220000Y-86029000D01*
X103260000Y-75977000D02*
X103260000Y-86023000D01*
X103300000Y-75983000D02*
X103300000Y-86017000D01*
X103340000Y-75989000D02*
X103340000Y-86011000D01*
X103380000Y-75996000D02*
X103380000Y-86004000D01*
X103420000Y-76003000D02*
X103420000Y-85997000D01*
X103460000Y-76011000D02*
X103460000Y-85989000D01*
X103500000Y-76019000D02*
X103500000Y-85981000D01*
X103540000Y-76027000D02*
X103540000Y-85973000D01*
X103580000Y-76035000D02*
X103580000Y-85965000D01*
X103620000Y-76044000D02*
X103620000Y-85956000D01*
X103660000Y-76053000D02*
X103660000Y-85947000D01*
X103700000Y-76063000D02*
X103700000Y-85937000D01*
X103740000Y-76072000D02*
X103740000Y-85928000D01*
X103780000Y-76083000D02*
X103780000Y-79760000D01*
X103780000Y-82240000D02*
X103780000Y-85917000D01*
X103820000Y-76093000D02*
X103820000Y-79760000D01*
X103820000Y-82240000D02*
X103820000Y-85907000D01*
X103860000Y-76104000D02*
X103860000Y-79760000D01*
X103860000Y-82240000D02*
X103860000Y-85896000D01*
X103900000Y-76115000D02*
X103900000Y-79760000D01*
X103900000Y-82240000D02*
X103900000Y-85885000D01*
X103940000Y-76127000D02*
X103940000Y-79760000D01*
X103940000Y-82240000D02*
X103940000Y-85873000D01*
X103980000Y-76139000D02*
X103980000Y-79760000D01*
X103980000Y-82240000D02*
X103980000Y-85861000D01*
X104020000Y-76151000D02*
X104020000Y-79760000D01*
X104020000Y-82240000D02*
X104020000Y-85849000D01*
X104060000Y-76163000D02*
X104060000Y-79760000D01*
X104060000Y-82240000D02*
X104060000Y-85837000D01*
X104100000Y-76176000D02*
X104100000Y-79760000D01*
X104100000Y-82240000D02*
X104100000Y-85824000D01*
X104140000Y-76190000D02*
X104140000Y-79760000D01*
X104140000Y-82240000D02*
X104140000Y-85810000D01*
X104180000Y-76203000D02*
X104180000Y-79760000D01*
X104180000Y-82240000D02*
X104180000Y-85797000D01*
X104220000Y-76218000D02*
X104220000Y-79760000D01*
X104220000Y-82240000D02*
X104220000Y-85782000D01*
X104260000Y-76232000D02*
X104260000Y-79760000D01*
X104260000Y-82240000D02*
X104260000Y-85768000D01*
X104300000Y-76247000D02*
X104300000Y-79760000D01*
X104300000Y-82240000D02*
X104300000Y-85753000D01*
X104340000Y-76262000D02*
X104340000Y-79760000D01*
X104340000Y-82240000D02*
X104340000Y-85738000D01*
X104380000Y-76278000D02*
X104380000Y-79760000D01*
X104380000Y-82240000D02*
X104380000Y-85722000D01*
X104420000Y-76294000D02*
X104420000Y-79760000D01*
X104420000Y-82240000D02*
X104420000Y-85706000D01*
X104460000Y-76310000D02*
X104460000Y-79760000D01*
X104460000Y-82240000D02*
X104460000Y-85690000D01*
X104500000Y-76327000D02*
X104500000Y-79760000D01*
X104500000Y-82240000D02*
X104500000Y-85673000D01*
X104540000Y-76344000D02*
X104540000Y-79760000D01*
X104540000Y-82240000D02*
X104540000Y-85656000D01*
X104580000Y-76362000D02*
X104580000Y-79760000D01*
X104580000Y-82240000D02*
X104580000Y-85638000D01*
X104620000Y-76380000D02*
X104620000Y-79760000D01*
X104620000Y-82240000D02*
X104620000Y-85620000D01*
X104660000Y-76398000D02*
X104660000Y-79760000D01*
X104660000Y-82240000D02*
X104660000Y-85602000D01*
X104700000Y-76417000D02*
X104700000Y-79760000D01*
X104700000Y-82240000D02*
X104700000Y-85583000D01*
X104740000Y-76436000D02*
X104740000Y-79760000D01*
X104740000Y-82240000D02*
X104740000Y-85564000D01*
X104780000Y-76456000D02*
X104780000Y-79760000D01*
X104780000Y-82240000D02*
X104780000Y-85544000D01*
X104820000Y-76476000D02*
X104820000Y-79760000D01*
X104820000Y-82240000D02*
X104820000Y-85524000D01*
X104860000Y-76496000D02*
X104860000Y-79760000D01*
X104860000Y-82240000D02*
X104860000Y-85504000D01*
X104900000Y-76517000D02*
X104900000Y-79760000D01*
X104900000Y-82240000D02*
X104900000Y-85483000D01*
X104940000Y-76539000D02*
X104940000Y-79760000D01*
X104940000Y-82240000D02*
X104940000Y-85461000D01*
X104980000Y-76561000D02*
X104980000Y-79760000D01*
X104980000Y-82240000D02*
X104980000Y-85439000D01*
X105020000Y-76583000D02*
X105020000Y-79760000D01*
X105020000Y-82240000D02*
X105020000Y-85417000D01*
X105060000Y-76606000D02*
X105060000Y-79760000D01*
X105060000Y-82240000D02*
X105060000Y-85394000D01*
X105100000Y-76629000D02*
X105100000Y-79760000D01*
X105100000Y-82240000D02*
X105100000Y-85371000D01*
X105140000Y-76653000D02*
X105140000Y-79760000D01*
X105140000Y-82240000D02*
X105140000Y-85347000D01*
X105180000Y-76677000D02*
X105180000Y-79760000D01*
X105180000Y-82240000D02*
X105180000Y-85323000D01*
X105220000Y-76702000D02*
X105220000Y-79760000D01*
X105220000Y-82240000D02*
X105220000Y-85298000D01*
X105260000Y-76728000D02*
X105260000Y-79760000D01*
X105260000Y-82240000D02*
X105260000Y-85272000D01*
X105300000Y-76753000D02*
X105300000Y-79760000D01*
X105300000Y-82240000D02*
X105300000Y-85247000D01*
X105340000Y-76780000D02*
X105340000Y-79760000D01*
X105340000Y-82240000D02*
X105340000Y-85220000D01*
X105380000Y-76807000D02*
X105380000Y-79760000D01*
X105380000Y-82240000D02*
X105380000Y-85193000D01*
X105420000Y-76834000D02*
X105420000Y-79760000D01*
X105420000Y-82240000D02*
X105420000Y-85166000D01*
X105460000Y-76862000D02*
X105460000Y-79760000D01*
X105460000Y-82240000D02*
X105460000Y-85138000D01*
X105500000Y-76891000D02*
X105500000Y-79760000D01*
X105500000Y-82240000D02*
X105500000Y-85109000D01*
X105540000Y-76920000D02*
X105540000Y-79760000D01*
X105540000Y-82240000D02*
X105540000Y-85080000D01*
X105580000Y-76950000D02*
X105580000Y-79760000D01*
X105580000Y-82240000D02*
X105580000Y-85050000D01*
X105620000Y-76980000D02*
X105620000Y-79760000D01*
X105620000Y-82240000D02*
X105620000Y-85020000D01*
X105660000Y-77012000D02*
X105660000Y-79760000D01*
X105660000Y-82240000D02*
X105660000Y-84988000D01*
X105700000Y-77043000D02*
X105700000Y-79760000D01*
X105700000Y-82240000D02*
X105700000Y-84957000D01*
X105740000Y-77076000D02*
X105740000Y-79760000D01*
X105740000Y-82240000D02*
X105740000Y-84924000D01*
X105780000Y-77109000D02*
X105780000Y-79760000D01*
X105780000Y-82240000D02*
X105780000Y-84891000D01*
X105820000Y-77142000D02*
X105820000Y-79760000D01*
X105820000Y-82240000D02*
X105820000Y-84858000D01*
X105860000Y-77177000D02*
X105860000Y-79760000D01*
X105860000Y-82240000D02*
X105860000Y-84823000D01*
X105900000Y-77212000D02*
X105900000Y-79760000D01*
X105900000Y-82240000D02*
X105900000Y-84788000D01*
X105940000Y-77248000D02*
X105940000Y-79760000D01*
X105940000Y-82240000D02*
X105940000Y-84752000D01*
X105980000Y-77284000D02*
X105980000Y-79760000D01*
X105980000Y-82240000D02*
X105980000Y-84716000D01*
X106020000Y-77322000D02*
X106020000Y-79760000D01*
X106020000Y-82240000D02*
X106020000Y-84678000D01*
X106060000Y-77360000D02*
X106060000Y-79760000D01*
X106060000Y-82240000D02*
X106060000Y-84640000D01*
X106100000Y-77399000D02*
X106100000Y-79760000D01*
X106100000Y-82240000D02*
X106100000Y-84601000D01*
X106140000Y-77439000D02*
X106140000Y-79760000D01*
X106140000Y-82240000D02*
X106140000Y-84561000D01*
X106180000Y-77480000D02*
X106180000Y-79760000D01*
X106180000Y-82240000D02*
X106180000Y-84520000D01*
X106220000Y-77522000D02*
X106220000Y-79760000D01*
X106220000Y-82240000D02*
X106220000Y-84478000D01*
X106260000Y-77565000D02*
X106260000Y-84435000D01*
X106300000Y-77609000D02*
X106300000Y-84391000D01*
X106340000Y-77653000D02*
X106340000Y-84347000D01*
X106380000Y-77699000D02*
X106380000Y-84301000D01*
X106420000Y-77746000D02*
X106420000Y-84254000D01*
X106460000Y-77795000D02*
X106460000Y-84205000D01*
X106500000Y-77844000D02*
X106500000Y-84156000D01*
X106540000Y-77895000D02*
X106540000Y-84105000D01*
X106580000Y-77947000D02*
X106580000Y-84053000D01*
X106620000Y-78000000D02*
X106620000Y-84000000D01*
X106660000Y-78055000D02*
X106660000Y-83945000D01*
X106700000Y-78112000D02*
X106700000Y-83888000D01*
X106740000Y-78170000D02*
X106740000Y-83830000D01*
X106780000Y-78230000D02*
X106780000Y-83770000D01*
X106820000Y-78292000D02*
X106820000Y-83708000D01*
X106860000Y-78356000D02*
X106860000Y-83644000D01*
X106900000Y-78422000D02*
X106900000Y-83578000D01*
X106940000Y-78490000D02*
X106940000Y-83510000D01*
X106980000Y-78561000D02*
X106980000Y-83439000D01*
X107020000Y-78635000D02*
X107020000Y-83365000D01*
X107060000Y-78712000D02*
X107060000Y-83288000D01*
X107100000Y-78792000D02*
X107100000Y-83208000D01*
X107140000Y-78876000D02*
X107140000Y-83124000D01*
X107180000Y-78963000D02*
X107180000Y-83037000D01*
X107220000Y-79056000D02*
X107220000Y-82944000D01*
X107260000Y-79154000D02*
X107260000Y-82846000D01*
X107300000Y-79258000D02*
X107300000Y-82742000D01*
X107340000Y-79370000D02*
X107340000Y-82630000D01*
X107380000Y-79491000D02*
X107380000Y-82509000D01*
X107420000Y-79623000D02*
X107420000Y-82377000D01*
X107460000Y-79770000D02*
X107460000Y-82230000D01*
X107500000Y-79938000D02*
X107500000Y-82062000D01*
X107540000Y-80138000D02*
X107540000Y-81862000D01*
X107580000Y-80401000D02*
X107580000Y-81599000D01*
X107620000Y-81000000D02*
G75*
G02*
X97380000Y-81000000I-5120000J0D01*
G01*
X97380000Y-81000000D02*
G75*
G02*
X107620000Y-81000000I5120000J0D01*
G01*
%TO.C,J8*%
X102290000Y-88290000D02*
X107710000Y-88290000D01*
X102290000Y-97010000D02*
X102290000Y-88290000D01*
X103590000Y-98710000D02*
X102290000Y-97010000D01*
X103590000Y-98710000D02*
X106410000Y-98710000D01*
X106410000Y-98710000D02*
X107710000Y-97010000D01*
X107710000Y-97010000D02*
X107710000Y-88290000D01*
%TO.C,Main*%
X47250000Y-66600000D02*
X47250000Y-67850000D01*
X47250000Y-67850000D02*
X48500000Y-67850000D01*
X49800000Y-59950000D02*
X49800000Y-60700000D01*
X49800000Y-60700000D02*
X52750000Y-60700000D01*
X49800000Y-66800000D02*
X52750000Y-66800000D01*
X49800000Y-67550000D02*
X49800000Y-66800000D01*
X52750000Y-60700000D02*
X52750000Y-63750000D01*
X52750000Y-66800000D02*
X52750000Y-63750000D01*
X47540000Y-67560000D02*
X53510000Y-67560000D01*
X53510000Y-59940000D01*
X47540000Y-59940000D01*
X47540000Y-67560000D01*
X47550000Y-61750000D02*
X48300000Y-61750000D01*
X48300000Y-59950000D01*
X47550000Y-59950000D01*
X47550000Y-61750000D01*
X47550000Y-64250000D02*
X48300000Y-64250000D01*
X48300000Y-63250000D01*
X47550000Y-63250000D01*
X47550000Y-64250000D01*
X47550000Y-67550000D02*
X48300000Y-67550000D01*
X48300000Y-65750000D01*
X47550000Y-65750000D01*
X47550000Y-67550000D01*
%TO.C,C2*%
X108020354Y-78125000D02*
X109020354Y-78125000D01*
X108520354Y-77625000D02*
X108520354Y-78625000D01*
X113500000Y-75920000D02*
X113500000Y-86080000D01*
X113540000Y-75920000D02*
X113540000Y-86080000D01*
X113580000Y-75921000D02*
X113580000Y-86079000D01*
X113620000Y-75921000D02*
X113620000Y-86079000D01*
X113660000Y-75923000D02*
X113660000Y-86077000D01*
X113700000Y-75924000D02*
X113700000Y-86076000D01*
X113740000Y-75926000D02*
X113740000Y-86074000D01*
X113780000Y-75928000D02*
X113780000Y-86072000D01*
X113820000Y-75930000D02*
X113820000Y-86070000D01*
X113860000Y-75933000D02*
X113860000Y-86067000D01*
X113900000Y-75936000D02*
X113900000Y-86064000D01*
X113940000Y-75939000D02*
X113940000Y-86061000D01*
X113980000Y-75943000D02*
X113980000Y-86057000D01*
X114020000Y-75946000D02*
X114020000Y-86054000D01*
X114060000Y-75951000D02*
X114060000Y-86049000D01*
X114100000Y-75955000D02*
X114100000Y-86045000D01*
X114140000Y-75960000D02*
X114140000Y-86040000D01*
X114180000Y-75965000D02*
X114180000Y-86035000D01*
X114220000Y-75971000D02*
X114220000Y-86029000D01*
X114260000Y-75977000D02*
X114260000Y-86023000D01*
X114300000Y-75983000D02*
X114300000Y-86017000D01*
X114340000Y-75989000D02*
X114340000Y-86011000D01*
X114380000Y-75996000D02*
X114380000Y-86004000D01*
X114420000Y-76003000D02*
X114420000Y-85997000D01*
X114460000Y-76011000D02*
X114460000Y-85989000D01*
X114500000Y-76019000D02*
X114500000Y-85981000D01*
X114540000Y-76027000D02*
X114540000Y-85973000D01*
X114580000Y-76035000D02*
X114580000Y-85965000D01*
X114620000Y-76044000D02*
X114620000Y-85956000D01*
X114660000Y-76053000D02*
X114660000Y-85947000D01*
X114700000Y-76063000D02*
X114700000Y-85937000D01*
X114740000Y-76072000D02*
X114740000Y-85928000D01*
X114780000Y-76083000D02*
X114780000Y-79760000D01*
X114780000Y-82240000D02*
X114780000Y-85917000D01*
X114820000Y-76093000D02*
X114820000Y-79760000D01*
X114820000Y-82240000D02*
X114820000Y-85907000D01*
X114860000Y-76104000D02*
X114860000Y-79760000D01*
X114860000Y-82240000D02*
X114860000Y-85896000D01*
X114900000Y-76115000D02*
X114900000Y-79760000D01*
X114900000Y-82240000D02*
X114900000Y-85885000D01*
X114940000Y-76127000D02*
X114940000Y-79760000D01*
X114940000Y-82240000D02*
X114940000Y-85873000D01*
X114980000Y-76139000D02*
X114980000Y-79760000D01*
X114980000Y-82240000D02*
X114980000Y-85861000D01*
X115020000Y-76151000D02*
X115020000Y-79760000D01*
X115020000Y-82240000D02*
X115020000Y-85849000D01*
X115060000Y-76163000D02*
X115060000Y-79760000D01*
X115060000Y-82240000D02*
X115060000Y-85837000D01*
X115100000Y-76176000D02*
X115100000Y-79760000D01*
X115100000Y-82240000D02*
X115100000Y-85824000D01*
X115140000Y-76190000D02*
X115140000Y-79760000D01*
X115140000Y-82240000D02*
X115140000Y-85810000D01*
X115180000Y-76203000D02*
X115180000Y-79760000D01*
X115180000Y-82240000D02*
X115180000Y-85797000D01*
X115220000Y-76218000D02*
X115220000Y-79760000D01*
X115220000Y-82240000D02*
X115220000Y-85782000D01*
X115260000Y-76232000D02*
X115260000Y-79760000D01*
X115260000Y-82240000D02*
X115260000Y-85768000D01*
X115300000Y-76247000D02*
X115300000Y-79760000D01*
X115300000Y-82240000D02*
X115300000Y-85753000D01*
X115340000Y-76262000D02*
X115340000Y-79760000D01*
X115340000Y-82240000D02*
X115340000Y-85738000D01*
X115380000Y-76278000D02*
X115380000Y-79760000D01*
X115380000Y-82240000D02*
X115380000Y-85722000D01*
X115420000Y-76294000D02*
X115420000Y-79760000D01*
X115420000Y-82240000D02*
X115420000Y-85706000D01*
X115460000Y-76310000D02*
X115460000Y-79760000D01*
X115460000Y-82240000D02*
X115460000Y-85690000D01*
X115500000Y-76327000D02*
X115500000Y-79760000D01*
X115500000Y-82240000D02*
X115500000Y-85673000D01*
X115540000Y-76344000D02*
X115540000Y-79760000D01*
X115540000Y-82240000D02*
X115540000Y-85656000D01*
X115580000Y-76362000D02*
X115580000Y-79760000D01*
X115580000Y-82240000D02*
X115580000Y-85638000D01*
X115620000Y-76380000D02*
X115620000Y-79760000D01*
X115620000Y-82240000D02*
X115620000Y-85620000D01*
X115660000Y-76398000D02*
X115660000Y-79760000D01*
X115660000Y-82240000D02*
X115660000Y-85602000D01*
X115700000Y-76417000D02*
X115700000Y-79760000D01*
X115700000Y-82240000D02*
X115700000Y-85583000D01*
X115740000Y-76436000D02*
X115740000Y-79760000D01*
X115740000Y-82240000D02*
X115740000Y-85564000D01*
X115780000Y-76456000D02*
X115780000Y-79760000D01*
X115780000Y-82240000D02*
X115780000Y-85544000D01*
X115820000Y-76476000D02*
X115820000Y-79760000D01*
X115820000Y-82240000D02*
X115820000Y-85524000D01*
X115860000Y-76496000D02*
X115860000Y-79760000D01*
X115860000Y-82240000D02*
X115860000Y-85504000D01*
X115900000Y-76517000D02*
X115900000Y-79760000D01*
X115900000Y-82240000D02*
X115900000Y-85483000D01*
X115940000Y-76539000D02*
X115940000Y-79760000D01*
X115940000Y-82240000D02*
X115940000Y-85461000D01*
X115980000Y-76561000D02*
X115980000Y-79760000D01*
X115980000Y-82240000D02*
X115980000Y-85439000D01*
X116020000Y-76583000D02*
X116020000Y-79760000D01*
X116020000Y-82240000D02*
X116020000Y-85417000D01*
X116060000Y-76606000D02*
X116060000Y-79760000D01*
X116060000Y-82240000D02*
X116060000Y-85394000D01*
X116100000Y-76629000D02*
X116100000Y-79760000D01*
X116100000Y-82240000D02*
X116100000Y-85371000D01*
X116140000Y-76653000D02*
X116140000Y-79760000D01*
X116140000Y-82240000D02*
X116140000Y-85347000D01*
X116180000Y-76677000D02*
X116180000Y-79760000D01*
X116180000Y-82240000D02*
X116180000Y-85323000D01*
X116220000Y-76702000D02*
X116220000Y-79760000D01*
X116220000Y-82240000D02*
X116220000Y-85298000D01*
X116260000Y-76728000D02*
X116260000Y-79760000D01*
X116260000Y-82240000D02*
X116260000Y-85272000D01*
X116300000Y-76753000D02*
X116300000Y-79760000D01*
X116300000Y-82240000D02*
X116300000Y-85247000D01*
X116340000Y-76780000D02*
X116340000Y-79760000D01*
X116340000Y-82240000D02*
X116340000Y-85220000D01*
X116380000Y-76807000D02*
X116380000Y-79760000D01*
X116380000Y-82240000D02*
X116380000Y-85193000D01*
X116420000Y-76834000D02*
X116420000Y-79760000D01*
X116420000Y-82240000D02*
X116420000Y-85166000D01*
X116460000Y-76862000D02*
X116460000Y-79760000D01*
X116460000Y-82240000D02*
X116460000Y-85138000D01*
X116500000Y-76891000D02*
X116500000Y-79760000D01*
X116500000Y-82240000D02*
X116500000Y-85109000D01*
X116540000Y-76920000D02*
X116540000Y-79760000D01*
X116540000Y-82240000D02*
X116540000Y-85080000D01*
X116580000Y-76950000D02*
X116580000Y-79760000D01*
X116580000Y-82240000D02*
X116580000Y-85050000D01*
X116620000Y-76980000D02*
X116620000Y-79760000D01*
X116620000Y-82240000D02*
X116620000Y-85020000D01*
X116660000Y-77012000D02*
X116660000Y-79760000D01*
X116660000Y-82240000D02*
X116660000Y-84988000D01*
X116700000Y-77043000D02*
X116700000Y-79760000D01*
X116700000Y-82240000D02*
X116700000Y-84957000D01*
X116740000Y-77076000D02*
X116740000Y-79760000D01*
X116740000Y-82240000D02*
X116740000Y-84924000D01*
X116780000Y-77109000D02*
X116780000Y-79760000D01*
X116780000Y-82240000D02*
X116780000Y-84891000D01*
X116820000Y-77142000D02*
X116820000Y-79760000D01*
X116820000Y-82240000D02*
X116820000Y-84858000D01*
X116860000Y-77177000D02*
X116860000Y-79760000D01*
X116860000Y-82240000D02*
X116860000Y-84823000D01*
X116900000Y-77212000D02*
X116900000Y-79760000D01*
X116900000Y-82240000D02*
X116900000Y-84788000D01*
X116940000Y-77248000D02*
X116940000Y-79760000D01*
X116940000Y-82240000D02*
X116940000Y-84752000D01*
X116980000Y-77284000D02*
X116980000Y-79760000D01*
X116980000Y-82240000D02*
X116980000Y-84716000D01*
X117020000Y-77322000D02*
X117020000Y-79760000D01*
X117020000Y-82240000D02*
X117020000Y-84678000D01*
X117060000Y-77360000D02*
X117060000Y-79760000D01*
X117060000Y-82240000D02*
X117060000Y-84640000D01*
X117100000Y-77399000D02*
X117100000Y-79760000D01*
X117100000Y-82240000D02*
X117100000Y-84601000D01*
X117140000Y-77439000D02*
X117140000Y-79760000D01*
X117140000Y-82240000D02*
X117140000Y-84561000D01*
X117180000Y-77480000D02*
X117180000Y-79760000D01*
X117180000Y-82240000D02*
X117180000Y-84520000D01*
X117220000Y-77522000D02*
X117220000Y-79760000D01*
X117220000Y-82240000D02*
X117220000Y-84478000D01*
X117260000Y-77565000D02*
X117260000Y-84435000D01*
X117300000Y-77609000D02*
X117300000Y-84391000D01*
X117340000Y-77653000D02*
X117340000Y-84347000D01*
X117380000Y-77699000D02*
X117380000Y-84301000D01*
X117420000Y-77746000D02*
X117420000Y-84254000D01*
X117460000Y-77795000D02*
X117460000Y-84205000D01*
X117500000Y-77844000D02*
X117500000Y-84156000D01*
X117540000Y-77895000D02*
X117540000Y-84105000D01*
X117580000Y-77947000D02*
X117580000Y-84053000D01*
X117620000Y-78000000D02*
X117620000Y-84000000D01*
X117660000Y-78055000D02*
X117660000Y-83945000D01*
X117700000Y-78112000D02*
X117700000Y-83888000D01*
X117740000Y-78170000D02*
X117740000Y-83830000D01*
X117780000Y-78230000D02*
X117780000Y-83770000D01*
X117820000Y-78292000D02*
X117820000Y-83708000D01*
X117860000Y-78356000D02*
X117860000Y-83644000D01*
X117900000Y-78422000D02*
X117900000Y-83578000D01*
X117940000Y-78490000D02*
X117940000Y-83510000D01*
X117980000Y-78561000D02*
X117980000Y-83439000D01*
X118020000Y-78635000D02*
X118020000Y-83365000D01*
X118060000Y-78712000D02*
X118060000Y-83288000D01*
X118100000Y-78792000D02*
X118100000Y-83208000D01*
X118140000Y-78876000D02*
X118140000Y-83124000D01*
X118180000Y-78963000D02*
X118180000Y-83037000D01*
X118220000Y-79056000D02*
X118220000Y-82944000D01*
X118260000Y-79154000D02*
X118260000Y-82846000D01*
X118300000Y-79258000D02*
X118300000Y-82742000D01*
X118340000Y-79370000D02*
X118340000Y-82630000D01*
X118380000Y-79491000D02*
X118380000Y-82509000D01*
X118420000Y-79623000D02*
X118420000Y-82377000D01*
X118460000Y-79770000D02*
X118460000Y-82230000D01*
X118500000Y-79938000D02*
X118500000Y-82062000D01*
X118540000Y-80138000D02*
X118540000Y-81862000D01*
X118580000Y-80401000D02*
X118580000Y-81599000D01*
X118620000Y-81000000D02*
G75*
G02*
X108380000Y-81000000I-5120000J0D01*
G01*
X108380000Y-81000000D02*
G75*
G02*
X118620000Y-81000000I5120000J0D01*
G01*
%TO.C,12V*%
X88764000Y-82830000D02*
X88920000Y-82830000D01*
X91080000Y-82830000D02*
X91236000Y-82830000D01*
X88764484Y-82830000D02*
G75*
G02*
X88920000Y-79598563I1235516J1560000D01*
G01*
X88920000Y-82310961D02*
G75*
G02*
X88920000Y-80229039I1080000J1040961D01*
G01*
X91080000Y-79598563D02*
G75*
G02*
X91235516Y-82830000I-1080000J-1671437D01*
G01*
X91080000Y-80229039D02*
G75*
G02*
X91080000Y-82310961I-1080000J-1040961D01*
G01*
%TO.C,R4*%
X86000000Y-68460000D02*
X86000000Y-69230000D01*
X86000000Y-76540000D02*
X86000000Y-75770000D01*
X87370000Y-69230000D02*
X84630000Y-69230000D01*
X84630000Y-75770000D01*
X87370000Y-75770000D01*
X87370000Y-69230000D01*
%TD*%
M02*
