%TF.GenerationSoftware,KiCad,Pcbnew,9.0.9.1*%
%TF.CreationDate,2026-09-09T22:42:28+09:00*%
%TF.ProjectId,TRIA_ControlPowerBoard,54524941-5f43-46f6-9e74-726f6c506f77,rev?*%
%TF.SameCoordinates,Original*%
%TF.FileFunction,Copper,L1,Top*%
%TF.FilePolarity,Positive*%
%FSLAX46Y46*%
G04 Gerber Fmt 4.6, Leading zero omitted, Abs format (unit mm)*
G04 Created by KiCad (PCBNEW 9.0.9.1) date 2026-09-09 22:42:28*
%MOMM*%
%LPD*%
G01*
G04 APERTURE LIST*
G04 Aperture macros list*
%AMRoundRect*
0 Rectangle with rounded corners*
0 $1 Rounding radius*
0 $2 $3 $4 $5 $6 $7 $8 $9 X,Y pos of 4 corners*
0 Add a 4 corners polygon primitive as box body*
4,1,4,$2,$3,$4,$5,$6,$7,$8,$9,$2,$3,0*
0 Add four circle primitives for the rounded corners*
1,1,$1+$1,$2,$3*
1,1,$1+$1,$4,$5*
1,1,$1+$1,$6,$7*
1,1,$1+$1,$8,$9*
0 Add four rect primitives between the rounded corners*
20,1,$1+$1,$2,$3,$4,$5,0*
20,1,$1+$1,$4,$5,$6,$7,0*
20,1,$1+$1,$6,$7,$8,$9,0*
20,1,$1+$1,$8,$9,$2,$3,0*%
G04 Aperture macros list end*
%TA.AperFunction,ComponentPad*%
%ADD10RoundRect,0.250000X-0.750000X-0.750000X0.750000X-0.750000X0.750000X0.750000X-0.750000X0.750000X0*%
%TD*%
%TA.AperFunction,ComponentPad*%
%ADD11C,2.000000*%
%TD*%
%TA.AperFunction,ComponentPad*%
%ADD12R,1.800000X1.800000*%
%TD*%
%TA.AperFunction,ComponentPad*%
%ADD13C,1.800000*%
%TD*%
%TA.AperFunction,ComponentPad*%
%ADD14C,1.600000*%
%TD*%
%TA.AperFunction,ComponentPad*%
%ADD15RoundRect,0.760000X1.140000X-1.140000X1.140000X1.140000X-1.140000X1.140000X-1.140000X-1.140000X0*%
%TD*%
%TA.AperFunction,ComponentPad*%
%ADD16C,4.000000*%
%TD*%
%TA.AperFunction,ComponentPad*%
%ADD17RoundRect,0.250000X0.750000X-0.600000X0.750000X0.600000X-0.750000X0.600000X-0.750000X-0.600000X0*%
%TD*%
%TA.AperFunction,ComponentPad*%
%ADD18O,2.000000X1.700000*%
%TD*%
%TA.AperFunction,ComponentPad*%
%ADD19R,2.000000X0.900000*%
%TD*%
%TA.AperFunction,ComponentPad*%
%ADD20RoundRect,1.025000X1.025000X-1.025000X1.025000X1.025000X-1.025000X1.025000X-1.025000X-1.025000X0*%
%TD*%
%TA.AperFunction,ComponentPad*%
%ADD21C,4.100000*%
%TD*%
%TA.AperFunction,ComponentPad*%
%ADD22RoundRect,0.250001X-0.949999X0.949999X-0.949999X-0.949999X0.949999X-0.949999X0.949999X0.949999X0*%
%TD*%
%TA.AperFunction,ComponentPad*%
%ADD23C,2.400000*%
%TD*%
%TA.AperFunction,ComponentPad*%
%ADD24C,1.524000*%
%TD*%
%TA.AperFunction,ComponentPad*%
%ADD25R,2.100000X8.000000*%
%TD*%
%TA.AperFunction,ComponentPad*%
%ADD26R,1.524000X1.524000*%
%TD*%
%TA.AperFunction,ComponentPad*%
%ADD27R,7.000000X2.100000*%
%TD*%
%TA.AperFunction,ComponentPad*%
%ADD28O,1.717500X1.800000*%
%TD*%
%TA.AperFunction,ComponentPad*%
%ADD29R,1.717500X1.800000*%
%TD*%
%TA.AperFunction,HeatsinkPad*%
%ADD30R,5.700000X8.000000*%
%TD*%
%TA.AperFunction,Conductor*%
%ADD31C,1.500000*%
%TD*%
%TA.AperFunction,Conductor*%
%ADD32C,3.000000*%
%TD*%
%TA.AperFunction,Conductor*%
%ADD33C,5.000000*%
%TD*%
G04 APERTURE END LIST*
D10*
%TO.P,C5,1*%
%TO.N,+5V*%
X123000000Y-59000000D03*
D11*
%TO.P,C5,2*%
%TO.N,GND*%
X128000000Y-59000000D03*
%TD*%
D12*
%TO.P,5V,1,K*%
%TO.N,GND*%
X95000000Y-82540000D03*
D13*
%TO.P,5V,2,A*%
%TO.N,Net-(D3-A)*%
X95000000Y-80000000D03*
%TD*%
D14*
%TO.P,R6,1*%
%TO.N,+5V*%
X94000000Y-67420000D03*
%TO.P,R6,2*%
%TO.N,Net-(D3-A)*%
X94000000Y-77580000D03*
%TD*%
D10*
%TO.P,C6,1*%
%TO.N,+5V*%
X123000000Y-70000000D03*
D11*
%TO.P,C6,2*%
%TO.N,GND*%
X128000000Y-70000000D03*
%TD*%
D15*
%TO.P,12V,1,Pin_1*%
%TO.N,GND*%
X55000000Y-96000000D03*
D16*
%TO.P,12V,2,Pin_2*%
%TO.N,+12V*%
X55000000Y-91000000D03*
%TD*%
D17*
%TO.P,LED,1,Pin_1*%
%TO.N,GND*%
X50000000Y-75000000D03*
D18*
%TO.P,LED,2,Pin_2*%
%TO.N,+BATT*%
X50000000Y-72500000D03*
%TD*%
D19*
%TO.P,J1,*%
%TO.N,*%
X54000000Y-53150000D03*
X54000000Y-39650000D03*
D20*
%TO.P,J1,1,Pin_1*%
%TO.N,GND*%
X60000000Y-50000000D03*
D21*
%TO.P,J1,2,Pin_2*%
%TO.N,Net-(J1-Pin_2)*%
X60000000Y-42800000D03*
%TD*%
D14*
%TO.P,R3,1*%
%TO.N,+BATT*%
X82000000Y-67420000D03*
%TO.P,R3,2*%
%TO.N,Net-(D1-A)*%
X82000000Y-77580000D03*
%TD*%
D22*
%TO.P,C1,1*%
%TO.N,+BATT*%
X86000000Y-35000000D03*
D23*
%TO.P,C1,2*%
%TO.N,GND*%
X86000000Y-42500000D03*
%TD*%
D15*
%TO.P,J2,1,Pin_1*%
%TO.N,GND*%
X75000000Y-96000000D03*
D16*
%TO.P,J2,2,Pin_2*%
%TO.N,+5V*%
X75000000Y-91000000D03*
%TD*%
D17*
%TO.P,Meter,1,Pin_1*%
%TO.N,GND*%
X60000000Y-75000000D03*
D18*
%TO.P,Meter,2,Pin_2*%
%TO.N,+BATT*%
X60000000Y-72500000D03*
%TD*%
D15*
%TO.P,J9,1,Pin_1*%
%TO.N,GND*%
X95000000Y-96000000D03*
D16*
%TO.P,J9,2,Pin_2*%
%TO.N,+5V*%
X95000000Y-91000000D03*
%TD*%
D14*
%TO.P,R1,1*%
%TO.N,Net-(J1-Pin_2)*%
X74000000Y-60000000D03*
%TO.P,R1,2*%
%TO.N,Net-(J6-Pin_2)*%
X63840000Y-60000000D03*
%TD*%
D24*
%TO.P,U2,1,Vin*%
%TO.N,+BATT*%
X100000000Y-40000000D03*
%TO.P,U2,2,Vin*%
X102500000Y-40000000D03*
D25*
%TO.P,U2,3,GND*%
%TO.N,GND*%
X96900000Y-45050000D03*
D26*
X105000000Y-40000000D03*
D27*
X106250000Y-33250000D03*
X106250000Y-51050000D03*
D25*
X118100000Y-45050000D03*
D26*
%TO.P,U2,4,GND*%
X107500000Y-40000000D03*
D24*
%TO.P,U2,5,VAR*%
%TO.N,unconnected-(U2-VAR-Pad5)*%
X110000000Y-40000000D03*
%TO.P,U2,6,Vout*%
%TO.N,+5V*%
X112500000Y-40000000D03*
%TO.P,U2,7,Vout*%
X115000000Y-40000000D03*
%TD*%
D12*
%TO.P,BATT,1,K*%
%TO.N,GND*%
X85000000Y-82500000D03*
D13*
%TO.P,BATT,2,A*%
%TO.N,Net-(D1-A)*%
X85000000Y-79960000D03*
%TD*%
D14*
%TO.P,R2,1*%
%TO.N,Net-(J6-Pin_1)*%
X74000000Y-50000000D03*
%TO.P,R2,2*%
%TO.N,GND*%
X63840000Y-50000000D03*
%TD*%
D22*
%TO.P,C4,1*%
%TO.N,+BATT*%
X86000000Y-53000000D03*
D23*
%TO.P,C4,2*%
%TO.N,GND*%
X86000000Y-60500000D03*
%TD*%
D14*
%TO.P,R5,1*%
%TO.N,+12V*%
X90000000Y-67420000D03*
%TO.P,R5,2*%
%TO.N,Net-(D2-A)*%
X90000000Y-77580000D03*
%TD*%
D24*
%TO.P,U1,1,Vin*%
%TO.N,+BATT*%
X100000000Y-62000000D03*
%TO.P,U1,2,Vin*%
X102500000Y-62000000D03*
D25*
%TO.P,U1,3,GND*%
%TO.N,GND*%
X96900000Y-67050000D03*
D26*
X105000000Y-62000000D03*
D27*
X106250000Y-55250000D03*
X106250000Y-73050000D03*
D25*
X118100000Y-67050000D03*
D26*
%TO.P,U1,4,GND*%
X107500000Y-62000000D03*
D24*
%TO.P,U1,5,VAR*%
X110000000Y-62000000D03*
%TO.P,U1,6,Vout*%
%TO.N,+12V*%
X112500000Y-62000000D03*
%TO.P,U1,7,Vout*%
X115000000Y-62000000D03*
%TD*%
D28*
%TO.P,Q1,1,D*%
%TO.N,+BATT*%
X76290000Y-65000000D03*
D29*
%TO.P,Q1,2,G*%
%TO.N,Net-(J6-Pin_2)*%
X78580000Y-65000000D03*
D28*
%TO.P,Q1,3,S*%
%TO.N,Net-(J1-Pin_2)*%
X74000000Y-65000000D03*
D30*
%TO.P,Q1,4*%
%TO.N,thermal*%
X76290000Y-73433000D03*
%TD*%
D15*
%TO.P,J4,1,Pin_1*%
%TO.N,GND*%
X115000000Y-96000000D03*
D16*
%TO.P,J4,2,Pin_2*%
%TO.N,+5V*%
X115000000Y-91000000D03*
%TD*%
D15*
%TO.P,J10,1,Pin_1*%
%TO.N,GND*%
X85000000Y-96000000D03*
D16*
%TO.P,J10,2,Pin_2*%
%TO.N,+5V*%
X85000000Y-91000000D03*
%TD*%
D15*
%TO.P,5V,1,Pin_1*%
%TO.N,GND*%
X65000000Y-96000000D03*
D16*
%TO.P,5V,2,Pin_2*%
%TO.N,+5V*%
X65000000Y-91000000D03*
%TD*%
D10*
%TO.P,C3,1*%
%TO.N,+12V*%
X100000000Y-81000000D03*
D11*
%TO.P,C3,2*%
%TO.N,GND*%
X105000000Y-81000000D03*
%TD*%
D15*
%TO.P,J8,1,Pin_1*%
%TO.N,GND*%
X105000000Y-96000000D03*
D16*
%TO.P,J8,2,Pin_2*%
%TO.N,+5V*%
X105000000Y-91000000D03*
%TD*%
D17*
%TO.P,Main,1,Pin_1*%
%TO.N,Net-(J6-Pin_1)*%
X50000000Y-65000000D03*
D18*
%TO.P,Main,2,Pin_2*%
%TO.N,Net-(J6-Pin_2)*%
X50000000Y-62500000D03*
%TD*%
D10*
%TO.P,C2,1*%
%TO.N,+12V*%
X111000000Y-81000000D03*
D11*
%TO.P,C2,2*%
%TO.N,GND*%
X116000000Y-81000000D03*
%TD*%
D12*
%TO.P,12V,1,K*%
%TO.N,GND*%
X90000000Y-82540000D03*
D13*
%TO.P,12V,2,A*%
%TO.N,Net-(D2-A)*%
X90000000Y-80000000D03*
%TD*%
D14*
%TO.P,R4,1*%
%TO.N,+12V*%
X86000000Y-67420000D03*
%TO.P,R4,2*%
%TO.N,Net-(D2-A)*%
X86000000Y-77580000D03*
%TD*%
D31*
%TO.N,Net-(J1-Pin_2)*%
X74000000Y-65000000D02*
X74000000Y-60000000D01*
D32*
%TO.N,+12V*%
X100000000Y-86130000D02*
X99930000Y-86200000D01*
X59800000Y-86200000D02*
X99930000Y-86200000D01*
X105800000Y-86200000D02*
X111000000Y-81000000D01*
X55000000Y-91000000D02*
X59800000Y-86200000D01*
X111000000Y-81000000D02*
X112500000Y-79500000D01*
X112500000Y-62000000D02*
X115000000Y-62000000D01*
X100000000Y-81000000D02*
X100000000Y-86130000D01*
X112500000Y-79500000D02*
X112500000Y-62000000D01*
X99930000Y-86200000D02*
X105800000Y-86200000D01*
D31*
%TO.N,+5V*%
X113740000Y-40000000D02*
X115000000Y-40000000D01*
D33*
X123000000Y-59000000D02*
X123000000Y-40500000D01*
D31*
X112500000Y-40000000D02*
X112500000Y-36420000D01*
X115000000Y-40000000D02*
X115000000Y-36440000D01*
X115000000Y-36440000D02*
X115030000Y-36410000D01*
D33*
X123000000Y-59000000D02*
X123000000Y-70000000D01*
D31*
X112500000Y-36420000D02*
X112490000Y-36410000D01*
D33*
X118910000Y-36410000D02*
X115030000Y-36410000D01*
X123000000Y-70000000D02*
X123000000Y-83000000D01*
D31*
X112500000Y-40000000D02*
X113740000Y-40000000D01*
D33*
X115000000Y-91000000D02*
X65000000Y-91000000D01*
D31*
X113740000Y-37660000D02*
X112490000Y-36410000D01*
D33*
X123000000Y-83000000D02*
X115000000Y-91000000D01*
X115030000Y-36410000D02*
X112490000Y-36410000D01*
X123000000Y-40500000D02*
X118910000Y-36410000D01*
D31*
X113740000Y-40000000D02*
X113740000Y-37660000D01*
%TD*%
%TA.AperFunction,Conductor*%
%TO.N,thermal*%
G36*
X73983243Y-68019685D02*
G01*
X74028998Y-68072489D01*
X74033858Y-68084841D01*
X74051383Y-68137497D01*
X74051386Y-68137503D01*
X74129171Y-68258537D01*
X74129179Y-68258548D01*
X74174923Y-68311340D01*
X74174926Y-68311343D01*
X74174930Y-68311347D01*
X74283664Y-68405567D01*
X74283667Y-68405568D01*
X74283668Y-68405569D01*
X74384932Y-68451816D01*
X74414541Y-68465338D01*
X74481580Y-68485023D01*
X74481584Y-68485024D01*
X74624000Y-68505500D01*
X74624003Y-68505500D01*
X80376000Y-68505500D01*
X80443039Y-68525185D01*
X80488794Y-68577989D01*
X80500000Y-68629500D01*
X80500000Y-84075500D01*
X80480315Y-84142539D01*
X80427511Y-84188294D01*
X80376000Y-84199500D01*
X59668872Y-84199500D01*
X59538882Y-84216615D01*
X59538881Y-84216615D01*
X59408887Y-84233728D01*
X59155580Y-84301602D01*
X58913309Y-84401954D01*
X58913299Y-84401958D01*
X58686201Y-84533072D01*
X58636689Y-84571064D01*
X58595868Y-84602388D01*
X58478150Y-84692715D01*
X58478144Y-84692720D01*
X58207185Y-84963681D01*
X58145862Y-84997166D01*
X58119504Y-85000000D01*
X40624500Y-85000000D01*
X40557461Y-84980315D01*
X40511706Y-84927511D01*
X40500500Y-84876000D01*
X40500500Y-77480844D01*
X72940000Y-77480844D01*
X72946401Y-77540372D01*
X72946403Y-77540379D01*
X72996645Y-77675086D01*
X72996649Y-77675093D01*
X73082809Y-77790187D01*
X73082812Y-77790190D01*
X73197906Y-77876350D01*
X73197913Y-77876354D01*
X73332620Y-77926596D01*
X73332627Y-77926598D01*
X73392155Y-77932999D01*
X73392172Y-77933000D01*
X76040000Y-77933000D01*
X76540000Y-77933000D01*
X79187828Y-77933000D01*
X79187844Y-77932999D01*
X79247372Y-77926598D01*
X79247379Y-77926596D01*
X79382086Y-77876354D01*
X79382093Y-77876350D01*
X79497187Y-77790190D01*
X79497190Y-77790187D01*
X79583350Y-77675093D01*
X79583354Y-77675086D01*
X79633596Y-77540379D01*
X79633598Y-77540372D01*
X79639999Y-77480844D01*
X79640000Y-77480827D01*
X79640000Y-73683000D01*
X76540000Y-73683000D01*
X76540000Y-77933000D01*
X76040000Y-77933000D01*
X76040000Y-73683000D01*
X72940000Y-73683000D01*
X72940000Y-77480844D01*
X40500500Y-77480844D01*
X40500500Y-72393713D01*
X48499500Y-72393713D01*
X48499500Y-72606286D01*
X48532753Y-72816239D01*
X48598444Y-73018414D01*
X48694951Y-73207820D01*
X48819890Y-73379786D01*
X48958705Y-73518601D01*
X48992190Y-73579924D01*
X48987206Y-73649616D01*
X48945334Y-73705549D01*
X48936121Y-73711821D01*
X48781342Y-73807289D01*
X48657289Y-73931342D01*
X48565187Y-74080663D01*
X48565186Y-74080666D01*
X48510001Y-74247203D01*
X48510001Y-74247204D01*
X48510000Y-74247204D01*
X48499500Y-74349983D01*
X48499500Y-75650001D01*
X48499501Y-75650018D01*
X48510000Y-75752796D01*
X48510001Y-75752799D01*
X48565185Y-75919331D01*
X48565186Y-75919334D01*
X48657288Y-76068656D01*
X48781344Y-76192712D01*
X48930666Y-76284814D01*
X49097203Y-76339999D01*
X49199991Y-76350500D01*
X50800008Y-76350499D01*
X50902797Y-76339999D01*
X51069334Y-76284814D01*
X51218656Y-76192712D01*
X51342712Y-76068656D01*
X51434814Y-75919334D01*
X51489999Y-75752797D01*
X51500500Y-75650009D01*
X51500499Y-74349992D01*
X51489999Y-74247203D01*
X51434814Y-74080666D01*
X51342712Y-73931344D01*
X51218656Y-73807288D01*
X51069334Y-73715186D01*
X51069333Y-73715185D01*
X51063878Y-73711821D01*
X51017154Y-73659873D01*
X51005931Y-73590910D01*
X51033775Y-73526828D01*
X51041272Y-73518623D01*
X51180104Y-73379792D01*
X51305051Y-73207816D01*
X51401557Y-73018412D01*
X51467246Y-72816243D01*
X51500500Y-72606287D01*
X51500500Y-72393713D01*
X58499500Y-72393713D01*
X58499500Y-72606286D01*
X58532753Y-72816239D01*
X58598444Y-73018414D01*
X58694951Y-73207820D01*
X58819890Y-73379786D01*
X58958705Y-73518601D01*
X58992190Y-73579924D01*
X58987206Y-73649616D01*
X58945334Y-73705549D01*
X58936121Y-73711821D01*
X58781342Y-73807289D01*
X58657289Y-73931342D01*
X58565187Y-74080663D01*
X58565186Y-74080666D01*
X58510001Y-74247203D01*
X58510001Y-74247204D01*
X58510000Y-74247204D01*
X58499500Y-74349983D01*
X58499500Y-75650001D01*
X58499501Y-75650018D01*
X58510000Y-75752796D01*
X58510001Y-75752799D01*
X58565185Y-75919331D01*
X58565186Y-75919334D01*
X58657288Y-76068656D01*
X58781344Y-76192712D01*
X58930666Y-76284814D01*
X59097203Y-76339999D01*
X59199991Y-76350500D01*
X60800008Y-76350499D01*
X60902797Y-76339999D01*
X61069334Y-76284814D01*
X61218656Y-76192712D01*
X61342712Y-76068656D01*
X61434814Y-75919334D01*
X61489999Y-75752797D01*
X61500500Y-75650009D01*
X61500499Y-74349992D01*
X61489999Y-74247203D01*
X61434814Y-74080666D01*
X61342712Y-73931344D01*
X61218656Y-73807288D01*
X61104987Y-73737176D01*
X61063879Y-73711821D01*
X61017154Y-73659873D01*
X61005931Y-73590911D01*
X61033774Y-73526828D01*
X61041272Y-73518623D01*
X61180104Y-73379792D01*
X61305051Y-73207816D01*
X61401557Y-73018412D01*
X61467246Y-72816243D01*
X61500500Y-72606287D01*
X61500500Y-72393713D01*
X61467246Y-72183757D01*
X61401557Y-71981588D01*
X61305051Y-71792184D01*
X61305049Y-71792181D01*
X61305048Y-71792179D01*
X61180109Y-71620213D01*
X61029786Y-71469890D01*
X60857820Y-71344951D01*
X60668414Y-71248444D01*
X60668413Y-71248443D01*
X60668412Y-71248443D01*
X60466243Y-71182754D01*
X60466241Y-71182753D01*
X60466240Y-71182753D01*
X60304957Y-71157208D01*
X60256287Y-71149500D01*
X59743713Y-71149500D01*
X59695042Y-71157208D01*
X59533760Y-71182753D01*
X59331585Y-71248444D01*
X59142179Y-71344951D01*
X58970213Y-71469890D01*
X58819890Y-71620213D01*
X58694951Y-71792179D01*
X58598444Y-71981585D01*
X58532753Y-72183760D01*
X58499500Y-72393713D01*
X51500500Y-72393713D01*
X51467246Y-72183757D01*
X51401557Y-71981588D01*
X51305051Y-71792184D01*
X51305049Y-71792181D01*
X51305048Y-71792179D01*
X51180109Y-71620213D01*
X51029786Y-71469890D01*
X50857820Y-71344951D01*
X50668414Y-71248444D01*
X50668413Y-71248443D01*
X50668412Y-71248443D01*
X50466243Y-71182754D01*
X50466241Y-71182753D01*
X50466240Y-71182753D01*
X50304957Y-71157208D01*
X50256287Y-71149500D01*
X49743713Y-71149500D01*
X49695042Y-71157208D01*
X49533760Y-71182753D01*
X49331585Y-71248444D01*
X49142179Y-71344951D01*
X48970213Y-71469890D01*
X48819890Y-71620213D01*
X48694951Y-71792179D01*
X48598444Y-71981585D01*
X48532753Y-72183760D01*
X48499500Y-72393713D01*
X40500500Y-72393713D01*
X40500500Y-69385155D01*
X72940000Y-69385155D01*
X72940000Y-73183000D01*
X76040000Y-73183000D01*
X76540000Y-73183000D01*
X79640000Y-73183000D01*
X79640000Y-69385172D01*
X79639999Y-69385155D01*
X79633598Y-69325627D01*
X79633596Y-69325620D01*
X79583354Y-69190913D01*
X79583350Y-69190906D01*
X79497190Y-69075812D01*
X79497187Y-69075809D01*
X79382093Y-68989649D01*
X79382086Y-68989645D01*
X79247379Y-68939403D01*
X79247372Y-68939401D01*
X79187844Y-68933000D01*
X76540000Y-68933000D01*
X76540000Y-73183000D01*
X76040000Y-73183000D01*
X76040000Y-68933000D01*
X73392155Y-68933000D01*
X73332627Y-68939401D01*
X73332620Y-68939403D01*
X73197913Y-68989645D01*
X73197906Y-68989649D01*
X73082812Y-69075809D01*
X73082809Y-69075812D01*
X72996649Y-69190906D01*
X72996645Y-69190913D01*
X72946403Y-69325620D01*
X72946401Y-69325627D01*
X72940000Y-69385155D01*
X40500500Y-69385155D01*
X40500500Y-68124000D01*
X40520185Y-68056961D01*
X40572989Y-68011206D01*
X40624500Y-68000000D01*
X73916204Y-68000000D01*
X73983243Y-68019685D01*
G37*
%TD.AperFunction*%
%TD*%
%TA.AperFunction,Conductor*%
%TO.N,+BATT*%
G36*
X119943039Y-30520185D02*
G01*
X119988794Y-30572989D01*
X120000000Y-30624500D01*
X120000000Y-33437755D01*
X119980315Y-33504794D01*
X119927511Y-33550549D01*
X119858353Y-33560493D01*
X119835047Y-33554797D01*
X119741961Y-33522225D01*
X119741953Y-33522223D01*
X119413397Y-33447233D01*
X119413381Y-33447231D01*
X119078509Y-33409500D01*
X119078505Y-33409500D01*
X119078504Y-33409500D01*
X115198504Y-33409500D01*
X112321496Y-33409500D01*
X112321491Y-33409500D01*
X111986618Y-33447231D01*
X111986602Y-33447233D01*
X111658046Y-33522223D01*
X111658034Y-33522227D01*
X111339945Y-33633532D01*
X111036316Y-33779752D01*
X110750962Y-33959053D01*
X110487476Y-34169175D01*
X110462177Y-34194473D01*
X110400853Y-34227956D01*
X110331161Y-34222969D01*
X110275229Y-34181096D01*
X110250815Y-34115631D01*
X110250499Y-34106813D01*
X110250499Y-32152128D01*
X110244091Y-32092517D01*
X110193796Y-31957669D01*
X110193795Y-31957668D01*
X110193793Y-31957664D01*
X110107547Y-31842455D01*
X110107544Y-31842452D01*
X109992335Y-31756206D01*
X109992328Y-31756202D01*
X109857482Y-31705908D01*
X109857483Y-31705908D01*
X109797883Y-31699501D01*
X109797881Y-31699500D01*
X109797873Y-31699500D01*
X109797864Y-31699500D01*
X102702129Y-31699500D01*
X102702123Y-31699501D01*
X102642516Y-31705908D01*
X102507671Y-31756202D01*
X102507664Y-31756206D01*
X102392455Y-31842452D01*
X102392452Y-31842455D01*
X102306206Y-31957664D01*
X102306202Y-31957671D01*
X102255908Y-32092517D01*
X102249501Y-32152116D01*
X102249501Y-32152123D01*
X102249500Y-32152135D01*
X102249500Y-34347870D01*
X102249501Y-34347876D01*
X102255908Y-34407483D01*
X102306202Y-34542328D01*
X102306206Y-34542335D01*
X102392452Y-34657544D01*
X102392455Y-34657547D01*
X102507664Y-34743793D01*
X102507671Y-34743797D01*
X102642517Y-34794091D01*
X102642516Y-34794091D01*
X102649444Y-34794835D01*
X102702127Y-34800500D01*
X109737445Y-34800499D01*
X109804484Y-34820184D01*
X109850239Y-34872988D01*
X109860183Y-34942146D01*
X109849165Y-34978300D01*
X109713535Y-35259937D01*
X109713532Y-35259945D01*
X109602227Y-35578034D01*
X109602223Y-35578046D01*
X109527233Y-35906602D01*
X109527231Y-35906618D01*
X109489500Y-36241491D01*
X109489500Y-36578508D01*
X109527231Y-36913381D01*
X109527233Y-36913397D01*
X109602223Y-37241953D01*
X109602227Y-37241965D01*
X109713532Y-37560054D01*
X109859752Y-37863683D01*
X109859754Y-37863686D01*
X110039054Y-38149039D01*
X110195811Y-38345606D01*
X110249174Y-38412522D01*
X110393648Y-38556996D01*
X110427133Y-38618319D01*
X110422149Y-38688011D01*
X110380277Y-38743944D01*
X110314813Y-38768361D01*
X110286570Y-38767150D01*
X110099361Y-38737500D01*
X109900639Y-38737500D01*
X109835214Y-38747862D01*
X109704362Y-38768587D01*
X109515370Y-38829993D01*
X109515367Y-38829994D01*
X109338305Y-38920213D01*
X109177533Y-39037021D01*
X109037018Y-39177536D01*
X108985904Y-39247888D01*
X108930573Y-39290553D01*
X108860960Y-39296531D01*
X108799165Y-39263924D01*
X108764809Y-39203085D01*
X108762297Y-39188253D01*
X108756091Y-39130516D01*
X108705797Y-38995671D01*
X108705793Y-38995664D01*
X108619547Y-38880455D01*
X108619544Y-38880452D01*
X108504335Y-38794206D01*
X108504328Y-38794202D01*
X108369482Y-38743908D01*
X108369483Y-38743908D01*
X108309883Y-38737501D01*
X108309881Y-38737500D01*
X108309873Y-38737500D01*
X108309864Y-38737500D01*
X106690129Y-38737500D01*
X106690123Y-38737501D01*
X106630516Y-38743908D01*
X106495671Y-38794202D01*
X106495664Y-38794206D01*
X106380455Y-38880452D01*
X106380452Y-38880455D01*
X106349266Y-38922115D01*
X106293332Y-38963986D01*
X106223641Y-38968970D01*
X106162318Y-38935484D01*
X106150734Y-38922115D01*
X106119547Y-38880455D01*
X106119544Y-38880452D01*
X106004335Y-38794206D01*
X106004328Y-38794202D01*
X105869482Y-38743908D01*
X105869483Y-38743908D01*
X105809883Y-38737501D01*
X105809881Y-38737500D01*
X105809873Y-38737500D01*
X105809864Y-38737500D01*
X104190129Y-38737500D01*
X104190123Y-38737501D01*
X104130516Y-38743908D01*
X103995671Y-38794202D01*
X103995664Y-38794206D01*
X103880455Y-38880452D01*
X103880452Y-38880455D01*
X103794206Y-38995664D01*
X103794202Y-38995671D01*
X103743908Y-39130517D01*
X103737145Y-39193428D01*
X103735880Y-39193292D01*
X103714300Y-39254334D01*
X103659093Y-39297159D01*
X103604044Y-39305357D01*
X103552268Y-39301283D01*
X102881000Y-39972551D01*
X102881000Y-39949840D01*
X102855036Y-39852939D01*
X102804876Y-39766060D01*
X102733940Y-39695124D01*
X102647061Y-39644964D01*
X102550160Y-39619000D01*
X102527447Y-39619000D01*
X103198716Y-38947731D01*
X103198715Y-38947730D01*
X103161432Y-38920641D01*
X102984437Y-38830457D01*
X102795522Y-38769075D01*
X102599321Y-38738000D01*
X102400679Y-38738000D01*
X102204479Y-38769075D01*
X102204476Y-38769075D01*
X102015562Y-38830457D01*
X101838564Y-38920643D01*
X101801283Y-38947729D01*
X101801282Y-38947730D01*
X102472554Y-39619000D01*
X102449840Y-39619000D01*
X102352939Y-39644964D01*
X102266060Y-39695124D01*
X102195124Y-39766060D01*
X102144964Y-39852939D01*
X102119000Y-39949840D01*
X102119000Y-39972552D01*
X101447730Y-39301282D01*
X101447729Y-39301283D01*
X101420643Y-39338564D01*
X101360485Y-39456630D01*
X101312510Y-39507426D01*
X101244689Y-39524221D01*
X101178554Y-39501683D01*
X101139515Y-39456630D01*
X101079358Y-39338567D01*
X100962596Y-39177860D01*
X100962596Y-39177859D01*
X100822140Y-39037403D01*
X100661432Y-38920641D01*
X100484434Y-38830456D01*
X100484436Y-38830456D01*
X100295517Y-38769074D01*
X100250000Y-38761865D01*
X100250000Y-39711184D01*
X100233940Y-39695124D01*
X100147061Y-39644964D01*
X100050160Y-39619000D01*
X99949840Y-39619000D01*
X99852939Y-39644964D01*
X99766060Y-39695124D01*
X99750000Y-39711184D01*
X99750000Y-38761865D01*
X99749999Y-38761865D01*
X99704482Y-38769074D01*
X99515564Y-38830456D01*
X99338567Y-38920641D01*
X99177860Y-39037403D01*
X99177859Y-39037403D01*
X99037403Y-39177859D01*
X99037403Y-39177860D01*
X98920641Y-39338567D01*
X98830456Y-39515564D01*
X98769074Y-39704482D01*
X98761865Y-39749999D01*
X98761865Y-39750000D01*
X99711184Y-39750000D01*
X99695124Y-39766060D01*
X99644964Y-39852939D01*
X99619000Y-39949840D01*
X99619000Y-40050160D01*
X99644964Y-40147061D01*
X99695124Y-40233940D01*
X99711184Y-40250000D01*
X98761865Y-40250000D01*
X98769074Y-40295517D01*
X98830456Y-40484435D01*
X98920641Y-40661432D01*
X99037403Y-40822139D01*
X99037403Y-40822140D01*
X99177859Y-40962596D01*
X99338567Y-41079358D01*
X99515562Y-41169542D01*
X99704473Y-41230922D01*
X99750000Y-41238133D01*
X99750000Y-40288816D01*
X99766060Y-40304876D01*
X99852939Y-40355036D01*
X99949840Y-40381000D01*
X100050160Y-40381000D01*
X100147061Y-40355036D01*
X100233940Y-40304876D01*
X100250000Y-40288816D01*
X100250000Y-41238132D01*
X100295526Y-41230922D01*
X100484437Y-41169542D01*
X100661432Y-41079358D01*
X100822139Y-40962596D01*
X100822140Y-40962596D01*
X100867409Y-40917328D01*
X100962596Y-40822140D01*
X100962596Y-40822139D01*
X101079358Y-40661432D01*
X101139515Y-40543369D01*
X101187490Y-40492573D01*
X101255311Y-40475778D01*
X101321445Y-40498315D01*
X101360485Y-40543369D01*
X101420641Y-40661432D01*
X101447730Y-40698715D01*
X101447731Y-40698716D01*
X102119000Y-40027447D01*
X102119000Y-40050160D01*
X102144964Y-40147061D01*
X102195124Y-40233940D01*
X102266060Y-40304876D01*
X102352939Y-40355036D01*
X102449840Y-40381000D01*
X102472553Y-40381000D01*
X101801283Y-41052268D01*
X101801283Y-41052269D01*
X101838567Y-41079358D01*
X102015562Y-41169542D01*
X102204477Y-41230924D01*
X102400679Y-41262000D01*
X102599321Y-41262000D01*
X102795520Y-41230924D01*
X102795523Y-41230924D01*
X102984437Y-41169542D01*
X103161425Y-41079362D01*
X103198716Y-41052268D01*
X102527448Y-40381000D01*
X102550160Y-40381000D01*
X102647061Y-40355036D01*
X102733940Y-40304876D01*
X102804876Y-40233940D01*
X102855036Y-40147061D01*
X102881000Y-40050160D01*
X102881000Y-40027447D01*
X103552268Y-40698715D01*
X103604045Y-40694642D01*
X103672422Y-40709007D01*
X103722178Y-40758059D01*
X103736173Y-40806675D01*
X103737146Y-40806571D01*
X103743908Y-40869483D01*
X103794202Y-41004328D01*
X103794206Y-41004335D01*
X103880452Y-41119544D01*
X103880455Y-41119547D01*
X103995664Y-41205793D01*
X103995671Y-41205797D01*
X104130517Y-41256091D01*
X104130516Y-41256091D01*
X104137444Y-41256835D01*
X104190127Y-41262500D01*
X105809872Y-41262499D01*
X105869483Y-41256091D01*
X106004331Y-41205796D01*
X106119546Y-41119546D01*
X106150734Y-41077884D01*
X106206666Y-41036013D01*
X106276358Y-41031029D01*
X106337681Y-41064514D01*
X106349263Y-41077881D01*
X106380453Y-41119544D01*
X106380454Y-41119546D01*
X106380455Y-41119547D01*
X106495664Y-41205793D01*
X106495671Y-41205797D01*
X106630517Y-41256091D01*
X106630516Y-41256091D01*
X106637444Y-41256835D01*
X106690127Y-41262500D01*
X108309872Y-41262499D01*
X108369483Y-41256091D01*
X108504331Y-41205796D01*
X108619546Y-41119546D01*
X108705796Y-41004331D01*
X108756091Y-40869483D01*
X108762299Y-40811739D01*
X108789034Y-40747193D01*
X108846426Y-40707344D01*
X108916251Y-40704849D01*
X108976341Y-40740501D01*
X108985904Y-40752112D01*
X109026266Y-40807664D01*
X109037019Y-40822464D01*
X109177536Y-40962981D01*
X109338306Y-41079787D01*
X109416333Y-41119544D01*
X109515367Y-41170005D01*
X109515370Y-41170006D01*
X109609866Y-41200709D01*
X109704364Y-41231413D01*
X109900639Y-41262500D01*
X109900640Y-41262500D01*
X110099360Y-41262500D01*
X110099361Y-41262500D01*
X110295636Y-41231413D01*
X110484632Y-41170005D01*
X110661694Y-41079787D01*
X110822464Y-40962981D01*
X110962981Y-40822464D01*
X111079787Y-40661694D01*
X111139515Y-40544470D01*
X111187490Y-40493675D01*
X111255311Y-40476880D01*
X111321445Y-40499417D01*
X111360484Y-40544469D01*
X111420213Y-40661694D01*
X111537019Y-40822464D01*
X111677536Y-40962981D01*
X111838306Y-41079787D01*
X111916333Y-41119544D01*
X112015367Y-41170005D01*
X112015370Y-41170006D01*
X112109866Y-41200709D01*
X112204364Y-41231413D01*
X112400639Y-41262500D01*
X112400640Y-41262500D01*
X112599360Y-41262500D01*
X112599361Y-41262500D01*
X112665485Y-41252027D01*
X112684883Y-41250500D01*
X113641583Y-41250500D01*
X113838417Y-41250500D01*
X114815117Y-41250500D01*
X114834515Y-41252027D01*
X114900639Y-41262500D01*
X114900640Y-41262500D01*
X115099360Y-41262500D01*
X115099361Y-41262500D01*
X115295636Y-41231413D01*
X115484632Y-41170005D01*
X115661694Y-41079787D01*
X115822464Y-40962981D01*
X115962981Y-40822464D01*
X116079787Y-40661694D01*
X116170005Y-40484632D01*
X116231413Y-40295636D01*
X116262500Y-40099361D01*
X116262500Y-39900639D01*
X116252027Y-39834515D01*
X116250500Y-39815117D01*
X116250500Y-39534500D01*
X116270185Y-39467461D01*
X116322989Y-39421706D01*
X116374500Y-39410500D01*
X117615790Y-39410500D01*
X117682829Y-39430185D01*
X117703471Y-39446819D01*
X118594471Y-40337819D01*
X118627956Y-40399142D01*
X118622972Y-40468834D01*
X118581100Y-40524767D01*
X118515636Y-40549184D01*
X118506790Y-40549500D01*
X117002129Y-40549500D01*
X117002123Y-40549501D01*
X116942516Y-40555908D01*
X116807671Y-40606202D01*
X116807664Y-40606206D01*
X116692455Y-40692452D01*
X116692452Y-40692455D01*
X116606206Y-40807664D01*
X116606202Y-40807671D01*
X116555908Y-40942517D01*
X116549501Y-41002116D01*
X116549501Y-41002123D01*
X116549500Y-41002135D01*
X116549500Y-49097870D01*
X116549501Y-49097876D01*
X116555908Y-49157483D01*
X116606202Y-49292328D01*
X116606206Y-49292335D01*
X116692452Y-49407544D01*
X116692455Y-49407547D01*
X116807664Y-49493793D01*
X116807671Y-49493797D01*
X116942517Y-49544091D01*
X116942516Y-49544091D01*
X116949444Y-49544835D01*
X117002127Y-49550500D01*
X119197872Y-49550499D01*
X119257483Y-49544091D01*
X119392331Y-49493796D01*
X119507546Y-49407546D01*
X119593796Y-49292331D01*
X119644091Y-49157483D01*
X119650500Y-49097873D01*
X119650499Y-41693208D01*
X119656737Y-41671963D01*
X119658317Y-41649875D01*
X119666389Y-41639091D01*
X119670184Y-41626170D01*
X119686917Y-41611670D01*
X119700189Y-41593942D01*
X119712809Y-41589234D01*
X119722988Y-41580415D01*
X119744905Y-41577263D01*
X119765653Y-41569525D01*
X119778813Y-41572387D01*
X119792146Y-41570471D01*
X119812289Y-41579670D01*
X119833926Y-41584377D01*
X119851651Y-41597645D01*
X119855702Y-41599496D01*
X119862180Y-41605528D01*
X119963181Y-41706529D01*
X119996666Y-41767852D01*
X119999500Y-41794210D01*
X119999500Y-67876000D01*
X119979815Y-67943039D01*
X119927011Y-67988794D01*
X119875500Y-68000000D01*
X119774500Y-68000000D01*
X119707461Y-67980315D01*
X119661706Y-67927511D01*
X119650500Y-67876000D01*
X119650499Y-63002129D01*
X119650498Y-63002123D01*
X119650497Y-63002116D01*
X119644091Y-62942517D01*
X119616852Y-62869486D01*
X119593797Y-62807671D01*
X119593793Y-62807664D01*
X119507547Y-62692455D01*
X119507544Y-62692452D01*
X119392335Y-62606206D01*
X119392328Y-62606202D01*
X119257482Y-62555908D01*
X119257483Y-62555908D01*
X119197883Y-62549501D01*
X119197881Y-62549500D01*
X119197873Y-62549500D01*
X119197865Y-62549500D01*
X117085430Y-62549500D01*
X117018391Y-62529815D01*
X116972636Y-62477011D01*
X116962692Y-62407853D01*
X116965656Y-62393406D01*
X116966270Y-62391116D01*
X117000500Y-62131120D01*
X117000500Y-61868880D01*
X116966270Y-61608884D01*
X116898398Y-61355581D01*
X116891349Y-61338564D01*
X116798046Y-61113309D01*
X116798041Y-61113299D01*
X116666924Y-60886196D01*
X116507281Y-60678148D01*
X116507274Y-60678140D01*
X116321860Y-60492726D01*
X116321851Y-60492718D01*
X116113803Y-60333075D01*
X115886700Y-60201958D01*
X115886690Y-60201953D01*
X115644428Y-60101605D01*
X115644421Y-60101603D01*
X115644419Y-60101602D01*
X115391116Y-60033730D01*
X115333339Y-60026123D01*
X115131127Y-59999500D01*
X115131120Y-59999500D01*
X112631120Y-59999500D01*
X112368880Y-59999500D01*
X112368872Y-59999500D01*
X112137772Y-60029926D01*
X112108884Y-60033730D01*
X111855581Y-60101602D01*
X111855571Y-60101605D01*
X111613309Y-60201953D01*
X111613299Y-60201958D01*
X111386196Y-60333075D01*
X111178148Y-60492718D01*
X110992718Y-60678148D01*
X110830604Y-60889418D01*
X110829751Y-60888763D01*
X110779779Y-60930521D01*
X110710453Y-60939224D01*
X110665509Y-60922550D01*
X110661702Y-60920217D01*
X110484632Y-60829994D01*
X110484629Y-60829993D01*
X110295637Y-60768587D01*
X110197498Y-60753043D01*
X110099361Y-60737500D01*
X109900639Y-60737500D01*
X109835214Y-60747862D01*
X109704362Y-60768587D01*
X109515370Y-60829993D01*
X109515367Y-60829994D01*
X109338305Y-60920213D01*
X109177533Y-61037021D01*
X109037018Y-61177536D01*
X108985904Y-61247888D01*
X108930573Y-61290553D01*
X108860960Y-61296531D01*
X108799165Y-61263924D01*
X108764809Y-61203085D01*
X108762297Y-61188253D01*
X108756091Y-61130516D01*
X108705797Y-60995671D01*
X108705793Y-60995664D01*
X108619547Y-60880455D01*
X108619544Y-60880452D01*
X108504335Y-60794206D01*
X108504328Y-60794202D01*
X108369482Y-60743908D01*
X108369483Y-60743908D01*
X108309883Y-60737501D01*
X108309881Y-60737500D01*
X108309873Y-60737500D01*
X108309864Y-60737500D01*
X106690129Y-60737500D01*
X106690123Y-60737501D01*
X106630516Y-60743908D01*
X106495671Y-60794202D01*
X106495664Y-60794206D01*
X106380455Y-60880452D01*
X106380452Y-60880455D01*
X106349266Y-60922115D01*
X106293332Y-60963986D01*
X106223641Y-60968970D01*
X106162318Y-60935484D01*
X106150734Y-60922115D01*
X106119547Y-60880455D01*
X106119544Y-60880452D01*
X106004335Y-60794206D01*
X106004328Y-60794202D01*
X105869482Y-60743908D01*
X105869483Y-60743908D01*
X105809883Y-60737501D01*
X105809881Y-60737500D01*
X105809873Y-60737500D01*
X105809864Y-60737500D01*
X104190129Y-60737500D01*
X104190123Y-60737501D01*
X104130516Y-60743908D01*
X103995671Y-60794202D01*
X103995664Y-60794206D01*
X103880455Y-60880452D01*
X103880452Y-60880455D01*
X103794206Y-60995664D01*
X103794202Y-60995671D01*
X103743908Y-61130517D01*
X103737145Y-61193428D01*
X103735880Y-61193292D01*
X103714300Y-61254334D01*
X103659093Y-61297159D01*
X103604044Y-61305357D01*
X103552268Y-61301283D01*
X102881000Y-61972551D01*
X102881000Y-61949840D01*
X102855036Y-61852939D01*
X102804876Y-61766060D01*
X102733940Y-61695124D01*
X102647061Y-61644964D01*
X102550160Y-61619000D01*
X102527447Y-61619000D01*
X103198716Y-60947731D01*
X103198715Y-60947730D01*
X103161432Y-60920641D01*
X102984437Y-60830457D01*
X102795522Y-60769075D01*
X102599321Y-60738000D01*
X102400679Y-60738000D01*
X102204479Y-60769075D01*
X102204476Y-60769075D01*
X102015562Y-60830457D01*
X101838564Y-60920643D01*
X101801283Y-60947729D01*
X101801282Y-60947730D01*
X102472554Y-61619000D01*
X102449840Y-61619000D01*
X102352939Y-61644964D01*
X102266060Y-61695124D01*
X102195124Y-61766060D01*
X102144964Y-61852939D01*
X102119000Y-61949840D01*
X102119000Y-61972552D01*
X101447730Y-61301282D01*
X101447729Y-61301283D01*
X101420643Y-61338564D01*
X101360485Y-61456630D01*
X101312510Y-61507426D01*
X101244689Y-61524221D01*
X101178554Y-61501683D01*
X101139515Y-61456630D01*
X101079358Y-61338567D01*
X100962596Y-61177860D01*
X100962596Y-61177859D01*
X100822140Y-61037403D01*
X100661432Y-60920641D01*
X100484434Y-60830456D01*
X100484436Y-60830456D01*
X100295517Y-60769074D01*
X100250000Y-60761865D01*
X100250000Y-61711184D01*
X100233940Y-61695124D01*
X100147061Y-61644964D01*
X100050160Y-61619000D01*
X99949840Y-61619000D01*
X99852939Y-61644964D01*
X99766060Y-61695124D01*
X99750000Y-61711184D01*
X99750000Y-60761865D01*
X99749999Y-60761865D01*
X99704482Y-60769074D01*
X99515564Y-60830456D01*
X99338567Y-60920641D01*
X99177860Y-61037403D01*
X99177859Y-61037403D01*
X99037403Y-61177859D01*
X99037403Y-61177860D01*
X98920641Y-61338567D01*
X98830456Y-61515564D01*
X98769074Y-61704482D01*
X98761865Y-61749999D01*
X98761865Y-61750000D01*
X99711184Y-61750000D01*
X99695124Y-61766060D01*
X99644964Y-61852939D01*
X99619000Y-61949840D01*
X99619000Y-62050160D01*
X99644964Y-62147061D01*
X99695124Y-62233940D01*
X99711184Y-62250000D01*
X98761865Y-62250000D01*
X98769074Y-62295517D01*
X98830456Y-62484435D01*
X98920641Y-62661432D01*
X99037403Y-62822139D01*
X99037403Y-62822140D01*
X99177859Y-62962596D01*
X99338567Y-63079358D01*
X99515562Y-63169542D01*
X99704473Y-63230922D01*
X99750000Y-63238133D01*
X99750000Y-62288816D01*
X99766060Y-62304876D01*
X99852939Y-62355036D01*
X99949840Y-62381000D01*
X100050160Y-62381000D01*
X100147061Y-62355036D01*
X100233940Y-62304876D01*
X100250000Y-62288816D01*
X100250000Y-63238132D01*
X100295526Y-63230922D01*
X100484437Y-63169542D01*
X100661432Y-63079358D01*
X100822139Y-62962596D01*
X100822140Y-62962596D01*
X100867409Y-62917328D01*
X100962596Y-62822140D01*
X100962596Y-62822139D01*
X101079358Y-62661432D01*
X101139515Y-62543369D01*
X101187490Y-62492573D01*
X101255311Y-62475778D01*
X101321445Y-62498315D01*
X101360485Y-62543369D01*
X101420641Y-62661432D01*
X101447730Y-62698715D01*
X101447731Y-62698716D01*
X102119000Y-62027447D01*
X102119000Y-62050160D01*
X102144964Y-62147061D01*
X102195124Y-62233940D01*
X102266060Y-62304876D01*
X102352939Y-62355036D01*
X102449840Y-62381000D01*
X102472553Y-62381000D01*
X101801283Y-63052268D01*
X101801283Y-63052269D01*
X101838567Y-63079358D01*
X102015562Y-63169542D01*
X102204477Y-63230924D01*
X102400679Y-63262000D01*
X102599321Y-63262000D01*
X102795520Y-63230924D01*
X102795523Y-63230924D01*
X102984437Y-63169542D01*
X103161425Y-63079362D01*
X103198716Y-63052268D01*
X102527448Y-62381000D01*
X102550160Y-62381000D01*
X102647061Y-62355036D01*
X102733940Y-62304876D01*
X102804876Y-62233940D01*
X102855036Y-62147061D01*
X102881000Y-62050160D01*
X102881000Y-62027447D01*
X103552268Y-62698715D01*
X103604045Y-62694642D01*
X103672422Y-62709007D01*
X103722178Y-62758059D01*
X103736173Y-62806675D01*
X103737146Y-62806571D01*
X103743908Y-62869483D01*
X103794202Y-63004328D01*
X103794206Y-63004335D01*
X103880452Y-63119544D01*
X103880455Y-63119547D01*
X103995664Y-63205793D01*
X103995671Y-63205797D01*
X104130517Y-63256091D01*
X104130516Y-63256091D01*
X104137444Y-63256835D01*
X104190127Y-63262500D01*
X105809872Y-63262499D01*
X105869483Y-63256091D01*
X106004331Y-63205796D01*
X106119546Y-63119546D01*
X106150734Y-63077884D01*
X106206666Y-63036013D01*
X106276358Y-63031029D01*
X106337681Y-63064514D01*
X106349263Y-63077881D01*
X106380453Y-63119544D01*
X106380454Y-63119546D01*
X106380455Y-63119547D01*
X106495664Y-63205793D01*
X106495671Y-63205797D01*
X106630517Y-63256091D01*
X106630516Y-63256091D01*
X106637444Y-63256835D01*
X106690127Y-63262500D01*
X108309872Y-63262499D01*
X108369483Y-63256091D01*
X108504331Y-63205796D01*
X108619546Y-63119546D01*
X108705796Y-63004331D01*
X108756091Y-62869483D01*
X108762299Y-62811739D01*
X108789034Y-62747193D01*
X108846426Y-62707344D01*
X108916251Y-62704849D01*
X108976341Y-62740501D01*
X108985904Y-62752112D01*
X109026266Y-62807664D01*
X109037019Y-62822464D01*
X109177536Y-62962981D01*
X109338306Y-63079787D01*
X109416333Y-63119544D01*
X109515367Y-63170005D01*
X109515370Y-63170006D01*
X109609866Y-63200709D01*
X109704364Y-63231413D01*
X109900639Y-63262500D01*
X109900640Y-63262500D01*
X110099360Y-63262500D01*
X110099361Y-63262500D01*
X110295636Y-63231413D01*
X110337182Y-63217913D01*
X110407023Y-63215919D01*
X110466856Y-63251999D01*
X110497684Y-63314700D01*
X110499500Y-63335845D01*
X110499500Y-67876000D01*
X110479815Y-67943039D01*
X110427011Y-67988794D01*
X110375500Y-68000000D01*
X98574500Y-68000000D01*
X98507461Y-67980315D01*
X98461706Y-67927511D01*
X98450500Y-67876000D01*
X98450499Y-63002129D01*
X98450498Y-63002123D01*
X98450497Y-63002116D01*
X98444091Y-62942517D01*
X98416852Y-62869486D01*
X98393797Y-62807671D01*
X98393793Y-62807664D01*
X98307547Y-62692455D01*
X98307544Y-62692452D01*
X98192335Y-62606206D01*
X98192328Y-62606202D01*
X98057482Y-62555908D01*
X98057483Y-62555908D01*
X97997883Y-62549501D01*
X97997881Y-62549500D01*
X97997873Y-62549500D01*
X97997864Y-62549500D01*
X95802129Y-62549500D01*
X95802123Y-62549501D01*
X95742516Y-62555908D01*
X95607671Y-62606202D01*
X95607664Y-62606206D01*
X95492455Y-62692452D01*
X95492452Y-62692455D01*
X95406206Y-62807664D01*
X95406202Y-62807671D01*
X95355908Y-62942517D01*
X95349501Y-63002116D01*
X95349501Y-63002123D01*
X95349500Y-63002135D01*
X95349500Y-66687450D01*
X95329815Y-66754489D01*
X95277011Y-66800244D01*
X95207853Y-66810188D01*
X95144297Y-66781163D01*
X95115014Y-66743742D01*
X95112286Y-66738387D01*
X94991971Y-66572786D01*
X94847213Y-66428028D01*
X94681613Y-66307715D01*
X94681612Y-66307714D01*
X94681610Y-66307713D01*
X94622335Y-66277511D01*
X94499223Y-66214781D01*
X94304534Y-66151522D01*
X94129995Y-66123878D01*
X94102352Y-66119500D01*
X93897648Y-66119500D01*
X93873329Y-66123351D01*
X93695465Y-66151522D01*
X93500776Y-66214781D01*
X93318386Y-66307715D01*
X93152786Y-66428028D01*
X93008028Y-66572786D01*
X92887715Y-66738386D01*
X92794781Y-66920776D01*
X92731522Y-67115465D01*
X92699500Y-67317648D01*
X92699500Y-67522352D01*
X92702704Y-67542580D01*
X92731522Y-67724534D01*
X92768287Y-67837681D01*
X92770282Y-67907522D01*
X92734202Y-67967355D01*
X92671501Y-67998184D01*
X92650356Y-68000000D01*
X91349644Y-68000000D01*
X91282605Y-67980315D01*
X91236850Y-67927511D01*
X91226906Y-67858353D01*
X91231713Y-67837681D01*
X91268477Y-67724534D01*
X91297296Y-67542580D01*
X91300500Y-67522352D01*
X91300500Y-67317648D01*
X91292257Y-67265606D01*
X91268477Y-67115465D01*
X91237458Y-67020000D01*
X91205220Y-66920781D01*
X91205218Y-66920778D01*
X91205218Y-66920776D01*
X91143803Y-66800244D01*
X91112287Y-66738390D01*
X91080092Y-66694077D01*
X90991971Y-66572786D01*
X90847213Y-66428028D01*
X90681613Y-66307715D01*
X90681612Y-66307714D01*
X90681610Y-66307713D01*
X90622335Y-66277511D01*
X90499223Y-66214781D01*
X90304534Y-66151522D01*
X90129995Y-66123878D01*
X90102352Y-66119500D01*
X89897648Y-66119500D01*
X89873329Y-66123351D01*
X89695465Y-66151522D01*
X89500776Y-66214781D01*
X89318386Y-66307715D01*
X89152786Y-66428028D01*
X89008028Y-66572786D01*
X88887715Y-66738386D01*
X88794781Y-66920776D01*
X88731522Y-67115465D01*
X88699500Y-67317648D01*
X88699500Y-67522352D01*
X88702704Y-67542580D01*
X88731522Y-67724534D01*
X88768287Y-67837681D01*
X88770282Y-67907522D01*
X88734202Y-67967355D01*
X88671501Y-67998184D01*
X88650356Y-68000000D01*
X87349644Y-68000000D01*
X87282605Y-67980315D01*
X87236850Y-67927511D01*
X87226906Y-67858353D01*
X87231713Y-67837681D01*
X87268477Y-67724534D01*
X87297296Y-67542580D01*
X87300500Y-67522352D01*
X87300500Y-67317648D01*
X87292257Y-67265606D01*
X87268477Y-67115465D01*
X87237458Y-67020000D01*
X87205220Y-66920781D01*
X87205218Y-66920778D01*
X87205218Y-66920776D01*
X87143803Y-66800244D01*
X87112287Y-66738390D01*
X87080092Y-66694077D01*
X86991971Y-66572786D01*
X86847213Y-66428028D01*
X86681613Y-66307715D01*
X86681612Y-66307714D01*
X86681610Y-66307713D01*
X86622335Y-66277511D01*
X86499223Y-66214781D01*
X86304534Y-66151522D01*
X86129995Y-66123878D01*
X86102352Y-66119500D01*
X85897648Y-66119500D01*
X85873329Y-66123351D01*
X85695465Y-66151522D01*
X85500776Y-66214781D01*
X85318386Y-66307715D01*
X85152786Y-66428028D01*
X85008028Y-66572786D01*
X84887715Y-66738386D01*
X84794781Y-66920776D01*
X84731522Y-67115465D01*
X84699500Y-67317648D01*
X84699500Y-67522352D01*
X84702704Y-67542580D01*
X84731522Y-67724534D01*
X84768287Y-67837681D01*
X84770282Y-67907522D01*
X84734202Y-67967355D01*
X84671501Y-67998184D01*
X84650356Y-68000000D01*
X83349119Y-68000000D01*
X83282080Y-67980315D01*
X83236325Y-67927511D01*
X83226381Y-67858353D01*
X83231188Y-67837681D01*
X83267990Y-67724417D01*
X83300000Y-67522317D01*
X83300000Y-67317682D01*
X83267990Y-67115582D01*
X83204755Y-66920968D01*
X83111859Y-66738650D01*
X83079474Y-66694077D01*
X83079474Y-66694076D01*
X82400000Y-67373551D01*
X82400000Y-67367339D01*
X82372741Y-67265606D01*
X82320080Y-67174394D01*
X82245606Y-67099920D01*
X82154394Y-67047259D01*
X82052661Y-67020000D01*
X82046446Y-67020000D01*
X82725922Y-66340524D01*
X82725921Y-66340523D01*
X82681359Y-66308147D01*
X82681350Y-66308141D01*
X82499031Y-66215244D01*
X82304417Y-66152009D01*
X82102317Y-66120000D01*
X81897683Y-66120000D01*
X81695582Y-66152009D01*
X81500968Y-66215244D01*
X81318644Y-66308143D01*
X81274077Y-66340523D01*
X81274077Y-66340524D01*
X81953554Y-67020000D01*
X81947339Y-67020000D01*
X81845606Y-67047259D01*
X81754394Y-67099920D01*
X81679920Y-67174394D01*
X81627259Y-67265606D01*
X81600000Y-67367339D01*
X81600000Y-67373553D01*
X80920524Y-66694077D01*
X80920523Y-66694077D01*
X80888143Y-66738644D01*
X80795244Y-66920968D01*
X80732009Y-67115582D01*
X80700000Y-67317682D01*
X80700000Y-67522317D01*
X80732009Y-67724417D01*
X80768812Y-67837681D01*
X80770807Y-67907523D01*
X80734727Y-67967356D01*
X80672026Y-67998184D01*
X80650881Y-68000000D01*
X74624000Y-68000000D01*
X74556961Y-67980315D01*
X74511206Y-67927511D01*
X74500000Y-67876000D01*
X74500000Y-66387996D01*
X74519685Y-66320957D01*
X74567706Y-66277511D01*
X74712400Y-66203786D01*
X74712399Y-66203786D01*
X74712402Y-66203785D01*
X74885492Y-66078028D01*
X75036778Y-65926742D01*
X75044986Y-65915444D01*
X75100311Y-65872775D01*
X75169923Y-65866791D01*
X75231721Y-65899392D01*
X75245625Y-65915436D01*
X75253602Y-65926416D01*
X75404834Y-66077648D01*
X75404839Y-66077652D01*
X75577855Y-66203355D01*
X75768416Y-66300451D01*
X75971820Y-66366542D01*
X75971817Y-66366542D01*
X76040000Y-66377340D01*
X76040000Y-65490747D01*
X76077708Y-65512518D01*
X76217591Y-65550000D01*
X76362409Y-65550000D01*
X76502292Y-65512518D01*
X76540000Y-65490747D01*
X76540000Y-66377339D01*
X76608181Y-66366542D01*
X76811583Y-66300451D01*
X77002140Y-66203357D01*
X77111159Y-66124150D01*
X77176965Y-66100670D01*
X77245019Y-66116495D01*
X77283311Y-66150156D01*
X77363705Y-66257547D01*
X77478914Y-66343793D01*
X77478921Y-66343797D01*
X77613767Y-66394091D01*
X77613766Y-66394091D01*
X77620694Y-66394835D01*
X77673377Y-66400500D01*
X79486622Y-66400499D01*
X79546233Y-66394091D01*
X79681081Y-66343796D01*
X79728702Y-66308147D01*
X79754925Y-66288517D01*
X79778381Y-66270956D01*
X79796296Y-66257546D01*
X79882546Y-66142331D01*
X79932841Y-66007483D01*
X79939250Y-65947873D01*
X79939249Y-64052128D01*
X79932841Y-63992517D01*
X79897735Y-63898394D01*
X79882547Y-63857671D01*
X79882543Y-63857664D01*
X79796297Y-63742455D01*
X79796294Y-63742452D01*
X79681085Y-63656206D01*
X79681078Y-63656202D01*
X79546232Y-63605908D01*
X79546233Y-63605908D01*
X79486633Y-63599501D01*
X79486631Y-63599500D01*
X79486623Y-63599500D01*
X79486614Y-63599500D01*
X77673379Y-63599500D01*
X77673373Y-63599501D01*
X77613766Y-63605908D01*
X77478921Y-63656202D01*
X77478914Y-63656206D01*
X77363705Y-63742452D01*
X77283312Y-63849843D01*
X77227378Y-63891713D01*
X77157686Y-63896697D01*
X77111161Y-63875849D01*
X77002144Y-63796644D01*
X76811583Y-63699549D01*
X76608169Y-63633455D01*
X76540000Y-63622657D01*
X76540000Y-64509252D01*
X76502292Y-64487482D01*
X76362409Y-64450000D01*
X76217591Y-64450000D01*
X76077708Y-64487482D01*
X76040000Y-64509252D01*
X76040000Y-63622657D01*
X75971830Y-63633455D01*
X75768416Y-63699549D01*
X75577855Y-63796644D01*
X75447385Y-63891436D01*
X75381578Y-63914916D01*
X75313525Y-63899090D01*
X75264830Y-63848984D01*
X75250500Y-63791118D01*
X75250500Y-60388549D01*
X84299500Y-60388549D01*
X84299500Y-60611450D01*
X84299501Y-60611466D01*
X84328594Y-60832452D01*
X84328595Y-60832457D01*
X84328596Y-60832463D01*
X84386290Y-61047780D01*
X84386293Y-61047790D01*
X84471593Y-61253722D01*
X84471595Y-61253726D01*
X84583052Y-61446774D01*
X84583057Y-61446780D01*
X84583058Y-61446782D01*
X84718751Y-61623622D01*
X84718757Y-61623629D01*
X84876370Y-61781242D01*
X84876376Y-61781247D01*
X85053226Y-61916948D01*
X85246274Y-62028405D01*
X85452219Y-62113710D01*
X85667537Y-62171404D01*
X85888543Y-62200500D01*
X85888550Y-62200500D01*
X86111450Y-62200500D01*
X86111457Y-62200500D01*
X86332463Y-62171404D01*
X86547781Y-62113710D01*
X86564810Y-62106656D01*
X86584799Y-62098377D01*
X86640080Y-62075478D01*
X86753726Y-62028405D01*
X86946774Y-61916948D01*
X87123624Y-61781247D01*
X87162072Y-61742799D01*
X87205491Y-61699381D01*
X87281242Y-61623629D01*
X87281247Y-61623624D01*
X87416948Y-61446774D01*
X87528405Y-61253726D01*
X87613710Y-61047781D01*
X87671404Y-60832463D01*
X87700500Y-60611457D01*
X87700500Y-60388543D01*
X87671404Y-60167537D01*
X87613710Y-59952219D01*
X87528405Y-59746274D01*
X87416948Y-59553226D01*
X87281247Y-59376376D01*
X87281242Y-59376370D01*
X87123629Y-59218757D01*
X87123622Y-59218751D01*
X86946782Y-59083058D01*
X86946780Y-59083057D01*
X86946774Y-59083052D01*
X86753726Y-58971595D01*
X86753722Y-58971593D01*
X86547790Y-58886293D01*
X86547783Y-58886291D01*
X86547781Y-58886290D01*
X86332463Y-58828596D01*
X86332457Y-58828595D01*
X86332452Y-58828594D01*
X86111466Y-58799501D01*
X86111463Y-58799500D01*
X86111457Y-58799500D01*
X85888543Y-58799500D01*
X85888537Y-58799500D01*
X85888533Y-58799501D01*
X85667547Y-58828594D01*
X85667540Y-58828595D01*
X85667537Y-58828596D01*
X85452219Y-58886290D01*
X85452209Y-58886293D01*
X85246277Y-58971593D01*
X85246273Y-58971595D01*
X85053226Y-59083052D01*
X85053217Y-59083058D01*
X84876377Y-59218751D01*
X84876370Y-59218757D01*
X84718757Y-59376370D01*
X84718751Y-59376377D01*
X84583058Y-59553217D01*
X84583052Y-59553226D01*
X84471595Y-59746273D01*
X84471593Y-59746277D01*
X84386293Y-59952209D01*
X84386290Y-59952219D01*
X84346063Y-60102351D01*
X84328597Y-60167534D01*
X84328594Y-60167547D01*
X84299501Y-60388533D01*
X84299500Y-60388549D01*
X75250500Y-60388549D01*
X75250500Y-60379500D01*
X75256569Y-60341182D01*
X75259203Y-60333075D01*
X75268477Y-60304534D01*
X75300500Y-60102352D01*
X75300500Y-59897648D01*
X75268477Y-59695466D01*
X75205220Y-59500781D01*
X75205218Y-59500778D01*
X75205218Y-59500776D01*
X75171503Y-59434607D01*
X75112287Y-59318390D01*
X75104556Y-59307749D01*
X74991971Y-59152786D01*
X74847213Y-59008028D01*
X74681611Y-58887713D01*
X74567704Y-58829673D01*
X74516908Y-58781698D01*
X74500000Y-58719189D01*
X74500000Y-52000014D01*
X84300000Y-52000014D01*
X84300000Y-52750000D01*
X85451518Y-52750000D01*
X85440889Y-52768409D01*
X85400000Y-52921009D01*
X85400000Y-53078991D01*
X85440889Y-53231591D01*
X85451518Y-53250000D01*
X84300000Y-53250000D01*
X84300000Y-53999985D01*
X84310493Y-54102689D01*
X84310494Y-54102696D01*
X84365641Y-54269118D01*
X84365643Y-54269123D01*
X84457684Y-54418344D01*
X84581655Y-54542315D01*
X84730876Y-54634356D01*
X84730881Y-54634358D01*
X84897303Y-54689505D01*
X84897310Y-54689506D01*
X85000014Y-54699999D01*
X85000027Y-54700000D01*
X85750000Y-54700000D01*
X85750000Y-53548482D01*
X85768409Y-53559111D01*
X85921009Y-53600000D01*
X86078991Y-53600000D01*
X86231591Y-53559111D01*
X86250000Y-53548482D01*
X86250000Y-54700000D01*
X86999973Y-54700000D01*
X86999985Y-54699999D01*
X87102689Y-54689506D01*
X87102696Y-54689505D01*
X87269118Y-54634358D01*
X87269123Y-54634356D01*
X87418344Y-54542315D01*
X87542315Y-54418344D01*
X87634356Y-54269123D01*
X87634358Y-54269118D01*
X87673123Y-54152135D01*
X102249500Y-54152135D01*
X102249500Y-56347870D01*
X102249501Y-56347876D01*
X102255908Y-56407483D01*
X102306202Y-56542328D01*
X102306206Y-56542335D01*
X102392452Y-56657544D01*
X102392455Y-56657547D01*
X102507664Y-56743793D01*
X102507671Y-56743797D01*
X102642517Y-56794091D01*
X102642516Y-56794091D01*
X102649444Y-56794835D01*
X102702127Y-56800500D01*
X109797872Y-56800499D01*
X109857483Y-56794091D01*
X109992331Y-56743796D01*
X110107546Y-56657546D01*
X110193796Y-56542331D01*
X110244091Y-56407483D01*
X110250500Y-56347873D01*
X110250499Y-54152128D01*
X110244091Y-54092517D01*
X110193796Y-53957669D01*
X110193795Y-53957668D01*
X110193793Y-53957664D01*
X110107547Y-53842455D01*
X110107544Y-53842452D01*
X109992335Y-53756206D01*
X109992328Y-53756202D01*
X109857482Y-53705908D01*
X109857483Y-53705908D01*
X109797883Y-53699501D01*
X109797881Y-53699500D01*
X109797873Y-53699500D01*
X109797864Y-53699500D01*
X102702129Y-53699500D01*
X102702123Y-53699501D01*
X102642516Y-53705908D01*
X102507671Y-53756202D01*
X102507664Y-53756206D01*
X102392455Y-53842452D01*
X102392452Y-53842455D01*
X102306206Y-53957664D01*
X102306202Y-53957671D01*
X102255908Y-54092517D01*
X102249501Y-54152116D01*
X102249501Y-54152123D01*
X102249500Y-54152135D01*
X87673123Y-54152135D01*
X87687151Y-54109802D01*
X87689504Y-54102698D01*
X87689506Y-54102689D01*
X87699999Y-53999985D01*
X87700000Y-53999972D01*
X87700000Y-53250000D01*
X86548482Y-53250000D01*
X86559111Y-53231591D01*
X86600000Y-53078991D01*
X86600000Y-52921009D01*
X86559111Y-52768409D01*
X86548482Y-52750000D01*
X87700000Y-52750000D01*
X87700000Y-52000027D01*
X87699999Y-52000014D01*
X87689506Y-51897310D01*
X87689505Y-51897303D01*
X87634358Y-51730881D01*
X87634356Y-51730876D01*
X87542315Y-51581655D01*
X87418344Y-51457684D01*
X87269123Y-51365643D01*
X87269118Y-51365641D01*
X87102696Y-51310494D01*
X87102689Y-51310493D01*
X86999985Y-51300000D01*
X86250000Y-51300000D01*
X86250000Y-52451517D01*
X86231591Y-52440889D01*
X86078991Y-52400000D01*
X85921009Y-52400000D01*
X85768409Y-52440889D01*
X85750000Y-52451517D01*
X85750000Y-51300000D01*
X85000014Y-51300000D01*
X84897310Y-51310493D01*
X84897303Y-51310494D01*
X84730881Y-51365641D01*
X84730876Y-51365643D01*
X84581655Y-51457684D01*
X84457684Y-51581655D01*
X84365643Y-51730876D01*
X84365641Y-51730881D01*
X84310494Y-51897303D01*
X84310493Y-51897310D01*
X84300000Y-52000014D01*
X74500000Y-52000014D01*
X74500000Y-51280809D01*
X74519685Y-51213770D01*
X74567703Y-51170325D01*
X74681610Y-51112287D01*
X74702770Y-51096913D01*
X74847213Y-50991971D01*
X74847215Y-50991968D01*
X74847219Y-50991966D01*
X74991966Y-50847219D01*
X74991968Y-50847215D01*
X74991971Y-50847213D01*
X75044732Y-50774590D01*
X75112287Y-50681610D01*
X75205220Y-50499219D01*
X75268477Y-50304534D01*
X75300500Y-50102352D01*
X75300500Y-49952135D01*
X102249500Y-49952135D01*
X102249500Y-52147870D01*
X102249501Y-52147876D01*
X102255908Y-52207483D01*
X102306202Y-52342328D01*
X102306206Y-52342335D01*
X102392452Y-52457544D01*
X102392455Y-52457547D01*
X102507664Y-52543793D01*
X102507671Y-52543797D01*
X102642517Y-52594091D01*
X102642516Y-52594091D01*
X102649444Y-52594835D01*
X102702127Y-52600500D01*
X109797872Y-52600499D01*
X109857483Y-52594091D01*
X109992331Y-52543796D01*
X110107546Y-52457546D01*
X110193796Y-52342331D01*
X110244091Y-52207483D01*
X110250500Y-52147873D01*
X110250499Y-49952128D01*
X110244091Y-49892517D01*
X110193796Y-49757669D01*
X110193795Y-49757668D01*
X110193793Y-49757664D01*
X110107547Y-49642455D01*
X110107544Y-49642452D01*
X109992335Y-49556206D01*
X109992328Y-49556202D01*
X109857482Y-49505908D01*
X109857483Y-49505908D01*
X109797883Y-49499501D01*
X109797881Y-49499500D01*
X109797873Y-49499500D01*
X109797864Y-49499500D01*
X102702129Y-49499500D01*
X102702123Y-49499501D01*
X102642516Y-49505908D01*
X102507671Y-49556202D01*
X102507664Y-49556206D01*
X102392455Y-49642452D01*
X102392452Y-49642455D01*
X102306206Y-49757664D01*
X102306202Y-49757671D01*
X102255908Y-49892517D01*
X102249501Y-49952116D01*
X102249501Y-49952123D01*
X102249500Y-49952135D01*
X75300500Y-49952135D01*
X75300500Y-49897648D01*
X75299687Y-49892516D01*
X75268477Y-49695465D01*
X75223227Y-49556202D01*
X75205220Y-49500781D01*
X75205218Y-49500778D01*
X75205218Y-49500776D01*
X75157713Y-49407544D01*
X75112287Y-49318390D01*
X75093352Y-49292328D01*
X74991971Y-49152786D01*
X74847213Y-49008028D01*
X74681611Y-48887713D01*
X74567704Y-48829673D01*
X74516908Y-48781698D01*
X74500000Y-48719189D01*
X74500000Y-42388549D01*
X84299500Y-42388549D01*
X84299500Y-42611450D01*
X84299501Y-42611466D01*
X84328594Y-42832452D01*
X84328595Y-42832457D01*
X84328596Y-42832463D01*
X84328597Y-42832465D01*
X84386290Y-43047780D01*
X84386293Y-43047790D01*
X84471593Y-43253722D01*
X84471595Y-43253726D01*
X84583052Y-43446774D01*
X84583057Y-43446780D01*
X84583058Y-43446782D01*
X84718751Y-43623622D01*
X84718757Y-43623629D01*
X84876370Y-43781242D01*
X84876376Y-43781247D01*
X85053226Y-43916948D01*
X85246274Y-44028405D01*
X85452219Y-44113710D01*
X85667537Y-44171404D01*
X85888543Y-44200500D01*
X85888550Y-44200500D01*
X86111450Y-44200500D01*
X86111457Y-44200500D01*
X86332463Y-44171404D01*
X86547781Y-44113710D01*
X86753726Y-44028405D01*
X86946774Y-43916948D01*
X87123624Y-43781247D01*
X87281247Y-43623624D01*
X87416948Y-43446774D01*
X87528405Y-43253726D01*
X87613710Y-43047781D01*
X87671404Y-42832463D01*
X87700500Y-42611457D01*
X87700500Y-42388543D01*
X87671404Y-42167537D01*
X87613710Y-41952219D01*
X87528405Y-41746274D01*
X87416948Y-41553226D01*
X87281247Y-41376376D01*
X87281242Y-41376370D01*
X87123629Y-41218757D01*
X87123622Y-41218751D01*
X86965189Y-41097182D01*
X86946782Y-41083058D01*
X86946780Y-41083057D01*
X86946774Y-41083052D01*
X86806623Y-41002135D01*
X95349500Y-41002135D01*
X95349500Y-49097870D01*
X95349501Y-49097876D01*
X95355908Y-49157483D01*
X95406202Y-49292328D01*
X95406206Y-49292335D01*
X95492452Y-49407544D01*
X95492455Y-49407547D01*
X95607664Y-49493793D01*
X95607671Y-49493797D01*
X95742517Y-49544091D01*
X95742516Y-49544091D01*
X95749444Y-49544835D01*
X95802127Y-49550500D01*
X97997872Y-49550499D01*
X98057483Y-49544091D01*
X98192331Y-49493796D01*
X98307546Y-49407546D01*
X98393796Y-49292331D01*
X98444091Y-49157483D01*
X98450500Y-49097873D01*
X98450499Y-41002128D01*
X98444091Y-40942517D01*
X98416852Y-40869486D01*
X98393797Y-40807671D01*
X98393793Y-40807664D01*
X98307547Y-40692455D01*
X98307544Y-40692452D01*
X98192335Y-40606206D01*
X98192328Y-40606202D01*
X98057482Y-40555908D01*
X98057483Y-40555908D01*
X97997883Y-40549501D01*
X97997881Y-40549500D01*
X97997873Y-40549500D01*
X97997864Y-40549500D01*
X95802129Y-40549500D01*
X95802123Y-40549501D01*
X95742516Y-40555908D01*
X95607671Y-40606202D01*
X95607664Y-40606206D01*
X95492455Y-40692452D01*
X95492452Y-40692455D01*
X95406206Y-40807664D01*
X95406202Y-40807671D01*
X95355908Y-40942517D01*
X95349501Y-41002116D01*
X95349501Y-41002123D01*
X95349500Y-41002135D01*
X86806623Y-41002135D01*
X86753726Y-40971595D01*
X86753722Y-40971593D01*
X86547790Y-40886293D01*
X86547783Y-40886291D01*
X86547781Y-40886290D01*
X86332463Y-40828596D01*
X86332457Y-40828595D01*
X86332452Y-40828594D01*
X86111466Y-40799501D01*
X86111463Y-40799500D01*
X86111457Y-40799500D01*
X85888543Y-40799500D01*
X85888537Y-40799500D01*
X85888533Y-40799501D01*
X85667547Y-40828594D01*
X85667540Y-40828595D01*
X85667537Y-40828596D01*
X85514944Y-40869483D01*
X85452219Y-40886290D01*
X85452209Y-40886293D01*
X85246277Y-40971593D01*
X85246273Y-40971595D01*
X85053226Y-41083052D01*
X85053217Y-41083058D01*
X84876377Y-41218751D01*
X84876370Y-41218757D01*
X84718757Y-41376370D01*
X84718751Y-41376377D01*
X84583058Y-41553217D01*
X84583052Y-41553226D01*
X84471595Y-41746273D01*
X84471593Y-41746277D01*
X84386293Y-41952209D01*
X84386290Y-41952219D01*
X84328597Y-42167534D01*
X84328594Y-42167547D01*
X84299501Y-42388533D01*
X84299500Y-42388549D01*
X74500000Y-42388549D01*
X74500000Y-34000014D01*
X84300000Y-34000014D01*
X84300000Y-34750000D01*
X85451518Y-34750000D01*
X85440889Y-34768409D01*
X85400000Y-34921009D01*
X85400000Y-35078991D01*
X85440889Y-35231591D01*
X85451518Y-35250000D01*
X84300000Y-35250000D01*
X84300000Y-35999985D01*
X84310493Y-36102689D01*
X84310494Y-36102696D01*
X84365641Y-36269118D01*
X84365643Y-36269123D01*
X84457684Y-36418344D01*
X84581655Y-36542315D01*
X84730876Y-36634356D01*
X84730881Y-36634358D01*
X84897303Y-36689505D01*
X84897310Y-36689506D01*
X85000014Y-36699999D01*
X85000027Y-36700000D01*
X85750000Y-36700000D01*
X85750000Y-35548482D01*
X85768409Y-35559111D01*
X85921009Y-35600000D01*
X86078991Y-35600000D01*
X86231591Y-35559111D01*
X86250000Y-35548482D01*
X86250000Y-36700000D01*
X86999973Y-36700000D01*
X86999985Y-36699999D01*
X87102689Y-36689506D01*
X87102696Y-36689505D01*
X87269118Y-36634358D01*
X87269123Y-36634356D01*
X87418344Y-36542315D01*
X87542315Y-36418344D01*
X87634356Y-36269123D01*
X87634358Y-36269118D01*
X87689505Y-36102696D01*
X87689506Y-36102689D01*
X87699999Y-35999985D01*
X87700000Y-35999972D01*
X87700000Y-35250000D01*
X86548482Y-35250000D01*
X86559111Y-35231591D01*
X86600000Y-35078991D01*
X86600000Y-34921009D01*
X86559111Y-34768409D01*
X86548482Y-34750000D01*
X87700000Y-34750000D01*
X87700000Y-34000027D01*
X87699999Y-34000014D01*
X87689506Y-33897310D01*
X87689505Y-33897303D01*
X87634358Y-33730881D01*
X87634356Y-33730876D01*
X87542315Y-33581655D01*
X87418344Y-33457684D01*
X87269123Y-33365643D01*
X87269118Y-33365641D01*
X87102696Y-33310494D01*
X87102689Y-33310493D01*
X86999985Y-33300000D01*
X86250000Y-33300000D01*
X86250000Y-34451517D01*
X86231591Y-34440889D01*
X86078991Y-34400000D01*
X85921009Y-34400000D01*
X85768409Y-34440889D01*
X85750000Y-34451517D01*
X85750000Y-33300000D01*
X85000014Y-33300000D01*
X84897310Y-33310493D01*
X84897303Y-33310494D01*
X84730881Y-33365641D01*
X84730876Y-33365643D01*
X84581655Y-33457684D01*
X84457684Y-33581655D01*
X84365643Y-33730876D01*
X84365641Y-33730881D01*
X84310494Y-33897303D01*
X84310493Y-33897310D01*
X84300000Y-34000014D01*
X74500000Y-34000014D01*
X74500000Y-30624500D01*
X74519685Y-30557461D01*
X74572489Y-30511706D01*
X74624000Y-30500500D01*
X119876000Y-30500500D01*
X119943039Y-30520185D01*
G37*
%TD.AperFunction*%
%TD*%
%TA.AperFunction,NonConductor*%
G36*
X116468830Y-63462812D02*
G01*
X116524765Y-63504682D01*
X116549184Y-63570146D01*
X116549500Y-63578995D01*
X116549500Y-67174394D01*
X116549501Y-67876000D01*
X116529816Y-67943039D01*
X116477012Y-67988794D01*
X116425501Y-68000000D01*
X114624500Y-68000000D01*
X114557461Y-67980315D01*
X114511706Y-67927511D01*
X114500500Y-67876000D01*
X114500500Y-64124500D01*
X114520185Y-64057461D01*
X114572989Y-64011706D01*
X114624500Y-64000500D01*
X115131113Y-64000500D01*
X115131120Y-64000500D01*
X115391116Y-63966270D01*
X115644419Y-63898398D01*
X115886697Y-63798043D01*
X116113803Y-63666924D01*
X116321851Y-63507282D01*
X116337818Y-63491314D01*
X116399139Y-63457829D01*
X116468830Y-63462812D01*
G37*
%TD.AperFunction*%
%TA.AperFunction,Conductor*%
%TO.N,Net-(J1-Pin_2)*%
G36*
X73937539Y-30520185D02*
G01*
X73983294Y-30572989D01*
X73994500Y-30624500D01*
X73994500Y-48578254D01*
X73974815Y-48645293D01*
X73922011Y-48691048D01*
X73889898Y-48700727D01*
X73695465Y-48731522D01*
X73500776Y-48794781D01*
X73318386Y-48887715D01*
X73152786Y-49008028D01*
X73008028Y-49152786D01*
X72887715Y-49318386D01*
X72794781Y-49500776D01*
X72731522Y-49695465D01*
X72699500Y-49897648D01*
X72699500Y-50102351D01*
X72731522Y-50304534D01*
X72794781Y-50499223D01*
X72887715Y-50681613D01*
X73008028Y-50847213D01*
X73152786Y-50991971D01*
X73294998Y-51095292D01*
X73318390Y-51112287D01*
X73434607Y-51171503D01*
X73500776Y-51205218D01*
X73500778Y-51205218D01*
X73500781Y-51205220D01*
X73695466Y-51268477D01*
X73889899Y-51299272D01*
X73953033Y-51329201D01*
X73989964Y-51388513D01*
X73994500Y-51421745D01*
X73994500Y-58578759D01*
X73974815Y-58645798D01*
X73922011Y-58691553D01*
X73889899Y-58701232D01*
X73695581Y-58732010D01*
X73500968Y-58795244D01*
X73318644Y-58888143D01*
X73274077Y-58920523D01*
X73274077Y-58920524D01*
X73953553Y-59600000D01*
X73947339Y-59600000D01*
X73845606Y-59627259D01*
X73754394Y-59679920D01*
X73679920Y-59754394D01*
X73627259Y-59845606D01*
X73600000Y-59947339D01*
X73600000Y-59953553D01*
X72920524Y-59274077D01*
X72920523Y-59274077D01*
X72888143Y-59318644D01*
X72795244Y-59500968D01*
X72732009Y-59695582D01*
X72700000Y-59897682D01*
X72700000Y-60102317D01*
X72732009Y-60304417D01*
X72795244Y-60499031D01*
X72888141Y-60681350D01*
X72888147Y-60681359D01*
X72920523Y-60725921D01*
X72920524Y-60725922D01*
X73600000Y-60046446D01*
X73600000Y-60052661D01*
X73627259Y-60154394D01*
X73679920Y-60245606D01*
X73754394Y-60320080D01*
X73845606Y-60372741D01*
X73947339Y-60400000D01*
X73953552Y-60400000D01*
X73274076Y-61079474D01*
X73318650Y-61111859D01*
X73500968Y-61204755D01*
X73695582Y-61267990D01*
X73897683Y-61300000D01*
X74102317Y-61300000D01*
X74304417Y-61267990D01*
X74337681Y-61257182D01*
X74407523Y-61255187D01*
X74467356Y-61291267D01*
X74498184Y-61353968D01*
X74500000Y-61375113D01*
X74500000Y-63521863D01*
X74480315Y-63588902D01*
X74427511Y-63634657D01*
X74358353Y-63644601D01*
X74337684Y-63639795D01*
X74318170Y-63633455D01*
X74250000Y-63622657D01*
X74250000Y-64509252D01*
X74212292Y-64487482D01*
X74072409Y-64450000D01*
X73927591Y-64450000D01*
X73787708Y-64487482D01*
X73750000Y-64509252D01*
X73750000Y-63622657D01*
X73681830Y-63633455D01*
X73478416Y-63699549D01*
X73287855Y-63796644D01*
X73114839Y-63922347D01*
X73114834Y-63922351D01*
X72963601Y-64073584D01*
X72963597Y-64073589D01*
X72837894Y-64246605D01*
X72740799Y-64437166D01*
X72674705Y-64640580D01*
X72657375Y-64750000D01*
X73509252Y-64750000D01*
X73487482Y-64787708D01*
X73450000Y-64927591D01*
X73450000Y-65072409D01*
X73487482Y-65212292D01*
X73509252Y-65250000D01*
X72657375Y-65250000D01*
X72674705Y-65359419D01*
X72740799Y-65562833D01*
X72837894Y-65753394D01*
X72963597Y-65926410D01*
X72963601Y-65926415D01*
X73114834Y-66077648D01*
X73114839Y-66077652D01*
X73287855Y-66203355D01*
X73478416Y-66300450D01*
X73681832Y-66366545D01*
X73681829Y-66366545D01*
X73889897Y-66399499D01*
X73953032Y-66429428D01*
X73989964Y-66488739D01*
X73994500Y-66521972D01*
X73994500Y-67370500D01*
X73974815Y-67437539D01*
X73922011Y-67483294D01*
X73870500Y-67494500D01*
X40624500Y-67494500D01*
X40557461Y-67474815D01*
X40511706Y-67422011D01*
X40500500Y-67370500D01*
X40500500Y-62393713D01*
X48499500Y-62393713D01*
X48499500Y-62606286D01*
X48523370Y-62756999D01*
X48532754Y-62816243D01*
X48597063Y-63014166D01*
X48598444Y-63018414D01*
X48694951Y-63207820D01*
X48819890Y-63379786D01*
X48958705Y-63518601D01*
X48992190Y-63579924D01*
X48987206Y-63649616D01*
X48945334Y-63705549D01*
X48936121Y-63711821D01*
X48781342Y-63807289D01*
X48657289Y-63931342D01*
X48565187Y-64080663D01*
X48565186Y-64080666D01*
X48510001Y-64247203D01*
X48510001Y-64247204D01*
X48510000Y-64247204D01*
X48499500Y-64349983D01*
X48499500Y-65650001D01*
X48499501Y-65650018D01*
X48510000Y-65752796D01*
X48510001Y-65752799D01*
X48565185Y-65919331D01*
X48565187Y-65919336D01*
X48581698Y-65946105D01*
X48657288Y-66068656D01*
X48781344Y-66192712D01*
X48930666Y-66284814D01*
X49097203Y-66339999D01*
X49199991Y-66350500D01*
X50800008Y-66350499D01*
X50902797Y-66339999D01*
X51069334Y-66284814D01*
X51218656Y-66192712D01*
X51342712Y-66068656D01*
X51434814Y-65919334D01*
X51489999Y-65752797D01*
X51500500Y-65650009D01*
X51500499Y-64349992D01*
X51489999Y-64247203D01*
X51434814Y-64080666D01*
X51342712Y-63931344D01*
X51218656Y-63807288D01*
X51069334Y-63715186D01*
X51069333Y-63715185D01*
X51063878Y-63711821D01*
X51017154Y-63659873D01*
X51005931Y-63590910D01*
X51033775Y-63526828D01*
X51041272Y-63518623D01*
X51180104Y-63379792D01*
X51305051Y-63207816D01*
X51401557Y-63018412D01*
X51467246Y-62816243D01*
X51500500Y-62606287D01*
X51500500Y-62393713D01*
X51467246Y-62183757D01*
X51401557Y-61981588D01*
X51305051Y-61792184D01*
X51305049Y-61792181D01*
X51305048Y-61792179D01*
X51180109Y-61620213D01*
X51029786Y-61469890D01*
X50857820Y-61344951D01*
X50668414Y-61248444D01*
X50668413Y-61248443D01*
X50668412Y-61248443D01*
X50466243Y-61182754D01*
X50466241Y-61182753D01*
X50466240Y-61182753D01*
X50304957Y-61157208D01*
X50256287Y-61149500D01*
X49743713Y-61149500D01*
X49695042Y-61157208D01*
X49533760Y-61182753D01*
X49331585Y-61248444D01*
X49142179Y-61344951D01*
X48970213Y-61469890D01*
X48819890Y-61620213D01*
X48694951Y-61792179D01*
X48598444Y-61981585D01*
X48532753Y-62183760D01*
X48499500Y-62393713D01*
X40500500Y-62393713D01*
X40500500Y-59897648D01*
X62539500Y-59897648D01*
X62539500Y-60102351D01*
X62571522Y-60304534D01*
X62634781Y-60499223D01*
X62675088Y-60578328D01*
X62727585Y-60681359D01*
X62727715Y-60681613D01*
X62848028Y-60847213D01*
X62992786Y-60991971D01*
X63113226Y-61079474D01*
X63158390Y-61112287D01*
X63231425Y-61149500D01*
X63340776Y-61205218D01*
X63340778Y-61205218D01*
X63340781Y-61205220D01*
X63445137Y-61239127D01*
X63535465Y-61268477D01*
X63636557Y-61284488D01*
X63737648Y-61300500D01*
X63737649Y-61300500D01*
X63942351Y-61300500D01*
X63942352Y-61300500D01*
X64144534Y-61268477D01*
X64339219Y-61205220D01*
X64521610Y-61112287D01*
X64614590Y-61044732D01*
X64687213Y-60991971D01*
X64687215Y-60991968D01*
X64687219Y-60991966D01*
X64831966Y-60847219D01*
X64831968Y-60847215D01*
X64831971Y-60847213D01*
X64899489Y-60754281D01*
X64952287Y-60681610D01*
X65045220Y-60499219D01*
X65108477Y-60304534D01*
X65140500Y-60102352D01*
X65140500Y-59897648D01*
X65124537Y-59796865D01*
X65108477Y-59695465D01*
X65046351Y-59504262D01*
X65045220Y-59500781D01*
X65045218Y-59500778D01*
X65045218Y-59500776D01*
X64990610Y-59393603D01*
X64952287Y-59318390D01*
X64920092Y-59274077D01*
X64831971Y-59152786D01*
X64687213Y-59008028D01*
X64521613Y-58887715D01*
X64521612Y-58887714D01*
X64521610Y-58887713D01*
X64449906Y-58851178D01*
X64339223Y-58794781D01*
X64144534Y-58731522D01*
X63953287Y-58701232D01*
X63942352Y-58699500D01*
X63737648Y-58699500D01*
X63726713Y-58701232D01*
X63535465Y-58731522D01*
X63340776Y-58794781D01*
X63158386Y-58887715D01*
X62992786Y-59008028D01*
X62848028Y-59152786D01*
X62727715Y-59318386D01*
X62634781Y-59500776D01*
X62571522Y-59695465D01*
X62539500Y-59897648D01*
X40500500Y-59897648D01*
X40500500Y-52652135D01*
X52499500Y-52652135D01*
X52499500Y-53647870D01*
X52499501Y-53647876D01*
X52505908Y-53707483D01*
X52556202Y-53842328D01*
X52556206Y-53842335D01*
X52642452Y-53957544D01*
X52642455Y-53957547D01*
X52757664Y-54043793D01*
X52757671Y-54043797D01*
X52892517Y-54094091D01*
X52892516Y-54094091D01*
X52899444Y-54094835D01*
X52952127Y-54100500D01*
X55047872Y-54100499D01*
X55107483Y-54094091D01*
X55242331Y-54043796D01*
X55357546Y-53957546D01*
X55443796Y-53842331D01*
X55494091Y-53707483D01*
X55500500Y-53647873D01*
X55500499Y-52652128D01*
X55494091Y-52592517D01*
X55478419Y-52550499D01*
X55443797Y-52457671D01*
X55443793Y-52457664D01*
X55357547Y-52342455D01*
X55357544Y-52342452D01*
X55242335Y-52256206D01*
X55242328Y-52256202D01*
X55107482Y-52205908D01*
X55107483Y-52205908D01*
X55047883Y-52199501D01*
X55047881Y-52199500D01*
X55047873Y-52199500D01*
X55047864Y-52199500D01*
X52952129Y-52199500D01*
X52952123Y-52199501D01*
X52892516Y-52205908D01*
X52757671Y-52256202D01*
X52757664Y-52256206D01*
X52642455Y-52342452D01*
X52642452Y-52342455D01*
X52556206Y-52457664D01*
X52556202Y-52457671D01*
X52505908Y-52592517D01*
X52499501Y-52652116D01*
X52499501Y-52652123D01*
X52499500Y-52652135D01*
X40500500Y-52652135D01*
X40500500Y-48904702D01*
X57449500Y-48904702D01*
X57449500Y-51095292D01*
X57449501Y-51095298D01*
X57459718Y-51240027D01*
X57459718Y-51240031D01*
X57459719Y-51240034D01*
X57459720Y-51240038D01*
X57513834Y-51480314D01*
X57513835Y-51480319D01*
X57605795Y-51708809D01*
X57733216Y-51919589D01*
X57782606Y-51977654D01*
X57892798Y-52107201D01*
X58001309Y-52199500D01*
X58080411Y-52266784D01*
X58291191Y-52394205D01*
X58519683Y-52486165D01*
X58759966Y-52540281D01*
X58904705Y-52550500D01*
X61095294Y-52550499D01*
X61240034Y-52540281D01*
X61480317Y-52486165D01*
X61708809Y-52394205D01*
X61919589Y-52266784D01*
X62107201Y-52107201D01*
X62266784Y-51919589D01*
X62394205Y-51708809D01*
X62486165Y-51480317D01*
X62540281Y-51240034D01*
X62550500Y-51095295D01*
X62550499Y-50819327D01*
X62570183Y-50752291D01*
X62622987Y-50706536D01*
X62692146Y-50696592D01*
X62755701Y-50725617D01*
X62774817Y-50746445D01*
X62848028Y-50847212D01*
X62848032Y-50847217D01*
X62992786Y-50991971D01*
X63134998Y-51095292D01*
X63158390Y-51112287D01*
X63274607Y-51171503D01*
X63340776Y-51205218D01*
X63340778Y-51205218D01*
X63340781Y-51205220D01*
X63445137Y-51239127D01*
X63535465Y-51268477D01*
X63636557Y-51284488D01*
X63737648Y-51300500D01*
X63737649Y-51300500D01*
X63942351Y-51300500D01*
X63942352Y-51300500D01*
X64144534Y-51268477D01*
X64339219Y-51205220D01*
X64521610Y-51112287D01*
X64614590Y-51044732D01*
X64687213Y-50991971D01*
X64687215Y-50991968D01*
X64687219Y-50991966D01*
X64831966Y-50847219D01*
X64831968Y-50847215D01*
X64831971Y-50847213D01*
X64884732Y-50774590D01*
X64952287Y-50681610D01*
X65045220Y-50499219D01*
X65108477Y-50304534D01*
X65140500Y-50102352D01*
X65140500Y-49897648D01*
X65108477Y-49695465D01*
X65045218Y-49500776D01*
X65011503Y-49434607D01*
X64952287Y-49318390D01*
X64940524Y-49302200D01*
X64831971Y-49152786D01*
X64687213Y-49008028D01*
X64521613Y-48887715D01*
X64521612Y-48887714D01*
X64521610Y-48887713D01*
X64464653Y-48858691D01*
X64339223Y-48794781D01*
X64144534Y-48731522D01*
X63969995Y-48703878D01*
X63942352Y-48699500D01*
X63737648Y-48699500D01*
X63713329Y-48703351D01*
X63535465Y-48731522D01*
X63340776Y-48794781D01*
X63158386Y-48887715D01*
X62992786Y-49008028D01*
X62848032Y-49152782D01*
X62848028Y-49152787D01*
X62774817Y-49253555D01*
X62719488Y-49296221D01*
X62649874Y-49302200D01*
X62588079Y-49269595D01*
X62553722Y-49208756D01*
X62550499Y-49180670D01*
X62550499Y-48904707D01*
X62550499Y-48904705D01*
X62540281Y-48759966D01*
X62486165Y-48519683D01*
X62394205Y-48291191D01*
X62266784Y-48080411D01*
X62200930Y-48002990D01*
X62107201Y-47892798D01*
X61977654Y-47782606D01*
X61919589Y-47733216D01*
X61708809Y-47605795D01*
X61480318Y-47513835D01*
X61240036Y-47459719D01*
X61240029Y-47459718D01*
X61095296Y-47449500D01*
X58904707Y-47449500D01*
X58904701Y-47449501D01*
X58759972Y-47459718D01*
X58759966Y-47459718D01*
X58759966Y-47459719D01*
X58759963Y-47459719D01*
X58759961Y-47459720D01*
X58519685Y-47513834D01*
X58519680Y-47513835D01*
X58291190Y-47605795D01*
X58291185Y-47605798D01*
X58080417Y-47733212D01*
X58080407Y-47733219D01*
X57892798Y-47892798D01*
X57733219Y-48080407D01*
X57733212Y-48080417D01*
X57605798Y-48291185D01*
X57605795Y-48291190D01*
X57513835Y-48519680D01*
X57513835Y-48519682D01*
X57459719Y-48759963D01*
X57459718Y-48759970D01*
X57449500Y-48904702D01*
X40500500Y-48904702D01*
X40500500Y-42656790D01*
X57450000Y-42656790D01*
X57450000Y-42943209D01*
X57482066Y-43227801D01*
X57482068Y-43227817D01*
X57545799Y-43507042D01*
X57545803Y-43507054D01*
X57640396Y-43777383D01*
X57764662Y-44035424D01*
X57917042Y-44277935D01*
X58028608Y-44417836D01*
X58884728Y-43561716D01*
X58970278Y-43679466D01*
X59120534Y-43829722D01*
X59238282Y-43915270D01*
X58382162Y-44771390D01*
X58522064Y-44882957D01*
X58764575Y-45035337D01*
X59022616Y-45159603D01*
X59292945Y-45254196D01*
X59292957Y-45254200D01*
X59572182Y-45317931D01*
X59572198Y-45317933D01*
X59856790Y-45349999D01*
X59856792Y-45350000D01*
X60143208Y-45350000D01*
X60143209Y-45349999D01*
X60427801Y-45317933D01*
X60427817Y-45317931D01*
X60707042Y-45254200D01*
X60707054Y-45254196D01*
X60977383Y-45159603D01*
X61235424Y-45035337D01*
X61477935Y-44882958D01*
X61617836Y-44771389D01*
X60761717Y-43915271D01*
X60879466Y-43829722D01*
X61029722Y-43679466D01*
X61115270Y-43561717D01*
X61971389Y-44417836D01*
X62082958Y-44277935D01*
X62235337Y-44035424D01*
X62359603Y-43777383D01*
X62454196Y-43507054D01*
X62454200Y-43507042D01*
X62517931Y-43227817D01*
X62517933Y-43227801D01*
X62549999Y-42943209D01*
X62550000Y-42943207D01*
X62550000Y-42656792D01*
X62549999Y-42656790D01*
X62517933Y-42372198D01*
X62517931Y-42372182D01*
X62454200Y-42092957D01*
X62454196Y-42092945D01*
X62359603Y-41822616D01*
X62235337Y-41564575D01*
X62082957Y-41322064D01*
X61971390Y-41182162D01*
X61115270Y-42038281D01*
X61029722Y-41920534D01*
X60879466Y-41770278D01*
X60761716Y-41684728D01*
X61617836Y-40828608D01*
X61477935Y-40717042D01*
X61235424Y-40564662D01*
X60977383Y-40440396D01*
X60707054Y-40345803D01*
X60707042Y-40345799D01*
X60427817Y-40282068D01*
X60427801Y-40282066D01*
X60143209Y-40250000D01*
X59856790Y-40250000D01*
X59572198Y-40282066D01*
X59572182Y-40282068D01*
X59292957Y-40345799D01*
X59292945Y-40345803D01*
X59022616Y-40440396D01*
X58764575Y-40564662D01*
X58522070Y-40717038D01*
X58382163Y-40828609D01*
X59238282Y-41684728D01*
X59120534Y-41770278D01*
X58970278Y-41920534D01*
X58884728Y-42038282D01*
X58028609Y-41182163D01*
X57917038Y-41322070D01*
X57764662Y-41564575D01*
X57640396Y-41822616D01*
X57545803Y-42092945D01*
X57545799Y-42092957D01*
X57482068Y-42372182D01*
X57482066Y-42372198D01*
X57450000Y-42656790D01*
X40500500Y-42656790D01*
X40500500Y-39152135D01*
X52499500Y-39152135D01*
X52499500Y-40147870D01*
X52499501Y-40147876D01*
X52505908Y-40207483D01*
X52556202Y-40342328D01*
X52556206Y-40342335D01*
X52642452Y-40457544D01*
X52642455Y-40457547D01*
X52757664Y-40543793D01*
X52757671Y-40543797D01*
X52892517Y-40594091D01*
X52892516Y-40594091D01*
X52899444Y-40594835D01*
X52952127Y-40600500D01*
X55047872Y-40600499D01*
X55107483Y-40594091D01*
X55242331Y-40543796D01*
X55357546Y-40457546D01*
X55443796Y-40342331D01*
X55494091Y-40207483D01*
X55500500Y-40147873D01*
X55500499Y-39152128D01*
X55494091Y-39092517D01*
X55479431Y-39053212D01*
X55443797Y-38957671D01*
X55443793Y-38957664D01*
X55357547Y-38842455D01*
X55357544Y-38842452D01*
X55242335Y-38756206D01*
X55242328Y-38756202D01*
X55107482Y-38705908D01*
X55107483Y-38705908D01*
X55047883Y-38699501D01*
X55047881Y-38699500D01*
X55047873Y-38699500D01*
X55047864Y-38699500D01*
X52952129Y-38699500D01*
X52952123Y-38699501D01*
X52892516Y-38705908D01*
X52757671Y-38756202D01*
X52757664Y-38756206D01*
X52642455Y-38842452D01*
X52642452Y-38842455D01*
X52556206Y-38957664D01*
X52556202Y-38957671D01*
X52505908Y-39092517D01*
X52499877Y-39148621D01*
X52499501Y-39152123D01*
X52499500Y-39152135D01*
X40500500Y-39152135D01*
X40500500Y-34857744D01*
X42829500Y-34857744D01*
X42829500Y-35142255D01*
X42829501Y-35142271D01*
X42866636Y-35424341D01*
X42866637Y-35424346D01*
X42866638Y-35424352D01*
X42940278Y-35699181D01*
X43019026Y-35889295D01*
X43049159Y-35962043D01*
X43049164Y-35962054D01*
X43191422Y-36208451D01*
X43364628Y-36434179D01*
X43364634Y-36434186D01*
X43565813Y-36635365D01*
X43565820Y-36635371D01*
X43791548Y-36808577D01*
X44037945Y-36950835D01*
X44037950Y-36950837D01*
X44037953Y-36950839D01*
X44300819Y-37059722D01*
X44575648Y-37133362D01*
X44857738Y-37170500D01*
X44857745Y-37170500D01*
X45142255Y-37170500D01*
X45142262Y-37170500D01*
X45424352Y-37133362D01*
X45699181Y-37059722D01*
X45962047Y-36950839D01*
X46208452Y-36808577D01*
X46434181Y-36635370D01*
X46635370Y-36434181D01*
X46808577Y-36208452D01*
X46950839Y-35962047D01*
X47059722Y-35699181D01*
X47133362Y-35424352D01*
X47170500Y-35142262D01*
X47170500Y-34857738D01*
X47133362Y-34575648D01*
X47059722Y-34300819D01*
X46950839Y-34037953D01*
X46950837Y-34037950D01*
X46950835Y-34037945D01*
X46808577Y-33791548D01*
X46635371Y-33565820D01*
X46635365Y-33565813D01*
X46434186Y-33364634D01*
X46434179Y-33364628D01*
X46208451Y-33191422D01*
X45962054Y-33049164D01*
X45962043Y-33049159D01*
X45898261Y-33022740D01*
X45699181Y-32940278D01*
X45424352Y-32866638D01*
X45424346Y-32866637D01*
X45424341Y-32866636D01*
X45142271Y-32829501D01*
X45142268Y-32829500D01*
X45142262Y-32829500D01*
X44857738Y-32829500D01*
X44857732Y-32829500D01*
X44857728Y-32829501D01*
X44575658Y-32866636D01*
X44575651Y-32866637D01*
X44575648Y-32866638D01*
X44300819Y-32940278D01*
X44178729Y-32990849D01*
X44037956Y-33049159D01*
X44037945Y-33049164D01*
X43791548Y-33191422D01*
X43565820Y-33364628D01*
X43565813Y-33364634D01*
X43364634Y-33565813D01*
X43364628Y-33565820D01*
X43191422Y-33791548D01*
X43049164Y-34037945D01*
X43049159Y-34037956D01*
X43009487Y-34133734D01*
X42940278Y-34300819D01*
X42872854Y-34552452D01*
X42866639Y-34575645D01*
X42866636Y-34575658D01*
X42829501Y-34857728D01*
X42829500Y-34857744D01*
X40500500Y-34857744D01*
X40500500Y-32004427D01*
X40500816Y-31995581D01*
X40515130Y-31795443D01*
X40517646Y-31777938D01*
X40559356Y-31586200D01*
X40564335Y-31569242D01*
X40632911Y-31385382D01*
X40640251Y-31369310D01*
X40734294Y-31197083D01*
X40743850Y-31182214D01*
X40861443Y-31025128D01*
X40873017Y-31011771D01*
X41011771Y-30873017D01*
X41025128Y-30861443D01*
X41182214Y-30743850D01*
X41197083Y-30734294D01*
X41369310Y-30640251D01*
X41385382Y-30632911D01*
X41569242Y-30564335D01*
X41586200Y-30559356D01*
X41777938Y-30517646D01*
X41795436Y-30515130D01*
X41995582Y-30500816D01*
X42004428Y-30500500D01*
X42065892Y-30500500D01*
X73870500Y-30500500D01*
X73937539Y-30520185D01*
G37*
%TD.AperFunction*%
%TD*%
M02*
