%TF.GenerationSoftware,KiCad,Pcbnew,9.0.9.1*%
%TF.CreationDate,2026-09-09T22:42:28+09:00*%
%TF.ProjectId,TRIA_ControlPowerBoard,54524941-5f43-46f6-9e74-726f6c506f77,rev?*%
%TF.SameCoordinates,Original*%
%TF.FileFunction,Copper,L2,Bot*%
%TF.FilePolarity,Positive*%
%FSLAX46Y46*%
G04 Gerber Fmt 4.6, Leading zero omitted, Abs format (unit mm)*
G04 Created by KiCad (PCBNEW 9.0.9.1) date 2026-09-09 22:42:28*
%MOMM*%
%LPD*%
G01*
G04 APERTURE LIST*
G04 Aperture macros list*
%AMRoundRect*
0 Rectangle with rounded corners*
0 $1 Rounding radius*
0 $2 $3 $4 $5 $6 $7 $8 $9 X,Y pos of 4 corners*
0 Add a 4 corners polygon primitive as box body*
4,1,4,$2,$3,$4,$5,$6,$7,$8,$9,$2,$3,0*
0 Add four circle primitives for the rounded corners*
1,1,$1+$1,$2,$3*
1,1,$1+$1,$4,$5*
1,1,$1+$1,$6,$7*
1,1,$1+$1,$8,$9*
0 Add four rect primitives between the rounded corners*
20,1,$1+$1,$2,$3,$4,$5,0*
20,1,$1+$1,$4,$5,$6,$7,0*
20,1,$1+$1,$6,$7,$8,$9,0*
20,1,$1+$1,$8,$9,$2,$3,0*%
G04 Aperture macros list end*
%TA.AperFunction,ComponentPad*%
%ADD10RoundRect,0.250000X-0.750000X-0.750000X0.750000X-0.750000X0.750000X0.750000X-0.750000X0.750000X0*%
%TD*%
%TA.AperFunction,ComponentPad*%
%ADD11C,2.000000*%
%TD*%
%TA.AperFunction,ComponentPad*%
%ADD12R,1.800000X1.800000*%
%TD*%
%TA.AperFunction,ComponentPad*%
%ADD13C,1.800000*%
%TD*%
%TA.AperFunction,ComponentPad*%
%ADD14C,1.600000*%
%TD*%
%TA.AperFunction,ComponentPad*%
%ADD15RoundRect,0.760000X1.140000X-1.140000X1.140000X1.140000X-1.140000X1.140000X-1.140000X-1.140000X0*%
%TD*%
%TA.AperFunction,ComponentPad*%
%ADD16C,4.000000*%
%TD*%
%TA.AperFunction,ComponentPad*%
%ADD17RoundRect,0.250000X0.750000X-0.600000X0.750000X0.600000X-0.750000X0.600000X-0.750000X-0.600000X0*%
%TD*%
%TA.AperFunction,ComponentPad*%
%ADD18O,2.000000X1.700000*%
%TD*%
%TA.AperFunction,ComponentPad*%
%ADD19R,2.000000X0.900000*%
%TD*%
%TA.AperFunction,ComponentPad*%
%ADD20RoundRect,1.025000X1.025000X-1.025000X1.025000X1.025000X-1.025000X1.025000X-1.025000X-1.025000X0*%
%TD*%
%TA.AperFunction,ComponentPad*%
%ADD21C,4.100000*%
%TD*%
%TA.AperFunction,ComponentPad*%
%ADD22RoundRect,0.250001X-0.949999X0.949999X-0.949999X-0.949999X0.949999X-0.949999X0.949999X0.949999X0*%
%TD*%
%TA.AperFunction,ComponentPad*%
%ADD23C,2.400000*%
%TD*%
%TA.AperFunction,ComponentPad*%
%ADD24C,1.524000*%
%TD*%
%TA.AperFunction,ComponentPad*%
%ADD25R,2.100000X8.000000*%
%TD*%
%TA.AperFunction,ComponentPad*%
%ADD26R,1.524000X1.524000*%
%TD*%
%TA.AperFunction,ComponentPad*%
%ADD27R,7.000000X2.100000*%
%TD*%
%TA.AperFunction,ComponentPad*%
%ADD28O,1.717500X1.800000*%
%TD*%
%TA.AperFunction,ComponentPad*%
%ADD29R,1.717500X1.800000*%
%TD*%
%TA.AperFunction,Conductor*%
%ADD30C,1.500000*%
%TD*%
G04 APERTURE END LIST*
D10*
%TO.P,C5,1*%
%TO.N,+5V*%
X123000000Y-59000000D03*
D11*
%TO.P,C5,2*%
%TO.N,GND*%
X128000000Y-59000000D03*
%TD*%
D12*
%TO.P,5V,1,K*%
%TO.N,GND*%
X95000000Y-82540000D03*
D13*
%TO.P,5V,2,A*%
%TO.N,Net-(D3-A)*%
X95000000Y-80000000D03*
%TD*%
D14*
%TO.P,R6,1*%
%TO.N,+5V*%
X94000000Y-67420000D03*
%TO.P,R6,2*%
%TO.N,Net-(D3-A)*%
X94000000Y-77580000D03*
%TD*%
D10*
%TO.P,C6,1*%
%TO.N,+5V*%
X123000000Y-70000000D03*
D11*
%TO.P,C6,2*%
%TO.N,GND*%
X128000000Y-70000000D03*
%TD*%
D15*
%TO.P,12V,1,Pin_1*%
%TO.N,GND*%
X55000000Y-96000000D03*
D16*
%TO.P,12V,2,Pin_2*%
%TO.N,+12V*%
X55000000Y-91000000D03*
%TD*%
D17*
%TO.P,LED,1,Pin_1*%
%TO.N,GND*%
X50000000Y-75000000D03*
D18*
%TO.P,LED,2,Pin_2*%
%TO.N,+BATT*%
X50000000Y-72500000D03*
%TD*%
D19*
%TO.P,J1,*%
%TO.N,*%
X54000000Y-53150000D03*
X54000000Y-39650000D03*
D20*
%TO.P,J1,1,Pin_1*%
%TO.N,GND*%
X60000000Y-50000000D03*
D21*
%TO.P,J1,2,Pin_2*%
%TO.N,Net-(J1-Pin_2)*%
X60000000Y-42800000D03*
%TD*%
D14*
%TO.P,R3,1*%
%TO.N,+BATT*%
X82000000Y-67420000D03*
%TO.P,R3,2*%
%TO.N,Net-(D1-A)*%
X82000000Y-77580000D03*
%TD*%
D22*
%TO.P,C1,1*%
%TO.N,+BATT*%
X86000000Y-35000000D03*
D23*
%TO.P,C1,2*%
%TO.N,GND*%
X86000000Y-42500000D03*
%TD*%
D15*
%TO.P,J2,1,Pin_1*%
%TO.N,GND*%
X75000000Y-96000000D03*
D16*
%TO.P,J2,2,Pin_2*%
%TO.N,+5V*%
X75000000Y-91000000D03*
%TD*%
D17*
%TO.P,Meter,1,Pin_1*%
%TO.N,GND*%
X60000000Y-75000000D03*
D18*
%TO.P,Meter,2,Pin_2*%
%TO.N,+BATT*%
X60000000Y-72500000D03*
%TD*%
D15*
%TO.P,J9,1,Pin_1*%
%TO.N,GND*%
X95000000Y-96000000D03*
D16*
%TO.P,J9,2,Pin_2*%
%TO.N,+5V*%
X95000000Y-91000000D03*
%TD*%
D14*
%TO.P,R1,1*%
%TO.N,Net-(J1-Pin_2)*%
X74000000Y-60000000D03*
%TO.P,R1,2*%
%TO.N,Net-(J6-Pin_2)*%
X63840000Y-60000000D03*
%TD*%
D24*
%TO.P,U2,1,Vin*%
%TO.N,+BATT*%
X100000000Y-40000000D03*
%TO.P,U2,2,Vin*%
X102500000Y-40000000D03*
D25*
%TO.P,U2,3,GND*%
%TO.N,GND*%
X96900000Y-45050000D03*
D26*
X105000000Y-40000000D03*
D27*
X106250000Y-33250000D03*
X106250000Y-51050000D03*
D25*
X118100000Y-45050000D03*
D26*
%TO.P,U2,4,GND*%
X107500000Y-40000000D03*
D24*
%TO.P,U2,5,VAR*%
%TO.N,unconnected-(U2-VAR-Pad5)*%
X110000000Y-40000000D03*
%TO.P,U2,6,Vout*%
%TO.N,+5V*%
X112500000Y-40000000D03*
%TO.P,U2,7,Vout*%
X115000000Y-40000000D03*
%TD*%
D12*
%TO.P,BATT,1,K*%
%TO.N,GND*%
X85000000Y-82500000D03*
D13*
%TO.P,BATT,2,A*%
%TO.N,Net-(D1-A)*%
X85000000Y-79960000D03*
%TD*%
D14*
%TO.P,R2,1*%
%TO.N,Net-(J6-Pin_1)*%
X74000000Y-50000000D03*
%TO.P,R2,2*%
%TO.N,GND*%
X63840000Y-50000000D03*
%TD*%
D22*
%TO.P,C4,1*%
%TO.N,+BATT*%
X86000000Y-53000000D03*
D23*
%TO.P,C4,2*%
%TO.N,GND*%
X86000000Y-60500000D03*
%TD*%
D14*
%TO.P,R5,1*%
%TO.N,+12V*%
X90000000Y-67420000D03*
%TO.P,R5,2*%
%TO.N,Net-(D2-A)*%
X90000000Y-77580000D03*
%TD*%
D24*
%TO.P,U1,1,Vin*%
%TO.N,+BATT*%
X100000000Y-62000000D03*
%TO.P,U1,2,Vin*%
X102500000Y-62000000D03*
D25*
%TO.P,U1,3,GND*%
%TO.N,GND*%
X96900000Y-67050000D03*
D26*
X105000000Y-62000000D03*
D27*
X106250000Y-55250000D03*
X106250000Y-73050000D03*
D25*
X118100000Y-67050000D03*
D26*
%TO.P,U1,4,GND*%
X107500000Y-62000000D03*
D24*
%TO.P,U1,5,VAR*%
X110000000Y-62000000D03*
%TO.P,U1,6,Vout*%
%TO.N,+12V*%
X112500000Y-62000000D03*
%TO.P,U1,7,Vout*%
X115000000Y-62000000D03*
%TD*%
D28*
%TO.P,Q1,1,D*%
%TO.N,+BATT*%
X76290000Y-65000000D03*
D29*
%TO.P,Q1,2,G*%
%TO.N,Net-(J6-Pin_2)*%
X78580000Y-65000000D03*
D28*
%TO.P,Q1,3,S*%
%TO.N,Net-(J1-Pin_2)*%
X74000000Y-65000000D03*
%TD*%
D15*
%TO.P,J4,1,Pin_1*%
%TO.N,GND*%
X115000000Y-96000000D03*
D16*
%TO.P,J4,2,Pin_2*%
%TO.N,+5V*%
X115000000Y-91000000D03*
%TD*%
D15*
%TO.P,J10,1,Pin_1*%
%TO.N,GND*%
X85000000Y-96000000D03*
D16*
%TO.P,J10,2,Pin_2*%
%TO.N,+5V*%
X85000000Y-91000000D03*
%TD*%
D15*
%TO.P,5V,1,Pin_1*%
%TO.N,GND*%
X65000000Y-96000000D03*
D16*
%TO.P,5V,2,Pin_2*%
%TO.N,+5V*%
X65000000Y-91000000D03*
%TD*%
D10*
%TO.P,C3,1*%
%TO.N,+12V*%
X100000000Y-81000000D03*
D11*
%TO.P,C3,2*%
%TO.N,GND*%
X105000000Y-81000000D03*
%TD*%
D15*
%TO.P,J8,1,Pin_1*%
%TO.N,GND*%
X105000000Y-96000000D03*
D16*
%TO.P,J8,2,Pin_2*%
%TO.N,+5V*%
X105000000Y-91000000D03*
%TD*%
D17*
%TO.P,Main,1,Pin_1*%
%TO.N,Net-(J6-Pin_1)*%
X50000000Y-65000000D03*
D18*
%TO.P,Main,2,Pin_2*%
%TO.N,Net-(J6-Pin_2)*%
X50000000Y-62500000D03*
%TD*%
D10*
%TO.P,C2,1*%
%TO.N,+12V*%
X111000000Y-81000000D03*
D11*
%TO.P,C2,2*%
%TO.N,GND*%
X116000000Y-81000000D03*
%TD*%
D12*
%TO.P,12V,1,K*%
%TO.N,GND*%
X90000000Y-82540000D03*
D13*
%TO.P,12V,2,A*%
%TO.N,Net-(D2-A)*%
X90000000Y-80000000D03*
%TD*%
D14*
%TO.P,R4,1*%
%TO.N,+12V*%
X86000000Y-67420000D03*
%TO.P,R4,2*%
%TO.N,Net-(D2-A)*%
X86000000Y-77580000D03*
%TD*%
D30*
%TO.N,+BATT*%
X60000000Y-72500000D02*
X50000000Y-72500000D01*
X76290000Y-65309209D02*
X69099209Y-72500000D01*
X69099209Y-72500000D02*
X60000000Y-72500000D01*
X76290000Y-65000000D02*
X76290000Y-65309209D01*
%TO.N,Net-(J6-Pin_1)*%
X49500000Y-65000000D02*
X50000000Y-65000000D01*
X47000000Y-62500000D02*
X49500000Y-65000000D01*
X72250000Y-51750000D02*
X74000000Y-50000000D01*
X47000000Y-60500000D02*
X47000000Y-62500000D01*
X57570000Y-58401623D02*
X64221623Y-51750000D01*
X49098377Y-58401623D02*
X47000000Y-60500000D01*
X64221623Y-51750000D02*
X72250000Y-51750000D01*
X57570000Y-58401623D02*
X49098377Y-58401623D01*
%TO.N,Net-(J6-Pin_2)*%
X65590000Y-61750000D02*
X63840000Y-60000000D01*
X78580000Y-65000000D02*
X78580000Y-64690791D01*
X75639209Y-61750000D02*
X65590000Y-61750000D01*
X61340000Y-62500000D02*
X50000000Y-62500000D01*
X78580000Y-64690791D02*
X75639209Y-61750000D01*
X63840000Y-60000000D02*
X61340000Y-62500000D01*
%TO.N,+12V*%
X112500000Y-65500000D02*
X112500000Y-62000000D01*
X90000000Y-67420000D02*
X93630000Y-71050000D01*
X94900000Y-72000000D02*
X98900000Y-72000000D01*
X98900000Y-71050000D02*
X106950000Y-71050000D01*
X106950000Y-71050000D02*
X112500000Y-65500000D01*
X98900000Y-72000000D02*
X98900000Y-71050000D01*
X94900000Y-71050000D02*
X94900000Y-72000000D01*
X86000000Y-67420000D02*
X90000000Y-67420000D01*
X93630000Y-71050000D02*
X94900000Y-71050000D01*
%TO.N,+5V*%
X94000000Y-67420000D02*
X94000000Y-56850000D01*
X110788000Y-41712000D02*
X112500000Y-40000000D01*
X94000000Y-56850000D02*
X109138000Y-41712000D01*
X109138000Y-41712000D02*
X110788000Y-41712000D01*
%TO.N,Net-(D1-A)*%
X82620000Y-77580000D02*
X85000000Y-79960000D01*
X82000000Y-77580000D02*
X82620000Y-77580000D01*
%TO.N,Net-(D2-A)*%
X90000000Y-77580000D02*
X90000000Y-80000000D01*
X86000000Y-77580000D02*
X90000000Y-77580000D01*
%TO.N,Net-(D3-A)*%
X94000000Y-79000000D02*
X95000000Y-80000000D01*
X94000000Y-77580000D02*
X94000000Y-79000000D01*
%TD*%
%TA.AperFunction,Conductor*%
%TO.N,GND*%
G36*
X63440000Y-50052661D02*
G01*
X63467259Y-50154394D01*
X63519920Y-50245606D01*
X63594394Y-50320080D01*
X63685606Y-50372741D01*
X63787339Y-50400000D01*
X63793553Y-50400000D01*
X63096494Y-51097057D01*
X63095927Y-51099760D01*
X63074355Y-51128792D01*
X62719417Y-51483729D01*
X62658094Y-51517214D01*
X62588402Y-51512230D01*
X62532469Y-51470358D01*
X62508052Y-51404894D01*
X62510766Y-51368803D01*
X62539783Y-51239965D01*
X62539784Y-51239958D01*
X62549999Y-51095268D01*
X62550000Y-51095266D01*
X62550000Y-50817794D01*
X62569685Y-50750755D01*
X62622489Y-50705000D01*
X62691647Y-50695056D01*
X62755203Y-50724081D01*
X62756609Y-50725613D01*
X62760524Y-50725922D01*
X63440000Y-50046446D01*
X63440000Y-50052661D01*
G37*
%TD.AperFunction*%
%TA.AperFunction,Conductor*%
G36*
X107195124Y-61766060D02*
G01*
X107144964Y-61852939D01*
X107119000Y-61949840D01*
X107119000Y-62050160D01*
X107144964Y-62147061D01*
X107195124Y-62233940D01*
X107211184Y-62250000D01*
X105288816Y-62250000D01*
X105304876Y-62233940D01*
X105355036Y-62147061D01*
X105381000Y-62050160D01*
X105381000Y-61949840D01*
X105355036Y-61852939D01*
X105304876Y-61766060D01*
X105288816Y-61750000D01*
X107211184Y-61750000D01*
X107195124Y-61766060D01*
G37*
%TD.AperFunction*%
%TA.AperFunction,Conductor*%
G36*
X107195124Y-39766060D02*
G01*
X107144964Y-39852939D01*
X107119000Y-39949840D01*
X107119000Y-40050160D01*
X107144964Y-40147061D01*
X107195124Y-40233940D01*
X107211184Y-40250000D01*
X105288816Y-40250000D01*
X105304876Y-40233940D01*
X105355036Y-40147061D01*
X105381000Y-40050160D01*
X105381000Y-39949840D01*
X105355036Y-39852939D01*
X105304876Y-39766060D01*
X105288816Y-39750000D01*
X107211184Y-39750000D01*
X107195124Y-39766060D01*
G37*
%TD.AperFunction*%
%TA.AperFunction,Conductor*%
G36*
X128004418Y-30500816D02*
G01*
X128204561Y-30515130D01*
X128222063Y-30517647D01*
X128413795Y-30559355D01*
X128430760Y-30564336D01*
X128614611Y-30632909D01*
X128630694Y-30640253D01*
X128747495Y-30704032D01*
X128802908Y-30734290D01*
X128817791Y-30743855D01*
X128974864Y-30861438D01*
X128988235Y-30873024D01*
X129126975Y-31011764D01*
X129138561Y-31025135D01*
X129256144Y-31182208D01*
X129265709Y-31197091D01*
X129359743Y-31369300D01*
X129367093Y-31385394D01*
X129435661Y-31569234D01*
X129440645Y-31586209D01*
X129482351Y-31777931D01*
X129484869Y-31795442D01*
X129499184Y-31995580D01*
X129499500Y-32004427D01*
X129499500Y-58130299D01*
X129479815Y-58197338D01*
X129427011Y-58243093D01*
X129357853Y-58253037D01*
X129294297Y-58224012D01*
X129275182Y-58203185D01*
X129222658Y-58130894D01*
X129222658Y-58130893D01*
X128482962Y-58870590D01*
X128465925Y-58807007D01*
X128400099Y-58692993D01*
X128307007Y-58599901D01*
X128192993Y-58534075D01*
X128129409Y-58517037D01*
X128869105Y-57777340D01*
X128869104Y-57777338D01*
X128786174Y-57717087D01*
X128575802Y-57609897D01*
X128351247Y-57536934D01*
X128351248Y-57536934D01*
X128118052Y-57500000D01*
X127881948Y-57500000D01*
X127648752Y-57536934D01*
X127424197Y-57609897D01*
X127213830Y-57717084D01*
X127130894Y-57777340D01*
X127870591Y-58517037D01*
X127807007Y-58534075D01*
X127692993Y-58599901D01*
X127599901Y-58692993D01*
X127534075Y-58807007D01*
X127517037Y-58870591D01*
X126777340Y-58130894D01*
X126717084Y-58213830D01*
X126609897Y-58424197D01*
X126536934Y-58648752D01*
X126500000Y-58881947D01*
X126500000Y-59118052D01*
X126536934Y-59351247D01*
X126609897Y-59575802D01*
X126717087Y-59786174D01*
X126777338Y-59869104D01*
X126777340Y-59869105D01*
X127517037Y-59129408D01*
X127534075Y-59192993D01*
X127599901Y-59307007D01*
X127692993Y-59400099D01*
X127807007Y-59465925D01*
X127870590Y-59482962D01*
X127130893Y-60222658D01*
X127213828Y-60282914D01*
X127424197Y-60390102D01*
X127648752Y-60463065D01*
X127648751Y-60463065D01*
X127881948Y-60500000D01*
X128118052Y-60500000D01*
X128351247Y-60463065D01*
X128575802Y-60390102D01*
X128786163Y-60282918D01*
X128786169Y-60282914D01*
X128869104Y-60222658D01*
X128869105Y-60222658D01*
X128129408Y-59482962D01*
X128192993Y-59465925D01*
X128307007Y-59400099D01*
X128400099Y-59307007D01*
X128465925Y-59192993D01*
X128482962Y-59129409D01*
X129222658Y-59869105D01*
X129222658Y-59869104D01*
X129275182Y-59796813D01*
X129330512Y-59754148D01*
X129400125Y-59748169D01*
X129461920Y-59780775D01*
X129496278Y-59841614D01*
X129499500Y-59869699D01*
X129499500Y-69130299D01*
X129479815Y-69197338D01*
X129427011Y-69243093D01*
X129357853Y-69253037D01*
X129294297Y-69224012D01*
X129275182Y-69203185D01*
X129222658Y-69130894D01*
X129222658Y-69130893D01*
X128482962Y-69870590D01*
X128465925Y-69807007D01*
X128400099Y-69692993D01*
X128307007Y-69599901D01*
X128192993Y-69534075D01*
X128129409Y-69517037D01*
X128869105Y-68777340D01*
X128869104Y-68777338D01*
X128786174Y-68717087D01*
X128575802Y-68609897D01*
X128351247Y-68536934D01*
X128351248Y-68536934D01*
X128118052Y-68500000D01*
X127881948Y-68500000D01*
X127648752Y-68536934D01*
X127424197Y-68609897D01*
X127213830Y-68717084D01*
X127130894Y-68777340D01*
X127870591Y-69517037D01*
X127807007Y-69534075D01*
X127692993Y-69599901D01*
X127599901Y-69692993D01*
X127534075Y-69807007D01*
X127517037Y-69870591D01*
X126777340Y-69130894D01*
X126717084Y-69213830D01*
X126609897Y-69424197D01*
X126536934Y-69648752D01*
X126500000Y-69881947D01*
X126500000Y-70118052D01*
X126536934Y-70351247D01*
X126609897Y-70575802D01*
X126717087Y-70786174D01*
X126777338Y-70869104D01*
X126777340Y-70869105D01*
X127517037Y-70129408D01*
X127534075Y-70192993D01*
X127599901Y-70307007D01*
X127692993Y-70400099D01*
X127807007Y-70465925D01*
X127870590Y-70482962D01*
X127130893Y-71222658D01*
X127213828Y-71282914D01*
X127424197Y-71390102D01*
X127648752Y-71463065D01*
X127648751Y-71463065D01*
X127881948Y-71500000D01*
X128118052Y-71500000D01*
X128351247Y-71463065D01*
X128575802Y-71390102D01*
X128786163Y-71282918D01*
X128786169Y-71282914D01*
X128869104Y-71222658D01*
X128869105Y-71222658D01*
X128129408Y-70482962D01*
X128192993Y-70465925D01*
X128307007Y-70400099D01*
X128400099Y-70307007D01*
X128465925Y-70192993D01*
X128482962Y-70129409D01*
X129222658Y-70869105D01*
X129222658Y-70869104D01*
X129275182Y-70796813D01*
X129330512Y-70754148D01*
X129400125Y-70748169D01*
X129461920Y-70780775D01*
X129496278Y-70841614D01*
X129499500Y-70869699D01*
X129499500Y-97995572D01*
X129499184Y-98004418D01*
X129499184Y-98004419D01*
X129484869Y-98204557D01*
X129482351Y-98222068D01*
X129440645Y-98413790D01*
X129435661Y-98430765D01*
X129367093Y-98614605D01*
X129359743Y-98630699D01*
X129265709Y-98802908D01*
X129256144Y-98817791D01*
X129138561Y-98974864D01*
X129126975Y-98988235D01*
X128988235Y-99126975D01*
X128974864Y-99138561D01*
X128817791Y-99256144D01*
X128802908Y-99265709D01*
X128630699Y-99359743D01*
X128614605Y-99367093D01*
X128430765Y-99435661D01*
X128413790Y-99440645D01*
X128222068Y-99482351D01*
X128204557Y-99484869D01*
X128023779Y-99497799D01*
X128004417Y-99499184D01*
X127995572Y-99499500D01*
X42004428Y-99499500D01*
X41995582Y-99499184D01*
X41973622Y-99497613D01*
X41795442Y-99484869D01*
X41777931Y-99482351D01*
X41586209Y-99440645D01*
X41569234Y-99435661D01*
X41385394Y-99367093D01*
X41369300Y-99359743D01*
X41197091Y-99265709D01*
X41182208Y-99256144D01*
X41025135Y-99138561D01*
X41011764Y-99126975D01*
X40873024Y-98988235D01*
X40861438Y-98974864D01*
X40743855Y-98817791D01*
X40734290Y-98802908D01*
X40640256Y-98630699D01*
X40632909Y-98614611D01*
X40564336Y-98430760D01*
X40559354Y-98413790D01*
X40556354Y-98400000D01*
X40517647Y-98222063D01*
X40515130Y-98204556D01*
X40508449Y-98111148D01*
X40500816Y-98004418D01*
X40500500Y-97995572D01*
X40500500Y-94857744D01*
X42829500Y-94857744D01*
X42829500Y-95142255D01*
X42829501Y-95142271D01*
X42866636Y-95424341D01*
X42866637Y-95424346D01*
X42866638Y-95424352D01*
X42940278Y-95699181D01*
X43019026Y-95889295D01*
X43049159Y-95962043D01*
X43049164Y-95962054D01*
X43191422Y-96208451D01*
X43364628Y-96434179D01*
X43364634Y-96434186D01*
X43565813Y-96635365D01*
X43565820Y-96635371D01*
X43791548Y-96808577D01*
X44037945Y-96950835D01*
X44037950Y-96950837D01*
X44037953Y-96950839D01*
X44300819Y-97059722D01*
X44575648Y-97133362D01*
X44857738Y-97170500D01*
X44857745Y-97170500D01*
X45142255Y-97170500D01*
X45142262Y-97170500D01*
X45424352Y-97133362D01*
X45699181Y-97059722D01*
X45962047Y-96950839D01*
X46208452Y-96808577D01*
X46434181Y-96635370D01*
X46635370Y-96434181D01*
X46808577Y-96208452D01*
X46882464Y-96080477D01*
X46950835Y-95962054D01*
X46950835Y-95962053D01*
X46950839Y-95962047D01*
X47059722Y-95699181D01*
X47133362Y-95424352D01*
X47170500Y-95142262D01*
X47170500Y-94857738D01*
X47133362Y-94575648D01*
X47059722Y-94300819D01*
X46950839Y-94037953D01*
X46950837Y-94037950D01*
X46950835Y-94037945D01*
X46808577Y-93791548D01*
X46635371Y-93565820D01*
X46635365Y-93565813D01*
X46434186Y-93364634D01*
X46434179Y-93364628D01*
X46208451Y-93191422D01*
X45962054Y-93049164D01*
X45962043Y-93049159D01*
X45898261Y-93022740D01*
X45699181Y-92940278D01*
X45424352Y-92866638D01*
X45424346Y-92866637D01*
X45424341Y-92866636D01*
X45142271Y-92829501D01*
X45142268Y-92829500D01*
X45142262Y-92829500D01*
X44857738Y-92829500D01*
X44857732Y-92829500D01*
X44857728Y-92829501D01*
X44575658Y-92866636D01*
X44575651Y-92866637D01*
X44575648Y-92866638D01*
X44300819Y-92940278D01*
X44178729Y-92990849D01*
X44037956Y-93049159D01*
X44037945Y-93049164D01*
X43791548Y-93191422D01*
X43565820Y-93364628D01*
X43565813Y-93364634D01*
X43364634Y-93565813D01*
X43364628Y-93565820D01*
X43191422Y-93791548D01*
X43049164Y-94037945D01*
X43049159Y-94037956D01*
X43044490Y-94049229D01*
X42940278Y-94300819D01*
X42872854Y-94552452D01*
X42866639Y-94575645D01*
X42866636Y-94575658D01*
X42829501Y-94857728D01*
X42829500Y-94857744D01*
X40500500Y-94857744D01*
X40500500Y-90859568D01*
X52499500Y-90859568D01*
X52499500Y-91140431D01*
X52530942Y-91419494D01*
X52530945Y-91419512D01*
X52593439Y-91693317D01*
X52593443Y-91693329D01*
X52686200Y-91958411D01*
X52808053Y-92211442D01*
X52808055Y-92211445D01*
X52957477Y-92449248D01*
X53132584Y-92668825D01*
X53331175Y-92867416D01*
X53550752Y-93042523D01*
X53788555Y-93191945D01*
X54041592Y-93313801D01*
X54118761Y-93340803D01*
X54170645Y-93358959D01*
X54227421Y-93399681D01*
X54253168Y-93464633D01*
X54239712Y-93533195D01*
X54191324Y-93583598D01*
X54129690Y-93600000D01*
X53795280Y-93600000D01*
X53662093Y-93610482D01*
X53662087Y-93610483D01*
X53442170Y-93665898D01*
X53442167Y-93665899D01*
X53235669Y-93759695D01*
X53235663Y-93759698D01*
X53049241Y-93888851D01*
X53049229Y-93888861D01*
X52888861Y-94049229D01*
X52888851Y-94049241D01*
X52759698Y-94235663D01*
X52759695Y-94235669D01*
X52665899Y-94442167D01*
X52665898Y-94442170D01*
X52610483Y-94662087D01*
X52610482Y-94662093D01*
X52600000Y-94795280D01*
X52600000Y-95750000D01*
X53672769Y-95750000D01*
X53650000Y-95893753D01*
X53650000Y-96106247D01*
X53672769Y-96250000D01*
X52600000Y-96250000D01*
X52600000Y-97204719D01*
X52610482Y-97337906D01*
X52610483Y-97337912D01*
X52665898Y-97557829D01*
X52665899Y-97557832D01*
X52759695Y-97764330D01*
X52759698Y-97764336D01*
X52888851Y-97950758D01*
X52888861Y-97950770D01*
X53049229Y-98111138D01*
X53049241Y-98111148D01*
X53235663Y-98240301D01*
X53235669Y-98240304D01*
X53442167Y-98334100D01*
X53442170Y-98334101D01*
X53662087Y-98389516D01*
X53662093Y-98389517D01*
X53795280Y-98399999D01*
X53795294Y-98400000D01*
X54750000Y-98400000D01*
X54750000Y-97327231D01*
X54893753Y-97350000D01*
X55106247Y-97350000D01*
X55250000Y-97327231D01*
X55250000Y-98400000D01*
X56204706Y-98400000D01*
X56204719Y-98399999D01*
X56337906Y-98389517D01*
X56337912Y-98389516D01*
X56557829Y-98334101D01*
X56557832Y-98334100D01*
X56764330Y-98240304D01*
X56764336Y-98240301D01*
X56950758Y-98111148D01*
X56950770Y-98111138D01*
X57111138Y-97950770D01*
X57111148Y-97950758D01*
X57240301Y-97764336D01*
X57240304Y-97764330D01*
X57334100Y-97557832D01*
X57334101Y-97557829D01*
X57389516Y-97337912D01*
X57389517Y-97337906D01*
X57399999Y-97204719D01*
X57400000Y-97204706D01*
X57400000Y-96250000D01*
X56327231Y-96250000D01*
X56350000Y-96106247D01*
X56350000Y-95893753D01*
X56327231Y-95750000D01*
X57400000Y-95750000D01*
X57400000Y-94795293D01*
X57399999Y-94795280D01*
X57389517Y-94662093D01*
X57389516Y-94662087D01*
X57334101Y-94442170D01*
X57334100Y-94442167D01*
X57240304Y-94235669D01*
X57240301Y-94235663D01*
X57111148Y-94049241D01*
X57111138Y-94049229D01*
X56950770Y-93888861D01*
X56950758Y-93888851D01*
X56764336Y-93759698D01*
X56764330Y-93759695D01*
X56557832Y-93665899D01*
X56557829Y-93665898D01*
X56337912Y-93610483D01*
X56337906Y-93610482D01*
X56204719Y-93600000D01*
X55870310Y-93600000D01*
X55803271Y-93580315D01*
X55757516Y-93527511D01*
X55747572Y-93458353D01*
X55776597Y-93394797D01*
X55829355Y-93358959D01*
X55867828Y-93345496D01*
X55958408Y-93313801D01*
X56211445Y-93191945D01*
X56449248Y-93042523D01*
X56668825Y-92867416D01*
X56867416Y-92668825D01*
X57042523Y-92449248D01*
X57191945Y-92211445D01*
X57313801Y-91958408D01*
X57406560Y-91693318D01*
X57469055Y-91419509D01*
X57500500Y-91140425D01*
X57500500Y-90859575D01*
X57500499Y-90859568D01*
X62499500Y-90859568D01*
X62499500Y-91140431D01*
X62530942Y-91419494D01*
X62530945Y-91419512D01*
X62593439Y-91693317D01*
X62593443Y-91693329D01*
X62686200Y-91958411D01*
X62808053Y-92211442D01*
X62808055Y-92211445D01*
X62957477Y-92449248D01*
X63132584Y-92668825D01*
X63331175Y-92867416D01*
X63550752Y-93042523D01*
X63788555Y-93191945D01*
X64041592Y-93313801D01*
X64118761Y-93340803D01*
X64170645Y-93358959D01*
X64227421Y-93399681D01*
X64253168Y-93464633D01*
X64239712Y-93533195D01*
X64191324Y-93583598D01*
X64129690Y-93600000D01*
X63795280Y-93600000D01*
X63662093Y-93610482D01*
X63662087Y-93610483D01*
X63442170Y-93665898D01*
X63442167Y-93665899D01*
X63235669Y-93759695D01*
X63235663Y-93759698D01*
X63049241Y-93888851D01*
X63049229Y-93888861D01*
X62888861Y-94049229D01*
X62888851Y-94049241D01*
X62759698Y-94235663D01*
X62759695Y-94235669D01*
X62665899Y-94442167D01*
X62665898Y-94442170D01*
X62610483Y-94662087D01*
X62610482Y-94662093D01*
X62600000Y-94795280D01*
X62600000Y-95750000D01*
X63672769Y-95750000D01*
X63650000Y-95893753D01*
X63650000Y-96106247D01*
X63672769Y-96250000D01*
X62600000Y-96250000D01*
X62600000Y-97204719D01*
X62610482Y-97337906D01*
X62610483Y-97337912D01*
X62665898Y-97557829D01*
X62665899Y-97557832D01*
X62759695Y-97764330D01*
X62759698Y-97764336D01*
X62888851Y-97950758D01*
X62888861Y-97950770D01*
X63049229Y-98111138D01*
X63049241Y-98111148D01*
X63235663Y-98240301D01*
X63235669Y-98240304D01*
X63442167Y-98334100D01*
X63442170Y-98334101D01*
X63662087Y-98389516D01*
X63662093Y-98389517D01*
X63795280Y-98399999D01*
X63795294Y-98400000D01*
X64750000Y-98400000D01*
X64750000Y-97327231D01*
X64893753Y-97350000D01*
X65106247Y-97350000D01*
X65250000Y-97327231D01*
X65250000Y-98400000D01*
X66204706Y-98400000D01*
X66204719Y-98399999D01*
X66337906Y-98389517D01*
X66337912Y-98389516D01*
X66557829Y-98334101D01*
X66557832Y-98334100D01*
X66764330Y-98240304D01*
X66764336Y-98240301D01*
X66950758Y-98111148D01*
X66950770Y-98111138D01*
X67111138Y-97950770D01*
X67111148Y-97950758D01*
X67240301Y-97764336D01*
X67240304Y-97764330D01*
X67334100Y-97557832D01*
X67334101Y-97557829D01*
X67389516Y-97337912D01*
X67389517Y-97337906D01*
X67399999Y-97204719D01*
X67400000Y-97204706D01*
X67400000Y-96250000D01*
X66327231Y-96250000D01*
X66350000Y-96106247D01*
X66350000Y-95893753D01*
X66327231Y-95750000D01*
X67400000Y-95750000D01*
X67400000Y-94795293D01*
X67399999Y-94795280D01*
X67389517Y-94662093D01*
X67389516Y-94662087D01*
X67334101Y-94442170D01*
X67334100Y-94442167D01*
X67240304Y-94235669D01*
X67240301Y-94235663D01*
X67111148Y-94049241D01*
X67111138Y-94049229D01*
X66950770Y-93888861D01*
X66950758Y-93888851D01*
X66764336Y-93759698D01*
X66764330Y-93759695D01*
X66557832Y-93665899D01*
X66557829Y-93665898D01*
X66337912Y-93610483D01*
X66337906Y-93610482D01*
X66204719Y-93600000D01*
X65870310Y-93600000D01*
X65803271Y-93580315D01*
X65757516Y-93527511D01*
X65747572Y-93458353D01*
X65776597Y-93394797D01*
X65829355Y-93358959D01*
X65867828Y-93345496D01*
X65958408Y-93313801D01*
X66211445Y-93191945D01*
X66449248Y-93042523D01*
X66668825Y-92867416D01*
X66867416Y-92668825D01*
X67042523Y-92449248D01*
X67191945Y-92211445D01*
X67313801Y-91958408D01*
X67406560Y-91693318D01*
X67469055Y-91419509D01*
X67500500Y-91140425D01*
X67500500Y-90859575D01*
X67500499Y-90859568D01*
X72499500Y-90859568D01*
X72499500Y-91140431D01*
X72530942Y-91419494D01*
X72530945Y-91419512D01*
X72593439Y-91693317D01*
X72593443Y-91693329D01*
X72686200Y-91958411D01*
X72808053Y-92211442D01*
X72808055Y-92211445D01*
X72957477Y-92449248D01*
X73132584Y-92668825D01*
X73331175Y-92867416D01*
X73550752Y-93042523D01*
X73788555Y-93191945D01*
X74041592Y-93313801D01*
X74118761Y-93340803D01*
X74170645Y-93358959D01*
X74227421Y-93399681D01*
X74253168Y-93464633D01*
X74239712Y-93533195D01*
X74191324Y-93583598D01*
X74129690Y-93600000D01*
X73795280Y-93600000D01*
X73662093Y-93610482D01*
X73662087Y-93610483D01*
X73442170Y-93665898D01*
X73442167Y-93665899D01*
X73235669Y-93759695D01*
X73235663Y-93759698D01*
X73049241Y-93888851D01*
X73049229Y-93888861D01*
X72888861Y-94049229D01*
X72888851Y-94049241D01*
X72759698Y-94235663D01*
X72759695Y-94235669D01*
X72665899Y-94442167D01*
X72665898Y-94442170D01*
X72610483Y-94662087D01*
X72610482Y-94662093D01*
X72600000Y-94795280D01*
X72600000Y-95750000D01*
X73672769Y-95750000D01*
X73650000Y-95893753D01*
X73650000Y-96106247D01*
X73672769Y-96250000D01*
X72600000Y-96250000D01*
X72600000Y-97204719D01*
X72610482Y-97337906D01*
X72610483Y-97337912D01*
X72665898Y-97557829D01*
X72665899Y-97557832D01*
X72759695Y-97764330D01*
X72759698Y-97764336D01*
X72888851Y-97950758D01*
X72888861Y-97950770D01*
X73049229Y-98111138D01*
X73049241Y-98111148D01*
X73235663Y-98240301D01*
X73235669Y-98240304D01*
X73442167Y-98334100D01*
X73442170Y-98334101D01*
X73662087Y-98389516D01*
X73662093Y-98389517D01*
X73795280Y-98399999D01*
X73795294Y-98400000D01*
X74750000Y-98400000D01*
X74750000Y-97327231D01*
X74893753Y-97350000D01*
X75106247Y-97350000D01*
X75250000Y-97327231D01*
X75250000Y-98400000D01*
X76204706Y-98400000D01*
X76204719Y-98399999D01*
X76337906Y-98389517D01*
X76337912Y-98389516D01*
X76557829Y-98334101D01*
X76557832Y-98334100D01*
X76764330Y-98240304D01*
X76764336Y-98240301D01*
X76950758Y-98111148D01*
X76950770Y-98111138D01*
X77111138Y-97950770D01*
X77111148Y-97950758D01*
X77240301Y-97764336D01*
X77240304Y-97764330D01*
X77334100Y-97557832D01*
X77334101Y-97557829D01*
X77389516Y-97337912D01*
X77389517Y-97337906D01*
X77399999Y-97204719D01*
X77400000Y-97204706D01*
X77400000Y-96250000D01*
X76327231Y-96250000D01*
X76350000Y-96106247D01*
X76350000Y-95893753D01*
X76327231Y-95750000D01*
X77400000Y-95750000D01*
X77400000Y-94795293D01*
X77399999Y-94795280D01*
X77389517Y-94662093D01*
X77389516Y-94662087D01*
X77334101Y-94442170D01*
X77334100Y-94442167D01*
X77240304Y-94235669D01*
X77240301Y-94235663D01*
X77111148Y-94049241D01*
X77111138Y-94049229D01*
X76950770Y-93888861D01*
X76950758Y-93888851D01*
X76764336Y-93759698D01*
X76764330Y-93759695D01*
X76557832Y-93665899D01*
X76557829Y-93665898D01*
X76337912Y-93610483D01*
X76337906Y-93610482D01*
X76204719Y-93600000D01*
X75870310Y-93600000D01*
X75803271Y-93580315D01*
X75757516Y-93527511D01*
X75747572Y-93458353D01*
X75776597Y-93394797D01*
X75829355Y-93358959D01*
X75867828Y-93345496D01*
X75958408Y-93313801D01*
X76211445Y-93191945D01*
X76449248Y-93042523D01*
X76668825Y-92867416D01*
X76867416Y-92668825D01*
X77042523Y-92449248D01*
X77191945Y-92211445D01*
X77313801Y-91958408D01*
X77406560Y-91693318D01*
X77469055Y-91419509D01*
X77500500Y-91140425D01*
X77500500Y-90859575D01*
X77500499Y-90859568D01*
X82499500Y-90859568D01*
X82499500Y-91140431D01*
X82530942Y-91419494D01*
X82530945Y-91419512D01*
X82593439Y-91693317D01*
X82593443Y-91693329D01*
X82686200Y-91958411D01*
X82808053Y-92211442D01*
X82808055Y-92211445D01*
X82957477Y-92449248D01*
X83132584Y-92668825D01*
X83331175Y-92867416D01*
X83550752Y-93042523D01*
X83788555Y-93191945D01*
X84041592Y-93313801D01*
X84118761Y-93340803D01*
X84170645Y-93358959D01*
X84227421Y-93399681D01*
X84253168Y-93464633D01*
X84239712Y-93533195D01*
X84191324Y-93583598D01*
X84129690Y-93600000D01*
X83795280Y-93600000D01*
X83662093Y-93610482D01*
X83662087Y-93610483D01*
X83442170Y-93665898D01*
X83442167Y-93665899D01*
X83235669Y-93759695D01*
X83235663Y-93759698D01*
X83049241Y-93888851D01*
X83049229Y-93888861D01*
X82888861Y-94049229D01*
X82888851Y-94049241D01*
X82759698Y-94235663D01*
X82759695Y-94235669D01*
X82665899Y-94442167D01*
X82665898Y-94442170D01*
X82610483Y-94662087D01*
X82610482Y-94662093D01*
X82600000Y-94795280D01*
X82600000Y-95750000D01*
X83672769Y-95750000D01*
X83650000Y-95893753D01*
X83650000Y-96106247D01*
X83672769Y-96250000D01*
X82600000Y-96250000D01*
X82600000Y-97204719D01*
X82610482Y-97337906D01*
X82610483Y-97337912D01*
X82665898Y-97557829D01*
X82665899Y-97557832D01*
X82759695Y-97764330D01*
X82759698Y-97764336D01*
X82888851Y-97950758D01*
X82888861Y-97950770D01*
X83049229Y-98111138D01*
X83049241Y-98111148D01*
X83235663Y-98240301D01*
X83235669Y-98240304D01*
X83442167Y-98334100D01*
X83442170Y-98334101D01*
X83662087Y-98389516D01*
X83662093Y-98389517D01*
X83795280Y-98399999D01*
X83795294Y-98400000D01*
X84750000Y-98400000D01*
X84750000Y-97327231D01*
X84893753Y-97350000D01*
X85106247Y-97350000D01*
X85250000Y-97327231D01*
X85250000Y-98400000D01*
X86204706Y-98400000D01*
X86204719Y-98399999D01*
X86337906Y-98389517D01*
X86337912Y-98389516D01*
X86557829Y-98334101D01*
X86557832Y-98334100D01*
X86764330Y-98240304D01*
X86764336Y-98240301D01*
X86950758Y-98111148D01*
X86950770Y-98111138D01*
X87111138Y-97950770D01*
X87111148Y-97950758D01*
X87240301Y-97764336D01*
X87240304Y-97764330D01*
X87334100Y-97557832D01*
X87334101Y-97557829D01*
X87389516Y-97337912D01*
X87389517Y-97337906D01*
X87399999Y-97204719D01*
X87400000Y-97204706D01*
X87400000Y-96250000D01*
X86327231Y-96250000D01*
X86350000Y-96106247D01*
X86350000Y-95893753D01*
X86327231Y-95750000D01*
X87400000Y-95750000D01*
X87400000Y-94795293D01*
X87399999Y-94795280D01*
X87389517Y-94662093D01*
X87389516Y-94662087D01*
X87334101Y-94442170D01*
X87334100Y-94442167D01*
X87240304Y-94235669D01*
X87240301Y-94235663D01*
X87111148Y-94049241D01*
X87111138Y-94049229D01*
X86950770Y-93888861D01*
X86950758Y-93888851D01*
X86764336Y-93759698D01*
X86764330Y-93759695D01*
X86557832Y-93665899D01*
X86557829Y-93665898D01*
X86337912Y-93610483D01*
X86337906Y-93610482D01*
X86204719Y-93600000D01*
X85870310Y-93600000D01*
X85803271Y-93580315D01*
X85757516Y-93527511D01*
X85747572Y-93458353D01*
X85776597Y-93394797D01*
X85829355Y-93358959D01*
X85867828Y-93345496D01*
X85958408Y-93313801D01*
X86211445Y-93191945D01*
X86449248Y-93042523D01*
X86668825Y-92867416D01*
X86867416Y-92668825D01*
X87042523Y-92449248D01*
X87191945Y-92211445D01*
X87313801Y-91958408D01*
X87406560Y-91693318D01*
X87469055Y-91419509D01*
X87500500Y-91140425D01*
X87500500Y-90859575D01*
X87500499Y-90859568D01*
X92499500Y-90859568D01*
X92499500Y-91140431D01*
X92530942Y-91419494D01*
X92530945Y-91419512D01*
X92593439Y-91693317D01*
X92593443Y-91693329D01*
X92686200Y-91958411D01*
X92808053Y-92211442D01*
X92808055Y-92211445D01*
X92957477Y-92449248D01*
X93132584Y-92668825D01*
X93331175Y-92867416D01*
X93550752Y-93042523D01*
X93788555Y-93191945D01*
X94041592Y-93313801D01*
X94118761Y-93340803D01*
X94170645Y-93358959D01*
X94227421Y-93399681D01*
X94253168Y-93464633D01*
X94239712Y-93533195D01*
X94191324Y-93583598D01*
X94129690Y-93600000D01*
X93795280Y-93600000D01*
X93662093Y-93610482D01*
X93662087Y-93610483D01*
X93442170Y-93665898D01*
X93442167Y-93665899D01*
X93235669Y-93759695D01*
X93235663Y-93759698D01*
X93049241Y-93888851D01*
X93049229Y-93888861D01*
X92888861Y-94049229D01*
X92888851Y-94049241D01*
X92759698Y-94235663D01*
X92759695Y-94235669D01*
X92665899Y-94442167D01*
X92665898Y-94442170D01*
X92610483Y-94662087D01*
X92610482Y-94662093D01*
X92600000Y-94795280D01*
X92600000Y-95750000D01*
X93672769Y-95750000D01*
X93650000Y-95893753D01*
X93650000Y-96106247D01*
X93672769Y-96250000D01*
X92600000Y-96250000D01*
X92600000Y-97204719D01*
X92610482Y-97337906D01*
X92610483Y-97337912D01*
X92665898Y-97557829D01*
X92665899Y-97557832D01*
X92759695Y-97764330D01*
X92759698Y-97764336D01*
X92888851Y-97950758D01*
X92888861Y-97950770D01*
X93049229Y-98111138D01*
X93049241Y-98111148D01*
X93235663Y-98240301D01*
X93235669Y-98240304D01*
X93442167Y-98334100D01*
X93442170Y-98334101D01*
X93662087Y-98389516D01*
X93662093Y-98389517D01*
X93795280Y-98399999D01*
X93795294Y-98400000D01*
X94750000Y-98400000D01*
X94750000Y-97327231D01*
X94893753Y-97350000D01*
X95106247Y-97350000D01*
X95250000Y-97327231D01*
X95250000Y-98400000D01*
X96204706Y-98400000D01*
X96204719Y-98399999D01*
X96337906Y-98389517D01*
X96337912Y-98389516D01*
X96557829Y-98334101D01*
X96557832Y-98334100D01*
X96764330Y-98240304D01*
X96764336Y-98240301D01*
X96950758Y-98111148D01*
X96950770Y-98111138D01*
X97111138Y-97950770D01*
X97111148Y-97950758D01*
X97240301Y-97764336D01*
X97240304Y-97764330D01*
X97334100Y-97557832D01*
X97334101Y-97557829D01*
X97389516Y-97337912D01*
X97389517Y-97337906D01*
X97399999Y-97204719D01*
X97400000Y-97204706D01*
X97400000Y-96250000D01*
X96327231Y-96250000D01*
X96350000Y-96106247D01*
X96350000Y-95893753D01*
X96327231Y-95750000D01*
X97400000Y-95750000D01*
X97400000Y-94795293D01*
X97399999Y-94795280D01*
X97389517Y-94662093D01*
X97389516Y-94662087D01*
X97334101Y-94442170D01*
X97334100Y-94442167D01*
X97240304Y-94235669D01*
X97240301Y-94235663D01*
X97111148Y-94049241D01*
X97111138Y-94049229D01*
X96950770Y-93888861D01*
X96950758Y-93888851D01*
X96764336Y-93759698D01*
X96764330Y-93759695D01*
X96557832Y-93665899D01*
X96557829Y-93665898D01*
X96337912Y-93610483D01*
X96337906Y-93610482D01*
X96204719Y-93600000D01*
X95870310Y-93600000D01*
X95803271Y-93580315D01*
X95757516Y-93527511D01*
X95747572Y-93458353D01*
X95776597Y-93394797D01*
X95829355Y-93358959D01*
X95867828Y-93345496D01*
X95958408Y-93313801D01*
X96211445Y-93191945D01*
X96449248Y-93042523D01*
X96668825Y-92867416D01*
X96867416Y-92668825D01*
X97042523Y-92449248D01*
X97191945Y-92211445D01*
X97313801Y-91958408D01*
X97406560Y-91693318D01*
X97469055Y-91419509D01*
X97500500Y-91140425D01*
X97500500Y-90859575D01*
X97500499Y-90859568D01*
X102499500Y-90859568D01*
X102499500Y-91140431D01*
X102530942Y-91419494D01*
X102530945Y-91419512D01*
X102593439Y-91693317D01*
X102593443Y-91693329D01*
X102686200Y-91958411D01*
X102808053Y-92211442D01*
X102808055Y-92211445D01*
X102957477Y-92449248D01*
X103132584Y-92668825D01*
X103331175Y-92867416D01*
X103550752Y-93042523D01*
X103788555Y-93191945D01*
X104041592Y-93313801D01*
X104118761Y-93340803D01*
X104170645Y-93358959D01*
X104227421Y-93399681D01*
X104253168Y-93464633D01*
X104239712Y-93533195D01*
X104191324Y-93583598D01*
X104129690Y-93600000D01*
X103795280Y-93600000D01*
X103662093Y-93610482D01*
X103662087Y-93610483D01*
X103442170Y-93665898D01*
X103442167Y-93665899D01*
X103235669Y-93759695D01*
X103235663Y-93759698D01*
X103049241Y-93888851D01*
X103049229Y-93888861D01*
X102888861Y-94049229D01*
X102888851Y-94049241D01*
X102759698Y-94235663D01*
X102759695Y-94235669D01*
X102665899Y-94442167D01*
X102665898Y-94442170D01*
X102610483Y-94662087D01*
X102610482Y-94662093D01*
X102600000Y-94795280D01*
X102600000Y-95750000D01*
X103672769Y-95750000D01*
X103650000Y-95893753D01*
X103650000Y-96106247D01*
X103672769Y-96250000D01*
X102600000Y-96250000D01*
X102600000Y-97204719D01*
X102610482Y-97337906D01*
X102610483Y-97337912D01*
X102665898Y-97557829D01*
X102665899Y-97557832D01*
X102759695Y-97764330D01*
X102759698Y-97764336D01*
X102888851Y-97950758D01*
X102888861Y-97950770D01*
X103049229Y-98111138D01*
X103049241Y-98111148D01*
X103235663Y-98240301D01*
X103235669Y-98240304D01*
X103442167Y-98334100D01*
X103442170Y-98334101D01*
X103662087Y-98389516D01*
X103662093Y-98389517D01*
X103795280Y-98399999D01*
X103795294Y-98400000D01*
X104750000Y-98400000D01*
X104750000Y-97327231D01*
X104893753Y-97350000D01*
X105106247Y-97350000D01*
X105250000Y-97327231D01*
X105250000Y-98400000D01*
X106204706Y-98400000D01*
X106204719Y-98399999D01*
X106337906Y-98389517D01*
X106337912Y-98389516D01*
X106557829Y-98334101D01*
X106557832Y-98334100D01*
X106764330Y-98240304D01*
X106764336Y-98240301D01*
X106950758Y-98111148D01*
X106950770Y-98111138D01*
X107111138Y-97950770D01*
X107111148Y-97950758D01*
X107240301Y-97764336D01*
X107240304Y-97764330D01*
X107334100Y-97557832D01*
X107334101Y-97557829D01*
X107389516Y-97337912D01*
X107389517Y-97337906D01*
X107399999Y-97204719D01*
X107400000Y-97204706D01*
X107400000Y-96250000D01*
X106327231Y-96250000D01*
X106350000Y-96106247D01*
X106350000Y-95893753D01*
X106327231Y-95750000D01*
X107400000Y-95750000D01*
X107400000Y-94795293D01*
X107399999Y-94795280D01*
X107389517Y-94662093D01*
X107389516Y-94662087D01*
X107334101Y-94442170D01*
X107334100Y-94442167D01*
X107240304Y-94235669D01*
X107240301Y-94235663D01*
X107111148Y-94049241D01*
X107111138Y-94049229D01*
X106950770Y-93888861D01*
X106950758Y-93888851D01*
X106764336Y-93759698D01*
X106764330Y-93759695D01*
X106557832Y-93665899D01*
X106557829Y-93665898D01*
X106337912Y-93610483D01*
X106337906Y-93610482D01*
X106204719Y-93600000D01*
X105870310Y-93600000D01*
X105803271Y-93580315D01*
X105757516Y-93527511D01*
X105747572Y-93458353D01*
X105776597Y-93394797D01*
X105829355Y-93358959D01*
X105867828Y-93345496D01*
X105958408Y-93313801D01*
X106211445Y-93191945D01*
X106449248Y-93042523D01*
X106668825Y-92867416D01*
X106867416Y-92668825D01*
X107042523Y-92449248D01*
X107191945Y-92211445D01*
X107313801Y-91958408D01*
X107406560Y-91693318D01*
X107469055Y-91419509D01*
X107500500Y-91140425D01*
X107500500Y-90859575D01*
X107500499Y-90859568D01*
X112499500Y-90859568D01*
X112499500Y-91140431D01*
X112530942Y-91419494D01*
X112530945Y-91419512D01*
X112593439Y-91693317D01*
X112593443Y-91693329D01*
X112686200Y-91958411D01*
X112808053Y-92211442D01*
X112808055Y-92211445D01*
X112957477Y-92449248D01*
X113132584Y-92668825D01*
X113331175Y-92867416D01*
X113550752Y-93042523D01*
X113788555Y-93191945D01*
X114041592Y-93313801D01*
X114118761Y-93340803D01*
X114170645Y-93358959D01*
X114227421Y-93399681D01*
X114253168Y-93464633D01*
X114239712Y-93533195D01*
X114191324Y-93583598D01*
X114129690Y-93600000D01*
X113795280Y-93600000D01*
X113662093Y-93610482D01*
X113662087Y-93610483D01*
X113442170Y-93665898D01*
X113442167Y-93665899D01*
X113235669Y-93759695D01*
X113235663Y-93759698D01*
X113049241Y-93888851D01*
X113049229Y-93888861D01*
X112888861Y-94049229D01*
X112888851Y-94049241D01*
X112759698Y-94235663D01*
X112759695Y-94235669D01*
X112665899Y-94442167D01*
X112665898Y-94442170D01*
X112610483Y-94662087D01*
X112610482Y-94662093D01*
X112600000Y-94795280D01*
X112600000Y-95750000D01*
X113672769Y-95750000D01*
X113650000Y-95893753D01*
X113650000Y-96106247D01*
X113672769Y-96250000D01*
X112600000Y-96250000D01*
X112600000Y-97204719D01*
X112610482Y-97337906D01*
X112610483Y-97337912D01*
X112665898Y-97557829D01*
X112665899Y-97557832D01*
X112759695Y-97764330D01*
X112759698Y-97764336D01*
X112888851Y-97950758D01*
X112888861Y-97950770D01*
X113049229Y-98111138D01*
X113049241Y-98111148D01*
X113235663Y-98240301D01*
X113235669Y-98240304D01*
X113442167Y-98334100D01*
X113442170Y-98334101D01*
X113662087Y-98389516D01*
X113662093Y-98389517D01*
X113795280Y-98399999D01*
X113795294Y-98400000D01*
X114750000Y-98400000D01*
X114750000Y-97327231D01*
X114893753Y-97350000D01*
X115106247Y-97350000D01*
X115250000Y-97327231D01*
X115250000Y-98400000D01*
X116204706Y-98400000D01*
X116204719Y-98399999D01*
X116337906Y-98389517D01*
X116337912Y-98389516D01*
X116557829Y-98334101D01*
X116557832Y-98334100D01*
X116764330Y-98240304D01*
X116764336Y-98240301D01*
X116950758Y-98111148D01*
X116950770Y-98111138D01*
X117111138Y-97950770D01*
X117111148Y-97950758D01*
X117240301Y-97764336D01*
X117240304Y-97764330D01*
X117334100Y-97557832D01*
X117334101Y-97557829D01*
X117389516Y-97337912D01*
X117389517Y-97337906D01*
X117399999Y-97204719D01*
X117400000Y-97204706D01*
X117400000Y-96250000D01*
X116327231Y-96250000D01*
X116350000Y-96106247D01*
X116350000Y-95893753D01*
X116327231Y-95750000D01*
X117400000Y-95750000D01*
X117400000Y-94857744D01*
X122829500Y-94857744D01*
X122829500Y-95142255D01*
X122829501Y-95142271D01*
X122866636Y-95424341D01*
X122866637Y-95424346D01*
X122866638Y-95424352D01*
X122940278Y-95699181D01*
X123019026Y-95889295D01*
X123049159Y-95962043D01*
X123049164Y-95962054D01*
X123191422Y-96208451D01*
X123364628Y-96434179D01*
X123364634Y-96434186D01*
X123565813Y-96635365D01*
X123565820Y-96635371D01*
X123791548Y-96808577D01*
X124037945Y-96950835D01*
X124037950Y-96950837D01*
X124037953Y-96950839D01*
X124300819Y-97059722D01*
X124575648Y-97133362D01*
X124857738Y-97170500D01*
X124857745Y-97170500D01*
X125142255Y-97170500D01*
X125142262Y-97170500D01*
X125424352Y-97133362D01*
X125699181Y-97059722D01*
X125962047Y-96950839D01*
X126208452Y-96808577D01*
X126434181Y-96635370D01*
X126635370Y-96434181D01*
X126808577Y-96208452D01*
X126950839Y-95962047D01*
X127059722Y-95699181D01*
X127133362Y-95424352D01*
X127170500Y-95142262D01*
X127170500Y-94857738D01*
X127133362Y-94575648D01*
X127059722Y-94300819D01*
X126950839Y-94037953D01*
X126950837Y-94037950D01*
X126950835Y-94037945D01*
X126808577Y-93791548D01*
X126635371Y-93565820D01*
X126635365Y-93565813D01*
X126434186Y-93364634D01*
X126434179Y-93364628D01*
X126208451Y-93191422D01*
X125962054Y-93049164D01*
X125962043Y-93049159D01*
X125898261Y-93022740D01*
X125699181Y-92940278D01*
X125424352Y-92866638D01*
X125424346Y-92866637D01*
X125424341Y-92866636D01*
X125142271Y-92829501D01*
X125142268Y-92829500D01*
X125142262Y-92829500D01*
X124857738Y-92829500D01*
X124857732Y-92829500D01*
X124857728Y-92829501D01*
X124575658Y-92866636D01*
X124575651Y-92866637D01*
X124575648Y-92866638D01*
X124300819Y-92940278D01*
X124178729Y-92990849D01*
X124037956Y-93049159D01*
X124037945Y-93049164D01*
X123791548Y-93191422D01*
X123565820Y-93364628D01*
X123565813Y-93364634D01*
X123364634Y-93565813D01*
X123364628Y-93565820D01*
X123191422Y-93791548D01*
X123049164Y-94037945D01*
X123049159Y-94037956D01*
X123044490Y-94049229D01*
X122940278Y-94300819D01*
X122872854Y-94552452D01*
X122866639Y-94575645D01*
X122866636Y-94575658D01*
X122829501Y-94857728D01*
X122829500Y-94857744D01*
X117400000Y-94857744D01*
X117400000Y-94795293D01*
X117399999Y-94795280D01*
X117389517Y-94662093D01*
X117389516Y-94662087D01*
X117334101Y-94442170D01*
X117334100Y-94442167D01*
X117240304Y-94235669D01*
X117240301Y-94235663D01*
X117111148Y-94049241D01*
X117111138Y-94049229D01*
X116950770Y-93888861D01*
X116950758Y-93888851D01*
X116764336Y-93759698D01*
X116764330Y-93759695D01*
X116557832Y-93665899D01*
X116557829Y-93665898D01*
X116337912Y-93610483D01*
X116337906Y-93610482D01*
X116204719Y-93600000D01*
X115870310Y-93600000D01*
X115803271Y-93580315D01*
X115757516Y-93527511D01*
X115747572Y-93458353D01*
X115776597Y-93394797D01*
X115829355Y-93358959D01*
X115867828Y-93345496D01*
X115958408Y-93313801D01*
X116211445Y-93191945D01*
X116449248Y-93042523D01*
X116668825Y-92867416D01*
X116867416Y-92668825D01*
X117042523Y-92449248D01*
X117191945Y-92211445D01*
X117313801Y-91958408D01*
X117406560Y-91693318D01*
X117469055Y-91419509D01*
X117500500Y-91140425D01*
X117500500Y-90859575D01*
X117469055Y-90580491D01*
X117406560Y-90306682D01*
X117313801Y-90041592D01*
X117191945Y-89788555D01*
X117042523Y-89550752D01*
X116867416Y-89331175D01*
X116668825Y-89132584D01*
X116449248Y-88957477D01*
X116211445Y-88808055D01*
X116211442Y-88808053D01*
X115958411Y-88686200D01*
X115693329Y-88593443D01*
X115693317Y-88593439D01*
X115419512Y-88530945D01*
X115419494Y-88530942D01*
X115140431Y-88499500D01*
X115140425Y-88499500D01*
X114859575Y-88499500D01*
X114859568Y-88499500D01*
X114580505Y-88530942D01*
X114580487Y-88530945D01*
X114306682Y-88593439D01*
X114306670Y-88593443D01*
X114041588Y-88686200D01*
X113788557Y-88808053D01*
X113550753Y-88957476D01*
X113331175Y-89132583D01*
X113132583Y-89331175D01*
X112957476Y-89550753D01*
X112808053Y-89788557D01*
X112686200Y-90041588D01*
X112593443Y-90306670D01*
X112593439Y-90306682D01*
X112530945Y-90580487D01*
X112530942Y-90580505D01*
X112499500Y-90859568D01*
X107500499Y-90859568D01*
X107469055Y-90580491D01*
X107406560Y-90306682D01*
X107313801Y-90041592D01*
X107191945Y-89788555D01*
X107042523Y-89550752D01*
X106867416Y-89331175D01*
X106668825Y-89132584D01*
X106449248Y-88957477D01*
X106211445Y-88808055D01*
X106211442Y-88808053D01*
X105958411Y-88686200D01*
X105693329Y-88593443D01*
X105693317Y-88593439D01*
X105419512Y-88530945D01*
X105419494Y-88530942D01*
X105140431Y-88499500D01*
X105140425Y-88499500D01*
X104859575Y-88499500D01*
X104859568Y-88499500D01*
X104580505Y-88530942D01*
X104580487Y-88530945D01*
X104306682Y-88593439D01*
X104306670Y-88593443D01*
X104041588Y-88686200D01*
X103788557Y-88808053D01*
X103550753Y-88957476D01*
X103331175Y-89132583D01*
X103132583Y-89331175D01*
X102957476Y-89550753D01*
X102808053Y-89788557D01*
X102686200Y-90041588D01*
X102593443Y-90306670D01*
X102593439Y-90306682D01*
X102530945Y-90580487D01*
X102530942Y-90580505D01*
X102499500Y-90859568D01*
X97500499Y-90859568D01*
X97469055Y-90580491D01*
X97406560Y-90306682D01*
X97313801Y-90041592D01*
X97191945Y-89788555D01*
X97042523Y-89550752D01*
X96867416Y-89331175D01*
X96668825Y-89132584D01*
X96449248Y-88957477D01*
X96211445Y-88808055D01*
X96211442Y-88808053D01*
X95958411Y-88686200D01*
X95693329Y-88593443D01*
X95693317Y-88593439D01*
X95419512Y-88530945D01*
X95419494Y-88530942D01*
X95140431Y-88499500D01*
X95140425Y-88499500D01*
X94859575Y-88499500D01*
X94859568Y-88499500D01*
X94580505Y-88530942D01*
X94580487Y-88530945D01*
X94306682Y-88593439D01*
X94306670Y-88593443D01*
X94041588Y-88686200D01*
X93788557Y-88808053D01*
X93550753Y-88957476D01*
X93331175Y-89132583D01*
X93132583Y-89331175D01*
X92957476Y-89550753D01*
X92808053Y-89788557D01*
X92686200Y-90041588D01*
X92593443Y-90306670D01*
X92593439Y-90306682D01*
X92530945Y-90580487D01*
X92530942Y-90580505D01*
X92499500Y-90859568D01*
X87500499Y-90859568D01*
X87469055Y-90580491D01*
X87406560Y-90306682D01*
X87313801Y-90041592D01*
X87191945Y-89788555D01*
X87042523Y-89550752D01*
X86867416Y-89331175D01*
X86668825Y-89132584D01*
X86449248Y-88957477D01*
X86211445Y-88808055D01*
X86211442Y-88808053D01*
X85958411Y-88686200D01*
X85693329Y-88593443D01*
X85693317Y-88593439D01*
X85419512Y-88530945D01*
X85419494Y-88530942D01*
X85140431Y-88499500D01*
X85140425Y-88499500D01*
X84859575Y-88499500D01*
X84859568Y-88499500D01*
X84580505Y-88530942D01*
X84580487Y-88530945D01*
X84306682Y-88593439D01*
X84306670Y-88593443D01*
X84041588Y-88686200D01*
X83788557Y-88808053D01*
X83550753Y-88957476D01*
X83331175Y-89132583D01*
X83132583Y-89331175D01*
X82957476Y-89550753D01*
X82808053Y-89788557D01*
X82686200Y-90041588D01*
X82593443Y-90306670D01*
X82593439Y-90306682D01*
X82530945Y-90580487D01*
X82530942Y-90580505D01*
X82499500Y-90859568D01*
X77500499Y-90859568D01*
X77469055Y-90580491D01*
X77406560Y-90306682D01*
X77313801Y-90041592D01*
X77191945Y-89788555D01*
X77042523Y-89550752D01*
X76867416Y-89331175D01*
X76668825Y-89132584D01*
X76449248Y-88957477D01*
X76211445Y-88808055D01*
X76211442Y-88808053D01*
X75958411Y-88686200D01*
X75693329Y-88593443D01*
X75693317Y-88593439D01*
X75419512Y-88530945D01*
X75419494Y-88530942D01*
X75140431Y-88499500D01*
X75140425Y-88499500D01*
X74859575Y-88499500D01*
X74859568Y-88499500D01*
X74580505Y-88530942D01*
X74580487Y-88530945D01*
X74306682Y-88593439D01*
X74306670Y-88593443D01*
X74041588Y-88686200D01*
X73788557Y-88808053D01*
X73550753Y-88957476D01*
X73331175Y-89132583D01*
X73132583Y-89331175D01*
X72957476Y-89550753D01*
X72808053Y-89788557D01*
X72686200Y-90041588D01*
X72593443Y-90306670D01*
X72593439Y-90306682D01*
X72530945Y-90580487D01*
X72530942Y-90580505D01*
X72499500Y-90859568D01*
X67500499Y-90859568D01*
X67469055Y-90580491D01*
X67406560Y-90306682D01*
X67313801Y-90041592D01*
X67191945Y-89788555D01*
X67042523Y-89550752D01*
X66867416Y-89331175D01*
X66668825Y-89132584D01*
X66449248Y-88957477D01*
X66211445Y-88808055D01*
X66211442Y-88808053D01*
X65958411Y-88686200D01*
X65693329Y-88593443D01*
X65693317Y-88593439D01*
X65419512Y-88530945D01*
X65419494Y-88530942D01*
X65140431Y-88499500D01*
X65140425Y-88499500D01*
X64859575Y-88499500D01*
X64859568Y-88499500D01*
X64580505Y-88530942D01*
X64580487Y-88530945D01*
X64306682Y-88593439D01*
X64306670Y-88593443D01*
X64041588Y-88686200D01*
X63788557Y-88808053D01*
X63550753Y-88957476D01*
X63331175Y-89132583D01*
X63132583Y-89331175D01*
X62957476Y-89550753D01*
X62808053Y-89788557D01*
X62686200Y-90041588D01*
X62593443Y-90306670D01*
X62593439Y-90306682D01*
X62530945Y-90580487D01*
X62530942Y-90580505D01*
X62499500Y-90859568D01*
X57500499Y-90859568D01*
X57469055Y-90580491D01*
X57406560Y-90306682D01*
X57313801Y-90041592D01*
X57191945Y-89788555D01*
X57042523Y-89550752D01*
X56867416Y-89331175D01*
X56668825Y-89132584D01*
X56449248Y-88957477D01*
X56211445Y-88808055D01*
X56211442Y-88808053D01*
X55958411Y-88686200D01*
X55693329Y-88593443D01*
X55693317Y-88593439D01*
X55419512Y-88530945D01*
X55419494Y-88530942D01*
X55140431Y-88499500D01*
X55140425Y-88499500D01*
X54859575Y-88499500D01*
X54859568Y-88499500D01*
X54580505Y-88530942D01*
X54580487Y-88530945D01*
X54306682Y-88593439D01*
X54306670Y-88593443D01*
X54041588Y-88686200D01*
X53788557Y-88808053D01*
X53550753Y-88957476D01*
X53331175Y-89132583D01*
X53132583Y-89331175D01*
X52957476Y-89550753D01*
X52808053Y-89788557D01*
X52686200Y-90041588D01*
X52593443Y-90306670D01*
X52593439Y-90306682D01*
X52530945Y-90580487D01*
X52530942Y-90580505D01*
X52499500Y-90859568D01*
X40500500Y-90859568D01*
X40500500Y-77477648D01*
X80699500Y-77477648D01*
X80699500Y-77682351D01*
X80731522Y-77884534D01*
X80794781Y-78079223D01*
X80887715Y-78261613D01*
X81008028Y-78427213D01*
X81152786Y-78571971D01*
X81258525Y-78648793D01*
X81318390Y-78692287D01*
X81434607Y-78751503D01*
X81500776Y-78785218D01*
X81500778Y-78785218D01*
X81500781Y-78785220D01*
X81605137Y-78819127D01*
X81695465Y-78848477D01*
X81796557Y-78864488D01*
X81897648Y-78880500D01*
X81897649Y-78880500D01*
X82100664Y-78880500D01*
X82167703Y-78900185D01*
X82188345Y-78916819D01*
X83648793Y-80377267D01*
X83679043Y-80426630D01*
X83702103Y-80497603D01*
X83802187Y-80694025D01*
X83931752Y-80872358D01*
X83931756Y-80872363D01*
X83982316Y-80922923D01*
X84015801Y-80984246D01*
X84010817Y-81053938D01*
X83968945Y-81109871D01*
X83937969Y-81126785D01*
X83857918Y-81156643D01*
X83857906Y-81156649D01*
X83742812Y-81242809D01*
X83742809Y-81242812D01*
X83656649Y-81357906D01*
X83656645Y-81357913D01*
X83606403Y-81492620D01*
X83606401Y-81492627D01*
X83600000Y-81552155D01*
X83600000Y-82250000D01*
X84624722Y-82250000D01*
X84580667Y-82326306D01*
X84550000Y-82440756D01*
X84550000Y-82559244D01*
X84580667Y-82673694D01*
X84624722Y-82750000D01*
X83600000Y-82750000D01*
X83600000Y-83447844D01*
X83606401Y-83507372D01*
X83606403Y-83507379D01*
X83656645Y-83642086D01*
X83656649Y-83642093D01*
X83742809Y-83757187D01*
X83742812Y-83757190D01*
X83857906Y-83843350D01*
X83857913Y-83843354D01*
X83992620Y-83893596D01*
X83992627Y-83893598D01*
X84052155Y-83899999D01*
X84052172Y-83900000D01*
X84750000Y-83900000D01*
X84750000Y-82875277D01*
X84826306Y-82919333D01*
X84940756Y-82950000D01*
X85059244Y-82950000D01*
X85173694Y-82919333D01*
X85250000Y-82875277D01*
X85250000Y-83900000D01*
X85947828Y-83900000D01*
X85947844Y-83899999D01*
X86007372Y-83893598D01*
X86007379Y-83893596D01*
X86142086Y-83843354D01*
X86142093Y-83843350D01*
X86257187Y-83757190D01*
X86257190Y-83757187D01*
X86343350Y-83642093D01*
X86343354Y-83642086D01*
X86393596Y-83507379D01*
X86393598Y-83507372D01*
X86399999Y-83447844D01*
X86400000Y-83447827D01*
X86400000Y-82750000D01*
X85375278Y-82750000D01*
X85419333Y-82673694D01*
X85450000Y-82559244D01*
X85450000Y-82440756D01*
X85419333Y-82326306D01*
X85375278Y-82250000D01*
X86400000Y-82250000D01*
X86400000Y-81552172D01*
X86399999Y-81552155D01*
X86393598Y-81492627D01*
X86393596Y-81492620D01*
X86343354Y-81357913D01*
X86343350Y-81357906D01*
X86257190Y-81242812D01*
X86257187Y-81242809D01*
X86142093Y-81156649D01*
X86142087Y-81156646D01*
X86062030Y-81126786D01*
X86006097Y-81084914D01*
X85981680Y-81019450D01*
X85996532Y-80951177D01*
X86017681Y-80922925D01*
X86068242Y-80872365D01*
X86197815Y-80694022D01*
X86297895Y-80497606D01*
X86366015Y-80287951D01*
X86400500Y-80070222D01*
X86400500Y-79849778D01*
X86366015Y-79632049D01*
X86326360Y-79510001D01*
X86297896Y-79422396D01*
X86297895Y-79422393D01*
X86218194Y-79265974D01*
X86197815Y-79225978D01*
X86188464Y-79213108D01*
X86081801Y-79066296D01*
X86081686Y-79065976D01*
X86081417Y-79065766D01*
X86069942Y-79033060D01*
X86058321Y-79000489D01*
X86058398Y-79000156D01*
X86058286Y-78999836D01*
X86066296Y-78966195D01*
X86074147Y-78932436D01*
X86074390Y-78932198D01*
X86074470Y-78931867D01*
X86099474Y-78907821D01*
X86124253Y-78883741D01*
X86124668Y-78883593D01*
X86124832Y-78883437D01*
X86128970Y-78882071D01*
X86158136Y-78871752D01*
X86160393Y-78871307D01*
X86304534Y-78848477D01*
X86348241Y-78834275D01*
X86355519Y-78832841D01*
X86361358Y-78833373D01*
X86379502Y-78830500D01*
X88625500Y-78830500D01*
X88692539Y-78850185D01*
X88738294Y-78902989D01*
X88749500Y-78954500D01*
X88749500Y-79339606D01*
X88735985Y-79395901D01*
X88702104Y-79462393D01*
X88702103Y-79462396D01*
X88633985Y-79672047D01*
X88616674Y-79781344D01*
X88599500Y-79889778D01*
X88599500Y-80110222D01*
X88613717Y-80199983D01*
X88633985Y-80327952D01*
X88702103Y-80537603D01*
X88702104Y-80537606D01*
X88733846Y-80599901D01*
X88781279Y-80692993D01*
X88802187Y-80734025D01*
X88931752Y-80912358D01*
X88931756Y-80912363D01*
X88982316Y-80962923D01*
X89015801Y-81024246D01*
X89010817Y-81093938D01*
X88968945Y-81149871D01*
X88937969Y-81166785D01*
X88857918Y-81196643D01*
X88857906Y-81196649D01*
X88742812Y-81282809D01*
X88742809Y-81282812D01*
X88656649Y-81397906D01*
X88656645Y-81397913D01*
X88606403Y-81532620D01*
X88606401Y-81532627D01*
X88600000Y-81592155D01*
X88600000Y-82290000D01*
X89624722Y-82290000D01*
X89580667Y-82366306D01*
X89550000Y-82480756D01*
X89550000Y-82599244D01*
X89580667Y-82713694D01*
X89624722Y-82790000D01*
X88600000Y-82790000D01*
X88600000Y-83487844D01*
X88606401Y-83547372D01*
X88606403Y-83547379D01*
X88656645Y-83682086D01*
X88656649Y-83682093D01*
X88742809Y-83797187D01*
X88742812Y-83797190D01*
X88857906Y-83883350D01*
X88857913Y-83883354D01*
X88992620Y-83933596D01*
X88992627Y-83933598D01*
X89052155Y-83939999D01*
X89052172Y-83940000D01*
X89750000Y-83940000D01*
X89750000Y-82915277D01*
X89826306Y-82959333D01*
X89940756Y-82990000D01*
X90059244Y-82990000D01*
X90173694Y-82959333D01*
X90250000Y-82915277D01*
X90250000Y-83940000D01*
X90947828Y-83940000D01*
X90947844Y-83939999D01*
X91007372Y-83933598D01*
X91007379Y-83933596D01*
X91142086Y-83883354D01*
X91142093Y-83883350D01*
X91257187Y-83797190D01*
X91257190Y-83797187D01*
X91343350Y-83682093D01*
X91343354Y-83682086D01*
X91393596Y-83547379D01*
X91393598Y-83547372D01*
X91399999Y-83487844D01*
X91400000Y-83487827D01*
X91400000Y-82790000D01*
X90375278Y-82790000D01*
X90419333Y-82713694D01*
X90450000Y-82599244D01*
X90450000Y-82480756D01*
X90419333Y-82366306D01*
X90375278Y-82290000D01*
X91400000Y-82290000D01*
X91400000Y-81592172D01*
X91399999Y-81592155D01*
X91393598Y-81532627D01*
X91393596Y-81532620D01*
X91343354Y-81397913D01*
X91343350Y-81397906D01*
X91257190Y-81282812D01*
X91257187Y-81282809D01*
X91142093Y-81196649D01*
X91142087Y-81196646D01*
X91062030Y-81166786D01*
X91006097Y-81124914D01*
X90981680Y-81059450D01*
X90996532Y-80991177D01*
X91017681Y-80962925D01*
X91068242Y-80912365D01*
X91197815Y-80734022D01*
X91297895Y-80537606D01*
X91366015Y-80327951D01*
X91400500Y-80110222D01*
X91400500Y-79889778D01*
X91366015Y-79672049D01*
X91309952Y-79499501D01*
X91297896Y-79462396D01*
X91297895Y-79462393D01*
X91264015Y-79395901D01*
X91250500Y-79339606D01*
X91250500Y-77959500D01*
X91256569Y-77921182D01*
X91268477Y-77884534D01*
X91300500Y-77682352D01*
X91300500Y-77477648D01*
X92699500Y-77477648D01*
X92699500Y-77682351D01*
X92731522Y-77884530D01*
X92731522Y-77884531D01*
X92743431Y-77921182D01*
X92749500Y-77959500D01*
X92749500Y-79098422D01*
X92780290Y-79292826D01*
X92841117Y-79480030D01*
X92930476Y-79655405D01*
X93046172Y-79814646D01*
X93046174Y-79814648D01*
X93648793Y-80417267D01*
X93679043Y-80466630D01*
X93702103Y-80537603D01*
X93702105Y-80537606D01*
X93781805Y-80694025D01*
X93802187Y-80734025D01*
X93931752Y-80912358D01*
X93931756Y-80912363D01*
X93982316Y-80962923D01*
X94015801Y-81024246D01*
X94010817Y-81093938D01*
X93968945Y-81149871D01*
X93937969Y-81166785D01*
X93857918Y-81196643D01*
X93857906Y-81196649D01*
X93742812Y-81282809D01*
X93742809Y-81282812D01*
X93656649Y-81397906D01*
X93656645Y-81397913D01*
X93606403Y-81532620D01*
X93606401Y-81532627D01*
X93600000Y-81592155D01*
X93600000Y-82290000D01*
X94624722Y-82290000D01*
X94580667Y-82366306D01*
X94550000Y-82480756D01*
X94550000Y-82599244D01*
X94580667Y-82713694D01*
X94624722Y-82790000D01*
X93600000Y-82790000D01*
X93600000Y-83487844D01*
X93606401Y-83547372D01*
X93606403Y-83547379D01*
X93656645Y-83682086D01*
X93656649Y-83682093D01*
X93742809Y-83797187D01*
X93742812Y-83797190D01*
X93857906Y-83883350D01*
X93857913Y-83883354D01*
X93992620Y-83933596D01*
X93992627Y-83933598D01*
X94052155Y-83939999D01*
X94052172Y-83940000D01*
X94750000Y-83940000D01*
X94750000Y-82915277D01*
X94826306Y-82959333D01*
X94940756Y-82990000D01*
X95059244Y-82990000D01*
X95173694Y-82959333D01*
X95250000Y-82915277D01*
X95250000Y-83940000D01*
X95947828Y-83940000D01*
X95947844Y-83939999D01*
X96007372Y-83933598D01*
X96007379Y-83933596D01*
X96142086Y-83883354D01*
X96142093Y-83883350D01*
X96257187Y-83797190D01*
X96257190Y-83797187D01*
X96343350Y-83682093D01*
X96343354Y-83682086D01*
X96393596Y-83547379D01*
X96393598Y-83547372D01*
X96399999Y-83487844D01*
X96400000Y-83487827D01*
X96400000Y-82790000D01*
X95375278Y-82790000D01*
X95419333Y-82713694D01*
X95450000Y-82599244D01*
X95450000Y-82480756D01*
X95419333Y-82366306D01*
X95375278Y-82290000D01*
X96400000Y-82290000D01*
X96400000Y-81592172D01*
X96399999Y-81592155D01*
X96393598Y-81532627D01*
X96393596Y-81532620D01*
X96343354Y-81397913D01*
X96343350Y-81397906D01*
X96257190Y-81282812D01*
X96257187Y-81282809D01*
X96142093Y-81196649D01*
X96142087Y-81196646D01*
X96062030Y-81166786D01*
X96006097Y-81124914D01*
X95981680Y-81059450D01*
X95996532Y-80991177D01*
X96017681Y-80962925D01*
X96068242Y-80912365D01*
X96197815Y-80734022D01*
X96297895Y-80537606D01*
X96366015Y-80327951D01*
X96386283Y-80199983D01*
X98499500Y-80199983D01*
X98499500Y-81800001D01*
X98499501Y-81800018D01*
X98510000Y-81902796D01*
X98510001Y-81902799D01*
X98558779Y-82050000D01*
X98565186Y-82069334D01*
X98657288Y-82218656D01*
X98781344Y-82342712D01*
X98930666Y-82434814D01*
X99097203Y-82489999D01*
X99199991Y-82500500D01*
X100800008Y-82500499D01*
X100902797Y-82489999D01*
X101069334Y-82434814D01*
X101218656Y-82342712D01*
X101342712Y-82218656D01*
X101434814Y-82069334D01*
X101489999Y-81902797D01*
X101500500Y-81800009D01*
X101500499Y-80881947D01*
X103500000Y-80881947D01*
X103500000Y-81118052D01*
X103536934Y-81351247D01*
X103609897Y-81575802D01*
X103717087Y-81786174D01*
X103777338Y-81869104D01*
X103777340Y-81869105D01*
X104517037Y-81129408D01*
X104534075Y-81192993D01*
X104599901Y-81307007D01*
X104692993Y-81400099D01*
X104807007Y-81465925D01*
X104870590Y-81482962D01*
X104130893Y-82222658D01*
X104213828Y-82282914D01*
X104424197Y-82390102D01*
X104648752Y-82463065D01*
X104648751Y-82463065D01*
X104881948Y-82500000D01*
X105118052Y-82500000D01*
X105351247Y-82463065D01*
X105575802Y-82390102D01*
X105786163Y-82282918D01*
X105786169Y-82282914D01*
X105869104Y-82222658D01*
X105869105Y-82222658D01*
X105129408Y-81482962D01*
X105192993Y-81465925D01*
X105307007Y-81400099D01*
X105400099Y-81307007D01*
X105465925Y-81192993D01*
X105482962Y-81129409D01*
X106222658Y-81869105D01*
X106222658Y-81869104D01*
X106282914Y-81786169D01*
X106282918Y-81786163D01*
X106390102Y-81575802D01*
X106463065Y-81351247D01*
X106500000Y-81118052D01*
X106500000Y-80881947D01*
X106463065Y-80648752D01*
X106390102Y-80424197D01*
X106302939Y-80253129D01*
X106302938Y-80253127D01*
X106282916Y-80213830D01*
X106272855Y-80199983D01*
X109499500Y-80199983D01*
X109499500Y-81800001D01*
X109499501Y-81800018D01*
X109510000Y-81902796D01*
X109510001Y-81902799D01*
X109558779Y-82050000D01*
X109565186Y-82069334D01*
X109657288Y-82218656D01*
X109781344Y-82342712D01*
X109930666Y-82434814D01*
X110097203Y-82489999D01*
X110199991Y-82500500D01*
X111800008Y-82500499D01*
X111902797Y-82489999D01*
X112069334Y-82434814D01*
X112218656Y-82342712D01*
X112342712Y-82218656D01*
X112434814Y-82069334D01*
X112489999Y-81902797D01*
X112500500Y-81800009D01*
X112500499Y-80881947D01*
X114500000Y-80881947D01*
X114500000Y-81118052D01*
X114536934Y-81351247D01*
X114609897Y-81575802D01*
X114717087Y-81786174D01*
X114777338Y-81869104D01*
X114777340Y-81869105D01*
X115517037Y-81129408D01*
X115534075Y-81192993D01*
X115599901Y-81307007D01*
X115692993Y-81400099D01*
X115807007Y-81465925D01*
X115870590Y-81482962D01*
X115130893Y-82222658D01*
X115213828Y-82282914D01*
X115424197Y-82390102D01*
X115648752Y-82463065D01*
X115648751Y-82463065D01*
X115881948Y-82500000D01*
X116118052Y-82500000D01*
X116351247Y-82463065D01*
X116575802Y-82390102D01*
X116786163Y-82282918D01*
X116786169Y-82282914D01*
X116869104Y-82222658D01*
X116869105Y-82222658D01*
X116129408Y-81482962D01*
X116192993Y-81465925D01*
X116307007Y-81400099D01*
X116400099Y-81307007D01*
X116465925Y-81192993D01*
X116482962Y-81129409D01*
X117222658Y-81869105D01*
X117222658Y-81869104D01*
X117282914Y-81786169D01*
X117282918Y-81786163D01*
X117390102Y-81575802D01*
X117463065Y-81351247D01*
X117500000Y-81118052D01*
X117500000Y-80881947D01*
X117463065Y-80648752D01*
X117390102Y-80424197D01*
X117282914Y-80213828D01*
X117222658Y-80130894D01*
X117222658Y-80130893D01*
X116482962Y-80870590D01*
X116465925Y-80807007D01*
X116400099Y-80692993D01*
X116307007Y-80599901D01*
X116192993Y-80534075D01*
X116129409Y-80517037D01*
X116869105Y-79777340D01*
X116869104Y-79777338D01*
X116786174Y-79717087D01*
X116575802Y-79609897D01*
X116351247Y-79536934D01*
X116351248Y-79536934D01*
X116118052Y-79500000D01*
X115881948Y-79500000D01*
X115648752Y-79536934D01*
X115424197Y-79609897D01*
X115213830Y-79717084D01*
X115130894Y-79777340D01*
X115870591Y-80517037D01*
X115807007Y-80534075D01*
X115692993Y-80599901D01*
X115599901Y-80692993D01*
X115534075Y-80807007D01*
X115517037Y-80870591D01*
X114777340Y-80130894D01*
X114717084Y-80213830D01*
X114609897Y-80424197D01*
X114536934Y-80648752D01*
X114500000Y-80881947D01*
X112500499Y-80881947D01*
X112500499Y-80199992D01*
X112493440Y-80130893D01*
X112489999Y-80097203D01*
X112489998Y-80097200D01*
X112481058Y-80070221D01*
X112434814Y-79930666D01*
X112342712Y-79781344D01*
X112218656Y-79657288D01*
X112069334Y-79565186D01*
X111902797Y-79510001D01*
X111902795Y-79510000D01*
X111800010Y-79499500D01*
X110199998Y-79499500D01*
X110199981Y-79499501D01*
X110097203Y-79510000D01*
X110097200Y-79510001D01*
X109930668Y-79565185D01*
X109930663Y-79565187D01*
X109781342Y-79657289D01*
X109657289Y-79781342D01*
X109565187Y-79930663D01*
X109565186Y-79930666D01*
X109510001Y-80097203D01*
X109510001Y-80097204D01*
X109510000Y-80097204D01*
X109499500Y-80199983D01*
X106272855Y-80199983D01*
X106222658Y-80130894D01*
X106222658Y-80130893D01*
X105482962Y-80870590D01*
X105465925Y-80807007D01*
X105400099Y-80692993D01*
X105307007Y-80599901D01*
X105192993Y-80534075D01*
X105129409Y-80517037D01*
X105869105Y-79777340D01*
X105869104Y-79777338D01*
X105786174Y-79717087D01*
X105575802Y-79609897D01*
X105351247Y-79536934D01*
X105351248Y-79536934D01*
X105118052Y-79500000D01*
X104881948Y-79500000D01*
X104648752Y-79536934D01*
X104424197Y-79609897D01*
X104213830Y-79717084D01*
X104130894Y-79777340D01*
X104870591Y-80517037D01*
X104807007Y-80534075D01*
X104692993Y-80599901D01*
X104599901Y-80692993D01*
X104534075Y-80807007D01*
X104517037Y-80870591D01*
X103777340Y-80130894D01*
X103717084Y-80213830D01*
X103609897Y-80424197D01*
X103536934Y-80648752D01*
X103500000Y-80881947D01*
X101500499Y-80881947D01*
X101500499Y-80199992D01*
X101493440Y-80130893D01*
X101489999Y-80097203D01*
X101489998Y-80097200D01*
X101481058Y-80070221D01*
X101434814Y-79930666D01*
X101342712Y-79781344D01*
X101218656Y-79657288D01*
X101069334Y-79565186D01*
X100902797Y-79510001D01*
X100902795Y-79510000D01*
X100800010Y-79499500D01*
X99199998Y-79499500D01*
X99199981Y-79499501D01*
X99097203Y-79510000D01*
X99097200Y-79510001D01*
X98930668Y-79565185D01*
X98930663Y-79565187D01*
X98781342Y-79657289D01*
X98657289Y-79781342D01*
X98565187Y-79930663D01*
X98565186Y-79930666D01*
X98510001Y-80097203D01*
X98510001Y-80097204D01*
X98510000Y-80097204D01*
X98499500Y-80199983D01*
X96386283Y-80199983D01*
X96400500Y-80110222D01*
X96400500Y-79889778D01*
X96366015Y-79672049D01*
X96309952Y-79499501D01*
X96297896Y-79462396D01*
X96297895Y-79462393D01*
X96250500Y-79369377D01*
X96197815Y-79265978D01*
X96181260Y-79243192D01*
X96068247Y-79087641D01*
X96068243Y-79087636D01*
X95912363Y-78931756D01*
X95912358Y-78931752D01*
X95734025Y-78802187D01*
X95734024Y-78802186D01*
X95734022Y-78802185D01*
X95635814Y-78752145D01*
X95537603Y-78702103D01*
X95466630Y-78679043D01*
X95455227Y-78672055D01*
X95445521Y-78669944D01*
X95417267Y-78648793D01*
X95286819Y-78518345D01*
X95253334Y-78457022D01*
X95250500Y-78430664D01*
X95250500Y-77959500D01*
X95256569Y-77921182D01*
X95268477Y-77884534D01*
X95300500Y-77682352D01*
X95300500Y-77477648D01*
X95268477Y-77275466D01*
X95205220Y-77080781D01*
X95205218Y-77080778D01*
X95205218Y-77080776D01*
X95171503Y-77014607D01*
X95112287Y-76898390D01*
X95104556Y-76887749D01*
X94991971Y-76732786D01*
X94847213Y-76588028D01*
X94681613Y-76467715D01*
X94681612Y-76467714D01*
X94681610Y-76467713D01*
X94624653Y-76438691D01*
X94499223Y-76374781D01*
X94304534Y-76311522D01*
X94129995Y-76283878D01*
X94102352Y-76279500D01*
X93897648Y-76279500D01*
X93873329Y-76283351D01*
X93695465Y-76311522D01*
X93500776Y-76374781D01*
X93318386Y-76467715D01*
X93152786Y-76588028D01*
X93008028Y-76732786D01*
X92887715Y-76898386D01*
X92794781Y-77080776D01*
X92731522Y-77275465D01*
X92699500Y-77477648D01*
X91300500Y-77477648D01*
X91268477Y-77275466D01*
X91205220Y-77080781D01*
X91205218Y-77080778D01*
X91205218Y-77080776D01*
X91171503Y-77014607D01*
X91112287Y-76898390D01*
X91104556Y-76887749D01*
X90991971Y-76732786D01*
X90847213Y-76588028D01*
X90681613Y-76467715D01*
X90681612Y-76467714D01*
X90681610Y-76467713D01*
X90624653Y-76438691D01*
X90499223Y-76374781D01*
X90304534Y-76311522D01*
X90129995Y-76283878D01*
X90102352Y-76279500D01*
X89897648Y-76279500D01*
X89830254Y-76290174D01*
X89695464Y-76311523D01*
X89658816Y-76323431D01*
X89620498Y-76329500D01*
X86379502Y-76329500D01*
X86341184Y-76323431D01*
X86304535Y-76311523D01*
X86203443Y-76295511D01*
X86102352Y-76279500D01*
X85897648Y-76279500D01*
X85873329Y-76283351D01*
X85695465Y-76311522D01*
X85500776Y-76374781D01*
X85318386Y-76467715D01*
X85152786Y-76588028D01*
X85008028Y-76732786D01*
X84887715Y-76898386D01*
X84794781Y-77080776D01*
X84731522Y-77275465D01*
X84699500Y-77477648D01*
X84699500Y-77591664D01*
X84679815Y-77658703D01*
X84627011Y-77704458D01*
X84557853Y-77714402D01*
X84494297Y-77685377D01*
X84487819Y-77679345D01*
X83434648Y-76626174D01*
X83434646Y-76626172D01*
X83275405Y-76510476D01*
X83100030Y-76421117D01*
X82912826Y-76360290D01*
X82718422Y-76329500D01*
X82718417Y-76329500D01*
X82379502Y-76329500D01*
X82341184Y-76323431D01*
X82304535Y-76311523D01*
X82203443Y-76295511D01*
X82102352Y-76279500D01*
X81897648Y-76279500D01*
X81873329Y-76283351D01*
X81695465Y-76311522D01*
X81500776Y-76374781D01*
X81318386Y-76467715D01*
X81152786Y-76588028D01*
X81008028Y-76732786D01*
X80887715Y-76898386D01*
X80794781Y-77080776D01*
X80731522Y-77275465D01*
X80699500Y-77477648D01*
X40500500Y-77477648D01*
X40500500Y-60401577D01*
X45749500Y-60401577D01*
X45749500Y-62598422D01*
X45780290Y-62792826D01*
X45841117Y-62980030D01*
X45930476Y-63155405D01*
X46046172Y-63314646D01*
X46046174Y-63314648D01*
X48501944Y-65770418D01*
X48531969Y-65819094D01*
X48565186Y-65919334D01*
X48657288Y-66068656D01*
X48781344Y-66192712D01*
X48930666Y-66284814D01*
X49097203Y-66339999D01*
X49199991Y-66350500D01*
X50800008Y-66350499D01*
X50902797Y-66339999D01*
X51069334Y-66284814D01*
X51218656Y-66192712D01*
X51342712Y-66068656D01*
X51434814Y-65919334D01*
X51489999Y-65752797D01*
X51500500Y-65650009D01*
X51500499Y-64349992D01*
X51489999Y-64247203D01*
X51434814Y-64080666D01*
X51417212Y-64052129D01*
X51347802Y-63939596D01*
X51329362Y-63872204D01*
X51350285Y-63805541D01*
X51403927Y-63760771D01*
X51453341Y-63750500D01*
X61438422Y-63750500D01*
X61632826Y-63719709D01*
X61820026Y-63658884D01*
X61995405Y-63569524D01*
X62154646Y-63453828D01*
X63752318Y-61856154D01*
X63813641Y-61822670D01*
X63883333Y-61827654D01*
X63927680Y-61856155D01*
X64775355Y-62703830D01*
X64775360Y-62703834D01*
X64862866Y-62767410D01*
X64934595Y-62819524D01*
X65109974Y-62908884D01*
X65276467Y-62962981D01*
X65297174Y-62969709D01*
X65329575Y-62974840D01*
X65491578Y-63000500D01*
X65491583Y-63000500D01*
X65491584Y-63000500D01*
X65688417Y-63000500D01*
X75069873Y-63000500D01*
X75136912Y-63020185D01*
X75157554Y-63036819D01*
X75681722Y-63560987D01*
X75715207Y-63622310D01*
X75710223Y-63692002D01*
X75668351Y-63747935D01*
X75650336Y-63759153D01*
X75577597Y-63796215D01*
X75404505Y-63921974D01*
X75253224Y-64073255D01*
X75253219Y-64073261D01*
X75245316Y-64084139D01*
X75189985Y-64126803D01*
X75120371Y-64132781D01*
X75058577Y-64100173D01*
X75044684Y-64084139D01*
X75036780Y-64073261D01*
X75036775Y-64073255D01*
X74885494Y-63921974D01*
X74885492Y-63921972D01*
X74712402Y-63796215D01*
X74521771Y-63699084D01*
X74318292Y-63632969D01*
X74318290Y-63632968D01*
X74318288Y-63632968D01*
X74106980Y-63599500D01*
X74106975Y-63599500D01*
X73893025Y-63599500D01*
X73893020Y-63599500D01*
X73681711Y-63632968D01*
X73681708Y-63632969D01*
X73517168Y-63686432D01*
X73478226Y-63699085D01*
X73287597Y-63796215D01*
X73114505Y-63921974D01*
X72963224Y-64073255D01*
X72837465Y-64246347D01*
X72740335Y-64436976D01*
X72674218Y-64640461D01*
X72640750Y-64851769D01*
X72640750Y-65148230D01*
X72666080Y-65308156D01*
X72674219Y-65359542D01*
X72740334Y-65563021D01*
X72837465Y-65753652D01*
X72963222Y-65926742D01*
X73114508Y-66078028D01*
X73287598Y-66203785D01*
X73333341Y-66227092D01*
X73360335Y-66240846D01*
X73411131Y-66288820D01*
X73427926Y-66356641D01*
X73405389Y-66422776D01*
X73391721Y-66439012D01*
X68617554Y-71213181D01*
X68556231Y-71246666D01*
X68529873Y-71249500D01*
X60691306Y-71249500D01*
X60652988Y-71243431D01*
X60466240Y-71182753D01*
X60304957Y-71157208D01*
X60256287Y-71149500D01*
X59743713Y-71149500D01*
X59704202Y-71155757D01*
X59533759Y-71182753D01*
X59347012Y-71243431D01*
X59308694Y-71249500D01*
X50691306Y-71249500D01*
X50652988Y-71243431D01*
X50466240Y-71182753D01*
X50304957Y-71157208D01*
X50256287Y-71149500D01*
X49743713Y-71149500D01*
X49695042Y-71157208D01*
X49533760Y-71182753D01*
X49331585Y-71248444D01*
X49142179Y-71344951D01*
X48970213Y-71469890D01*
X48819890Y-71620213D01*
X48694951Y-71792179D01*
X48598444Y-71981585D01*
X48532753Y-72183760D01*
X48511146Y-72320185D01*
X48499500Y-72393713D01*
X48499500Y-72606287D01*
X48532754Y-72816243D01*
X48577458Y-72953828D01*
X48598444Y-73018414D01*
X48694951Y-73207820D01*
X48819890Y-73379786D01*
X48959068Y-73518964D01*
X48992553Y-73580287D01*
X48987569Y-73649979D01*
X48945697Y-73705912D01*
X48936484Y-73712183D01*
X48781659Y-73807680D01*
X48781655Y-73807683D01*
X48657684Y-73931654D01*
X48565643Y-74080875D01*
X48565641Y-74080880D01*
X48510494Y-74247302D01*
X48510493Y-74247309D01*
X48500000Y-74350013D01*
X48500000Y-74750000D01*
X49566988Y-74750000D01*
X49534075Y-74807007D01*
X49500000Y-74934174D01*
X49500000Y-75065826D01*
X49534075Y-75192993D01*
X49566988Y-75250000D01*
X48500001Y-75250000D01*
X48500001Y-75649986D01*
X48510494Y-75752697D01*
X48565641Y-75919119D01*
X48565643Y-75919124D01*
X48657684Y-76068345D01*
X48781654Y-76192315D01*
X48930875Y-76284356D01*
X48930880Y-76284358D01*
X49097302Y-76339505D01*
X49097309Y-76339506D01*
X49200019Y-76349999D01*
X49749999Y-76349999D01*
X49750000Y-76349998D01*
X49750000Y-75433012D01*
X49807007Y-75465925D01*
X49934174Y-75500000D01*
X50065826Y-75500000D01*
X50192993Y-75465925D01*
X50250000Y-75433012D01*
X50250000Y-76349999D01*
X50799972Y-76349999D01*
X50799986Y-76349998D01*
X50902697Y-76339505D01*
X51069119Y-76284358D01*
X51069124Y-76284356D01*
X51218345Y-76192315D01*
X51342315Y-76068345D01*
X51434356Y-75919124D01*
X51434358Y-75919119D01*
X51489505Y-75752697D01*
X51489506Y-75752690D01*
X51499999Y-75649986D01*
X51500000Y-75649973D01*
X51500000Y-75250000D01*
X50433012Y-75250000D01*
X50465925Y-75192993D01*
X50500000Y-75065826D01*
X50500000Y-74934174D01*
X50465925Y-74807007D01*
X50433012Y-74750000D01*
X51499999Y-74750000D01*
X51499999Y-74350028D01*
X51499998Y-74350013D01*
X51489505Y-74247302D01*
X51434358Y-74080880D01*
X51434356Y-74080875D01*
X51347215Y-73939597D01*
X51328775Y-73872204D01*
X51349698Y-73805541D01*
X51403340Y-73760771D01*
X51452754Y-73750500D01*
X58547246Y-73750500D01*
X58614285Y-73770185D01*
X58660040Y-73822989D01*
X58669984Y-73892147D01*
X58652785Y-73939597D01*
X58565643Y-74080875D01*
X58565641Y-74080880D01*
X58510494Y-74247302D01*
X58510493Y-74247309D01*
X58500000Y-74350013D01*
X58500000Y-74750000D01*
X59566988Y-74750000D01*
X59534075Y-74807007D01*
X59500000Y-74934174D01*
X59500000Y-75065826D01*
X59534075Y-75192993D01*
X59566988Y-75250000D01*
X58500001Y-75250000D01*
X58500001Y-75649986D01*
X58510494Y-75752697D01*
X58565641Y-75919119D01*
X58565643Y-75919124D01*
X58657684Y-76068345D01*
X58781654Y-76192315D01*
X58930875Y-76284356D01*
X58930880Y-76284358D01*
X59097302Y-76339505D01*
X59097309Y-76339506D01*
X59200019Y-76349999D01*
X59749999Y-76349999D01*
X59750000Y-76349998D01*
X59750000Y-75433012D01*
X59807007Y-75465925D01*
X59934174Y-75500000D01*
X60065826Y-75500000D01*
X60192993Y-75465925D01*
X60250000Y-75433012D01*
X60250000Y-76349999D01*
X60799972Y-76349999D01*
X60799986Y-76349998D01*
X60902697Y-76339505D01*
X61069119Y-76284358D01*
X61069124Y-76284356D01*
X61218345Y-76192315D01*
X61342315Y-76068345D01*
X61434356Y-75919124D01*
X61434358Y-75919119D01*
X61489505Y-75752697D01*
X61489506Y-75752690D01*
X61499999Y-75649986D01*
X61500000Y-75649973D01*
X61500000Y-75250000D01*
X60433012Y-75250000D01*
X60465925Y-75192993D01*
X60500000Y-75065826D01*
X60500000Y-74934174D01*
X60465925Y-74807007D01*
X60433012Y-74750000D01*
X61499999Y-74750000D01*
X61499999Y-74350028D01*
X61499998Y-74350013D01*
X61489505Y-74247302D01*
X61434358Y-74080880D01*
X61434356Y-74080875D01*
X61347215Y-73939597D01*
X61328775Y-73872204D01*
X61349698Y-73805541D01*
X61403340Y-73760771D01*
X61452754Y-73750500D01*
X69197631Y-73750500D01*
X69392035Y-73719709D01*
X69579235Y-73658884D01*
X69754614Y-73569524D01*
X69913855Y-73453828D01*
X76050034Y-67317648D01*
X80699500Y-67317648D01*
X80699500Y-67522351D01*
X80731522Y-67724534D01*
X80794781Y-67919223D01*
X80887715Y-68101613D01*
X81008028Y-68267213D01*
X81152786Y-68411971D01*
X81307749Y-68524556D01*
X81318390Y-68532287D01*
X81434607Y-68591503D01*
X81500776Y-68625218D01*
X81500778Y-68625218D01*
X81500781Y-68625220D01*
X81585128Y-68652626D01*
X81695465Y-68688477D01*
X81796557Y-68704488D01*
X81897648Y-68720500D01*
X81897649Y-68720500D01*
X82102351Y-68720500D01*
X82102352Y-68720500D01*
X82304534Y-68688477D01*
X82499219Y-68625220D01*
X82681610Y-68532287D01*
X82774590Y-68464732D01*
X82847213Y-68411971D01*
X82847215Y-68411968D01*
X82847219Y-68411966D01*
X82991966Y-68267219D01*
X82991968Y-68267215D01*
X82991971Y-68267213D01*
X83075990Y-68151569D01*
X83112287Y-68101610D01*
X83205220Y-67919219D01*
X83268477Y-67724534D01*
X83300500Y-67522352D01*
X83300500Y-67317648D01*
X84699500Y-67317648D01*
X84699500Y-67522351D01*
X84731522Y-67724534D01*
X84794781Y-67919223D01*
X84887715Y-68101613D01*
X85008028Y-68267213D01*
X85152786Y-68411971D01*
X85307749Y-68524556D01*
X85318390Y-68532287D01*
X85434607Y-68591503D01*
X85500776Y-68625218D01*
X85500778Y-68625218D01*
X85500781Y-68625220D01*
X85585128Y-68652626D01*
X85695465Y-68688477D01*
X85796557Y-68704488D01*
X85897648Y-68720500D01*
X85897649Y-68720500D01*
X86102351Y-68720500D01*
X86102352Y-68720500D01*
X86304534Y-68688477D01*
X86332714Y-68679320D01*
X86341184Y-68676569D01*
X86379502Y-68670500D01*
X89430664Y-68670500D01*
X89497703Y-68690185D01*
X89518345Y-68706819D01*
X92815354Y-72003828D01*
X92974595Y-72119524D01*
X93057454Y-72161742D01*
X93149969Y-72208882D01*
X93149971Y-72208882D01*
X93149974Y-72208884D01*
X93250316Y-72241487D01*
X93337172Y-72269709D01*
X93531578Y-72300500D01*
X93531583Y-72300500D01*
X93592693Y-72300500D01*
X93659732Y-72320185D01*
X93705487Y-72372989D01*
X93710624Y-72386181D01*
X93741117Y-72480029D01*
X93805449Y-72606287D01*
X93830476Y-72655405D01*
X93946172Y-72814646D01*
X94085354Y-72953828D01*
X94244595Y-73069524D01*
X94327455Y-73111743D01*
X94419970Y-73158882D01*
X94419972Y-73158882D01*
X94419975Y-73158884D01*
X94520317Y-73191487D01*
X94607173Y-73219709D01*
X94801578Y-73250500D01*
X94801583Y-73250500D01*
X98998422Y-73250500D01*
X99192826Y-73219709D01*
X99229416Y-73207820D01*
X99380025Y-73158884D01*
X99555405Y-73069524D01*
X99714646Y-72953828D01*
X99853828Y-72814646D01*
X99969524Y-72655405D01*
X100058884Y-72480025D01*
X100089376Y-72386180D01*
X100128814Y-72328506D01*
X100193173Y-72301308D01*
X100207307Y-72300500D01*
X102126000Y-72300500D01*
X102193039Y-72320185D01*
X102238794Y-72372989D01*
X102250000Y-72424500D01*
X102250000Y-72800000D01*
X105280137Y-72800000D01*
X105250000Y-72951509D01*
X105250000Y-73148491D01*
X105280137Y-73300000D01*
X102250000Y-73300000D01*
X102250000Y-74147844D01*
X102256401Y-74207372D01*
X102256403Y-74207379D01*
X102306645Y-74342086D01*
X102306649Y-74342093D01*
X102392809Y-74457187D01*
X102392812Y-74457190D01*
X102507906Y-74543350D01*
X102507913Y-74543354D01*
X102642620Y-74593596D01*
X102642627Y-74593598D01*
X102702155Y-74599999D01*
X102702172Y-74600000D01*
X106000000Y-74600000D01*
X106000000Y-74019863D01*
X106151509Y-74050000D01*
X106348491Y-74050000D01*
X106500000Y-74019863D01*
X106500000Y-74600000D01*
X109797828Y-74600000D01*
X109797844Y-74599999D01*
X109857372Y-74593598D01*
X109857379Y-74593596D01*
X109992086Y-74543354D01*
X109992093Y-74543350D01*
X110107187Y-74457190D01*
X110107190Y-74457187D01*
X110193350Y-74342093D01*
X110193354Y-74342086D01*
X110243596Y-74207379D01*
X110243598Y-74207372D01*
X110249999Y-74147844D01*
X110250000Y-74147827D01*
X110250000Y-73300000D01*
X107219863Y-73300000D01*
X107250000Y-73148491D01*
X107250000Y-72951509D01*
X107219863Y-72800000D01*
X110250000Y-72800000D01*
X110250000Y-71952172D01*
X110249999Y-71952155D01*
X110243598Y-71892627D01*
X110243596Y-71892620D01*
X110193354Y-71757913D01*
X110193350Y-71757906D01*
X110107190Y-71642812D01*
X110107187Y-71642809D01*
X109992093Y-71556649D01*
X109992086Y-71556645D01*
X109857379Y-71506403D01*
X109857372Y-71506401D01*
X109797844Y-71500000D01*
X108567836Y-71500000D01*
X108500797Y-71480315D01*
X108455042Y-71427511D01*
X108445098Y-71358353D01*
X108474123Y-71294797D01*
X108480155Y-71288319D01*
X112607517Y-67160957D01*
X113030088Y-66738386D01*
X113453828Y-66314646D01*
X113569524Y-66155405D01*
X113613282Y-66069524D01*
X113658884Y-65980025D01*
X113719709Y-65792826D01*
X113725914Y-65753652D01*
X113742329Y-65650009D01*
X113750500Y-65598421D01*
X113750500Y-62809737D01*
X113770185Y-62742698D01*
X113822989Y-62696943D01*
X113892147Y-62686999D01*
X113955703Y-62716024D01*
X113974816Y-62736849D01*
X114037019Y-62822464D01*
X114177536Y-62962981D01*
X114338306Y-63079787D01*
X114425149Y-63124035D01*
X114515367Y-63170005D01*
X114515370Y-63170006D01*
X114609866Y-63200709D01*
X114704364Y-63231413D01*
X114900639Y-63262500D01*
X114900640Y-63262500D01*
X115099360Y-63262500D01*
X115099361Y-63262500D01*
X115295636Y-63231413D01*
X115484632Y-63170005D01*
X115661694Y-63079787D01*
X115768546Y-63002155D01*
X116550000Y-63002155D01*
X116550000Y-66800000D01*
X117250000Y-66800000D01*
X117250000Y-67300000D01*
X116550000Y-67300000D01*
X116550000Y-71097844D01*
X116556401Y-71157372D01*
X116556403Y-71157379D01*
X116606645Y-71292086D01*
X116606649Y-71292093D01*
X116692809Y-71407187D01*
X116692812Y-71407190D01*
X116807906Y-71493350D01*
X116807913Y-71493354D01*
X116942620Y-71543596D01*
X116942627Y-71543598D01*
X117002155Y-71549999D01*
X117002172Y-71550000D01*
X117850000Y-71550000D01*
X117850000Y-69066480D01*
X117852064Y-69067335D01*
X118016282Y-69100000D01*
X118183718Y-69100000D01*
X118347936Y-69067335D01*
X118350000Y-69066480D01*
X118350000Y-71550000D01*
X119197828Y-71550000D01*
X119197844Y-71549999D01*
X119257372Y-71543598D01*
X119257379Y-71543596D01*
X119392086Y-71493354D01*
X119392093Y-71493350D01*
X119507187Y-71407190D01*
X119507190Y-71407187D01*
X119593350Y-71292093D01*
X119593354Y-71292086D01*
X119643596Y-71157379D01*
X119643598Y-71157372D01*
X119649999Y-71097844D01*
X119650000Y-71097827D01*
X119650000Y-69199983D01*
X121499500Y-69199983D01*
X121499500Y-70800001D01*
X121499501Y-70800018D01*
X121510000Y-70902796D01*
X121510001Y-70902799D01*
X121565185Y-71069331D01*
X121565187Y-71069336D01*
X121582771Y-71097844D01*
X121657288Y-71218656D01*
X121781344Y-71342712D01*
X121930666Y-71434814D01*
X122097203Y-71489999D01*
X122199991Y-71500500D01*
X123800008Y-71500499D01*
X123902797Y-71489999D01*
X124069334Y-71434814D01*
X124218656Y-71342712D01*
X124342712Y-71218656D01*
X124434814Y-71069334D01*
X124489999Y-70902797D01*
X124500500Y-70800009D01*
X124500499Y-69199992D01*
X124493440Y-69130893D01*
X124489999Y-69097203D01*
X124489998Y-69097200D01*
X124458869Y-69003260D01*
X124434814Y-68930666D01*
X124342712Y-68781344D01*
X124218656Y-68657288D01*
X124069334Y-68565186D01*
X123902797Y-68510001D01*
X123902795Y-68510000D01*
X123800010Y-68499500D01*
X122199998Y-68499500D01*
X122199981Y-68499501D01*
X122097203Y-68510000D01*
X122097200Y-68510001D01*
X121930668Y-68565185D01*
X121930663Y-68565187D01*
X121781342Y-68657289D01*
X121657289Y-68781342D01*
X121565187Y-68930663D01*
X121565186Y-68930666D01*
X121510001Y-69097203D01*
X121510001Y-69097204D01*
X121510000Y-69097204D01*
X121499500Y-69199983D01*
X119650000Y-69199983D01*
X119650000Y-67300000D01*
X118950000Y-67300000D01*
X118950000Y-66800000D01*
X119650000Y-66800000D01*
X119650000Y-63002172D01*
X119649999Y-63002155D01*
X119643598Y-62942627D01*
X119643596Y-62942620D01*
X119593354Y-62807913D01*
X119593350Y-62807906D01*
X119507190Y-62692812D01*
X119507187Y-62692809D01*
X119392093Y-62606649D01*
X119392086Y-62606645D01*
X119257379Y-62556403D01*
X119257372Y-62556401D01*
X119197844Y-62550000D01*
X118350000Y-62550000D01*
X118350000Y-65033519D01*
X118347936Y-65032665D01*
X118183718Y-65000000D01*
X118016282Y-65000000D01*
X117852064Y-65032665D01*
X117850000Y-65033519D01*
X117850000Y-62550000D01*
X117002155Y-62550000D01*
X116942627Y-62556401D01*
X116942620Y-62556403D01*
X116807913Y-62606645D01*
X116807906Y-62606649D01*
X116692812Y-62692809D01*
X116692809Y-62692812D01*
X116606649Y-62807906D01*
X116606645Y-62807913D01*
X116556403Y-62942620D01*
X116556401Y-62942627D01*
X116550000Y-63002155D01*
X115768546Y-63002155D01*
X115822464Y-62962981D01*
X115962981Y-62822464D01*
X116079787Y-62661694D01*
X116170005Y-62484632D01*
X116231413Y-62295636D01*
X116262500Y-62099361D01*
X116262500Y-61900639D01*
X116231413Y-61704364D01*
X116200709Y-61609866D01*
X116170006Y-61515370D01*
X116170005Y-61515367D01*
X116124035Y-61425149D01*
X116079787Y-61338306D01*
X115962981Y-61177536D01*
X115822464Y-61037019D01*
X115661694Y-60920213D01*
X115584360Y-60880809D01*
X115484632Y-60829994D01*
X115484629Y-60829993D01*
X115295637Y-60768587D01*
X115197498Y-60753043D01*
X115099361Y-60737500D01*
X114900639Y-60737500D01*
X114835214Y-60747862D01*
X114704362Y-60768587D01*
X114515370Y-60829993D01*
X114515367Y-60829994D01*
X114338305Y-60920213D01*
X114177533Y-61037021D01*
X114037021Y-61177533D01*
X113920213Y-61338305D01*
X113860485Y-61455528D01*
X113812510Y-61506324D01*
X113744689Y-61523119D01*
X113678554Y-61500581D01*
X113639515Y-61455528D01*
X113626272Y-61429537D01*
X113579787Y-61338306D01*
X113462981Y-61177536D01*
X113322464Y-61037019D01*
X113161694Y-60920213D01*
X113084360Y-60880809D01*
X112984632Y-60829994D01*
X112984629Y-60829993D01*
X112795637Y-60768587D01*
X112697498Y-60753043D01*
X112599361Y-60737500D01*
X112400639Y-60737500D01*
X112335214Y-60747862D01*
X112204362Y-60768587D01*
X112015370Y-60829993D01*
X112015367Y-60829994D01*
X111838305Y-60920213D01*
X111677533Y-61037021D01*
X111537021Y-61177533D01*
X111420213Y-61338305D01*
X111360204Y-61456079D01*
X111312229Y-61506875D01*
X111244408Y-61523670D01*
X111178273Y-61501132D01*
X111139234Y-61456079D01*
X111079358Y-61338567D01*
X111052268Y-61301283D01*
X110381000Y-61972551D01*
X110381000Y-61949840D01*
X110355036Y-61852939D01*
X110304876Y-61766060D01*
X110233940Y-61695124D01*
X110147061Y-61644964D01*
X110050160Y-61619000D01*
X110027447Y-61619000D01*
X110698716Y-60947731D01*
X110698715Y-60947730D01*
X110661432Y-60920641D01*
X110484437Y-60830457D01*
X110295522Y-60769075D01*
X110099321Y-60738000D01*
X109900679Y-60738000D01*
X109704479Y-60769075D01*
X109704476Y-60769075D01*
X109515562Y-60830457D01*
X109338564Y-60920643D01*
X109301283Y-60947729D01*
X109301282Y-60947730D01*
X109972554Y-61619000D01*
X109949840Y-61619000D01*
X109852939Y-61644964D01*
X109766060Y-61695124D01*
X109695124Y-61766060D01*
X109644964Y-61852939D01*
X109619000Y-61949840D01*
X109619000Y-61972552D01*
X108947730Y-61301282D01*
X108895456Y-61305396D01*
X108827079Y-61291031D01*
X108777322Y-61241979D01*
X108765688Y-61212866D01*
X108718924Y-61032298D01*
X108705354Y-60995913D01*
X108705350Y-60995906D01*
X108619190Y-60880812D01*
X108619187Y-60880809D01*
X108504093Y-60794649D01*
X108504086Y-60794645D01*
X108369379Y-60744403D01*
X108369372Y-60744401D01*
X108309844Y-60738000D01*
X107750000Y-60738000D01*
X107750000Y-61711184D01*
X107733940Y-61695124D01*
X107647061Y-61644964D01*
X107550160Y-61619000D01*
X107449840Y-61619000D01*
X107352939Y-61644964D01*
X107266060Y-61695124D01*
X107250000Y-61711184D01*
X107250000Y-60738000D01*
X106690155Y-60738000D01*
X106630627Y-60744401D01*
X106630620Y-60744403D01*
X106495913Y-60794645D01*
X106495906Y-60794649D01*
X106380812Y-60880809D01*
X106349266Y-60922949D01*
X106293331Y-60964820D01*
X106223640Y-60969803D01*
X106162317Y-60936317D01*
X106150734Y-60922949D01*
X106119187Y-60880809D01*
X106004093Y-60794649D01*
X106004086Y-60794645D01*
X105869379Y-60744403D01*
X105869372Y-60744401D01*
X105809844Y-60738000D01*
X105250000Y-60738000D01*
X105250000Y-61711184D01*
X105233940Y-61695124D01*
X105147061Y-61644964D01*
X105050160Y-61619000D01*
X104949840Y-61619000D01*
X104852939Y-61644964D01*
X104766060Y-61695124D01*
X104750000Y-61711184D01*
X104750000Y-60738000D01*
X104190155Y-60738000D01*
X104130627Y-60744401D01*
X104130620Y-60744403D01*
X103995913Y-60794645D01*
X103995906Y-60794649D01*
X103880812Y-60880809D01*
X103880809Y-60880812D01*
X103794649Y-60995906D01*
X103794645Y-60995913D01*
X103744403Y-61130620D01*
X103744401Y-61130626D01*
X103738140Y-61188862D01*
X103711402Y-61253412D01*
X103654009Y-61293260D01*
X103584183Y-61295753D01*
X103524095Y-61260100D01*
X103514533Y-61248491D01*
X103497001Y-61224360D01*
X103462981Y-61177536D01*
X103322464Y-61037019D01*
X103161694Y-60920213D01*
X103084360Y-60880809D01*
X102984632Y-60829994D01*
X102984629Y-60829993D01*
X102795637Y-60768587D01*
X102697498Y-60753043D01*
X102599361Y-60737500D01*
X102400639Y-60737500D01*
X102335214Y-60747862D01*
X102204362Y-60768587D01*
X102015370Y-60829993D01*
X102015367Y-60829994D01*
X101838305Y-60920213D01*
X101677533Y-61037021D01*
X101537021Y-61177533D01*
X101420213Y-61338305D01*
X101360485Y-61455528D01*
X101312510Y-61506324D01*
X101244689Y-61523119D01*
X101178554Y-61500581D01*
X101139515Y-61455528D01*
X101126272Y-61429537D01*
X101079787Y-61338306D01*
X100962981Y-61177536D01*
X100822464Y-61037019D01*
X100661694Y-60920213D01*
X100584360Y-60880809D01*
X100484632Y-60829994D01*
X100484629Y-60829993D01*
X100295637Y-60768587D01*
X100197498Y-60753043D01*
X100099361Y-60737500D01*
X99900639Y-60737500D01*
X99835214Y-60747862D01*
X99704362Y-60768587D01*
X99515370Y-60829993D01*
X99515367Y-60829994D01*
X99338305Y-60920213D01*
X99177533Y-61037021D01*
X99037021Y-61177533D01*
X98920213Y-61338305D01*
X98829994Y-61515367D01*
X98829993Y-61515370D01*
X98768587Y-61704362D01*
X98737500Y-61900639D01*
X98737500Y-62099360D01*
X98768587Y-62295637D01*
X98829993Y-62484629D01*
X98829994Y-62484632D01*
X98887974Y-62598422D01*
X98920213Y-62661694D01*
X99037019Y-62822464D01*
X99177536Y-62962981D01*
X99338306Y-63079787D01*
X99425149Y-63124035D01*
X99515367Y-63170005D01*
X99515370Y-63170006D01*
X99609866Y-63200709D01*
X99704364Y-63231413D01*
X99900639Y-63262500D01*
X99900640Y-63262500D01*
X100099360Y-63262500D01*
X100099361Y-63262500D01*
X100295636Y-63231413D01*
X100484632Y-63170005D01*
X100661694Y-63079787D01*
X100822464Y-62962981D01*
X100962981Y-62822464D01*
X101079787Y-62661694D01*
X101139515Y-62544470D01*
X101187490Y-62493675D01*
X101255311Y-62476880D01*
X101321445Y-62499417D01*
X101360484Y-62544469D01*
X101420213Y-62661694D01*
X101537019Y-62822464D01*
X101677536Y-62962981D01*
X101838306Y-63079787D01*
X101925149Y-63124035D01*
X102015367Y-63170005D01*
X102015370Y-63170006D01*
X102109866Y-63200709D01*
X102204364Y-63231413D01*
X102400639Y-63262500D01*
X102400640Y-63262500D01*
X102599360Y-63262500D01*
X102599361Y-63262500D01*
X102795636Y-63231413D01*
X102984632Y-63170005D01*
X103161694Y-63079787D01*
X103322464Y-62962981D01*
X103462981Y-62822464D01*
X103514533Y-62751509D01*
X103569863Y-62708843D01*
X103639476Y-62702864D01*
X103701271Y-62735470D01*
X103735629Y-62796309D01*
X103738140Y-62811138D01*
X103744401Y-62869372D01*
X103744403Y-62869379D01*
X103794645Y-63004086D01*
X103794649Y-63004093D01*
X103880809Y-63119187D01*
X103880812Y-63119190D01*
X103995906Y-63205350D01*
X103995913Y-63205354D01*
X104130620Y-63255596D01*
X104130627Y-63255598D01*
X104190155Y-63261999D01*
X104190172Y-63262000D01*
X104750000Y-63262000D01*
X104750000Y-62288816D01*
X104766060Y-62304876D01*
X104852939Y-62355036D01*
X104949840Y-62381000D01*
X105050160Y-62381000D01*
X105147061Y-62355036D01*
X105233940Y-62304876D01*
X105250000Y-62288816D01*
X105250000Y-63262000D01*
X105809828Y-63262000D01*
X105809844Y-63261999D01*
X105869372Y-63255598D01*
X105869379Y-63255596D01*
X106004086Y-63205354D01*
X106004093Y-63205350D01*
X106119187Y-63119190D01*
X106119190Y-63119187D01*
X106150734Y-63077051D01*
X106206667Y-63035180D01*
X106276359Y-63030196D01*
X106337682Y-63063681D01*
X106349266Y-63077051D01*
X106380809Y-63119187D01*
X106380812Y-63119190D01*
X106495906Y-63205350D01*
X106495913Y-63205354D01*
X106630620Y-63255596D01*
X106630627Y-63255598D01*
X106690155Y-63261999D01*
X106690172Y-63262000D01*
X107250000Y-63262000D01*
X107250000Y-62288816D01*
X107266060Y-62304876D01*
X107352939Y-62355036D01*
X107449840Y-62381000D01*
X107550160Y-62381000D01*
X107647061Y-62355036D01*
X107733940Y-62304876D01*
X107750000Y-62288816D01*
X107750000Y-63262000D01*
X108309828Y-63262000D01*
X108309844Y-63261999D01*
X108369372Y-63255598D01*
X108369379Y-63255596D01*
X108504086Y-63205354D01*
X108504093Y-63205350D01*
X108619187Y-63119190D01*
X108619190Y-63119187D01*
X108705350Y-63004093D01*
X108705355Y-63004084D01*
X108718923Y-62967704D01*
X108765688Y-62787132D01*
X108777483Y-62767410D01*
X108785119Y-62745736D01*
X108795076Y-62737993D01*
X108801551Y-62727169D01*
X108822136Y-62716955D01*
X108840278Y-62702850D01*
X108854998Y-62700649D01*
X108864140Y-62696114D01*
X108876304Y-62697464D01*
X108895457Y-62694602D01*
X108947730Y-62698716D01*
X109619000Y-62027446D01*
X109619000Y-62050160D01*
X109644964Y-62147061D01*
X109695124Y-62233940D01*
X109766060Y-62304876D01*
X109852939Y-62355036D01*
X109949840Y-62381000D01*
X109972553Y-62381000D01*
X109301283Y-63052268D01*
X109301283Y-63052269D01*
X109338567Y-63079358D01*
X109515562Y-63169542D01*
X109704477Y-63230924D01*
X109900679Y-63262000D01*
X110099321Y-63262000D01*
X110295520Y-63230924D01*
X110295523Y-63230924D01*
X110484437Y-63169542D01*
X110661425Y-63079362D01*
X110698716Y-63052268D01*
X110027448Y-62381000D01*
X110050160Y-62381000D01*
X110147061Y-62355036D01*
X110233940Y-62304876D01*
X110304876Y-62233940D01*
X110355036Y-62147061D01*
X110381000Y-62050160D01*
X110381000Y-62027447D01*
X111052269Y-62698716D01*
X111075941Y-62696853D01*
X111080509Y-62693331D01*
X111150122Y-62687350D01*
X111211918Y-62719954D01*
X111246277Y-62780792D01*
X111249500Y-62808881D01*
X111249500Y-64930664D01*
X111229815Y-64997703D01*
X111213181Y-65018345D01*
X106468345Y-69763181D01*
X106407022Y-69796666D01*
X106380664Y-69799500D01*
X98801578Y-69799500D01*
X98607170Y-69830291D01*
X98602934Y-69831308D01*
X98533152Y-69827810D01*
X98476339Y-69787140D01*
X98450532Y-69722210D01*
X98450000Y-69710731D01*
X98450000Y-67300000D01*
X97750000Y-67300000D01*
X97750000Y-66800000D01*
X98450000Y-66800000D01*
X98450000Y-63002172D01*
X98449999Y-63002155D01*
X98443598Y-62942627D01*
X98443596Y-62942620D01*
X98393354Y-62807913D01*
X98393350Y-62807906D01*
X98307190Y-62692812D01*
X98307187Y-62692809D01*
X98192093Y-62606649D01*
X98192086Y-62606645D01*
X98057379Y-62556403D01*
X98057372Y-62556401D01*
X97997844Y-62550000D01*
X97150000Y-62550000D01*
X97150000Y-65033519D01*
X97147936Y-65032665D01*
X96983718Y-65000000D01*
X96816282Y-65000000D01*
X96652064Y-65032665D01*
X96650000Y-65033519D01*
X96650000Y-62550000D01*
X95802155Y-62550000D01*
X95742627Y-62556401D01*
X95742620Y-62556403D01*
X95607913Y-62606645D01*
X95607906Y-62606649D01*
X95492812Y-62692809D01*
X95473766Y-62718252D01*
X95417832Y-62760122D01*
X95348140Y-62765106D01*
X95286818Y-62731620D01*
X95253333Y-62670297D01*
X95250500Y-62643940D01*
X95250500Y-58199983D01*
X121499500Y-58199983D01*
X121499500Y-59800001D01*
X121499501Y-59800018D01*
X121510000Y-59902796D01*
X121510001Y-59902799D01*
X121565185Y-60069331D01*
X121565187Y-60069336D01*
X121590455Y-60110302D01*
X121657288Y-60218656D01*
X121781344Y-60342712D01*
X121930666Y-60434814D01*
X122097203Y-60489999D01*
X122199991Y-60500500D01*
X123800008Y-60500499D01*
X123812539Y-60499219D01*
X123827565Y-60497684D01*
X123902797Y-60489999D01*
X124069334Y-60434814D01*
X124218656Y-60342712D01*
X124342712Y-60218656D01*
X124434814Y-60069334D01*
X124489999Y-59902797D01*
X124500500Y-59800009D01*
X124500499Y-58199992D01*
X124493440Y-58130893D01*
X124489999Y-58097203D01*
X124489998Y-58097200D01*
X124434814Y-57930666D01*
X124342712Y-57781344D01*
X124218656Y-57657288D01*
X124069334Y-57565186D01*
X123902797Y-57510001D01*
X123902795Y-57510000D01*
X123800010Y-57499500D01*
X122199998Y-57499500D01*
X122199981Y-57499501D01*
X122097203Y-57510000D01*
X122097200Y-57510001D01*
X121930668Y-57565185D01*
X121930663Y-57565187D01*
X121781342Y-57657289D01*
X121657289Y-57781342D01*
X121565187Y-57930663D01*
X121565186Y-57930666D01*
X121510001Y-58097203D01*
X121510001Y-58097204D01*
X121510000Y-58097204D01*
X121499500Y-58199983D01*
X95250500Y-58199983D01*
X95250500Y-57419336D01*
X95270185Y-57352297D01*
X95286819Y-57331655D01*
X98466319Y-54152155D01*
X102250000Y-54152155D01*
X102250000Y-55000000D01*
X105280137Y-55000000D01*
X105250000Y-55151509D01*
X105250000Y-55348491D01*
X105280137Y-55500000D01*
X102250000Y-55500000D01*
X102250000Y-56347844D01*
X102256401Y-56407372D01*
X102256403Y-56407379D01*
X102306645Y-56542086D01*
X102306649Y-56542093D01*
X102392809Y-56657187D01*
X102392812Y-56657190D01*
X102507906Y-56743350D01*
X102507913Y-56743354D01*
X102642620Y-56793596D01*
X102642627Y-56793598D01*
X102702155Y-56799999D01*
X102702172Y-56800000D01*
X106000000Y-56800000D01*
X106000000Y-56219863D01*
X106151509Y-56250000D01*
X106348491Y-56250000D01*
X106500000Y-56219863D01*
X106500000Y-56800000D01*
X109797828Y-56800000D01*
X109797844Y-56799999D01*
X109857372Y-56793598D01*
X109857379Y-56793596D01*
X109992086Y-56743354D01*
X109992093Y-56743350D01*
X110107187Y-56657190D01*
X110107190Y-56657187D01*
X110193350Y-56542093D01*
X110193354Y-56542086D01*
X110243596Y-56407379D01*
X110243598Y-56407372D01*
X110249999Y-56347844D01*
X110250000Y-56347827D01*
X110250000Y-55500000D01*
X107219863Y-55500000D01*
X107250000Y-55348491D01*
X107250000Y-55151509D01*
X107219863Y-55000000D01*
X110250000Y-55000000D01*
X110250000Y-54152172D01*
X110249999Y-54152155D01*
X110243598Y-54092627D01*
X110243596Y-54092620D01*
X110193354Y-53957913D01*
X110193350Y-53957906D01*
X110107190Y-53842812D01*
X110107187Y-53842809D01*
X109992093Y-53756649D01*
X109992086Y-53756645D01*
X109857379Y-53706403D01*
X109857372Y-53706401D01*
X109797844Y-53700000D01*
X106500000Y-53700000D01*
X106500000Y-54280136D01*
X106348491Y-54250000D01*
X106151509Y-54250000D01*
X106000000Y-54280136D01*
X106000000Y-53700000D01*
X102702155Y-53700000D01*
X102642627Y-53706401D01*
X102642620Y-53706403D01*
X102507913Y-53756645D01*
X102507906Y-53756649D01*
X102392812Y-53842809D01*
X102392809Y-53842812D01*
X102306649Y-53957906D01*
X102306645Y-53957913D01*
X102256403Y-54092620D01*
X102256401Y-54092627D01*
X102250000Y-54152155D01*
X98466319Y-54152155D01*
X102038319Y-50580155D01*
X102099642Y-50546670D01*
X102169334Y-50551654D01*
X102225267Y-50593526D01*
X102249684Y-50658990D01*
X102250000Y-50667836D01*
X102250000Y-50800000D01*
X105280137Y-50800000D01*
X105250000Y-50951509D01*
X105250000Y-51148491D01*
X105280137Y-51300000D01*
X102250000Y-51300000D01*
X102250000Y-52147844D01*
X102256401Y-52207372D01*
X102256403Y-52207379D01*
X102306645Y-52342086D01*
X102306649Y-52342093D01*
X102392809Y-52457187D01*
X102392812Y-52457190D01*
X102507906Y-52543350D01*
X102507913Y-52543354D01*
X102642620Y-52593596D01*
X102642627Y-52593598D01*
X102702155Y-52599999D01*
X102702172Y-52600000D01*
X106000000Y-52600000D01*
X106000000Y-52019863D01*
X106151509Y-52050000D01*
X106348491Y-52050000D01*
X106500000Y-52019863D01*
X106500000Y-52600000D01*
X109797828Y-52600000D01*
X109797844Y-52599999D01*
X109857372Y-52593598D01*
X109857379Y-52593596D01*
X109992086Y-52543354D01*
X109992093Y-52543350D01*
X110107187Y-52457190D01*
X110107190Y-52457187D01*
X110193350Y-52342093D01*
X110193354Y-52342086D01*
X110243596Y-52207379D01*
X110243598Y-52207372D01*
X110249999Y-52147844D01*
X110250000Y-52147827D01*
X110250000Y-51300000D01*
X107219863Y-51300000D01*
X107250000Y-51148491D01*
X107250000Y-50951509D01*
X107219863Y-50800000D01*
X110250000Y-50800000D01*
X110250000Y-49952172D01*
X110249999Y-49952155D01*
X110243598Y-49892627D01*
X110243596Y-49892620D01*
X110193354Y-49757913D01*
X110193350Y-49757906D01*
X110107190Y-49642812D01*
X110107187Y-49642809D01*
X109992093Y-49556649D01*
X109992086Y-49556645D01*
X109857379Y-49506403D01*
X109857372Y-49506401D01*
X109797844Y-49500000D01*
X106500000Y-49500000D01*
X106500000Y-50080136D01*
X106348491Y-50050000D01*
X106151509Y-50050000D01*
X106000000Y-50080136D01*
X106000000Y-49500000D01*
X103417836Y-49500000D01*
X103350797Y-49480315D01*
X103305042Y-49427511D01*
X103295098Y-49358353D01*
X103324123Y-49294797D01*
X103330155Y-49288319D01*
X109619655Y-42998819D01*
X109680978Y-42965334D01*
X109707336Y-42962500D01*
X110886422Y-42962500D01*
X111080826Y-42931709D01*
X111268026Y-42870884D01*
X111443405Y-42781524D01*
X111602646Y-42665828D01*
X113253506Y-41014966D01*
X113268298Y-41002334D01*
X113322457Y-40962986D01*
X113322456Y-40962986D01*
X113322464Y-40962981D01*
X113462981Y-40822464D01*
X113579787Y-40661694D01*
X113639515Y-40544470D01*
X113687490Y-40493675D01*
X113755311Y-40476880D01*
X113821445Y-40499417D01*
X113860484Y-40544469D01*
X113920213Y-40661694D01*
X114037019Y-40822464D01*
X114177536Y-40962981D01*
X114338306Y-41079787D01*
X114425149Y-41124035D01*
X114515367Y-41170005D01*
X114515370Y-41170006D01*
X114609866Y-41200709D01*
X114704364Y-41231413D01*
X114900639Y-41262500D01*
X114900640Y-41262500D01*
X115099360Y-41262500D01*
X115099361Y-41262500D01*
X115295636Y-41231413D01*
X115484632Y-41170005D01*
X115661694Y-41079787D01*
X115768546Y-41002155D01*
X116550000Y-41002155D01*
X116550000Y-44800000D01*
X117250000Y-44800000D01*
X117250000Y-45300000D01*
X116550000Y-45300000D01*
X116550000Y-49097844D01*
X116556401Y-49157372D01*
X116556403Y-49157379D01*
X116606645Y-49292086D01*
X116606649Y-49292093D01*
X116692809Y-49407187D01*
X116692812Y-49407190D01*
X116807906Y-49493350D01*
X116807913Y-49493354D01*
X116942620Y-49543596D01*
X116942627Y-49543598D01*
X117002155Y-49549999D01*
X117002172Y-49550000D01*
X117850000Y-49550000D01*
X117850000Y-47066480D01*
X117852064Y-47067335D01*
X118016282Y-47100000D01*
X118183718Y-47100000D01*
X118347936Y-47067335D01*
X118350000Y-47066480D01*
X118350000Y-49550000D01*
X119197828Y-49550000D01*
X119197844Y-49549999D01*
X119257372Y-49543598D01*
X119257379Y-49543596D01*
X119392086Y-49493354D01*
X119392093Y-49493350D01*
X119507187Y-49407190D01*
X119507190Y-49407187D01*
X119593350Y-49292093D01*
X119593354Y-49292086D01*
X119643596Y-49157379D01*
X119643598Y-49157372D01*
X119649999Y-49097844D01*
X119650000Y-49097827D01*
X119650000Y-45300000D01*
X118950000Y-45300000D01*
X118950000Y-44800000D01*
X119650000Y-44800000D01*
X119650000Y-41002172D01*
X119649999Y-41002155D01*
X119643598Y-40942627D01*
X119643596Y-40942620D01*
X119593354Y-40807913D01*
X119593350Y-40807906D01*
X119507190Y-40692812D01*
X119507187Y-40692809D01*
X119392093Y-40606649D01*
X119392086Y-40606645D01*
X119257379Y-40556403D01*
X119257372Y-40556401D01*
X119197844Y-40550000D01*
X118350000Y-40550000D01*
X118350000Y-43033519D01*
X118347936Y-43032665D01*
X118183718Y-43000000D01*
X118016282Y-43000000D01*
X117852064Y-43032665D01*
X117850000Y-43033519D01*
X117850000Y-40550000D01*
X117002155Y-40550000D01*
X116942627Y-40556401D01*
X116942620Y-40556403D01*
X116807913Y-40606645D01*
X116807906Y-40606649D01*
X116692812Y-40692809D01*
X116692809Y-40692812D01*
X116606649Y-40807906D01*
X116606645Y-40807913D01*
X116556403Y-40942620D01*
X116556401Y-40942627D01*
X116550000Y-41002155D01*
X115768546Y-41002155D01*
X115822464Y-40962981D01*
X115962981Y-40822464D01*
X116079787Y-40661694D01*
X116170005Y-40484632D01*
X116231413Y-40295636D01*
X116262500Y-40099361D01*
X116262500Y-39900639D01*
X116231413Y-39704364D01*
X116181323Y-39550202D01*
X116170006Y-39515370D01*
X116170005Y-39515367D01*
X116108099Y-39393872D01*
X116079787Y-39338306D01*
X115962981Y-39177536D01*
X115822464Y-39037019D01*
X115661694Y-38920213D01*
X115584360Y-38880809D01*
X115484632Y-38829994D01*
X115484629Y-38829993D01*
X115295637Y-38768587D01*
X115197498Y-38753043D01*
X115099361Y-38737500D01*
X114900639Y-38737500D01*
X114835214Y-38747862D01*
X114704362Y-38768587D01*
X114515370Y-38829993D01*
X114515367Y-38829994D01*
X114338305Y-38920213D01*
X114177533Y-39037021D01*
X114037021Y-39177533D01*
X113920213Y-39338305D01*
X113860485Y-39455528D01*
X113812510Y-39506324D01*
X113744689Y-39523119D01*
X113678554Y-39500581D01*
X113639515Y-39455528D01*
X113608099Y-39393872D01*
X113579787Y-39338306D01*
X113462981Y-39177536D01*
X113322464Y-39037019D01*
X113161694Y-38920213D01*
X113084360Y-38880809D01*
X112984632Y-38829994D01*
X112984629Y-38829993D01*
X112795637Y-38768587D01*
X112697498Y-38753043D01*
X112599361Y-38737500D01*
X112400639Y-38737500D01*
X112335214Y-38747862D01*
X112204362Y-38768587D01*
X112015370Y-38829993D01*
X112015367Y-38829994D01*
X111838305Y-38920213D01*
X111677533Y-39037021D01*
X111537021Y-39177533D01*
X111537016Y-39177539D01*
X111497661Y-39231705D01*
X111485026Y-39246498D01*
X111306265Y-39425259D01*
X111244942Y-39458744D01*
X111175250Y-39453760D01*
X111119317Y-39411888D01*
X111108099Y-39393872D01*
X111079788Y-39338307D01*
X111014533Y-39248492D01*
X110962981Y-39177536D01*
X110822464Y-39037019D01*
X110661694Y-38920213D01*
X110584360Y-38880809D01*
X110484632Y-38829994D01*
X110484629Y-38829993D01*
X110295637Y-38768587D01*
X110197498Y-38753043D01*
X110099361Y-38737500D01*
X109900639Y-38737500D01*
X109835214Y-38747862D01*
X109704362Y-38768587D01*
X109515370Y-38829993D01*
X109515367Y-38829994D01*
X109338305Y-38920213D01*
X109177533Y-39037021D01*
X109037018Y-39177536D01*
X108985465Y-39248492D01*
X108930134Y-39291157D01*
X108860521Y-39297135D01*
X108798726Y-39264528D01*
X108764370Y-39203689D01*
X108761858Y-39188860D01*
X108755596Y-39130619D01*
X108705354Y-38995913D01*
X108705350Y-38995906D01*
X108619190Y-38880812D01*
X108619187Y-38880809D01*
X108504093Y-38794649D01*
X108504086Y-38794645D01*
X108369379Y-38744403D01*
X108369372Y-38744401D01*
X108309844Y-38738000D01*
X107750000Y-38738000D01*
X107750000Y-39711184D01*
X107733940Y-39695124D01*
X107647061Y-39644964D01*
X107550160Y-39619000D01*
X107449840Y-39619000D01*
X107352939Y-39644964D01*
X107266060Y-39695124D01*
X107250000Y-39711184D01*
X107250000Y-38738000D01*
X106690155Y-38738000D01*
X106630627Y-38744401D01*
X106630620Y-38744403D01*
X106495913Y-38794645D01*
X106495906Y-38794649D01*
X106380812Y-38880809D01*
X106349266Y-38922949D01*
X106293331Y-38964820D01*
X106223640Y-38969803D01*
X106162317Y-38936317D01*
X106150734Y-38922949D01*
X106119187Y-38880809D01*
X106004093Y-38794649D01*
X106004086Y-38794645D01*
X105869379Y-38744403D01*
X105869372Y-38744401D01*
X105809844Y-38738000D01*
X105250000Y-38738000D01*
X105250000Y-39711184D01*
X105233940Y-39695124D01*
X105147061Y-39644964D01*
X105050160Y-39619000D01*
X104949840Y-39619000D01*
X104852939Y-39644964D01*
X104766060Y-39695124D01*
X104750000Y-39711184D01*
X104750000Y-38738000D01*
X104190155Y-38738000D01*
X104130627Y-38744401D01*
X104130620Y-38744403D01*
X103995913Y-38794645D01*
X103995906Y-38794649D01*
X103880812Y-38880809D01*
X103880809Y-38880812D01*
X103794649Y-38995906D01*
X103794645Y-38995913D01*
X103744403Y-39130620D01*
X103744401Y-39130626D01*
X103738140Y-39188862D01*
X103711402Y-39253412D01*
X103654009Y-39293260D01*
X103584183Y-39295753D01*
X103524095Y-39260100D01*
X103514533Y-39248491D01*
X103481982Y-39203689D01*
X103462981Y-39177536D01*
X103322464Y-39037019D01*
X103161694Y-38920213D01*
X103084360Y-38880809D01*
X102984632Y-38829994D01*
X102984629Y-38829993D01*
X102795637Y-38768587D01*
X102697498Y-38753043D01*
X102599361Y-38737500D01*
X102400639Y-38737500D01*
X102335214Y-38747862D01*
X102204362Y-38768587D01*
X102015370Y-38829993D01*
X102015367Y-38829994D01*
X101838305Y-38920213D01*
X101677533Y-39037021D01*
X101537021Y-39177533D01*
X101420213Y-39338305D01*
X101360485Y-39455528D01*
X101312510Y-39506324D01*
X101244689Y-39523119D01*
X101178554Y-39500581D01*
X101139515Y-39455528D01*
X101108099Y-39393872D01*
X101079787Y-39338306D01*
X100962981Y-39177536D01*
X100822464Y-39037019D01*
X100661694Y-38920213D01*
X100584360Y-38880809D01*
X100484632Y-38829994D01*
X100484629Y-38829993D01*
X100295637Y-38768587D01*
X100197498Y-38753043D01*
X100099361Y-38737500D01*
X99900639Y-38737500D01*
X99835214Y-38747862D01*
X99704362Y-38768587D01*
X99515370Y-38829993D01*
X99515367Y-38829994D01*
X99338305Y-38920213D01*
X99177533Y-39037021D01*
X99037021Y-39177533D01*
X98920213Y-39338305D01*
X98829994Y-39515367D01*
X98829993Y-39515370D01*
X98768587Y-39704362D01*
X98737500Y-39900639D01*
X98737500Y-40099360D01*
X98768587Y-40295637D01*
X98829993Y-40484629D01*
X98829994Y-40484632D01*
X98885767Y-40594091D01*
X98920213Y-40661694D01*
X99037019Y-40822464D01*
X99177536Y-40962981D01*
X99338306Y-41079787D01*
X99425149Y-41124035D01*
X99515367Y-41170005D01*
X99515370Y-41170006D01*
X99609866Y-41200709D01*
X99704364Y-41231413D01*
X99900639Y-41262500D01*
X99900640Y-41262500D01*
X100099360Y-41262500D01*
X100099361Y-41262500D01*
X100295636Y-41231413D01*
X100484632Y-41170005D01*
X100661694Y-41079787D01*
X100822464Y-40962981D01*
X100962981Y-40822464D01*
X101079787Y-40661694D01*
X101139515Y-40544470D01*
X101187490Y-40493675D01*
X101255311Y-40476880D01*
X101321445Y-40499417D01*
X101360484Y-40544469D01*
X101420213Y-40661694D01*
X101537019Y-40822464D01*
X101677536Y-40962981D01*
X101838306Y-41079787D01*
X101925149Y-41124035D01*
X102015367Y-41170005D01*
X102015370Y-41170006D01*
X102109866Y-41200709D01*
X102204364Y-41231413D01*
X102400639Y-41262500D01*
X102400640Y-41262500D01*
X102599360Y-41262500D01*
X102599361Y-41262500D01*
X102795636Y-41231413D01*
X102984632Y-41170005D01*
X103161694Y-41079787D01*
X103322464Y-40962981D01*
X103462981Y-40822464D01*
X103514533Y-40751509D01*
X103569863Y-40708843D01*
X103639476Y-40702864D01*
X103701271Y-40735470D01*
X103735629Y-40796309D01*
X103738140Y-40811138D01*
X103744401Y-40869372D01*
X103744403Y-40869379D01*
X103794645Y-41004086D01*
X103794649Y-41004093D01*
X103880809Y-41119187D01*
X103880812Y-41119190D01*
X103995906Y-41205350D01*
X103995913Y-41205354D01*
X104130620Y-41255596D01*
X104130627Y-41255598D01*
X104190155Y-41261999D01*
X104190172Y-41262000D01*
X104750000Y-41262000D01*
X104750000Y-40288816D01*
X104766060Y-40304876D01*
X104852939Y-40355036D01*
X104949840Y-40381000D01*
X105050160Y-40381000D01*
X105147061Y-40355036D01*
X105233940Y-40304876D01*
X105250000Y-40288816D01*
X105250000Y-41262000D01*
X105809828Y-41262000D01*
X105809844Y-41261999D01*
X105869372Y-41255598D01*
X105869379Y-41255596D01*
X106004086Y-41205354D01*
X106004093Y-41205350D01*
X106119187Y-41119190D01*
X106119190Y-41119187D01*
X106150734Y-41077051D01*
X106206667Y-41035180D01*
X106276359Y-41030196D01*
X106337682Y-41063681D01*
X106349266Y-41077051D01*
X106380809Y-41119187D01*
X106380812Y-41119190D01*
X106495906Y-41205350D01*
X106495913Y-41205354D01*
X106630620Y-41255596D01*
X106630627Y-41255598D01*
X106690155Y-41261999D01*
X106690172Y-41262000D01*
X107250000Y-41262000D01*
X107250000Y-40288816D01*
X107266060Y-40304876D01*
X107352939Y-40355036D01*
X107449840Y-40381000D01*
X107550160Y-40381000D01*
X107647061Y-40355036D01*
X107733940Y-40304876D01*
X107750000Y-40288816D01*
X107750000Y-41280164D01*
X107730315Y-41347203D01*
X107713681Y-41367845D01*
X93046174Y-56035351D01*
X93046174Y-56035352D01*
X93046172Y-56035354D01*
X92996485Y-56103741D01*
X92930476Y-56194594D01*
X92840669Y-56370851D01*
X92839608Y-56374612D01*
X92780291Y-56557169D01*
X92780291Y-56557172D01*
X92749500Y-56751577D01*
X92749500Y-67040498D01*
X92743431Y-67078816D01*
X92731523Y-67115464D01*
X92699500Y-67317648D01*
X92699500Y-67522351D01*
X92731522Y-67724534D01*
X92794781Y-67919223D01*
X92887715Y-68101613D01*
X93008028Y-68267213D01*
X93152786Y-68411971D01*
X93307749Y-68524556D01*
X93318390Y-68532287D01*
X93434607Y-68591503D01*
X93500776Y-68625218D01*
X93500778Y-68625218D01*
X93500781Y-68625220D01*
X93585128Y-68652626D01*
X93695465Y-68688477D01*
X93796557Y-68704488D01*
X93897648Y-68720500D01*
X93897649Y-68720500D01*
X94102351Y-68720500D01*
X94102352Y-68720500D01*
X94304534Y-68688477D01*
X94499219Y-68625220D01*
X94681610Y-68532287D01*
X94774590Y-68464732D01*
X94847213Y-68411971D01*
X94847215Y-68411968D01*
X94847219Y-68411966D01*
X94991966Y-68267219D01*
X94991968Y-68267215D01*
X94991971Y-68267213D01*
X95112284Y-68101614D01*
X95112285Y-68101613D01*
X95112287Y-68101610D01*
X95115514Y-68095275D01*
X95163488Y-68044479D01*
X95231309Y-68027683D01*
X95297444Y-68050219D01*
X95340896Y-68104934D01*
X95350000Y-68151569D01*
X95350000Y-69710731D01*
X95330315Y-69777770D01*
X95277511Y-69823525D01*
X95208353Y-69833469D01*
X95197066Y-69831308D01*
X95192829Y-69830291D01*
X94998422Y-69799500D01*
X94998417Y-69799500D01*
X94199336Y-69799500D01*
X94132297Y-69779815D01*
X94111655Y-69763181D01*
X91152584Y-66804110D01*
X91129780Y-66772723D01*
X91112287Y-66738390D01*
X90991966Y-66572781D01*
X90847219Y-66428034D01*
X90847213Y-66428028D01*
X90681613Y-66307715D01*
X90681612Y-66307714D01*
X90681610Y-66307713D01*
X90624653Y-66278691D01*
X90499223Y-66214781D01*
X90304534Y-66151522D01*
X90129848Y-66123855D01*
X90102352Y-66119500D01*
X89897648Y-66119500D01*
X89830254Y-66130174D01*
X89695464Y-66151523D01*
X89658816Y-66163431D01*
X89620498Y-66169500D01*
X86379502Y-66169500D01*
X86341184Y-66163431D01*
X86304535Y-66151523D01*
X86203443Y-66135511D01*
X86102352Y-66119500D01*
X85897648Y-66119500D01*
X85873329Y-66123351D01*
X85695465Y-66151522D01*
X85500776Y-66214781D01*
X85318386Y-66307715D01*
X85152786Y-66428028D01*
X85008028Y-66572786D01*
X84887715Y-66738386D01*
X84794781Y-66920776D01*
X84731522Y-67115465D01*
X84699500Y-67317648D01*
X83300500Y-67317648D01*
X83294587Y-67280315D01*
X83268477Y-67115465D01*
X83223653Y-66977511D01*
X83205220Y-66920781D01*
X83205218Y-66920778D01*
X83205218Y-66920776D01*
X83145773Y-66804110D01*
X83112287Y-66738390D01*
X83104556Y-66727749D01*
X82991971Y-66572786D01*
X82847213Y-66428028D01*
X82681613Y-66307715D01*
X82681612Y-66307714D01*
X82681610Y-66307713D01*
X82624653Y-66278691D01*
X82499223Y-66214781D01*
X82304534Y-66151522D01*
X82129848Y-66123855D01*
X82102352Y-66119500D01*
X81897648Y-66119500D01*
X81873329Y-66123351D01*
X81695465Y-66151522D01*
X81500776Y-66214781D01*
X81318386Y-66307715D01*
X81152786Y-66428028D01*
X81008028Y-66572786D01*
X80887715Y-66738386D01*
X80794781Y-66920776D01*
X80731522Y-67115465D01*
X80699500Y-67317648D01*
X76050034Y-67317648D01*
X77153961Y-66213721D01*
X77215282Y-66180238D01*
X77284974Y-66185222D01*
X77340906Y-66227092D01*
X77363705Y-66257547D01*
X77478914Y-66343793D01*
X77478921Y-66343797D01*
X77613767Y-66394091D01*
X77613766Y-66394091D01*
X77620694Y-66394835D01*
X77673377Y-66400500D01*
X79486622Y-66400499D01*
X79546233Y-66394091D01*
X79681081Y-66343796D01*
X79796296Y-66257546D01*
X79882546Y-66142331D01*
X79932841Y-66007483D01*
X79939250Y-65947873D01*
X79939249Y-64052128D01*
X79932841Y-63992517D01*
X79906530Y-63921974D01*
X79882547Y-63857671D01*
X79882543Y-63857664D01*
X79796297Y-63742455D01*
X79796294Y-63742452D01*
X79681085Y-63656206D01*
X79681078Y-63656202D01*
X79546232Y-63605908D01*
X79546233Y-63605908D01*
X79486633Y-63599501D01*
X79486631Y-63599500D01*
X79486623Y-63599500D01*
X79486615Y-63599500D01*
X79308545Y-63599500D01*
X79241506Y-63579815D01*
X79220864Y-63563181D01*
X76453857Y-60796174D01*
X76453855Y-60796172D01*
X76294614Y-60680476D01*
X76119239Y-60591117D01*
X75932035Y-60530290D01*
X75784921Y-60506990D01*
X75737631Y-60499500D01*
X75737626Y-60499500D01*
X75375801Y-60499500D01*
X75308762Y-60479815D01*
X75263007Y-60427011D01*
X75257480Y-60388575D01*
X84300000Y-60388575D01*
X84300000Y-60611424D01*
X84329085Y-60832354D01*
X84329088Y-60832367D01*
X84386763Y-61047618D01*
X84472045Y-61253502D01*
X84472054Y-61253520D01*
X84583464Y-61446491D01*
X84583473Y-61446504D01*
X84634040Y-61512403D01*
X84634043Y-61512403D01*
X85435387Y-60711059D01*
X85440889Y-60731591D01*
X85519881Y-60868408D01*
X85631592Y-60980119D01*
X85768409Y-61059111D01*
X85788940Y-61064612D01*
X84987595Y-61865955D01*
X84987595Y-61865956D01*
X85053507Y-61916533D01*
X85246485Y-62027949D01*
X85246497Y-62027954D01*
X85452381Y-62113236D01*
X85667632Y-62170911D01*
X85667645Y-62170914D01*
X85888575Y-62200000D01*
X86111425Y-62200000D01*
X86332354Y-62170914D01*
X86332367Y-62170911D01*
X86547618Y-62113236D01*
X86753502Y-62027954D01*
X86753514Y-62027949D01*
X86946498Y-61916530D01*
X87012403Y-61865957D01*
X87012404Y-61865956D01*
X86211059Y-61064612D01*
X86231591Y-61059111D01*
X86368408Y-60980119D01*
X86480119Y-60868408D01*
X86559111Y-60731591D01*
X86564612Y-60711059D01*
X87365956Y-61512404D01*
X87365957Y-61512403D01*
X87416530Y-61446498D01*
X87527949Y-61253514D01*
X87527954Y-61253502D01*
X87613236Y-61047618D01*
X87670911Y-60832367D01*
X87670914Y-60832354D01*
X87700000Y-60611424D01*
X87700000Y-60388575D01*
X87670914Y-60167645D01*
X87670911Y-60167632D01*
X87613236Y-59952381D01*
X87527954Y-59746497D01*
X87527949Y-59746485D01*
X87416533Y-59553507D01*
X87365956Y-59487595D01*
X87365955Y-59487595D01*
X86564612Y-60288939D01*
X86559111Y-60268409D01*
X86480119Y-60131592D01*
X86368408Y-60019881D01*
X86231591Y-59940889D01*
X86211058Y-59935387D01*
X87012403Y-59134043D01*
X87012403Y-59134040D01*
X86946504Y-59083473D01*
X86946491Y-59083464D01*
X86753520Y-58972054D01*
X86753502Y-58972045D01*
X86547618Y-58886763D01*
X86332367Y-58829088D01*
X86332354Y-58829085D01*
X86111425Y-58800000D01*
X85888575Y-58800000D01*
X85667645Y-58829085D01*
X85667632Y-58829088D01*
X85452381Y-58886763D01*
X85246497Y-58972045D01*
X85246479Y-58972054D01*
X85053511Y-59083462D01*
X84987595Y-59134042D01*
X85788941Y-59935387D01*
X85768409Y-59940889D01*
X85631592Y-60019881D01*
X85519881Y-60131592D01*
X85440889Y-60268409D01*
X85435387Y-60288940D01*
X84634042Y-59487595D01*
X84583462Y-59553511D01*
X84472054Y-59746479D01*
X84472045Y-59746497D01*
X84386763Y-59952381D01*
X84329088Y-60167632D01*
X84329085Y-60167645D01*
X84300000Y-60388575D01*
X75257480Y-60388575D01*
X75253063Y-60357853D01*
X75257870Y-60337183D01*
X75268475Y-60304542D01*
X75268475Y-60304538D01*
X75268477Y-60304534D01*
X75300500Y-60102352D01*
X75300500Y-59897648D01*
X75281989Y-59780775D01*
X75268477Y-59695465D01*
X75224626Y-59560507D01*
X75205220Y-59500781D01*
X75205218Y-59500778D01*
X75205218Y-59500776D01*
X75138697Y-59370223D01*
X75112287Y-59318390D01*
X74991966Y-59152781D01*
X74847219Y-59008034D01*
X74847213Y-59008028D01*
X74681613Y-58887715D01*
X74681612Y-58887714D01*
X74681610Y-58887713D01*
X74624653Y-58858691D01*
X74499223Y-58794781D01*
X74304534Y-58731522D01*
X74129995Y-58703878D01*
X74102352Y-58699500D01*
X73897648Y-58699500D01*
X73873329Y-58703351D01*
X73695465Y-58731522D01*
X73500776Y-58794781D01*
X73318386Y-58887715D01*
X73152786Y-59008028D01*
X73008028Y-59152786D01*
X72887715Y-59318386D01*
X72794781Y-59500776D01*
X72731522Y-59695465D01*
X72699500Y-59897648D01*
X72699500Y-60102351D01*
X72731523Y-60304535D01*
X72731524Y-60304542D01*
X72742130Y-60337183D01*
X72744125Y-60407024D01*
X72708044Y-60466857D01*
X72645343Y-60497684D01*
X72624199Y-60499500D01*
X66159337Y-60499500D01*
X66092298Y-60479815D01*
X66071656Y-60463181D01*
X64992584Y-59384110D01*
X64969780Y-59352723D01*
X64969028Y-59351247D01*
X64952287Y-59318390D01*
X64831966Y-59152781D01*
X64687219Y-59008034D01*
X64687213Y-59008028D01*
X64521613Y-58887715D01*
X64521612Y-58887714D01*
X64521610Y-58887713D01*
X64464653Y-58858691D01*
X64339223Y-58794781D01*
X64144534Y-58731522D01*
X63969995Y-58703878D01*
X63942352Y-58699500D01*
X63737648Y-58699500D01*
X63713329Y-58703351D01*
X63535465Y-58731522D01*
X63340776Y-58794781D01*
X63158386Y-58887715D01*
X62992786Y-59008028D01*
X62848028Y-59152786D01*
X62727714Y-59318386D01*
X62710216Y-59352727D01*
X62687414Y-59384110D01*
X60858345Y-61213181D01*
X60797022Y-61246666D01*
X60770664Y-61249500D01*
X50691306Y-61249500D01*
X50652988Y-61243431D01*
X50466240Y-61182753D01*
X50304957Y-61157208D01*
X50256287Y-61149500D01*
X49743713Y-61149500D01*
X49695042Y-61157208D01*
X49533760Y-61182753D01*
X49331585Y-61248444D01*
X49142179Y-61344951D01*
X48970213Y-61469890D01*
X48819890Y-61620213D01*
X48694951Y-61792179D01*
X48598444Y-61981583D01*
X48575536Y-62052088D01*
X48573983Y-62054358D01*
X48573787Y-62057103D01*
X48554379Y-62083027D01*
X48536098Y-62109763D01*
X48533563Y-62110834D01*
X48531915Y-62113036D01*
X48501575Y-62124352D01*
X48471739Y-62136961D01*
X48469028Y-62136491D01*
X48466451Y-62137453D01*
X48434808Y-62130569D01*
X48402893Y-62125046D01*
X48400043Y-62123006D01*
X48398178Y-62122601D01*
X48369924Y-62101450D01*
X48286819Y-62018345D01*
X48253334Y-61957022D01*
X48250500Y-61930664D01*
X48250500Y-61069336D01*
X48270185Y-61002297D01*
X48286819Y-60981655D01*
X49580032Y-59688442D01*
X49641355Y-59654957D01*
X49667713Y-59652123D01*
X57668422Y-59652123D01*
X57862826Y-59621332D01*
X58050026Y-59560507D01*
X58225405Y-59471147D01*
X58384646Y-59355451D01*
X64703278Y-53036819D01*
X64764601Y-53003334D01*
X64790959Y-53000500D01*
X72348422Y-53000500D01*
X72542826Y-52969709D01*
X72730026Y-52908884D01*
X72905405Y-52819524D01*
X73064646Y-52703828D01*
X73768490Y-51999984D01*
X84299500Y-51999984D01*
X84299500Y-54000015D01*
X84310000Y-54102795D01*
X84310001Y-54102796D01*
X84365186Y-54269335D01*
X84365187Y-54269337D01*
X84457286Y-54418651D01*
X84457289Y-54418655D01*
X84581344Y-54542710D01*
X84581348Y-54542713D01*
X84730662Y-54634812D01*
X84730664Y-54634813D01*
X84730666Y-54634814D01*
X84897203Y-54689999D01*
X84999992Y-54700500D01*
X84999997Y-54700500D01*
X87000003Y-54700500D01*
X87000008Y-54700500D01*
X87102797Y-54689999D01*
X87269334Y-54634814D01*
X87418655Y-54542711D01*
X87542711Y-54418655D01*
X87634814Y-54269334D01*
X87689999Y-54102797D01*
X87700500Y-54000008D01*
X87700500Y-51999992D01*
X87689999Y-51897203D01*
X87634814Y-51730666D01*
X87621194Y-51708585D01*
X87542713Y-51581348D01*
X87542710Y-51581344D01*
X87418655Y-51457289D01*
X87418651Y-51457286D01*
X87269337Y-51365187D01*
X87269335Y-51365186D01*
X87186065Y-51337593D01*
X87102797Y-51310001D01*
X87102795Y-51310000D01*
X87000015Y-51299500D01*
X87000008Y-51299500D01*
X84999992Y-51299500D01*
X84999984Y-51299500D01*
X84897204Y-51310000D01*
X84897203Y-51310001D01*
X84730664Y-51365186D01*
X84730662Y-51365187D01*
X84581348Y-51457286D01*
X84581344Y-51457289D01*
X84457289Y-51581344D01*
X84457286Y-51581348D01*
X84365187Y-51730662D01*
X84365186Y-51730664D01*
X84310001Y-51897203D01*
X84310000Y-51897204D01*
X84299500Y-51999984D01*
X73768490Y-51999984D01*
X74615892Y-51152581D01*
X74647274Y-51129781D01*
X74681610Y-51112287D01*
X74847219Y-50991966D01*
X74991966Y-50847219D01*
X74991968Y-50847215D01*
X74991971Y-50847213D01*
X75056561Y-50758311D01*
X75112287Y-50681610D01*
X75205220Y-50499219D01*
X75268477Y-50304534D01*
X75300500Y-50102352D01*
X75300500Y-49897648D01*
X75278367Y-49757906D01*
X75268477Y-49695465D01*
X75237458Y-49600000D01*
X75205220Y-49500781D01*
X75205218Y-49500778D01*
X75205218Y-49500776D01*
X75132649Y-49358353D01*
X75112287Y-49318390D01*
X75093176Y-49292086D01*
X74991971Y-49152786D01*
X74847213Y-49008028D01*
X74681613Y-48887715D01*
X74681612Y-48887714D01*
X74681610Y-48887713D01*
X74598521Y-48845377D01*
X74499223Y-48794781D01*
X74304534Y-48731522D01*
X74129995Y-48703878D01*
X74102352Y-48699500D01*
X73897648Y-48699500D01*
X73873329Y-48703351D01*
X73695465Y-48731522D01*
X73500776Y-48794781D01*
X73318386Y-48887715D01*
X73152786Y-49008028D01*
X73008028Y-49152786D01*
X72887714Y-49318386D01*
X72870217Y-49352725D01*
X72847415Y-49384108D01*
X71768345Y-50463181D01*
X71707022Y-50496666D01*
X71680664Y-50499500D01*
X65215276Y-50499500D01*
X65148237Y-50479815D01*
X65102482Y-50427011D01*
X65092538Y-50357853D01*
X65097345Y-50337183D01*
X65107988Y-50304425D01*
X65107989Y-50304418D01*
X65140000Y-50102317D01*
X65140000Y-49897682D01*
X65107990Y-49695582D01*
X65044755Y-49500968D01*
X64951859Y-49318650D01*
X64919474Y-49274077D01*
X64919474Y-49274076D01*
X64240000Y-49953553D01*
X64240000Y-49947339D01*
X64212741Y-49845606D01*
X64160080Y-49754394D01*
X64085606Y-49679920D01*
X63994394Y-49627259D01*
X63892661Y-49600000D01*
X63886446Y-49600000D01*
X64565922Y-48920524D01*
X64565921Y-48920523D01*
X64521359Y-48888147D01*
X64521350Y-48888141D01*
X64339031Y-48795244D01*
X64144417Y-48732009D01*
X63942317Y-48700000D01*
X63737683Y-48700000D01*
X63535582Y-48732009D01*
X63340968Y-48795244D01*
X63158644Y-48888143D01*
X63114077Y-48920523D01*
X63114077Y-48920524D01*
X63793554Y-49600000D01*
X63787339Y-49600000D01*
X63685606Y-49627259D01*
X63594394Y-49679920D01*
X63519920Y-49754394D01*
X63467259Y-49845606D01*
X63440000Y-49947339D01*
X63440000Y-49953553D01*
X62760524Y-49274077D01*
X62748568Y-49275018D01*
X62725511Y-49294998D01*
X62721887Y-49295518D01*
X62718988Y-49297755D01*
X62687569Y-49300453D01*
X62656353Y-49304942D01*
X62653021Y-49303420D01*
X62649374Y-49303734D01*
X62621483Y-49289017D01*
X62592797Y-49275917D01*
X62590817Y-49272836D01*
X62587579Y-49271128D01*
X62572070Y-49243665D01*
X62555023Y-49217139D01*
X62554316Y-49212227D01*
X62553222Y-49210289D01*
X62550000Y-49182204D01*
X62550000Y-48904734D01*
X62549999Y-48904731D01*
X62539784Y-48760041D01*
X62539782Y-48760031D01*
X62485686Y-48519834D01*
X62485684Y-48519827D01*
X62393755Y-48291414D01*
X62266379Y-48080710D01*
X62266372Y-48080700D01*
X62106846Y-47893153D01*
X61919299Y-47733627D01*
X61919289Y-47733620D01*
X61708585Y-47606244D01*
X61480172Y-47514315D01*
X61480165Y-47514313D01*
X61239968Y-47460217D01*
X61239958Y-47460215D01*
X61095268Y-47450000D01*
X60250000Y-47450000D01*
X60250000Y-48672768D01*
X60106247Y-48650000D01*
X59893753Y-48650000D01*
X59750000Y-48672768D01*
X59750000Y-47450000D01*
X58904731Y-47450000D01*
X58760041Y-47460215D01*
X58760031Y-47460217D01*
X58519834Y-47514313D01*
X58519827Y-47514315D01*
X58291414Y-47606244D01*
X58080710Y-47733620D01*
X58080700Y-47733627D01*
X57893153Y-47893153D01*
X57733627Y-48080700D01*
X57733620Y-48080710D01*
X57606244Y-48291414D01*
X57514315Y-48519827D01*
X57514313Y-48519834D01*
X57460217Y-48760031D01*
X57460215Y-48760041D01*
X57450000Y-48904731D01*
X57450000Y-49750000D01*
X58672769Y-49750000D01*
X58650000Y-49893753D01*
X58650000Y-50106247D01*
X58672769Y-50250000D01*
X57450000Y-50250000D01*
X57450000Y-51095268D01*
X57460215Y-51239958D01*
X57460217Y-51239968D01*
X57514313Y-51480165D01*
X57514315Y-51480172D01*
X57606244Y-51708585D01*
X57733620Y-51919289D01*
X57733627Y-51919299D01*
X57893153Y-52106846D01*
X58080700Y-52266372D01*
X58080710Y-52266379D01*
X58291414Y-52393755D01*
X58519827Y-52485684D01*
X58519834Y-52485686D01*
X58760031Y-52539782D01*
X58760041Y-52539784D01*
X58904731Y-52549999D01*
X58904734Y-52550000D01*
X59750000Y-52550000D01*
X59750000Y-51327231D01*
X59893753Y-51350000D01*
X60106247Y-51350000D01*
X60250000Y-51327231D01*
X60250000Y-52550000D01*
X61095266Y-52550000D01*
X61095268Y-52549999D01*
X61239958Y-52539784D01*
X61239965Y-52539783D01*
X61368803Y-52510766D01*
X61438529Y-52515240D01*
X61494768Y-52556700D01*
X61519664Y-52621984D01*
X61505313Y-52690364D01*
X61483729Y-52719417D01*
X57088345Y-57114804D01*
X57027022Y-57148289D01*
X57000664Y-57151123D01*
X48999955Y-57151123D01*
X48805549Y-57181913D01*
X48618346Y-57242740D01*
X48442971Y-57332099D01*
X48352118Y-57398108D01*
X48283731Y-57447795D01*
X48283729Y-57447797D01*
X48283728Y-57447797D01*
X46046174Y-59685351D01*
X46046174Y-59685352D01*
X46046172Y-59685354D01*
X46001749Y-59746497D01*
X45930476Y-59844594D01*
X45841115Y-60019973D01*
X45841113Y-60019979D01*
X45815629Y-60098415D01*
X45815629Y-60098416D01*
X45780290Y-60207176D01*
X45780290Y-60207177D01*
X45749500Y-60401577D01*
X40500500Y-60401577D01*
X40500500Y-52652135D01*
X52499500Y-52652135D01*
X52499500Y-53647870D01*
X52499501Y-53647876D01*
X52505908Y-53707483D01*
X52556202Y-53842328D01*
X52556206Y-53842335D01*
X52642452Y-53957544D01*
X52642455Y-53957547D01*
X52757664Y-54043793D01*
X52757671Y-54043797D01*
X52892517Y-54094091D01*
X52892516Y-54094091D01*
X52899444Y-54094835D01*
X52952127Y-54100500D01*
X55047872Y-54100499D01*
X55107483Y-54094091D01*
X55242331Y-54043796D01*
X55357546Y-53957546D01*
X55443796Y-53842331D01*
X55494091Y-53707483D01*
X55500500Y-53647873D01*
X55500499Y-52652128D01*
X55494091Y-52592517D01*
X55478233Y-52550000D01*
X55443797Y-52457671D01*
X55443793Y-52457664D01*
X55357547Y-52342455D01*
X55357544Y-52342452D01*
X55242335Y-52256206D01*
X55242328Y-52256202D01*
X55107482Y-52205908D01*
X55107483Y-52205908D01*
X55047883Y-52199501D01*
X55047881Y-52199500D01*
X55047873Y-52199500D01*
X55047864Y-52199500D01*
X52952129Y-52199500D01*
X52952123Y-52199501D01*
X52892516Y-52205908D01*
X52757671Y-52256202D01*
X52757664Y-52256206D01*
X52642455Y-52342452D01*
X52642452Y-52342455D01*
X52556206Y-52457664D01*
X52556202Y-52457671D01*
X52505908Y-52592517D01*
X52499501Y-52652116D01*
X52499501Y-52652123D01*
X52499500Y-52652135D01*
X40500500Y-52652135D01*
X40500500Y-42656762D01*
X57449500Y-42656762D01*
X57449500Y-42943237D01*
X57481572Y-43227891D01*
X57545317Y-43507181D01*
X57545321Y-43507193D01*
X57639929Y-43777565D01*
X57639935Y-43777579D01*
X57764223Y-44035666D01*
X57764225Y-44035669D01*
X57916634Y-44278227D01*
X58095243Y-44502195D01*
X58297805Y-44704757D01*
X58521773Y-44883366D01*
X58764331Y-45035775D01*
X59022428Y-45160068D01*
X59022434Y-45160070D01*
X59292806Y-45254678D01*
X59292818Y-45254682D01*
X59572102Y-45318426D01*
X59572105Y-45318426D01*
X59572108Y-45318427D01*
X59572107Y-45318427D01*
X59714434Y-45334463D01*
X59856763Y-45350499D01*
X59856764Y-45350500D01*
X59856767Y-45350500D01*
X60143236Y-45350500D01*
X60143236Y-45350499D01*
X60348815Y-45327336D01*
X60427891Y-45318427D01*
X60427892Y-45318426D01*
X60427898Y-45318426D01*
X60707182Y-45254682D01*
X60977572Y-45160068D01*
X61011521Y-45143718D01*
X61025644Y-45136918D01*
X61103449Y-45099448D01*
X61235669Y-45035775D01*
X61478227Y-44883366D01*
X61702195Y-44704757D01*
X61904757Y-44502195D01*
X62083366Y-44278227D01*
X62235775Y-44035669D01*
X62360068Y-43777572D01*
X62454682Y-43507182D01*
X62518426Y-43227898D01*
X62550500Y-42943233D01*
X62550500Y-42656767D01*
X62550499Y-42656762D01*
X62550499Y-42656760D01*
X62521390Y-42398400D01*
X62520283Y-42388575D01*
X84300000Y-42388575D01*
X84300000Y-42611424D01*
X84329085Y-42832354D01*
X84329088Y-42832367D01*
X84386763Y-43047618D01*
X84472045Y-43253502D01*
X84472054Y-43253520D01*
X84583464Y-43446491D01*
X84583473Y-43446504D01*
X84634040Y-43512403D01*
X84634043Y-43512403D01*
X85435387Y-42711059D01*
X85440889Y-42731591D01*
X85519881Y-42868408D01*
X85631592Y-42980119D01*
X85768409Y-43059111D01*
X85788940Y-43064612D01*
X84987595Y-43865955D01*
X84987595Y-43865956D01*
X85053507Y-43916533D01*
X85246485Y-44027949D01*
X85246497Y-44027954D01*
X85452381Y-44113236D01*
X85667632Y-44170911D01*
X85667645Y-44170914D01*
X85888575Y-44200000D01*
X86111425Y-44200000D01*
X86332354Y-44170914D01*
X86332367Y-44170911D01*
X86547618Y-44113236D01*
X86753502Y-44027954D01*
X86753514Y-44027949D01*
X86946498Y-43916530D01*
X87012403Y-43865957D01*
X87012404Y-43865956D01*
X86211059Y-43064612D01*
X86231591Y-43059111D01*
X86368408Y-42980119D01*
X86480119Y-42868408D01*
X86559111Y-42731591D01*
X86564612Y-42711059D01*
X87365956Y-43512404D01*
X87365957Y-43512403D01*
X87416530Y-43446498D01*
X87527949Y-43253514D01*
X87527954Y-43253502D01*
X87613236Y-43047618D01*
X87670911Y-42832367D01*
X87670914Y-42832354D01*
X87700000Y-42611424D01*
X87700000Y-42388575D01*
X87670914Y-42167645D01*
X87670911Y-42167632D01*
X87613236Y-41952381D01*
X87527954Y-41746497D01*
X87527949Y-41746485D01*
X87416533Y-41553507D01*
X87365956Y-41487595D01*
X87365955Y-41487595D01*
X86564612Y-42288939D01*
X86559111Y-42268409D01*
X86480119Y-42131592D01*
X86368408Y-42019881D01*
X86231591Y-41940889D01*
X86211058Y-41935387D01*
X87012403Y-41134043D01*
X87012403Y-41134040D01*
X86964426Y-41097225D01*
X86946502Y-41083471D01*
X86946491Y-41083464D01*
X86805657Y-41002155D01*
X95350000Y-41002155D01*
X95350000Y-44800000D01*
X96050000Y-44800000D01*
X96050000Y-45300000D01*
X95350000Y-45300000D01*
X95350000Y-49097844D01*
X95356401Y-49157372D01*
X95356403Y-49157379D01*
X95406645Y-49292086D01*
X95406649Y-49292093D01*
X95492809Y-49407187D01*
X95492812Y-49407190D01*
X95607906Y-49493350D01*
X95607913Y-49493354D01*
X95742620Y-49543596D01*
X95742627Y-49543598D01*
X95802155Y-49549999D01*
X95802172Y-49550000D01*
X96650000Y-49550000D01*
X96650000Y-47066480D01*
X96652064Y-47067335D01*
X96816282Y-47100000D01*
X96983718Y-47100000D01*
X97147936Y-47067335D01*
X97150000Y-47066480D01*
X97150000Y-49550000D01*
X97997828Y-49550000D01*
X97997844Y-49549999D01*
X98057372Y-49543598D01*
X98057379Y-49543596D01*
X98192086Y-49493354D01*
X98192093Y-49493350D01*
X98307187Y-49407190D01*
X98307190Y-49407187D01*
X98393350Y-49292093D01*
X98393354Y-49292086D01*
X98443596Y-49157379D01*
X98443598Y-49157372D01*
X98449999Y-49097844D01*
X98450000Y-49097827D01*
X98450000Y-45300000D01*
X97750000Y-45300000D01*
X97750000Y-44800000D01*
X98450000Y-44800000D01*
X98450000Y-41002172D01*
X98449999Y-41002155D01*
X98443598Y-40942627D01*
X98443596Y-40942620D01*
X98393354Y-40807913D01*
X98393350Y-40807906D01*
X98307190Y-40692812D01*
X98307187Y-40692809D01*
X98192093Y-40606649D01*
X98192086Y-40606645D01*
X98057379Y-40556403D01*
X98057372Y-40556401D01*
X97997844Y-40550000D01*
X97150000Y-40550000D01*
X97150000Y-43033519D01*
X97147936Y-43032665D01*
X96983718Y-43000000D01*
X96816282Y-43000000D01*
X96652064Y-43032665D01*
X96650000Y-43033519D01*
X96650000Y-40550000D01*
X95802155Y-40550000D01*
X95742627Y-40556401D01*
X95742620Y-40556403D01*
X95607913Y-40606645D01*
X95607906Y-40606649D01*
X95492812Y-40692809D01*
X95492809Y-40692812D01*
X95406649Y-40807906D01*
X95406645Y-40807913D01*
X95356403Y-40942620D01*
X95356401Y-40942627D01*
X95350000Y-41002155D01*
X86805657Y-41002155D01*
X86753520Y-40972054D01*
X86753502Y-40972045D01*
X86547618Y-40886763D01*
X86332367Y-40829088D01*
X86332354Y-40829085D01*
X86111425Y-40800000D01*
X85888575Y-40800000D01*
X85667645Y-40829085D01*
X85667632Y-40829088D01*
X85452381Y-40886763D01*
X85246497Y-40972045D01*
X85246479Y-40972054D01*
X85053511Y-41083462D01*
X84987595Y-41134042D01*
X85788941Y-41935387D01*
X85768409Y-41940889D01*
X85631592Y-42019881D01*
X85519881Y-42131592D01*
X85440889Y-42268409D01*
X85435387Y-42288940D01*
X84634042Y-41487595D01*
X84583462Y-41553511D01*
X84472054Y-41746479D01*
X84472045Y-41746497D01*
X84386763Y-41952381D01*
X84329088Y-42167632D01*
X84329085Y-42167645D01*
X84300000Y-42388575D01*
X62520283Y-42388575D01*
X62518427Y-42372107D01*
X62454682Y-42092818D01*
X62454678Y-42092806D01*
X62360070Y-41822434D01*
X62360068Y-41822428D01*
X62235775Y-41564331D01*
X62083366Y-41321773D01*
X62083364Y-41321770D01*
X62083363Y-41321768D01*
X62033554Y-41259310D01*
X62033552Y-41259308D01*
X61904757Y-41097805D01*
X61702194Y-40895242D01*
X61578136Y-40796309D01*
X61478227Y-40716634D01*
X61235669Y-40564225D01*
X61235666Y-40564223D01*
X60977579Y-40439935D01*
X60977565Y-40439929D01*
X60707193Y-40345321D01*
X60707181Y-40345317D01*
X60427891Y-40281572D01*
X60427892Y-40281572D01*
X60143237Y-40249500D01*
X60143233Y-40249500D01*
X59856767Y-40249500D01*
X59856762Y-40249500D01*
X59572108Y-40281572D01*
X59292818Y-40345317D01*
X59292806Y-40345321D01*
X59022434Y-40439929D01*
X59022420Y-40439935D01*
X58764333Y-40564223D01*
X58521774Y-40716633D01*
X58297805Y-40895242D01*
X58095242Y-41097805D01*
X57916633Y-41321774D01*
X57764223Y-41564333D01*
X57639935Y-41822420D01*
X57639929Y-41822434D01*
X57545321Y-42092806D01*
X57545317Y-42092818D01*
X57481572Y-42372108D01*
X57449500Y-42656762D01*
X40500500Y-42656762D01*
X40500500Y-39152135D01*
X52499500Y-39152135D01*
X52499500Y-40147870D01*
X52499501Y-40147876D01*
X52505908Y-40207483D01*
X52556202Y-40342328D01*
X52556206Y-40342335D01*
X52642452Y-40457544D01*
X52642455Y-40457547D01*
X52757664Y-40543793D01*
X52757671Y-40543797D01*
X52892517Y-40594091D01*
X52892516Y-40594091D01*
X52899444Y-40594835D01*
X52952127Y-40600500D01*
X55047872Y-40600499D01*
X55107483Y-40594091D01*
X55242331Y-40543796D01*
X55357546Y-40457546D01*
X55443796Y-40342331D01*
X55494091Y-40207483D01*
X55500500Y-40147873D01*
X55500499Y-39644964D01*
X55500499Y-39152129D01*
X55500498Y-39152123D01*
X55500497Y-39152116D01*
X55494091Y-39092517D01*
X55473392Y-39037021D01*
X55443797Y-38957671D01*
X55443793Y-38957664D01*
X55357547Y-38842455D01*
X55357544Y-38842452D01*
X55242335Y-38756206D01*
X55242328Y-38756202D01*
X55107482Y-38705908D01*
X55107483Y-38705908D01*
X55047883Y-38699501D01*
X55047881Y-38699500D01*
X55047873Y-38699500D01*
X55047864Y-38699500D01*
X52952129Y-38699500D01*
X52952123Y-38699501D01*
X52892516Y-38705908D01*
X52757671Y-38756202D01*
X52757664Y-38756206D01*
X52642455Y-38842452D01*
X52642452Y-38842455D01*
X52556206Y-38957664D01*
X52556202Y-38957671D01*
X52505908Y-39092517D01*
X52499501Y-39152116D01*
X52499501Y-39152123D01*
X52499500Y-39152135D01*
X40500500Y-39152135D01*
X40500500Y-34857744D01*
X42829500Y-34857744D01*
X42829500Y-35142255D01*
X42829501Y-35142271D01*
X42866636Y-35424341D01*
X42866637Y-35424346D01*
X42866638Y-35424352D01*
X42940278Y-35699181D01*
X43019026Y-35889295D01*
X43049159Y-35962043D01*
X43049164Y-35962054D01*
X43191422Y-36208451D01*
X43364628Y-36434179D01*
X43364634Y-36434186D01*
X43565813Y-36635365D01*
X43565820Y-36635371D01*
X43791548Y-36808577D01*
X44037945Y-36950835D01*
X44037950Y-36950837D01*
X44037953Y-36950839D01*
X44300819Y-37059722D01*
X44575648Y-37133362D01*
X44857738Y-37170500D01*
X44857745Y-37170500D01*
X45142255Y-37170500D01*
X45142262Y-37170500D01*
X45424352Y-37133362D01*
X45699181Y-37059722D01*
X45962047Y-36950839D01*
X46208452Y-36808577D01*
X46434181Y-36635370D01*
X46635370Y-36434181D01*
X46808577Y-36208452D01*
X46950839Y-35962047D01*
X47059722Y-35699181D01*
X47133362Y-35424352D01*
X47170500Y-35142262D01*
X47170500Y-34857738D01*
X47133362Y-34575648D01*
X47059722Y-34300819D01*
X46953462Y-34044285D01*
X46953462Y-34044284D01*
X46950844Y-34037963D01*
X46950835Y-34037945D01*
X46928918Y-33999984D01*
X84299500Y-33999984D01*
X84299500Y-36000015D01*
X84310000Y-36102795D01*
X84310001Y-36102796D01*
X84365186Y-36269335D01*
X84365187Y-36269337D01*
X84457286Y-36418651D01*
X84457289Y-36418655D01*
X84581344Y-36542710D01*
X84581348Y-36542713D01*
X84730662Y-36634812D01*
X84730664Y-36634813D01*
X84730666Y-36634814D01*
X84897203Y-36689999D01*
X84999992Y-36700500D01*
X84999997Y-36700500D01*
X87000003Y-36700500D01*
X87000008Y-36700500D01*
X87102797Y-36689999D01*
X87269334Y-36634814D01*
X87418655Y-36542711D01*
X87542711Y-36418655D01*
X87634814Y-36269334D01*
X87689999Y-36102797D01*
X87700500Y-36000008D01*
X87700500Y-34857744D01*
X122829500Y-34857744D01*
X122829500Y-35142255D01*
X122829501Y-35142271D01*
X122866636Y-35424341D01*
X122866637Y-35424346D01*
X122866638Y-35424352D01*
X122940278Y-35699181D01*
X123019026Y-35889295D01*
X123049159Y-35962043D01*
X123049164Y-35962054D01*
X123191422Y-36208451D01*
X123364628Y-36434179D01*
X123364634Y-36434186D01*
X123565813Y-36635365D01*
X123565820Y-36635371D01*
X123791548Y-36808577D01*
X124037945Y-36950835D01*
X124037950Y-36950837D01*
X124037953Y-36950839D01*
X124300819Y-37059722D01*
X124575648Y-37133362D01*
X124857738Y-37170500D01*
X124857745Y-37170500D01*
X125142255Y-37170500D01*
X125142262Y-37170500D01*
X125424352Y-37133362D01*
X125699181Y-37059722D01*
X125962047Y-36950839D01*
X126208452Y-36808577D01*
X126434181Y-36635370D01*
X126635370Y-36434181D01*
X126808577Y-36208452D01*
X126950839Y-35962047D01*
X127059722Y-35699181D01*
X127133362Y-35424352D01*
X127170500Y-35142262D01*
X127170500Y-34857738D01*
X127133362Y-34575648D01*
X127059722Y-34300819D01*
X126950839Y-34037953D01*
X126950837Y-34037950D01*
X126950835Y-34037945D01*
X126808577Y-33791548D01*
X126635371Y-33565820D01*
X126635365Y-33565813D01*
X126434186Y-33364634D01*
X126434179Y-33364628D01*
X126208451Y-33191422D01*
X125962054Y-33049164D01*
X125962043Y-33049159D01*
X125843362Y-33000000D01*
X125699181Y-32940278D01*
X125424352Y-32866638D01*
X125424346Y-32866637D01*
X125424341Y-32866636D01*
X125142271Y-32829501D01*
X125142268Y-32829500D01*
X125142262Y-32829500D01*
X124857738Y-32829500D01*
X124857732Y-32829500D01*
X124857728Y-32829501D01*
X124575658Y-32866636D01*
X124575651Y-32866637D01*
X124575648Y-32866638D01*
X124300819Y-32940278D01*
X124178729Y-32990849D01*
X124037956Y-33049159D01*
X124037945Y-33049164D01*
X123791548Y-33191422D01*
X123565820Y-33364628D01*
X123565813Y-33364634D01*
X123364634Y-33565813D01*
X123364628Y-33565820D01*
X123191422Y-33791548D01*
X123049164Y-34037945D01*
X123049159Y-34037956D01*
X123019026Y-34110705D01*
X122940278Y-34300819D01*
X122872854Y-34552452D01*
X122866639Y-34575645D01*
X122866636Y-34575658D01*
X122829501Y-34857728D01*
X122829500Y-34857744D01*
X87700500Y-34857744D01*
X87700500Y-33999992D01*
X87689999Y-33897203D01*
X87634814Y-33730666D01*
X87542711Y-33581345D01*
X87418655Y-33457289D01*
X87418651Y-33457286D01*
X87269337Y-33365187D01*
X87269335Y-33365186D01*
X87186065Y-33337593D01*
X87102797Y-33310001D01*
X87102795Y-33310000D01*
X87000015Y-33299500D01*
X87000008Y-33299500D01*
X84999992Y-33299500D01*
X84999984Y-33299500D01*
X84897204Y-33310000D01*
X84897203Y-33310001D01*
X84730664Y-33365186D01*
X84730662Y-33365187D01*
X84581348Y-33457286D01*
X84581344Y-33457289D01*
X84457289Y-33581344D01*
X84457286Y-33581348D01*
X84365187Y-33730662D01*
X84365186Y-33730664D01*
X84310001Y-33897203D01*
X84310000Y-33897204D01*
X84299500Y-33999984D01*
X46928918Y-33999984D01*
X46808577Y-33791548D01*
X46635371Y-33565820D01*
X46635365Y-33565813D01*
X46434186Y-33364634D01*
X46434179Y-33364628D01*
X46208451Y-33191422D01*
X45962054Y-33049164D01*
X45962043Y-33049159D01*
X45843362Y-33000000D01*
X45699181Y-32940278D01*
X45424352Y-32866638D01*
X45424346Y-32866637D01*
X45424341Y-32866636D01*
X45142271Y-32829501D01*
X45142268Y-32829500D01*
X45142262Y-32829500D01*
X44857738Y-32829500D01*
X44857732Y-32829500D01*
X44857728Y-32829501D01*
X44575658Y-32866636D01*
X44575651Y-32866637D01*
X44575648Y-32866638D01*
X44300819Y-32940278D01*
X44178729Y-32990849D01*
X44037956Y-33049159D01*
X44037945Y-33049164D01*
X43791548Y-33191422D01*
X43565820Y-33364628D01*
X43565813Y-33364634D01*
X43364634Y-33565813D01*
X43364628Y-33565820D01*
X43191422Y-33791548D01*
X43049164Y-34037945D01*
X43049159Y-34037956D01*
X43019026Y-34110705D01*
X42940278Y-34300819D01*
X42872854Y-34552452D01*
X42866639Y-34575645D01*
X42866636Y-34575658D01*
X42829501Y-34857728D01*
X42829500Y-34857744D01*
X40500500Y-34857744D01*
X40500500Y-32152155D01*
X102250000Y-32152155D01*
X102250000Y-33000000D01*
X105280137Y-33000000D01*
X105250000Y-33151509D01*
X105250000Y-33348491D01*
X105280137Y-33500000D01*
X102250000Y-33500000D01*
X102250000Y-34347844D01*
X102256401Y-34407372D01*
X102256403Y-34407379D01*
X102306645Y-34542086D01*
X102306649Y-34542093D01*
X102392809Y-34657187D01*
X102392812Y-34657190D01*
X102507906Y-34743350D01*
X102507913Y-34743354D01*
X102642620Y-34793596D01*
X102642627Y-34793598D01*
X102702155Y-34799999D01*
X102702172Y-34800000D01*
X106000000Y-34800000D01*
X106000000Y-34219863D01*
X106151509Y-34250000D01*
X106348491Y-34250000D01*
X106500000Y-34219863D01*
X106500000Y-34800000D01*
X109797828Y-34800000D01*
X109797844Y-34799999D01*
X109857372Y-34793598D01*
X109857379Y-34793596D01*
X109992090Y-34743352D01*
X110107187Y-34657190D01*
X110107190Y-34657187D01*
X110193350Y-34542093D01*
X110193354Y-34542086D01*
X110243596Y-34407379D01*
X110243598Y-34407372D01*
X110249999Y-34347844D01*
X110250000Y-34347827D01*
X110250000Y-33500000D01*
X107219863Y-33500000D01*
X107250000Y-33348491D01*
X107250000Y-33151509D01*
X107219863Y-33000000D01*
X110250000Y-33000000D01*
X110250000Y-32152172D01*
X110249999Y-32152155D01*
X110243598Y-32092627D01*
X110243596Y-32092620D01*
X110193354Y-31957913D01*
X110193350Y-31957906D01*
X110107190Y-31842812D01*
X110107187Y-31842809D01*
X109992093Y-31756649D01*
X109992086Y-31756645D01*
X109857379Y-31706403D01*
X109857372Y-31706401D01*
X109797844Y-31700000D01*
X106500000Y-31700000D01*
X106500000Y-32280136D01*
X106348491Y-32250000D01*
X106151509Y-32250000D01*
X106000000Y-32280136D01*
X106000000Y-31700000D01*
X102702155Y-31700000D01*
X102642627Y-31706401D01*
X102642620Y-31706403D01*
X102507913Y-31756645D01*
X102507906Y-31756649D01*
X102392812Y-31842809D01*
X102392809Y-31842812D01*
X102306649Y-31957906D01*
X102306645Y-31957913D01*
X102256403Y-32092620D01*
X102256401Y-32092627D01*
X102250000Y-32152155D01*
X40500500Y-32152155D01*
X40500500Y-32004427D01*
X40500816Y-31995581D01*
X40511742Y-31842812D01*
X40515130Y-31795436D01*
X40517646Y-31777938D01*
X40559356Y-31586200D01*
X40564335Y-31569242D01*
X40632911Y-31385382D01*
X40640251Y-31369310D01*
X40734294Y-31197083D01*
X40743850Y-31182214D01*
X40861443Y-31025128D01*
X40873017Y-31011771D01*
X41011771Y-30873017D01*
X41025128Y-30861443D01*
X41182214Y-30743850D01*
X41197083Y-30734294D01*
X41369310Y-30640251D01*
X41385382Y-30632911D01*
X41569242Y-30564335D01*
X41586200Y-30559356D01*
X41777938Y-30517646D01*
X41795436Y-30515130D01*
X41995582Y-30500816D01*
X42004428Y-30500500D01*
X42065892Y-30500500D01*
X127934108Y-30500500D01*
X127995572Y-30500500D01*
X128004418Y-30500816D01*
G37*
%TD.AperFunction*%
%TD*%
M02*
