M48
; DRILL file {KiCad 9.0.9.1} date 2026-09-09T22:42:41+0900
; FORMAT={-:-/ absolute / metric / decimal}
; #@! TF.CreationDate,2026-09-09T22:42:41+09:00
; #@! TF.GenerationSoftware,Kicad,Pcbnew,9.0.9.1
; #@! TF.FileFunction,Plated,1,2,PTH
FMAT,2
METRIC
; #@! TA.AperFunction,Plated,PTH,ComponentDrill
T1C0.600
; #@! TA.AperFunction,Plated,PTH,ComponentDrill
T2C0.762
; #@! TA.AperFunction,Plated,PTH,ComponentDrill
T3C0.800
; #@! TA.AperFunction,Plated,PTH,ComponentDrill
T4C0.900
; #@! TA.AperFunction,Plated,PTH,ComponentDrill
T5C1.000
; #@! TA.AperFunction,Plated,PTH,ComponentDrill
T6C1.100
; #@! TA.AperFunction,Plated,PTH,ComponentDrill
T7C1.200
; #@! TA.AperFunction,Plated,PTH,ComponentDrill
T8C1.700
; #@! TA.AperFunction,Plated,PTH,ComponentDrill
T9C2.000
; #@! TA.AperFunction,Plated,PTH,ComponentDrill
T10C2.700
%
G90
G05
T2
X100.0Y-40.0
X100.0Y-62.0
X102.5Y-40.0
X102.5Y-62.0
X105.0Y-40.0
X105.0Y-62.0
X107.5Y-40.0
X107.5Y-62.0
X110.0Y-40.0
X110.0Y-62.0
X112.5Y-40.0
X112.5Y-62.0
X115.0Y-40.0
X115.0Y-62.0
T3
X63.84Y-50.0
X63.84Y-60.0
X74.0Y-50.0
X74.0Y-60.0
X82.0Y-67.42
X82.0Y-77.58
X86.0Y-67.42
X86.0Y-77.58
X90.0Y-67.42
X90.0Y-77.58
X94.0Y-67.42
X94.0Y-77.58
T4
X85.0Y-79.96
X85.0Y-82.5
X90.0Y-80.0
X90.0Y-82.54
X95.0Y-80.0
X95.0Y-82.54
T5
X50.0Y-62.5
X50.0Y-65.0
X50.0Y-72.5
X50.0Y-75.0
X60.0Y-72.5
X60.0Y-75.0
X100.0Y-81.0
X105.0Y-81.0
X111.0Y-81.0
X116.0Y-81.0
X123.0Y-59.0
X123.0Y-70.0
X128.0Y-59.0
X128.0Y-70.0
T6
X74.0Y-65.0
X76.29Y-65.0
X78.58Y-65.0
T7
X86.0Y-35.0
X86.0Y-42.5
X86.0Y-53.0
X86.0Y-60.5
T9
X106.25Y-33.25
X106.25Y-51.05
X106.25Y-55.25
X106.25Y-73.05
T10
X55.0Y-91.0
X55.0Y-96.0
X60.0Y-42.8
X60.0Y-50.0
X65.0Y-91.0
X65.0Y-96.0
X75.0Y-91.0
X75.0Y-96.0
X85.0Y-91.0
X85.0Y-96.0
X95.0Y-91.0
X95.0Y-96.0
X105.0Y-91.0
X105.0Y-96.0
X115.0Y-91.0
X115.0Y-96.0
T1
G00X53.45Y-39.65
M15
G01X54.55Y-39.65
M16
G05
G00X53.45Y-53.15
M15
G01X54.55Y-53.15
M16
G05
T8
G00X96.9Y-43.85
M15
G01X96.9Y-46.25
M16
G05
G00X96.9Y-65.85
M15
G01X96.9Y-68.25
M16
G05
G00X118.1Y-43.85
M15
G01X118.1Y-46.25
M16
G05
G00X118.1Y-65.85
M15
G01X118.1Y-68.25
M16
G05
M30
