%TF.GenerationSoftware,KiCad,Pcbnew,9.0.9.1*%
%TF.CreationDate,2026-09-09T22:42:29+09:00*%
%TF.ProjectId,TRIA_ControlPowerBoard,54524941-5f43-46f6-9e74-726f6c506f77,rev?*%
%TF.SameCoordinates,Original*%
%TF.FileFunction,Soldermask,Bot*%
%TF.FilePolarity,Negative*%
%FSLAX46Y46*%
G04 Gerber Fmt 4.6, Leading zero omitted, Abs format (unit mm)*
G04 Created by KiCad (PCBNEW 9.0.9.1) date 2026-09-09 22:42:29*
%MOMM*%
%LPD*%
G01*
G04 APERTURE LIST*
G04 Aperture macros list*
%AMRoundRect*
0 Rectangle with rounded corners*
0 $1 Rounding radius*
0 $2 $3 $4 $5 $6 $7 $8 $9 X,Y pos of 4 corners*
0 Add a 4 corners polygon primitive as box body*
4,1,4,$2,$3,$4,$5,$6,$7,$8,$9,$2,$3,0*
0 Add four circle primitives for the rounded corners*
1,1,$1+$1,$2,$3*
1,1,$1+$1,$4,$5*
1,1,$1+$1,$6,$7*
1,1,$1+$1,$8,$9*
0 Add four rect primitives between the rounded corners*
20,1,$1+$1,$2,$3,$4,$5,0*
20,1,$1+$1,$4,$5,$6,$7,0*
20,1,$1+$1,$6,$7,$8,$9,0*
20,1,$1+$1,$8,$9,$2,$3,0*%
G04 Aperture macros list end*
%ADD10RoundRect,0.250000X-0.750000X-0.750000X0.750000X-0.750000X0.750000X0.750000X-0.750000X0.750000X0*%
%ADD11C,2.000000*%
%ADD12R,1.800000X1.800000*%
%ADD13C,1.800000*%
%ADD14C,1.600000*%
%ADD15RoundRect,0.760000X1.140000X-1.140000X1.140000X1.140000X-1.140000X1.140000X-1.140000X-1.140000X0*%
%ADD16C,4.000000*%
%ADD17RoundRect,0.250000X0.750000X-0.600000X0.750000X0.600000X-0.750000X0.600000X-0.750000X-0.600000X0*%
%ADD18O,2.000000X1.700000*%
%ADD19R,2.000000X0.900000*%
%ADD20RoundRect,1.025000X1.025000X-1.025000X1.025000X1.025000X-1.025000X1.025000X-1.025000X-1.025000X0*%
%ADD21C,4.100000*%
%ADD22RoundRect,0.250001X-0.949999X0.949999X-0.949999X-0.949999X0.949999X-0.949999X0.949999X0.949999X0*%
%ADD23C,2.400000*%
%ADD24C,1.524000*%
%ADD25R,2.100000X8.000000*%
%ADD26R,1.524000X1.524000*%
%ADD27R,7.000000X2.100000*%
%ADD28O,1.717500X1.800000*%
%ADD29R,1.717500X1.800000*%
G04 APERTURE END LIST*
D10*
%TO.C,C5*%
X123000000Y-59000000D03*
D11*
X128000000Y-59000000D03*
%TD*%
D12*
%TO.C,5V*%
X95000000Y-82540000D03*
D13*
X95000000Y-80000000D03*
%TD*%
D14*
%TO.C,R6*%
X94000000Y-67420000D03*
X94000000Y-77580000D03*
%TD*%
D10*
%TO.C,C6*%
X123000000Y-70000000D03*
D11*
X128000000Y-70000000D03*
%TD*%
D15*
%TO.C,12V*%
X55000000Y-96000000D03*
D16*
X55000000Y-91000000D03*
%TD*%
D17*
%TO.C,LED*%
X50000000Y-75000000D03*
D18*
X50000000Y-72500000D03*
%TD*%
D19*
%TO.C,J1*%
X54000000Y-53150000D03*
X54000000Y-39650000D03*
D20*
X60000000Y-50000000D03*
D21*
X60000000Y-42800000D03*
%TD*%
D14*
%TO.C,R3*%
X82000000Y-67420000D03*
X82000000Y-77580000D03*
%TD*%
D22*
%TO.C,C1*%
X86000000Y-35000000D03*
D23*
X86000000Y-42500000D03*
%TD*%
D15*
%TO.C,J2*%
X75000000Y-96000000D03*
D16*
X75000000Y-91000000D03*
%TD*%
D17*
%TO.C,Meter*%
X60000000Y-75000000D03*
D18*
X60000000Y-72500000D03*
%TD*%
D15*
%TO.C,J9*%
X95000000Y-96000000D03*
D16*
X95000000Y-91000000D03*
%TD*%
D14*
%TO.C,R1*%
X74000000Y-60000000D03*
X63840000Y-60000000D03*
%TD*%
D24*
%TO.C,U2*%
X100000000Y-40000000D03*
X102500000Y-40000000D03*
D25*
X96900000Y-45050000D03*
D26*
X105000000Y-40000000D03*
D27*
X106250000Y-33250000D03*
X106250000Y-51050000D03*
D25*
X118100000Y-45050000D03*
D26*
X107500000Y-40000000D03*
D24*
X110000000Y-40000000D03*
X112500000Y-40000000D03*
X115000000Y-40000000D03*
%TD*%
D12*
%TO.C,BATT*%
X85000000Y-82500000D03*
D13*
X85000000Y-79960000D03*
%TD*%
D14*
%TO.C,R2*%
X74000000Y-50000000D03*
X63840000Y-50000000D03*
%TD*%
D22*
%TO.C,C4*%
X86000000Y-53000000D03*
D23*
X86000000Y-60500000D03*
%TD*%
D14*
%TO.C,R5*%
X90000000Y-67420000D03*
X90000000Y-77580000D03*
%TD*%
D24*
%TO.C,U1*%
X100000000Y-62000000D03*
X102500000Y-62000000D03*
D25*
X96900000Y-67050000D03*
D26*
X105000000Y-62000000D03*
D27*
X106250000Y-55250000D03*
X106250000Y-73050000D03*
D25*
X118100000Y-67050000D03*
D26*
X107500000Y-62000000D03*
D24*
X110000000Y-62000000D03*
X112500000Y-62000000D03*
X115000000Y-62000000D03*
%TD*%
D28*
%TO.C,Q1*%
X76290000Y-65000000D03*
D29*
X78580000Y-65000000D03*
D28*
X74000000Y-65000000D03*
%TD*%
D15*
%TO.C,J4*%
X115000000Y-96000000D03*
D16*
X115000000Y-91000000D03*
%TD*%
D15*
%TO.C,J10*%
X85000000Y-96000000D03*
D16*
X85000000Y-91000000D03*
%TD*%
D15*
%TO.C,5V*%
X65000000Y-96000000D03*
D16*
X65000000Y-91000000D03*
%TD*%
D10*
%TO.C,C3*%
X100000000Y-81000000D03*
D11*
X105000000Y-81000000D03*
%TD*%
D15*
%TO.C,J8*%
X105000000Y-96000000D03*
D16*
X105000000Y-91000000D03*
%TD*%
D17*
%TO.C,Main*%
X50000000Y-65000000D03*
D18*
X50000000Y-62500000D03*
%TD*%
D10*
%TO.C,C2*%
X111000000Y-81000000D03*
D11*
X116000000Y-81000000D03*
%TD*%
D12*
%TO.C,12V*%
X90000000Y-82540000D03*
D13*
X90000000Y-80000000D03*
%TD*%
D14*
%TO.C,R4*%
X86000000Y-67420000D03*
X86000000Y-77580000D03*
%TD*%
M02*
