%TF.GenerationSoftware,KiCad,Pcbnew,9.0.9.1*%
%TF.CreationDate,2026-09-13T22:43:47+09:00*%
%TF.ProjectId,TRIA_LedControlBoard,54524941-5f4c-4656-9443-6f6e74726f6c,rev?*%
%TF.SameCoordinates,Original*%
%TF.FileFunction,Legend,Top*%
%TF.FilePolarity,Positive*%
%FSLAX46Y46*%
G04 Gerber Fmt 4.6, Leading zero omitted, Abs format (unit mm)*
G04 Created by KiCad (PCBNEW 9.0.9.1) date 2026-09-13 22:43:47*
%MOMM*%
%LPD*%
G01*
G04 APERTURE LIST*
%ADD10C,0.300000*%
%ADD11C,0.150000*%
%ADD12C,0.100000*%
%ADD13C,0.120000*%
%ADD14C,0.127000*%
%ADD15C,0.152400*%
%ADD16C,0.635000*%
G04 APERTURE END LIST*
D10*
X118054510Y-69399568D02*
X119197368Y-69399568D01*
X118625939Y-69970996D02*
X118625939Y-68828139D01*
X120625939Y-68470996D02*
X119911653Y-68470996D01*
X119911653Y-68470996D02*
X119840225Y-69185282D01*
X119840225Y-69185282D02*
X119911653Y-69113853D01*
X119911653Y-69113853D02*
X120054511Y-69042425D01*
X120054511Y-69042425D02*
X120411653Y-69042425D01*
X120411653Y-69042425D02*
X120554511Y-69113853D01*
X120554511Y-69113853D02*
X120625939Y-69185282D01*
X120625939Y-69185282D02*
X120697368Y-69328139D01*
X120697368Y-69328139D02*
X120697368Y-69685282D01*
X120697368Y-69685282D02*
X120625939Y-69828139D01*
X120625939Y-69828139D02*
X120554511Y-69899568D01*
X120554511Y-69899568D02*
X120411653Y-69970996D01*
X120411653Y-69970996D02*
X120054511Y-69970996D01*
X120054511Y-69970996D02*
X119911653Y-69899568D01*
X119911653Y-69899568D02*
X119840225Y-69828139D01*
X121125939Y-68470996D02*
X121625939Y-69970996D01*
X121625939Y-69970996D02*
X122125939Y-68470996D01*
X117983082Y-72314484D02*
X118125939Y-72385912D01*
X118125939Y-72385912D02*
X118411653Y-72385912D01*
X118411653Y-72385912D02*
X118554510Y-72314484D01*
X118554510Y-72314484D02*
X118625939Y-72171626D01*
X118625939Y-72171626D02*
X118625939Y-72100198D01*
X118625939Y-72100198D02*
X118554510Y-71957341D01*
X118554510Y-71957341D02*
X118411653Y-71885912D01*
X118411653Y-71885912D02*
X118197368Y-71885912D01*
X118197368Y-71885912D02*
X118054510Y-71814484D01*
X118054510Y-71814484D02*
X117983082Y-71671626D01*
X117983082Y-71671626D02*
X117983082Y-71600198D01*
X117983082Y-71600198D02*
X118054510Y-71457341D01*
X118054510Y-71457341D02*
X118197368Y-71385912D01*
X118197368Y-71385912D02*
X118411653Y-71385912D01*
X118411653Y-71385912D02*
X118554510Y-71457341D01*
X119268796Y-72385912D02*
X119268796Y-71385912D01*
X119268796Y-70885912D02*
X119197368Y-70957341D01*
X119197368Y-70957341D02*
X119268796Y-71028769D01*
X119268796Y-71028769D02*
X119340225Y-70957341D01*
X119340225Y-70957341D02*
X119268796Y-70885912D01*
X119268796Y-70885912D02*
X119268796Y-71028769D01*
X120625940Y-71385912D02*
X120625940Y-72600198D01*
X120625940Y-72600198D02*
X120554511Y-72743055D01*
X120554511Y-72743055D02*
X120483082Y-72814484D01*
X120483082Y-72814484D02*
X120340225Y-72885912D01*
X120340225Y-72885912D02*
X120125940Y-72885912D01*
X120125940Y-72885912D02*
X119983082Y-72814484D01*
X120625940Y-72314484D02*
X120483082Y-72385912D01*
X120483082Y-72385912D02*
X120197368Y-72385912D01*
X120197368Y-72385912D02*
X120054511Y-72314484D01*
X120054511Y-72314484D02*
X119983082Y-72243055D01*
X119983082Y-72243055D02*
X119911654Y-72100198D01*
X119911654Y-72100198D02*
X119911654Y-71671626D01*
X119911654Y-71671626D02*
X119983082Y-71528769D01*
X119983082Y-71528769D02*
X120054511Y-71457341D01*
X120054511Y-71457341D02*
X120197368Y-71385912D01*
X120197368Y-71385912D02*
X120483082Y-71385912D01*
X120483082Y-71385912D02*
X120625940Y-71457341D01*
X121340225Y-71385912D02*
X121340225Y-72385912D01*
X121340225Y-71528769D02*
X121411654Y-71457341D01*
X121411654Y-71457341D02*
X121554511Y-71385912D01*
X121554511Y-71385912D02*
X121768797Y-71385912D01*
X121768797Y-71385912D02*
X121911654Y-71457341D01*
X121911654Y-71457341D02*
X121983083Y-71600198D01*
X121983083Y-71600198D02*
X121983083Y-72385912D01*
X123340226Y-72385912D02*
X123340226Y-71600198D01*
X123340226Y-71600198D02*
X123268797Y-71457341D01*
X123268797Y-71457341D02*
X123125940Y-71385912D01*
X123125940Y-71385912D02*
X122840226Y-71385912D01*
X122840226Y-71385912D02*
X122697368Y-71457341D01*
X123340226Y-72314484D02*
X123197368Y-72385912D01*
X123197368Y-72385912D02*
X122840226Y-72385912D01*
X122840226Y-72385912D02*
X122697368Y-72314484D01*
X122697368Y-72314484D02*
X122625940Y-72171626D01*
X122625940Y-72171626D02*
X122625940Y-72028769D01*
X122625940Y-72028769D02*
X122697368Y-71885912D01*
X122697368Y-71885912D02*
X122840226Y-71814484D01*
X122840226Y-71814484D02*
X123197368Y-71814484D01*
X123197368Y-71814484D02*
X123340226Y-71743055D01*
X124268797Y-72385912D02*
X124125940Y-72314484D01*
X124125940Y-72314484D02*
X124054511Y-72171626D01*
X124054511Y-72171626D02*
X124054511Y-70885912D01*
X118840225Y-73372257D02*
X118697368Y-73300828D01*
X118697368Y-73300828D02*
X118483082Y-73300828D01*
X118483082Y-73300828D02*
X118268796Y-73372257D01*
X118268796Y-73372257D02*
X118125939Y-73515114D01*
X118125939Y-73515114D02*
X118054510Y-73657971D01*
X118054510Y-73657971D02*
X117983082Y-73943685D01*
X117983082Y-73943685D02*
X117983082Y-74157971D01*
X117983082Y-74157971D02*
X118054510Y-74443685D01*
X118054510Y-74443685D02*
X118125939Y-74586542D01*
X118125939Y-74586542D02*
X118268796Y-74729400D01*
X118268796Y-74729400D02*
X118483082Y-74800828D01*
X118483082Y-74800828D02*
X118625939Y-74800828D01*
X118625939Y-74800828D02*
X118840225Y-74729400D01*
X118840225Y-74729400D02*
X118911653Y-74657971D01*
X118911653Y-74657971D02*
X118911653Y-74157971D01*
X118911653Y-74157971D02*
X118625939Y-74157971D01*
X119554510Y-74800828D02*
X119554510Y-73300828D01*
X119554510Y-73300828D02*
X120411653Y-74800828D01*
X120411653Y-74800828D02*
X120411653Y-73300828D01*
X121125939Y-74800828D02*
X121125939Y-73300828D01*
X121125939Y-73300828D02*
X121483082Y-73300828D01*
X121483082Y-73300828D02*
X121697368Y-73372257D01*
X121697368Y-73372257D02*
X121840225Y-73515114D01*
X121840225Y-73515114D02*
X121911654Y-73657971D01*
X121911654Y-73657971D02*
X121983082Y-73943685D01*
X121983082Y-73943685D02*
X121983082Y-74157971D01*
X121983082Y-74157971D02*
X121911654Y-74443685D01*
X121911654Y-74443685D02*
X121840225Y-74586542D01*
X121840225Y-74586542D02*
X121697368Y-74729400D01*
X121697368Y-74729400D02*
X121483082Y-74800828D01*
X121483082Y-74800828D02*
X121125939Y-74800828D01*
D11*
X103253810Y-114414819D02*
X103872857Y-114414819D01*
X103872857Y-114414819D02*
X103539524Y-114795771D01*
X103539524Y-114795771D02*
X103682381Y-114795771D01*
X103682381Y-114795771D02*
X103777619Y-114843390D01*
X103777619Y-114843390D02*
X103825238Y-114891009D01*
X103825238Y-114891009D02*
X103872857Y-114986247D01*
X103872857Y-114986247D02*
X103872857Y-115224342D01*
X103872857Y-115224342D02*
X103825238Y-115319580D01*
X103825238Y-115319580D02*
X103777619Y-115367200D01*
X103777619Y-115367200D02*
X103682381Y-115414819D01*
X103682381Y-115414819D02*
X103396667Y-115414819D01*
X103396667Y-115414819D02*
X103301429Y-115367200D01*
X103301429Y-115367200D02*
X103253810Y-115319580D01*
X104301429Y-115319580D02*
X104349048Y-115367200D01*
X104349048Y-115367200D02*
X104301429Y-115414819D01*
X104301429Y-115414819D02*
X104253810Y-115367200D01*
X104253810Y-115367200D02*
X104301429Y-115319580D01*
X104301429Y-115319580D02*
X104301429Y-115414819D01*
X104682381Y-114414819D02*
X105301428Y-114414819D01*
X105301428Y-114414819D02*
X104968095Y-114795771D01*
X104968095Y-114795771D02*
X105110952Y-114795771D01*
X105110952Y-114795771D02*
X105206190Y-114843390D01*
X105206190Y-114843390D02*
X105253809Y-114891009D01*
X105253809Y-114891009D02*
X105301428Y-114986247D01*
X105301428Y-114986247D02*
X105301428Y-115224342D01*
X105301428Y-115224342D02*
X105253809Y-115319580D01*
X105253809Y-115319580D02*
X105206190Y-115367200D01*
X105206190Y-115367200D02*
X105110952Y-115414819D01*
X105110952Y-115414819D02*
X104825238Y-115414819D01*
X104825238Y-115414819D02*
X104730000Y-115367200D01*
X104730000Y-115367200D02*
X104682381Y-115319580D01*
X105587143Y-114414819D02*
X105920476Y-115414819D01*
X105920476Y-115414819D02*
X106253809Y-114414819D01*
D12*
X90838095Y-56657419D02*
X90838095Y-57466942D01*
X90838095Y-57466942D02*
X90885714Y-57562180D01*
X90885714Y-57562180D02*
X90933333Y-57609800D01*
X90933333Y-57609800D02*
X91028571Y-57657419D01*
X91028571Y-57657419D02*
X91219047Y-57657419D01*
X91219047Y-57657419D02*
X91314285Y-57609800D01*
X91314285Y-57609800D02*
X91361904Y-57562180D01*
X91361904Y-57562180D02*
X91409523Y-57466942D01*
X91409523Y-57466942D02*
X91409523Y-56657419D01*
X91790476Y-56657419D02*
X92409523Y-56657419D01*
X92409523Y-56657419D02*
X92076190Y-57038371D01*
X92076190Y-57038371D02*
X92219047Y-57038371D01*
X92219047Y-57038371D02*
X92314285Y-57085990D01*
X92314285Y-57085990D02*
X92361904Y-57133609D01*
X92361904Y-57133609D02*
X92409523Y-57228847D01*
X92409523Y-57228847D02*
X92409523Y-57466942D01*
X92409523Y-57466942D02*
X92361904Y-57562180D01*
X92361904Y-57562180D02*
X92314285Y-57609800D01*
X92314285Y-57609800D02*
X92219047Y-57657419D01*
X92219047Y-57657419D02*
X91933333Y-57657419D01*
X91933333Y-57657419D02*
X91838095Y-57609800D01*
X91838095Y-57609800D02*
X91790476Y-57562180D01*
X93379961Y-60727693D02*
X93427580Y-60632455D01*
X93427580Y-60632455D02*
X93427580Y-60489598D01*
X93427580Y-60489598D02*
X93379961Y-60346741D01*
X93379961Y-60346741D02*
X93284723Y-60251503D01*
X93284723Y-60251503D02*
X93189485Y-60203884D01*
X93189485Y-60203884D02*
X92999009Y-60156265D01*
X92999009Y-60156265D02*
X92856152Y-60156265D01*
X92856152Y-60156265D02*
X92665676Y-60203884D01*
X92665676Y-60203884D02*
X92570438Y-60251503D01*
X92570438Y-60251503D02*
X92475200Y-60346741D01*
X92475200Y-60346741D02*
X92427580Y-60489598D01*
X92427580Y-60489598D02*
X92427580Y-60584836D01*
X92427580Y-60584836D02*
X92475200Y-60727693D01*
X92475200Y-60727693D02*
X92522819Y-60775312D01*
X92522819Y-60775312D02*
X92856152Y-60775312D01*
X92856152Y-60775312D02*
X92856152Y-60584836D01*
X92427580Y-61203884D02*
X93427580Y-61203884D01*
X93427580Y-61203884D02*
X92427580Y-61775312D01*
X92427580Y-61775312D02*
X93427580Y-61775312D01*
X92427580Y-62251503D02*
X93427580Y-62251503D01*
X93427580Y-62251503D02*
X93427580Y-62489598D01*
X93427580Y-62489598D02*
X93379961Y-62632455D01*
X93379961Y-62632455D02*
X93284723Y-62727693D01*
X93284723Y-62727693D02*
X93189485Y-62775312D01*
X93189485Y-62775312D02*
X92999009Y-62822931D01*
X92999009Y-62822931D02*
X92856152Y-62822931D01*
X92856152Y-62822931D02*
X92665676Y-62775312D01*
X92665676Y-62775312D02*
X92570438Y-62727693D01*
X92570438Y-62727693D02*
X92475200Y-62632455D01*
X92475200Y-62632455D02*
X92427580Y-62489598D01*
X92427580Y-62489598D02*
X92427580Y-62251503D01*
X88527580Y-60061027D02*
X87527580Y-60394360D01*
X87527580Y-60394360D02*
X88527580Y-60727693D01*
X87527580Y-61061027D02*
X88194247Y-61061027D01*
X88527580Y-61061027D02*
X88479961Y-61013408D01*
X88479961Y-61013408D02*
X88432342Y-61061027D01*
X88432342Y-61061027D02*
X88479961Y-61108646D01*
X88479961Y-61108646D02*
X88527580Y-61061027D01*
X88527580Y-61061027D02*
X88432342Y-61061027D01*
X88194247Y-61537217D02*
X87527580Y-61537217D01*
X88099009Y-61537217D02*
X88146628Y-61584836D01*
X88146628Y-61584836D02*
X88194247Y-61680074D01*
X88194247Y-61680074D02*
X88194247Y-61822931D01*
X88194247Y-61822931D02*
X88146628Y-61918169D01*
X88146628Y-61918169D02*
X88051390Y-61965788D01*
X88051390Y-61965788D02*
X87527580Y-61965788D01*
X98427580Y-60061027D02*
X97427580Y-60394360D01*
X97427580Y-60394360D02*
X98427580Y-60727693D01*
X97427580Y-61203884D02*
X97475200Y-61108646D01*
X97475200Y-61108646D02*
X97522819Y-61061027D01*
X97522819Y-61061027D02*
X97618057Y-61013408D01*
X97618057Y-61013408D02*
X97903771Y-61013408D01*
X97903771Y-61013408D02*
X97999009Y-61061027D01*
X97999009Y-61061027D02*
X98046628Y-61108646D01*
X98046628Y-61108646D02*
X98094247Y-61203884D01*
X98094247Y-61203884D02*
X98094247Y-61346741D01*
X98094247Y-61346741D02*
X98046628Y-61441979D01*
X98046628Y-61441979D02*
X97999009Y-61489598D01*
X97999009Y-61489598D02*
X97903771Y-61537217D01*
X97903771Y-61537217D02*
X97618057Y-61537217D01*
X97618057Y-61537217D02*
X97522819Y-61489598D01*
X97522819Y-61489598D02*
X97475200Y-61441979D01*
X97475200Y-61441979D02*
X97427580Y-61346741D01*
X97427580Y-61346741D02*
X97427580Y-61203884D01*
X98094247Y-62394360D02*
X97427580Y-62394360D01*
X98094247Y-61965789D02*
X97570438Y-61965789D01*
X97570438Y-61965789D02*
X97475200Y-62013408D01*
X97475200Y-62013408D02*
X97427580Y-62108646D01*
X97427580Y-62108646D02*
X97427580Y-62251503D01*
X97427580Y-62251503D02*
X97475200Y-62346741D01*
X97475200Y-62346741D02*
X97522819Y-62394360D01*
X98094247Y-62727694D02*
X98094247Y-63108646D01*
X98427580Y-62870551D02*
X97570438Y-62870551D01*
X97570438Y-62870551D02*
X97475200Y-62918170D01*
X97475200Y-62918170D02*
X97427580Y-63013408D01*
X97427580Y-63013408D02*
X97427580Y-63108646D01*
X100927580Y-60061027D02*
X99927580Y-60394360D01*
X99927580Y-60394360D02*
X100927580Y-60727693D01*
X99927580Y-61203884D02*
X99975200Y-61108646D01*
X99975200Y-61108646D02*
X100022819Y-61061027D01*
X100022819Y-61061027D02*
X100118057Y-61013408D01*
X100118057Y-61013408D02*
X100403771Y-61013408D01*
X100403771Y-61013408D02*
X100499009Y-61061027D01*
X100499009Y-61061027D02*
X100546628Y-61108646D01*
X100546628Y-61108646D02*
X100594247Y-61203884D01*
X100594247Y-61203884D02*
X100594247Y-61346741D01*
X100594247Y-61346741D02*
X100546628Y-61441979D01*
X100546628Y-61441979D02*
X100499009Y-61489598D01*
X100499009Y-61489598D02*
X100403771Y-61537217D01*
X100403771Y-61537217D02*
X100118057Y-61537217D01*
X100118057Y-61537217D02*
X100022819Y-61489598D01*
X100022819Y-61489598D02*
X99975200Y-61441979D01*
X99975200Y-61441979D02*
X99927580Y-61346741D01*
X99927580Y-61346741D02*
X99927580Y-61203884D01*
X100594247Y-62394360D02*
X99927580Y-62394360D01*
X100594247Y-61965789D02*
X100070438Y-61965789D01*
X100070438Y-61965789D02*
X99975200Y-62013408D01*
X99975200Y-62013408D02*
X99927580Y-62108646D01*
X99927580Y-62108646D02*
X99927580Y-62251503D01*
X99927580Y-62251503D02*
X99975200Y-62346741D01*
X99975200Y-62346741D02*
X100022819Y-62394360D01*
X100594247Y-62727694D02*
X100594247Y-63108646D01*
X100927580Y-62870551D02*
X100070438Y-62870551D01*
X100070438Y-62870551D02*
X99975200Y-62918170D01*
X99975200Y-62918170D02*
X99927580Y-63013408D01*
X99927580Y-63013408D02*
X99927580Y-63108646D01*
X90979961Y-60727693D02*
X91027580Y-60632455D01*
X91027580Y-60632455D02*
X91027580Y-60489598D01*
X91027580Y-60489598D02*
X90979961Y-60346741D01*
X90979961Y-60346741D02*
X90884723Y-60251503D01*
X90884723Y-60251503D02*
X90789485Y-60203884D01*
X90789485Y-60203884D02*
X90599009Y-60156265D01*
X90599009Y-60156265D02*
X90456152Y-60156265D01*
X90456152Y-60156265D02*
X90265676Y-60203884D01*
X90265676Y-60203884D02*
X90170438Y-60251503D01*
X90170438Y-60251503D02*
X90075200Y-60346741D01*
X90075200Y-60346741D02*
X90027580Y-60489598D01*
X90027580Y-60489598D02*
X90027580Y-60584836D01*
X90027580Y-60584836D02*
X90075200Y-60727693D01*
X90075200Y-60727693D02*
X90122819Y-60775312D01*
X90122819Y-60775312D02*
X90456152Y-60775312D01*
X90456152Y-60775312D02*
X90456152Y-60584836D01*
X90027580Y-61203884D02*
X91027580Y-61203884D01*
X91027580Y-61203884D02*
X90027580Y-61775312D01*
X90027580Y-61775312D02*
X91027580Y-61775312D01*
X90027580Y-62251503D02*
X91027580Y-62251503D01*
X91027580Y-62251503D02*
X91027580Y-62489598D01*
X91027580Y-62489598D02*
X90979961Y-62632455D01*
X90979961Y-62632455D02*
X90884723Y-62727693D01*
X90884723Y-62727693D02*
X90789485Y-62775312D01*
X90789485Y-62775312D02*
X90599009Y-62822931D01*
X90599009Y-62822931D02*
X90456152Y-62822931D01*
X90456152Y-62822931D02*
X90265676Y-62775312D01*
X90265676Y-62775312D02*
X90170438Y-62727693D01*
X90170438Y-62727693D02*
X90075200Y-62632455D01*
X90075200Y-62632455D02*
X90027580Y-62489598D01*
X90027580Y-62489598D02*
X90027580Y-62251503D01*
X86027580Y-60061027D02*
X85027580Y-60394360D01*
X85027580Y-60394360D02*
X86027580Y-60727693D01*
X85027580Y-61061027D02*
X85694247Y-61061027D01*
X86027580Y-61061027D02*
X85979961Y-61013408D01*
X85979961Y-61013408D02*
X85932342Y-61061027D01*
X85932342Y-61061027D02*
X85979961Y-61108646D01*
X85979961Y-61108646D02*
X86027580Y-61061027D01*
X86027580Y-61061027D02*
X85932342Y-61061027D01*
X85694247Y-61537217D02*
X85027580Y-61537217D01*
X85599009Y-61537217D02*
X85646628Y-61584836D01*
X85646628Y-61584836D02*
X85694247Y-61680074D01*
X85694247Y-61680074D02*
X85694247Y-61822931D01*
X85694247Y-61822931D02*
X85646628Y-61918169D01*
X85646628Y-61918169D02*
X85551390Y-61965788D01*
X85551390Y-61965788D02*
X85027580Y-61965788D01*
X96027580Y-60061027D02*
X95027580Y-60394360D01*
X95027580Y-60394360D02*
X96027580Y-60727693D01*
X95313295Y-61013408D02*
X95313295Y-61489598D01*
X95027580Y-60918170D02*
X96027580Y-61251503D01*
X96027580Y-61251503D02*
X95027580Y-61584836D01*
X95027580Y-62489598D02*
X95503771Y-62156265D01*
X95027580Y-61918170D02*
X96027580Y-61918170D01*
X96027580Y-61918170D02*
X96027580Y-62299122D01*
X96027580Y-62299122D02*
X95979961Y-62394360D01*
X95979961Y-62394360D02*
X95932342Y-62441979D01*
X95932342Y-62441979D02*
X95837104Y-62489598D01*
X95837104Y-62489598D02*
X95694247Y-62489598D01*
X95694247Y-62489598D02*
X95599009Y-62441979D01*
X95599009Y-62441979D02*
X95551390Y-62394360D01*
X95551390Y-62394360D02*
X95503771Y-62299122D01*
X95503771Y-62299122D02*
X95503771Y-61918170D01*
D11*
X56309524Y-60550057D02*
X56357143Y-60502438D01*
X56357143Y-60502438D02*
X56452381Y-60454819D01*
X56452381Y-60454819D02*
X56690476Y-60454819D01*
X56690476Y-60454819D02*
X56785714Y-60502438D01*
X56785714Y-60502438D02*
X56833333Y-60550057D01*
X56833333Y-60550057D02*
X56880952Y-60645295D01*
X56880952Y-60645295D02*
X56880952Y-60740533D01*
X56880952Y-60740533D02*
X56833333Y-60883390D01*
X56833333Y-60883390D02*
X56261905Y-61454819D01*
X56261905Y-61454819D02*
X56880952Y-61454819D01*
X57833333Y-61454819D02*
X57261905Y-61454819D01*
X57547619Y-61454819D02*
X57547619Y-60454819D01*
X57547619Y-60454819D02*
X57452381Y-60597676D01*
X57452381Y-60597676D02*
X57357143Y-60692914D01*
X57357143Y-60692914D02*
X57261905Y-60740533D01*
X58119048Y-60454819D02*
X58452381Y-61454819D01*
X58452381Y-61454819D02*
X58785714Y-60454819D01*
X50428571Y-65114700D02*
X51571429Y-65114700D01*
X63428571Y-65114700D02*
X64571429Y-65114700D01*
X64000000Y-65686128D02*
X64000000Y-64543271D01*
X57309523Y-72454819D02*
X56833333Y-72454819D01*
X56833333Y-72454819D02*
X56785714Y-72931009D01*
X56785714Y-72931009D02*
X56833333Y-72883390D01*
X56833333Y-72883390D02*
X56928571Y-72835771D01*
X56928571Y-72835771D02*
X57166666Y-72835771D01*
X57166666Y-72835771D02*
X57261904Y-72883390D01*
X57261904Y-72883390D02*
X57309523Y-72931009D01*
X57309523Y-72931009D02*
X57357142Y-73026247D01*
X57357142Y-73026247D02*
X57357142Y-73264342D01*
X57357142Y-73264342D02*
X57309523Y-73359580D01*
X57309523Y-73359580D02*
X57261904Y-73407200D01*
X57261904Y-73407200D02*
X57166666Y-73454819D01*
X57166666Y-73454819D02*
X56928571Y-73454819D01*
X56928571Y-73454819D02*
X56833333Y-73407200D01*
X56833333Y-73407200D02*
X56785714Y-73359580D01*
X57642857Y-72454819D02*
X57976190Y-73454819D01*
X57976190Y-73454819D02*
X58309523Y-72454819D01*
X63428571Y-77114700D02*
X64571429Y-77114700D01*
X64000000Y-77686128D02*
X64000000Y-76543271D01*
X50428571Y-77114700D02*
X51571429Y-77114700D01*
X98539523Y-114414819D02*
X98063333Y-114414819D01*
X98063333Y-114414819D02*
X98015714Y-114891009D01*
X98015714Y-114891009D02*
X98063333Y-114843390D01*
X98063333Y-114843390D02*
X98158571Y-114795771D01*
X98158571Y-114795771D02*
X98396666Y-114795771D01*
X98396666Y-114795771D02*
X98491904Y-114843390D01*
X98491904Y-114843390D02*
X98539523Y-114891009D01*
X98539523Y-114891009D02*
X98587142Y-114986247D01*
X98587142Y-114986247D02*
X98587142Y-115224342D01*
X98587142Y-115224342D02*
X98539523Y-115319580D01*
X98539523Y-115319580D02*
X98491904Y-115367200D01*
X98491904Y-115367200D02*
X98396666Y-115414819D01*
X98396666Y-115414819D02*
X98158571Y-115414819D01*
X98158571Y-115414819D02*
X98063333Y-115367200D01*
X98063333Y-115367200D02*
X98015714Y-115319580D01*
X98872857Y-114414819D02*
X99206190Y-115414819D01*
X99206190Y-115414819D02*
X99539523Y-114414819D01*
D13*
%TO.C,R4*%
X79600000Y-112300000D02*
X80370000Y-112300000D01*
X87680000Y-112300000D02*
X86910000Y-112300000D01*
X80370000Y-110930000D02*
X86910000Y-110930000D01*
X86910000Y-113670000D01*
X80370000Y-113670000D01*
X80370000Y-110930000D01*
%TO.C,C7*%
X92080000Y-80955000D02*
X92080000Y-79425000D01*
X93920000Y-79425000D02*
X93920000Y-80955000D01*
%TO.C,C8*%
X99405000Y-73340000D02*
X100935000Y-73340000D01*
X100935000Y-75180000D02*
X99405000Y-75180000D01*
%TO.C,U5*%
X97550000Y-77630000D02*
X97550000Y-79280000D01*
X97550000Y-81280000D02*
X97550000Y-82930000D01*
X97550000Y-82930000D02*
X115450000Y-82930000D01*
X115450000Y-77630000D02*
X97550000Y-77630000D01*
X115450000Y-82930000D02*
X115450000Y-77630000D01*
X97550000Y-79280000D02*
G75*
G02*
X97550000Y-81280000I0J-1000000D01*
G01*
%TO.C,C6*%
X109760000Y-67780000D02*
X106083000Y-67780000D01*
X109760000Y-67820000D02*
X106093000Y-67820000D01*
X109760000Y-67860000D02*
X106104000Y-67860000D01*
X109760000Y-67900000D02*
X106115000Y-67900000D01*
X109760000Y-67940000D02*
X106127000Y-67940000D01*
X109760000Y-67980000D02*
X106139000Y-67980000D01*
X109760000Y-68020000D02*
X106151000Y-68020000D01*
X109760000Y-68060000D02*
X106163000Y-68060000D01*
X109760000Y-68100000D02*
X106176000Y-68100000D01*
X109760000Y-68140000D02*
X106190000Y-68140000D01*
X109760000Y-68180000D02*
X106203000Y-68180000D01*
X109760000Y-68220000D02*
X106218000Y-68220000D01*
X109760000Y-68260000D02*
X106232000Y-68260000D01*
X109760000Y-68300000D02*
X106247000Y-68300000D01*
X109760000Y-68340000D02*
X106262000Y-68340000D01*
X109760000Y-68380000D02*
X106278000Y-68380000D01*
X109760000Y-68420000D02*
X106294000Y-68420000D01*
X109760000Y-68460000D02*
X106310000Y-68460000D01*
X109760000Y-68500000D02*
X106327000Y-68500000D01*
X109760000Y-68540000D02*
X106344000Y-68540000D01*
X109760000Y-68580000D02*
X106362000Y-68580000D01*
X109760000Y-68620000D02*
X106380000Y-68620000D01*
X109760000Y-68660000D02*
X106398000Y-68660000D01*
X109760000Y-68700000D02*
X106417000Y-68700000D01*
X109760000Y-68740000D02*
X106436000Y-68740000D01*
X109760000Y-68780000D02*
X106456000Y-68780000D01*
X109760000Y-68820000D02*
X106476000Y-68820000D01*
X109760000Y-68860000D02*
X106496000Y-68860000D01*
X109760000Y-68900000D02*
X106517000Y-68900000D01*
X109760000Y-68940000D02*
X106539000Y-68940000D01*
X109760000Y-68980000D02*
X106561000Y-68980000D01*
X109760000Y-69020000D02*
X106583000Y-69020000D01*
X109760000Y-69060000D02*
X106606000Y-69060000D01*
X109760000Y-69100000D02*
X106629000Y-69100000D01*
X109760000Y-69140000D02*
X106653000Y-69140000D01*
X109760000Y-69180000D02*
X106677000Y-69180000D01*
X109760000Y-69220000D02*
X106702000Y-69220000D01*
X109760000Y-69260000D02*
X106728000Y-69260000D01*
X109760000Y-69300000D02*
X106753000Y-69300000D01*
X109760000Y-69340000D02*
X106780000Y-69340000D01*
X109760000Y-69380000D02*
X106807000Y-69380000D01*
X109760000Y-69420000D02*
X106834000Y-69420000D01*
X109760000Y-69460000D02*
X106862000Y-69460000D01*
X109760000Y-69500000D02*
X106891000Y-69500000D01*
X109760000Y-69540000D02*
X106920000Y-69540000D01*
X109760000Y-69580000D02*
X106950000Y-69580000D01*
X109760000Y-69620000D02*
X106980000Y-69620000D01*
X109760000Y-69660000D02*
X107012000Y-69660000D01*
X109760000Y-69700000D02*
X107043000Y-69700000D01*
X109760000Y-69740000D02*
X107076000Y-69740000D01*
X109760000Y-69780000D02*
X107109000Y-69780000D01*
X109760000Y-69820000D02*
X107142000Y-69820000D01*
X109760000Y-69860000D02*
X107177000Y-69860000D01*
X109760000Y-69900000D02*
X107212000Y-69900000D01*
X109760000Y-69940000D02*
X107248000Y-69940000D01*
X109760000Y-69980000D02*
X107284000Y-69980000D01*
X109760000Y-70020000D02*
X107322000Y-70020000D01*
X109760000Y-70060000D02*
X107360000Y-70060000D01*
X109760000Y-70100000D02*
X107399000Y-70100000D01*
X109760000Y-70140000D02*
X107439000Y-70140000D01*
X109760000Y-70180000D02*
X107480000Y-70180000D01*
X109760000Y-70220000D02*
X107522000Y-70220000D01*
X111599000Y-71580000D02*
X110401000Y-71580000D01*
X111862000Y-71540000D02*
X110138000Y-71540000D01*
X112062000Y-71500000D02*
X109938000Y-71500000D01*
X112230000Y-71460000D02*
X109770000Y-71460000D01*
X112377000Y-71420000D02*
X109623000Y-71420000D01*
X112509000Y-71380000D02*
X109491000Y-71380000D01*
X112630000Y-71340000D02*
X109370000Y-71340000D01*
X112742000Y-71300000D02*
X109258000Y-71300000D01*
X112846000Y-71260000D02*
X109154000Y-71260000D01*
X112944000Y-71220000D02*
X109056000Y-71220000D01*
X113037000Y-71180000D02*
X108963000Y-71180000D01*
X113124000Y-71140000D02*
X108876000Y-71140000D01*
X113208000Y-71100000D02*
X108792000Y-71100000D01*
X113288000Y-71060000D02*
X108712000Y-71060000D01*
X113365000Y-71020000D02*
X108635000Y-71020000D01*
X113439000Y-70980000D02*
X108561000Y-70980000D01*
X113510000Y-70940000D02*
X108490000Y-70940000D01*
X113578000Y-70900000D02*
X108422000Y-70900000D01*
X113644000Y-70860000D02*
X108356000Y-70860000D01*
X113708000Y-70820000D02*
X108292000Y-70820000D01*
X113770000Y-70780000D02*
X108230000Y-70780000D01*
X113830000Y-70740000D02*
X108170000Y-70740000D01*
X113875000Y-61020354D02*
X113875000Y-62020354D01*
X113888000Y-70700000D02*
X108112000Y-70700000D01*
X113945000Y-70660000D02*
X108055000Y-70660000D01*
X114000000Y-70620000D02*
X108000000Y-70620000D01*
X114053000Y-70580000D02*
X107947000Y-70580000D01*
X114105000Y-70540000D02*
X107895000Y-70540000D01*
X114156000Y-70500000D02*
X107844000Y-70500000D01*
X114205000Y-70460000D02*
X107795000Y-70460000D01*
X114254000Y-70420000D02*
X107746000Y-70420000D01*
X114301000Y-70380000D02*
X107699000Y-70380000D01*
X114347000Y-70340000D02*
X107653000Y-70340000D01*
X114375000Y-61520354D02*
X113375000Y-61520354D01*
X114391000Y-70300000D02*
X107609000Y-70300000D01*
X114435000Y-70260000D02*
X107565000Y-70260000D01*
X114478000Y-70220000D02*
X112240000Y-70220000D01*
X114520000Y-70180000D02*
X112240000Y-70180000D01*
X114561000Y-70140000D02*
X112240000Y-70140000D01*
X114601000Y-70100000D02*
X112240000Y-70100000D01*
X114640000Y-70060000D02*
X112240000Y-70060000D01*
X114678000Y-70020000D02*
X112240000Y-70020000D01*
X114716000Y-69980000D02*
X112240000Y-69980000D01*
X114752000Y-69940000D02*
X112240000Y-69940000D01*
X114788000Y-69900000D02*
X112240000Y-69900000D01*
X114823000Y-69860000D02*
X112240000Y-69860000D01*
X114858000Y-69820000D02*
X112240000Y-69820000D01*
X114891000Y-69780000D02*
X112240000Y-69780000D01*
X114924000Y-69740000D02*
X112240000Y-69740000D01*
X114957000Y-69700000D02*
X112240000Y-69700000D01*
X114988000Y-69660000D02*
X112240000Y-69660000D01*
X115020000Y-69620000D02*
X112240000Y-69620000D01*
X115050000Y-69580000D02*
X112240000Y-69580000D01*
X115080000Y-69540000D02*
X112240000Y-69540000D01*
X115109000Y-69500000D02*
X112240000Y-69500000D01*
X115138000Y-69460000D02*
X112240000Y-69460000D01*
X115166000Y-69420000D02*
X112240000Y-69420000D01*
X115193000Y-69380000D02*
X112240000Y-69380000D01*
X115220000Y-69340000D02*
X112240000Y-69340000D01*
X115247000Y-69300000D02*
X112240000Y-69300000D01*
X115272000Y-69260000D02*
X112240000Y-69260000D01*
X115298000Y-69220000D02*
X112240000Y-69220000D01*
X115323000Y-69180000D02*
X112240000Y-69180000D01*
X115347000Y-69140000D02*
X112240000Y-69140000D01*
X115371000Y-69100000D02*
X112240000Y-69100000D01*
X115394000Y-69060000D02*
X112240000Y-69060000D01*
X115417000Y-69020000D02*
X112240000Y-69020000D01*
X115439000Y-68980000D02*
X112240000Y-68980000D01*
X115461000Y-68940000D02*
X112240000Y-68940000D01*
X115483000Y-68900000D02*
X112240000Y-68900000D01*
X115504000Y-68860000D02*
X112240000Y-68860000D01*
X115524000Y-68820000D02*
X112240000Y-68820000D01*
X115544000Y-68780000D02*
X112240000Y-68780000D01*
X115564000Y-68740000D02*
X112240000Y-68740000D01*
X115583000Y-68700000D02*
X112240000Y-68700000D01*
X115602000Y-68660000D02*
X112240000Y-68660000D01*
X115620000Y-68620000D02*
X112240000Y-68620000D01*
X115638000Y-68580000D02*
X112240000Y-68580000D01*
X115656000Y-68540000D02*
X112240000Y-68540000D01*
X115673000Y-68500000D02*
X112240000Y-68500000D01*
X115690000Y-68460000D02*
X112240000Y-68460000D01*
X115706000Y-68420000D02*
X112240000Y-68420000D01*
X115722000Y-68380000D02*
X112240000Y-68380000D01*
X115738000Y-68340000D02*
X112240000Y-68340000D01*
X115753000Y-68300000D02*
X112240000Y-68300000D01*
X115768000Y-68260000D02*
X112240000Y-68260000D01*
X115782000Y-68220000D02*
X112240000Y-68220000D01*
X115797000Y-68180000D02*
X112240000Y-68180000D01*
X115810000Y-68140000D02*
X112240000Y-68140000D01*
X115824000Y-68100000D02*
X112240000Y-68100000D01*
X115837000Y-68060000D02*
X112240000Y-68060000D01*
X115849000Y-68020000D02*
X112240000Y-68020000D01*
X115861000Y-67980000D02*
X112240000Y-67980000D01*
X115873000Y-67940000D02*
X112240000Y-67940000D01*
X115885000Y-67900000D02*
X112240000Y-67900000D01*
X115896000Y-67860000D02*
X112240000Y-67860000D01*
X115907000Y-67820000D02*
X112240000Y-67820000D01*
X115917000Y-67780000D02*
X112240000Y-67780000D01*
X115928000Y-67740000D02*
X106072000Y-67740000D01*
X115937000Y-67700000D02*
X106063000Y-67700000D01*
X115947000Y-67660000D02*
X106053000Y-67660000D01*
X115956000Y-67620000D02*
X106044000Y-67620000D01*
X115965000Y-67580000D02*
X106035000Y-67580000D01*
X115973000Y-67540000D02*
X106027000Y-67540000D01*
X115981000Y-67500000D02*
X106019000Y-67500000D01*
X115989000Y-67460000D02*
X106011000Y-67460000D01*
X115997000Y-67420000D02*
X106003000Y-67420000D01*
X116004000Y-67380000D02*
X105996000Y-67380000D01*
X116011000Y-67340000D02*
X105989000Y-67340000D01*
X116017000Y-67300000D02*
X105983000Y-67300000D01*
X116023000Y-67260000D02*
X105977000Y-67260000D01*
X116029000Y-67220000D02*
X105971000Y-67220000D01*
X116035000Y-67180000D02*
X105965000Y-67180000D01*
X116040000Y-67140000D02*
X105960000Y-67140000D01*
X116045000Y-67100000D02*
X105955000Y-67100000D01*
X116049000Y-67060000D02*
X105951000Y-67060000D01*
X116054000Y-67020000D02*
X105946000Y-67020000D01*
X116057000Y-66980000D02*
X105943000Y-66980000D01*
X116061000Y-66940000D02*
X105939000Y-66940000D01*
X116064000Y-66900000D02*
X105936000Y-66900000D01*
X116067000Y-66860000D02*
X105933000Y-66860000D01*
X116070000Y-66820000D02*
X105930000Y-66820000D01*
X116072000Y-66780000D02*
X105928000Y-66780000D01*
X116074000Y-66740000D02*
X105926000Y-66740000D01*
X116076000Y-66700000D02*
X105924000Y-66700000D01*
X116077000Y-66660000D02*
X105923000Y-66660000D01*
X116079000Y-66580000D02*
X105921000Y-66580000D01*
X116079000Y-66620000D02*
X105921000Y-66620000D01*
X116080000Y-66500000D02*
X105920000Y-66500000D01*
X116080000Y-66540000D02*
X105920000Y-66540000D01*
X116120000Y-66500000D02*
G75*
G02*
X105880000Y-66500000I-5120000J0D01*
G01*
X105880000Y-66500000D02*
G75*
G02*
X116120000Y-66500000I5120000J0D01*
G01*
%TO.C,R2*%
X65970000Y-112300000D02*
X66740000Y-112300000D01*
X74050000Y-112300000D02*
X73280000Y-112300000D01*
X66740000Y-110930000D02*
X73280000Y-110930000D01*
X73280000Y-113670000D01*
X66740000Y-113670000D01*
X66740000Y-110930000D01*
%TO.C,3.3V*%
X106290000Y-110920000D02*
X106290000Y-110764000D01*
X106290000Y-113236000D02*
X106290000Y-113080000D01*
X103058563Y-110920000D02*
G75*
G02*
X106290000Y-110764484I1671437J-1080000D01*
G01*
X103689039Y-110920000D02*
G75*
G02*
X105770961Y-110920000I1040961J-1080000D01*
G01*
X105770961Y-113080000D02*
G75*
G02*
X103689039Y-113080000I-1040961J1080000D01*
G01*
X106290000Y-113235516D02*
G75*
G02*
X103058563Y-113080000I-1560000J1235516D01*
G01*
%TO.C,U3*%
D12*
X81000000Y-50700000D02*
X105000000Y-50700000D01*
X105000000Y-71700000D01*
X81000000Y-71700000D01*
X81000000Y-50700000D01*
D13*
%TO.C,R1*%
X65970000Y-109220000D02*
X66740000Y-109220000D01*
X74050000Y-109220000D02*
X73280000Y-109220000D01*
X66740000Y-107850000D02*
X73280000Y-107850000D01*
X73280000Y-110590000D01*
X66740000Y-110590000D01*
X66740000Y-107850000D01*
%TO.C,R3*%
X79600000Y-109220000D02*
X80370000Y-109220000D01*
X87680000Y-109220000D02*
X86910000Y-109220000D01*
X80370000Y-107850000D02*
X86910000Y-107850000D01*
X86910000Y-110590000D01*
X80370000Y-110590000D01*
X80370000Y-107850000D01*
%TO.C,C2*%
X75920000Y-78210000D02*
X77160000Y-78210000D01*
X75920000Y-78250000D02*
X77160000Y-78250000D01*
X75922000Y-78170000D02*
X77160000Y-78170000D01*
X75923000Y-78130000D02*
X77160000Y-78130000D01*
X75926000Y-78090000D02*
X77160000Y-78090000D01*
X75929000Y-78050000D02*
X77160000Y-78050000D01*
X75934000Y-78010000D02*
X77160000Y-78010000D01*
X75939000Y-77970000D02*
X77160000Y-77970000D01*
X75944000Y-77930000D02*
X77160000Y-77930000D01*
X75951000Y-77890000D02*
X77160000Y-77890000D01*
X75958000Y-77850000D02*
X77160000Y-77850000D01*
X75966000Y-77810000D02*
X77160000Y-77810000D01*
X75975000Y-77770000D02*
X77160000Y-77770000D01*
X75985000Y-77730000D02*
X77160000Y-77730000D01*
X75995000Y-77690000D02*
X77160000Y-77690000D01*
X76007000Y-77650000D02*
X77160000Y-77650000D01*
X76019000Y-77610000D02*
X77160000Y-77610000D01*
X76032000Y-77570000D02*
X77160000Y-77570000D01*
X76046000Y-77530000D02*
X77160000Y-77530000D01*
X76061000Y-77490000D02*
X77160000Y-77490000D01*
X76077000Y-77450000D02*
X77160000Y-77450000D01*
X76094000Y-77410000D02*
X77160000Y-77410000D01*
X76111000Y-77370000D02*
X77160000Y-77370000D01*
X76130000Y-77330000D02*
X77160000Y-77330000D01*
X76150000Y-77290000D02*
X77160000Y-77290000D01*
X76171000Y-77250000D02*
X77160000Y-77250000D01*
X76193000Y-77210000D02*
X77160000Y-77210000D01*
X76216000Y-77170000D02*
X77160000Y-77170000D01*
X76240000Y-77130000D02*
X77160000Y-77130000D01*
X76266000Y-77090000D02*
X77160000Y-77090000D01*
X76292000Y-77050000D02*
X77160000Y-77050000D01*
X76320000Y-77010000D02*
X77160000Y-77010000D01*
X76350000Y-76970000D02*
X77160000Y-76970000D01*
X76381000Y-76930000D02*
X77160000Y-76930000D01*
X76414000Y-76890000D02*
X77160000Y-76890000D01*
X76448000Y-76850000D02*
X77160000Y-76850000D01*
X76484000Y-76810000D02*
X77160000Y-76810000D01*
X76522000Y-76770000D02*
X77160000Y-76770000D01*
X76562000Y-76730000D02*
X77160000Y-76730000D01*
X76604000Y-76690000D02*
X77160000Y-76690000D01*
X76605000Y-80319801D02*
X77005000Y-80319801D01*
X76649000Y-76650000D02*
X79351000Y-76650000D01*
X76697000Y-76610000D02*
X79303000Y-76610000D01*
X76747000Y-76570000D02*
X79253000Y-76570000D01*
X76801000Y-76530000D02*
X79199000Y-76530000D01*
X76805000Y-80519801D02*
X76805000Y-80119801D01*
X76858000Y-76490000D02*
X79142000Y-76490000D01*
X76920000Y-76450000D02*
X79080000Y-76450000D01*
X76987000Y-76410000D02*
X79013000Y-76410000D01*
X77060000Y-76370000D02*
X78940000Y-76370000D01*
X77141000Y-76330000D02*
X78859000Y-76330000D01*
X77232000Y-76290000D02*
X78768000Y-76290000D01*
X77337000Y-76250000D02*
X78663000Y-76250000D01*
X77463000Y-76210000D02*
X78537000Y-76210000D01*
X77630000Y-76170000D02*
X78370000Y-76170000D01*
X78840000Y-76690000D02*
X79396000Y-76690000D01*
X78840000Y-76730000D02*
X79438000Y-76730000D01*
X78840000Y-76770000D02*
X79478000Y-76770000D01*
X78840000Y-76810000D02*
X79516000Y-76810000D01*
X78840000Y-76850000D02*
X79552000Y-76850000D01*
X78840000Y-76890000D02*
X79586000Y-76890000D01*
X78840000Y-76930000D02*
X79619000Y-76930000D01*
X78840000Y-76970000D02*
X79650000Y-76970000D01*
X78840000Y-77010000D02*
X79680000Y-77010000D01*
X78840000Y-77050000D02*
X79708000Y-77050000D01*
X78840000Y-77090000D02*
X79734000Y-77090000D01*
X78840000Y-77130000D02*
X79760000Y-77130000D01*
X78840000Y-77170000D02*
X79784000Y-77170000D01*
X78840000Y-77210000D02*
X79807000Y-77210000D01*
X78840000Y-77250000D02*
X79829000Y-77250000D01*
X78840000Y-77290000D02*
X79850000Y-77290000D01*
X78840000Y-77330000D02*
X79870000Y-77330000D01*
X78840000Y-77370000D02*
X79889000Y-77370000D01*
X78840000Y-77410000D02*
X79906000Y-77410000D01*
X78840000Y-77450000D02*
X79923000Y-77450000D01*
X78840000Y-77490000D02*
X79939000Y-77490000D01*
X78840000Y-77530000D02*
X79954000Y-77530000D01*
X78840000Y-77570000D02*
X79968000Y-77570000D01*
X78840000Y-77610000D02*
X79981000Y-77610000D01*
X78840000Y-77650000D02*
X79993000Y-77650000D01*
X78840000Y-77690000D02*
X80005000Y-77690000D01*
X78840000Y-77730000D02*
X80015000Y-77730000D01*
X78840000Y-77770000D02*
X80025000Y-77770000D01*
X78840000Y-77810000D02*
X80034000Y-77810000D01*
X78840000Y-77850000D02*
X80042000Y-77850000D01*
X78840000Y-77890000D02*
X80049000Y-77890000D01*
X78840000Y-77930000D02*
X80056000Y-77930000D01*
X78840000Y-77970000D02*
X80061000Y-77970000D01*
X78840000Y-78010000D02*
X80066000Y-78010000D01*
X78840000Y-78050000D02*
X80071000Y-78050000D01*
X78840000Y-78090000D02*
X80074000Y-78090000D01*
X78840000Y-78130000D02*
X80077000Y-78130000D01*
X78840000Y-78170000D02*
X80078000Y-78170000D01*
X78840000Y-78210000D02*
X80080000Y-78210000D01*
X78840000Y-78250000D02*
X80080000Y-78250000D01*
X80120000Y-78250000D02*
G75*
G02*
X75880000Y-78250000I-2120000J0D01*
G01*
X75880000Y-78250000D02*
G75*
G02*
X80120000Y-78250000I2120000J0D01*
G01*
%TO.C,21V*%
X52290000Y-63590000D02*
X52290000Y-66410000D01*
X52290000Y-63590000D02*
X53990000Y-62290000D01*
X52290000Y-66410000D02*
X53990000Y-67710000D01*
X53990000Y-62290000D02*
X62710000Y-62290000D01*
X53990000Y-67710000D02*
X62710000Y-67710000D01*
X62710000Y-62290000D02*
X62710000Y-67710000D01*
%TO.C,5V*%
X52290000Y-75590000D02*
X52290000Y-78410000D01*
X52290000Y-75590000D02*
X53990000Y-74290000D01*
X52290000Y-78410000D02*
X53990000Y-79710000D01*
X53990000Y-74290000D02*
X62710000Y-74290000D01*
X53990000Y-79710000D02*
X62710000Y-79710000D01*
X62710000Y-74290000D02*
X62710000Y-79710000D01*
D14*
%TO.C,U2*%
X54630000Y-92890000D02*
X61430000Y-92890000D01*
X54630000Y-100890000D02*
X54630000Y-92890000D01*
D15*
X55930000Y-107390000D02*
X55930000Y-86390000D01*
X55930000Y-107390000D02*
X56800000Y-107390000D01*
X56800000Y-86390000D02*
X55930000Y-86390000D01*
X57800000Y-107390000D02*
X59340000Y-107390000D01*
X59340000Y-86390000D02*
X57800000Y-86390000D01*
X60340000Y-107390000D02*
X61880000Y-107390000D01*
D14*
X61430000Y-92890000D02*
X61430000Y-100890000D01*
X61430000Y-100890000D02*
X54630000Y-100890000D01*
D15*
X61880000Y-86390000D02*
X60340000Y-86390000D01*
X62880000Y-107390000D02*
X64420000Y-107390000D01*
X64420000Y-86390000D02*
X62880000Y-86390000D01*
X65420000Y-107390000D02*
X66960000Y-107390000D01*
X66960000Y-86390000D02*
X65420000Y-86390000D01*
X67960000Y-107390000D02*
X69500000Y-107390000D01*
X69500000Y-86390000D02*
X67960000Y-86390000D01*
X70500000Y-107390000D02*
X72040000Y-107390000D01*
X72040000Y-86390000D02*
X70500000Y-86390000D01*
X73040000Y-107390000D02*
X74580000Y-107390000D01*
X74580000Y-86390000D02*
X73040000Y-86390000D01*
X75580000Y-107390000D02*
X77120000Y-107390000D01*
X77120000Y-86390000D02*
X75580000Y-86390000D01*
X78120000Y-107390000D02*
X79660000Y-107390000D01*
X79660000Y-86390000D02*
X78120000Y-86390000D01*
X80660000Y-107390000D02*
X82200000Y-107390000D01*
X82200000Y-86390000D02*
X80660000Y-86390000D01*
X83200000Y-107390000D02*
X84740000Y-107390000D01*
X84740000Y-86390000D02*
X83200000Y-86390000D01*
X85740000Y-107390000D02*
X87280000Y-107390000D01*
X87280000Y-86390000D02*
X85740000Y-86390000D01*
X88280000Y-107390000D02*
X89820000Y-107390000D01*
X89820000Y-86390000D02*
X88280000Y-86390000D01*
X90820000Y-107390000D02*
X92360000Y-107390000D01*
X92360000Y-86390000D02*
X90820000Y-86390000D01*
X93360000Y-107390000D02*
X94900000Y-107390000D01*
X94900000Y-86390000D02*
X93360000Y-86390000D01*
X95900000Y-107390000D02*
X97440000Y-107390000D01*
X97440000Y-86390000D02*
X95900000Y-86390000D01*
X98440000Y-107390000D02*
X99980000Y-107390000D01*
X99980000Y-86390000D02*
X98440000Y-86390000D01*
X100980000Y-107390000D02*
X102520000Y-107390000D01*
X102520000Y-86390000D02*
X100980000Y-86390000D01*
X103520000Y-107390000D02*
X105060000Y-107390000D01*
X105060000Y-86390000D02*
X103520000Y-86390000D01*
X106060000Y-107390000D02*
X106830000Y-107390000D01*
X106830000Y-86390000D02*
X106060000Y-86390000D01*
D14*
X106830000Y-86390000D02*
X130960000Y-86390000D01*
D15*
X106830000Y-107390000D02*
X106930000Y-107390000D01*
D14*
X106830000Y-107390000D02*
X130960000Y-107390000D01*
D15*
X106930000Y-86390000D02*
X106830000Y-86390000D01*
D14*
X114830000Y-88890000D02*
X114830000Y-104890000D01*
X114830000Y-104890000D02*
X135560000Y-104890000D01*
X130960000Y-107390000D02*
X130960000Y-86390000D01*
X135560000Y-88890000D02*
X114830000Y-88890000D01*
X135560000Y-104890000D02*
X135560000Y-88890000D01*
X56800000Y-107390000D02*
G75*
G02*
X57800000Y-107390000I500000J0D01*
G01*
X57800000Y-86390000D02*
G75*
G02*
X56800000Y-86390000I-500000J0D01*
G01*
X59340000Y-107390000D02*
G75*
G02*
X60340000Y-107390000I500000J0D01*
G01*
X60340000Y-86390000D02*
G75*
G02*
X59340000Y-86390000I-500000J0D01*
G01*
X61880000Y-107390000D02*
G75*
G02*
X62880000Y-107390000I500000J0D01*
G01*
X62880000Y-86390000D02*
G75*
G02*
X61880000Y-86390000I-500000J0D01*
G01*
X64420000Y-107390000D02*
G75*
G02*
X65420000Y-107390000I500000J0D01*
G01*
X65420000Y-86390000D02*
G75*
G02*
X64420000Y-86390000I-500000J0D01*
G01*
X66960000Y-107390000D02*
G75*
G02*
X67960000Y-107390000I500000J0D01*
G01*
X67960000Y-86390000D02*
G75*
G02*
X66960000Y-86390000I-500000J0D01*
G01*
X69500000Y-107390000D02*
G75*
G02*
X70500000Y-107390000I500000J0D01*
G01*
X70500000Y-86390000D02*
G75*
G02*
X69500000Y-86390000I-500000J0D01*
G01*
X72040000Y-107390000D02*
G75*
G02*
X73040000Y-107390000I500000J0D01*
G01*
X73040000Y-86390000D02*
G75*
G02*
X72040000Y-86390000I-500000J0D01*
G01*
X74580000Y-107390000D02*
G75*
G02*
X75580000Y-107390000I500000J0D01*
G01*
X75580000Y-86390000D02*
G75*
G02*
X74580000Y-86390000I-500000J0D01*
G01*
X77120000Y-107390000D02*
G75*
G02*
X78120000Y-107390000I500000J0D01*
G01*
X78120000Y-86390000D02*
G75*
G02*
X77120000Y-86390000I-500000J0D01*
G01*
X79660000Y-107390000D02*
G75*
G02*
X80660000Y-107390000I500000J0D01*
G01*
X80660000Y-86390000D02*
G75*
G02*
X79660000Y-86390000I-500000J0D01*
G01*
X82200000Y-107390000D02*
G75*
G02*
X83200000Y-107390000I500000J0D01*
G01*
X83200000Y-86390000D02*
G75*
G02*
X82200000Y-86390000I-500000J0D01*
G01*
X84740000Y-107390000D02*
G75*
G02*
X85740000Y-107390000I500000J0D01*
G01*
X85740000Y-86390000D02*
G75*
G02*
X84740000Y-86390000I-500000J0D01*
G01*
X87280000Y-107390000D02*
G75*
G02*
X88280000Y-107390000I500000J0D01*
G01*
X88280000Y-86390000D02*
G75*
G02*
X87280000Y-86390000I-500000J0D01*
G01*
X89820000Y-107390000D02*
G75*
G02*
X90820000Y-107390000I500000J0D01*
G01*
X90820000Y-86390000D02*
G75*
G02*
X89820000Y-86390000I-500000J0D01*
G01*
X92360000Y-107390000D02*
G75*
G02*
X93360000Y-107390000I500000J0D01*
G01*
X93360000Y-86390000D02*
G75*
G02*
X92360000Y-86390000I-500000J0D01*
G01*
X94900000Y-107390000D02*
G75*
G02*
X95900000Y-107390000I500000J0D01*
G01*
X95900000Y-86390000D02*
G75*
G02*
X94900000Y-86390000I-500000J0D01*
G01*
X97440000Y-107390000D02*
G75*
G02*
X98440000Y-107390000I500000J0D01*
G01*
X98440000Y-86390000D02*
G75*
G02*
X97440000Y-86390000I-500000J0D01*
G01*
X99980000Y-107390000D02*
G75*
G02*
X100980000Y-107390000I500000J0D01*
G01*
X100980000Y-86390000D02*
G75*
G02*
X99980000Y-86390000I-500000J0D01*
G01*
X102520000Y-107390000D02*
G75*
G02*
X103520000Y-107390000I500000J0D01*
G01*
X103520000Y-86390000D02*
G75*
G02*
X102520000Y-86390000I-500000J0D01*
G01*
X105060000Y-107390000D02*
G75*
G02*
X106060000Y-107390000I500000J0D01*
G01*
X106060000Y-86390000D02*
G75*
G02*
X105060000Y-86390000I-500000J0D01*
G01*
D16*
X56347500Y-108320000D02*
G75*
G02*
X55712500Y-108320000I-317500J0D01*
G01*
X55712500Y-108320000D02*
G75*
G02*
X56347500Y-108320000I317500J0D01*
G01*
D13*
%TO.C,C3*%
X67945000Y-84240000D02*
X69475000Y-84240000D01*
X69475000Y-86080000D02*
X67945000Y-86080000D01*
%TO.C,C5*%
X109760000Y-56780000D02*
X106083000Y-56780000D01*
X109760000Y-56820000D02*
X106093000Y-56820000D01*
X109760000Y-56860000D02*
X106104000Y-56860000D01*
X109760000Y-56900000D02*
X106115000Y-56900000D01*
X109760000Y-56940000D02*
X106127000Y-56940000D01*
X109760000Y-56980000D02*
X106139000Y-56980000D01*
X109760000Y-57020000D02*
X106151000Y-57020000D01*
X109760000Y-57060000D02*
X106163000Y-57060000D01*
X109760000Y-57100000D02*
X106176000Y-57100000D01*
X109760000Y-57140000D02*
X106190000Y-57140000D01*
X109760000Y-57180000D02*
X106203000Y-57180000D01*
X109760000Y-57220000D02*
X106218000Y-57220000D01*
X109760000Y-57260000D02*
X106232000Y-57260000D01*
X109760000Y-57300000D02*
X106247000Y-57300000D01*
X109760000Y-57340000D02*
X106262000Y-57340000D01*
X109760000Y-57380000D02*
X106278000Y-57380000D01*
X109760000Y-57420000D02*
X106294000Y-57420000D01*
X109760000Y-57460000D02*
X106310000Y-57460000D01*
X109760000Y-57500000D02*
X106327000Y-57500000D01*
X109760000Y-57540000D02*
X106344000Y-57540000D01*
X109760000Y-57580000D02*
X106362000Y-57580000D01*
X109760000Y-57620000D02*
X106380000Y-57620000D01*
X109760000Y-57660000D02*
X106398000Y-57660000D01*
X109760000Y-57700000D02*
X106417000Y-57700000D01*
X109760000Y-57740000D02*
X106436000Y-57740000D01*
X109760000Y-57780000D02*
X106456000Y-57780000D01*
X109760000Y-57820000D02*
X106476000Y-57820000D01*
X109760000Y-57860000D02*
X106496000Y-57860000D01*
X109760000Y-57900000D02*
X106517000Y-57900000D01*
X109760000Y-57940000D02*
X106539000Y-57940000D01*
X109760000Y-57980000D02*
X106561000Y-57980000D01*
X109760000Y-58020000D02*
X106583000Y-58020000D01*
X109760000Y-58060000D02*
X106606000Y-58060000D01*
X109760000Y-58100000D02*
X106629000Y-58100000D01*
X109760000Y-58140000D02*
X106653000Y-58140000D01*
X109760000Y-58180000D02*
X106677000Y-58180000D01*
X109760000Y-58220000D02*
X106702000Y-58220000D01*
X109760000Y-58260000D02*
X106728000Y-58260000D01*
X109760000Y-58300000D02*
X106753000Y-58300000D01*
X109760000Y-58340000D02*
X106780000Y-58340000D01*
X109760000Y-58380000D02*
X106807000Y-58380000D01*
X109760000Y-58420000D02*
X106834000Y-58420000D01*
X109760000Y-58460000D02*
X106862000Y-58460000D01*
X109760000Y-58500000D02*
X106891000Y-58500000D01*
X109760000Y-58540000D02*
X106920000Y-58540000D01*
X109760000Y-58580000D02*
X106950000Y-58580000D01*
X109760000Y-58620000D02*
X106980000Y-58620000D01*
X109760000Y-58660000D02*
X107012000Y-58660000D01*
X109760000Y-58700000D02*
X107043000Y-58700000D01*
X109760000Y-58740000D02*
X107076000Y-58740000D01*
X109760000Y-58780000D02*
X107109000Y-58780000D01*
X109760000Y-58820000D02*
X107142000Y-58820000D01*
X109760000Y-58860000D02*
X107177000Y-58860000D01*
X109760000Y-58900000D02*
X107212000Y-58900000D01*
X109760000Y-58940000D02*
X107248000Y-58940000D01*
X109760000Y-58980000D02*
X107284000Y-58980000D01*
X109760000Y-59020000D02*
X107322000Y-59020000D01*
X109760000Y-59060000D02*
X107360000Y-59060000D01*
X109760000Y-59100000D02*
X107399000Y-59100000D01*
X109760000Y-59140000D02*
X107439000Y-59140000D01*
X109760000Y-59180000D02*
X107480000Y-59180000D01*
X109760000Y-59220000D02*
X107522000Y-59220000D01*
X111599000Y-60580000D02*
X110401000Y-60580000D01*
X111862000Y-60540000D02*
X110138000Y-60540000D01*
X112062000Y-60500000D02*
X109938000Y-60500000D01*
X112230000Y-60460000D02*
X109770000Y-60460000D01*
X112377000Y-60420000D02*
X109623000Y-60420000D01*
X112509000Y-60380000D02*
X109491000Y-60380000D01*
X112630000Y-60340000D02*
X109370000Y-60340000D01*
X112742000Y-60300000D02*
X109258000Y-60300000D01*
X112846000Y-60260000D02*
X109154000Y-60260000D01*
X112944000Y-60220000D02*
X109056000Y-60220000D01*
X113037000Y-60180000D02*
X108963000Y-60180000D01*
X113124000Y-60140000D02*
X108876000Y-60140000D01*
X113208000Y-60100000D02*
X108792000Y-60100000D01*
X113288000Y-60060000D02*
X108712000Y-60060000D01*
X113365000Y-60020000D02*
X108635000Y-60020000D01*
X113439000Y-59980000D02*
X108561000Y-59980000D01*
X113510000Y-59940000D02*
X108490000Y-59940000D01*
X113578000Y-59900000D02*
X108422000Y-59900000D01*
X113644000Y-59860000D02*
X108356000Y-59860000D01*
X113708000Y-59820000D02*
X108292000Y-59820000D01*
X113770000Y-59780000D02*
X108230000Y-59780000D01*
X113830000Y-59740000D02*
X108170000Y-59740000D01*
X113875000Y-50020354D02*
X113875000Y-51020354D01*
X113888000Y-59700000D02*
X108112000Y-59700000D01*
X113945000Y-59660000D02*
X108055000Y-59660000D01*
X114000000Y-59620000D02*
X108000000Y-59620000D01*
X114053000Y-59580000D02*
X107947000Y-59580000D01*
X114105000Y-59540000D02*
X107895000Y-59540000D01*
X114156000Y-59500000D02*
X107844000Y-59500000D01*
X114205000Y-59460000D02*
X107795000Y-59460000D01*
X114254000Y-59420000D02*
X107746000Y-59420000D01*
X114301000Y-59380000D02*
X107699000Y-59380000D01*
X114347000Y-59340000D02*
X107653000Y-59340000D01*
X114375000Y-50520354D02*
X113375000Y-50520354D01*
X114391000Y-59300000D02*
X107609000Y-59300000D01*
X114435000Y-59260000D02*
X107565000Y-59260000D01*
X114478000Y-59220000D02*
X112240000Y-59220000D01*
X114520000Y-59180000D02*
X112240000Y-59180000D01*
X114561000Y-59140000D02*
X112240000Y-59140000D01*
X114601000Y-59100000D02*
X112240000Y-59100000D01*
X114640000Y-59060000D02*
X112240000Y-59060000D01*
X114678000Y-59020000D02*
X112240000Y-59020000D01*
X114716000Y-58980000D02*
X112240000Y-58980000D01*
X114752000Y-58940000D02*
X112240000Y-58940000D01*
X114788000Y-58900000D02*
X112240000Y-58900000D01*
X114823000Y-58860000D02*
X112240000Y-58860000D01*
X114858000Y-58820000D02*
X112240000Y-58820000D01*
X114891000Y-58780000D02*
X112240000Y-58780000D01*
X114924000Y-58740000D02*
X112240000Y-58740000D01*
X114957000Y-58700000D02*
X112240000Y-58700000D01*
X114988000Y-58660000D02*
X112240000Y-58660000D01*
X115020000Y-58620000D02*
X112240000Y-58620000D01*
X115050000Y-58580000D02*
X112240000Y-58580000D01*
X115080000Y-58540000D02*
X112240000Y-58540000D01*
X115109000Y-58500000D02*
X112240000Y-58500000D01*
X115138000Y-58460000D02*
X112240000Y-58460000D01*
X115166000Y-58420000D02*
X112240000Y-58420000D01*
X115193000Y-58380000D02*
X112240000Y-58380000D01*
X115220000Y-58340000D02*
X112240000Y-58340000D01*
X115247000Y-58300000D02*
X112240000Y-58300000D01*
X115272000Y-58260000D02*
X112240000Y-58260000D01*
X115298000Y-58220000D02*
X112240000Y-58220000D01*
X115323000Y-58180000D02*
X112240000Y-58180000D01*
X115347000Y-58140000D02*
X112240000Y-58140000D01*
X115371000Y-58100000D02*
X112240000Y-58100000D01*
X115394000Y-58060000D02*
X112240000Y-58060000D01*
X115417000Y-58020000D02*
X112240000Y-58020000D01*
X115439000Y-57980000D02*
X112240000Y-57980000D01*
X115461000Y-57940000D02*
X112240000Y-57940000D01*
X115483000Y-57900000D02*
X112240000Y-57900000D01*
X115504000Y-57860000D02*
X112240000Y-57860000D01*
X115524000Y-57820000D02*
X112240000Y-57820000D01*
X115544000Y-57780000D02*
X112240000Y-57780000D01*
X115564000Y-57740000D02*
X112240000Y-57740000D01*
X115583000Y-57700000D02*
X112240000Y-57700000D01*
X115602000Y-57660000D02*
X112240000Y-57660000D01*
X115620000Y-57620000D02*
X112240000Y-57620000D01*
X115638000Y-57580000D02*
X112240000Y-57580000D01*
X115656000Y-57540000D02*
X112240000Y-57540000D01*
X115673000Y-57500000D02*
X112240000Y-57500000D01*
X115690000Y-57460000D02*
X112240000Y-57460000D01*
X115706000Y-57420000D02*
X112240000Y-57420000D01*
X115722000Y-57380000D02*
X112240000Y-57380000D01*
X115738000Y-57340000D02*
X112240000Y-57340000D01*
X115753000Y-57300000D02*
X112240000Y-57300000D01*
X115768000Y-57260000D02*
X112240000Y-57260000D01*
X115782000Y-57220000D02*
X112240000Y-57220000D01*
X115797000Y-57180000D02*
X112240000Y-57180000D01*
X115810000Y-57140000D02*
X112240000Y-57140000D01*
X115824000Y-57100000D02*
X112240000Y-57100000D01*
X115837000Y-57060000D02*
X112240000Y-57060000D01*
X115849000Y-57020000D02*
X112240000Y-57020000D01*
X115861000Y-56980000D02*
X112240000Y-56980000D01*
X115873000Y-56940000D02*
X112240000Y-56940000D01*
X115885000Y-56900000D02*
X112240000Y-56900000D01*
X115896000Y-56860000D02*
X112240000Y-56860000D01*
X115907000Y-56820000D02*
X112240000Y-56820000D01*
X115917000Y-56780000D02*
X112240000Y-56780000D01*
X115928000Y-56740000D02*
X106072000Y-56740000D01*
X115937000Y-56700000D02*
X106063000Y-56700000D01*
X115947000Y-56660000D02*
X106053000Y-56660000D01*
X115956000Y-56620000D02*
X106044000Y-56620000D01*
X115965000Y-56580000D02*
X106035000Y-56580000D01*
X115973000Y-56540000D02*
X106027000Y-56540000D01*
X115981000Y-56500000D02*
X106019000Y-56500000D01*
X115989000Y-56460000D02*
X106011000Y-56460000D01*
X115997000Y-56420000D02*
X106003000Y-56420000D01*
X116004000Y-56380000D02*
X105996000Y-56380000D01*
X116011000Y-56340000D02*
X105989000Y-56340000D01*
X116017000Y-56300000D02*
X105983000Y-56300000D01*
X116023000Y-56260000D02*
X105977000Y-56260000D01*
X116029000Y-56220000D02*
X105971000Y-56220000D01*
X116035000Y-56180000D02*
X105965000Y-56180000D01*
X116040000Y-56140000D02*
X105960000Y-56140000D01*
X116045000Y-56100000D02*
X105955000Y-56100000D01*
X116049000Y-56060000D02*
X105951000Y-56060000D01*
X116054000Y-56020000D02*
X105946000Y-56020000D01*
X116057000Y-55980000D02*
X105943000Y-55980000D01*
X116061000Y-55940000D02*
X105939000Y-55940000D01*
X116064000Y-55900000D02*
X105936000Y-55900000D01*
X116067000Y-55860000D02*
X105933000Y-55860000D01*
X116070000Y-55820000D02*
X105930000Y-55820000D01*
X116072000Y-55780000D02*
X105928000Y-55780000D01*
X116074000Y-55740000D02*
X105926000Y-55740000D01*
X116076000Y-55700000D02*
X105924000Y-55700000D01*
X116077000Y-55660000D02*
X105923000Y-55660000D01*
X116079000Y-55580000D02*
X105921000Y-55580000D01*
X116079000Y-55620000D02*
X105921000Y-55620000D01*
X116080000Y-55500000D02*
X105920000Y-55500000D01*
X116080000Y-55540000D02*
X105920000Y-55540000D01*
X116120000Y-55500000D02*
G75*
G02*
X105880000Y-55500000I-5120000J0D01*
G01*
X105880000Y-55500000D02*
G75*
G02*
X116120000Y-55500000I5120000J0D01*
G01*
%TO.C,WS2812*%
X126420000Y-67940000D02*
X126420000Y-72240000D01*
X126420000Y-76540000D02*
X126420000Y-72240000D01*
X129370000Y-67190000D02*
X129370000Y-67940000D01*
X129370000Y-67940000D02*
X126420000Y-67940000D01*
X129370000Y-76540000D02*
X126420000Y-76540000D01*
X129370000Y-77290000D02*
X129370000Y-76540000D01*
X131920000Y-66890000D02*
X130670000Y-66890000D01*
X131920000Y-68140000D02*
X131920000Y-66890000D01*
X131620000Y-67190000D02*
X130870000Y-67190000D01*
X130870000Y-68990000D01*
X131620000Y-68990000D01*
X131620000Y-67190000D01*
X131620000Y-70490000D02*
X130870000Y-70490000D01*
X130870000Y-73990000D01*
X131620000Y-73990000D01*
X131620000Y-70490000D01*
X131620000Y-75490000D02*
X130870000Y-75490000D01*
X130870000Y-77290000D01*
X131620000Y-77290000D01*
X131620000Y-75490000D01*
X131630000Y-67180000D02*
X125660000Y-67180000D01*
X125660000Y-77300000D01*
X131630000Y-77300000D01*
X131630000Y-67180000D01*
%TO.C,C1*%
X66080000Y-78515000D02*
X66080000Y-76985000D01*
X67920000Y-76985000D02*
X67920000Y-78515000D01*
%TO.C,U1*%
X68830000Y-70850000D02*
X68830000Y-77270000D01*
X68830000Y-77270000D02*
X69100000Y-77270000D01*
X75730000Y-70850000D02*
X75730000Y-77270000D01*
X75730000Y-77270000D02*
X75460000Y-77270000D01*
X69140000Y-79000000D02*
X68670000Y-79340000D01*
X68670000Y-78660000D01*
X69140000Y-79000000D01*
G36*
X69140000Y-79000000D02*
G01*
X68670000Y-79340000D01*
X68670000Y-78660000D01*
X69140000Y-79000000D01*
G37*
%TO.C,5V*%
X100290000Y-110920000D02*
X100290000Y-110764000D01*
X100290000Y-113236000D02*
X100290000Y-113080000D01*
X97058563Y-110920000D02*
G75*
G02*
X100290000Y-110764484I1671437J-1080000D01*
G01*
X97689039Y-110920000D02*
G75*
G02*
X99770961Y-110920000I1040961J-1080000D01*
G01*
X99770961Y-113080000D02*
G75*
G02*
X97689039Y-113080000I-1040961J1080000D01*
G01*
X100290000Y-113235516D02*
G75*
G02*
X97058563Y-113080000I-1560000J1235516D01*
G01*
%TO.C,C4*%
X70560000Y-60557246D02*
X64258000Y-60557246D01*
X70560000Y-60597246D02*
X64271000Y-60597246D01*
X70560000Y-60637246D02*
X64283000Y-60637246D01*
X70560000Y-60677246D02*
X64295000Y-60677246D01*
X70560000Y-60717246D02*
X64308000Y-60717246D01*
X70560000Y-60757246D02*
X64321000Y-60757246D01*
X70560000Y-60797246D02*
X64334000Y-60797246D01*
X70560000Y-60837246D02*
X64348000Y-60837246D01*
X70560000Y-60877246D02*
X64361000Y-60877246D01*
X70560000Y-60917246D02*
X64375000Y-60917246D01*
X70560000Y-60957246D02*
X64389000Y-60957246D01*
X70560000Y-60997246D02*
X64403000Y-60997246D01*
X70560000Y-61037246D02*
X64418000Y-61037246D01*
X70560000Y-61077246D02*
X64433000Y-61077246D01*
X70560000Y-61117246D02*
X64448000Y-61117246D01*
X70560000Y-61157246D02*
X64463000Y-61157246D01*
X70560000Y-61197246D02*
X64479000Y-61197246D01*
X70560000Y-61237246D02*
X64495000Y-61237246D01*
X70560000Y-61277246D02*
X64511000Y-61277246D01*
X70560000Y-61317246D02*
X64527000Y-61317246D01*
X70560000Y-61357246D02*
X64543000Y-61357246D01*
X70560000Y-61397246D02*
X64560000Y-61397246D01*
X70560000Y-61437246D02*
X64577000Y-61437246D01*
X70560000Y-61477246D02*
X64594000Y-61477246D01*
X70560000Y-61517246D02*
X64612000Y-61517246D01*
X70560000Y-61557246D02*
X64630000Y-61557246D01*
X70560000Y-61597246D02*
X64648000Y-61597246D01*
X70560000Y-61637246D02*
X64666000Y-61637246D01*
X70560000Y-61677246D02*
X64685000Y-61677246D01*
X70560000Y-61717246D02*
X64704000Y-61717246D01*
X70560000Y-61757246D02*
X64723000Y-61757246D01*
X70560000Y-61797246D02*
X64742000Y-61797246D01*
X70560000Y-61837246D02*
X64762000Y-61837246D01*
X70560000Y-61877246D02*
X64782000Y-61877246D01*
X70560000Y-61917246D02*
X64802000Y-61917246D01*
X70560000Y-61957246D02*
X64822000Y-61957246D01*
X70560000Y-61997246D02*
X64843000Y-61997246D01*
X70560000Y-62037246D02*
X64864000Y-62037246D01*
X70560000Y-62077246D02*
X64885000Y-62077246D01*
X70560000Y-62117246D02*
X64907000Y-62117246D01*
X70560000Y-62157246D02*
X64929000Y-62157246D01*
X70560000Y-62197246D02*
X64951000Y-62197246D01*
X70560000Y-62237246D02*
X64974000Y-62237246D01*
X70560000Y-62277246D02*
X64996000Y-62277246D01*
X70560000Y-62317246D02*
X65019000Y-62317246D01*
X70560000Y-62357246D02*
X65043000Y-62357246D01*
X70560000Y-62397246D02*
X65067000Y-62397246D01*
X70560000Y-62437246D02*
X65091000Y-62437246D01*
X70560000Y-62477246D02*
X65115000Y-62477246D01*
X70560000Y-62517246D02*
X65140000Y-62517246D01*
X70560000Y-62557246D02*
X65165000Y-62557246D01*
X70560000Y-62597246D02*
X65190000Y-62597246D01*
X70560000Y-62637246D02*
X65215000Y-62637246D01*
X70560000Y-62677246D02*
X65241000Y-62677246D01*
X70560000Y-62717246D02*
X65268000Y-62717246D01*
X70560000Y-62757246D02*
X65294000Y-62757246D01*
X70560000Y-62797246D02*
X65321000Y-62797246D01*
X70560000Y-62837246D02*
X65349000Y-62837246D01*
X70560000Y-62877246D02*
X65376000Y-62877246D01*
X70560000Y-62917246D02*
X65404000Y-62917246D01*
X70560000Y-62957246D02*
X65433000Y-62957246D01*
X70560000Y-62997246D02*
X65461000Y-62997246D01*
X70560000Y-63037246D02*
X65491000Y-63037246D01*
X70560000Y-63077246D02*
X65520000Y-63077246D01*
X70560000Y-63117246D02*
X65550000Y-63117246D01*
X70560000Y-63157246D02*
X65580000Y-63157246D01*
X70560000Y-63197246D02*
X65611000Y-63197246D01*
X70560000Y-63237246D02*
X65642000Y-63237246D01*
X70560000Y-63277246D02*
X65673000Y-63277246D01*
X70560000Y-63317246D02*
X65705000Y-63317246D01*
X70560000Y-63357246D02*
X65738000Y-63357246D01*
X70560000Y-63397246D02*
X65770000Y-63397246D01*
X72765000Y-66317246D02*
X71235000Y-66317246D01*
X73097000Y-66277246D02*
X70903000Y-66277246D01*
X73351000Y-66237246D02*
X70649000Y-66237246D01*
X73564000Y-66197246D02*
X70436000Y-66197246D01*
X73751000Y-66157246D02*
X70249000Y-66157246D01*
X73920000Y-66117246D02*
X70080000Y-66117246D01*
X74074000Y-66077246D02*
X69926000Y-66077246D01*
X74217000Y-66037246D02*
X69783000Y-66037246D01*
X74351000Y-65997246D02*
X69649000Y-65997246D01*
X74477000Y-65957246D02*
X69523000Y-65957246D01*
X74597000Y-65917246D02*
X69403000Y-65917246D01*
X74710000Y-65877246D02*
X69290000Y-65877246D01*
X74819000Y-65837246D02*
X69181000Y-65837246D01*
X74923000Y-65797246D02*
X69077000Y-65797246D01*
X75023000Y-65757246D02*
X68977000Y-65757246D01*
X75120000Y-65717246D02*
X68880000Y-65717246D01*
X75213000Y-65677246D02*
X68787000Y-65677246D01*
X75303000Y-65637246D02*
X68697000Y-65637246D01*
X75390000Y-65597246D02*
X68610000Y-65597246D01*
X75475000Y-65557246D02*
X68525000Y-65557246D01*
X75557000Y-65517246D02*
X68443000Y-65517246D01*
X75637000Y-65477246D02*
X68363000Y-65477246D01*
X75714000Y-65437246D02*
X68286000Y-65437246D01*
X75790000Y-65397246D02*
X68210000Y-65397246D01*
X75864000Y-65357246D02*
X68136000Y-65357246D01*
X75936000Y-65317246D02*
X68064000Y-65317246D01*
X76006000Y-65277246D02*
X67994000Y-65277246D01*
X76075000Y-65237246D02*
X67925000Y-65237246D01*
X76142000Y-65197246D02*
X67858000Y-65197246D01*
X76208000Y-65157246D02*
X67792000Y-65157246D01*
X76273000Y-65117246D02*
X67727000Y-65117246D01*
X76336000Y-65077246D02*
X67664000Y-65077246D01*
X76398000Y-65037246D02*
X67602000Y-65037246D01*
X76459000Y-64997246D02*
X67541000Y-64997246D01*
X76518000Y-64957246D02*
X67482000Y-64957246D01*
X76555000Y-49547755D02*
X76555000Y-51147755D01*
X76576000Y-64917246D02*
X67424000Y-64917246D01*
X76634000Y-64877246D02*
X67366000Y-64877246D01*
X76690000Y-64837246D02*
X67310000Y-64837246D01*
X76745000Y-64797246D02*
X67255000Y-64797246D01*
X76800000Y-64757246D02*
X67200000Y-64757246D01*
X76853000Y-64717246D02*
X67147000Y-64717246D01*
X76906000Y-64677246D02*
X67094000Y-64677246D01*
X76957000Y-64637246D02*
X67043000Y-64637246D01*
X77008000Y-64597246D02*
X66992000Y-64597246D01*
X77058000Y-64557246D02*
X66942000Y-64557246D01*
X77107000Y-64517246D02*
X66893000Y-64517246D01*
X77156000Y-64477246D02*
X66844000Y-64477246D01*
X77204000Y-64437246D02*
X66796000Y-64437246D01*
X77250000Y-64397246D02*
X66750000Y-64397246D01*
X77297000Y-64357246D02*
X66703000Y-64357246D01*
X77342000Y-64317246D02*
X66658000Y-64317246D01*
X77355000Y-50347755D02*
X75755000Y-50347755D01*
X77387000Y-64277246D02*
X66613000Y-64277246D01*
X77431000Y-64237246D02*
X66569000Y-64237246D01*
X77475000Y-64197246D02*
X66525000Y-64197246D01*
X77518000Y-64157246D02*
X66482000Y-64157246D01*
X77560000Y-64117246D02*
X66440000Y-64117246D01*
X77602000Y-64077246D02*
X66398000Y-64077246D01*
X77643000Y-64037246D02*
X66357000Y-64037246D01*
X77683000Y-63997246D02*
X66317000Y-63997246D01*
X77723000Y-63957246D02*
X66277000Y-63957246D01*
X77763000Y-63917246D02*
X66237000Y-63917246D01*
X77802000Y-63877246D02*
X66198000Y-63877246D01*
X77840000Y-63837246D02*
X66160000Y-63837246D01*
X77878000Y-63797246D02*
X66122000Y-63797246D01*
X77915000Y-63757246D02*
X66085000Y-63757246D01*
X77952000Y-63717246D02*
X66048000Y-63717246D01*
X77988000Y-63677246D02*
X66012000Y-63677246D01*
X78024000Y-63637246D02*
X65976000Y-63637246D01*
X78060000Y-63597246D02*
X65940000Y-63597246D01*
X78094000Y-63557246D02*
X65906000Y-63557246D01*
X78129000Y-63517246D02*
X65871000Y-63517246D01*
X78163000Y-63477246D02*
X65837000Y-63477246D01*
X78197000Y-63437246D02*
X65803000Y-63437246D01*
X78230000Y-63397246D02*
X73440000Y-63397246D01*
X78262000Y-63357246D02*
X73440000Y-63357246D01*
X78295000Y-63317246D02*
X73440000Y-63317246D01*
X78327000Y-63277246D02*
X73440000Y-63277246D01*
X78358000Y-63237246D02*
X73440000Y-63237246D01*
X78389000Y-63197246D02*
X73440000Y-63197246D01*
X78420000Y-63157246D02*
X73440000Y-63157246D01*
X78450000Y-63117246D02*
X73440000Y-63117246D01*
X78480000Y-63077246D02*
X73440000Y-63077246D01*
X78509000Y-63037246D02*
X73440000Y-63037246D01*
X78539000Y-62997246D02*
X73440000Y-62997246D01*
X78567000Y-62957246D02*
X73440000Y-62957246D01*
X78596000Y-62917246D02*
X73440000Y-62917246D01*
X78624000Y-62877246D02*
X73440000Y-62877246D01*
X78651000Y-62837246D02*
X73440000Y-62837246D01*
X78679000Y-62797246D02*
X73440000Y-62797246D01*
X78706000Y-62757246D02*
X73440000Y-62757246D01*
X78732000Y-62717246D02*
X73440000Y-62717246D01*
X78759000Y-62677246D02*
X73440000Y-62677246D01*
X78785000Y-62637246D02*
X73440000Y-62637246D01*
X78810000Y-62597246D02*
X73440000Y-62597246D01*
X78835000Y-62557246D02*
X73440000Y-62557246D01*
X78860000Y-62517246D02*
X73440000Y-62517246D01*
X78885000Y-62477246D02*
X73440000Y-62477246D01*
X78909000Y-62437246D02*
X73440000Y-62437246D01*
X78933000Y-62397246D02*
X73440000Y-62397246D01*
X78957000Y-62357246D02*
X73440000Y-62357246D01*
X78981000Y-62317246D02*
X73440000Y-62317246D01*
X79004000Y-62277246D02*
X73440000Y-62277246D01*
X79026000Y-62237246D02*
X73440000Y-62237246D01*
X79049000Y-62197246D02*
X73440000Y-62197246D01*
X79071000Y-62157246D02*
X73440000Y-62157246D01*
X79093000Y-62117246D02*
X73440000Y-62117246D01*
X79115000Y-62077246D02*
X73440000Y-62077246D01*
X79136000Y-62037246D02*
X73440000Y-62037246D01*
X79157000Y-61997246D02*
X73440000Y-61997246D01*
X79178000Y-61957246D02*
X73440000Y-61957246D01*
X79198000Y-61917246D02*
X73440000Y-61917246D01*
X79218000Y-61877246D02*
X73440000Y-61877246D01*
X79238000Y-61837246D02*
X73440000Y-61837246D01*
X79258000Y-61797246D02*
X73440000Y-61797246D01*
X79277000Y-61757246D02*
X73440000Y-61757246D01*
X79296000Y-61717246D02*
X73440000Y-61717246D01*
X79315000Y-61677246D02*
X73440000Y-61677246D01*
X79334000Y-61637246D02*
X73440000Y-61637246D01*
X79352000Y-61597246D02*
X73440000Y-61597246D01*
X79370000Y-61557246D02*
X73440000Y-61557246D01*
X79388000Y-61517246D02*
X73440000Y-61517246D01*
X79406000Y-61477246D02*
X73440000Y-61477246D01*
X79423000Y-61437246D02*
X73440000Y-61437246D01*
X79440000Y-61397246D02*
X73440000Y-61397246D01*
X79457000Y-61357246D02*
X73440000Y-61357246D01*
X79473000Y-61317246D02*
X73440000Y-61317246D01*
X79489000Y-61277246D02*
X73440000Y-61277246D01*
X79505000Y-61237246D02*
X73440000Y-61237246D01*
X79521000Y-61197246D02*
X73440000Y-61197246D01*
X79537000Y-61157246D02*
X73440000Y-61157246D01*
X79552000Y-61117246D02*
X73440000Y-61117246D01*
X79567000Y-61077246D02*
X73440000Y-61077246D01*
X79582000Y-61037246D02*
X73440000Y-61037246D01*
X79597000Y-60997246D02*
X73440000Y-60997246D01*
X79611000Y-60957246D02*
X73440000Y-60957246D01*
X79625000Y-60917246D02*
X73440000Y-60917246D01*
X79639000Y-60877246D02*
X73440000Y-60877246D01*
X79652000Y-60837246D02*
X73440000Y-60837246D01*
X79666000Y-60797246D02*
X73440000Y-60797246D01*
X79679000Y-60757246D02*
X73440000Y-60757246D01*
X79692000Y-60717246D02*
X73440000Y-60717246D01*
X79705000Y-60677246D02*
X73440000Y-60677246D01*
X79717000Y-60637246D02*
X73440000Y-60637246D01*
X79729000Y-60597246D02*
X73440000Y-60597246D01*
X79742000Y-60557246D02*
X73440000Y-60557246D01*
X79753000Y-60517246D02*
X64247000Y-60517246D01*
X79765000Y-60477246D02*
X64235000Y-60477246D01*
X79776000Y-60437246D02*
X64224000Y-60437246D01*
X79787000Y-60397246D02*
X64213000Y-60397246D01*
X79798000Y-60357246D02*
X64202000Y-60357246D01*
X79809000Y-60317246D02*
X64191000Y-60317246D01*
X79820000Y-60277246D02*
X64180000Y-60277246D01*
X79830000Y-60237246D02*
X64170000Y-60237246D01*
X79840000Y-60197246D02*
X64160000Y-60197246D01*
X79850000Y-60157246D02*
X64150000Y-60157246D01*
X79859000Y-60117246D02*
X64141000Y-60117246D01*
X79869000Y-60077246D02*
X64131000Y-60077246D01*
X79878000Y-60037246D02*
X64122000Y-60037246D01*
X79887000Y-59997246D02*
X64113000Y-59997246D01*
X79896000Y-59957246D02*
X64104000Y-59957246D01*
X79904000Y-59917246D02*
X64096000Y-59917246D01*
X79913000Y-59877246D02*
X64087000Y-59877246D01*
X79921000Y-59837246D02*
X64079000Y-59837246D01*
X79929000Y-59797246D02*
X64071000Y-59797246D01*
X79936000Y-59757246D02*
X64064000Y-59757246D01*
X79944000Y-59717246D02*
X64056000Y-59717246D01*
X79951000Y-59677246D02*
X64049000Y-59677246D01*
X79958000Y-59637246D02*
X64042000Y-59637246D01*
X79965000Y-59597246D02*
X64035000Y-59597246D01*
X79972000Y-59557246D02*
X64028000Y-59557246D01*
X79978000Y-59517246D02*
X64022000Y-59517246D01*
X79985000Y-59477246D02*
X64015000Y-59477246D01*
X79991000Y-59437246D02*
X64009000Y-59437246D01*
X79997000Y-59397246D02*
X64003000Y-59397246D01*
X80002000Y-59357246D02*
X63998000Y-59357246D01*
X80008000Y-59317246D02*
X63992000Y-59317246D01*
X80013000Y-59277246D02*
X63987000Y-59277246D01*
X80018000Y-59237246D02*
X63982000Y-59237246D01*
X80023000Y-59197246D02*
X63977000Y-59197246D01*
X80028000Y-59157246D02*
X63972000Y-59157246D01*
X80032000Y-59117246D02*
X63968000Y-59117246D01*
X80036000Y-59077246D02*
X63964000Y-59077246D01*
X80040000Y-59037246D02*
X63960000Y-59037246D01*
X80044000Y-58997246D02*
X63956000Y-58997246D01*
X80048000Y-58957246D02*
X63952000Y-58957246D01*
X80051000Y-58917246D02*
X63949000Y-58917246D01*
X80055000Y-58877246D02*
X63945000Y-58877246D01*
X80058000Y-58837246D02*
X63942000Y-58837246D01*
X80061000Y-58797246D02*
X63939000Y-58797246D01*
X80063000Y-58757246D02*
X63937000Y-58757246D01*
X80066000Y-58717246D02*
X63934000Y-58717246D01*
X80068000Y-58677246D02*
X63932000Y-58677246D01*
X80070000Y-58637246D02*
X63930000Y-58637246D01*
X80072000Y-58597246D02*
X63928000Y-58597246D01*
X80074000Y-58557246D02*
X63926000Y-58557246D01*
X80075000Y-58517246D02*
X63925000Y-58517246D01*
X80076000Y-58477246D02*
X63924000Y-58477246D01*
X80078000Y-58397246D02*
X63922000Y-58397246D01*
X80078000Y-58437246D02*
X63922000Y-58437246D01*
X80079000Y-58357246D02*
X63921000Y-58357246D01*
X80080000Y-58237246D02*
X63920000Y-58237246D01*
X80080000Y-58277246D02*
X63920000Y-58277246D01*
X80080000Y-58317246D02*
X63920000Y-58317246D01*
X80120000Y-58237246D02*
G75*
G02*
X63880000Y-58237246I-8120000J0D01*
G01*
X63880000Y-58237246D02*
G75*
G02*
X80120000Y-58237246I8120000J0D01*
G01*
%TO.C,U4*%
X85455000Y-78220000D02*
X90225000Y-78220000D01*
X85455000Y-78250000D02*
X85455000Y-78220000D01*
X85455000Y-80790000D02*
X85455000Y-79570000D01*
X85455000Y-82140000D02*
X85455000Y-82110000D01*
X90225000Y-78220000D02*
X90225000Y-78250000D01*
X90225000Y-82110000D02*
X90225000Y-82140000D01*
X90225000Y-82140000D02*
X85455000Y-82140000D01*
X85030000Y-80040000D02*
X84350000Y-80040000D01*
X84690000Y-79570000D01*
X85030000Y-80040000D01*
G36*
X85030000Y-80040000D02*
G01*
X84350000Y-80040000D01*
X84690000Y-79570000D01*
X85030000Y-80040000D01*
G37*
%TD*%
M02*
