M48
; DRILL file {KiCad 9.0.9.1} date 2026-09-13T22:43:49+0900
; FORMAT={-:-/ absolute / metric / decimal}
; #@! TF.CreationDate,2026-09-13T22:43:49+09:00
; #@! TF.GenerationSoftware,Kicad,Pcbnew,9.0.9.1
; #@! TF.FileFunction,Plated,1,2,PTH
FMAT,2
METRIC
; #@! TA.AperFunction,Plated,PTH,ComponentDrill
T1C0.600
; #@! TA.AperFunction,Plated,PTH,ComponentDrill
T2C0.762
; #@! TA.AperFunction,Plated,PTH,ComponentDrill
T3C0.800
; #@! TA.AperFunction,Plated,PTH,ComponentDrill
T4C0.900
; #@! TA.AperFunction,Plated,PTH,ComponentDrill
T5C0.950
; #@! TA.AperFunction,Plated,PTH,ComponentDrill
T6C1.000
; #@! TA.AperFunction,Plated,PTH,ComponentDrill
T7C1.100
; #@! TA.AperFunction,Plated,PTH,ComponentDrill
T8C1.200
; #@! TA.AperFunction,Plated,PTH,ComponentDrill
T9C1.700
; #@! TA.AperFunction,Plated,PTH,ComponentDrill
T10C2.000
; #@! TA.AperFunction,Plated,PTH,ComponentDrill
T11C2.700
%
G90
G05
T1
X78.0Y-77.5
X78.0Y-79.0
T2
X85.5Y-59.0
X88.0Y-59.0
X90.5Y-59.0
X93.0Y-59.0
X95.5Y-59.0
X98.0Y-59.0
X100.5Y-59.0
T3
X64.93Y-109.22
X64.93Y-112.3
X67.0Y-76.5
X67.0Y-79.0
X67.46Y-85.16
X69.96Y-85.16
X75.09Y-109.22
X75.09Y-112.3
X78.56Y-109.22
X78.56Y-112.3
X88.72Y-109.22
X88.72Y-112.3
X93.0Y-78.94
X93.0Y-81.44
X98.88Y-76.47
X98.88Y-84.09
X98.92Y-74.26
X101.42Y-74.26
X101.42Y-76.47
X101.42Y-84.09
X103.96Y-76.47
X103.96Y-84.09
X106.5Y-76.47
X106.5Y-84.09
X109.04Y-76.47
X109.04Y-84.09
X111.58Y-76.47
X111.58Y-84.09
X114.12Y-76.47
X114.12Y-84.09
T4
X97.46Y-112.0
X100.0Y-112.0
X103.46Y-112.0
X106.0Y-112.0
T5
X129.17Y-69.74
X129.17Y-72.24
X129.17Y-74.74
T6
X57.3Y-88.0
X59.84Y-88.0
X59.84Y-105.78
X64.92Y-88.0
X64.92Y-105.78
X67.46Y-105.78
X70.0Y-88.0
X70.0Y-105.78
X72.54Y-88.0
X72.54Y-105.78
X77.62Y-88.0
X77.62Y-105.78
X80.16Y-88.0
X80.16Y-105.78
X82.7Y-88.0
X82.7Y-105.78
X85.24Y-88.0
X85.24Y-105.78
X90.32Y-88.0
X90.32Y-105.78
X92.86Y-88.0
X92.86Y-105.78
X95.4Y-88.0
X95.4Y-105.78
X97.94Y-88.0
X97.94Y-105.78
X103.02Y-88.0
X103.02Y-105.78
X105.56Y-88.0
X105.56Y-105.78
X111.0Y-53.0
X111.0Y-58.0
X111.0Y-64.0
X111.0Y-69.0
T7
X57.3Y-105.78
X62.38Y-88.0
X62.38Y-105.78
X67.46Y-88.0
X75.08Y-88.0
X75.08Y-105.78
X87.78Y-88.0
X87.78Y-105.78
X100.48Y-88.0
X100.48Y-105.78
T8
X72.0Y-54.487
X72.0Y-61.987
T10
X91.75Y-52.25
X91.75Y-70.05
T11
X55.0Y-65.0
X55.0Y-77.0
X60.0Y-65.0
X60.0Y-77.0
T9
G00X82.4Y-62.85
M15
G01X82.4Y-65.25
M16
G05
G00X103.6Y-62.85
M15
G01X103.6Y-65.25
M16
G05
M30
