%TF.GenerationSoftware,KiCad,Pcbnew,9.0.9.1*%
%TF.CreationDate,2026-09-13T22:43:46+09:00*%
%TF.ProjectId,TRIA_LedControlBoard,54524941-5f4c-4656-9443-6f6e74726f6c,rev?*%
%TF.SameCoordinates,Original*%
%TF.FileFunction,Copper,L1,Top*%
%TF.FilePolarity,Positive*%
%FSLAX46Y46*%
G04 Gerber Fmt 4.6, Leading zero omitted, Abs format (unit mm)*
G04 Created by KiCad (PCBNEW 9.0.9.1) date 2026-09-13 22:43:46*
%MOMM*%
%LPD*%
G01*
G04 APERTURE LIST*
G04 Aperture macros list*
%AMRoundRect*
0 Rectangle with rounded corners*
0 $1 Rounding radius*
0 $2 $3 $4 $5 $6 $7 $8 $9 X,Y pos of 4 corners*
0 Add a 4 corners polygon primitive as box body*
4,1,4,$2,$3,$4,$5,$6,$7,$8,$9,$2,$3,0*
0 Add four circle primitives for the rounded corners*
1,1,$1+$1,$2,$3*
1,1,$1+$1,$4,$5*
1,1,$1+$1,$6,$7*
1,1,$1+$1,$8,$9*
0 Add four rect primitives between the rounded corners*
20,1,$1+$1,$2,$3,$4,$5,0*
20,1,$1+$1,$4,$5,$6,$7,0*
20,1,$1+$1,$6,$7,$8,$9,0*
20,1,$1+$1,$8,$9,$2,$3,0*%
%AMOutline5P*
0 Free polygon, 5 corners , with rotation*
0 The origin of the aperture is its center*
0 number of corners: always 5*
0 $1 to $10 corner X, Y*
0 $11 Rotation angle, in degrees counterclockwise*
0 create outline with 5 corners*
4,1,5,$1,$2,$3,$4,$5,$6,$7,$8,$9,$10,$1,$2,$11*%
%AMOutline6P*
0 Free polygon, 6 corners , with rotation*
0 The origin of the aperture is its center*
0 number of corners: always 6*
0 $1 to $12 corner X, Y*
0 $13 Rotation angle, in degrees counterclockwise*
0 create outline with 6 corners*
4,1,6,$1,$2,$3,$4,$5,$6,$7,$8,$9,$10,$11,$12,$1,$2,$13*%
%AMOutline7P*
0 Free polygon, 7 corners , with rotation*
0 The origin of the aperture is its center*
0 number of corners: always 7*
0 $1 to $14 corner X, Y*
0 $15 Rotation angle, in degrees counterclockwise*
0 create outline with 7 corners*
4,1,7,$1,$2,$3,$4,$5,$6,$7,$8,$9,$10,$11,$12,$13,$14,$1,$2,$15*%
%AMOutline8P*
0 Free polygon, 8 corners , with rotation*
0 The origin of the aperture is its center*
0 number of corners: always 8*
0 $1 to $16 corner X, Y*
0 $17 Rotation angle, in degrees counterclockwise*
0 create outline with 8 corners*
4,1,8,$1,$2,$3,$4,$5,$6,$7,$8,$9,$10,$11,$12,$13,$14,$15,$16,$1,$2,$17*%
G04 Aperture macros list end*
%TA.AperFunction,ComponentPad*%
%ADD10C,1.600000*%
%TD*%
%TA.AperFunction,ComponentPad*%
%ADD11RoundRect,0.250000X0.550000X-0.550000X0.550000X0.550000X-0.550000X0.550000X-0.550000X-0.550000X0*%
%TD*%
%TA.AperFunction,ComponentPad*%
%ADD12RoundRect,0.250000X-0.750000X0.750000X-0.750000X-0.750000X0.750000X-0.750000X0.750000X0.750000X0*%
%TD*%
%TA.AperFunction,ComponentPad*%
%ADD13C,2.000000*%
%TD*%
%TA.AperFunction,ComponentPad*%
%ADD14R,1.800000X1.800000*%
%TD*%
%TA.AperFunction,ComponentPad*%
%ADD15C,1.800000*%
%TD*%
%TA.AperFunction,ComponentPad*%
%ADD16C,1.524000*%
%TD*%
%TA.AperFunction,ComponentPad*%
%ADD17R,2.100000X8.000000*%
%TD*%
%TA.AperFunction,ComponentPad*%
%ADD18R,1.524000X1.524000*%
%TD*%
%TA.AperFunction,ComponentPad*%
%ADD19R,7.000000X2.100000*%
%TD*%
%TA.AperFunction,ComponentPad*%
%ADD20RoundRect,0.250000X0.350000X-0.350000X0.350000X0.350000X-0.350000X0.350000X-0.350000X-0.350000X0*%
%TD*%
%TA.AperFunction,ComponentPad*%
%ADD21C,1.200000*%
%TD*%
%TA.AperFunction,ComponentPad*%
%ADD22RoundRect,0.760000X-1.140000X-1.140000X1.140000X-1.140000X1.140000X1.140000X-1.140000X1.140000X0*%
%TD*%
%TA.AperFunction,ComponentPad*%
%ADD23C,3.800000*%
%TD*%
%TA.AperFunction,ComponentPad*%
%ADD24R,1.650000X1.650000*%
%TD*%
%TA.AperFunction,ComponentPad*%
%ADD25C,1.508000*%
%TD*%
%TA.AperFunction,ComponentPad*%
%ADD26Outline8P,-0.825000X0.341726X-0.341726X0.825000X0.341726X0.825000X0.825000X0.341726X0.825000X-0.341726X0.341726X-0.825000X-0.341726X-0.825000X-0.825000X-0.341726X90.000000*%
%TD*%
%TA.AperFunction,ComponentPad*%
%ADD27O,1.650000X3.300000*%
%TD*%
%TA.AperFunction,ComponentPad*%
%ADD28RoundRect,0.250000X-0.725000X0.600000X-0.725000X-0.600000X0.725000X-0.600000X0.725000X0.600000X0*%
%TD*%
%TA.AperFunction,ComponentPad*%
%ADD29O,1.950000X1.700000*%
%TD*%
%TA.AperFunction,SMDPad,CuDef*%
%ADD30RoundRect,0.250000X0.350000X-0.850000X0.350000X0.850000X-0.350000X0.850000X-0.350000X-0.850000X0*%
%TD*%
%TA.AperFunction,SMDPad,CuDef*%
%ADD31RoundRect,0.249997X2.650003X-2.950003X2.650003X2.950003X-2.650003X2.950003X-2.650003X-2.950003X0*%
%TD*%
%TA.AperFunction,ComponentPad*%
%ADD32RoundRect,0.250001X-0.949999X0.949999X-0.949999X-0.949999X0.949999X-0.949999X0.949999X0.949999X0*%
%TD*%
%TA.AperFunction,ComponentPad*%
%ADD33C,2.400000*%
%TD*%
%TA.AperFunction,SMDPad,CuDef*%
%ADD34RoundRect,0.200000X-0.400000X-0.200000X0.400000X-0.200000X0.400000X0.200000X-0.400000X0.200000X0*%
%TD*%
%TA.AperFunction,Conductor*%
%ADD35C,3.000000*%
%TD*%
%TA.AperFunction,Conductor*%
%ADD36C,0.500000*%
%TD*%
%TA.AperFunction,Conductor*%
%ADD37C,1.000000*%
%TD*%
%TA.AperFunction,Conductor*%
%ADD38C,2.000000*%
%TD*%
G04 APERTURE END LIST*
D10*
%TO.P,R4,1*%
%TO.N,+3.3V*%
X78560000Y-112300000D03*
%TO.P,R4,2*%
%TO.N,Net-(D2-A)*%
X88720000Y-112300000D03*
%TD*%
%TO.P,C7,1*%
%TO.N,+5V*%
X93000000Y-78940000D03*
%TO.P,C7,2*%
%TO.N,GND*%
X93000000Y-81440000D03*
%TD*%
%TO.P,C8,1*%
%TO.N,+5V*%
X98920000Y-74260000D03*
%TO.P,C8,2*%
%TO.N,GND*%
X101420000Y-74260000D03*
%TD*%
D11*
%TO.P,U5,1*%
%TO.N,Net-(U4-VO)*%
X98880000Y-84090000D03*
D10*
%TO.P,U5,2*%
%TO.N,/PhotoCoupler/signal_out*%
X101420000Y-84090000D03*
%TO.P,U5,3*%
%TO.N,GND*%
X103960000Y-84090000D03*
%TO.P,U5,4*%
%TO.N,unconnected-(U5-Pad4)*%
X106500000Y-84090000D03*
%TO.P,U5,5*%
%TO.N,GND*%
X109040000Y-84090000D03*
%TO.P,U5,6*%
%TO.N,unconnected-(U5-Pad6)*%
X111580000Y-84090000D03*
%TO.P,U5,7,GND*%
%TO.N,GND*%
X114120000Y-84090000D03*
%TO.P,U5,8*%
%TO.N,unconnected-(U5-Pad8)*%
X114120000Y-76470000D03*
%TO.P,U5,9*%
%TO.N,GND*%
X111580000Y-76470000D03*
%TO.P,U5,10*%
%TO.N,unconnected-(U5-Pad10)*%
X109040000Y-76470000D03*
%TO.P,U5,11*%
%TO.N,GND*%
X106500000Y-76470000D03*
%TO.P,U5,12*%
%TO.N,unconnected-(U5-Pad12)*%
X103960000Y-76470000D03*
%TO.P,U5,13*%
%TO.N,GND*%
X101420000Y-76470000D03*
%TO.P,U5,14,VCC*%
%TO.N,+5V*%
X98880000Y-76470000D03*
%TD*%
D12*
%TO.P,C6,1*%
%TO.N,+5V*%
X111000000Y-64000000D03*
D13*
%TO.P,C6,2*%
%TO.N,GND*%
X111000000Y-69000000D03*
%TD*%
D10*
%TO.P,R2,1*%
%TO.N,/PhotoCoupler/signal_in*%
X64930000Y-112300000D03*
%TO.P,R2,2*%
%TO.N,Net-(U4-A)*%
X75090000Y-112300000D03*
%TD*%
D14*
%TO.P,3.3V,1,K*%
%TO.N,GNDD*%
X106000000Y-112000000D03*
D15*
%TO.P,3.3V,2,A*%
%TO.N,Net-(D2-A)*%
X103460000Y-112000000D03*
%TD*%
D16*
%TO.P,U3,1,Vin*%
%TO.N,+BATT*%
X85500000Y-59000000D03*
%TO.P,U3,2,Vin*%
X88000000Y-59000000D03*
D17*
%TO.P,U3,3,GND*%
%TO.N,GND*%
X82400000Y-64050000D03*
D18*
X90500000Y-59000000D03*
D19*
X91750000Y-52250000D03*
X91750000Y-70050000D03*
D17*
X103600000Y-64050000D03*
D18*
%TO.P,U3,4,GND*%
X93000000Y-59000000D03*
D16*
%TO.P,U3,5,VAR*%
%TO.N,unconnected-(U3-VAR-Pad5)*%
X95500000Y-59000000D03*
%TO.P,U3,6,Vout*%
%TO.N,+5V*%
X98000000Y-59000000D03*
%TO.P,U3,7,Vout*%
X100500000Y-59000000D03*
%TD*%
D10*
%TO.P,R1,1*%
%TO.N,/PhotoCoupler/signal_in*%
X64930000Y-109220000D03*
%TO.P,R1,2*%
%TO.N,Net-(U4-A)*%
X75090000Y-109220000D03*
%TD*%
%TO.P,R3,1*%
%TO.N,VDD*%
X78560000Y-109220000D03*
%TO.P,R3,2*%
%TO.N,Net-(D1-A)*%
X88720000Y-109220000D03*
%TD*%
D20*
%TO.P,C2,1*%
%TO.N,+3.3V*%
X78000000Y-79000000D03*
D21*
%TO.P,C2,2*%
%TO.N,GNDD*%
X78000000Y-77500000D03*
%TD*%
D22*
%TO.P,21V,1,Pin_1*%
%TO.N,GND*%
X55000000Y-65000000D03*
D23*
%TO.P,21V,2,Pin_2*%
%TO.N,+BATT*%
X60000000Y-65000000D03*
%TD*%
D22*
%TO.P,5V,1,Pin_1*%
%TO.N,GNDD*%
X55000000Y-77000000D03*
D23*
%TO.P,5V,2,Pin_2*%
%TO.N,VDD*%
X60000000Y-77000000D03*
%TD*%
D24*
%TO.P,U2,1,GP0*%
%TO.N,unconnected-(U2-GP0-Pad1)*%
X57300000Y-105780000D03*
D25*
%TO.P,U2,2,GP1*%
%TO.N,unconnected-(U2-GP1-Pad2)*%
X59840000Y-105780000D03*
D26*
%TO.P,U2,3,GND*%
%TO.N,GNDD*%
X62380000Y-105780000D03*
D25*
%TO.P,U2,4,GP2*%
%TO.N,/PhotoCoupler/signal_in*%
X64920000Y-105780000D03*
%TO.P,U2,5,GP3*%
%TO.N,unconnected-(U2-GP3-Pad5)*%
X67460000Y-105780000D03*
%TO.P,U2,6,GP4*%
%TO.N,unconnected-(U2-GP4-Pad6)*%
X70000000Y-105780000D03*
%TO.P,U2,7,GP5*%
%TO.N,unconnected-(U2-GP5-Pad7)*%
X72540000Y-105780000D03*
D26*
%TO.P,U2,8,GND*%
%TO.N,GNDD*%
X75080000Y-105780000D03*
D25*
%TO.P,U2,9,GP6*%
%TO.N,unconnected-(U2-GP6-Pad9)*%
X77620000Y-105780000D03*
%TO.P,U2,10,GP7*%
%TO.N,unconnected-(U2-GP7-Pad10)*%
X80160000Y-105780000D03*
%TO.P,U2,11,GP8*%
%TO.N,unconnected-(U2-GP8-Pad11)*%
X82700000Y-105780000D03*
%TO.P,U2,12,GP9*%
%TO.N,unconnected-(U2-GP9-Pad12)*%
X85240000Y-105780000D03*
D26*
%TO.P,U2,13,GND*%
%TO.N,GNDD*%
X87780000Y-105780000D03*
D25*
%TO.P,U2,14,GP10*%
%TO.N,unconnected-(U2-GP10-Pad14)*%
X90320000Y-105780000D03*
%TO.P,U2,15,GP11*%
%TO.N,unconnected-(U2-GP11-Pad15)*%
X92860000Y-105780000D03*
%TO.P,U2,16,GP12*%
%TO.N,unconnected-(U2-GP12-Pad16)*%
X95400000Y-105780000D03*
%TO.P,U2,17,GP13*%
%TO.N,unconnected-(U2-GP13-Pad17)*%
X97940000Y-105780000D03*
D26*
%TO.P,U2,18,GND*%
%TO.N,GNDD*%
X100480000Y-105780000D03*
D25*
%TO.P,U2,19,GP14*%
%TO.N,unconnected-(U2-GP14-Pad19)*%
X103020000Y-105780000D03*
%TO.P,U2,20,GP15*%
%TO.N,unconnected-(U2-GP15-Pad20)*%
X105560000Y-105780000D03*
D26*
%TO.P,U2,23,GND*%
%TO.N,GNDD*%
X100480000Y-88000000D03*
%TO.P,U2,28,GND*%
X87780000Y-88000000D03*
D25*
%TO.P,U2,29,GP22*%
%TO.N,unconnected-(U2-GP22-Pad29)*%
X85240000Y-88000000D03*
%TO.P,U2,30,RUN*%
%TO.N,unconnected-(U2-RUN-Pad30)*%
X82700000Y-88000000D03*
%TO.P,U2,31,GP26*%
%TO.N,unconnected-(U2-GP26-Pad31)*%
X80160000Y-88000000D03*
%TO.P,U2,32,GP27*%
%TO.N,unconnected-(U2-GP27-Pad32)*%
X77620000Y-88000000D03*
D26*
%TO.P,U2,33,GND*%
%TO.N,GNDD*%
X75080000Y-88000000D03*
D25*
%TO.P,U2,34,GP28*%
%TO.N,unconnected-(U2-GP28-Pad34)*%
X72540000Y-88000000D03*
%TO.P,U2,35,ADC_REF*%
%TO.N,unconnected-(U2-ADC_REF-Pad35)*%
X70000000Y-88000000D03*
D27*
%TO.P,U2,36,3V3(OUT)*%
%TO.N,+3.3V*%
X67460000Y-88825000D03*
D25*
%TO.P,U2,37,3V3_EN*%
%TO.N,GNDD*%
X64920000Y-88000000D03*
D26*
%TO.P,U2,38,GND*%
X62380000Y-88000000D03*
D25*
%TO.P,U2,39,VSYS*%
%TO.N,unconnected-(U2-VSYS-Pad39)*%
X59840000Y-88000000D03*
%TO.P,U2,40,VBUS*%
%TO.N,unconnected-(U2-VBUS-Pad40)*%
X57300000Y-88000000D03*
%TO.P,U2,CSN,GP17*%
%TO.N,unconnected-(U2-GP17-PadCSN)*%
X103020000Y-88000000D03*
%TO.P,U2,INTN,GP21*%
%TO.N,unconnected-(U2-GP21-PadINTN)*%
X90320000Y-88000000D03*
%TO.P,U2,MISO,GP16*%
%TO.N,unconnected-(U2-GP16-PadMISO)*%
X105560000Y-88000000D03*
%TO.P,U2,MOSI,GP19*%
%TO.N,unconnected-(U2-GP19-PadMOSI)*%
X95400000Y-88000000D03*
%TO.P,U2,RSTN,GP20*%
%TO.N,unconnected-(U2-GP20-PadRSTN)*%
X92860000Y-88000000D03*
%TO.P,U2,SCLK,GP18*%
%TO.N,unconnected-(U2-GP18-PadSCLK)*%
X97940000Y-88000000D03*
%TD*%
D10*
%TO.P,C3,1*%
%TO.N,+3.3V*%
X67460000Y-85160000D03*
%TO.P,C3,2*%
%TO.N,GNDD*%
X69960000Y-85160000D03*
%TD*%
D12*
%TO.P,C5,1*%
%TO.N,+5V*%
X111000000Y-53000000D03*
D13*
%TO.P,C5,2*%
%TO.N,GND*%
X111000000Y-58000000D03*
%TD*%
D28*
%TO.P,WS2812,1,Pin_1*%
%TO.N,+5V*%
X129170000Y-69740000D03*
D29*
%TO.P,WS2812,2,Pin_2*%
%TO.N,/PhotoCoupler/signal_out*%
X129170000Y-72240000D03*
%TO.P,WS2812,3,Pin_3*%
%TO.N,GND*%
X129170000Y-74740000D03*
%TD*%
D10*
%TO.P,C1,1*%
%TO.N,VDD*%
X67000000Y-79000000D03*
%TO.P,C1,2*%
%TO.N,GNDD*%
X67000000Y-76500000D03*
%TD*%
D30*
%TO.P,U1,1,VI*%
%TO.N,VDD*%
X70000000Y-79000000D03*
D31*
%TO.P,U1,2,GND*%
%TO.N,GNDD*%
X72280000Y-72700000D03*
D30*
%TO.P,U1,3,VO*%
%TO.N,+3.3V*%
X74560000Y-79000000D03*
%TD*%
D14*
%TO.P,5V,1,K*%
%TO.N,GNDD*%
X100000000Y-112000000D03*
D15*
%TO.P,5V,2,A*%
%TO.N,Net-(D1-A)*%
X97460000Y-112000000D03*
%TD*%
D32*
%TO.P,C4,1*%
%TO.N,+BATT*%
X72000000Y-54487246D03*
D33*
%TO.P,C4,2*%
%TO.N,GND*%
X72000000Y-61987246D03*
%TD*%
D34*
%TO.P,U4,1,A*%
%TO.N,Net-(U4-A)*%
X84690000Y-78910000D03*
%TO.P,U4,3,K*%
%TO.N,GNDD*%
X84690000Y-81450000D03*
%TO.P,U4,4,GND*%
%TO.N,GND*%
X90990000Y-81450000D03*
%TO.P,U4,5,VO*%
%TO.N,Net-(U4-VO)*%
X90990000Y-80180000D03*
%TO.P,U4,6,VDD*%
%TO.N,+5V*%
X90990000Y-78910000D03*
%TD*%
D35*
%TO.N,GND*%
X114120000Y-84090000D02*
X120077716Y-84090000D01*
D36*
X90990000Y-81450000D02*
X92990000Y-81450000D01*
D35*
X120077716Y-84090000D02*
X129298858Y-74868858D01*
D36*
X92990000Y-81450000D02*
X93000000Y-81440000D01*
D35*
%TO.N,+BATT*%
X85500000Y-59000000D02*
X80987246Y-54487246D01*
X80987246Y-54487246D02*
X72000000Y-54487246D01*
X70512754Y-54487246D02*
X60000000Y-65000000D01*
X72000000Y-54487246D02*
X70512754Y-54487246D01*
X88000000Y-59000000D02*
X85500000Y-59000000D01*
D37*
%TO.N,+5V*%
X98880000Y-76470000D02*
X95470000Y-76470000D01*
D36*
X92970000Y-78910000D02*
X93000000Y-78940000D01*
D37*
X98000000Y-73340000D02*
X98920000Y-74260000D01*
D35*
X111000000Y-53000000D02*
X115260000Y-57260000D01*
D37*
X95470000Y-76470000D02*
X93000000Y-78940000D01*
D35*
X127110000Y-69690000D02*
X129170000Y-69690000D01*
D37*
X98880000Y-76470000D02*
X98880000Y-74300000D01*
X98000000Y-59000000D02*
X98000000Y-73340000D01*
D36*
X90990000Y-78910000D02*
X92970000Y-78910000D01*
D35*
X100500000Y-59000000D02*
X106500000Y-53000000D01*
X106500000Y-53000000D02*
X111000000Y-53000000D01*
X117160000Y-59740000D02*
X127110000Y-69690000D01*
X115260000Y-59740000D02*
X111000000Y-64000000D01*
X115260000Y-59740000D02*
X117160000Y-59740000D01*
D37*
X98880000Y-74300000D02*
X98920000Y-74260000D01*
D35*
X115260000Y-57260000D02*
X115260000Y-59740000D01*
X98000000Y-59000000D02*
X100500000Y-59000000D01*
%TO.N,GNDD*%
X68680000Y-76300000D02*
X67000000Y-76300000D01*
D37*
X84690000Y-84910000D02*
X87780000Y-88000000D01*
D35*
X72280000Y-72700000D02*
X68680000Y-76300000D01*
X72280000Y-72700000D02*
X72700000Y-72700000D01*
X76600000Y-76600000D02*
X78000000Y-76600000D01*
D37*
X84690000Y-81450000D02*
X84690000Y-84910000D01*
D35*
X72700000Y-72700000D02*
X76600000Y-76600000D01*
D37*
%TO.N,Net-(D1-A)*%
X88720000Y-109220000D02*
X94680000Y-109220000D01*
X94680000Y-109220000D02*
X97460000Y-112000000D01*
D36*
%TO.N,/PhotoCoupler/signal_out*%
X101420000Y-84090000D02*
X107790000Y-77720000D01*
X123690000Y-77720000D02*
X129170000Y-72240000D01*
X107790000Y-77720000D02*
X123690000Y-77720000D01*
D38*
%TO.N,VDD*%
X62000000Y-79000000D02*
X60000000Y-77000000D01*
D37*
X54080000Y-82920000D02*
X54080000Y-107187056D01*
D38*
X67000000Y-79000000D02*
X70000000Y-79000000D01*
X67000000Y-79000000D02*
X62000000Y-79000000D01*
D37*
X60000000Y-77000000D02*
X54080000Y-82920000D01*
X54080000Y-107187056D02*
X61892944Y-115000000D01*
X80060000Y-110720000D02*
X78560000Y-109220000D01*
X80060000Y-112921321D02*
X80060000Y-110720000D01*
X61892944Y-115000000D02*
X77981321Y-115000000D01*
X77981321Y-115000000D02*
X80060000Y-112921321D01*
D36*
%TO.N,Net-(U4-A)*%
X75090000Y-112300000D02*
X75090000Y-109220000D01*
X106764000Y-86114000D02*
X106764000Y-106278714D01*
X106764000Y-106278714D02*
X105902714Y-107140000D01*
X105902714Y-107140000D02*
X77170000Y-107140000D01*
X106750000Y-86100000D02*
X106764000Y-86114000D01*
X77170000Y-107140000D02*
X75090000Y-109220000D01*
X84690000Y-78910000D02*
X91880000Y-86100000D01*
X91880000Y-86100000D02*
X106750000Y-86100000D01*
%TO.N,/PhotoCoupler/signal_in*%
X64930000Y-112300000D02*
X64930000Y-105790000D01*
X64930000Y-105790000D02*
X64920000Y-105780000D01*
D37*
%TO.N,Net-(D2-A)*%
X103460000Y-112000000D02*
X101860000Y-113600000D01*
X101860000Y-113600000D02*
X90020000Y-113600000D01*
X90020000Y-113600000D02*
X88720000Y-112300000D01*
D38*
%TO.N,+3.3V*%
X75460000Y-79300000D02*
X78000000Y-79300000D01*
D37*
X62390000Y-113800000D02*
X77060000Y-113800000D01*
D38*
X74560000Y-79000000D02*
X75160000Y-79000000D01*
X73291572Y-79000000D02*
X67460000Y-84831572D01*
D37*
X55280000Y-87580000D02*
X55280000Y-106690000D01*
D38*
X67460000Y-84831572D02*
X67460000Y-85160000D01*
D37*
X57700000Y-85160000D02*
X55280000Y-87580000D01*
D38*
X74560000Y-79000000D02*
X73291572Y-79000000D01*
X67460000Y-88000000D02*
X67460000Y-85160000D01*
D37*
X55280000Y-106690000D02*
X62390000Y-113800000D01*
X77060000Y-113800000D02*
X78560000Y-112300000D01*
X67460000Y-85160000D02*
X57700000Y-85160000D01*
D38*
X75160000Y-79000000D02*
X75460000Y-79300000D01*
D36*
%TO.N,Net-(U4-VO)*%
X89940000Y-81924780D02*
X92105220Y-84090000D01*
X90990000Y-80180000D02*
X90735220Y-80180000D01*
X89940000Y-80975220D02*
X89940000Y-81924780D01*
X90735220Y-80180000D02*
X89940000Y-80975220D01*
X92105220Y-84090000D02*
X98880000Y-84090000D01*
%TD*%
M02*
